<svg xmlns="http://www.w3.org/2000/svg" width="152" height="151" viewBox="0 0 152 151">
  <g id="Grupo_164929" data-name="Grupo 164929" transform="translate(-724.676 -25329)">
    <ellipse id="Elipse_6396" data-name="Elipse 6396" cx="76" cy="75.5" rx="76" ry="75.5" transform="translate(724.676 25329)" fill="#fff"/>
    <path id="Trazado_225295" data-name="Trazado 225295" d="M39.5,63H9.734V56.555L23.445,42.141q5.068-5.771,5.068-9.17a6.378,6.378,0,0,0-1.2-4.189,4.289,4.289,0,0,0-3.486-1.436,4.342,4.342,0,0,0-3.662,1.919,7.886,7.886,0,0,0-1.406,4.79h-9.9A14.009,14.009,0,0,1,10.818,26.8a13.765,13.765,0,0,1,5.449-5.2,16.187,16.187,0,0,1,7.793-1.875q6.914,0,10.649,3.193t3.735,9.17A13.316,13.316,0,0,1,37.508,37a21.52,21.52,0,0,1-2.915,5.01,73.43,73.43,0,0,1-6.372,7.017l-5.508,6.357H39.5Z" transform="translate(775.676 25378)" fill="#ff2c9c"/>
  </g>
</svg>
