<svg xmlns="http://www.w3.org/2000/svg" width="152" height="151" viewBox="0 0 152 151">
  <g id="Grupo_164930" data-name="Grupo 164930" transform="translate(-1143.676 -25329)">
    <ellipse id="Elipse_6396" data-name="Elipse 6396" cx="76" cy="75.5" rx="76" ry="75.5" transform="translate(1143.676 25329)" fill="#fff"/>
    <path id="Trazado_225296" data-name="Trazado 225296" d="M18.758,37.541h4.658q5.537,0,5.537-5.42a4.687,4.687,0,0,0-1.318-3.442,5,5,0,0,0-3.721-1.333A5.352,5.352,0,0,0,20.5,28.488a3.486,3.486,0,0,0-1.45,2.842H9.178a10.107,10.107,0,0,1,1.875-6.006,12.382,12.382,0,0,1,5.2-4.116,17.779,17.779,0,0,1,7.31-1.479q7.119,0,11.191,3.252a10.811,10.811,0,0,1,4.072,8.936,9.01,9.01,0,0,1-1.685,5.2,12.007,12.007,0,0,1-4.907,3.97,11.468,11.468,0,0,1,5.332,3.735,9.837,9.837,0,0,1,1.934,6.2,11.007,11.007,0,0,1-4.395,9.141q-4.395,3.428-11.543,3.428a18.917,18.917,0,0,1-7.778-1.6,12.187,12.187,0,0,1-5.435-4.424A11.5,11.5,0,0,1,8.5,51.135h9.932a4.445,4.445,0,0,0,1.582,3.4,5.585,5.585,0,0,0,3.9,1.436,5.85,5.85,0,0,0,4.16-1.45,4.847,4.847,0,0,0,1.553-3.706q0-3.223-1.611-4.57a6.736,6.736,0,0,0-4.453-1.348h-4.8Z" transform="translate(1195.676 25378)" fill="#ff2c9c"/>
  </g>
</svg>
