<svg xmlns="http://www.w3.org/2000/svg" xmlns:xlink="http://www.w3.org/1999/xlink" width="541" height="649.864" viewBox="0 0 541 649.864">
  <defs>
    <linearGradient id="linear-gradient" x1="0.311" y1="1" x2="1" y2="1" gradientUnits="objectBoundingBox">
      <stop offset="0" stop-color="#fff" stop-opacity="0"/>
      <stop offset="0.36" stop-color="#94bede"/>
      <stop offset="0.551" stop-color="#6084a7"/>
      <stop offset="1" stop-color="#213e64"/>
    </linearGradient>
    <radialGradient id="radial-gradient" cx="-0.095" cy="0.312" r="0.861" gradientTransform="translate(-0.366) scale(1.732 1)" gradientUnits="objectBoundingBox">
      <stop offset="0" stop-color="#274f89"/>
      <stop offset="1" stop-color="#173d7a"/>
    </radialGradient>
    <linearGradient id="linear-gradient-2" y1="0.5" x2="1.319" y2="0.5" gradientUnits="objectBoundingBox">
      <stop offset="0" stop-color="#d4ecff"/>
      <stop offset="0.239" stop-color="#d0e9fd"/>
      <stop offset="0.46" stop-color="#c5e2f9"/>
      <stop offset="0.675" stop-color="#b2d5f1"/>
      <stop offset="0.884" stop-color="#98c4e7"/>
      <stop offset="1" stop-color="#86b8e0"/>
    </linearGradient>
    <radialGradient id="radial-gradient-2" cx="-1.237" cy="-0.578" r="1.555" gradientTransform="translate(-0.366) scale(1.732 1)" gradientUnits="objectBoundingBox">
      <stop offset="0" stop-color="#699dd1"/>
      <stop offset="0.266" stop-color="#6296cb"/>
      <stop offset="0.641" stop-color="#5084bd"/>
      <stop offset="1" stop-color="#396caa"/>
    </radialGradient>
    <radialGradient id="radial-gradient-3" cx="-0.095" cy="0.312" r="0.861" xlink:href="#radial-gradient"/>
    <radialGradient id="radial-gradient-4" cx="-1.237" cy="-0.578" r="1.555" xlink:href="#radial-gradient-2"/>
    <radialGradient id="radial-gradient-5" cx="0.055" cy="0.064" r="1.056" gradientTransform="translate(-0.02) scale(1.039 1)" xlink:href="#radial-gradient-2"/>
    <linearGradient id="linear-gradient-4" x1="0.131" y1="0.119" x2="0.99" y2="1.006" gradientUnits="objectBoundingBox">
      <stop offset="0" stop-color="#d4ecff"/>
      <stop offset="0.201" stop-color="#d0e9fd"/>
      <stop offset="0.387" stop-color="#c5e2f9"/>
      <stop offset="0.568" stop-color="#b2d5f1"/>
      <stop offset="0.744" stop-color="#98c4e7"/>
      <stop offset="0.842" stop-color="#86b8e0"/>
    </linearGradient>
    <radialGradient id="radial-gradient-6" cx="0.385" cy="0.966" r="0.708" gradientTransform="translate(0.212) scale(0.577 1)" gradientUnits="objectBoundingBox">
      <stop offset="0" stop-color="#396caa"/>
      <stop offset="0.359" stop-color="#5084bd"/>
      <stop offset="0.734" stop-color="#6296cb"/>
      <stop offset="1" stop-color="#699dd1"/>
    </radialGradient>
    <radialGradient id="radial-gradient-7" cx="0.996" cy="0.327" r="1.237" gradientTransform="translate(0.212) scale(0.577 1)" gradientUnits="objectBoundingBox">
      <stop offset="0" stop-color="#173d7a"/>
      <stop offset="0.423" stop-color="#143a76"/>
      <stop offset="0.815" stop-color="#0d336b"/>
      <stop offset="1" stop-color="#092e63"/>
    </radialGradient>
    <radialGradient id="radial-gradient-8" cx="-0.062" cy="0.839" r="0.382" gradientTransform="translate(-0.723) scale(2.447 1)" xlink:href="#radial-gradient-2"/>
    <radialGradient id="radial-gradient-9" cx="-0.169" cy="1.053" r="0.384" gradientTransform="translate(-0.689) scale(2.377 1)" xlink:href="#radial-gradient-2"/>
    <radialGradient id="radial-gradient-10" cx="-0.062" cy="0.839" r="0.382" gradientTransform="translate(-0.723) scale(2.447 1)" xlink:href="#radial-gradient-2"/>
    <radialGradient id="radial-gradient-11" cx="-0.169" cy="1.053" r="0.384" gradientTransform="translate(-0.689) scale(2.377 1)" xlink:href="#radial-gradient-2"/>
    <radialGradient id="radial-gradient-12" cx="0.5" cy="0.5" r="0.471" gradientTransform="translate(-0.069) scale(1.139 1)" xlink:href="#radial-gradient-2"/>
    <linearGradient id="linear-gradient-5" x1="0" x2="1" xlink:href="#linear-gradient-2"/>
    <radialGradient id="radial-gradient-13" cx="1.002" cy="0.908" r="1.092" gradientTransform="translate(0.007) scale(0.987 1)" gradientUnits="objectBoundingBox">
      <stop offset="0" stop-color="#173d7a"/>
      <stop offset="1" stop-color="#274f89"/>
    </radialGradient>
  </defs>
  <g id="Grupo_152010" data-name="Grupo 152010" transform="translate(6861.5 11516.203)">
    <rect id="Rectángulo_42328" data-name="Rectángulo 42328" width="530.021" height="541" transform="translate(-6320.5 -11457.5) rotate(90)" fill="url(#linear-gradient)"/>
    <g id="Grupo_142778" data-name="Grupo 142778" transform="translate(-7004.787 -11552.562)">
      <g id="Grupo_142603" data-name="Grupo 142603" transform="translate(213.479 137.142)" opacity="0.158">
        <path id="Trazado_183874" data-name="Trazado 183874" d="M542.572,163.071l-38.138-22.019,38.138-22.02,38.139,22.02Zm-35.437-22.019,35.437,20.46,35.439-20.46-35.439-20.46Z" transform="translate(-136.55 -119.03)" fill="#fff"/>
        <path id="Trazado_183875" data-name="Trazado 183875" d="M482.219,163.071l-38.139-22.02,38.138-22.019.336.2,37.8,21.824Zm-35.439-22.02,35.439,20.461,35.437-20.46-35.439-20.46Z" transform="translate(-149.772 -119.03)" fill="#fff"/>
        <path id="Trazado_183876" data-name="Trazado 183876" d="M512.4,180.494l-38.139-22.019,38.139-22.02,38.138,22.02Zm-35.439-22.019,35.439,20.46,35.438-20.46L512.4,138.015Z" transform="translate(-143.161 -115.213)" fill="#fff"/>
        <path id="Trazado_183877" data-name="Trazado 183877" d="M542.573,197.917l-.336-.2-37.8-21.824,38.138-22.02.338.2,37.8,21.825ZM507.134,175.9l35.439,20.46,35.439-20.46-35.44-20.461Z" transform="translate(-136.55 -111.396)" fill="#fff"/>
        <path id="Trazado_183878" data-name="Trazado 183878" d="M421.864,163.07l-.336-.2-37.8-21.824,38.138-22.02.338.2L460,141.051Zm-35.439-22.019,35.439,20.46,35.439-20.46-35.44-20.46Z" transform="translate(-162.995 -119.03)" fill="#fff"/>
        <path id="Trazado_183879" data-name="Trazado 183879" d="M452.042,180.493l-.336-.2-37.8-21.824,38.138-22.02,38.139,22.021ZM416.6,158.474l35.439,20.46,35.437-20.459-35.439-20.461Z" transform="translate(-156.383 -115.213)" fill="#fff"/>
        <path id="Trazado_183880" data-name="Trazado 183880" d="M482.22,197.916l-.336-.2-37.8-21.824,38.138-22.019,38.138,22.02ZM446.781,175.9l35.439,20.46L517.656,175.9l-35.437-20.461Z" transform="translate(-149.772 -111.396)" fill="#fff"/>
        <path id="Trazado_183881" data-name="Trazado 183881" d="M512.4,215.34l-38.139-22.021L512.4,171.3l.336.2,37.8,21.824Zm-35.439-22.021L512.4,213.781l35.437-20.461L512.4,172.86Z" transform="translate(-143.161 -107.578)" fill="#fff"/>
        <path id="Trazado_183882" data-name="Trazado 183882" d="M542.574,232.763l-.336-.2-37.8-21.825,38.138-22.019.338.2,37.8,21.824Zm-35.439-22.02,35.439,20.46,35.439-20.46-35.44-20.46Z" transform="translate(-136.55 -103.761)" fill="#fff"/>
        <path id="Trazado_183883" data-name="Trazado 183883" d="M361.51,163.07l-38.139-22.02,38.138-22.019.336.2,37.8,21.824Zm-35.439-22.02,35.439,20.461,35.437-20.46-35.439-20.46Z" transform="translate(-176.217 -119.03)" fill="#fff"/>
        <path id="Trazado_183884" data-name="Trazado 183884" d="M391.688,180.493l-.338-.2-37.8-21.824,38.139-22.02.336.2,37.8,21.825Zm-35.44-22.019,35.44,20.46,35.437-20.46-35.439-20.46Z" transform="translate(-169.606 -115.213)" fill="#fff"/>
        <path id="Trazado_183885" data-name="Trazado 183885" d="M421.865,197.916l-.336-.2-37.8-21.824,38.138-22.02.338.2L460,175.9ZM386.426,175.9l35.439,20.46L457.3,175.9l-35.44-20.461Z" transform="translate(-162.995 -111.396)" fill="#fff"/>
        <path id="Trazado_183886" data-name="Trazado 183886" d="M452.043,215.339l-.336-.2-37.8-21.825L452.042,171.3l.338.2,37.8,21.824ZM416.6,193.319l35.439,20.461,35.437-20.461-35.439-20.46Z" transform="translate(-156.383 -107.579)" fill="#fff"/>
        <path id="Trazado_183887" data-name="Trazado 183887" d="M482.22,232.762l-38.138-22.02,38.138-22.019,38.138,22.02Zm-35.437-22.02L482.22,231.2l35.437-20.459L482.22,190.282Z" transform="translate(-149.772 -103.762)" fill="#fff"/>
        <path id="Trazado_183888" data-name="Trazado 183888" d="M512.4,250.186l-38.14-22.022L512.4,206.147l.336.2,37.8,21.824Zm-35.44-22.022,35.44,20.461,35.437-20.46L512.4,207.706Z" transform="translate(-143.161 -99.944)" fill="#fff"/>
        <path id="Trazado_183889" data-name="Trazado 183889" d="M542.575,267.608l-.337-.2-37.8-21.824,38.138-22.02.338.2,37.8,21.824Zm-35.439-22.019,35.439,20.46,35.439-20.46-35.44-20.46Z" transform="translate(-136.55 -96.128)" fill="#fff"/>
        <path id="Trazado_183890" data-name="Trazado 183890" d="M301.155,163.069l-.336-.2-37.8-21.824,38.138-22.02.338.2,37.8,21.824ZM265.716,141.05l35.439,20.46,35.439-20.46-35.44-20.46Z" transform="translate(-189.44 -119.03)" fill="#fff"/>
        <path id="Trazado_183891" data-name="Trazado 183891" d="M331.333,180.492l-.336-.2-37.8-21.824,38.138-22.02,38.139,22.021Zm-35.439-22.019,35.439,20.46,35.437-20.459-35.439-20.461Z" transform="translate(-182.828 -115.213)" fill="#fff"/>
        <path id="Trazado_183892" data-name="Trazado 183892" d="M361.511,197.915l-.336-.2-37.8-21.824,38.138-22.019.337.2,37.8,21.825ZM326.072,175.9l35.439,20.46L396.948,175.9,361.51,155.436Z" transform="translate(-176.217 -111.396)" fill="#fff"/>
        <path id="Trazado_183893" data-name="Trazado 183893" d="M391.689,215.339l-38.14-22.021L391.688,171.3l.336.2,37.8,21.824Zm-35.44-22.021,35.44,20.462,35.437-20.461-35.439-20.46Z" transform="translate(-169.606 -107.579)" fill="#fff"/>
        <path id="Trazado_183894" data-name="Trazado 183894" d="M421.866,232.762l-.336-.2-37.8-21.825,38.138-22.019.338.2L460,210.742Zm-35.439-22.02,35.439,20.46,35.439-20.46-35.44-20.46Z" transform="translate(-162.994 -103.762)" fill="#fff"/>
        <path id="Trazado_183895" data-name="Trazado 183895" d="M452.043,250.185,413.9,228.165l38.138-22.019,38.138,22.019Zm-35.437-22.02,35.437,20.46,35.437-20.46-35.437-20.46Z" transform="translate(-156.383 -99.945)" fill="#fff"/>
        <path id="Trazado_183896" data-name="Trazado 183896" d="M482.221,267.607l-.338-.2-37.8-21.824,38.138-22.02,38.139,22.021Zm-35.439-22.019,35.439,20.46,35.437-20.459L482.22,225.128Z" transform="translate(-149.772 -96.128)" fill="#fff"/>
        <path id="Trazado_183897" data-name="Trazado 183897" d="M512.4,285.03l-.338-.2-37.8-21.824L512.4,240.992l.336.2,37.8,21.825Zm-35.44-22.019,35.44,20.46,35.437-20.459L512.4,242.552Z" transform="translate(-143.161 -92.311)" fill="#fff"/>
        <path id="Trazado_183898" data-name="Trazado 183898" d="M542.576,302.454l-38.139-22.02,38.138-22.019.338.2,37.8,21.825Zm-35.439-22.02L542.576,300.9l35.439-20.46-35.44-20.461Z" transform="translate(-136.549 -88.494)" fill="#fff"/>
        <path id="Trazado_183899" data-name="Trazado 183899" d="M240.8,163.068l-.336-.2-37.8-21.824L240.8,119.03l.336.2,37.8,21.824Zm-35.439-22.019,35.439,20.46,35.437-20.459L240.8,120.59Z" transform="translate(-202.662 -119.03)" fill="#fff"/>
        <path id="Trazado_183900" data-name="Trazado 183900" d="M270.979,180.492l-38.139-22.02,38.138-22.019.336.2,37.8,21.825Zm-35.44-22.02,35.44,20.461,35.437-20.46-35.439-20.46Z" transform="translate(-196.051 -115.213)" fill="#fff"/>
        <path id="Trazado_183901" data-name="Trazado 183901" d="M301.156,197.915l-.336-.2-37.8-21.824,38.138-22.02.338.2,37.8,21.825ZM265.717,175.9l35.439,20.46,35.439-20.46-35.44-20.461Z" transform="translate(-189.439 -111.396)" fill="#fff"/>
        <path id="Trazado_183902" data-name="Trazado 183902" d="M331.334,215.338l-.336-.2-37.8-21.825L331.333,171.3l.338.2,37.8,21.824ZM295.9,193.318l35.439,20.461,35.437-20.461-35.439-20.46Z" transform="translate(-182.828 -107.579)" fill="#fff"/>
        <path id="Trazado_183903" data-name="Trazado 183903" d="M361.512,232.761l-.338-.2-37.8-21.825,38.138-22.019,38.139,22.02Zm-35.439-22.02L361.512,231.2l35.437-20.46-35.439-20.461Z" transform="translate(-176.217 -103.762)" fill="#fff"/>
        <path id="Trazado_183904" data-name="Trazado 183904" d="M391.69,250.184l-.338-.2-37.8-21.825,38.139-22.018.336.2,37.8,21.824Zm-35.44-22.02,35.44,20.46,35.437-20.459-35.439-20.46Z" transform="translate(-169.605 -99.945)" fill="#fff"/>
        <path id="Trazado_183905" data-name="Trazado 183905" d="M421.867,267.607l-38.139-22.02,38.138-22.019L460,245.588Zm-35.439-22.02,35.439,20.461,35.437-20.46-35.439-20.46Z" transform="translate(-162.994 -96.128)" fill="#fff"/>
        <path id="Trazado_183906" data-name="Trazado 183906" d="M452.044,285.03l-38.138-22.019,38.137-22.02.336.2,37.8,21.825Zm-35.437-22.019,35.437,20.46,35.437-20.46-35.439-20.46Z" transform="translate(-156.383 -92.311)" fill="#fff"/>
        <path id="Trazado_183907" data-name="Trazado 183907" d="M482.222,302.453l-.338-.2-37.8-21.824,38.138-22.02.336.2,37.8,21.825Zm-35.439-22.019,35.439,20.46,35.437-20.46-35.439-20.461Z" transform="translate(-149.772 -88.494)" fill="#fff"/>
        <path id="Trazado_183908" data-name="Trazado 183908" d="M512.4,319.876l-.338-.2-37.8-21.825L512.4,275.837l38.139,22.02Zm-35.44-22.02,35.44,20.461,35.437-20.46L512.4,277.4Z" transform="translate(-143.16 -84.677)" fill="#fff"/>
        <path id="Trazado_183909" data-name="Trazado 183909" d="M542.577,337.3l-38.139-22.021,38.138-22.018.338.2,37.8,21.824Zm-35.439-22.021,35.439,20.461,35.439-20.46-35.44-20.46Z" transform="translate(-136.549 -80.86)" fill="#fff"/>
        <path id="Trazado_183910" data-name="Trazado 183910" d="M240.8,197.914l-.336-.2-37.8-21.824,38.138-22.02L278.94,175.9ZM205.363,175.9l35.439,20.46L276.239,175.9,240.8,155.434Z" transform="translate(-202.662 -111.396)" fill="#fff"/>
        <path id="Trazado_183911" data-name="Trazado 183911" d="M270.98,215.338l-38.14-22.021L270.979,171.3l.336.2,37.8,21.824Zm-35.44-22.021,35.44,20.462,35.437-20.461-35.439-20.46Z" transform="translate(-196.051 -107.579)" fill="#fff"/>
        <path id="Trazado_183912" data-name="Trazado 183912" d="M301.157,232.761l-.336-.2-37.8-21.825,38.138-22.019.338.2,37.8,21.824Zm-35.439-22.02L301.157,231.2,336.6,210.741l-35.44-20.46Z" transform="translate(-189.439 -103.762)" fill="#fff"/>
        <path id="Trazado_183913" data-name="Trazado 183913" d="M331.335,250.184l-.336-.2-37.8-21.825,38.138-22.019.336.2,37.8,21.824ZM295.9,228.164l35.439,20.46,35.437-20.46L331.334,207.7Z" transform="translate(-182.828 -99.945)" fill="#fff"/>
        <path id="Trazado_183914" data-name="Trazado 183914" d="M361.513,267.607l-.338-.2-37.8-21.824,38.138-22.019.336.2,37.8,21.824Zm-35.439-22.02,35.439,20.46,35.437-20.46-35.439-20.46Z" transform="translate(-176.216 -96.128)" fill="#fff"/>
        <path id="Trazado_183915" data-name="Trazado 183915" d="M391.691,285.029l-.338-.2-37.8-21.824,38.139-22.02,38.139,22.021Zm-35.44-22.019,35.44,20.46,35.437-20.459L391.69,242.55Z" transform="translate(-169.605 -92.311)" fill="#fff"/>
        <path id="Trazado_183916" data-name="Trazado 183916" d="M421.867,302.453l-38.138-22.02,38.138-22.019,38.139,22.02Zm-35.437-22.02,35.437,20.461,35.439-20.46-35.439-20.461Z" transform="translate(-162.994 -88.494)" fill="#fff"/>
        <path id="Trazado_183917" data-name="Trazado 183917" d="M452.045,319.876l-.336-.2-37.8-21.825,38.138-22.019.336.2,37.8,21.824Zm-35.439-22.02,35.439,20.461,35.437-20.461L452.044,277.4Z" transform="translate(-156.383 -84.677)" fill="#fff"/>
        <path id="Trazado_183918" data-name="Trazado 183918" d="M482.223,337.3l-.338-.2-37.8-21.825,38.138-22.019.336.2,37.8,21.824Zm-35.44-22.02,35.44,20.461,35.438-20.461-35.439-20.46Z" transform="translate(-149.771 -80.86)" fill="#fff"/>
        <path id="Trazado_183919" data-name="Trazado 183919" d="M512.4,354.722l-.338-.2-37.8-21.825L512.4,310.683l38.139,22.02Zm-35.44-22.02,35.44,20.46L547.839,332.7,512.4,312.242Z" transform="translate(-143.16 -77.043)" fill="#fff"/>
        <path id="Trazado_183920" data-name="Trazado 183920" d="M542.578,372.145l-.336-.2-37.8-21.824,38.138-22.019.338.2,37.8,21.824Zm-35.439-22.02,35.439,20.46,35.439-20.459-35.44-20.46Z" transform="translate(-136.549 -73.226)" fill="#fff"/>
        <path id="Trazado_183921" data-name="Trazado 183921" d="M240.8,232.76l-.336-.2-37.8-21.825L240.8,188.721l38.139,22.02Zm-35.439-22.02L240.8,231.2l35.437-20.46L240.8,190.28Z" transform="translate(-202.662 -103.762)" fill="#fff"/>
        <path id="Trazado_183922" data-name="Trazado 183922" d="M270.981,250.183l-.338-.2-37.8-21.825,38.139-22.018.336.2,37.8,21.824Zm-35.44-22.02,35.44,20.46,35.437-20.459L270.98,207.7Z" transform="translate(-196.05 -99.945)" fill="#fff"/>
        <path id="Trazado_183923" data-name="Trazado 183923" d="M301.158,267.607l-38.139-22.021,38.138-22.018.338.2,37.8,21.824Zm-35.439-22.021,35.439,20.461,35.439-20.46-35.44-20.46Z" transform="translate(-189.439 -96.128)" fill="#fff"/>
        <path id="Trazado_183924" data-name="Trazado 183924" d="M331.336,285.029l-.336-.2L293.2,263.01l38.138-22.02.336.2,37.8,21.825ZM295.9,263.01l35.439,20.46,35.437-20.46-35.439-20.46Z" transform="translate(-182.828 -92.311)" fill="#fff"/>
        <path id="Trazado_183925" data-name="Trazado 183925" d="M361.514,302.452l-.338-.2-37.8-21.824,38.138-22.02.336.2,37.8,21.825Zm-35.439-22.019,35.439,20.46,35.437-20.46-35.439-20.46Z" transform="translate(-176.216 -88.494)" fill="#fff"/>
        <path id="Trazado_183926" data-name="Trazado 183926" d="M391.691,319.875l-38.139-22.019,38.139-22.02,38.138,22.02Zm-35.439-22.019,35.439,20.46,35.437-20.46L391.691,277.4Z" transform="translate(-169.605 -84.677)" fill="#fff"/>
        <path id="Trazado_183927" data-name="Trazado 183927" d="M421.868,337.3l-.336-.2-37.8-21.825,38.138-22.018.338.2,37.8,21.824Zm-35.439-22.02,35.439,20.461,35.439-20.46-35.44-20.46Z" transform="translate(-162.994 -80.86)" fill="#fff"/>
        <path id="Trazado_183928" data-name="Trazado 183928" d="M452.046,354.722,413.907,332.7l38.138-22.018.336.2,37.8,21.824ZM416.607,332.7l35.439,20.461,35.437-20.46-35.439-20.46Z" transform="translate(-156.383 -77.043)" fill="#fff"/>
        <path id="Trazado_183929" data-name="Trazado 183929" d="M482.224,372.145l-.338-.2-37.8-21.824,38.138-22.019.336.2,37.8,21.824Zm-35.44-22.02,35.44,20.46,35.437-20.46-35.439-20.46Z" transform="translate(-149.771 -73.226)" fill="#fff"/>
        <path id="Trazado_183930" data-name="Trazado 183930" d="M240.8,267.606l-.338-.2-37.8-21.824L240.8,223.567l.336.2,37.8,21.824Zm-35.439-22.02,35.439,20.46,35.437-20.46L240.8,225.126Z" transform="translate(-202.661 -96.128)" fill="#fff"/>
        <path id="Trazado_183931" data-name="Trazado 183931" d="M270.982,285.028l-.338-.2-37.8-21.824,38.139-22.02L309.12,263.01Zm-35.44-22.019,35.44,20.46L306.42,263.01l-35.439-20.461Z" transform="translate(-196.05 -92.311)" fill="#fff"/>
        <path id="Trazado_183932" data-name="Trazado 183932" d="M301.159,302.452l-38.139-22.02,38.138-22.019.338.2,37.8,21.825Zm-35.439-22.02,35.439,20.461,35.439-20.46-35.44-20.46Z" transform="translate(-189.439 -88.494)" fill="#fff"/>
        <path id="Trazado_183933" data-name="Trazado 183933" d="M331.337,319.875l-.336-.2-37.8-21.824,38.138-22.02.336.2,37.8,21.825ZM295.9,297.856l35.439,20.46,35.437-20.46L331.336,277.4Z" transform="translate(-182.827 -84.677)" fill="#fff"/>
        <path id="Trazado_183934" data-name="Trazado 183934" d="M361.515,337.3l-.338-.2-37.8-21.825,38.138-22.019,38.138,22.019Zm-35.44-22.02,35.44,20.461,35.436-20.461-35.437-20.46Z" transform="translate(-176.216 -80.86)" fill="#fff"/>
        <path id="Trazado_183935" data-name="Trazado 183935" d="M391.692,354.721,353.553,332.7l38.138-22.019.336.2,37.8,21.824ZM356.253,332.7l35.439,20.46,35.437-20.46-35.439-20.46Z" transform="translate(-169.605 -77.043)" fill="#fff"/>
        <path id="Trazado_183936" data-name="Trazado 183936" d="M421.869,372.144l-.336-.2-37.8-21.824,38.138-22.019,38.139,22.02Zm-35.439-22.02,35.439,20.46,35.439-20.459-35.44-20.461Z" transform="translate(-162.994 -73.226)" fill="#fff"/>
        <path id="Trazado_183937" data-name="Trazado 183937" d="M240.8,302.451l-.338-.2-37.8-21.824,38.138-22.02.336.2,37.8,21.825Zm-35.439-22.019,35.439,20.46,35.437-20.46L240.8,259.972Z" transform="translate(-202.661 -88.494)" fill="#fff"/>
        <path id="Trazado_183938" data-name="Trazado 183938" d="M270.983,319.874l-.338-.2-37.8-21.824,38.139-22.02,38.139,22.021Zm-35.44-22.019,35.44,20.46,35.437-20.459-35.439-20.462Z" transform="translate(-196.05 -84.677)" fill="#fff"/>
        <path id="Trazado_183939" data-name="Trazado 183939" d="M301.16,337.3l-.336-.2-37.8-21.825,38.138-22.018.338.2,37.8,21.824Zm-35.439-22.02,35.439,20.461,35.439-20.46-35.44-20.46Z" transform="translate(-189.439 -80.86)" fill="#fff"/>
        <path id="Trazado_183940" data-name="Trazado 183940" d="M331.338,354.721,293.2,332.7l38.138-22.018.336.2,37.8,21.824ZM295.9,332.7l35.439,20.461,35.437-20.46-35.439-20.46Z" transform="translate(-182.827 -77.043)" fill="#fff"/>
        <path id="Trazado_183941" data-name="Trazado 183941" d="M361.515,372.144l-38.138-22.02,38.138-22.019,38.138,22.019Zm-35.439-22.02,35.439,20.46,35.437-20.46-35.437-20.46Z" transform="translate(-176.216 -73.226)" fill="#fff"/>
        <path id="Trazado_183942" data-name="Trazado 183942" d="M240.806,337.3l-.338-.2-37.8-21.825L240.8,293.258l.336.2,37.8,21.824Zm-35.44-22.02,35.44,20.461,35.437-20.461L240.8,294.817Z" transform="translate(-202.661 -80.86)" fill="#fff"/>
        <path id="Trazado_183943" data-name="Trazado 183943" d="M270.984,354.72l-.338-.2-37.8-21.825,38.139-22.019.336.2,37.8,21.824Zm-35.44-22.02,35.44,20.46,35.437-20.46-35.439-20.46Z" transform="translate(-196.05 -77.043)" fill="#fff"/>
        <path id="Trazado_183944" data-name="Trazado 183944" d="M301.161,372.143l-.336-.2-37.8-21.824L301.16,328.1l38.139,22.02Zm-35.439-22.02,35.439,20.46L336.6,350.124l-35.44-20.461Z" transform="translate(-189.438 -73.226)" fill="#fff"/>
        <path id="Trazado_183945" data-name="Trazado 183945" d="M240.807,372.143l-.338-.2-37.8-21.824L240.806,328.1l.336.2,37.8,21.824Zm-35.44-22.02,35.44,20.46,35.437-20.46-35.439-20.46Z" transform="translate(-202.661 -73.226)" fill="#fff"/>
      </g>
      <g id="Grupo_142605" data-name="Grupo 142605" transform="translate(270.267 94.048)">
        <g id="Grupo_142604" data-name="Grupo 142604" transform="translate(0)">
          <path id="Trazado_183946" data-name="Trazado 183946" d="M278.5,161.549l-27.54-15.9,27.539-15.9,27.54,15.9Z" transform="translate(-248.869 -73.588)" fill="#7dc3ea"/>
          <path id="Trazado_183947" data-name="Trazado 183947" d="M278.878,154.225a2.082,2.082,0,0,1-1.046-.282l-27.54-15.9a2.094,2.094,0,0,1,0-3.627l27.539-15.9a2.091,2.091,0,0,1,2.093,0l27.54,15.9a2.093,2.093,0,0,1,0,3.626l-27.539,15.9A2.086,2.086,0,0,1,278.878,154.225ZM255.526,136.23l23.353,13.483,23.353-13.482L278.877,122.75Z" transform="translate(-249.245 -76.11)" fill="#fff"/>
          <path id="Trazado_183948" data-name="Trazado 183948" d="M301.092,128.521l-27.539,15.9v-31.8l27.539-15.9Z" transform="translate(-243.92 -80.824)" fill="url(#radial-gradient)"/>
          <path id="Trazado_183949" data-name="Trazado 183949" d="M278.5,115.48l-27.539-15.9,27.538-15.9,27.539,15.9Z" transform="translate(-248.869 -83.681)" fill="url(#linear-gradient-2)"/>
          <path id="Trazado_183950" data-name="Trazado 183950" d="M278.5,144.421l-27.539-15.9v-31.8l27.539,15.9Z" transform="translate(-248.869 -80.824)" fill="url(#radial-gradient-2)"/>
        </g>
        <path id="Trazado_183951" data-name="Trazado 183951" d="M266.8,124.155l-7.7-4.447v-8.894l7.7,4.447Z" transform="translate(-247.086 -77.736)" fill="#fff"/>
      </g>
      <g id="Grupo_142607" data-name="Grupo 142607" transform="translate(208.633 333.261)">
        <g id="Grupo_142606" data-name="Grupo 142606">
          <path id="Trazado_183952" data-name="Trazado 183952" d="M227.944,357.773l-27.54-15.9,27.539-15.9,27.54,15.9Z" transform="translate(-198.311 -269.812)" fill="#7dc3ea"/>
          <path id="Trazado_183953" data-name="Trazado 183953" d="M228.32,350.448a2.1,2.1,0,0,1-1.047-.28l-27.538-15.9a2.091,2.091,0,0,1,0-3.626l27.538-15.9a2.092,2.092,0,0,1,2.093,0l27.539,15.9a2.093,2.093,0,0,1,0,3.626l-27.539,15.9A2.09,2.09,0,0,1,228.32,350.448Zm-23.351-17.992,23.351,13.481,23.351-13.481L228.32,318.973Z" transform="translate(-198.687 -272.334)" fill="#fff"/>
          <path id="Trazado_183954" data-name="Trazado 183954" d="M250.534,324.745,223,340.645v-31.8l27.539-15.9Z" transform="translate(-193.362 -277.047)" fill="url(#radial-gradient-3)"/>
          <path id="Trazado_183955" data-name="Trazado 183955" d="M227.944,311.7l-27.539-15.9,27.538-15.9,27.539,15.9Z" transform="translate(-198.311 -279.905)" fill="url(#linear-gradient-2)"/>
          <path id="Trazado_183956" data-name="Trazado 183956" d="M227.944,340.645l-27.539-15.9v-31.8l27.539,15.9Z" transform="translate(-198.311 -277.047)" fill="url(#radial-gradient-4)"/>
        </g>
        <path id="Trazado_183957" data-name="Trazado 183957" d="M216.243,320.379l-7.7-4.447v-8.894l7.7,4.447Z" transform="translate(-196.528 -273.96)" fill="#fff"/>
      </g>
      <g id="Grupo_142610" data-name="Grupo 142610" transform="translate(545.128 280.392)">
        <path id="Trazado_183958" data-name="Trazado 183958" d="M516.046,317.943l-37.993-21.935c-2.331-1.346-2.038-3.7.653-5.252l36.685-21.18c2.693-1.554,6.766-1.723,9.1-.377l37.993,21.935c2.332,1.346,2.039,3.7-.653,5.252l-36.685,21.18C522.451,319.121,518.378,319.289,516.046,317.943Z" transform="translate(-474.323 -229.58)" fill="#7dc3ea"/>
        <path id="Trazado_183959" data-name="Trazado 183959" d="M520.4,311.562a10.229,10.229,0,0,1-5.049-1.208L477.363,288.42a4.836,4.836,0,0,1-2.651-4.151c0-1.863,1.2-3.627,3.306-4.84l36.683-21.18c3.4-1.957,8.234-2.12,11.256-.375l37.991,21.934a4.834,4.834,0,0,1,2.653,4.151c0,1.862-1.206,3.626-3.306,4.84L526.61,309.978A12.639,12.639,0,0,1,520.4,311.562Zm.543-50.577a8.509,8.509,0,0,0-4.089,1l-36.685,21.18c-.922.533-1.142,1.013-1.148,1.1a1.389,1.389,0,0,0,.5.412l37.993,21.934c1.675.967,4.918.789,6.937-.378l36.686-21.18c.922-.532,1.144-1.013,1.15-1.1a1.4,1.4,0,0,0-.5-.412L523.8,261.612A5.853,5.853,0,0,0,520.947,260.985Z" transform="translate(-474.711 -232.127)" fill="#fff"/>
        <path id="Trazado_183960" data-name="Trazado 183960" d="M564.042,271.6h0V258.494l-29.393-.016-10.161-5.866c-2.331-1.346-6.4-1.178-9.1.377l-9.48,5.474-29.42-.017v13.482a2.633,2.633,0,0,0,1.562,2.437L516.045,296.3c2.332,1.347,6.4,1.178,9.1-.377l36.684-21.18C563.38,273.846,564.129,272.685,564.042,271.6Z" transform="translate(-474.322 -233.214)" fill="#396caa"/>
        <path id="Trazado_183961" data-name="Trazado 183961" d="M520.267,251.709a10.5,10.5,0,0,0-4.876,1.279l-9.48,5.474-29.42-.017v13.482a2.634,2.634,0,0,0,1.562,2.437L516.045,296.3a8.221,8.221,0,0,0,4.222.9Z" transform="translate(-474.322 -233.213)" fill="url(#radial-gradient-5)"/>
        <path id="Trazado_183962" data-name="Trazado 183962" d="M479.82,257.236l-3.329,0v13.482a2.633,2.633,0,0,0,1.562,2.437l1.768,1.022Z" transform="translate(-474.322 -232.003)" fill="#d4ecff"/>
        <path id="Trazado_183963" data-name="Trazado 183963" d="M509.416,291.286a10.36,10.36,0,0,0,7.272-.083V275.9h-7.272Z" transform="translate(-467.108 -227.914)" fill="#5793ce"/>
        <path id="Trazado_183964" data-name="Trazado 183964" d="M516.046,286.189l-37.993-21.934c-2.331-1.347-2.038-3.7.653-5.253l36.685-21.179c2.693-1.554,6.766-1.724,9.1-.378l37.993,21.935c2.332,1.346,2.039,3.7-.653,5.252l-36.685,21.18C522.451,287.367,518.378,287.536,516.046,286.189Z" transform="translate(-474.323 -236.537)" fill="url(#linear-gradient-4)"/>
        <path id="Trazado_183965" data-name="Trazado 183965" d="M561.828,257.762l-36.685,21.18c-2.692,1.554-6.765,1.724-9.1.377l-37.993-21.935a3.506,3.506,0,0,1-1.163-1.033c-.8,1.29-.438,2.688,1.163,3.612L516.046,281.9c2.332,1.347,6.4,1.178,9.1-.377l36.685-21.18c2.092-1.207,2.728-2.894,1.816-4.219A5.086,5.086,0,0,1,561.828,257.762Z" transform="translate(-474.323 -232.246)" fill="#fff"/>
        <g id="Grupo_142608" data-name="Grupo 142608" transform="translate(72.677 35.052)">
          <path id="Trazado_183966" data-name="Trazado 183966" d="M537.4,271.062a3.39,3.39,0,0,1-1.534,2.658c-.847.49-1.535.093-1.535-.885a3.4,3.4,0,0,1,1.535-2.659C536.709,269.687,537.4,270.083,537.4,271.062Z" transform="translate(-534.327 -264.265)" fill="#d4ecff"/>
          <path id="Trazado_183967" data-name="Trazado 183967" d="M541.445,268.724a3.392,3.392,0,0,1-1.534,2.658c-.849.489-1.535.093-1.535-.886a3.391,3.391,0,0,1,1.535-2.658C540.759,267.349,541.445,267.745,541.445,268.724Z" transform="translate(-533.44 -264.778)" fill="#d4ecff"/>
          <path id="Trazado_183968" data-name="Trazado 183968" d="M545.5,266.386a3.391,3.391,0,0,1-1.535,2.658c-.847.489-1.534.093-1.534-.886a3.39,3.39,0,0,1,1.534-2.658C544.809,265.01,545.5,265.407,545.5,266.386Z" transform="translate(-532.552 -265.29)" fill="#d4ecff"/>
        </g>
        <g id="Grupo_142609" data-name="Grupo 142609" transform="translate(25.454 12.818)">
          <path id="Trazado_183969" data-name="Trazado 183969" d="M514.106,270.286l-17.779-10.265c-1.091-.629-.955-1.73.306-2.458l17.166-9.911a4.737,4.737,0,0,1,4.257-.177l17.779,10.265c1.091.63.955,1.731-.306,2.458l-17.166,9.911A4.73,4.73,0,0,1,514.106,270.286Z" transform="translate(-495.591 -247.052)" fill="#5793ce"/>
          <path id="Trazado_183970" data-name="Trazado 183970" d="M512.635,259.639l-2.46-1.42c-.151-.086-.132-.239.043-.34l2.375-1.37a.655.655,0,0,1,.589-.026l2.46,1.42c.151.088.132.24-.043.34l-2.375,1.371A.651.651,0,0,1,512.635,259.639Z" transform="translate(-492.418 -244.999)" fill="#d4ecff"/>
          <path id="Trazado_183971" data-name="Trazado 183971" d="M496.327,260.022l.051.029a2.584,2.584,0,0,1,.255-.176l17.166-9.911a4.733,4.733,0,0,1,4.257-.177l17.729,10.235c1.006-.719,1.058-1.7.05-2.282l-17.779-10.265a4.737,4.737,0,0,0-4.257.177l-17.166,9.911C495.373,258.292,495.236,259.393,496.327,260.022Z" transform="translate(-495.591 -247.052)" fill="#396caa"/>
        </g>
      </g>
      <path id="Trazado_183972" data-name="Trazado 183972" d="M622.25,211.883,503.525,143.132c-6.449-3.735-17.724-3.284-25.182,1.008l-249.17,143.4c-7.46,4.292-8.278,10.8-1.829,14.536l118.725,68.751c6.449,3.735,17.724,3.284,25.183-1.008l249.171-143.4C627.881,222.127,628.7,215.618,622.25,211.883Z" transform="translate(15.272 22.837)" fill="#7dc3ea"/>
      <path id="Trazado_183973" data-name="Trazado 183973" d="M357.443,362.061a24.411,24.411,0,0,1-12.043-2.828L226.676,290.481c-3.478-2.015-5.39-4.9-5.386-8.123,0-3.727,2.637-7.377,7.218-10.013l249.17-143.4c8.157-4.7,20.131-5.136,27.261-1.007l118.726,68.752c3.477,2.014,5.39,4.9,5.385,8.122,0,3.727-2.636,7.377-7.218,10.014l-249.17,143.4A31.21,31.21,0,0,1,357.443,362.061ZM492.956,129.3a27.329,27.329,0,0,0-13.2,3.245l-249.17,143.4c-3.212,1.849-5.132,4.247-5.135,6.417,0,2.147,1.8,3.643,3.312,4.519l118.724,68.751c5.767,3.34,16.348,2.877,23.1-1.012l249.171-143.4c3.214-1.848,5.132-4.247,5.136-6.417,0-2.147-1.8-3.643-3.312-4.518L502.856,131.538A20.224,20.224,0,0,0,492.956,129.3Z" transform="translate(14.898 19.444)" fill="#fff"/>
      <g id="Grupo_142615" data-name="Grupo 142615" transform="translate(228.456 92.053)">
        <g id="Grupo_142611" data-name="Grupo 142611">
          <path id="Trazado_183974" data-name="Trazado 183974" d="M344.373,338.164,220.814,266.612c-4.058-2.35-5.95-5.52-5.816-8.818l-.027.01.05-17.929,6.871,8.05c.446-.294.895-.588,1.382-.868l252.76-145.464c10.035-5.776,25.2-6.383,33.881-1.358l121.823,70.547c2.465-2.7,7.635-8.4,7.635-8.4l-.059,17.538,0,0c.183,3.953-2.631,8.165-8.3,11.426L378.252,336.807C368.218,342.582,353.049,343.189,344.373,338.164Z" transform="translate(-214.942 -78.805)" fill="url(#radial-gradient-6)"/>
          <path id="Trazado_183975" data-name="Trazado 183975" d="M266.62,259.644l7.116,4.11c.945.545,1.712-.034,1.712-1.295h0a4.1,4.1,0,0,0-1.712-3.27l-7.116-4.108c-.946-.546-1.712.034-1.712,1.293h0A4.094,4.094,0,0,0,266.62,259.644Z" transform="translate(-204.002 -44.18)" fill="#173d7a"/>
          <path id="Trazado_183976" data-name="Trazado 183976" d="M449.97,101.593c10.035-5.776,25.2-6.383,33.881-1.358l121.823,70.547c2.465-2.7,7.635-8.4,7.635-8.4l-.059,17.538,0,0c.182,3.953-2.632,8.165-8.3,11.426L352.187,336.807a39.1,39.1,0,0,1-18.242,4.739l.24-173.319Z" transform="translate(-188.877 -78.805)" fill="#396caa"/>
          <path id="Trazado_183977" data-name="Trazado 183977" d="M633.517,157,509.958,85.449c-8.676-5.025-23.845-4.418-33.879,1.357L223.317,232.27c-10.034,5.776-11.135,14.531-2.459,19.556l123.557,71.551c8.676,5.025,23.845,4.418,33.881-1.358l252.76-145.464C641.092,170.781,642.193,162.025,633.517,157Z" transform="translate(-214.934 -82.044)" fill="#d4ecff"/>
          <path id="Trazado_183978" data-name="Trazado 183978" d="M344.335,310.054,220.778,238.5c-4.475-2.592-6.328-6.176-5.717-9.832.219,2.97,2.122,5.782,5.811,7.918l123.557,71.551c8.676,5.025,23.845,4.418,33.881-1.358L631.07,161.319c4.86-2.8,7.6-6.292,8.178-9.725.3,4.016-2.5,8.319-8.272,11.639L378.216,308.7C368.18,314.472,353.011,315.08,344.335,310.054Z" transform="translate(-214.947 -66.807)" fill="#fff"/>
          <path id="Trazado_183979" data-name="Trazado 183979" d="M622.25,158.653,503.525,89.9c-6.449-3.735-17.724-3.283-25.182,1.009l-249.17,143.4c-7.46,4.292-8.278,10.8-1.829,14.535L346.068,317.6c6.449,3.735,17.724,3.283,25.183-1.009l249.171-143.4C627.881,168.9,628.7,162.388,622.25,158.653Z" transform="translate(-213.184 -80.877)" fill="url(#radial-gradient-7)"/>
        </g>
        <g id="Grupo_142613" data-name="Grupo 142613" transform="translate(62.079 149.553)">
          <path id="Trazado_183980" data-name="Trazado 183980" d="M363.539,256.178l-83.779-48.37,5.347-3.087,83.779,48.37Z" transform="translate(-262.827 -204.721)" fill="#d4ecff"/>
          <path id="Trazado_183981" data-name="Trazado 183981" d="M308.291,240.319,265.87,215.828l5.347-3.087,42.421,24.492Z" transform="translate(-265.87 -202.964)" fill="#d4ecff"/>
          <path id="Trazado_183982" data-name="Trazado 183982" d="M320.026,247.1l-13.758-7.943,5.347-3.087,13.758,7.943Z" transform="translate(-257.02 -197.854)" fill="#ff2c9c"/>
          <path id="Trazado_183983" data-name="Trazado 183983" d="M337.065,256.933l-13.758-7.943,5.347-3.087,13.758,7.943Z" transform="translate(-253.287 -195.699)" fill="#fff"/>
          <path id="Trazado_183984" data-name="Trazado 183984" d="M307.243,231.7l-34.428-19.877,5.347-3.087,34.428,19.877Z" transform="translate(-264.348 -203.843)" fill="#fff"/>
          <path id="Trazado_183985" data-name="Trazado 183985" d="M341.717,251.6l-34.428-19.877,5.347-3.087,34.428,19.877Z" transform="translate(-256.796 -199.482)" fill="#d4ecff"/>
          <g id="Grupo_142612" data-name="Grupo 142612" transform="translate(51.901 5.279)">
            <path id="Trazado_183986" data-name="Trazado 183986" d="M315.975,213.4a6.9,6.9,0,0,1-6.239,0c-1.723-.995-1.723-2.608,0-3.6a6.9,6.9,0,0,1,6.239,0C317.7,210.792,317.7,212.4,315.975,213.4Z" transform="translate(-308.444 -209.051)" fill="#ff2c9c"/>
            <path id="Trazado_183987" data-name="Trazado 183987" d="M323.622,217.814a6.9,6.9,0,0,1-6.239,0c-1.723-.995-1.723-2.608,0-3.6a6.9,6.9,0,0,1,6.239,0C325.345,215.207,325.345,216.82,323.622,217.814Z" transform="translate(-306.769 -208.084)" fill="#fff"/>
            <path id="Trazado_183988" data-name="Trazado 183988" d="M331.268,222.228a6.893,6.893,0,0,1-6.238,0c-1.724-.995-1.724-2.606,0-3.6a6.893,6.893,0,0,1,6.238,0C332.991,219.622,332.991,221.233,331.268,222.228Z" transform="translate(-305.094 -207.117)" fill="#d4ecff"/>
            <path id="Trazado_183989" data-name="Trazado 183989" d="M338.915,226.643a6.9,6.9,0,0,1-6.239,0c-1.723-.995-1.723-2.608,0-3.6a6.9,6.9,0,0,1,6.239,0C340.638,224.036,340.638,225.648,338.915,226.643Z" transform="translate(-303.419 -206.149)" fill="#ff2c9c"/>
            <path id="Trazado_183990" data-name="Trazado 183990" d="M346.562,231.058a6.9,6.9,0,0,1-6.239,0c-1.723-.995-1.723-2.608,0-3.6a6.9,6.9,0,0,1,6.239,0C348.285,228.451,348.285,230.064,346.562,231.058Z" transform="translate(-301.743 -205.182)" fill="#fff"/>
          </g>
        </g>
        <g id="Grupo_142614" data-name="Grupo 142614" transform="translate(269.061 30.278)">
          <path id="Trazado_183991" data-name="Trazado 183991" d="M501.445,148.31l-14.106-8.144L492.822,137l14.106,8.144Z" transform="translate(-424.332 -100.283)" fill="#ff2c9c"/>
          <path id="Trazado_183992" data-name="Trazado 183992" d="M517.557,157.612l-14.106-8.144,5.482-3.165,14.106,8.144Z" transform="translate(-420.803 -98.245)" fill="#fff"/>
          <path id="Trazado_183993" data-name="Trazado 183993" d="M449.761,118.19l-14.106-8.144,5.482-3.165,14.106,8.144Z" transform="translate(-435.655 -106.881)" fill="#fff"/>
          <path id="Trazado_183994" data-name="Trazado 183994" d="M499.86,155.617l-19.642-11.34,5.483-3.165,19.642,11.34Z" transform="translate(-425.892 -99.382)" fill="#fff"/>
          <path id="Trazado_183995" data-name="Trazado 183995" d="M509.45,161.154l-8.619-4.976,5.483-3.165,8.619,4.976Z" transform="translate(-421.377 -96.775)" fill="#d4ecff"/>
        </g>
      </g>
      <g id="Grupo_142632" data-name="Grupo 142632" transform="translate(371.606 36.358)">
        <path id="Trazado_183996" data-name="Trazado 183996" d="M448.8,229.679l-115.4-66.55,33.631-19.417,115.4,66.55Z" transform="translate(-332.147 -12.839)" fill="#082c60"/>
        <path id="Trazado_183997" data-name="Trazado 183997" d="M449.551,231.776a1.779,1.779,0,0,1-.889-.238l-115.4-66.55a1.779,1.779,0,0,1,0-3.079l33.632-19.417a1.78,1.78,0,0,1,1.777,0l115.4,66.55a1.779,1.779,0,0,1,0,3.081L450.44,231.537A1.765,1.765,0,0,1,449.551,231.776ZM337.707,163.448l111.844,64.5,30.075-17.363-111.844-64.5Z" transform="translate(-332.372 -13.158)" fill="#fff"/>
        <g id="Grupo_142631" data-name="Grupo 142631" transform="translate(4.06)">
          <g id="Grupo_142619" data-name="Grupo 142619" transform="translate(40.13 69.952)">
            <g id="Grupo_142618" data-name="Grupo 142618">
              <path id="Trazado_183998" data-name="Trazado 183998" d="M378.249,179.449a1.425,1.425,0,0,1-1.426-1.426V132.976a1.426,1.426,0,0,1,2.853,0v45.046A1.426,1.426,0,0,1,378.249,179.449Z" transform="translate(-366.823 -85.455)" fill="#396caa"/>
              <g id="Grupo_142617" data-name="Grupo 142617">
                <path id="Trazado_183999" data-name="Trazado 183999" d="M372.209,128.532v30.433h0a3.5,3.5,0,0,0,2.065,2.878,11.022,11.022,0,0,0,9.972,0,3.5,3.5,0,0,0,2.065-2.878V128.532Z" transform="translate(-367.834 -86.117)" fill="url(#radial-gradient-8)"/>
                <g id="Grupo_142616" data-name="Grupo 142616">
                  <path id="Trazado_184000" data-name="Trazado 184000" d="M372.209,132.893v10.3a18.239,18.239,0,0,0,14.1,0v-10.3A18.25,18.25,0,0,0,372.209,132.893Z" transform="translate(-367.834 -85.472)" fill="#396caa"/>
                  <path id="Trazado_184001" data-name="Trazado 184001" d="M391.473,93.739H368.62v47.732h0c0,1.688,1.115,3.377,3.346,4.665,4.463,2.576,11.7,2.576,16.16,0,2.231-1.289,3.346-2.977,3.346-4.665h0Z" transform="translate(-368.62 -93.739)" fill="url(#radial-gradient-9)"/>
                </g>
              </g>
            </g>
            <path id="Trazado_184002" data-name="Trazado 184002" d="M377.159,150.437c0,1.4-.983,1.968-2.194,1.268a4.851,4.851,0,0,1-2.2-3.8c0-1.4.983-1.966,2.2-1.267A4.851,4.851,0,0,1,377.159,150.437Z" transform="translate(-367.711 -82.216)" fill="#d4ecff"/>
          </g>
          <g id="Grupo_142623" data-name="Grupo 142623" transform="translate(84.442 95.566)">
            <g id="Grupo_142622" data-name="Grupo 142622">
              <path id="Trazado_184003" data-name="Trazado 184003" d="M414.6,200.46a1.426,1.426,0,0,1-1.425-1.426V153.987a1.426,1.426,0,1,1,2.851,0v45.046A1.426,1.426,0,0,1,414.6,200.46Z" transform="translate(-403.172 -106.466)" fill="#396caa"/>
              <g id="Grupo_142621" data-name="Grupo 142621">
                <path id="Trazado_184004" data-name="Trazado 184004" d="M408.558,149.543v30.433h0a3.505,3.505,0,0,0,2.065,2.878,11.022,11.022,0,0,0,9.972,0,3.5,3.5,0,0,0,2.065-2.878V149.543Z" transform="translate(-404.183 -107.128)" fill="url(#radial-gradient-10)"/>
                <g id="Grupo_142620" data-name="Grupo 142620">
                  <path id="Trazado_184005" data-name="Trazado 184005" d="M408.558,153.9v10.3a18.242,18.242,0,0,0,14.1,0V153.9A18.253,18.253,0,0,0,408.558,153.9Z" transform="translate(-404.183 -106.483)" fill="#396caa"/>
                  <path id="Trazado_184006" data-name="Trazado 184006" d="M427.822,114.75H404.969v47.732h0c0,1.688,1.115,3.377,3.348,4.664,4.462,2.577,11.7,2.577,16.159,0,2.231-1.287,3.346-2.976,3.346-4.664h0Z" transform="translate(-404.969 -114.75)" fill="url(#radial-gradient-11)"/>
                </g>
              </g>
            </g>
            <path id="Trazado_184007" data-name="Trazado 184007" d="M413.509,171.448c0,1.4-.984,1.968-2.2,1.268a4.857,4.857,0,0,1-2.2-3.8c0-1.4.984-1.968,2.2-1.268A4.857,4.857,0,0,1,413.509,171.448Z" transform="translate(-404.06 -103.227)" fill="#d4ecff"/>
          </g>
          <g id="Grupo_142630" data-name="Grupo 142630">
            <g id="Grupo_142626" data-name="Grupo 142626">
              <path id="Trazado_184008" data-name="Trazado 184008" d="M342.065,68.535,372.4,51.081S371.26,68.5,371.26,68.535s-17.427,5.4-17.427,5.4Z" transform="translate(-334.308 -33.133)" fill="#5793ce"/>
              <path id="Trazado_184009" data-name="Trazado 184009" d="M500.517,172.211c0-12.249-8.6-27.143-19.208-33.267a19.066,19.066,0,0,0-6.562-2.432c-3.059-16.075-14.244-33.144-27.58-40.844a26.984,26.984,0,0,0-11.285-3.819c-1.821-19.483-15.368-41.624-31.818-51.122-8.593-4.962-16.389-5.548-22.142-2.51V38.2l-.278.16c-.147.082-.294.166-.438.252L363.318,49.178l5.943,4.695c-5.336,2.331-8.708,8.315-8.708,17.161,0,16.311,11.452,36.147,25.579,44.3l87.206,62.272,2.689,18.147,18.845-11.1.05-.03.113-.066,0,0C498.424,182.516,500.517,178.252,500.517,172.211Z" transform="translate(-330.258 -36.358)" fill="url(#radial-gradient-12)"/>
              <path id="Trazado_184010" data-name="Trazado 184010" d="M361.278,63.851l41.055-23.987c-7.97-4.157-15.171-4.5-20.571-1.648V38.2l-.279.16c-.146.082-.293.166-.436.252L363.159,49.178l5.943,4.695C365.373,55.5,362.608,58.922,361.278,63.851Z" transform="translate(-330.099 -36.358)" fill="#5793ce"/>
              <path id="Trazado_184011" data-name="Trazado 184011" d="M429.09,124.044l29.955-17.579c-5.138-8.886-12.213-16.65-20.045-21.172q-1.554-.9-3.067-1.579L397.83,106Z" transform="translate(-322.091 -25.983)" fill="#5793ce"/>
              <path id="Trazado_184012" data-name="Trazado 184012" d="M369.744,51l13.35,7.707,24.447-14.4a48.43,48.43,0,0,0-5.492-3.722A34.356,34.356,0,0,0,393.506,37Z" transform="translate(-328.244 -36.218)" fill="#d4ecff"/>
              <path id="Trazado_184013" data-name="Trazado 184013" d="M449.631,98.133l-23.909,14.089,8.315,9.274,21.7-12.815A69.724,69.724,0,0,0,449.631,98.133Z" transform="translate(-315.98 -22.824)" fill="#d4ecff"/>
              <path id="Trazado_184014" data-name="Trazado 184014" d="M467.973,148.019a19.123,19.123,0,0,0-6.564-2.432c-3.057-16.074-14.242-33.144-27.579-40.844a27.006,27.006,0,0,0-11.286-3.819C420.724,81.441,407.178,59.3,390.728,49.8c-17.691-10.213-32.034-1.933-32.034,18.493,0,.694.02,1.392.052,2.094-12.937-6-23.044.761-23.044,16.085,0,16.312,11.452,36.147,25.579,44.3l106.693,61.6c10.608,6.125,19.208,1.159,19.208-11.089S478.582,154.143,467.973,148.019Z" transform="translate(-335.702 -34.371)" fill="url(#linear-gradient-5)"/>
              <g id="Grupo_142624" data-name="Grupo 142624" transform="translate(5.85 9.534)">
                <path id="Trazado_184015" data-name="Trazado 184015" d="M357.695,66.562c-.032-.7-.052-1.4-.052-2.094,0-.029,0-.057,0-.087-7.147-2.778-13.289-1.569-17.144,2.89C344.689,63.824,350.778,63.353,357.695,66.562Z" transform="translate(-340.501 -40.078)" fill="#fff"/>
                <path id="Trazado_184016" data-name="Trazado 184016" d="M464.129,146.771a19.094,19.094,0,0,0-6.564-2.433c-3.057-16.074-14.242-33.144-27.579-40.843A26.983,26.983,0,0,0,418.7,99.675c-1.821-19.483-15.368-41.625-31.818-51.122-11.022-6.364-20.741-5.547-26.505.912,5.871-5.018,14.861-5.212,24.944.611,16.45,9.5,30,31.639,31.817,51.121a27.006,27.006,0,0,1,11.286,3.819c13.337,7.7,24.52,24.769,27.579,40.844a19.123,19.123,0,0,1,6.564,2.432c10.608,6.125,19.208,21.019,19.208,33.269,0,4.419-1.133,7.874-3.062,10.217,2.877-2.216,4.624-6.234,4.624-11.74C483.337,167.789,474.737,152.894,464.129,146.771Z" transform="translate(-336.146 -44.179)" fill="#fff"/>
              </g>
              <g id="Grupo_142625" data-name="Grupo 142625" transform="translate(5.363 16.405)">
                <path id="Trazado_184017" data-name="Trazado 184017" d="M355.527,74.293l8.02,3.718-.408-8.83c-.029-.621-.046-1.236-.046-1.848,0-7.883,2.38-13.6,6.7-16.093s10.462-1.7,17.288,2.244c14.683,8.476,27.49,29.11,29.16,46.976l.421,4.5,4.507.346a21.7,21.7,0,0,1,9.016,3.117c11.662,6.733,22.173,22.379,24.992,37.2l.706,3.711,3.732.584a13.854,13.854,0,0,1,4.713,1.78c8.958,5.173,16.526,18.28,16.526,28.623,0,3.871-1.073,6.711-2.944,7.792s-4.867.589-8.219-1.346L363,125.171c-12.411-7.165-22.9-25.326-22.9-39.659,0-5.624,1.658-9.909,4.55-11.756a7.79,7.79,0,0,1,4.253-1.137A16.047,16.047,0,0,1,355.527,74.293Z" transform="translate(-340.101 -49.815)" fill="url(#radial-gradient-13)"/>
              </g>
            </g>
            <g id="Grupo_142629" data-name="Grupo 142629" transform="translate(50.768 68.249)">
              <path id="Trazado_184018" data-name="Trazado 184018" d="M396.435,125.376l2.814-1.413-2.771-2.1Z" transform="translate(-373.165 -85.874)" fill="#5793ce"/>
              <path id="Trazado_184019" data-name="Trazado 184019" d="M389.5,93.806l2.732-1.382.05,1.43Z" transform="translate(-374.684 -92.324)" fill="#5793ce"/>
              <path id="Trazado_184020" data-name="Trazado 184020" d="M403.494,118.651l2.851-1.434L400.858,112Z" transform="translate(-372.196 -88.036)" fill="#5793ce"/>
              <g id="Grupo_142627" data-name="Grupo 142627" transform="translate(2.858)">
                <path id="Trazado_184021" data-name="Trazado 184021" d="M400.682,128.1l-13.326-7.847a2.84,2.84,0,0,1-1.22-2.241l.044-15.427,15.775,9.291-.044,15.427C401.909,128.139,401.357,128.5,400.682,128.1Z" transform="translate(-378.279 -90.098)" fill="#5793ce"/>
                <path id="Trazado_184022" data-name="Trazado 184022" d="M394.353,92.46l-14.392,9.26c-.611.394-.117,1.858.811,2.4l14.7,8.658,14.7,8.657c.928.546,1.427-.334.822-1.443L396.7,93.841C396.08,92.711,394.975,92.06,394.353,92.46Z" transform="translate(-379.691 -92.342)" fill="#5793ce"/>
              </g>
              <g id="Grupo_142628" data-name="Grupo 142628" transform="translate(0 1.439)">
                <path id="Trazado_184023" data-name="Trazado 184023" d="M398.338,129.279l-13.326-7.848a2.84,2.84,0,0,1-1.22-2.241l.044-15.427,15.775,9.291-.044,15.427C399.564,129.319,399.013,129.676,398.338,129.279Z" transform="translate(-375.935 -91.278)" fill="#ff2c9c"/>
                <path id="Trazado_184024" data-name="Trazado 184024" d="M392.009,93.64,377.616,102.9c-.611.393-.117,1.858.811,2.4l14.7,8.657,14.7,8.657c.928.546,1.428-.333.822-1.443L394.354,95.021C393.736,93.891,392.631,93.24,392.009,93.64Z" transform="translate(-377.347 -93.522)" fill="#ff2c9c"/>
              </g>
            </g>
          </g>
        </g>
      </g>
      <path id="Trazado_184025" data-name="Trazado 184025" d="M402.867,231.151l-83.143-48,2.206-1.274,83.143,48Z" transform="translate(36.463 31.88)" fill="#79b1e0"/>
      <path id="Trazado_184026" data-name="Trazado 184026" d="M346.764,200.149l-28.026-16.181,4.613-2.663,28.026,16.181Z" transform="translate(36.247 31.755)" fill="#d4ecff"/>
      <path id="Trazado_184027" data-name="Trazado 184027" d="M341.035,198.357l-1.179-.665,7.245-4.183,1.179.666Z" transform="translate(40.873 34.428)" fill="#fff"/>
      <path id="Trazado_184028" data-name="Trazado 184028" d="M463.447,287.911a13.032,13.032,0,0,0-2.079,1.523c-.288-9.353-7.043-13.072-15.357-8.273-6.771,3.91-12.507,12.279-14.563,20.482a9.183,9.183,0,0,0-5.744,1.428c-6.06,3.5-10.973,12.009-10.973,19.007s4.913,9.836,10.973,6.336l37.743-21.79c4.475-2.584,8.1-8.866,8.1-14.034S467.922,285.328,463.447,287.911Z" transform="translate(57.277 53.172)" fill="#7dc3ea"/>
      <path id="Trazado_184029" data-name="Trazado 184029" d="M216.83,190.245a13.653,13.653,0,0,0-3.477,2.988c-.163-6.854-5.081-9.593-11.139-6.1a20.278,20.278,0,0,0-5.353,4.67c-2.7-4.713-8.282-5.806-14.756-2.069-9.1,5.255-16.482,18.036-16.482,28.548a19.59,19.59,0,0,0,.165,2.456,6.218,6.218,0,0,0-4.615.931,17.433,17.433,0,0,0-7.886,13.66c0,5.03,3.53,7.068,7.886,4.553l55.657-32.134a16.757,16.757,0,0,0,7.581-13.132C224.412,189.788,221.018,187.827,216.83,190.245Z" transform="translate(0 32.699)" fill="#7dc3ea"/>
      <g id="Grupo_142633" data-name="Grupo 142633" transform="translate(632.657 266.233)">
        <path id="Trazado_184030" data-name="Trazado 184030" d="M553.627,241.41a7.866,7.866,0,0,1-3.558,6.164c-1.965,1.135-3.559.215-3.559-2.054a7.866,7.866,0,0,1,3.559-6.164C552.034,238.22,553.627,239.141,553.627,241.41Z" transform="translate(-546.51 -221.867)" fill="#fff"/>
        <path id="Trazado_184031" data-name="Trazado 184031" d="M561.68,236.761a7.866,7.866,0,0,1-3.558,6.164c-1.966,1.135-3.558.215-3.558-2.054a7.862,7.862,0,0,1,3.558-6.164C560.087,233.571,561.68,234.492,561.68,236.761Z" transform="translate(-544.746 -222.885)" fill="#fff"/>
        <path id="Trazado_184032" data-name="Trazado 184032" d="M553.627,232.112a7.866,7.866,0,0,1-3.558,6.164c-1.965,1.135-3.559.215-3.559-2.054a7.866,7.866,0,0,1,3.559-6.164C552.034,228.922,553.627,229.843,553.627,232.112Z" transform="translate(-546.51 -223.904)" fill="#fff"/>
        <path id="Trazado_184033" data-name="Trazado 184033" d="M561.68,227.462a7.865,7.865,0,0,1-3.558,6.164c-1.966,1.135-3.558.215-3.558-2.054a7.863,7.863,0,0,1,3.558-6.164C560.087,224.273,561.68,225.194,561.68,227.462Z" transform="translate(-544.746 -224.922)" fill="#fff"/>
      </g>
      <g id="Grupo_142634" data-name="Grupo 142634" transform="translate(495.872 48.213)">
        <path id="Trazado_184034" data-name="Trazado 184034" d="M441.424,59.037l-7.117,4.109V54.928l7.117-4.109Z" transform="translate(-434.307 -45.045)" fill="#fff"/>
        <path id="Trazado_184035" data-name="Trazado 184035" d="M449.527,54.3l-7.117,4.109V50.192l7.117-4.109Z" transform="translate(-432.531 -46.083)" fill="#fff"/>
        <path id="Trazado_184036" data-name="Trazado 184036" d="M441.474,67.783l-7.117,4.109V63.674l7.117-4.109Z" transform="translate(-434.296 -43.129)" fill="#fff"/>
        <path id="Trazado_184037" data-name="Trazado 184037" d="M449.527,63.134l-7.117,4.109V59.025l7.117-4.109Z" transform="translate(-432.531 -44.147)" fill="#fff"/>
      </g>
      <g id="Grupo_142635" data-name="Grupo 142635" transform="translate(381.81 381.803)">
        <path id="Trazado_184038" data-name="Trazado 184038" d="M342.59,363.524a1.848,1.848,0,0,1-1.637-2.705,20.791,20.791,0,0,1,7.555-8.312,9.776,9.776,0,0,1,5.324-1.474c2.392.127,5.353-1.674,7.945-4.793a18.3,18.3,0,0,1,4.8-4.167,9.72,9.72,0,0,1,5.325-1.473c2.33.135,5.351-1.671,7.942-4.795a18.069,18.069,0,0,1,4.8-4.167,9.748,9.748,0,0,1,5.324-1.474c2.42.106,5.354-1.673,7.945-4.795a18.322,18.322,0,0,1,4.806-4.166c2.711-1.567,5.418-1.907,7.617-.946a1.849,1.849,0,1,1-1.476,3.392c-1.1-.48-2.62-.209-4.291.758a14.617,14.617,0,0,0-3.81,3.324c-3.379,4.073-7.382,6.289-10.973,6.127a6.108,6.108,0,0,0-3.29.983,14.62,14.62,0,0,0-3.81,3.326c-3.38,4.073-7.421,6.289-10.972,6.127a6.043,6.043,0,0,0-3.29.981,14.618,14.618,0,0,0-3.81,3.324c-3.382,4.073-7.388,6.286-10.973,6.128a6.058,6.058,0,0,0-3.29.981,17.028,17.028,0,0,0-6.127,6.82A1.849,1.849,0,0,1,342.59,363.524Z" transform="translate(-340.742 -319.723)" fill="#d2e1f1"/>
      </g>
    </g>
    <path id="Dots" d="M20.326,97.32a1.983,1.983,0,1,1,1.982,2A1.993,1.993,0,0,1,20.326,97.32ZM0,97.32a1.993,1.993,0,0,1,1.983-2,2,2,0,0,1,0,4.008A1.993,1.993,0,0,1,0,97.32ZM20.326,73.478a1.983,1.983,0,1,1,1.982,2A1.993,1.993,0,0,1,20.326,73.478ZM0,73.478a1.993,1.993,0,0,1,1.983-2,2,2,0,0,1,0,4.008A1.993,1.993,0,0,1,0,73.478ZM20.326,49.635a1.983,1.983,0,1,1,1.982,2A1.993,1.993,0,0,1,20.326,49.635ZM0,49.635a1.993,1.993,0,0,1,1.983-2,2,2,0,0,1,0,4.008A1.993,1.993,0,0,1,0,49.635ZM20.326,25.792a1.983,1.983,0,1,1,1.982,2A1.993,1.993,0,0,1,20.326,25.792ZM0,25.792a1.993,1.993,0,0,1,1.983-2,2,2,0,0,1,0,4.008A1.993,1.993,0,0,1,0,25.792ZM20.326,2a1.983,1.983,0,1,1,3.965,0,1.983,1.983,0,1,1-3.965,0ZM0,2A1.993,1.993,0,0,1,1.983,0,1.993,1.993,0,0,1,3.965,2a1.994,1.994,0,0,1-1.982,2A1.993,1.993,0,0,1,0,2Z" transform="translate(-6844.514 -11215.662)" fill="#fff"/>
    <g id="Group_124913" data-name="Group 124913" transform="translate(-6488.778 -10948.163) rotate(-90)">
      <path id="Path_174437" data-name="Path 174437" d="M3319.9,1278.367l-8.323,14.415h16.644Z" transform="translate(-3311.574 -1157.226)" fill="#fff"/>
      <path id="Path_174438" data-name="Path 174438" d="M3319.9,1198.974l-8.323,14.415h16.644Z" transform="translate(-3311.574 -1101.976)" fill="#e2c140"/>
      <path id="Path_174439" data-name="Path 174439" d="M3319.9,1119.584,3311.574,1134h16.644Z" transform="translate(-3311.574 -1046.727)" fill="#ff2c9c"/>
      <path id="Path_174440" data-name="Path 174440" d="M3327.894,880l-4.829,8.363h9.656Z" transform="translate(-3319.57 -879.995)" fill="#fdfdfd"/>
    </g>
    <path id="Dots-2" data-name="Dots" d="M20.326,97.32a1.983,1.983,0,1,1,1.982,2A1.993,1.993,0,0,1,20.326,97.32ZM0,97.32a1.993,1.993,0,0,1,1.983-2,2,2,0,0,1,0,4.008A1.993,1.993,0,0,1,0,97.32ZM20.326,73.478a1.983,1.983,0,1,1,1.982,2A1.993,1.993,0,0,1,20.326,73.478ZM0,73.478a1.993,1.993,0,0,1,1.983-2,2,2,0,0,1,0,4.008A1.993,1.993,0,0,1,0,73.478ZM20.326,49.635a1.983,1.983,0,1,1,1.982,2A1.993,1.993,0,0,1,20.326,49.635ZM0,49.635a1.993,1.993,0,0,1,1.983-2,2,2,0,0,1,0,4.008A1.993,1.993,0,0,1,0,49.635ZM20.326,25.792a1.983,1.983,0,1,1,1.982,2A1.993,1.993,0,0,1,20.326,25.792ZM0,25.792a1.993,1.993,0,0,1,1.983-2,2,2,0,0,1,0,4.008A1.993,1.993,0,0,1,0,25.792ZM20.326,2a1.983,1.983,0,1,1,3.965,0,1.983,1.983,0,1,1-3.965,0ZM0,2A1.993,1.993,0,0,1,1.983,0,1.993,1.993,0,0,1,3.965,2a1.994,1.994,0,0,1-1.982,2A1.993,1.993,0,0,1,0,2Z" transform="translate(-6571.654 -10965.662)" fill="#fff"/>
    <path id="Trazado_184625" data-name="Trazado 184625" d="M-7843.318-11132v72.13h92.6" transform="translate(1002 100)" fill="none" stroke="#e2c140" stroke-width="4"/>
  </g>
</svg>
