<svg xmlns="http://www.w3.org/2000/svg" xmlns:xlink="http://www.w3.org/1999/xlink" width="465.987" height="381.5" viewBox="0 0 465.987 381.5">
  <defs>
    <linearGradient id="linear-gradient" x1="0.5" x2="0.5" y2="1" gradientUnits="objectBoundingBox">
      <stop offset="0" stop-color="#4dd0e1"/>
      <stop offset="1" stop-color="#039be5"/>
    </linearGradient>
    <filter id="Rectángulo_44495" x="0" y="42.146" width="171.791" height="57.021" filterUnits="userSpaceOnUse">
      <feOffset dy="3" input="SourceAlpha"/>
      <feGaussianBlur stdDeviation="3" result="blur"/>
      <feFlood flood-opacity="0.161"/>
      <feComposite operator="in" in2="blur"/>
      <feComposite in="SourceGraphic"/>
    </filter>
    <linearGradient id="linear-gradient-2" x1="0.5" x2="0.5" y2="1" gradientUnits="objectBoundingBox">
      <stop offset="0" stop-color="#039be5"/>
      <stop offset="1" stop-color="#027fbc"/>
    </linearGradient>
    <filter id="Rectángulo_44507" x="293.987" y="42.5" width="172" height="151" filterUnits="userSpaceOnUse">
      <feOffset dy="3" input="SourceAlpha"/>
      <feGaussianBlur stdDeviation="3" result="blur-2"/>
      <feFlood flood-opacity="0.161"/>
      <feComposite operator="in" in2="blur-2"/>
      <feComposite in="SourceGraphic"/>
    </filter>
    <filter id="Rectángulo_44496" x="0" y="89.201" width="171.791" height="57.021" filterUnits="userSpaceOnUse">
      <feOffset dy="3" input="SourceAlpha"/>
      <feGaussianBlur stdDeviation="3" result="blur-3"/>
      <feFlood flood-opacity="0.161"/>
      <feComposite operator="in" in2="blur-3"/>
      <feComposite in="SourceGraphic"/>
    </filter>
    <filter id="Rectángulo_44498" x="0" y="136.257" width="171.791" height="57.021" filterUnits="userSpaceOnUse">
      <feOffset dy="3" input="SourceAlpha"/>
      <feGaussianBlur stdDeviation="3" result="blur-4"/>
      <feFlood flood-opacity="0.161"/>
      <feComposite operator="in" in2="blur-4"/>
      <feComposite in="SourceGraphic"/>
    </filter>
    <filter id="Rectángulo_44499" x="0" y="183.313" width="171.791" height="57.021" filterUnits="userSpaceOnUse">
      <feOffset dy="3" input="SourceAlpha"/>
      <feGaussianBlur stdDeviation="3" result="blur-5"/>
      <feFlood flood-opacity="0.161"/>
      <feComposite operator="in" in2="blur-5"/>
      <feComposite in="SourceGraphic"/>
    </filter>
    <filter id="Rectángulo_44508" x="293.987" y="183.5" width="172" height="57" filterUnits="userSpaceOnUse">
      <feOffset dy="3" input="SourceAlpha"/>
      <feGaussianBlur stdDeviation="3" result="blur-6"/>
      <feFlood flood-opacity="0.161"/>
      <feComposite operator="in" in2="blur-6"/>
      <feComposite in="SourceGraphic"/>
    </filter>
    <filter id="Rectángulo_44500" x="0" y="230.368" width="171.791" height="57.021" filterUnits="userSpaceOnUse">
      <feOffset dy="3" input="SourceAlpha"/>
      <feGaussianBlur stdDeviation="3" result="blur-7"/>
      <feFlood flood-opacity="0.161"/>
      <feComposite operator="in" in2="blur-7"/>
      <feComposite in="SourceGraphic"/>
    </filter>
    <filter id="Rectángulo_44509" x="293.987" y="230.5" width="172" height="57" filterUnits="userSpaceOnUse">
      <feOffset dy="3" input="SourceAlpha"/>
      <feGaussianBlur stdDeviation="3" result="blur-8"/>
      <feFlood flood-opacity="0.161"/>
      <feComposite operator="in" in2="blur-8"/>
      <feComposite in="SourceGraphic"/>
    </filter>
    <filter id="Rectángulo_44501" x="0" y="324.479" width="171.791" height="57.021" filterUnits="userSpaceOnUse">
      <feOffset dy="3" input="SourceAlpha"/>
      <feGaussianBlur stdDeviation="3" result="blur-9"/>
      <feFlood flood-opacity="0.161"/>
      <feComposite operator="in" in2="blur-9"/>
      <feComposite in="SourceGraphic"/>
    </filter>
    <filter id="Rectángulo_44502" x="0" y="277.423" width="171.791" height="57.021" filterUnits="userSpaceOnUse">
      <feOffset dy="3" input="SourceAlpha"/>
      <feGaussianBlur stdDeviation="3" result="blur-10"/>
      <feFlood flood-opacity="0.161"/>
      <feComposite operator="in" in2="blur-10"/>
      <feComposite in="SourceGraphic"/>
    </filter>
    <filter id="Rectángulo_44510" x="293.987" y="277.5" width="172" height="104" filterUnits="userSpaceOnUse">
      <feOffset dy="3" input="SourceAlpha"/>
      <feGaussianBlur stdDeviation="3" result="blur-11"/>
      <feFlood flood-opacity="0.161"/>
      <feComposite operator="in" in2="blur-11"/>
      <feComposite in="SourceGraphic"/>
    </filter>
  </defs>
  <g id="Grupo_152048" data-name="Grupo 152048" transform="translate(-883.689 -9036.5)">
    <rect id="Rectángulo_44503" data-name="Rectángulo 44503" width="294" height="133" transform="translate(969.676 9085)" fill="#e8e8e8"/>
    <rect id="Rectángulo_44504" data-name="Rectángulo 44504" width="294" height="39" transform="translate(969.676 9226)" fill="#e8e8e8"/>
    <rect id="Rectángulo_44505" data-name="Rectángulo 44505" width="294" height="39" transform="translate(969.676 9273)" fill="#e8e8e8"/>
    <rect id="Rectángulo_44506" data-name="Rectángulo 44506" width="294" height="86" transform="translate(969.676 9320)" fill="#e8e8e8"/>
    <g transform="matrix(1, 0, 0, 1, 883.69, 9036.5)" filter="url(#Rectángulo_44495)">
      <g id="Rectángulo_44495-2" data-name="Rectángulo 44495" transform="translate(9 48.15)" stroke="#12263f" stroke-width="1" fill="url(#linear-gradient)">
        <rect width="153.791" height="39.022" rx="5" stroke="none"/>
        <rect x="0.5" y="0.5" width="152.791" height="38.022" rx="4.5" fill="none"/>
      </g>
    </g>
    <g transform="matrix(1, 0, 0, 1, 883.69, 9036.5)" filter="url(#Rectángulo_44507)">
      <rect id="Rectángulo_44507-2" data-name="Rectángulo 44507" width="154" height="133" rx="5" transform="translate(302.99 48.5)" fill="url(#linear-gradient-2)"/>
    </g>
    <g transform="matrix(1, 0, 0, 1, 883.69, 9036.5)" filter="url(#Rectángulo_44496)">
      <g id="Rectángulo_44496-2" data-name="Rectángulo 44496" transform="translate(9 95.2)" stroke="#12263f" stroke-width="1" fill="url(#linear-gradient)">
        <rect width="153.791" height="39.022" rx="5" stroke="none"/>
        <rect x="0.5" y="0.5" width="152.791" height="38.022" rx="4.5" fill="none"/>
      </g>
    </g>
    <g transform="matrix(1, 0, 0, 1, 883.69, 9036.5)" filter="url(#Rectángulo_44498)">
      <g id="Rectángulo_44498-2" data-name="Rectángulo 44498" transform="translate(9 142.26)" stroke="#12263f" stroke-width="1" fill="url(#linear-gradient)">
        <rect width="153.791" height="39.022" rx="5" stroke="none"/>
        <rect x="0.5" y="0.5" width="152.791" height="38.022" rx="4.5" fill="none"/>
      </g>
    </g>
    <g transform="matrix(1, 0, 0, 1, 883.69, 9036.5)" filter="url(#Rectángulo_44499)">
      <g id="Rectángulo_44499-2" data-name="Rectángulo 44499" transform="translate(9 189.31)" stroke="#12263f" stroke-width="1" fill="url(#linear-gradient)">
        <rect width="153.791" height="39.022" rx="5" stroke="none"/>
        <rect x="0.5" y="0.5" width="152.791" height="38.022" rx="4.5" fill="none"/>
      </g>
    </g>
    <g transform="matrix(1, 0, 0, 1, 883.69, 9036.5)" filter="url(#Rectángulo_44508)">
      <rect id="Rectángulo_44508-2" data-name="Rectángulo 44508" width="154" height="39" rx="5" transform="translate(302.99 189.5)" fill="url(#linear-gradient-2)"/>
    </g>
    <g transform="matrix(1, 0, 0, 1, 883.69, 9036.5)" filter="url(#Rectángulo_44500)">
      <g id="Rectángulo_44500-2" data-name="Rectángulo 44500" transform="translate(9 236.37)" stroke="#12263f" stroke-width="1" fill="url(#linear-gradient)">
        <rect width="153.791" height="39.022" rx="5" stroke="none"/>
        <rect x="0.5" y="0.5" width="152.791" height="38.022" rx="4.5" fill="none"/>
      </g>
    </g>
    <g transform="matrix(1, 0, 0, 1, 883.69, 9036.5)" filter="url(#Rectángulo_44509)">
      <rect id="Rectángulo_44509-2" data-name="Rectángulo 44509" width="154" height="39" rx="5" transform="translate(302.99 236.5)" fill="url(#linear-gradient-2)"/>
    </g>
    <g transform="matrix(1, 0, 0, 1, 883.69, 9036.5)" filter="url(#Rectángulo_44501)">
      <g id="Rectángulo_44501-2" data-name="Rectángulo 44501" transform="translate(9 330.48)" stroke="#12263f" stroke-width="1" fill="url(#linear-gradient)">
        <rect width="153.791" height="39.022" rx="5" stroke="none"/>
        <rect x="0.5" y="0.5" width="152.791" height="38.022" rx="4.5" fill="none"/>
      </g>
    </g>
    <path id="Trazado_194497" data-name="Trazado 194497" d="M-34.255-2.637h-4.623L-39.757,0h-2.8L-37.8-12.8h2.443L-30.564,0h-2.8Zm-3.911-2.136h3.2l-1.608-4.79Zm17.191.105a5.7,5.7,0,0,1-1,3.52A3.2,3.2,0,0,1-24.667.176,2.963,2.963,0,0,1-27-.826V3.656h-2.54V-9.51h2.355l.088.932a2.985,2.985,0,0,1,2.408-1.107,3.22,3.22,0,0,1,2.733,1.3A5.858,5.858,0,0,1-20.975-4.8Zm-2.54-.185a3.743,3.743,0,0,0-.47-2.048,1.532,1.532,0,0,0-1.367-.721A1.663,1.663,0,0,0-27-6.706v3.894a1.692,1.692,0,0,0,1.661.94Q-23.515-1.872-23.515-4.852ZM-16.721,0H-19.27V-13.5h2.549Zm4.772,0H-14.5V-9.51h2.549Zm-2.7-11.971a1.251,1.251,0,0,1,.382-.94,1.436,1.436,0,0,1,1.042-.369,1.44,1.44,0,0,1,1.037.369,1.244,1.244,0,0,1,.387.94,1.247,1.247,0,0,1-.391.949,1.443,1.443,0,0,1-1.033.369,1.443,1.443,0,0,1-1.033-.369A1.247,1.247,0,0,1-14.647-11.971ZM-5.9-1.872a1.666,1.666,0,0,0,1.143-.387A1.355,1.355,0,0,0-4.3-3.287H-1.92a3.258,3.258,0,0,1-.527,1.771A3.48,3.48,0,0,1-3.867-.268,4.442,4.442,0,0,1-5.858.176a4.129,4.129,0,0,1-3.217-1.3A5.13,5.13,0,0,1-10.252-4.7v-.167A5.071,5.071,0,0,1-9.083-8.376a4.08,4.08,0,0,1,3.208-1.31A4,4,0,0,1-3.015-8.67a3.594,3.594,0,0,1,1.094,2.7H-4.3a1.745,1.745,0,0,0-.457-1.206,1.524,1.524,0,0,0-1.16-.464,1.53,1.53,0,0,0-1.34.647,3.749,3.749,0,0,0-.453,2.1v.264a3.8,3.8,0,0,0,.448,2.113A1.549,1.549,0,0,0-5.9-1.872ZM5.041,0a2.821,2.821,0,0,1-.255-.853A3.073,3.073,0,0,1,2.386.176,3.376,3.376,0,0,1,.07-.633,2.6,2.6,0,0,1-.848-2.672,2.687,2.687,0,0,1,.272-4.992,5.529,5.529,0,0,1,3.511-5.81H4.68v-.545a1.567,1.567,0,0,0-.338-1.055,1.331,1.331,0,0,0-1.068-.4A1.513,1.513,0,0,0,2.268-7.5a1.045,1.045,0,0,0-.365.844H-.637a2.551,2.551,0,0,1,.51-1.529,3.37,3.37,0,0,1,1.441-1.1,5.253,5.253,0,0,1,2.092-.4A4.15,4.15,0,0,1,6.2-8.8,3.09,3.09,0,0,1,7.229-6.319V-2.2A4.546,4.546,0,0,0,7.607-.149V0ZM2.94-1.767a2.188,2.188,0,0,0,1.037-.25,1.645,1.645,0,0,0,.7-.672V-4.324H3.731q-1.907,0-2.03,1.318l-.009.149a1.017,1.017,0,0,0,.334.782A1.3,1.3,0,0,0,2.94-1.767Zm10.2-.105a1.666,1.666,0,0,0,1.143-.387,1.355,1.355,0,0,0,.457-1.028h2.382a3.258,3.258,0,0,1-.527,1.771A3.48,3.48,0,0,1,15.17-.268a4.442,4.442,0,0,1-1.991.444,4.129,4.129,0,0,1-3.217-1.3A5.13,5.13,0,0,1,8.785-4.7v-.167A5.071,5.071,0,0,1,9.954-8.376a4.08,4.08,0,0,1,3.208-1.31A4,4,0,0,1,16.022-8.67a3.594,3.594,0,0,1,1.094,2.7H14.735a1.745,1.745,0,0,0-.457-1.206,1.524,1.524,0,0,0-1.16-.464,1.53,1.53,0,0,0-1.34.647,3.749,3.749,0,0,0-.453,2.1v.264a3.8,3.8,0,0,0,.448,2.113A1.549,1.549,0,0,0,13.135-1.872ZM21.248,0H18.7V-9.51h2.549Zm-2.7-11.971a1.251,1.251,0,0,1,.382-.94,1.436,1.436,0,0,1,1.042-.369,1.44,1.44,0,0,1,1.037.369,1.244,1.244,0,0,1,.387.94,1.247,1.247,0,0,1-.391.949,1.443,1.443,0,0,1-1.033.369,1.443,1.443,0,0,1-1.033-.369A1.247,1.247,0,0,1,18.549-11.971Zm4.395,7.128a5.64,5.64,0,0,1,.545-2.522,3.989,3.989,0,0,1,1.569-1.714,4.577,4.577,0,0,1,2.377-.606,4.33,4.33,0,0,1,3.142,1.178,4.727,4.727,0,0,1,1.358,3.2l.018.65a4.97,4.97,0,0,1-1.222,3.511A4.247,4.247,0,0,1,27.453.176,4.268,4.268,0,0,1,24.17-1.143a5.058,5.058,0,0,1-1.226-3.586Zm2.54.18a3.555,3.555,0,0,0,.51,2.073,1.682,1.682,0,0,0,1.459.717,1.686,1.686,0,0,0,1.441-.709,3.89,3.89,0,0,0,.519-2.267,3.519,3.519,0,0,0-.519-2.06,1.686,1.686,0,0,0-1.459-.731,1.658,1.658,0,0,0-1.441.726A3.955,3.955,0,0,0,25.484-4.662ZM27.936-13.5H30.7L28.27-10.775H26.2Zm7.919,3.99.079,1.1a3.32,3.32,0,0,1,2.733-1.274,2.759,2.759,0,0,1,2.25.888,4.142,4.142,0,0,1,.756,2.654V0h-2.54V-6.082a1.648,1.648,0,0,0-.352-1.173,1.574,1.574,0,0,0-1.169-.365A1.747,1.747,0,0,0,36-6.706V0h-2.54V-9.51Z" transform="translate(969.12 9110.828)" fill="#fff"/>
    <path id="Trazado_194496" data-name="Trazado 194496" d="M-42.407-12.8l3.287,9.281,3.27-9.281h3.463V0h-2.646V-3.5l.264-6.038L-38.224,0h-1.811l-3.445-9.527.264,6.029V0h-2.637V-12.8Zm11.76,7.954A5.64,5.64,0,0,1-30.1-7.365a3.989,3.989,0,0,1,1.569-1.714,4.577,4.577,0,0,1,2.377-.606,4.33,4.33,0,0,1,3.142,1.178,4.727,4.727,0,0,1,1.358,3.2l.018.65A4.97,4.97,0,0,1-22.86-1.147,4.247,4.247,0,0,1-26.139.176a4.268,4.268,0,0,1-3.283-1.318,5.058,5.058,0,0,1-1.226-3.586Zm2.54.18a3.555,3.555,0,0,0,.51,2.073,1.682,1.682,0,0,0,1.459.717A1.686,1.686,0,0,0-24.7-2.581a3.89,3.89,0,0,0,.519-2.267,3.519,3.519,0,0,0-.519-2.06,1.686,1.686,0,0,0-1.459-.731,1.658,1.658,0,0,0-1.441.726A3.955,3.955,0,0,0-28.107-4.662Zm7.638-.163a5.731,5.731,0,0,1,1-3.542,3.237,3.237,0,0,1,2.729-1.318,2.913,2.913,0,0,1,2.294,1.037V-13.5H-11.9V0h-2.294l-.123-1.011A2.989,2.989,0,0,1-16.761.176a3.228,3.228,0,0,1-2.694-1.323A5.916,5.916,0,0,1-20.47-4.825Zm2.54.189a3.754,3.754,0,0,0,.466,2.051,1.517,1.517,0,0,0,1.354.713,1.7,1.7,0,0,0,1.661-.995V-6.625a1.675,1.675,0,0,0-1.644-.995Q-17.93-7.62-17.93-4.636ZM-5.555.176A4.668,4.668,0,0,1-8.96-1.107a4.561,4.561,0,0,1-1.314-3.419v-.246a5.745,5.745,0,0,1,.554-2.562,4.064,4.064,0,0,1,1.569-1.74,4.4,4.4,0,0,1,2.316-.611,3.947,3.947,0,0,1,3.072,1.23A5,5,0,0,1-1.644-4.966v1.037H-7.7a2.36,2.36,0,0,0,.743,1.494,2.245,2.245,0,0,0,1.569.563A2.742,2.742,0,0,0-3.094-2.936l1.248,1.4A3.813,3.813,0,0,1-3.393-.277,5.075,5.075,0,0,1-5.555.176Zm-.29-7.813a1.587,1.587,0,0,0-1.226.512,2.651,2.651,0,0,0-.6,1.466H-4.14v-.2A1.891,1.891,0,0,0-4.6-7.174,1.638,1.638,0,0,0-5.845-7.638ZM2.479,0H-.07V-13.5H2.479Zm1.7-4.843A5.64,5.64,0,0,1,4.72-7.365,3.989,3.989,0,0,1,6.289-9.079a4.577,4.577,0,0,1,2.377-.606,4.33,4.33,0,0,1,3.142,1.178,4.727,4.727,0,0,1,1.358,3.2l.018.65a4.97,4.97,0,0,1-1.222,3.511A4.247,4.247,0,0,1,8.684.176,4.268,4.268,0,0,1,5.4-1.143,5.058,5.058,0,0,1,4.175-4.729Zm2.54.18a3.555,3.555,0,0,0,.51,2.073,1.682,1.682,0,0,0,1.459.717,1.686,1.686,0,0,0,1.441-.709,3.89,3.89,0,0,0,.519-2.267,3.519,3.519,0,0,0-.519-2.06,1.686,1.686,0,0,0-1.459-.731,1.658,1.658,0,0,0-1.441.726A3.955,3.955,0,0,0,6.715-4.662ZM29.909-6.108a7.725,7.725,0,0,1-.668,3.313A5.03,5.03,0,0,1,27.33-.6a5.288,5.288,0,0,1-2.852.773,5.324,5.324,0,0,1-2.839-.765,5.08,5.08,0,0,1-1.934-2.184,7.5,7.5,0,0,1-.694-3.265v-.633A7.685,7.685,0,0,1,19.692-10,5.072,5.072,0,0,1,21.617-12.2a5.3,5.3,0,0,1,2.843-.769A5.3,5.3,0,0,1,27.3-12.2,5.072,5.072,0,0,1,29.228-10a7.663,7.663,0,0,1,.681,3.318Zm-2.672-.58a5.385,5.385,0,0,0-.721-3.059,2.349,2.349,0,0,0-2.057-1.046A2.349,2.349,0,0,0,22.412-9.76a5.324,5.324,0,0,0-.729,3.028v.624A5.453,5.453,0,0,0,22.4-3.067a2.342,2.342,0,0,0,2.074,1.081,2.321,2.321,0,0,0,2.039-1.042,5.421,5.421,0,0,0,.721-3.037ZM38.461-3.357A1.353,1.353,0,0,0,37.934-4.5a6.917,6.917,0,0,0-1.9-.844,13.458,13.458,0,0,1-2.171-.875A3.547,3.547,0,0,1,31.685-9.4a3.09,3.09,0,0,1,.584-1.85,3.812,3.812,0,0,1,1.679-1.27,6.318,6.318,0,0,1,2.457-.457,5.751,5.751,0,0,1,2.443.5,3.891,3.891,0,0,1,1.666,1.4,3.668,3.668,0,0,1,.593,2.057H38.47a1.726,1.726,0,0,0-.554-1.367,2.276,2.276,0,0,0-1.556-.488,2.432,2.432,0,0,0-1.5.409,1.289,1.289,0,0,0-.536,1.077,1.235,1.235,0,0,0,.628,1.046,7.1,7.1,0,0,0,1.85.791,7.994,7.994,0,0,1,3.278,1.679,3.343,3.343,0,0,1,1.028,2.5A3.08,3.08,0,0,1,39.85-.769a5.5,5.5,0,0,1-3.384.945,6.534,6.534,0,0,1-2.689-.541,4.256,4.256,0,0,1-1.85-1.481,3.793,3.793,0,0,1-.637-2.18h2.646q0,2.118,2.531,2.118a2.462,2.462,0,0,0,1.468-.382A1.244,1.244,0,0,0,38.461-3.357ZM45.694,0H43.058V-12.8h2.637Z" transform="translate(968.381 9072.954)" fill="#12263f"/>
    <path id="Trazado_194506" data-name="Trazado 194506" d="M-52.714,0h-1.219V-9.242h1.219Zm3.447-3.618V0h-1.219V-9.242h3.409a3.425,3.425,0,0,1,2.377.774,2.625,2.625,0,0,1,.86,2.05,2.591,2.591,0,0,1-.841,2.073,3.578,3.578,0,0,1-2.409.727Zm0-1h2.19a2.19,2.19,0,0,0,1.5-.461,1.686,1.686,0,0,0,.521-1.332,1.742,1.742,0,0,0-.521-1.323,2.051,2.051,0,0,0-1.428-.515h-2.26Zm9.16,3.021,1.7-5.275h1.2L-39.67,0h-.9l-2.488-6.868h1.2ZM-31.24-3.1h1.282v.958H-31.24V0h-1.181V-2.146h-4.208v-.692l4.139-6.4h1.25Zm-4.056,0h2.875V-7.636l-.14.254Zm6.481,4.945-.667-.457A3.063,3.063,0,0,0-28.86-.33V-1.39h1.149v.92A2.891,2.891,0,0,1-28.025.813,3,3,0,0,1-28.815,1.841ZM-21.515,0h-1.219V-9.242h1.219Zm3.447-3.618V0h-1.219V-9.242h3.409a3.425,3.425,0,0,1,2.377.774,2.625,2.625,0,0,1,.86,2.05,2.591,2.591,0,0,1-.841,2.073,3.578,3.578,0,0,1-2.409.727Zm0-1h2.19a2.19,2.19,0,0,0,1.5-.461,1.686,1.686,0,0,0,.521-1.332,1.742,1.742,0,0,0-.521-1.323,2.051,2.051,0,0,0-1.428-.515h-2.26Zm9.16,3.021,1.7-5.275h1.2L-8.471,0h-.9l-2.488-6.868h1.2ZM-.39-9.249v1H-.606a3.092,3.092,0,0,0-2.184.813,3.381,3.381,0,0,0-.939,2.215,2.507,2.507,0,0,1,1.993-.838A2.4,2.4,0,0,1,.19-5.211a3.281,3.281,0,0,1,.72,2.2A3.27,3.27,0,0,1,.133-.73,2.678,2.678,0,0,1-1.952.127,2.638,2.638,0,0,1-4.1-.892a4.038,4.038,0,0,1-.825-2.625v-.451a6.084,6.084,0,0,1,1.089-3.9A4,4,0,0,1-.6-9.249ZM-1.933-5.084a1.874,1.874,0,0,0-1.111.362,1.885,1.885,0,0,0-.7.908v.432a3.032,3.032,0,0,0,.514,1.841,1.541,1.541,0,0,0,1.282.7A1.493,1.493,0,0,0-.7-1.428a2.423,2.423,0,0,0,.454-1.53A2.424,2.424,0,0,0-.711-4.5,1.475,1.475,0,0,0-1.933-5.084ZM2.384,1.841l-.667-.457A3.063,3.063,0,0,0,2.339-.33V-1.39H3.488v.92A2.891,2.891,0,0,1,3.174.813,3,3,0,0,1,2.384,1.841ZM9.683,0H8.465V-9.242H9.683ZM18.71-2.933A3.4,3.4,0,0,1,17.627-.67a3.547,3.547,0,0,1-2.422.8,3.257,3.257,0,0,1-2.625-1.174,4.724,4.724,0,0,1-.987-3.142v-.889a5.266,5.266,0,0,1,.46-2.266,3.438,3.438,0,0,1,1.3-1.5,3.632,3.632,0,0,1,1.955-.524,3.34,3.34,0,0,1,2.361.822A3.441,3.441,0,0,1,18.71-6.271H17.485a2.655,2.655,0,0,0-.689-1.6,2.084,2.084,0,0,0-1.482-.5,2.181,2.181,0,0,0-1.831.864,3.966,3.966,0,0,0-.663,2.459v.9a4.077,4.077,0,0,0,.628,2.4,2.031,2.031,0,0,0,1.758.889,2.345,2.345,0,0,0,1.558-.46,2.554,2.554,0,0,0,.72-1.6Zm3.237-6.31L24.969-1.7,27.99-9.242h1.581V0H28.352V-3.6l.114-3.885L25.432,0H24.5L21.471-7.465,21.592-3.6V0H20.373V-9.242ZM32.941-3.618V0H31.722V-9.242h3.409a3.425,3.425,0,0,1,2.377.774,2.625,2.625,0,0,1,.86,2.05,2.591,2.591,0,0,1-.841,2.073,3.578,3.578,0,0,1-2.409.727Zm0-1h2.19a2.19,2.19,0,0,0,1.5-.461,1.686,1.686,0,0,0,.521-1.332,1.742,1.742,0,0,0-.521-1.323A2.051,2.051,0,0,0,35.2-8.246h-2.26ZM42.1-1.593l1.7-5.275H45L42.539,0h-.9L39.156-6.868h1.2ZM50.969-3.1h1.282v.958H50.969V0H49.788V-2.146H45.579v-.692l4.139-6.4h1.25Zm-4.056,0h2.875V-7.636l-.14.254Zm6.481,4.945-.667-.457A3.063,3.063,0,0,0,53.349-.33V-1.39H54.5v.92A2.891,2.891,0,0,1,54.184.813,3,3,0,0,1,53.393,1.841ZM-20.24,14h-1.219V4.758h1.219Zm9.026-2.933A3.4,3.4,0,0,1-12.3,13.33a3.547,3.547,0,0,1-2.422.8,3.257,3.257,0,0,1-2.625-1.174,4.724,4.724,0,0,1-.987-3.142V8.922a5.266,5.266,0,0,1,.46-2.266,3.438,3.438,0,0,1,1.3-1.5,3.632,3.632,0,0,1,1.955-.524,3.34,3.34,0,0,1,2.361.822,3.441,3.441,0,0,1,1.035,2.276h-1.225a2.655,2.655,0,0,0-.689-1.6,2.084,2.084,0,0,0-1.482-.5,2.181,2.181,0,0,0-1.831.864A3.966,3.966,0,0,0-17.1,8.95v.9a4.077,4.077,0,0,0,.628,2.4,2.031,2.031,0,0,0,1.758.889,2.345,2.345,0,0,0,1.558-.46,2.554,2.554,0,0,0,.72-1.6Zm3.237-6.31L-4.954,12.3l3.021-7.541H-.352V14H-1.571V10.4l.114-3.885L-4.491,14h-.933L-8.452,6.535l.121,3.866V14H-9.55V4.758ZM3.018,10.382V14H1.8V4.758H5.208a3.425,3.425,0,0,1,2.377.774,2.625,2.625,0,0,1,.86,2.05A2.591,2.591,0,0,1,7.6,9.655a3.578,3.578,0,0,1-2.409.727Zm0-1h2.19a2.19,2.19,0,0,0,1.5-.461,1.686,1.686,0,0,0,.521-1.332,1.742,1.742,0,0,0-.521-1.323,2.051,2.051,0,0,0-1.428-.515H3.018Zm9.16,3.021,1.7-5.275h1.2L12.616,14h-.9L9.233,7.132h1.2ZM20.7,4.751v1h-.216a3.092,3.092,0,0,0-2.184.813,3.381,3.381,0,0,0-.939,2.215,2.507,2.507,0,0,1,1.993-.838,2.4,2.4,0,0,1,1.927.851,3.281,3.281,0,0,1,.72,2.2,3.27,3.27,0,0,1-.778,2.285,2.678,2.678,0,0,1-2.085.857,2.638,2.638,0,0,1-2.152-1.019,4.038,4.038,0,0,1-.825-2.625v-.451a6.084,6.084,0,0,1,1.089-3.9,4,4,0,0,1,3.24-1.381ZM19.154,8.916a1.974,1.974,0,0,0-1.815,1.27v.432a3.032,3.032,0,0,0,.514,1.841,1.541,1.541,0,0,0,1.282.7,1.493,1.493,0,0,0,1.247-.584,2.423,2.423,0,0,0,.454-1.53,2.424,2.424,0,0,0-.46-1.539A1.475,1.475,0,0,0,19.154,8.916Z" transform="translate(1113.676 9289)" fill="#12263f"/>
    <path id="Trazado_194507" data-name="Trazado 194507" d="M-51.676-3.618V0H-52.9V-9.242h3.409a3.425,3.425,0,0,1,2.377.774,2.625,2.625,0,0,1,.86,2.05,2.591,2.591,0,0,1-.841,2.073,3.578,3.578,0,0,1-2.409.727Zm0-1h2.19a2.19,2.19,0,0,0,1.5-.461,1.686,1.686,0,0,0,.521-1.332,1.742,1.742,0,0,0-.521-1.323,2.051,2.051,0,0,0-1.428-.515h-2.26Zm8.2,1V0h-1.219V-9.242h3.409a3.425,3.425,0,0,1,2.377.774,2.625,2.625,0,0,1,.86,2.05,2.591,2.591,0,0,1-.841,2.073,3.578,3.578,0,0,1-2.409.727Zm0-1h2.19a2.19,2.19,0,0,0,1.5-.461,1.686,1.686,0,0,0,.521-1.332,1.742,1.742,0,0,0-.521-1.323,2.051,2.051,0,0,0-1.428-.515h-2.26Zm8.2,1V0h-1.219V-9.242h3.409a3.425,3.425,0,0,1,2.377.774,2.625,2.625,0,0,1,.86,2.05,2.591,2.591,0,0,1-.841,2.073,3.578,3.578,0,0,1-2.409.727Zm0-1h2.19a2.19,2.19,0,0,0,1.5-.461,1.686,1.686,0,0,0,.521-1.332,1.742,1.742,0,0,0-.521-1.323,2.051,2.051,0,0,0-1.428-.515h-2.26Zm4.7,6.456-.667-.457A3.063,3.063,0,0,0-30.615-.33V-1.39h1.149v.92A2.891,2.891,0,0,1-29.78.813,3,3,0,0,1-30.57,1.841Zm9.128-7.655a3.519,3.519,0,0,0-.578-.044,1.547,1.547,0,0,0-1.568.984V0h-1.174V-6.868h1.143l.019.793A1.829,1.829,0,0,1-21.963-7a1.2,1.2,0,0,1,.521.089ZM-17.513.127A3,3,0,0,1-19.786-.79a3.4,3.4,0,0,1-.876-2.453v-.216a4.121,4.121,0,0,1,.39-1.825,3.045,3.045,0,0,1,1.092-1.257A2.745,2.745,0,0,1-17.659-7a2.572,2.572,0,0,1,2.082.882,3.82,3.82,0,0,1,.743,2.526V-3.1h-4.653a2.441,2.441,0,0,0,.594,1.641,1.866,1.866,0,0,0,1.444.625A2.045,2.045,0,0,0-16.4-1.085a2.648,2.648,0,0,0,.755-.673l.717.559A2.884,2.884,0,0,1-17.513.127Zm-.146-6.157a1.566,1.566,0,0,0-1.193.517,2.515,2.515,0,0,0-.6,1.45h3.44v-.089a2.237,2.237,0,0,0-.482-1.387A1.475,1.475,0,0,0-17.659-6.03Zm5.776-2.5v1.663H-10.6v.908h-1.282V-1.7a.953.953,0,0,0,.171.62.721.721,0,0,0,.584.207,2.843,2.843,0,0,0,.559-.076V0a3.424,3.424,0,0,1-.9.126,1.462,1.462,0,0,1-1.187-.476,2.045,2.045,0,0,1-.4-1.352V-5.96h-1.25v-.908h1.25V-8.531ZM-5.91-5.814a3.519,3.519,0,0,0-.578-.044,1.547,1.547,0,0,0-1.568.984V0H-9.229V-6.868h1.143l.019.793A1.829,1.829,0,0,1-6.43-7a1.2,1.2,0,0,1,.521.089ZM-.844,0a2.467,2.467,0,0,1-.165-.724A2.62,2.62,0,0,1-2.964.127,2.424,2.424,0,0,1-4.631-.448,1.859,1.859,0,0,1-5.281-1.9a1.942,1.942,0,0,1,.816-1.666,3.846,3.846,0,0,1,2.295-.594h1.143V-4.7A1.319,1.319,0,0,0-1.4-5.684a1.48,1.48,0,0,0-1.085-.365,1.712,1.712,0,0,0-1.054.317.935.935,0,0,0-.425.768H-5.142a1.621,1.621,0,0,1,.365-.993,2.491,2.491,0,0,1,.99-.759A3.331,3.331,0,0,1-2.412-7,2.715,2.715,0,0,1-.552-6.4a2.141,2.141,0,0,1,.7,1.635v3.161A3.865,3.865,0,0,0,.387-.1V0ZM-2.793-.9a2.064,2.064,0,0,0,1.047-.286,1.728,1.728,0,0,0,.717-.743V-3.333h-.92q-2.158,0-2.158,1.263a1.069,1.069,0,0,0,.368.863A1.415,1.415,0,0,0-2.793-.9ZM3.1-6.868,3.136-6A2.5,2.5,0,0,1,5.192-7q2.177,0,2.2,2.457V0H6.214V-4.545a1.581,1.581,0,0,0-.34-1.1A1.361,1.361,0,0,0,4.837-6a1.7,1.7,0,0,0-1,.3,2.069,2.069,0,0,0-.673.8V0H1.987V-6.868ZM13.159-1.822a.865.865,0,0,0-.359-.74,3.452,3.452,0,0,0-1.25-.454,5.912,5.912,0,0,1-1.416-.457,2.014,2.014,0,0,1-.774-.635,1.518,1.518,0,0,1-.251-.876,1.782,1.782,0,0,1,.714-1.428A2.789,2.789,0,0,1,11.648-7a2.87,2.87,0,0,1,1.895.6A1.915,1.915,0,0,1,14.27-4.85H13.089a1.06,1.06,0,0,0-.409-.832,1.534,1.534,0,0,0-1.031-.349,1.605,1.605,0,0,0-1,.279.879.879,0,0,0-.362.73.712.712,0,0,0,.336.641,4.139,4.139,0,0,0,1.216.413,6.334,6.334,0,0,1,1.425.47,2.079,2.079,0,0,1,.809.657,1.615,1.615,0,0,1,.263.936A1.758,1.758,0,0,1,13.6-.428a3.089,3.089,0,0,1-1.911.555,3.459,3.459,0,0,1-1.46-.292,2.375,2.375,0,0,1-.993-.816,1.966,1.966,0,0,1-.359-1.133h1.174a1.216,1.216,0,0,0,.473.936,1.835,1.835,0,0,0,1.165.346,1.894,1.894,0,0,0,1.07-.27A.829.829,0,0,0,13.159-1.822Zm3.809-5.046L17-6.106A2.536,2.536,0,0,1,19.037-7,1.964,1.964,0,0,1,21-5.891a2.6,2.6,0,0,1,.892-.8,2.634,2.634,0,0,1,1.3-.3q2.26,0,2.3,2.393V0H24.312V-4.532a1.577,1.577,0,0,0-.336-1.1A1.482,1.482,0,0,0,22.845-6a1.557,1.557,0,0,0-1.085.39,1.584,1.584,0,0,0-.5,1.051V0H20.078V-4.5A1.31,1.31,0,0,0,18.611-6a1.571,1.571,0,0,0-1.581.984V0H15.856V-6.868ZM28.533,0H27.358V-6.868h1.174Zm-1.27-8.69a.7.7,0,0,1,.175-.482.655.655,0,0,1,.517-.2.666.666,0,0,1,.521.2.694.694,0,0,1,.178.482.671.671,0,0,1-.178.476.678.678,0,0,1-.521.19.667.667,0,0,1-.517-.19A.678.678,0,0,1,27.263-8.69Zm7.147,6.868a.865.865,0,0,0-.359-.74,3.452,3.452,0,0,0-1.25-.454,5.912,5.912,0,0,1-1.416-.457,2.014,2.014,0,0,1-.774-.635,1.518,1.518,0,0,1-.251-.876,1.782,1.782,0,0,1,.714-1.428A2.789,2.789,0,0,1,32.9-7a2.87,2.87,0,0,1,1.895.6,1.915,1.915,0,0,1,.727,1.542H34.341a1.06,1.06,0,0,0-.409-.832A1.534,1.534,0,0,0,32.9-6.03a1.605,1.605,0,0,0-1,.279.879.879,0,0,0-.362.73.712.712,0,0,0,.336.641,4.139,4.139,0,0,0,1.216.413,6.334,6.334,0,0,1,1.425.47,2.079,2.079,0,0,1,.809.657,1.615,1.615,0,0,1,.263.936,1.758,1.758,0,0,1-.736,1.476,3.089,3.089,0,0,1-1.911.555,3.459,3.459,0,0,1-1.46-.292,2.375,2.375,0,0,1-.993-.816,1.966,1.966,0,0,1-.359-1.133H31.3a1.216,1.216,0,0,0,.473.936,1.835,1.835,0,0,0,1.165.346,1.894,1.894,0,0,0,1.07-.27A.829.829,0,0,0,34.411-1.822ZM38.391,0H37.216V-6.868h1.174Zm-1.27-8.69a.7.7,0,0,1,.175-.482.655.655,0,0,1,.517-.2.666.666,0,0,1,.521.2.694.694,0,0,1,.178.482.671.671,0,0,1-.178.476.678.678,0,0,1-.521.19.667.667,0,0,1-.517-.19A.678.678,0,0,1,37.121-8.69ZM39.958-3.5a4.057,4.057,0,0,1,.4-1.815,2.96,2.96,0,0,1,1.1-1.244A3.007,3.007,0,0,1,43.075-7a2.9,2.9,0,0,1,2.269.971,3.736,3.736,0,0,1,.866,2.583v.083a4.092,4.092,0,0,1-.384,1.8,2.916,2.916,0,0,1-1.1,1.241,3.041,3.041,0,0,1-1.641.444,2.889,2.889,0,0,1-2.263-.971,3.718,3.718,0,0,1-.866-2.571Zm1.181.14a2.938,2.938,0,0,0,.53,1.834,1.7,1.7,0,0,0,1.419.692,1.686,1.686,0,0,0,1.422-.7A3.213,3.213,0,0,0,45.037-3.5,2.933,2.933,0,0,0,44.5-5.329a1.705,1.705,0,0,0-1.425-.7,1.686,1.686,0,0,0-1.4.692A3.189,3.189,0,0,0,41.139-3.358ZM43.608-9.75H45.03l-1.7,1.866-.946,0Zm5.186,2.882L48.833-6A2.5,2.5,0,0,1,50.889-7q2.177,0,2.2,2.457V0H51.911V-4.545a1.581,1.581,0,0,0-.34-1.1A1.361,1.361,0,0,0,50.534-6a1.7,1.7,0,0,0-1,.3,2.069,2.069,0,0,0-.673.8V0H47.684V-6.868ZM-55.51,10.509a4.023,4.023,0,0,1,.749-2.542A2.369,2.369,0,0,1-52.8,7a2.382,2.382,0,0,1,1.911.825V4.25h1.174V14h-1.079l-.057-.736a2.391,2.391,0,0,1-1.961.863,2.346,2.346,0,0,1-1.946-.978A4.069,4.069,0,0,1-55.51,10.6Zm1.174.133a3.046,3.046,0,0,0,.482,1.828,1.56,1.56,0,0,0,1.333.66,1.713,1.713,0,0,0,1.631-1V8.973A1.726,1.726,0,0,0-52.508,8a1.567,1.567,0,0,0-1.346.667A3.354,3.354,0,0,0-54.336,10.642Zm9.293,3.485a3,3,0,0,1-2.272-.917,3.4,3.4,0,0,1-.876-2.453v-.216a4.121,4.121,0,0,1,.39-1.825,3.045,3.045,0,0,1,1.092-1.257A2.745,2.745,0,0,1-45.189,7a2.572,2.572,0,0,1,2.082.882,3.82,3.82,0,0,1,.743,2.526V10.9h-4.653a2.441,2.441,0,0,0,.594,1.641,1.866,1.866,0,0,0,1.444.625,2.045,2.045,0,0,0,1.054-.254,2.648,2.648,0,0,0,.755-.673l.717.559A2.884,2.884,0,0,1-45.043,14.127Zm-.146-6.157a1.566,1.566,0,0,0-1.193.517,2.515,2.515,0,0,0-.6,1.45h3.44V9.849a2.237,2.237,0,0,0-.482-1.387A1.475,1.475,0,0,0-45.189,7.97Zm8.995-2.5V7.132h1.282V8.04h-1.282V12.3a.953.953,0,0,0,.171.62.721.721,0,0,0,.584.207,2.843,2.843,0,0,0,.559-.076V14a3.424,3.424,0,0,1-.9.126,1.462,1.462,0,0,1-1.187-.476,2.045,2.045,0,0,1-.4-1.352V8.04h-1.25V7.132h1.25V5.469Zm5.973,2.717a3.519,3.519,0,0,0-.578-.044,1.547,1.547,0,0,0-1.568.984V14h-1.174V7.132H-32.4l.019.793A1.829,1.829,0,0,1-30.742,7a1.2,1.2,0,0,1,.521.089ZM-25.156,14a2.467,2.467,0,0,1-.165-.724,2.62,2.62,0,0,1-1.955.851,2.424,2.424,0,0,1-1.666-.574,1.859,1.859,0,0,1-.651-1.457,1.942,1.942,0,0,1,.816-1.666,3.846,3.846,0,0,1,2.295-.594h1.143V9.3a1.319,1.319,0,0,0-.368-.981,1.48,1.48,0,0,0-1.085-.365,1.712,1.712,0,0,0-1.054.317.935.935,0,0,0-.425.768h-1.181a1.621,1.621,0,0,1,.365-.993,2.491,2.491,0,0,1,.99-.759A3.331,3.331,0,0,1-26.724,7a2.715,2.715,0,0,1,1.86.594,2.141,2.141,0,0,1,.7,1.635v3.161a3.865,3.865,0,0,0,.241,1.5V14Zm-1.949-.9a2.064,2.064,0,0,0,1.047-.286,1.728,1.728,0,0,0,.717-.743V10.667h-.92q-2.158,0-2.158,1.263a1.069,1.069,0,0,0,.368.863A1.415,1.415,0,0,0-27.1,13.1Zm5.884-5.973.032.762A2.536,2.536,0,0,1-19.151,7a1.964,1.964,0,0,1,1.961,1.1,2.6,2.6,0,0,1,.892-.8A2.634,2.634,0,0,1-15,7q2.26,0,2.3,2.393V14h-1.174V9.468a1.577,1.577,0,0,0-.336-1.1A1.482,1.482,0,0,0-15.342,8a1.557,1.557,0,0,0-1.085.39,1.584,1.584,0,0,0-.5,1.051V14H-18.11V9.5A1.31,1.31,0,0,0-19.576,8a1.571,1.571,0,0,0-1.581.984V14h-1.174V7.132ZM-6.69,14a2.467,2.467,0,0,1-.165-.724,2.62,2.62,0,0,1-1.955.851,2.424,2.424,0,0,1-1.666-.574,1.859,1.859,0,0,1-.651-1.457,1.942,1.942,0,0,1,.816-1.666,3.846,3.846,0,0,1,2.295-.594h1.143V9.3a1.319,1.319,0,0,0-.368-.981,1.48,1.48,0,0,0-1.085-.365,1.712,1.712,0,0,0-1.054.317.935.935,0,0,0-.425.768h-1.181a1.621,1.621,0,0,1,.365-.993,2.491,2.491,0,0,1,.99-.759A3.331,3.331,0,0,1-8.258,7,2.715,2.715,0,0,1-6.4,7.6a2.141,2.141,0,0,1,.7,1.635v3.161a3.865,3.865,0,0,0,.241,1.5V14Zm-1.949-.9a2.064,2.064,0,0,0,1.047-.286,1.728,1.728,0,0,0,.717-.743V10.667h-.92q-2.158,0-2.158,1.263a1.069,1.069,0,0,0,.368.863A1.415,1.415,0,0,0-8.639,13.1ZM.14,12.178a.865.865,0,0,0-.359-.74,3.452,3.452,0,0,0-1.25-.454,5.912,5.912,0,0,1-1.416-.457,2.014,2.014,0,0,1-.774-.635,1.518,1.518,0,0,1-.251-.876A1.782,1.782,0,0,1-3.2,7.589,2.789,2.789,0,0,1-1.371,7a2.87,2.87,0,0,1,1.895.6A1.915,1.915,0,0,1,1.25,9.15H.07A1.06,1.06,0,0,0-.34,8.319,1.534,1.534,0,0,0-1.371,7.97a1.605,1.605,0,0,0-1,.279.879.879,0,0,0-.362.73A.712.712,0,0,0-2.4,9.62a4.139,4.139,0,0,0,1.216.413,6.334,6.334,0,0,1,1.425.47,2.079,2.079,0,0,1,.809.657,1.615,1.615,0,0,1,.263.936,1.758,1.758,0,0,1-.736,1.476,3.089,3.089,0,0,1-1.911.555,3.459,3.459,0,0,1-1.46-.292,2.375,2.375,0,0,1-.993-.816,1.966,1.966,0,0,1-.359-1.133h1.174a1.216,1.216,0,0,0,.473.936,1.835,1.835,0,0,0,1.165.346,1.894,1.894,0,0,0,1.07-.27A.829.829,0,0,0,.14,12.178Zm2.666,3.663-.667-.457a3.063,3.063,0,0,0,.622-1.714V12.61H3.91v.92A2.891,2.891,0,0,1,3.6,14.813,3,3,0,0,1,2.806,15.841ZM14.022,9.728H10.017V13h4.653v1H8.8V4.758h5.808v1H10.017V8.731h4.005ZM17.6,5.469V7.132h1.282V8.04H17.6V12.3a.953.953,0,0,0,.171.62.721.721,0,0,0,.584.207,2.843,2.843,0,0,0,.559-.076V14a3.424,3.424,0,0,1-.9.126,1.462,1.462,0,0,1-1.187-.476,2.045,2.045,0,0,1-.4-1.352V8.04h-1.25V7.132h1.25V5.469Zm3.828,2.495A2.5,2.5,0,0,1,23.455,7q2.177,0,2.2,2.457V14H24.477V9.455a1.581,1.581,0,0,0-.34-1.1A1.361,1.361,0,0,0,23.1,8a1.7,1.7,0,0,0-1,.3,2.069,2.069,0,0,0-.673.8V14H20.249V4.25h1.174Zm8.836,6.164a3,3,0,0,1-2.272-.917,3.4,3.4,0,0,1-.876-2.453v-.216a4.121,4.121,0,0,1,.39-1.825,3.045,3.045,0,0,1,1.092-1.257A2.745,2.745,0,0,1,30.113,7a2.572,2.572,0,0,1,2.082.882,3.82,3.82,0,0,1,.743,2.526V10.9H28.285a2.441,2.441,0,0,0,.594,1.641,1.866,1.866,0,0,0,1.444.625,2.045,2.045,0,0,0,1.054-.254,2.648,2.648,0,0,0,.755-.673l.717.559A2.884,2.884,0,0,1,30.259,14.127ZM30.113,7.97a1.566,1.566,0,0,0-1.193.517,2.515,2.515,0,0,0-.6,1.45h3.44V9.849a2.237,2.237,0,0,0-.482-1.387A1.475,1.475,0,0,0,30.113,7.97Zm7.5.216a3.519,3.519,0,0,0-.578-.044,1.547,1.547,0,0,0-1.568.984V14H34.3V7.132h1.143l.019.793A1.829,1.829,0,0,1,37.1,7a1.2,1.2,0,0,1,.521.089Zm2.19-1.054L39.844,8A2.5,2.5,0,0,1,41.9,7q2.177,0,2.2,2.457V14H42.923V9.455a1.581,1.581,0,0,0-.34-1.1A1.361,1.361,0,0,0,41.545,8a1.7,1.7,0,0,0-1,.3,2.069,2.069,0,0,0-.673.8V14H38.7V7.132Zm8.912,7a3,3,0,0,1-2.272-.917,3.4,3.4,0,0,1-.876-2.453v-.216a4.121,4.121,0,0,1,.39-1.825,3.045,3.045,0,0,1,1.092-1.257A2.745,2.745,0,0,1,48.572,7a2.572,2.572,0,0,1,2.082.882,3.82,3.82,0,0,1,.743,2.526V10.9H46.744a2.441,2.441,0,0,0,.594,1.641,1.866,1.866,0,0,0,1.444.625,2.045,2.045,0,0,0,1.054-.254,2.648,2.648,0,0,0,.755-.673l.717.559A2.884,2.884,0,0,1,48.718,14.127ZM48.572,7.97a1.566,1.566,0,0,0-1.193.517,2.515,2.515,0,0,0-.6,1.45h3.44V9.849a2.237,2.237,0,0,0-.482-1.387A1.475,1.475,0,0,0,48.572,7.97Zm5.776-2.5V7.132h1.282V8.04H54.349V12.3a.953.953,0,0,0,.171.62.721.721,0,0,0,.584.207,2.843,2.843,0,0,0,.559-.076V14a3.424,3.424,0,0,1-.9.126,1.462,1.462,0,0,1-1.187-.476,2.045,2.045,0,0,1-.4-1.352V8.04h-1.25V7.132h1.25V5.469Z" transform="translate(1113.676 9359)" fill="#12263f"/>
    <path id="Trazado_194504" data-name="Trazado 194504" d="M-24.159,0h-1.225V-4.272h-4.659V0h-1.219V-9.242h1.219v3.974h4.659V-9.242h1.225Zm8.366-8.246h-2.971V0h-1.212V-8.246H-22.94v-1h7.147Zm7.858,0h-2.971V0h-1.212V-8.246h-2.964v-1h7.147Zm2.59,4.627V0H-6.563V-9.242h3.409a3.425,3.425,0,0,1,2.377.774,2.625,2.625,0,0,1,.86,2.05A2.591,2.591,0,0,1-.759-4.345a3.578,3.578,0,0,1-2.409.727Zm0-1h2.19a2.19,2.19,0,0,0,1.5-.461,1.686,1.686,0,0,0,.521-1.332,1.742,1.742,0,0,0-.521-1.323,2.051,2.051,0,0,0-1.428-.515h-2.26Zm4.7,6.456-.667-.457A3.063,3.063,0,0,0-.686-.33V-1.39H.463v.92A2.891,2.891,0,0,1,.149.813,3,3,0,0,1-.641,1.841ZM5.351,0V-9.242H7.96a4.2,4.2,0,0,1,2.133.533,3.606,3.606,0,0,1,1.431,1.517,4.938,4.938,0,0,1,.511,2.26v.59a4.955,4.955,0,0,1-.5,2.292A3.55,3.55,0,0,1,10.09-.54,4.467,4.467,0,0,1,7.909,0ZM6.57-8.246V-1H7.852a2.79,2.79,0,0,0,2.193-.877,3.622,3.622,0,0,0,.784-2.5v-.54a3.68,3.68,0,0,0-.74-2.449,2.632,2.632,0,0,0-2.1-.886ZM20.979,0H19.754L15.1-7.122V0H13.876V-9.242H15.1l4.666,7.154V-9.242h1.212Zm4.888-4.12a5.731,5.731,0,0,1-2.282-1.108,2.116,2.116,0,0,1-.714-1.622,2.236,2.236,0,0,1,.873-1.806,3.469,3.469,0,0,1,2.269-.714,3.786,3.786,0,0,1,1.7.368,2.792,2.792,0,0,1,1.155,1.016,2.6,2.6,0,0,1,.409,1.416H28.05a1.69,1.69,0,0,0-.533-1.322,2.168,2.168,0,0,0-1.5-.481,2.22,2.22,0,0,0-1.406.4,1.326,1.326,0,0,0-.5,1.1,1.193,1.193,0,0,0,.479.957,4.7,4.7,0,0,0,1.631.715,7.569,7.569,0,0,1,1.8.715,2.736,2.736,0,0,1,.965.911,2.325,2.325,0,0,1,.314,1.225,2.159,2.159,0,0,1-.876,1.8,3.735,3.735,0,0,1-2.342.676A4.344,4.344,0,0,1,24.3-.238a2.991,2.991,0,0,1-1.273-1,2.44,2.44,0,0,1-.448-1.441H23.8a1.592,1.592,0,0,0,.619,1.323,2.606,2.606,0,0,0,1.654.486,2.4,2.4,0,0,0,1.479-.394,1.278,1.278,0,0,0,.514-1.073,1.255,1.255,0,0,0-.476-1.051A5.489,5.489,0,0,0,25.867-4.12Zm4.767,5.96-.667-.457A3.063,3.063,0,0,0,30.589-.33V-1.39h1.149v.92A2.891,2.891,0,0,1,31.424.813,3,3,0,0,1,30.634,1.841ZM-29.647,14V4.758h2.609a4.2,4.2,0,0,1,2.133.533,3.606,3.606,0,0,1,1.431,1.517,4.938,4.938,0,0,1,.511,2.26v.59a4.955,4.955,0,0,1-.5,2.292,3.55,3.55,0,0,1-1.441,1.511,4.467,4.467,0,0,1-2.18.54Zm1.219-8.246V13h1.282a2.79,2.79,0,0,0,2.193-.877,3.622,3.622,0,0,0,.784-2.5V9.09a3.68,3.68,0,0,0-.74-2.449,2.632,2.632,0,0,0-2.1-.886ZM-14.019,14h-1.225V9.728H-19.9V14h-1.219V4.758H-19.9V8.731h4.659V4.758h1.225Zm8.963-2.933A3.4,3.4,0,0,1-6.138,13.33a3.547,3.547,0,0,1-2.422.8,3.257,3.257,0,0,1-2.625-1.174,4.724,4.724,0,0,1-.987-3.142V8.922a5.266,5.266,0,0,1,.46-2.266,3.438,3.438,0,0,1,1.3-1.5,3.632,3.632,0,0,1,1.955-.524,3.34,3.34,0,0,1,2.361.822A3.441,3.441,0,0,1-5.056,7.729H-6.281a2.655,2.655,0,0,0-.689-1.6,2.084,2.084,0,0,0-1.482-.5,2.181,2.181,0,0,0-1.831.864,3.966,3.966,0,0,0-.663,2.459v.9a4.077,4.077,0,0,0,.628,2.4,2.031,2.031,0,0,0,1.758.889A2.345,2.345,0,0,0-7,12.67a2.554,2.554,0,0,0,.72-1.6Zm2.882-.686V14H-3.393V4.758H.016a3.425,3.425,0,0,1,2.377.774,2.625,2.625,0,0,1,.86,2.05,2.591,2.591,0,0,1-.841,2.073A3.578,3.578,0,0,1,0,10.382Zm0-1H.016a2.19,2.19,0,0,0,1.5-.461,1.686,1.686,0,0,0,.521-1.332,1.742,1.742,0,0,0-.521-1.323A2.051,2.051,0,0,0,.086,5.754h-2.26Zm4.7,6.456-.667-.457a3.063,3.063,0,0,0,.622-1.714V12.61H3.634v.92a2.891,2.891,0,0,1-.314,1.282A3,3,0,0,1,2.53,15.841ZM13.619,9.918H9.74V14H8.522V4.758h5.726v1H9.74V8.922h3.878Zm8.6-4.164H19.249V14H18.037V5.754H15.073v-1H22.22Zm2.59,4.627V14H23.591V4.758H27a3.425,3.425,0,0,1,2.377.774,2.625,2.625,0,0,1,.86,2.05A2.591,2.591,0,0,1,29.4,9.655a3.578,3.578,0,0,1-2.409.727Zm0-1H27a2.19,2.19,0,0,0,1.5-.461,1.686,1.686,0,0,0,.521-1.332A1.742,1.742,0,0,0,28.5,6.269a2.051,2.051,0,0,0-1.428-.515H24.81Z" transform="translate(1114.676 9154)" fill="#12263f"/>
    <path id="Trazado_194508" data-name="Trazado 194508" d="M-34.255-2.637h-4.623L-39.757,0h-2.8L-37.8-12.8h2.443L-30.564,0h-2.8Zm-3.911-2.136h3.2l-1.608-4.79Zm17.191.105a5.7,5.7,0,0,1-1,3.52A3.2,3.2,0,0,1-24.667.176,2.963,2.963,0,0,1-27-.826V3.656h-2.54V-9.51h2.355l.088.932a2.985,2.985,0,0,1,2.408-1.107,3.22,3.22,0,0,1,2.733,1.3A5.858,5.858,0,0,1-20.975-4.8Zm-2.54-.185a3.743,3.743,0,0,0-.47-2.048,1.532,1.532,0,0,0-1.367-.721A1.663,1.663,0,0,0-27-6.706v3.894a1.692,1.692,0,0,0,1.661.94Q-23.515-1.872-23.515-4.852ZM-16.721,0H-19.27V-13.5h2.549Zm4.772,0H-14.5V-9.51h2.549Zm-2.7-11.971a1.251,1.251,0,0,1,.382-.94,1.436,1.436,0,0,1,1.042-.369,1.44,1.44,0,0,1,1.037.369,1.244,1.244,0,0,1,.387.94,1.247,1.247,0,0,1-.391.949,1.443,1.443,0,0,1-1.033.369,1.443,1.443,0,0,1-1.033-.369A1.247,1.247,0,0,1-14.647-11.971ZM-5.9-1.872a1.666,1.666,0,0,0,1.143-.387A1.355,1.355,0,0,0-4.3-3.287H-1.92a3.258,3.258,0,0,1-.527,1.771A3.48,3.48,0,0,1-3.867-.268,4.442,4.442,0,0,1-5.858.176a4.129,4.129,0,0,1-3.217-1.3A5.13,5.13,0,0,1-10.252-4.7v-.167A5.071,5.071,0,0,1-9.083-8.376a4.08,4.08,0,0,1,3.208-1.31A4,4,0,0,1-3.015-8.67a3.594,3.594,0,0,1,1.094,2.7H-4.3a1.745,1.745,0,0,0-.457-1.206,1.524,1.524,0,0,0-1.16-.464,1.53,1.53,0,0,0-1.34.647,3.749,3.749,0,0,0-.453,2.1v.264a3.8,3.8,0,0,0,.448,2.113A1.549,1.549,0,0,0-5.9-1.872ZM5.041,0a2.821,2.821,0,0,1-.255-.853A3.073,3.073,0,0,1,2.386.176,3.376,3.376,0,0,1,.07-.633,2.6,2.6,0,0,1-.848-2.672,2.687,2.687,0,0,1,.272-4.992,5.529,5.529,0,0,1,3.511-5.81H4.68v-.545a1.567,1.567,0,0,0-.338-1.055,1.331,1.331,0,0,0-1.068-.4A1.513,1.513,0,0,0,2.268-7.5a1.045,1.045,0,0,0-.365.844H-.637a2.551,2.551,0,0,1,.51-1.529,3.37,3.37,0,0,1,1.441-1.1,5.253,5.253,0,0,1,2.092-.4A4.15,4.15,0,0,1,6.2-8.8,3.09,3.09,0,0,1,7.229-6.319V-2.2A4.546,4.546,0,0,0,7.607-.149V0ZM2.94-1.767a2.188,2.188,0,0,0,1.037-.25,1.645,1.645,0,0,0,.7-.672V-4.324H3.731q-1.907,0-2.03,1.318l-.009.149a1.017,1.017,0,0,0,.334.782A1.3,1.3,0,0,0,2.94-1.767Zm10.2-.105a1.666,1.666,0,0,0,1.143-.387,1.355,1.355,0,0,0,.457-1.028h2.382a3.258,3.258,0,0,1-.527,1.771A3.48,3.48,0,0,1,15.17-.268a4.442,4.442,0,0,1-1.991.444,4.129,4.129,0,0,1-3.217-1.3A5.13,5.13,0,0,1,8.785-4.7v-.167A5.071,5.071,0,0,1,9.954-8.376a4.08,4.08,0,0,1,3.208-1.31A4,4,0,0,1,16.022-8.67a3.594,3.594,0,0,1,1.094,2.7H14.735a1.745,1.745,0,0,0-.457-1.206,1.524,1.524,0,0,0-1.16-.464,1.53,1.53,0,0,0-1.34.647,3.749,3.749,0,0,0-.453,2.1v.264a3.8,3.8,0,0,0,.448,2.113A1.549,1.549,0,0,0,13.135-1.872ZM21.248,0H18.7V-9.51h2.549Zm-2.7-11.971a1.251,1.251,0,0,1,.382-.94,1.436,1.436,0,0,1,1.042-.369,1.44,1.44,0,0,1,1.037.369,1.244,1.244,0,0,1,.387.94,1.247,1.247,0,0,1-.391.949,1.443,1.443,0,0,1-1.033.369,1.443,1.443,0,0,1-1.033-.369A1.247,1.247,0,0,1,18.549-11.971Zm4.395,7.128a5.64,5.64,0,0,1,.545-2.522,3.989,3.989,0,0,1,1.569-1.714,4.577,4.577,0,0,1,2.377-.606,4.33,4.33,0,0,1,3.142,1.178,4.727,4.727,0,0,1,1.358,3.2l.018.65a4.97,4.97,0,0,1-1.222,3.511A4.247,4.247,0,0,1,27.453.176,4.268,4.268,0,0,1,24.17-1.143a5.058,5.058,0,0,1-1.226-3.586Zm2.54.18a3.555,3.555,0,0,0,.51,2.073,1.682,1.682,0,0,0,1.459.717,1.686,1.686,0,0,0,1.441-.709,3.89,3.89,0,0,0,.519-2.267,3.519,3.519,0,0,0-.519-2.06,1.686,1.686,0,0,0-1.459-.731,1.658,1.658,0,0,0-1.441.726A3.955,3.955,0,0,0,25.484-4.662ZM27.936-13.5H30.7L28.27-10.775H26.2Zm7.919,3.99.079,1.1a3.32,3.32,0,0,1,2.733-1.274,2.759,2.759,0,0,1,2.25.888,4.142,4.142,0,0,1,.756,2.654V0h-2.54V-6.082a1.648,1.648,0,0,0-.352-1.173,1.574,1.574,0,0,0-1.169-.365A1.747,1.747,0,0,0,36-6.706V0h-2.54V-9.51Z" transform="translate(1262.676 9158)" fill="#fff"/>
    <path id="Trazado_194495" data-name="Trazado 194495" d="M-56.826-12.8l3.287,9.281,3.27-9.281h3.463V0h-2.646V-3.5l.264-6.038L-52.642,0h-1.811L-57.9-9.527l.264,6.029V0h-2.637V-12.8Zm11.76,7.954a5.64,5.64,0,0,1,.545-2.522,3.989,3.989,0,0,1,1.569-1.714,4.577,4.577,0,0,1,2.377-.606,4.33,4.33,0,0,1,3.142,1.178,4.727,4.727,0,0,1,1.358,3.2l.018.65a4.97,4.97,0,0,1-1.222,3.511A4.247,4.247,0,0,1-40.557.176,4.268,4.268,0,0,1-43.84-1.143a5.058,5.058,0,0,1-1.226-3.586Zm2.54.18a3.555,3.555,0,0,0,.51,2.073,1.682,1.682,0,0,0,1.459.717,1.686,1.686,0,0,0,1.441-.709A3.89,3.89,0,0,0-38.6-4.847a3.519,3.519,0,0,0-.519-2.06,1.686,1.686,0,0,0-1.459-.731,1.658,1.658,0,0,0-1.441.726A3.955,3.955,0,0,0-42.526-4.662Zm7.638-.163a5.731,5.731,0,0,1,1-3.542,3.237,3.237,0,0,1,2.729-1.318,2.913,2.913,0,0,1,2.294,1.037V-13.5h2.549V0h-2.294l-.123-1.011A2.989,2.989,0,0,1-31.179.176a3.228,3.228,0,0,1-2.694-1.323A5.916,5.916,0,0,1-34.888-4.825Zm2.54.189a3.754,3.754,0,0,0,.466,2.051,1.517,1.517,0,0,0,1.354.713,1.7,1.7,0,0,0,1.661-.995V-6.625a1.675,1.675,0,0,0-1.644-.995Q-32.348-7.62-32.348-4.636ZM-19.973.176a4.668,4.668,0,0,1-3.406-1.283,4.561,4.561,0,0,1-1.314-3.419v-.246a5.745,5.745,0,0,1,.554-2.562,4.064,4.064,0,0,1,1.569-1.74,4.4,4.4,0,0,1,2.316-.611,3.947,3.947,0,0,1,3.072,1.23,5,5,0,0,1,1.121,3.489v1.037h-6.056a2.36,2.36,0,0,0,.743,1.494,2.245,2.245,0,0,0,1.569.563,2.742,2.742,0,0,0,2.294-1.063l1.248,1.4A3.813,3.813,0,0,1-17.811-.277,5.075,5.075,0,0,1-19.973.176Zm-.29-7.813a1.587,1.587,0,0,0-1.226.512,2.651,2.651,0,0,0-.6,1.466h3.533v-.2a1.891,1.891,0,0,0-.457-1.311A1.638,1.638,0,0,0-20.263-7.638ZM-11.94,0h-2.549V-13.5h2.549Zm1.7-4.843A5.64,5.64,0,0,1-9.7-7.365,3.989,3.989,0,0,1-8.13-9.079a4.577,4.577,0,0,1,2.377-.606A4.33,4.33,0,0,1-2.61-8.508a4.727,4.727,0,0,1,1.358,3.2l.018.65A4.97,4.97,0,0,1-2.457-1.147,4.247,4.247,0,0,1-5.735.176,4.268,4.268,0,0,1-9.018-1.143a5.058,5.058,0,0,1-1.226-3.586Zm2.54.18a3.555,3.555,0,0,0,.51,2.073,1.682,1.682,0,0,0,1.459.717,1.686,1.686,0,0,0,1.441-.709,3.89,3.89,0,0,0,.519-2.267,3.519,3.519,0,0,0-.519-2.06,1.686,1.686,0,0,0-1.459-.731,1.658,1.658,0,0,0-1.441.726A3.955,3.955,0,0,0-7.7-4.662Zm21.788-6h-3.92V0H7.528V-10.661H3.661V-12.8H14.084Zm11.549,6.4a4.528,4.528,0,0,1-1.525,3.252A5.355,5.355,0,0,1,20.483.176a4.816,4.816,0,0,1-3.872-1.657A6.793,6.793,0,0,1,15.2-6.029v-.782a7.671,7.671,0,0,1,.65-3.252,4.874,4.874,0,0,1,1.859-2.158,5.207,5.207,0,0,1,2.808-.751,5.217,5.217,0,0,1,3.568,1.187,4.866,4.866,0,0,1,1.564,3.331H23.014a2.673,2.673,0,0,0-.69-1.8,2.555,2.555,0,0,0-1.806-.558,2.24,2.24,0,0,0-1.973.945,5.3,5.3,0,0,0-.672,2.931v.967A5.667,5.667,0,0,0,18.5-2.936a2.2,2.2,0,0,0,1.982.958,2.6,2.6,0,0,0,1.824-.558A2.521,2.521,0,0,0,23-4.263ZM30-4.509V0H27.365V-12.8h4.992a5.776,5.776,0,0,1,2.536.527,3.886,3.886,0,0,1,1.683,1.5,4.178,4.178,0,0,1,.589,2.21,3.674,3.674,0,0,1-1.288,2.966,5.363,5.363,0,0,1-3.564,1.085Zm0-2.136h2.355a2.316,2.316,0,0,0,1.6-.492A1.79,1.79,0,0,0,34.5-8.543a2.111,2.111,0,0,0-.554-1.521,2.068,2.068,0,0,0-1.529-.6H30ZM39.608,1.1h-1.89l4.711-13.9h1.89ZM48.5,0H45.866V-12.8H48.5Zm5.08-4.509V0H50.946V-12.8h4.992a5.776,5.776,0,0,1,2.536.527,3.886,3.886,0,0,1,1.683,1.5,4.178,4.178,0,0,1,.589,2.21,3.674,3.674,0,0,1-1.288,2.966,5.363,5.363,0,0,1-3.564,1.085Zm0-2.136h2.355a2.316,2.316,0,0,0,1.6-.492,1.79,1.79,0,0,0,.549-1.406,2.111,2.111,0,0,0-.554-1.521,2.068,2.068,0,0,0-1.529-.6H53.583Z" transform="translate(1262.676 9073)" fill="#12263f"/>
    <path id="Trazado_194494" data-name="Trazado 194494" d="M-39.806-4.263a4.528,4.528,0,0,1-1.525,3.252A5.355,5.355,0,0,1-44.956.176a4.816,4.816,0,0,1-3.872-1.657,6.793,6.793,0,0,1-1.411-4.548v-.782a7.671,7.671,0,0,1,.65-3.252,4.874,4.874,0,0,1,1.859-2.158,5.207,5.207,0,0,1,2.808-.751,5.217,5.217,0,0,1,3.568,1.187,4.866,4.866,0,0,1,1.564,3.331h-2.637a2.673,2.673,0,0,0-.69-1.8,2.555,2.555,0,0,0-1.806-.558,2.24,2.24,0,0,0-1.973.945,5.3,5.3,0,0,0-.672,2.931v.967a5.667,5.667,0,0,0,.628,3.032,2.2,2.2,0,0,0,1.982.958,2.6,2.6,0,0,0,1.824-.558,2.521,2.521,0,0,0,.69-1.727Zm1.169-.58a5.64,5.64,0,0,1,.545-2.522,3.989,3.989,0,0,1,1.569-1.714,4.577,4.577,0,0,1,2.377-.606A4.33,4.33,0,0,1-31-8.508a4.727,4.727,0,0,1,1.358,3.2l.018.65A4.97,4.97,0,0,1-30.85-1.147,4.247,4.247,0,0,1-34.128.176a4.268,4.268,0,0,1-3.283-1.318,5.058,5.058,0,0,1-1.226-3.586Zm2.54.18a3.555,3.555,0,0,0,.51,2.073,1.682,1.682,0,0,0,1.459.717,1.686,1.686,0,0,0,1.441-.709,3.89,3.89,0,0,0,.519-2.267,3.519,3.519,0,0,0-.519-2.06,1.686,1.686,0,0,0-1.459-.731,1.658,1.658,0,0,0-1.441.726A3.955,3.955,0,0,0-36.1-4.662ZM-25.726-9.51l.079,1.1a3.32,3.32,0,0,1,2.733-1.274,2.759,2.759,0,0,1,2.25.888,4.142,4.142,0,0,1,.756,2.654V0h-2.54V-6.082A1.648,1.648,0,0,0-22.8-7.255a1.574,1.574,0,0,0-1.169-.365,1.747,1.747,0,0,0-1.608.914V0h-2.54V-9.51Zm10.433,0V.519a3.4,3.4,0,0,1-.835,2.448,3.174,3.174,0,0,1-2.408.875,5.165,5.165,0,0,1-1.257-.149V1.679a4.768,4.768,0,0,0,.8.079q1.151,0,1.151-1.222V-9.51Zm-2.751-2.461a1.251,1.251,0,0,1,.382-.94,1.436,1.436,0,0,1,1.042-.369,1.436,1.436,0,0,1,1.042.369,1.251,1.251,0,0,1,.382.94,1.247,1.247,0,0,1-.391.949,1.443,1.443,0,0,1-1.033.369,1.443,1.443,0,0,1-1.033-.369A1.247,1.247,0,0,1-18.044-11.971Zm10.433,11a3.185,3.185,0,0,1-2.6,1.143A3,3,0,0,1-12.546-.7a3.752,3.752,0,0,1-.822-2.575V-9.51h2.54v6.151q0,1.487,1.354,1.487A1.834,1.834,0,0,0-7.7-2.77V-9.51H-5.15V0H-7.541ZM-.9-9.51l.079,1.1A3.32,3.32,0,0,1,1.916-9.686a2.759,2.759,0,0,1,2.25.888,4.142,4.142,0,0,1,.756,2.654V0H2.382V-6.082A1.648,1.648,0,0,0,2.03-7.255,1.574,1.574,0,0,0,.861-7.62a1.747,1.747,0,0,0-1.608.914V0h-2.54V-9.51ZM9.888-11.848V-9.51h1.626v1.863H9.888V-2.9a1.133,1.133,0,0,0,.2.756,1.015,1.015,0,0,0,.773.229,4.051,4.051,0,0,0,.747-.062V-.053a5.229,5.229,0,0,1-1.538.229,2.425,2.425,0,0,1-2.725-2.7V-7.646H5.959V-9.51H7.348v-2.338Zm2.382,7a5.64,5.64,0,0,1,.545-2.522,3.989,3.989,0,0,1,1.569-1.714,4.577,4.577,0,0,1,2.377-.606A4.33,4.33,0,0,1,19.9-8.508a4.727,4.727,0,0,1,1.358,3.2l.018.65a4.97,4.97,0,0,1-1.222,3.511A4.247,4.247,0,0,1,16.778.176,4.268,4.268,0,0,1,13.5-1.143,5.058,5.058,0,0,1,12.27-4.729Zm2.54.18a3.555,3.555,0,0,0,.51,2.073,1.682,1.682,0,0,0,1.459.717,1.686,1.686,0,0,0,1.441-.709,3.89,3.89,0,0,0,.519-2.267,3.519,3.519,0,0,0-.519-2.06,1.686,1.686,0,0,0-1.459-.731,1.658,1.658,0,0,0-1.441.726A3.955,3.955,0,0,0,14.81-4.662Zm12.12-.163a5.731,5.731,0,0,1,1-3.542,3.237,3.237,0,0,1,2.729-1.318A2.913,2.913,0,0,1,32.95-8.648V-13.5H35.5V0H33.205l-.123-1.011A2.989,2.989,0,0,1,30.639.176a3.228,3.228,0,0,1-2.694-1.323A5.916,5.916,0,0,1,26.93-4.825Zm2.54.189a3.754,3.754,0,0,0,.466,2.051,1.517,1.517,0,0,0,1.354.713,1.7,1.7,0,0,0,1.661-.995V-6.625a1.675,1.675,0,0,0-1.644-.995Q29.47-7.62,29.47-4.636ZM41.845.176a4.668,4.668,0,0,1-3.406-1.283,4.561,4.561,0,0,1-1.314-3.419v-.246a5.745,5.745,0,0,1,.554-2.562,4.064,4.064,0,0,1,1.569-1.74,4.4,4.4,0,0,1,2.316-.611,3.947,3.947,0,0,1,3.072,1.23,5,5,0,0,1,1.121,3.489v1.037H39.7a2.36,2.36,0,0,0,.743,1.494,2.245,2.245,0,0,0,1.569.563,2.742,2.742,0,0,0,2.294-1.063l1.248,1.4A3.813,3.813,0,0,1,44.007-.277,5.075,5.075,0,0,1,41.845.176Zm-.29-7.813a1.587,1.587,0,0,0-1.226.512,2.651,2.651,0,0,0-.6,1.466H43.26v-.2A1.891,1.891,0,0,0,42.8-7.174,1.638,1.638,0,0,0,41.555-7.638ZM49.878,0H47.329V-13.5h2.549Zm-116.4,14.491V19h-2.637V6.2h4.992a5.776,5.776,0,0,1,2.536.527,3.886,3.886,0,0,1,1.683,1.5,4.178,4.178,0,0,1,.589,2.21,3.674,3.674,0,0,1-1.288,2.966,5.363,5.363,0,0,1-3.564,1.085Zm0-2.136h2.355a2.316,2.316,0,0,0,1.6-.492,1.79,1.79,0,0,0,.549-1.406,2.111,2.111,0,0,0-.554-1.521,2.068,2.068,0,0,0-1.529-.6h-2.417Zm14.15-.483a6.9,6.9,0,0,0-.914-.07,1.86,1.86,0,0,0-1.89.976V19h-2.54V9.49h2.4l.07,1.134a2.354,2.354,0,0,1,2.118-1.31,2.662,2.662,0,0,1,.791.114Zm.51,2.285a5.64,5.64,0,0,1,.545-2.522A3.989,3.989,0,0,1-49.75,9.921a4.577,4.577,0,0,1,2.377-.606,4.33,4.33,0,0,1,3.142,1.178,4.727,4.727,0,0,1,1.358,3.2l.018.65a4.97,4.97,0,0,1-1.222,3.511,4.247,4.247,0,0,1-3.278,1.323,4.268,4.268,0,0,1-3.283-1.318,5.058,5.058,0,0,1-1.226-3.586Zm2.54.18a3.555,3.555,0,0,0,.51,2.073,1.682,1.682,0,0,0,1.459.717,1.686,1.686,0,0,0,1.441-.709,3.89,3.89,0,0,0,.519-2.267,3.519,3.519,0,0,0-.519-2.06,1.686,1.686,0,0,0-1.459-.731,1.658,1.658,0,0,0-1.441.726A3.955,3.955,0,0,0-49.324,14.338ZM-38.25,7.152V9.49h1.626v1.863H-38.25V16.1a1.133,1.133,0,0,0,.2.756,1.015,1.015,0,0,0,.773.229,4.051,4.051,0,0,0,.747-.062v1.925a5.229,5.229,0,0,1-1.538.229,2.425,2.425,0,0,1-2.725-2.7V11.354h-1.389V9.49h1.389V7.152Zm2.382,7a5.64,5.64,0,0,1,.545-2.522,3.989,3.989,0,0,1,1.569-1.714,4.577,4.577,0,0,1,2.377-.606,4.33,4.33,0,0,1,3.142,1.178,4.727,4.727,0,0,1,1.358,3.2l.018.65a4.97,4.97,0,0,1-1.222,3.511,4.247,4.247,0,0,1-3.278,1.323,4.268,4.268,0,0,1-3.283-1.318,5.058,5.058,0,0,1-1.226-3.586Zm2.54.18a3.555,3.555,0,0,0,.51,2.073,1.682,1.682,0,0,0,1.459.717,1.686,1.686,0,0,0,1.441-.709,3.89,3.89,0,0,0,.519-2.267,3.519,3.519,0,0,0-.519-2.06,1.686,1.686,0,0,0-1.459-.731,1.658,1.658,0,0,0-1.441.726A3.955,3.955,0,0,0-33.328,14.338Zm11.988,2.79a1.666,1.666,0,0,0,1.143-.387,1.355,1.355,0,0,0,.457-1.028h2.382a3.258,3.258,0,0,1-.527,1.771,3.48,3.48,0,0,1-1.419,1.248,4.442,4.442,0,0,1-1.991.444,4.129,4.129,0,0,1-3.217-1.3A5.13,5.13,0,0,1-25.69,14.3v-.167a5.071,5.071,0,0,1,1.169-3.507,4.08,4.08,0,0,1,3.208-1.31,4,4,0,0,1,2.861,1.015,3.594,3.594,0,0,1,1.094,2.7H-19.74a1.745,1.745,0,0,0-.457-1.206,1.524,1.524,0,0,0-1.16-.464,1.53,1.53,0,0,0-1.34.647,3.749,3.749,0,0,0-.453,2.1v.264a3.8,3.8,0,0,0,.448,2.113A1.549,1.549,0,0,0-21.34,17.128Zm5.036-2.971a5.64,5.64,0,0,1,.545-2.522A3.989,3.989,0,0,1-14.19,9.921a4.577,4.577,0,0,1,2.377-.606A4.33,4.33,0,0,1-8.67,10.492a4.727,4.727,0,0,1,1.358,3.2l.018.65a4.97,4.97,0,0,1-1.222,3.511,4.247,4.247,0,0,1-3.278,1.323,4.268,4.268,0,0,1-3.283-1.318A5.058,5.058,0,0,1-16.3,14.271Zm2.54.18a3.555,3.555,0,0,0,.51,2.073,1.682,1.682,0,0,0,1.459.717,1.686,1.686,0,0,0,1.441-.709,3.89,3.89,0,0,0,.519-2.267,3.519,3.519,0,0,0-.519-2.06,1.686,1.686,0,0,0-1.459-.731,1.658,1.658,0,0,0-1.441.726A3.955,3.955,0,0,0-13.764,14.338ZM-3.05,19H-5.6V5.5H-3.05Zm1.7-4.843a5.64,5.64,0,0,1,.545-2.522A3.989,3.989,0,0,1,.76,9.921a4.577,4.577,0,0,1,2.377-.606A4.33,4.33,0,0,1,6.28,10.492a4.727,4.727,0,0,1,1.358,3.2l.018.65a4.97,4.97,0,0,1-1.222,3.511,4.247,4.247,0,0,1-3.278,1.323A4.268,4.268,0,0,1-.127,17.857a5.058,5.058,0,0,1-1.226-3.586Zm2.54.18a3.555,3.555,0,0,0,.51,2.073,1.682,1.682,0,0,0,1.459.717A1.686,1.686,0,0,0,4.6,16.419a3.89,3.89,0,0,0,.519-2.267,3.519,3.519,0,0,0-.519-2.06,1.686,1.686,0,0,0-1.459-.731,1.658,1.658,0,0,0-1.441.726A3.955,3.955,0,0,0,1.187,14.338Zm21.788-6h-3.92V19H16.418V8.339H12.551V6.2H22.975Zm11.549,6.4A4.528,4.528,0,0,1,33,17.989a5.355,5.355,0,0,1-3.625,1.187A4.816,4.816,0,0,1,25.5,17.519a6.793,6.793,0,0,1-1.411-4.548v-.782a7.671,7.671,0,0,1,.65-3.252A4.874,4.874,0,0,1,26.6,6.779a5.207,5.207,0,0,1,2.808-.751,5.217,5.217,0,0,1,3.568,1.187,4.866,4.866,0,0,1,1.564,3.331H31.9a2.673,2.673,0,0,0-.69-1.8,2.555,2.555,0,0,0-1.806-.558,2.24,2.24,0,0,0-1.973.945,5.3,5.3,0,0,0-.672,2.931v.967a5.667,5.667,0,0,0,.628,3.032,2.2,2.2,0,0,0,1.982.958,2.6,2.6,0,0,0,1.824-.558,2.521,2.521,0,0,0,.69-1.727Zm4.368-.246V19H36.255V6.2h4.992a5.776,5.776,0,0,1,2.536.527,3.886,3.886,0,0,1,1.683,1.5,4.178,4.178,0,0,1,.589,2.21,3.674,3.674,0,0,1-1.288,2.966A5.363,5.363,0,0,1,41.2,14.491Zm0-2.136h2.355a2.316,2.316,0,0,0,1.6-.492,1.79,1.79,0,0,0,.549-1.406,2.111,2.111,0,0,0-.554-1.521,2.068,2.068,0,0,0-1.529-.6H38.892ZM48.5,20.1h-1.89L51.319,6.2h1.89ZM57.393,19H54.756V6.2h2.637Zm5.08-4.509V19H59.836V6.2h4.992a5.776,5.776,0,0,1,2.536.527,3.886,3.886,0,0,1,1.683,1.5,4.178,4.178,0,0,1,.589,2.21,3.674,3.674,0,0,1-1.288,2.966,5.363,5.363,0,0,1-3.564,1.085Zm0-2.136h2.355a2.316,2.316,0,0,0,1.6-.492,1.79,1.79,0,0,0,.549-1.406,2.111,2.111,0,0,0-.554-1.521,2.068,2.068,0,0,0-1.529-.6H62.473Z" transform="translate(1117.676 9050)" fill="#12263f"/>
    <path id="Trazado_194498" data-name="Trazado 194498" d="M-49.781-4.509V0h-2.637V-12.8h4.992a5.776,5.776,0,0,1,2.536.527,3.886,3.886,0,0,1,1.683,1.5,4.178,4.178,0,0,1,.589,2.21,3.674,3.674,0,0,1-1.288,2.966A5.363,5.363,0,0,1-47.47-4.509Zm0-2.136h2.355a2.316,2.316,0,0,0,1.6-.492,1.79,1.79,0,0,0,.549-1.406,2.111,2.111,0,0,0-.554-1.521,2.068,2.068,0,0,0-1.529-.6h-2.417Zm14.15-.483a6.9,6.9,0,0,0-.914-.07,1.86,1.86,0,0,0-1.89.976V0h-2.54V-9.51h2.4l.07,1.134a2.354,2.354,0,0,1,2.118-1.31,2.662,2.662,0,0,1,.791.114Zm5.6,7.3a4.668,4.668,0,0,1-3.406-1.283,4.561,4.561,0,0,1-1.314-3.419v-.246A5.745,5.745,0,0,1-34.2-7.334a4.064,4.064,0,0,1,1.569-1.74,4.4,4.4,0,0,1,2.316-.611,3.947,3.947,0,0,1,3.072,1.23,5,5,0,0,1,1.121,3.489v1.037h-6.056a2.36,2.36,0,0,0,.743,1.494,2.245,2.245,0,0,0,1.569.563,2.742,2.742,0,0,0,2.294-1.063l1.248,1.4A3.813,3.813,0,0,1-27.87-.277,5.075,5.075,0,0,1-30.032.176Zm-.29-7.813a1.587,1.587,0,0,0-1.226.512,2.651,2.651,0,0,0-.6,1.466h3.533v-.2a1.891,1.891,0,0,0-.457-1.311A1.638,1.638,0,0,0-30.322-7.638Zm10.793,5.01a.818.818,0,0,0-.461-.734,5.241,5.241,0,0,0-1.481-.479q-3.393-.712-3.393-2.883a2.613,2.613,0,0,1,1.05-2.114,4.237,4.237,0,0,1,2.747-.848,4.56,4.56,0,0,1,2.9.853,2.687,2.687,0,0,1,1.085,2.215h-2.54a1.229,1.229,0,0,0-.352-.9,1.488,1.488,0,0,0-1.1-.356,1.52,1.52,0,0,0-.993.29.916.916,0,0,0-.352.738.783.783,0,0,0,.4.681,4.114,4.114,0,0,0,1.349.448,11.019,11.019,0,0,1,1.6.426A2.628,2.628,0,0,1-17.06-2.733a2.481,2.481,0,0,1-1.116,2.1,4.815,4.815,0,0,1-2.883.8A5.029,5.029,0,0,1-23.181-.25a3.561,3.561,0,0,1-1.455-1.169,2.716,2.716,0,0,1-.527-1.6h2.408a1.326,1.326,0,0,0,.5,1.037,1.987,1.987,0,0,0,1.248.36A1.839,1.839,0,0,0-19.9-1.9.861.861,0,0,0-19.529-2.628Zm8.481,2.8a4.668,4.668,0,0,1-3.406-1.283,4.561,4.561,0,0,1-1.314-3.419v-.246a5.745,5.745,0,0,1,.554-2.562,4.064,4.064,0,0,1,1.569-1.74,4.4,4.4,0,0,1,2.316-.611,3.947,3.947,0,0,1,3.072,1.23A5,5,0,0,1-7.137-4.966v1.037h-6.056a2.36,2.36,0,0,0,.743,1.494,2.245,2.245,0,0,0,1.569.563A2.742,2.742,0,0,0-8.587-2.936l1.248,1.4A3.813,3.813,0,0,1-8.886-.277,5.075,5.075,0,0,1-11.048.176Zm-.29-7.813a1.587,1.587,0,0,0-1.226.512,2.651,2.651,0,0,0-.6,1.466h3.533v-.2a1.891,1.891,0,0,0-.457-1.311A1.638,1.638,0,0,0-11.338-7.638Zm7.98-1.872.079,1.1A3.32,3.32,0,0,1-.545-9.686a2.759,2.759,0,0,1,2.25.888,4.142,4.142,0,0,1,.756,2.654V0H-.079V-6.082A1.648,1.648,0,0,0-.431-7.255,1.574,1.574,0,0,0-1.6-7.62a1.747,1.747,0,0,0-1.608.914V0h-2.54V-9.51ZM7.427-11.848V-9.51H9.053v1.863H7.427V-2.9a1.133,1.133,0,0,0,.2.756,1.015,1.015,0,0,0,.773.229,4.051,4.051,0,0,0,.747-.062V-.053A5.229,5.229,0,0,1,7.611.176a2.425,2.425,0,0,1-2.725-2.7V-7.646H3.5V-9.51H4.887v-2.338ZM15.979,0a2.821,2.821,0,0,1-.255-.853,3.073,3.073,0,0,1-2.4,1.028,3.376,3.376,0,0,1-2.316-.809,2.6,2.6,0,0,1-.918-2.039,2.687,2.687,0,0,1,1.121-2.32,5.529,5.529,0,0,1,3.239-.817h1.169v-.545a1.567,1.567,0,0,0-.338-1.055,1.331,1.331,0,0,0-1.068-.4,1.513,1.513,0,0,0-1.006.308,1.045,1.045,0,0,0-.365.844H10.3a2.551,2.551,0,0,1,.51-1.529,3.37,3.37,0,0,1,1.441-1.1,5.253,5.253,0,0,1,2.092-.4,4.15,4.15,0,0,1,2.791.883,3.09,3.09,0,0,1,1.033,2.483V-2.2a4.546,4.546,0,0,0,.378,2.048V0Zm-2.1-1.767a2.188,2.188,0,0,0,1.037-.25,1.645,1.645,0,0,0,.7-.672V-4.324h-.949q-1.907,0-2.03,1.318l-.009.149a1.017,1.017,0,0,0,.334.782A1.3,1.3,0,0,0,13.878-1.767Zm10.2-.105a1.666,1.666,0,0,0,1.143-.387,1.355,1.355,0,0,0,.457-1.028h2.382a3.258,3.258,0,0,1-.527,1.771A3.48,3.48,0,0,1,26.108-.268a4.442,4.442,0,0,1-1.991.444,4.129,4.129,0,0,1-3.217-1.3A5.13,5.13,0,0,1,19.723-4.7v-.167a5.071,5.071,0,0,1,1.169-3.507A4.08,4.08,0,0,1,24.1-9.686,4,4,0,0,1,26.96-8.67a3.594,3.594,0,0,1,1.094,2.7H25.673a1.745,1.745,0,0,0-.457-1.206,1.524,1.524,0,0,0-1.16-.464,1.53,1.53,0,0,0-1.34.647,3.749,3.749,0,0,0-.453,2.1v.264a3.8,3.8,0,0,0,.448,2.113A1.549,1.549,0,0,0,24.073-1.872ZM32.186,0H29.637V-9.51h2.549Zm-2.7-11.971a1.251,1.251,0,0,1,.382-.94,1.436,1.436,0,0,1,1.042-.369,1.44,1.44,0,0,1,1.037.369,1.244,1.244,0,0,1,.387.94,1.247,1.247,0,0,1-.391.949,1.443,1.443,0,0,1-1.033.369,1.443,1.443,0,0,1-1.033-.369A1.247,1.247,0,0,1,29.487-11.971Zm4.395,7.128a5.64,5.64,0,0,1,.545-2.522A3.989,3.989,0,0,1,36-9.079a4.577,4.577,0,0,1,2.377-.606,4.33,4.33,0,0,1,3.142,1.178,4.727,4.727,0,0,1,1.358,3.2l.018.65a4.97,4.97,0,0,1-1.222,3.511A4.247,4.247,0,0,1,38.391.176a4.268,4.268,0,0,1-3.283-1.318,5.058,5.058,0,0,1-1.226-3.586Zm2.54.18a3.555,3.555,0,0,0,.51,2.073,1.682,1.682,0,0,0,1.459.717,1.686,1.686,0,0,0,1.441-.709,3.89,3.89,0,0,0,.519-2.267,3.519,3.519,0,0,0-.519-2.06,1.686,1.686,0,0,0-1.459-.731,1.658,1.658,0,0,0-1.441.726A3.955,3.955,0,0,0,36.422-4.662ZM38.874-13.5h2.769l-2.435,2.725H37.143Zm7.919,3.99.079,1.1a3.32,3.32,0,0,1,2.733-1.274,2.759,2.759,0,0,1,2.25.888,4.142,4.142,0,0,1,.756,2.654V0h-2.54V-6.082a1.648,1.648,0,0,0-.352-1.173,1.574,1.574,0,0,0-1.169-.365,1.747,1.747,0,0,0-1.608.914V0H44.4V-9.51Z" transform="translate(968.643 9157.883)" fill="#fff"/>
    <path id="Trazado_194499" data-name="Trazado 194499" d="M-19.762-3.357A1.353,1.353,0,0,0-20.29-4.5a6.917,6.917,0,0,0-1.9-.844,13.458,13.458,0,0,1-2.171-.875A3.547,3.547,0,0,1-26.539-9.4a3.09,3.09,0,0,1,.584-1.85,3.812,3.812,0,0,1,1.679-1.27,6.318,6.318,0,0,1,2.457-.457,5.751,5.751,0,0,1,2.443.5,3.891,3.891,0,0,1,1.666,1.4,3.668,3.668,0,0,1,.593,2.057h-2.637a1.726,1.726,0,0,0-.554-1.367,2.276,2.276,0,0,0-1.556-.488,2.432,2.432,0,0,0-1.5.409A1.289,1.289,0,0,0-23.9-9.387a1.235,1.235,0,0,0,.628,1.046,7.1,7.1,0,0,0,1.85.791,7.994,7.994,0,0,1,3.278,1.679,3.343,3.343,0,0,1,1.028,2.5A3.08,3.08,0,0,1-18.374-.769a5.5,5.5,0,0,1-3.384.945,6.534,6.534,0,0,1-2.689-.541A4.256,4.256,0,0,1-26.3-1.846a3.793,3.793,0,0,1-.637-2.18h2.646q0,2.118,2.531,2.118A2.462,2.462,0,0,0-20.29-2.29,1.244,1.244,0,0,0-19.762-3.357Zm8.64,3.533a4.668,4.668,0,0,1-3.406-1.283,4.561,4.561,0,0,1-1.314-3.419v-.246a5.745,5.745,0,0,1,.554-2.562,4.064,4.064,0,0,1,1.569-1.74A4.4,4.4,0,0,1-11.4-9.686a3.947,3.947,0,0,1,3.072,1.23A5,5,0,0,1-7.211-4.966v1.037h-6.056a2.36,2.36,0,0,0,.743,1.494,2.245,2.245,0,0,0,1.569.563A2.742,2.742,0,0,0-8.662-2.936l1.248,1.4A3.813,3.813,0,0,1-8.96-.277,5.075,5.075,0,0,1-11.123.176Zm-.29-7.813a1.587,1.587,0,0,0-1.226.512,2.651,2.651,0,0,0-.6,1.466h3.533v-.2a1.891,1.891,0,0,0-.457-1.311A1.638,1.638,0,0,0-11.413-7.638ZM-.62-2.628a.818.818,0,0,0-.461-.734,5.241,5.241,0,0,0-1.481-.479q-3.393-.712-3.393-2.883A2.613,2.613,0,0,1-4.9-8.837a4.237,4.237,0,0,1,2.747-.848,4.56,4.56,0,0,1,2.9.853A2.687,2.687,0,0,1,1.824-6.618H-.716a1.229,1.229,0,0,0-.352-.9,1.488,1.488,0,0,0-1.1-.356,1.52,1.52,0,0,0-.993.29.916.916,0,0,0-.352.738.783.783,0,0,0,.4.681,4.114,4.114,0,0,0,1.349.448,11.019,11.019,0,0,1,1.6.426A2.628,2.628,0,0,1,1.85-2.733,2.481,2.481,0,0,1,.734-.628a4.815,4.815,0,0,1-2.883.8A5.029,5.029,0,0,1-4.271-.25,3.561,3.561,0,0,1-5.726-1.419a2.716,2.716,0,0,1-.527-1.6h2.408a1.326,1.326,0,0,0,.5,1.037,1.987,1.987,0,0,0,1.248.36A1.839,1.839,0,0,0-.993-1.9.861.861,0,0,0-.62-2.628ZM6.166,0H3.617V-9.51H6.166Zm-2.7-11.971a1.251,1.251,0,0,1,.382-.94,1.436,1.436,0,0,1,1.042-.369,1.44,1.44,0,0,1,1.037.369,1.244,1.244,0,0,1,.387.94,1.247,1.247,0,0,1-.391.949,1.443,1.443,0,0,1-1.033.369,1.443,1.443,0,0,1-1.033-.369A1.247,1.247,0,0,1,3.467-11.971ZM7.862-4.843a5.64,5.64,0,0,1,.545-2.522A3.989,3.989,0,0,1,9.976-9.079a4.577,4.577,0,0,1,2.377-.606A4.33,4.33,0,0,1,15.5-8.508a4.727,4.727,0,0,1,1.358,3.2l.018.65a4.97,4.97,0,0,1-1.222,3.511A4.247,4.247,0,0,1,12.371.176,4.268,4.268,0,0,1,9.088-1.143,5.058,5.058,0,0,1,7.862-4.729Zm2.54.18a3.555,3.555,0,0,0,.51,2.073,1.682,1.682,0,0,0,1.459.717,1.686,1.686,0,0,0,1.441-.709,3.89,3.89,0,0,0,.519-2.267,3.519,3.519,0,0,0-.519-2.06,1.686,1.686,0,0,0-1.459-.731,1.658,1.658,0,0,0-1.441.726A3.955,3.955,0,0,0,10.4-4.662ZM12.854-13.5h2.769l-2.435,2.725H11.123Zm7.919,3.99.079,1.1a3.32,3.32,0,0,1,2.733-1.274,2.759,2.759,0,0,1,2.25.888,4.142,4.142,0,0,1,.756,2.654V0h-2.54V-6.082A1.648,1.648,0,0,0,23.7-7.255a1.574,1.574,0,0,0-1.169-.365,1.747,1.747,0,0,0-1.608.914V0h-2.54V-9.51Z" transform="translate(969.04 9204.938)" fill="#fff"/>
    <path id="Trazado_194500" data-name="Trazado 194500" d="M-33.715-10.661h-3.92V0h-2.637V-10.661h-3.867V-12.8h10.424Zm6.108,3.533a6.9,6.9,0,0,0-.914-.07,1.86,1.86,0,0,0-1.89.976V0h-2.54V-9.51h2.4l.07,1.134a2.354,2.354,0,0,1,2.118-1.31,2.662,2.662,0,0,1,.791.114ZM-21.138,0a2.821,2.821,0,0,1-.255-.853,3.073,3.073,0,0,1-2.4,1.028,3.376,3.376,0,0,1-2.316-.809,2.6,2.6,0,0,1-.918-2.039,2.687,2.687,0,0,1,1.121-2.32,5.529,5.529,0,0,1,3.239-.817H-21.5v-.545a1.567,1.567,0,0,0-.338-1.055A1.331,1.331,0,0,0-22.9-7.8a1.513,1.513,0,0,0-1.006.308,1.045,1.045,0,0,0-.365.844h-2.54a2.551,2.551,0,0,1,.51-1.529,3.37,3.37,0,0,1,1.441-1.1,5.253,5.253,0,0,1,2.092-.4,4.15,4.15,0,0,1,2.791.883,3.09,3.09,0,0,1,1.033,2.483V-2.2a4.546,4.546,0,0,0,.378,2.048V0Zm-2.1-1.767a2.188,2.188,0,0,0,1.037-.25,1.645,1.645,0,0,0,.7-.672V-4.324h-.949q-1.907,0-2.03,1.318l-.009.149a1.017,1.017,0,0,0,.334.782A1.3,1.3,0,0,0-23.238-1.767ZM-14.66-9.51l.079,1.1a3.32,3.32,0,0,1,2.733-1.274A2.759,2.759,0,0,1-9.6-8.8a4.142,4.142,0,0,1,.756,2.654V0h-2.54V-6.082a1.648,1.648,0,0,0-.352-1.173A1.574,1.574,0,0,0-12.9-7.62a1.747,1.747,0,0,0-1.608.914V0h-2.54V-9.51ZM-1.767-2.628a.818.818,0,0,0-.461-.734,5.241,5.241,0,0,0-1.481-.479Q-7.1-4.553-7.1-6.724a2.613,2.613,0,0,1,1.05-2.114A4.237,4.237,0,0,1-3.3-9.686a4.56,4.56,0,0,1,2.9.853A2.687,2.687,0,0,1,.677-6.618h-2.54a1.229,1.229,0,0,0-.352-.9,1.488,1.488,0,0,0-1.1-.356,1.52,1.52,0,0,0-.993.29.916.916,0,0,0-.352.738.783.783,0,0,0,.4.681,4.114,4.114,0,0,0,1.349.448,11.019,11.019,0,0,1,1.6.426A2.628,2.628,0,0,1,.7-2.733,2.481,2.481,0,0,1-.413-.628,4.815,4.815,0,0,1-3.3.176,5.029,5.029,0,0,1-5.418-.25,3.561,3.561,0,0,1-6.873-1.419a2.716,2.716,0,0,1-.527-1.6h2.408a1.326,1.326,0,0,0,.5,1.037,1.987,1.987,0,0,0,1.248.36A1.839,1.839,0,0,0-2.14-1.9.861.861,0,0,0-1.767-2.628ZM10.9-4.667a5.7,5.7,0,0,1-1,3.52A3.2,3.2,0,0,1,7.207.176a2.963,2.963,0,0,1-2.329-1V3.656H2.338V-9.51H4.693l.088.932A2.985,2.985,0,0,1,7.189-9.686a3.22,3.22,0,0,1,2.733,1.3A5.858,5.858,0,0,1,10.9-4.8Zm-2.54-.185A3.743,3.743,0,0,0,7.888-6.9,1.532,1.532,0,0,0,6.521-7.62a1.663,1.663,0,0,0-1.644.914v3.894a1.692,1.692,0,0,0,1.661.94Q8.358-1.872,8.358-4.852Zm3.718.009a5.64,5.64,0,0,1,.545-2.522A3.989,3.989,0,0,1,14.19-9.079a4.577,4.577,0,0,1,2.377-.606,4.33,4.33,0,0,1,3.142,1.178,4.727,4.727,0,0,1,1.358,3.2l.018.65a4.97,4.97,0,0,1-1.222,3.511A4.247,4.247,0,0,1,16.585.176,4.268,4.268,0,0,1,13.3-1.143a5.058,5.058,0,0,1-1.226-3.586Zm2.54.18a3.555,3.555,0,0,0,.51,2.073,1.682,1.682,0,0,0,1.459.717,1.686,1.686,0,0,0,1.441-.709,3.89,3.89,0,0,0,.519-2.267,3.519,3.519,0,0,0-.519-2.06,1.686,1.686,0,0,0-1.459-.731,1.658,1.658,0,0,0-1.441.726A3.955,3.955,0,0,0,14.616-4.662ZM27.993-7.128a6.9,6.9,0,0,0-.914-.07,1.86,1.86,0,0,0-1.89.976V0h-2.54V-9.51h2.4l.07,1.134a2.354,2.354,0,0,1,2.118-1.31,2.662,2.662,0,0,1,.791.114Zm4.7-4.72V-9.51h1.626v1.863H32.7V-2.9a1.133,1.133,0,0,0,.2.756,1.015,1.015,0,0,0,.773.229,4.051,4.051,0,0,0,.747-.062V-.053A5.229,5.229,0,0,1,32.88.176a2.425,2.425,0,0,1-2.725-2.7V-7.646H28.767V-9.51h1.389v-2.338ZM40.113.176a4.668,4.668,0,0,1-3.406-1.283,4.561,4.561,0,0,1-1.314-3.419v-.246a5.745,5.745,0,0,1,.554-2.562,4.064,4.064,0,0,1,1.569-1.74,4.4,4.4,0,0,1,2.316-.611A3.947,3.947,0,0,1,42.9-8.455a5,5,0,0,1,1.121,3.489v1.037H37.969a2.36,2.36,0,0,0,.743,1.494,2.245,2.245,0,0,0,1.569.563,2.742,2.742,0,0,0,2.294-1.063l1.248,1.4A3.813,3.813,0,0,1,42.275-.277,5.075,5.075,0,0,1,40.113.176Zm-.29-7.813a1.587,1.587,0,0,0-1.226.512A2.651,2.651,0,0,0,38-5.66h3.533v-.2a1.891,1.891,0,0,0-.457-1.311A1.638,1.638,0,0,0,39.823-7.638Z" transform="translate(968.824 9251.994)" fill="#fff"/>
    <path id="Trazado_194509" data-name="Trazado 194509" d="M-33.715-10.661h-3.92V0h-2.637V-10.661h-3.867V-12.8h10.424Zm6.108,3.533a6.9,6.9,0,0,0-.914-.07,1.86,1.86,0,0,0-1.89.976V0h-2.54V-9.51h2.4l.07,1.134a2.354,2.354,0,0,1,2.118-1.31,2.662,2.662,0,0,1,.791.114ZM-21.138,0a2.821,2.821,0,0,1-.255-.853,3.073,3.073,0,0,1-2.4,1.028,3.376,3.376,0,0,1-2.316-.809,2.6,2.6,0,0,1-.918-2.039,2.687,2.687,0,0,1,1.121-2.32,5.529,5.529,0,0,1,3.239-.817H-21.5v-.545a1.567,1.567,0,0,0-.338-1.055A1.331,1.331,0,0,0-22.9-7.8a1.513,1.513,0,0,0-1.006.308,1.045,1.045,0,0,0-.365.844h-2.54a2.551,2.551,0,0,1,.51-1.529,3.37,3.37,0,0,1,1.441-1.1,5.253,5.253,0,0,1,2.092-.4,4.15,4.15,0,0,1,2.791.883,3.09,3.09,0,0,1,1.033,2.483V-2.2a4.546,4.546,0,0,0,.378,2.048V0Zm-2.1-1.767a2.188,2.188,0,0,0,1.037-.25,1.645,1.645,0,0,0,.7-.672V-4.324h-.949q-1.907,0-2.03,1.318l-.009.149a1.017,1.017,0,0,0,.334.782A1.3,1.3,0,0,0-23.238-1.767ZM-14.66-9.51l.079,1.1a3.32,3.32,0,0,1,2.733-1.274A2.759,2.759,0,0,1-9.6-8.8a4.142,4.142,0,0,1,.756,2.654V0h-2.54V-6.082a1.648,1.648,0,0,0-.352-1.173A1.574,1.574,0,0,0-12.9-7.62a1.747,1.747,0,0,0-1.608.914V0h-2.54V-9.51ZM-1.767-2.628a.818.818,0,0,0-.461-.734,5.241,5.241,0,0,0-1.481-.479Q-7.1-4.553-7.1-6.724a2.613,2.613,0,0,1,1.05-2.114A4.237,4.237,0,0,1-3.3-9.686a4.56,4.56,0,0,1,2.9.853A2.687,2.687,0,0,1,.677-6.618h-2.54a1.229,1.229,0,0,0-.352-.9,1.488,1.488,0,0,0-1.1-.356,1.52,1.52,0,0,0-.993.29.916.916,0,0,0-.352.738.783.783,0,0,0,.4.681,4.114,4.114,0,0,0,1.349.448,11.019,11.019,0,0,1,1.6.426A2.628,2.628,0,0,1,.7-2.733,2.481,2.481,0,0,1-.413-.628,4.815,4.815,0,0,1-3.3.176,5.029,5.029,0,0,1-5.418-.25,3.561,3.561,0,0,1-6.873-1.419a2.716,2.716,0,0,1-.527-1.6h2.408a1.326,1.326,0,0,0,.5,1.037,1.987,1.987,0,0,0,1.248.36A1.839,1.839,0,0,0-2.14-1.9.861.861,0,0,0-1.767-2.628ZM10.9-4.667a5.7,5.7,0,0,1-1,3.52A3.2,3.2,0,0,1,7.207.176a2.963,2.963,0,0,1-2.329-1V3.656H2.338V-9.51H4.693l.088.932A2.985,2.985,0,0,1,7.189-9.686a3.22,3.22,0,0,1,2.733,1.3A5.858,5.858,0,0,1,10.9-4.8Zm-2.54-.185A3.743,3.743,0,0,0,7.888-6.9,1.532,1.532,0,0,0,6.521-7.62a1.663,1.663,0,0,0-1.644.914v3.894a1.692,1.692,0,0,0,1.661.94Q8.358-1.872,8.358-4.852Zm3.718.009a5.64,5.64,0,0,1,.545-2.522A3.989,3.989,0,0,1,14.19-9.079a4.577,4.577,0,0,1,2.377-.606,4.33,4.33,0,0,1,3.142,1.178,4.727,4.727,0,0,1,1.358,3.2l.018.65a4.97,4.97,0,0,1-1.222,3.511A4.247,4.247,0,0,1,16.585.176,4.268,4.268,0,0,1,13.3-1.143a5.058,5.058,0,0,1-1.226-3.586Zm2.54.18a3.555,3.555,0,0,0,.51,2.073,1.682,1.682,0,0,0,1.459.717,1.686,1.686,0,0,0,1.441-.709,3.89,3.89,0,0,0,.519-2.267,3.519,3.519,0,0,0-.519-2.06,1.686,1.686,0,0,0-1.459-.731,1.658,1.658,0,0,0-1.441.726A3.955,3.955,0,0,0,14.616-4.662ZM27.993-7.128a6.9,6.9,0,0,0-.914-.07,1.86,1.86,0,0,0-1.89.976V0h-2.54V-9.51h2.4l.07,1.134a2.354,2.354,0,0,1,2.118-1.31,2.662,2.662,0,0,1,.791.114Zm4.7-4.72V-9.51h1.626v1.863H32.7V-2.9a1.133,1.133,0,0,0,.2.756,1.015,1.015,0,0,0,.773.229,4.051,4.051,0,0,0,.747-.062V-.053A5.229,5.229,0,0,1,32.88.176a2.425,2.425,0,0,1-2.725-2.7V-7.646H28.767V-9.51h1.389v-2.338ZM40.113.176a4.668,4.668,0,0,1-3.406-1.283,4.561,4.561,0,0,1-1.314-3.419v-.246a5.745,5.745,0,0,1,.554-2.562,4.064,4.064,0,0,1,1.569-1.74,4.4,4.4,0,0,1,2.316-.611A3.947,3.947,0,0,1,42.9-8.455a5,5,0,0,1,1.121,3.489v1.037H37.969a2.36,2.36,0,0,0,.743,1.494,2.245,2.245,0,0,0,1.569.563,2.742,2.742,0,0,0,2.294-1.063l1.248,1.4A3.813,3.813,0,0,1,42.275-.277,5.075,5.075,0,0,1,40.113.176Zm-.29-7.813a1.587,1.587,0,0,0-1.226.512A2.651,2.651,0,0,0,38-5.66h3.533v-.2a1.891,1.891,0,0,0-.457-1.311A1.638,1.638,0,0,0,39.823-7.638Z" transform="translate(1262.676 9252)" fill="#fff"/>
    <path id="Trazado_194501" data-name="Trazado 194501" d="M-9.8-4.685h-2.1V0h-2.637V-12.8h4.755a5.375,5.375,0,0,1,3.5,1.011A3.488,3.488,0,0,1-5.054-8.93a3.937,3.937,0,0,1-.567,2.184A3.866,3.866,0,0,1-7.339-5.353L-4.57-.123V0H-7.4ZM-11.9-6.82h2.127a2.178,2.178,0,0,0,1.538-.505A1.806,1.806,0,0,0-7.69-8.719,1.933,1.933,0,0,0-8.2-10.143a2.137,2.137,0,0,0-1.578-.519H-11.9ZM1.16.176A4.668,4.668,0,0,1-2.246-1.107,4.561,4.561,0,0,1-3.56-4.526v-.246a5.745,5.745,0,0,1,.554-2.562,4.064,4.064,0,0,1,1.569-1.74A4.4,4.4,0,0,1,.879-9.686a3.947,3.947,0,0,1,3.072,1.23A5,5,0,0,1,5.071-4.966v1.037H-.984A2.36,2.36,0,0,0-.242-2.435a2.245,2.245,0,0,0,1.569.563A2.742,2.742,0,0,0,3.621-2.936l1.248,1.4A3.813,3.813,0,0,1,3.322-.277,5.075,5.075,0,0,1,1.16.176ZM.87-7.638a1.587,1.587,0,0,0-1.226.512,2.651,2.651,0,0,0-.6,1.466H2.575v-.2a1.891,1.891,0,0,0-.457-1.311A1.638,1.638,0,0,0,.87-7.638ZM6.117-4.825a5.731,5.731,0,0,1,1-3.542A3.237,3.237,0,0,1,9.844-9.686a2.913,2.913,0,0,1,2.294,1.037V-13.5h2.549V0H12.393L12.27-1.011A2.989,2.989,0,0,1,9.826.176,3.228,3.228,0,0,1,7.132-1.147,5.916,5.916,0,0,1,6.117-4.825Zm2.54.189a3.754,3.754,0,0,0,.466,2.051,1.517,1.517,0,0,0,1.354.713,1.7,1.7,0,0,0,1.661-.995V-6.625a1.675,1.675,0,0,0-1.644-.995Q8.657-7.62,8.657-4.636Z" transform="translate(969.517 9299.049)" fill="#fff"/>
    <path id="Trazado_194510" data-name="Trazado 194510" d="M-9.8-4.685h-2.1V0h-2.637V-12.8h4.755a5.375,5.375,0,0,1,3.5,1.011A3.488,3.488,0,0,1-5.054-8.93a3.937,3.937,0,0,1-.567,2.184A3.866,3.866,0,0,1-7.339-5.353L-4.57-.123V0H-7.4ZM-11.9-6.82h2.127a2.178,2.178,0,0,0,1.538-.505A1.806,1.806,0,0,0-7.69-8.719,1.933,1.933,0,0,0-8.2-10.143a2.137,2.137,0,0,0-1.578-.519H-11.9ZM1.16.176A4.668,4.668,0,0,1-2.246-1.107,4.561,4.561,0,0,1-3.56-4.526v-.246a5.745,5.745,0,0,1,.554-2.562,4.064,4.064,0,0,1,1.569-1.74A4.4,4.4,0,0,1,.879-9.686a3.947,3.947,0,0,1,3.072,1.23A5,5,0,0,1,5.071-4.966v1.037H-.984A2.36,2.36,0,0,0-.242-2.435a2.245,2.245,0,0,0,1.569.563A2.742,2.742,0,0,0,3.621-2.936l1.248,1.4A3.813,3.813,0,0,1,3.322-.277,5.075,5.075,0,0,1,1.16.176ZM.87-7.638a1.587,1.587,0,0,0-1.226.512,2.651,2.651,0,0,0-.6,1.466H2.575v-.2a1.891,1.891,0,0,0-.457-1.311A1.638,1.638,0,0,0,.87-7.638ZM6.117-4.825a5.731,5.731,0,0,1,1-3.542A3.237,3.237,0,0,1,9.844-9.686a2.913,2.913,0,0,1,2.294,1.037V-13.5h2.549V0H12.393L12.27-1.011A2.989,2.989,0,0,1,9.826.176,3.228,3.228,0,0,1,7.132-1.147,5.916,5.916,0,0,1,6.117-4.825Zm2.54.189a3.754,3.754,0,0,0,.466,2.051,1.517,1.517,0,0,0,1.354.713,1.7,1.7,0,0,0,1.661-.995V-6.625a1.675,1.675,0,0,0-1.644-.995Q8.657-7.62,8.657-4.636Z" transform="translate(1263.676 9299)" fill="#fff"/>
    <path id="Trazado_194503" data-name="Trazado 194503" d="M-15.086-5.229h-5.062V0h-2.637V-12.8h8.332v2.136h-5.7v3.3h5.063ZM-10.349,0h-2.54V-9.51h2.54ZM-11.1-13.368h2.769l-2.435,2.725h-2.065ZM-3.01-2.628a.818.818,0,0,0-.461-.734,5.241,5.241,0,0,0-1.481-.479q-3.393-.712-3.393-2.883a2.613,2.613,0,0,1,1.05-2.114,4.237,4.237,0,0,1,2.747-.848,4.56,4.56,0,0,1,2.9.853A2.687,2.687,0,0,1-.567-6.618h-2.54a1.229,1.229,0,0,0-.352-.9,1.488,1.488,0,0,0-1.1-.356,1.52,1.52,0,0,0-.993.29.916.916,0,0,0-.352.738.783.783,0,0,0,.4.681,4.114,4.114,0,0,0,1.349.448,11.019,11.019,0,0,1,1.6.426A2.628,2.628,0,0,1-.541-2.733a2.481,2.481,0,0,1-1.116,2.1,4.815,4.815,0,0,1-2.883.8A5.029,5.029,0,0,1-6.662-.25,3.561,3.561,0,0,1-8.117-1.419a2.716,2.716,0,0,1-.527-1.6h2.408a1.326,1.326,0,0,0,.5,1.037,1.987,1.987,0,0,0,1.248.36,1.839,1.839,0,0,0,1.1-.277A.861.861,0,0,0-3.01-2.628ZM3.775,0H1.226V-9.51H3.775Zm-2.7-11.971a1.251,1.251,0,0,1,.382-.94A1.436,1.436,0,0,1,2.5-13.28a1.44,1.44,0,0,1,1.037.369,1.244,1.244,0,0,1,.387.94,1.247,1.247,0,0,1-.391.949,1.443,1.443,0,0,1-1.033.369,1.443,1.443,0,0,1-1.033-.369A1.247,1.247,0,0,1,1.077-11.971Zm8.745,10.1a1.666,1.666,0,0,0,1.143-.387,1.355,1.355,0,0,0,.457-1.028H13.8a3.258,3.258,0,0,1-.527,1.771A3.48,3.48,0,0,1,11.856-.268,4.442,4.442,0,0,1,9.866.176a4.129,4.129,0,0,1-3.217-1.3A5.13,5.13,0,0,1,5.471-4.7v-.167A5.071,5.071,0,0,1,6.64-8.376a4.08,4.08,0,0,1,3.208-1.31A4,4,0,0,1,12.709-8.67a3.594,3.594,0,0,1,1.094,2.7H11.421a1.745,1.745,0,0,0-.457-1.206A1.524,1.524,0,0,0,9.8-7.638a1.53,1.53,0,0,0-1.34.647,3.749,3.749,0,0,0-.453,2.1v.264a3.8,3.8,0,0,0,.448,2.113A1.549,1.549,0,0,0,9.822-1.872ZM20.764,0a2.821,2.821,0,0,1-.255-.853A3.073,3.073,0,0,1,18.11.176a3.376,3.376,0,0,1-2.316-.809,2.6,2.6,0,0,1-.918-2.039A2.687,2.687,0,0,1,16-4.992a5.529,5.529,0,0,1,3.239-.817H20.4v-.545a1.567,1.567,0,0,0-.338-1.055A1.331,1.331,0,0,0,19-7.8a1.513,1.513,0,0,0-1.006.308,1.045,1.045,0,0,0-.365.844h-2.54a2.551,2.551,0,0,1,.51-1.529,3.37,3.37,0,0,1,1.441-1.1,5.253,5.253,0,0,1,2.092-.4A4.15,4.15,0,0,1,21.92-8.8a3.09,3.09,0,0,1,1.033,2.483V-2.2a4.546,4.546,0,0,0,.378,2.048V0Zm-2.1-1.767a2.188,2.188,0,0,0,1.037-.25,1.645,1.645,0,0,0,.7-.672V-4.324h-.949q-1.907,0-2.03,1.318l-.009.149a1.017,1.017,0,0,0,.334.782A1.3,1.3,0,0,0,18.664-1.767Z" transform="translate(969.483 9393.16)" fill="#fff"/>
    <g transform="matrix(1, 0, 0, 1, 883.69, 9036.5)" filter="url(#Rectángulo_44502)">
      <g id="Rectángulo_44502-2" data-name="Rectángulo 44502" transform="translate(9 283.42)" stroke="#12263f" stroke-width="1" fill="url(#linear-gradient)">
        <rect width="153.791" height="39.022" rx="5" stroke="none"/>
        <rect x="0.5" y="0.5" width="152.791" height="38.022" rx="4.5" fill="none"/>
      </g>
    </g>
    <g transform="matrix(1, 0, 0, 1, 883.69, 9036.5)" filter="url(#Rectángulo_44510)">
      <rect id="Rectángulo_44510-2" data-name="Rectángulo 44510" width="154" height="86" rx="5" transform="translate(302.99 283.5)" fill="url(#linear-gradient-2)"/>
    </g>
    <path id="Trazado_194502" data-name="Trazado 194502" d="M-54.971-5.546h-5.062v3.428h5.941V0H-62.67V-12.8h8.561v2.136h-5.924v3.05h5.063Zm4.6-3.964.079,1.1a3.32,3.32,0,0,1,2.733-1.274,2.759,2.759,0,0,1,2.25.888,4.142,4.142,0,0,1,.756,2.654V0H-47.1V-6.082a1.648,1.648,0,0,0-.352-1.173,1.574,1.574,0,0,0-1.169-.365,1.747,1.747,0,0,0-1.608.914V0h-2.54V-9.51ZM-39.951,0H-42.5V-13.5h2.549Zm7.6,0A2.821,2.821,0,0,1-32.6-.853,3.073,3.073,0,0,1-35,.176a3.376,3.376,0,0,1-2.316-.809,2.6,2.6,0,0,1-.918-2.039,2.687,2.687,0,0,1,1.121-2.32,5.529,5.529,0,0,1,3.239-.817h1.169v-.545a1.567,1.567,0,0,0-.338-1.055,1.331,1.331,0,0,0-1.068-.4,1.513,1.513,0,0,0-1.006.308,1.045,1.045,0,0,0-.365.844h-2.54a2.551,2.551,0,0,1,.51-1.529,3.37,3.37,0,0,1,1.441-1.1,5.253,5.253,0,0,1,2.092-.4,4.15,4.15,0,0,1,2.791.883A3.09,3.09,0,0,1-30.16-6.319V-2.2a4.546,4.546,0,0,0,.378,2.048V0Zm-2.1-1.767a2.188,2.188,0,0,0,1.037-.25,1.645,1.645,0,0,0,.7-.672V-4.324h-.949q-1.907,0-2.03,1.318l-.009.149a1.017,1.017,0,0,0,.334.782A1.3,1.3,0,0,0-34.449-1.767Zm10.2-.105a1.666,1.666,0,0,0,1.143-.387,1.355,1.355,0,0,0,.457-1.028h2.382A3.258,3.258,0,0,1-20.8-1.516,3.48,3.48,0,0,1-22.219-.268a4.442,4.442,0,0,1-1.991.444,4.129,4.129,0,0,1-3.217-1.3A5.13,5.13,0,0,1-28.6-4.7v-.167a5.071,5.071,0,0,1,1.169-3.507,4.08,4.08,0,0,1,3.208-1.31A4,4,0,0,1-21.366-8.67a3.594,3.594,0,0,1,1.094,2.7h-2.382a1.745,1.745,0,0,0-.457-1.206,1.524,1.524,0,0,0-1.16-.464,1.53,1.53,0,0,0-1.34.647,3.749,3.749,0,0,0-.453,2.1v.264a3.8,3.8,0,0,0,.448,2.113A1.549,1.549,0,0,0-24.253-1.872ZM-14.445.176a4.668,4.668,0,0,1-3.406-1.283,4.561,4.561,0,0,1-1.314-3.419v-.246a5.745,5.745,0,0,1,.554-2.562,4.064,4.064,0,0,1,1.569-1.74,4.4,4.4,0,0,1,2.316-.611,3.947,3.947,0,0,1,3.072,1.23,5,5,0,0,1,1.121,3.489v1.037h-6.056a2.36,2.36,0,0,0,.743,1.494,2.245,2.245,0,0,0,1.569.563,2.742,2.742,0,0,0,2.294-1.063l1.248,1.4A3.813,3.813,0,0,1-12.283-.277,5.075,5.075,0,0,1-14.445.176Zm-.29-7.813a1.587,1.587,0,0,0-1.226.512,2.651,2.651,0,0,0-.6,1.466h3.533v-.2a1.891,1.891,0,0,0-.457-1.311A1.638,1.638,0,0,0-14.735-7.638Zm9.729,2.813a5.731,5.731,0,0,1,1-3.542A3.237,3.237,0,0,1-1.279-9.686,2.913,2.913,0,0,1,1.015-8.648V-13.5H3.564V0H1.27L1.147-1.011A2.989,2.989,0,0,1-1.3.176,3.228,3.228,0,0,1-3.99-1.147,5.916,5.916,0,0,1-5.005-4.825Zm2.54.189A3.754,3.754,0,0,0-2-2.585a1.517,1.517,0,0,0,1.354.713,1.7,1.7,0,0,0,1.661-.995V-6.625A1.675,1.675,0,0,0-.628-7.62Q-2.465-7.62-2.465-4.636ZM9.91.176A4.668,4.668,0,0,1,6.5-1.107,4.561,4.561,0,0,1,5.19-4.526v-.246a5.745,5.745,0,0,1,.554-2.562,4.064,4.064,0,0,1,1.569-1.74,4.4,4.4,0,0,1,2.316-.611A3.947,3.947,0,0,1,12.7-8.455a5,5,0,0,1,1.121,3.489v1.037H7.765a2.36,2.36,0,0,0,.743,1.494,2.245,2.245,0,0,0,1.569.563,2.742,2.742,0,0,0,2.294-1.063l1.248,1.4A3.813,3.813,0,0,1,12.072-.277,5.075,5.075,0,0,1,9.91.176ZM9.62-7.638a1.587,1.587,0,0,0-1.226.512,2.651,2.651,0,0,0-.6,1.466h3.533v-.2a1.891,1.891,0,0,0-.457-1.311A1.638,1.638,0,0,0,9.62-7.638Zm9.729,2.813a5.731,5.731,0,0,1,1-3.542,3.237,3.237,0,0,1,2.729-1.318A2.913,2.913,0,0,1,25.37-8.648V-13.5h2.549V0H25.625L25.5-1.011A2.989,2.989,0,0,1,23.058.176a3.228,3.228,0,0,1-2.694-1.323A5.916,5.916,0,0,1,19.349-4.825Zm2.54.189a3.754,3.754,0,0,0,.466,2.051,1.517,1.517,0,0,0,1.354.713,1.7,1.7,0,0,0,1.661-.995V-6.625a1.675,1.675,0,0,0-1.644-.995Q21.889-7.62,21.889-4.636ZM35.4,0a2.821,2.821,0,0,1-.255-.853,3.073,3.073,0,0,1-2.4,1.028,3.376,3.376,0,0,1-2.316-.809,2.6,2.6,0,0,1-.918-2.039,2.687,2.687,0,0,1,1.121-2.32,5.529,5.529,0,0,1,3.239-.817h1.169v-.545A1.567,1.567,0,0,0,34.7-7.409a1.331,1.331,0,0,0-1.068-.4,1.513,1.513,0,0,0-1.006.308,1.045,1.045,0,0,0-.365.844H29.72a2.551,2.551,0,0,1,.51-1.529,3.37,3.37,0,0,1,1.441-1.1,5.253,5.253,0,0,1,2.092-.4,4.15,4.15,0,0,1,2.791.883,3.09,3.09,0,0,1,1.033,2.483V-2.2a4.546,4.546,0,0,0,.378,2.048V0ZM33.3-1.767a2.188,2.188,0,0,0,1.037-.25,1.645,1.645,0,0,0,.7-.672V-4.324h-.949q-1.907,0-2.03,1.318l-.009.149a1.017,1.017,0,0,0,.334.782A1.3,1.3,0,0,0,33.3-1.767Zm9.281-10.081V-9.51H44.2v1.863H42.579V-2.9a1.133,1.133,0,0,0,.2.756,1.015,1.015,0,0,0,.773.229,4.051,4.051,0,0,0,.747-.062V-.053a5.229,5.229,0,0,1-1.538.229,2.425,2.425,0,0,1-2.725-2.7V-7.646H38.65V-9.51h1.389v-2.338Zm2.382,7a5.64,5.64,0,0,1,.545-2.522,3.989,3.989,0,0,1,1.569-1.714,4.577,4.577,0,0,1,2.377-.606,4.33,4.33,0,0,1,3.142,1.178,4.727,4.727,0,0,1,1.358,3.2l.018.65a4.97,4.97,0,0,1-1.222,3.511A4.247,4.247,0,0,1,49.469.176a4.268,4.268,0,0,1-3.283-1.318A5.058,5.058,0,0,1,44.96-4.729Zm2.54.18a3.555,3.555,0,0,0,.51,2.073,1.682,1.682,0,0,0,1.459.717,1.686,1.686,0,0,0,1.441-.709,3.89,3.89,0,0,0,.519-2.267,3.519,3.519,0,0,0-.519-2.06,1.686,1.686,0,0,0-1.459-.731,1.658,1.658,0,0,0-1.441.726A3.955,3.955,0,0,0,47.5-4.662ZM60.684-2.628a.818.818,0,0,0-.461-.734,5.241,5.241,0,0,0-1.481-.479q-3.393-.712-3.393-2.883A2.613,2.613,0,0,1,56.4-8.837a4.237,4.237,0,0,1,2.747-.848,4.56,4.56,0,0,1,2.9.853,2.687,2.687,0,0,1,1.085,2.215h-2.54a1.229,1.229,0,0,0-.352-.9,1.488,1.488,0,0,0-1.1-.356,1.52,1.52,0,0,0-.993.29.916.916,0,0,0-.352.738.783.783,0,0,0,.4.681,4.114,4.114,0,0,0,1.349.448,11.019,11.019,0,0,1,1.6.426,2.628,2.628,0,0,1,2.013,2.558,2.481,2.481,0,0,1-1.116,2.1,4.815,4.815,0,0,1-2.883.8A5.029,5.029,0,0,1,57.032-.25a3.561,3.561,0,0,1-1.455-1.169,2.716,2.716,0,0,1-.527-1.6h2.408a1.326,1.326,0,0,0,.5,1.037,1.987,1.987,0,0,0,1.248.36,1.839,1.839,0,0,0,1.1-.277A.861.861,0,0,0,60.684-2.628Z" transform="translate(968.166 9346.104)" fill="#fff"/>
    <path id="Trazado_194511" data-name="Trazado 194511" d="M-54.971-5.546h-5.062v3.428h5.941V0H-62.67V-12.8h8.561v2.136h-5.924v3.05h5.063Zm4.6-3.964.079,1.1a3.32,3.32,0,0,1,2.733-1.274,2.759,2.759,0,0,1,2.25.888,4.142,4.142,0,0,1,.756,2.654V0H-47.1V-6.082a1.648,1.648,0,0,0-.352-1.173,1.574,1.574,0,0,0-1.169-.365,1.747,1.747,0,0,0-1.608.914V0h-2.54V-9.51ZM-39.951,0H-42.5V-13.5h2.549Zm7.6,0A2.821,2.821,0,0,1-32.6-.853,3.073,3.073,0,0,1-35,.176a3.376,3.376,0,0,1-2.316-.809,2.6,2.6,0,0,1-.918-2.039,2.687,2.687,0,0,1,1.121-2.32,5.529,5.529,0,0,1,3.239-.817h1.169v-.545a1.567,1.567,0,0,0-.338-1.055,1.331,1.331,0,0,0-1.068-.4,1.513,1.513,0,0,0-1.006.308,1.045,1.045,0,0,0-.365.844h-2.54a2.551,2.551,0,0,1,.51-1.529,3.37,3.37,0,0,1,1.441-1.1,5.253,5.253,0,0,1,2.092-.4,4.15,4.15,0,0,1,2.791.883A3.09,3.09,0,0,1-30.16-6.319V-2.2a4.546,4.546,0,0,0,.378,2.048V0Zm-2.1-1.767a2.188,2.188,0,0,0,1.037-.25,1.645,1.645,0,0,0,.7-.672V-4.324h-.949q-1.907,0-2.03,1.318l-.009.149a1.017,1.017,0,0,0,.334.782A1.3,1.3,0,0,0-34.449-1.767Zm10.2-.105a1.666,1.666,0,0,0,1.143-.387,1.355,1.355,0,0,0,.457-1.028h2.382A3.258,3.258,0,0,1-20.8-1.516,3.48,3.48,0,0,1-22.219-.268a4.442,4.442,0,0,1-1.991.444,4.129,4.129,0,0,1-3.217-1.3A5.13,5.13,0,0,1-28.6-4.7v-.167a5.071,5.071,0,0,1,1.169-3.507,4.08,4.08,0,0,1,3.208-1.31A4,4,0,0,1-21.366-8.67a3.594,3.594,0,0,1,1.094,2.7h-2.382a1.745,1.745,0,0,0-.457-1.206,1.524,1.524,0,0,0-1.16-.464,1.53,1.53,0,0,0-1.34.647,3.749,3.749,0,0,0-.453,2.1v.264a3.8,3.8,0,0,0,.448,2.113A1.549,1.549,0,0,0-24.253-1.872ZM-14.445.176a4.668,4.668,0,0,1-3.406-1.283,4.561,4.561,0,0,1-1.314-3.419v-.246a5.745,5.745,0,0,1,.554-2.562,4.064,4.064,0,0,1,1.569-1.74,4.4,4.4,0,0,1,2.316-.611,3.947,3.947,0,0,1,3.072,1.23,5,5,0,0,1,1.121,3.489v1.037h-6.056a2.36,2.36,0,0,0,.743,1.494,2.245,2.245,0,0,0,1.569.563,2.742,2.742,0,0,0,2.294-1.063l1.248,1.4A3.813,3.813,0,0,1-12.283-.277,5.075,5.075,0,0,1-14.445.176Zm-.29-7.813a1.587,1.587,0,0,0-1.226.512,2.651,2.651,0,0,0-.6,1.466h3.533v-.2a1.891,1.891,0,0,0-.457-1.311A1.638,1.638,0,0,0-14.735-7.638Zm9.729,2.813a5.731,5.731,0,0,1,1-3.542A3.237,3.237,0,0,1-1.279-9.686,2.913,2.913,0,0,1,1.015-8.648V-13.5H3.564V0H1.27L1.147-1.011A2.989,2.989,0,0,1-1.3.176,3.228,3.228,0,0,1-3.99-1.147,5.916,5.916,0,0,1-5.005-4.825Zm2.54.189A3.754,3.754,0,0,0-2-2.585a1.517,1.517,0,0,0,1.354.713,1.7,1.7,0,0,0,1.661-.995V-6.625A1.675,1.675,0,0,0-.628-7.62Q-2.465-7.62-2.465-4.636ZM9.91.176A4.668,4.668,0,0,1,6.5-1.107,4.561,4.561,0,0,1,5.19-4.526v-.246a5.745,5.745,0,0,1,.554-2.562,4.064,4.064,0,0,1,1.569-1.74,4.4,4.4,0,0,1,2.316-.611A3.947,3.947,0,0,1,12.7-8.455a5,5,0,0,1,1.121,3.489v1.037H7.765a2.36,2.36,0,0,0,.743,1.494,2.245,2.245,0,0,0,1.569.563,2.742,2.742,0,0,0,2.294-1.063l1.248,1.4A3.813,3.813,0,0,1,12.072-.277,5.075,5.075,0,0,1,9.91.176ZM9.62-7.638a1.587,1.587,0,0,0-1.226.512,2.651,2.651,0,0,0-.6,1.466h3.533v-.2a1.891,1.891,0,0,0-.457-1.311A1.638,1.638,0,0,0,9.62-7.638Zm9.729,2.813a5.731,5.731,0,0,1,1-3.542,3.237,3.237,0,0,1,2.729-1.318A2.913,2.913,0,0,1,25.37-8.648V-13.5h2.549V0H25.625L25.5-1.011A2.989,2.989,0,0,1,23.058.176a3.228,3.228,0,0,1-2.694-1.323A5.916,5.916,0,0,1,19.349-4.825Zm2.54.189a3.754,3.754,0,0,0,.466,2.051,1.517,1.517,0,0,0,1.354.713,1.7,1.7,0,0,0,1.661-.995V-6.625a1.675,1.675,0,0,0-1.644-.995Q21.889-7.62,21.889-4.636ZM35.4,0a2.821,2.821,0,0,1-.255-.853,3.073,3.073,0,0,1-2.4,1.028,3.376,3.376,0,0,1-2.316-.809,2.6,2.6,0,0,1-.918-2.039,2.687,2.687,0,0,1,1.121-2.32,5.529,5.529,0,0,1,3.239-.817h1.169v-.545A1.567,1.567,0,0,0,34.7-7.409a1.331,1.331,0,0,0-1.068-.4,1.513,1.513,0,0,0-1.006.308,1.045,1.045,0,0,0-.365.844H29.72a2.551,2.551,0,0,1,.51-1.529,3.37,3.37,0,0,1,1.441-1.1,5.253,5.253,0,0,1,2.092-.4,4.15,4.15,0,0,1,2.791.883,3.09,3.09,0,0,1,1.033,2.483V-2.2a4.546,4.546,0,0,0,.378,2.048V0ZM33.3-1.767a2.188,2.188,0,0,0,1.037-.25,1.645,1.645,0,0,0,.7-.672V-4.324h-.949q-1.907,0-2.03,1.318l-.009.149a1.017,1.017,0,0,0,.334.782A1.3,1.3,0,0,0,33.3-1.767Zm9.281-10.081V-9.51H44.2v1.863H42.579V-2.9a1.133,1.133,0,0,0,.2.756,1.015,1.015,0,0,0,.773.229,4.051,4.051,0,0,0,.747-.062V-.053a5.229,5.229,0,0,1-1.538.229,2.425,2.425,0,0,1-2.725-2.7V-7.646H38.65V-9.51h1.389v-2.338Zm2.382,7a5.64,5.64,0,0,1,.545-2.522,3.989,3.989,0,0,1,1.569-1.714,4.577,4.577,0,0,1,2.377-.606,4.33,4.33,0,0,1,3.142,1.178,4.727,4.727,0,0,1,1.358,3.2l.018.65a4.97,4.97,0,0,1-1.222,3.511A4.247,4.247,0,0,1,49.469.176a4.268,4.268,0,0,1-3.283-1.318A5.058,5.058,0,0,1,44.96-4.729Zm2.54.18a3.555,3.555,0,0,0,.51,2.073,1.682,1.682,0,0,0,1.459.717,1.686,1.686,0,0,0,1.441-.709,3.89,3.89,0,0,0,.519-2.267,3.519,3.519,0,0,0-.519-2.06,1.686,1.686,0,0,0-1.459-.731,1.658,1.658,0,0,0-1.441.726A3.955,3.955,0,0,0,47.5-4.662ZM60.684-2.628a.818.818,0,0,0-.461-.734,5.241,5.241,0,0,0-1.481-.479q-3.393-.712-3.393-2.883A2.613,2.613,0,0,1,56.4-8.837a4.237,4.237,0,0,1,2.747-.848,4.56,4.56,0,0,1,2.9.853,2.687,2.687,0,0,1,1.085,2.215h-2.54a1.229,1.229,0,0,0-.352-.9,1.488,1.488,0,0,0-1.1-.356,1.52,1.52,0,0,0-.993.29.916.916,0,0,0-.352.738.783.783,0,0,0,.4.681,4.114,4.114,0,0,0,1.349.448,11.019,11.019,0,0,1,1.6.426,2.628,2.628,0,0,1,2.013,2.558,2.481,2.481,0,0,1-1.116,2.1,4.815,4.815,0,0,1-2.883.8A5.029,5.029,0,0,1,57.032-.25a3.561,3.561,0,0,1-1.455-1.169,2.716,2.716,0,0,1-.527-1.6h2.408a1.326,1.326,0,0,0,.5,1.037,1.987,1.987,0,0,0,1.248.36,1.839,1.839,0,0,0,1.1-.277A.861.861,0,0,0,60.684-2.628Z" transform="translate(1261.676 9369)" fill="#fff"/>
    <path id="Trazado_194505" data-name="Trazado 194505" d="M-19.186-8.246h-2.971V0h-1.212V-8.246h-2.964v-1h7.147Zm8.169,5.313A3.4,3.4,0,0,1-12.1-.67a3.547,3.547,0,0,1-2.422.8,3.257,3.257,0,0,1-2.625-1.174,4.724,4.724,0,0,1-.987-3.142v-.889a5.266,5.266,0,0,1,.46-2.266,3.438,3.438,0,0,1,1.3-1.5,3.632,3.632,0,0,1,1.955-.524,3.34,3.34,0,0,1,2.361.822,3.441,3.441,0,0,1,1.035,2.276h-1.225a2.655,2.655,0,0,0-.689-1.6,2.084,2.084,0,0,0-1.482-.5,2.181,2.181,0,0,0-1.831.864,3.966,3.966,0,0,0-.663,2.459v.9a4.077,4.077,0,0,0,.628,2.4A2.031,2.031,0,0,0-14.52-.87a2.345,2.345,0,0,0,1.558-.46,2.554,2.554,0,0,0,.72-1.6Zm2.882-.686V0H-9.353V-9.242h3.409a3.425,3.425,0,0,1,2.377.774,2.625,2.625,0,0,1,.86,2.05,2.591,2.591,0,0,1-.841,2.073,3.578,3.578,0,0,1-2.409.727Zm0-1h2.19a2.19,2.19,0,0,0,1.5-.461,1.686,1.686,0,0,0,.521-1.332,1.742,1.742,0,0,0-.521-1.323,2.051,2.051,0,0,0-1.428-.515h-2.26Zm4.7,6.456L-4.1,1.384A3.063,3.063,0,0,0-3.475-.33V-1.39h1.149v.92A2.891,2.891,0,0,1-2.641.813,3,3,0,0,1-3.431,1.841ZM9.068-9.242v6.284A2.948,2.948,0,0,1,8.246-.819,3.312,3.312,0,0,1,6.033.114L5.71.127A3.459,3.459,0,0,1,3.291-.692a2.929,2.929,0,0,1-.914-2.253v-6.3H3.583v6.259a2.114,2.114,0,0,0,.552,1.558A2.123,2.123,0,0,0,5.71-.87a2.137,2.137,0,0,0,1.584-.552,2.11,2.11,0,0,0,.549-1.555V-9.242ZM10.991,0V-9.242H13.6a4.2,4.2,0,0,1,2.133.533,3.606,3.606,0,0,1,1.431,1.517,4.938,4.938,0,0,1,.511,2.26v.59a4.955,4.955,0,0,1-.5,2.292A3.55,3.55,0,0,1,15.729-.54a4.467,4.467,0,0,1-2.18.54ZM12.21-8.246V-1h1.282a2.79,2.79,0,0,0,2.193-.877,3.622,3.622,0,0,0,.784-2.5v-.54a3.68,3.68,0,0,0-.74-2.449,2.632,2.632,0,0,0-2.1-.886Zm8.525,4.627V0H19.516V-9.242h3.409a3.425,3.425,0,0,1,2.377.774,2.625,2.625,0,0,1,.86,2.05,2.591,2.591,0,0,1-.841,2.073,3.578,3.578,0,0,1-2.409.727Zm0-1h2.19a2.19,2.19,0,0,0,1.5-.461,1.686,1.686,0,0,0,.521-1.332,1.742,1.742,0,0,0-.521-1.323,2.051,2.051,0,0,0-1.428-.515h-2.26Z" transform="translate(1114.676 9250)" fill="#12263f"/>
  </g>
</svg>
