<svg xmlns="http://www.w3.org/2000/svg" xmlns:xlink="http://www.w3.org/1999/xlink" width="573.232" height="391" viewBox="0 0 573.232 391">
  <defs>
    <filter id="Trazado_192896" x="248.19" y="104.078" width="120.321" height="70.411" filterUnits="userSpaceOnUse">
      <feOffset dy="3" input="SourceAlpha"/>
      <feGaussianBlur stdDeviation="3" result="blur"/>
      <feFlood flood-opacity="0.161"/>
      <feComposite operator="in" in2="blur"/>
      <feComposite in="SourceGraphic"/>
    </filter>
    <filter id="Trazado_192897" x="248.19" y="163.769" width="120.321" height="70.411" filterUnits="userSpaceOnUse">
      <feOffset dy="3" input="SourceAlpha"/>
      <feGaussianBlur stdDeviation="3" result="blur-2"/>
      <feFlood flood-opacity="0.161"/>
      <feComposite operator="in" in2="blur-2"/>
      <feComposite in="SourceGraphic"/>
    </filter>
    <linearGradient id="linear-gradient" x1="0.5" x2="0.5" y2="1" gradientUnits="objectBoundingBox">
      <stop offset="0" stop-color="#039be5"/>
      <stop offset="1" stop-color="#027fbc"/>
    </linearGradient>
    <filter id="Rectángulo_44491" x="156.227" y="0" width="319" height="67" filterUnits="userSpaceOnUse">
      <feOffset dy="3" input="SourceAlpha"/>
      <feGaussianBlur stdDeviation="3" result="blur-3"/>
      <feFlood flood-opacity="0.161"/>
      <feComposite operator="in" in2="blur-3"/>
      <feComposite in="SourceGraphic"/>
    </filter>
    <linearGradient id="linear-gradient-2" x1="0.5" x2="0.5" y2="1" gradientUnits="objectBoundingBox">
      <stop offset="0" stop-color="#f5f5f5"/>
      <stop offset="0.25" stop-color="#f5f5f5"/>
      <stop offset="1" stop-color="#afafaf"/>
    </linearGradient>
    <filter id="Rectángulo_44492" x="248.227" y="288" width="136" height="103" filterUnits="userSpaceOnUse">
      <feOffset dy="3" input="SourceAlpha"/>
      <feGaussianBlur stdDeviation="3" result="blur-4"/>
      <feFlood flood-opacity="0.161"/>
      <feComposite operator="in" in2="blur-4"/>
      <feComposite in="SourceGraphic"/>
    </filter>
  </defs>
  <g id="Grupo_152047" data-name="Grupo 152047" transform="translate(-441.449 -9007)">
    <g id="Y9abCQ" transform="translate(-3424.898 10128.145)">
      <g id="Grupo_151188" data-name="Grupo 151188">
        <path id="Trazado_192890" data-name="Trazado 192890" d="M3919.574-860.145q2.422-10.386,4.844-20.773a23.737,23.737,0,0,1,13.825-16.717c10.839-4.981,21.909-9.477,32.984-13.924,8.116-3.26,10.634-12.458,4.909-19.433-12.539-15.276-14.682-32.951-10.453-51.307,3.947-17.13,21.242-28.073,38.256-25.784,16.842,2.266,30.023,17.608,30.7,34.875.628,16.022-2.343,30.65-12.95,43.308-3.469,4.142-2.767,9.484-1,14.284.5,1.345,2.542,2.4,4.1,3.024,8.93,3.582,17.844,7.23,26.919,10.413,16.178,5.674,23.81,17.647,25.8,33.967a81.785,81.785,0,0,1,1.042,12.9c-.079,2.091-1.931,4.115-2.981,6.17h-156Zm149.964,1.6c-.42-3.283-.738-5.9-1.092-8.519-1.765-13.025-7.783-22.563-20.93-26.944-9.28-3.093-18.346-6.844-27.426-10.505a15.827,15.827,0,0,1-6.133-3.994c-4.651-5.517-5.143-20.486-.369-26.028,9.52-11.048,12.558-23.752,11.921-37.956-.6-13.319-10.439-24.9-23.347-26.568-12.237-1.582-25.27,6.977-27.834,19.969-2.828,14.335-2.064,28.784,7.906,40.712,5.33,6.379,6.3,13.22,5.544,20.924-.669,6.8-3.83,11.06-10.507,13.557-11.79,4.408-23.525,9.115-34.829,14.629-8.667,4.227-14.748,21.015-12.261,30.723Z" fill="#12263f"/>
        <path id="Trazado_192891" data-name="Trazado 192891" d="M3994.617-1028.81c2.724,6.3,4.537,13.239,8.366,18.781,7.722,11.178,19.36,16.573,32.758,15.877,9.978-.518,18.006,1.854,24.831,9.023a31.043,31.043,0,0,0,6.681,5.289c1.537.9,3.9,1.636,5.352,1.068,1.165-.453,1.983-2.935,2.142-4.594.324-3.361.1-6.775.1-10.206,1.949-.269,3.784-.026,4.914-.807,1.3-.9,2.688-2.693,2.708-4.116.014-1.056-1.955-2.794-3.285-3.074-2.461-.518-5.1-.183-7.665-.218-3.265-.045-4.626,1.672-4.551,4.806.046,1.948.009,3.9.009,6.846-4.273-3.37-7.614-6.391-11.346-8.8a17.764,17.764,0,0,0-7.663-2.748c-6.784-.641-13.811.165-20.4-1.228-15.615-3.3-26.4-18.16-25.026-33.122,1.564-17.059,14.473-29.783,31.433-30.174q24.791-.572,49.6,0c17.111.4,29.693,12.916,31.44,30.62.275,2.791.507,5.412,4.023,5.264,3.728-.157,3.924-3,3.826-5.907-.6-17.632-14.861-34.012-32.275-37.069a22.411,22.411,0,0,1-2.74-.843h-58.166a9.352,9.352,0,0,1-1.884.76c-10.446,1.769-19.267,6.685-24.97,15.5-3.667,5.669-5.539,12.5-8.216,18.808Z" transform="translate(-128.27 8.08)" fill="#12263f"/>
        <path id="Trazado_192892" data-name="Trazado 192892" d="M4048.407-1027.343a7.267,7.267,0,0,1-6.988,7.105,7.3,7.3,0,0,1-6.858-7.2,7.036,7.036,0,0,1,6.68-6.746A7.134,7.134,0,0,1,4048.407-1027.343Z" transform="translate(-139.081)" fill="#12263f"/>
        <path id="Trazado_192893" data-name="Trazado 192893" d="M4069.556-1034.175a7.139,7.139,0,0,1,6.966,6.9,7.315,7.315,0,0,1-6.923,7.038,7.339,7.339,0,0,1-6.987-7A7.158,7.158,0,0,1,4069.556-1034.175Z" transform="translate(-139.081)" fill="#12263f"/>
        <path id="Trazado_192894" data-name="Trazado 192894" d="M4097.841-1034.177a7.019,7.019,0,0,1,6.721,7.2,7.3,7.3,0,0,1-6.784,6.744,7.478,7.478,0,0,1-7.112-7.053A7.313,7.313,0,0,1,4097.841-1034.177Z" transform="translate(-139.081)" fill="#12263f"/>
      </g>
    </g>
    <path id="Trazado_192895" data-name="Trazado 192895" d="M3919.574-860.145q2.422-10.386,4.844-20.773a23.737,23.737,0,0,1,13.825-16.717c10.839-4.981,21.909-9.477,32.984-13.924,8.116-3.26,10.634-12.458,4.909-19.433-12.539-15.276-14.682-32.951-10.453-51.307,3.947-17.13,21.242-28.073,38.256-25.784,16.842,2.266,30.023,17.608,30.7,34.875.628,16.022-2.343,30.65-12.95,43.308-3.469,4.142-2.767,9.484-1,14.284.5,1.345,2.542,2.4,4.1,3.024,8.93,3.582,17.844,7.23,26.919,10.413,16.178,5.674,23.81,17.647,25.8,33.967a81.785,81.785,0,0,1,1.042,12.9c-.079,2.091-1.931,4.115-2.981,6.17h-156Zm149.964,1.6c-.42-3.283-.738-5.9-1.092-8.519-1.765-13.025-7.783-22.563-20.93-26.944-9.28-3.093-18.346-6.844-27.426-10.505a15.827,15.827,0,0,1-6.133-3.994c-4.651-5.517-5.143-20.486-.369-26.028,9.52-11.048,12.558-23.752,11.921-37.956-.6-13.319-10.439-24.9-23.347-26.568-12.237-1.582-25.27,6.977-27.834,19.969-2.828,14.335-2.064,28.784,7.906,40.712,5.33,6.379,6.3,13.22,5.544,20.924-.669,6.8-3.83,11.06-10.507,13.557-11.79,4.408-23.525,9.115-34.829,14.629-8.667,4.227-14.748,21.015-12.261,30.723Z" transform="translate(-3063.898 10128.145)" fill="#12263f"/>
    <g transform="matrix(1, 0, 0, 1, 441.45, 9007)" filter="url(#Trazado_192896)">
      <path id="Trazado_192896-2" data-name="Trazado 192896" d="M-7525.021-4562.483h51.821v-7.6l50.5,25.2-50.5,27.213v-7.341h-51.821Z" transform="translate(7782.21 4680.16)" fill="#ff2c9c"/>
    </g>
    <g transform="matrix(1, 0, 0, 1, 441.45, 9007)" filter="url(#Trazado_192897)">
      <path id="Trazado_192897-2" data-name="Trazado 192897" d="M0,7.6H51.821V0l50.5,25.2-50.5,27.213V45.07H0Z" transform="translate(359.51 222.18) rotate(180)" fill="#ff2c9c"/>
    </g>
    <g transform="matrix(1, 0, 0, 1, 441.45, 9007)" filter="url(#Rectángulo_44491)">
      <rect id="Rectángulo_44491-2" data-name="Rectángulo 44491" width="301" height="49" rx="5" transform="translate(165.23 6)" fill="url(#linear-gradient)"/>
    </g>
    <path id="Trazado_194488" data-name="Trazado 194488" d="M-120.656-6.394a6.792,6.792,0,0,1-2.287,4.878,8.033,8.033,0,0,1-5.438,1.78,7.223,7.223,0,0,1-5.807-2.485,10.19,10.19,0,0,1-2.116-6.823v-1.173a11.507,11.507,0,0,1,.976-4.878,7.311,7.311,0,0,1,2.788-3.237,7.811,7.811,0,0,1,4.212-1.127,7.826,7.826,0,0,1,5.353,1.78,7.3,7.3,0,0,1,2.347,5h-3.955a4.009,4.009,0,0,0-1.035-2.7,3.832,3.832,0,0,0-2.709-.837,3.36,3.36,0,0,0-2.96,1.417,7.943,7.943,0,0,0-1.009,4.4v1.45a8.5,8.5,0,0,0,.943,4.548,3.3,3.3,0,0,0,2.973,1.437,3.9,3.9,0,0,0,2.736-.837,3.781,3.781,0,0,0,1.035-2.591ZM-114.289,0h-3.823V-14.265h3.823Zm-4.047-17.956a1.876,1.876,0,0,1,.573-1.411,2.154,2.154,0,0,1,1.562-.554,2.159,2.159,0,0,1,1.556.554,1.865,1.865,0,0,1,.58,1.411,1.871,1.871,0,0,1-.587,1.424,2.165,2.165,0,0,1-1.549.554,2.165,2.165,0,0,1-1.549-.554A1.871,1.871,0,0,1-118.336-17.956Zm13.118,15.148a2.5,2.5,0,0,0,1.714-.58,2.032,2.032,0,0,0,.686-1.542h3.573a4.887,4.887,0,0,1-.791,2.656A5.219,5.219,0,0,1-102.166-.4a6.664,6.664,0,0,1-2.986.666,6.193,6.193,0,0,1-4.825-1.945,7.7,7.7,0,0,1-1.767-5.372V-7.3a7.607,7.607,0,0,1,1.753-5.26,6.121,6.121,0,0,1,4.812-1.964,6,6,0,0,1,4.291,1.523,5.391,5.391,0,0,1,1.641,4.054h-3.573a2.618,2.618,0,0,0-.686-1.809,2.286,2.286,0,0,0-1.74-.7,2.3,2.3,0,0,0-2.01.97,5.624,5.624,0,0,0-.679,3.149v.4a5.7,5.7,0,0,0,.672,3.169A2.324,2.324,0,0,0-105.218-2.808ZM-93.05,0h-3.823V-20.25h3.823Zm2.544-7.264a8.46,8.46,0,0,1,.817-3.784,5.984,5.984,0,0,1,2.353-2.571,6.866,6.866,0,0,1,3.566-.91,6.5,6.5,0,0,1,4.713,1.767,7.09,7.09,0,0,1,2.037,4.8l.026.976A7.456,7.456,0,0,1-78.825-1.72,6.37,6.37,0,0,1-83.742.264a6.4,6.4,0,0,1-4.924-1.978,7.587,7.587,0,0,1-1.839-5.379Zm3.81.27a5.332,5.332,0,0,0,.765,3.109,2.522,2.522,0,0,0,2.188,1.076A2.528,2.528,0,0,0-81.58-3.871a5.834,5.834,0,0,0,.778-3.4,5.279,5.279,0,0,0-.778-3.09,2.528,2.528,0,0,0-2.188-1.1,2.487,2.487,0,0,0-2.162,1.089A5.933,5.933,0,0,0-86.7-6.994Zm18.18-.244a8.6,8.6,0,0,1,1.5-5.313,4.855,4.855,0,0,1,4.094-1.978,4.369,4.369,0,0,1,3.441,1.556V-20.25h3.823V0H-59.1l-.185-1.516A4.484,4.484,0,0,1-62.952.264,4.842,4.842,0,0,1-66.992-1.72,8.873,8.873,0,0,1-68.515-7.238Zm3.81.284a5.631,5.631,0,0,0,.7,3.077,2.276,2.276,0,0,0,2.03,1.07A2.549,2.549,0,0,0-59.484-4.3V-9.938A2.513,2.513,0,0,0-61.95-11.43Q-64.705-11.43-64.705-6.954ZM-46.143.264a7,7,0,0,1-5.109-1.925A6.842,6.842,0,0,1-53.222-6.79v-.369A8.617,8.617,0,0,1-52.392-11a6.1,6.1,0,0,1,2.353-2.61,6.605,6.605,0,0,1,3.474-.916,5.92,5.92,0,0,1,4.608,1.846,7.5,7.5,0,0,1,1.681,5.234v1.556h-9.083a3.539,3.539,0,0,0,1.114,2.241,3.368,3.368,0,0,0,2.353.844,4.113,4.113,0,0,0,3.441-1.6l1.872,2.1A5.72,5.72,0,0,1-42.9-.415,7.613,7.613,0,0,1-46.143.264Zm-.435-11.72a2.381,2.381,0,0,0-1.839.768,3.977,3.977,0,0,0-.9,2.2h5.3v-.3a2.837,2.837,0,0,0-.686-1.966A2.456,2.456,0,0,0-46.578-11.457Zm21.12,8.648a2.5,2.5,0,0,0,1.714-.58,2.032,2.032,0,0,0,.686-1.542h3.573a4.887,4.887,0,0,1-.791,2.656A5.219,5.219,0,0,1-22.406-.4a6.664,6.664,0,0,1-2.986.666,6.193,6.193,0,0,1-4.825-1.945,7.7,7.7,0,0,1-1.767-5.372V-7.3a7.607,7.607,0,0,1,1.753-5.26,6.121,6.121,0,0,1,4.812-1.964,6,6,0,0,1,4.291,1.523,5.391,5.391,0,0,1,1.641,4.054h-3.573a2.618,2.618,0,0,0-.686-1.809,2.286,2.286,0,0,0-1.74-.7,2.3,2.3,0,0,0-2.01.97,5.624,5.624,0,0,0-.679,3.149v.4A5.7,5.7,0,0,0-27.5-3.772,2.324,2.324,0,0,0-25.458-2.808ZM-17.9-7.264a8.46,8.46,0,0,1,.817-3.784,5.984,5.984,0,0,1,2.353-2.571,6.866,6.866,0,0,1,3.566-.91,6.5,6.5,0,0,1,4.713,1.767,7.09,7.09,0,0,1,2.037,4.8l.026.976A7.456,7.456,0,0,1-6.223-1.72,6.37,6.37,0,0,1-11.14.264a6.4,6.4,0,0,1-4.924-1.978A7.587,7.587,0,0,1-17.9-7.093Zm3.81.27a5.332,5.332,0,0,0,.765,3.109A2.522,2.522,0,0,0-11.14-2.808,2.528,2.528,0,0,0-8.978-3.871a5.834,5.834,0,0,0,.778-3.4,5.279,5.279,0,0,0-.778-3.09,2.528,2.528,0,0,0-2.188-1.1,2.487,2.487,0,0,0-2.162,1.089A5.933,5.933,0,0,0-14.093-6.994ZM1.529-14.265l.119,1.6a5.013,5.013,0,0,1,4.1-1.859,3.8,3.8,0,0,1,3.784,2.175,4.9,4.9,0,0,1,4.285-2.175,4.255,4.255,0,0,1,3.454,1.351A6.211,6.211,0,0,1,18.4-9.11V0H14.581V-9.1a2.716,2.716,0,0,0-.475-1.773,2.1,2.1,0,0,0-1.674-.56A2.378,2.378,0,0,0,10.059-9.8L10.072,0H6.262V-9.083a2.683,2.683,0,0,0-.488-1.793,2.124,2.124,0,0,0-1.661-.554,2.469,2.469,0,0,0-2.347,1.345V0h-3.81V-14.265ZM29.874-1.45a4.778,4.778,0,0,1-3.9,1.714,4.506,4.506,0,0,1-3.5-1.318,5.628,5.628,0,0,1-1.233-3.863v-9.347h3.81v9.226q0,2.23,2.03,2.23a2.751,2.751,0,0,0,2.663-1.346v-10.11h3.823V0H29.979ZM39.946-14.265l.119,1.648a4.98,4.98,0,0,1,4.1-1.912A4.139,4.139,0,0,1,47.54-13.2a6.213,6.213,0,0,1,1.134,3.981V0h-3.81V-9.123a2.472,2.472,0,0,0-.527-1.76,2.361,2.361,0,0,0-1.753-.547,2.621,2.621,0,0,0-2.413,1.371V0H36.36V-14.265ZM55.582,0H51.759V-14.265h3.823ZM51.535-17.956a1.876,1.876,0,0,1,.573-1.411,2.154,2.154,0,0,1,1.562-.554,2.159,2.159,0,0,1,1.556.554,1.865,1.865,0,0,1,.58,1.411,1.871,1.871,0,0,1-.587,1.424,2.165,2.165,0,0,1-1.549.554,2.165,2.165,0,0,1-1.549-.554A1.871,1.871,0,0,1,51.535-17.956ZM64.652-2.808a2.5,2.5,0,0,0,1.714-.58,2.032,2.032,0,0,0,.686-1.542h3.573a4.887,4.887,0,0,1-.791,2.656A5.219,5.219,0,0,1,67.7-.4a6.664,6.664,0,0,1-2.986.666,6.193,6.193,0,0,1-4.825-1.945,7.7,7.7,0,0,1-1.767-5.372V-7.3a7.607,7.607,0,0,1,1.753-5.26,6.121,6.121,0,0,1,4.812-1.964,6,6,0,0,1,4.291,1.523,5.391,5.391,0,0,1,1.641,4.054H67.052a2.618,2.618,0,0,0-.686-1.809,2.286,2.286,0,0,0-1.74-.7,2.3,2.3,0,0,0-2.01.97,5.624,5.624,0,0,0-.679,3.149v.4a5.7,5.7,0,0,0,.672,3.169A2.324,2.324,0,0,0,64.652-2.808ZM81.066,0a4.231,4.231,0,0,1-.382-1.279,4.61,4.61,0,0,1-3.6,1.542A5.065,5.065,0,0,1,73.611-.949a3.9,3.9,0,0,1-1.378-3.059,4.031,4.031,0,0,1,1.681-3.48,8.294,8.294,0,0,1,4.858-1.226h1.753v-.817a2.351,2.351,0,0,0-.508-1.582,2,2,0,0,0-1.6-.593,2.27,2.27,0,0,0-1.51.461,1.568,1.568,0,0,0-.547,1.266h-3.81a3.827,3.827,0,0,1,.765-2.294,5.054,5.054,0,0,1,2.162-1.655,7.88,7.88,0,0,1,3.138-.6A6.225,6.225,0,0,1,82.8-13.2a4.635,4.635,0,0,1,1.549,3.724V-3.3a6.82,6.82,0,0,0,.567,3.072V0ZM77.915-2.65a3.281,3.281,0,0,0,1.556-.376,2.468,2.468,0,0,0,1.055-1.009V-6.486H79.1q-2.861,0-3.045,1.978l-.013.224a1.525,1.525,0,0,0,.5,1.173A1.946,1.946,0,0,0,77.915-2.65Zm15.293-.158a2.5,2.5,0,0,0,1.714-.58,2.032,2.032,0,0,0,.686-1.542H99.18a4.887,4.887,0,0,1-.791,2.656A5.219,5.219,0,0,1,96.26-.4a6.664,6.664,0,0,1-2.986.666,6.193,6.193,0,0,1-4.825-1.945,7.7,7.7,0,0,1-1.767-5.372V-7.3a7.607,7.607,0,0,1,1.753-5.26,6.121,6.121,0,0,1,4.812-1.964,6,6,0,0,1,4.291,1.523A5.391,5.391,0,0,1,99.18-8.952H95.607a2.618,2.618,0,0,0-.686-1.809,2.286,2.286,0,0,0-1.74-.7,2.3,2.3,0,0,0-2.01.97,5.624,5.624,0,0,0-.679,3.149v.4a5.7,5.7,0,0,0,.672,3.169A2.324,2.324,0,0,0,93.208-2.808ZM105.376,0h-3.823V-14.265h3.823Zm-4.047-17.956a1.876,1.876,0,0,1,.573-1.411,2.154,2.154,0,0,1,1.562-.554,2.159,2.159,0,0,1,1.556.554,1.865,1.865,0,0,1,.58,1.411,1.871,1.871,0,0,1-.587,1.424,2.165,2.165,0,0,1-1.549.554,2.165,2.165,0,0,1-1.549-.554A1.871,1.871,0,0,1,101.329-17.956Zm6.592,10.692a8.46,8.46,0,0,1,.817-3.784,5.984,5.984,0,0,1,2.353-2.571,6.866,6.866,0,0,1,3.566-.91,6.5,6.5,0,0,1,4.713,1.767,7.09,7.09,0,0,1,2.037,4.8l.026.976A7.456,7.456,0,0,1,119.6-1.72,6.37,6.37,0,0,1,114.684.264a6.4,6.4,0,0,1-4.924-1.978,7.587,7.587,0,0,1-1.839-5.379Zm3.81.27a5.332,5.332,0,0,0,.765,3.109,2.522,2.522,0,0,0,2.188,1.076,2.528,2.528,0,0,0,2.162-1.063,5.834,5.834,0,0,0,.778-3.4,5.279,5.279,0,0,0-.778-3.09,2.528,2.528,0,0,0-2.188-1.1,2.487,2.487,0,0,0-2.162,1.089A5.933,5.933,0,0,0,111.731-6.994Zm3.678-13.256h4.153l-3.652,4.087h-3.1Zm11.878,5.985.119,1.648a4.98,4.98,0,0,1,4.1-1.912,4.139,4.139,0,0,1,3.375,1.332,6.213,6.213,0,0,1,1.134,3.981V0h-3.81V-9.123a2.472,2.472,0,0,0-.527-1.76,2.361,2.361,0,0,0-1.753-.547,2.621,2.621,0,0,0-2.413,1.371V0H123.7V-14.265Z" transform="translate(757.676 9046)" fill="#fff"/>
    <path id="Trazado_194489" data-name="Trazado 194489" d="M-29.1-8.319H-36.69v5.142h8.912V0H-40.645V-19.2H-27.8v3.2H-36.69v4.575H-29.1Zm6.961-5.946.119,1.6a5.013,5.013,0,0,1,4.1-1.859,3.8,3.8,0,0,1,3.784,2.175,4.9,4.9,0,0,1,4.285-2.175,4.255,4.255,0,0,1,3.454,1.351A6.211,6.211,0,0,1-5.26-9.11V0H-9.083V-9.1a2.716,2.716,0,0,0-.475-1.773,2.1,2.1,0,0,0-1.674-.56A2.378,2.378,0,0,0-13.605-9.8l.013,9.8H-17.4V-9.083a2.683,2.683,0,0,0-.488-1.793,2.124,2.124,0,0,0-1.661-.554A2.469,2.469,0,0,0-21.9-10.085V0h-3.81V-14.265ZM1.688,0H-2.136V-14.265H1.688ZM-2.36-17.956a1.876,1.876,0,0,1,.573-1.411A2.154,2.154,0,0,1-.224-19.92a2.159,2.159,0,0,1,1.556.554,1.865,1.865,0,0,1,.58,1.411,1.871,1.871,0,0,1-.587,1.424,2.165,2.165,0,0,1-1.549.554,2.165,2.165,0,0,1-1.549-.554A1.871,1.871,0,0,1-2.36-17.956ZM12.551-3.942a1.228,1.228,0,0,0-.692-1.1,7.862,7.862,0,0,0-2.221-.719Q4.548-6.829,4.548-10.085a3.92,3.92,0,0,1,1.575-3.171,6.355,6.355,0,0,1,4.12-1.272,6.84,6.84,0,0,1,4.344,1.279,4.03,4.03,0,0,1,1.628,3.322h-3.81a1.844,1.844,0,0,0-.527-1.351,2.232,2.232,0,0,0-1.648-.534,2.28,2.28,0,0,0-1.49.435,1.373,1.373,0,0,0-.527,1.107,1.174,1.174,0,0,0,.6,1.022,6.171,6.171,0,0,0,2.024.672,16.529,16.529,0,0,1,2.4.639Q16.255-6.829,16.255-4.1A3.721,3.721,0,0,1,14.581-.943,7.223,7.223,0,0,1,10.257.264,7.544,7.544,0,0,1,7.073-.376,5.342,5.342,0,0,1,4.891-2.129,4.074,4.074,0,0,1,4.1-4.535H7.712a1.989,1.989,0,0,0,.751,1.556,2.981,2.981,0,0,0,1.872.541,2.759,2.759,0,0,0,1.655-.415A1.292,1.292,0,0,0,12.551-3.942Zm5.563-3.322a8.46,8.46,0,0,1,.817-3.784,5.984,5.984,0,0,1,2.353-2.571,6.866,6.866,0,0,1,3.566-.91,6.5,6.5,0,0,1,4.713,1.767,7.09,7.09,0,0,1,2.037,4.8l.026.976A7.456,7.456,0,0,1,29.795-1.72,6.37,6.37,0,0,1,24.877.264a6.4,6.4,0,0,1-4.924-1.978,7.587,7.587,0,0,1-1.839-5.379Zm3.81.27a5.332,5.332,0,0,0,.765,3.109,2.522,2.522,0,0,0,2.188,1.076A2.528,2.528,0,0,0,27.04-3.871a5.834,5.834,0,0,0,.778-3.4,5.279,5.279,0,0,0-.778-3.09,2.528,2.528,0,0,0-2.188-1.1,2.487,2.487,0,0,0-2.162,1.089A5.933,5.933,0,0,0,21.924-6.994Zm20.065-3.7a10.351,10.351,0,0,0-1.371-.105,2.791,2.791,0,0,0-2.834,1.463V0h-3.81V-14.265h3.6l.105,1.7a3.53,3.53,0,0,1,3.177-1.964,3.992,3.992,0,0,1,1.187.171Z" transform="translate(577.676 9326)" fill="#12263f"/>
    <path id="Trazado_194490" data-name="Trazado 194490" d="M-44.785-19.2l4.931,13.922,4.9-13.922h5.194V0h-3.968V-5.247l.4-9.057L-38.509,0h-2.716l-5.168-14.291.4,9.044V0h-3.955V-19.2ZM-19.986.264a7,7,0,0,1-5.109-1.925A6.842,6.842,0,0,1-27.066-6.79v-.369A8.617,8.617,0,0,1-26.235-11a6.1,6.1,0,0,1,2.353-2.61,6.605,6.605,0,0,1,3.474-.916A5.92,5.92,0,0,1-15.8-12.683,7.5,7.5,0,0,1-14.12-7.449v1.556H-23.2a3.539,3.539,0,0,0,1.114,2.241,3.368,3.368,0,0,0,2.353.844,4.113,4.113,0,0,0,3.441-1.6l1.872,2.1a5.72,5.72,0,0,1-2.32,1.892A7.613,7.613,0,0,1-19.986.264Zm-.435-11.72a2.381,2.381,0,0,0-1.839.768,3.977,3.977,0,0,0-.9,2.2h5.3v-.3a2.837,2.837,0,0,0-.686-1.966A2.456,2.456,0,0,0-20.421-11.457Zm11.971-2.808.119,1.648a4.98,4.98,0,0,1,4.1-1.912A4.139,4.139,0,0,1-.857-13.2,6.213,6.213,0,0,1,.277-9.215V0h-3.81V-9.123a2.472,2.472,0,0,0-.527-1.76,2.361,2.361,0,0,0-1.753-.547,2.621,2.621,0,0,0-2.413,1.371V0h-3.81V-14.265ZM10.89-3.942a1.228,1.228,0,0,0-.692-1.1,7.862,7.862,0,0,0-2.221-.719Q2.887-6.829,2.887-10.085a3.92,3.92,0,0,1,1.575-3.171,6.355,6.355,0,0,1,4.12-1.272,6.84,6.84,0,0,1,4.344,1.279,4.03,4.03,0,0,1,1.628,3.322h-3.81a1.844,1.844,0,0,0-.527-1.351,2.232,2.232,0,0,0-1.648-.534,2.28,2.28,0,0,0-1.49.435,1.373,1.373,0,0,0-.527,1.107,1.174,1.174,0,0,0,.6,1.022,6.171,6.171,0,0,0,2.024.672,16.529,16.529,0,0,1,2.4.639Q14.594-6.829,14.594-4.1A3.721,3.721,0,0,1,12.92-.943,7.223,7.223,0,0,1,8.6.264,7.544,7.544,0,0,1,5.412-.376,5.342,5.342,0,0,1,3.23-2.129a4.074,4.074,0,0,1-.791-2.406H6.051A1.989,1.989,0,0,0,6.8-2.979a2.981,2.981,0,0,0,1.872.541,2.759,2.759,0,0,0,1.655-.415A1.292,1.292,0,0,0,10.89-3.942ZM25.313,0a4.231,4.231,0,0,1-.382-1.279,4.61,4.61,0,0,1-3.6,1.542A5.065,5.065,0,0,1,17.857-.949a3.9,3.9,0,0,1-1.378-3.059,4.031,4.031,0,0,1,1.681-3.48,8.294,8.294,0,0,1,4.858-1.226h1.753v-.817a2.351,2.351,0,0,0-.508-1.582,2,2,0,0,0-1.6-.593,2.27,2.27,0,0,0-1.51.461,1.568,1.568,0,0,0-.547,1.266H16.8a3.827,3.827,0,0,1,.765-2.294,5.054,5.054,0,0,1,2.162-1.655,7.88,7.88,0,0,1,3.138-.6A6.225,6.225,0,0,1,27.046-13.2,4.635,4.635,0,0,1,28.6-9.479V-3.3a6.82,6.82,0,0,0,.567,3.072V0ZM22.162-2.65a3.281,3.281,0,0,0,1.556-.376,2.468,2.468,0,0,0,1.055-1.009V-6.486H23.348q-2.861,0-3.045,1.978l-.013.224a1.525,1.525,0,0,0,.5,1.173A1.946,1.946,0,0,0,22.162-2.65ZM35.556-14.265V.778A5.1,5.1,0,0,1,34.3,4.449a4.76,4.76,0,0,1-3.612,1.312,7.747,7.747,0,0,1-1.885-.224V2.518a7.152,7.152,0,0,0,1.2.119q1.727,0,1.727-1.833V-14.265ZM31.43-17.956A1.876,1.876,0,0,1,32-19.367a2.154,2.154,0,0,1,1.562-.554,2.154,2.154,0,0,1,1.562.554,1.876,1.876,0,0,1,.573,1.411,1.871,1.871,0,0,1-.587,1.424,2.165,2.165,0,0,1-1.549.554,2.165,2.165,0,0,1-1.549-.554A1.871,1.871,0,0,1,31.43-17.956ZM45.1.264a7,7,0,0,1-5.109-1.925A6.842,6.842,0,0,1,38.021-6.79v-.369A8.617,8.617,0,0,1,38.852-11a6.1,6.1,0,0,1,2.353-2.61,6.605,6.605,0,0,1,3.474-.916,5.92,5.92,0,0,1,4.608,1.846,7.5,7.5,0,0,1,1.681,5.234v1.556H41.884A3.539,3.539,0,0,0,43-3.652a3.368,3.368,0,0,0,2.353.844,4.113,4.113,0,0,0,3.441-1.6l1.872,2.1a5.72,5.72,0,0,1-2.32,1.892A7.613,7.613,0,0,1,45.1.264Zm-.435-11.72a2.381,2.381,0,0,0-1.839.768,3.977,3.977,0,0,0-.9,2.2h5.3v-.3a2.837,2.837,0,0,0-.686-1.966A2.456,2.456,0,0,0,44.666-11.457Z" transform="translate(757.676 9272)" fill="#12263f"/>
    <path id="Trazado_194493" data-name="Trazado 194493" d="M-45.951-7.027H-49.1V0h-3.955V-19.2h7.132a8.063,8.063,0,0,1,5.247,1.516,5.233,5.233,0,0,1,1.846,4.285,5.906,5.906,0,0,1-.85,3.276,5.8,5.8,0,0,1-2.577,2.09l4.153,7.844V0h-4.245Zm-3.151-3.2h3.19a3.267,3.267,0,0,0,2.307-.758,2.709,2.709,0,0,0,.817-2.09,2.9,2.9,0,0,0-.771-2.136,3.205,3.205,0,0,0-2.366-.778H-49.1ZM-29.511.264A7,7,0,0,1-34.62-1.661,6.842,6.842,0,0,1-36.591-6.79v-.369A8.617,8.617,0,0,1-35.76-11a6.1,6.1,0,0,1,2.353-2.61,6.605,6.605,0,0,1,3.474-.916,5.92,5.92,0,0,1,4.608,1.846,7.5,7.5,0,0,1,1.681,5.234v1.556h-9.083a3.539,3.539,0,0,0,1.114,2.241,3.368,3.368,0,0,0,2.353.844A4.113,4.113,0,0,0-25.82-4.4l1.872,2.1a5.72,5.72,0,0,1-2.32,1.892A7.613,7.613,0,0,1-29.511.264Zm-.435-11.72a2.381,2.381,0,0,0-1.839.768,3.977,3.977,0,0,0-.9,2.2h5.3v-.3a2.837,2.837,0,0,0-.686-1.966A2.456,2.456,0,0,0-29.947-11.457Zm14.4,8.648a2.5,2.5,0,0,0,1.714-.58,2.032,2.032,0,0,0,.686-1.542h3.573a4.887,4.887,0,0,1-.791,2.656A5.219,5.219,0,0,1-12.5-.4a6.664,6.664,0,0,1-2.986.666,6.193,6.193,0,0,1-4.825-1.945,7.7,7.7,0,0,1-1.767-5.372V-7.3a7.607,7.607,0,0,1,1.753-5.26,6.121,6.121,0,0,1,4.812-1.964,6,6,0,0,1,4.291,1.523A5.391,5.391,0,0,1-9.578-8.952h-3.573a2.618,2.618,0,0,0-.686-1.809,2.286,2.286,0,0,0-1.74-.7,2.3,2.3,0,0,0-2.01.97,5.624,5.624,0,0,0-.679,3.149v.4a5.7,5.7,0,0,0,.672,3.169A2.324,2.324,0,0,0-15.55-2.808ZM-.837.264A7,7,0,0,1-5.946-1.661,6.842,6.842,0,0,1-7.917-6.79v-.369A8.617,8.617,0,0,1-7.086-11a6.1,6.1,0,0,1,2.353-2.61,6.605,6.605,0,0,1,3.474-.916,5.92,5.92,0,0,1,4.608,1.846A7.5,7.5,0,0,1,5.03-7.449v1.556H-4.054A3.539,3.539,0,0,0-2.94-3.652a3.368,3.368,0,0,0,2.353.844A4.113,4.113,0,0,0,2.854-4.4l1.872,2.1A5.72,5.72,0,0,1,2.406-.415,7.613,7.613,0,0,1-.837.264Zm-.435-11.72a2.381,2.381,0,0,0-1.839.768,3.977,3.977,0,0,0-.9,2.2h5.3v-.3A2.837,2.837,0,0,0,.6-10.761,2.456,2.456,0,0,0-1.272-11.457ZM20.032-7a8.555,8.555,0,0,1-1.5,5.28A4.8,4.8,0,0,1,14.5.264,4.444,4.444,0,0,1,11-1.239V5.484H7.192V-14.265h3.533l.132,1.4a4.478,4.478,0,0,1,3.612-1.661,4.83,4.83,0,0,1,4.1,1.951A8.787,8.787,0,0,1,20.032-7.2Zm-3.81-.277a5.614,5.614,0,0,0-.705-3.072,2.3,2.3,0,0,0-2.05-1.081A2.5,2.5,0,0,0,11-10.059v5.84a2.537,2.537,0,0,0,2.492,1.411Q16.222-2.808,16.222-7.277ZM26.954-17.771v3.507h2.439v2.795H26.954v7.119a1.7,1.7,0,0,0,.3,1.134,1.523,1.523,0,0,0,1.16.343,6.076,6.076,0,0,0,1.121-.092V-.079a7.844,7.844,0,0,1-2.307.343q-4.008,0-4.087-4.047V-11.47H21.061v-2.795h2.083v-3.507ZM30.527-7.264a8.46,8.46,0,0,1,.817-3.784A5.984,5.984,0,0,1,33.7-13.619a6.866,6.866,0,0,1,3.566-.91,6.5,6.5,0,0,1,4.713,1.767,7.09,7.09,0,0,1,2.037,4.8l.026.976A7.456,7.456,0,0,1,42.207-1.72,6.37,6.37,0,0,1,37.29.264a6.4,6.4,0,0,1-4.924-1.978,7.587,7.587,0,0,1-1.839-5.379Zm3.81.27A5.332,5.332,0,0,0,35.1-3.884,2.522,2.522,0,0,0,37.29-2.808a2.528,2.528,0,0,0,2.162-1.063,5.834,5.834,0,0,0,.778-3.4,5.279,5.279,0,0,0-.778-3.09,2.528,2.528,0,0,0-2.188-1.1A2.487,2.487,0,0,0,35.1-10.367,5.933,5.933,0,0,0,34.337-6.994Zm20.065-3.7a10.351,10.351,0,0,0-1.371-.105A2.791,2.791,0,0,0,50.2-9.334V0h-3.81V-14.265h3.6l.105,1.7a3.53,3.53,0,0,1,3.177-1.964,3.992,3.992,0,0,1,1.187.171Z" transform="translate(936.676 9326)" fill="#12263f"/>
    <g transform="matrix(1, 0, 0, 1, 441.45, 9007)" filter="url(#Rectángulo_44492)">
      <rect id="Rectángulo_44492-2" data-name="Rectángulo 44492" width="118" height="85" rx="5" transform="translate(257.23 294)" fill="url(#linear-gradient-2)"/>
    </g>
    <path id="Trazado_194491" data-name="Trazado 194491" d="M-26.209-6.394A6.792,6.792,0,0,1-28.5-1.516,8.033,8.033,0,0,1-33.935.264a7.223,7.223,0,0,1-5.807-2.485,10.19,10.19,0,0,1-2.116-6.823v-1.173a11.507,11.507,0,0,1,.976-4.878,7.311,7.311,0,0,1,2.788-3.237,7.811,7.811,0,0,1,4.212-1.127,7.826,7.826,0,0,1,5.353,1.78,7.3,7.3,0,0,1,2.347,5h-3.955a4.009,4.009,0,0,0-1.035-2.7,3.832,3.832,0,0,0-2.709-.837,3.36,3.36,0,0,0-2.96,1.417,7.943,7.943,0,0,0-1.009,4.4v1.45A8.5,8.5,0,0,0-36.907-4.4a3.3,3.3,0,0,0,2.973,1.437A3.9,3.9,0,0,0-31.2-3.8a3.781,3.781,0,0,0,1.035-2.591Zm1.753-.87a8.46,8.46,0,0,1,.817-3.784,5.984,5.984,0,0,1,2.353-2.571,6.866,6.866,0,0,1,3.566-.91,6.5,6.5,0,0,1,4.713,1.767,7.09,7.09,0,0,1,2.037,4.8l.026.976A7.456,7.456,0,0,1-12.775-1.72,6.37,6.37,0,0,1-17.692.264a6.4,6.4,0,0,1-4.924-1.978,7.587,7.587,0,0,1-1.839-5.379Zm3.81.27a5.332,5.332,0,0,0,.765,3.109,2.522,2.522,0,0,0,2.188,1.076A2.528,2.528,0,0,0-15.53-3.871a5.834,5.834,0,0,0,.778-3.4,5.279,5.279,0,0,0-.778-3.09,2.528,2.528,0,0,0-2.188-1.1,2.487,2.487,0,0,0-2.162,1.089A5.933,5.933,0,0,0-20.646-6.994Zm3.678-13.256h4.153l-3.652,4.087h-3.1ZM-9.189-7.238a8.6,8.6,0,0,1,1.5-5.313A4.855,4.855,0,0,1-3.6-14.528,4.369,4.369,0,0,1-.158-12.973V-20.25H3.665V0H.224L.04-1.516A4.484,4.484,0,0,1-3.625.264,4.842,4.842,0,0,1-7.666-1.72,8.873,8.873,0,0,1-9.189-7.238Zm3.81.284a5.631,5.631,0,0,0,.7,3.077,2.276,2.276,0,0,0,2.03,1.07A2.549,2.549,0,0,0-.158-4.3V-9.938A2.513,2.513,0,0,0-2.624-11.43Q-5.379-11.43-5.379-6.954ZM10.639,0H6.816V-14.265h3.823ZM6.592-17.956a1.876,1.876,0,0,1,.573-1.411,2.154,2.154,0,0,1,1.562-.554,2.159,2.159,0,0,1,1.556.554,1.865,1.865,0,0,1,.58,1.411,1.871,1.871,0,0,1-.587,1.424,2.165,2.165,0,0,1-1.549.554,2.165,2.165,0,0,1-1.549-.554A1.871,1.871,0,0,1,6.592-17.956ZM13.223-7.238a8.36,8.36,0,0,1,1.562-5.287,5.062,5.062,0,0,1,4.212-2,4.44,4.44,0,0,1,3.652,1.608l.158-1.345h3.454V-.475a6.1,6.1,0,0,1-.85,3.256,5.461,5.461,0,0,1-2.393,2.109,8.412,8.412,0,0,1-3.612.725,7.822,7.822,0,0,1-3.059-.626,5.428,5.428,0,0,1-2.254-1.615l1.688-2.32a4.463,4.463,0,0,0,3.454,1.6,3.267,3.267,0,0,0,2.36-.811,3.041,3.041,0,0,0,.844-2.3v-.765A4.407,4.407,0,0,1,18.971.264a5.049,5.049,0,0,1-4.159-2.01A8.358,8.358,0,0,1,13.223-7.08Zm3.81.284a5.206,5.206,0,0,0,.778,3.044,2.474,2.474,0,0,0,2.136,1.1,2.646,2.646,0,0,0,2.492-1.307v-6.008a2.64,2.64,0,0,0-2.465-1.307,2.49,2.49,0,0,0-2.156,1.122A5.867,5.867,0,0,0,17.033-6.954ZM28.6-7.264a8.46,8.46,0,0,1,.817-3.784,5.984,5.984,0,0,1,2.353-2.571,6.866,6.866,0,0,1,3.566-.91,6.5,6.5,0,0,1,4.713,1.767,7.09,7.09,0,0,1,2.037,4.8l.026.976A7.456,7.456,0,0,1,40.276-1.72,6.37,6.37,0,0,1,35.358.264a6.4,6.4,0,0,1-4.924-1.978A7.587,7.587,0,0,1,28.6-7.093Zm3.81.27a5.332,5.332,0,0,0,.765,3.109,2.522,2.522,0,0,0,2.188,1.076,2.528,2.528,0,0,0,2.162-1.063,5.834,5.834,0,0,0,.778-3.4,5.279,5.279,0,0,0-.778-3.09,2.528,2.528,0,0,0-2.188-1.1,2.487,2.487,0,0,0-2.162,1.089A5.933,5.933,0,0,0,32.405-6.994Z" transform="translate(757.676 9337)" fill="#12263f"/>
    <path id="Trazado_194492" data-name="Trazado 194492" d="M-17.666-6.394a6.792,6.792,0,0,1-2.287,4.878A8.033,8.033,0,0,1-25.392.264,7.223,7.223,0,0,1-31.2-2.221a10.19,10.19,0,0,1-2.116-6.823v-1.173a11.507,11.507,0,0,1,.976-4.878,7.311,7.311,0,0,1,2.788-3.237,7.811,7.811,0,0,1,4.212-1.127,7.826,7.826,0,0,1,5.353,1.78,7.3,7.3,0,0,1,2.347,5h-3.955a4.009,4.009,0,0,0-1.035-2.7,3.832,3.832,0,0,0-2.709-.837A3.36,3.36,0,0,0-28.3-14.8a7.943,7.943,0,0,0-1.009,4.4v1.45A8.5,8.5,0,0,0-28.365-4.4a3.3,3.3,0,0,0,2.973,1.437A3.9,3.9,0,0,0-22.656-3.8a3.781,3.781,0,0,0,1.035-2.591ZM-7.053,0a4.231,4.231,0,0,1-.382-1.279,4.61,4.61,0,0,1-3.6,1.542A5.065,5.065,0,0,1-14.509-.949a3.9,3.9,0,0,1-1.378-3.059,4.031,4.031,0,0,1,1.681-3.48A8.294,8.294,0,0,1-9.347-8.714h1.753v-.817A2.351,2.351,0,0,0-8.1-11.114a2,2,0,0,0-1.6-.593,2.27,2.27,0,0,0-1.51.461A1.568,1.568,0,0,0-11.76-9.98h-3.81a3.827,3.827,0,0,1,.765-2.294,5.054,5.054,0,0,1,2.162-1.655,7.88,7.88,0,0,1,3.138-.6A6.225,6.225,0,0,1-5.32-13.2,4.635,4.635,0,0,1-3.771-9.479V-3.3A6.82,6.82,0,0,0-3.2-.224V0ZM-10.2-2.65a3.281,3.281,0,0,0,1.556-.376A2.468,2.468,0,0,0-7.594-4.034V-6.486H-9.018q-2.861,0-3.045,1.978l-.013.224a1.525,1.525,0,0,0,.5,1.173A1.946,1.946,0,0,0-10.2-2.65ZM2.663-14.265l.119,1.648a4.98,4.98,0,0,1,4.1-1.912A4.139,4.139,0,0,1,10.257-13.2a6.213,6.213,0,0,1,1.134,3.981V0H7.581V-9.123a2.472,2.472,0,0,0-.527-1.76A2.361,2.361,0,0,0,5.3-11.43a2.621,2.621,0,0,0-2.413,1.371V0H-.923V-14.265ZM22.544,0a4.231,4.231,0,0,1-.382-1.279,4.61,4.61,0,0,1-3.6,1.542A5.065,5.065,0,0,1,15.089-.949a3.9,3.9,0,0,1-1.378-3.059,4.031,4.031,0,0,1,1.681-3.48A8.294,8.294,0,0,1,20.25-8.714H22v-.817a2.351,2.351,0,0,0-.508-1.582,2,2,0,0,0-1.6-.593,2.27,2.27,0,0,0-1.51.461,1.568,1.568,0,0,0-.547,1.266h-3.81a3.827,3.827,0,0,1,.765-2.294,5.054,5.054,0,0,1,2.162-1.655,7.88,7.88,0,0,1,3.138-.6A6.225,6.225,0,0,1,24.278-13.2a4.635,4.635,0,0,1,1.549,3.724V-3.3a6.82,6.82,0,0,0,.567,3.072V0ZM19.393-2.65a3.281,3.281,0,0,0,1.556-.376A2.468,2.468,0,0,0,22-4.034V-6.486H20.58q-2.861,0-3.045,1.978l-.013.224a1.525,1.525,0,0,0,.5,1.173A1.946,1.946,0,0,0,19.393-2.65ZM32.774,0H28.951V-20.25h3.823Z" transform="translate(757.676 9368)" fill="#12263f"/>
  </g>
</svg>
