<svg xmlns="http://www.w3.org/2000/svg" xmlns:xlink="http://www.w3.org/1999/xlink" width="65" height="65" viewBox="0 0 65 65">
  <defs>
    <linearGradient id="linear-gradient" x1="0.5" x2="0.5" y2="1" gradientUnits="objectBoundingBox">
      <stop offset="0" stop-color="#039be5"/>
      <stop offset="1" stop-color="#027fbc"/>
    </linearGradient>
  </defs>
  <g id="Grupo_152009" data-name="Grupo 152009" transform="translate(-1359.676 -2127)">
    <g id="Grupo_142472" data-name="Grupo 142472" transform="translate(4.676 -3086)">
      <circle id="Elipse_4849" data-name="Elipse 4849" cx="32.5" cy="32.5" r="32.5" transform="translate(1355 5278) rotate(-90)" fill="url(#linear-gradient)"/>
      <path id="Unión_53" data-name="Unión 53" d="M4674.813,11736.45V11710.5l-11.868,11.858a2.9,2.9,0,0,1-4.1-4.113l17.525-17.486a2.894,2.894,0,0,1,4,.085l17.4,17.413a2.916,2.916,0,0,1,0,4.113,2.887,2.887,0,0,1-4.1,0l-11.865-11.872v25.949a3.5,3.5,0,1,1-7,0Z" transform="translate(-3290.299 -6472.477)" fill="#fff"/>
    </g>
  </g>
</svg>
