<svg xmlns="http://www.w3.org/2000/svg" width="177.506" height="179" viewBox="0 0 177.506 179">
  <g id="Grupo_152080" data-name="Grupo 152080" transform="translate(6704.83 -2870.479)">
    <path id="Trazado_194548" data-name="Trazado 194548" d="M73.76-41.152q0,20.645-8.545,31.582T40.2,1.367q-16.27,0-24.883-10.732T6.494-40.127v-18.32q0-20.85,8.647-31.65t24.917-10.8q16.27,0,24.883,10.7T73.76-59.473ZM54-61.295q0-12.386-3.384-18.031T40.059-84.971q-6.973,0-10.288,5.372T26.25-62.8v24.223q0,12.18,3.315,18.1T40.2-14.561q7.246,0,10.459-5.679T54-37.62ZM135.078,0H115.322V-76.152L91.738-68.838V-84.9l41.221-14.766h2.119Z" transform="translate(-6711.324 3002.479)" fill="#12263f" opacity="0.422"/>
    <rect id="Rectángulo_44868" data-name="Rectángulo 44868" width="8" height="179" transform="translate(-6535.324 2870.479)" fill="#12263f"/>
  </g>
</svg>
