<svg xmlns="http://www.w3.org/2000/svg" width="112" height="112" viewBox="0 0 112 112">
  <g id="Grupo_152039" data-name="Grupo 152039" transform="translate(-1073.676 -7387.662)">
    <g id="Grupo_152038" data-name="Grupo 152038">
      <circle id="Elipse_4775" data-name="Elipse 4775" cx="56" cy="56" r="56" transform="translate(1073.676 7387.662)" fill="#12263f"/>
    </g>
    <g id="Yl0wVf.tif" transform="translate(-2382.781 7710.399)">
      <g id="Grupo_151173" data-name="Grupo 151173" transform="translate(3482.457 -302.805)">
        <path id="Trazado_192850" data-name="Trazado 192850" d="M3514.284-302.8h1.011a11.286,11.286,0,0,1,1.444,1.343c2.5,3.277,4.957,6.583,7.428,9.88q1.722,2.3,3.442,4.592a1.864,1.864,0,0,1,.242,2.072,1.869,1.869,0,0,1-1.857,1.059c-.5-.015-1.01,0-1.514,0h-3.968v3.794h.787q9.97,0,19.941,0a5.467,5.467,0,0,1,4.8,2.408,13.948,13.948,0,0,1,1.081,2.517v32.082a.743.743,0,0,0-.075.17,5.945,5.945,0,0,1-6.192,4.782c-17.445-.058-34.89-.028-52.336-.028a5.7,5.7,0,0,1-6.063-6.088q0-14.867,0-29.735a5.7,5.7,0,0,1,6.109-6.106h20.5v-3.794c-1.831,0-3.617-.015-5.4.007a1.941,1.941,0,0,1-1.927-1.055,1.911,1.911,0,0,1,.307-2.175c.129-.166.252-.336.378-.5,3.469-4.627,6.93-9.262,10.421-13.872A11.106,11.106,0,0,1,3514.284-302.8Zm-25.092,26.55c.352.314.6.534.842.751l10.092,8.882q6.538,5.755,13.083,11.5a3.319,3.319,0,0,0,1.17.684c.933.284,1.578-.3,2.223-.866q11.529-10.162,23.069-20.312c.209-.184.409-.378.677-.626h-19.877v.728c0,1.641.01,3.283,0,4.924a1.816,1.816,0,0,1-1.753,1.871q-3.913.04-7.827,0a1.82,1.82,0,0,1-1.773-1.852c-.017-1.178,0-2.357,0-3.535v-2.153Zm16.705,19.793-16.662,14.5h51.111l-16.666-14.5c-1.631,1.434-3.241,2.851-4.854,4.264a5.728,5.728,0,0,1-8.083-.007C3509.131-253.618,3507.522-255.035,3505.9-256.462Zm-19.621,12.016L3503.014-259l-16.738-14.734Zm57.009-.016v-29.262L3526.565-259Zm-20.928-43.183-7.571-10.087-7.559,10.087c1.265,0,2.358,0,3.452,0a1.927,1.927,0,0,1,2.212,2.186q0,6.124,0,12.248v.68h3.794v-.729q0-6.124,0-12.248a1.906,1.906,0,0,1,2.134-2.136C3519.949-287.648,3521.077-287.646,3522.357-287.646Z" transform="translate(-3482.457 302.805)" fill="#fff"/>
      </g>
    </g>
  </g>
</svg>
