<svg id="Grupo_152067" data-name="Grupo 152067" xmlns="http://www.w3.org/2000/svg" xmlns:xlink="http://www.w3.org/1999/xlink" width="285.031" height="71.594" viewBox="0 0 285.031 71.594">
  <defs>
    <linearGradient id="linear-gradient" x1="0.5" x2="0.5" y2="1" gradientUnits="objectBoundingBox">
      <stop offset="0" stop-color="#039be5"/>
      <stop offset="1" stop-color="#027fbc"/>
    </linearGradient>
  </defs>
  <rect id="Rect치ngulo_37703" data-name="Rect치ngulo 37703" width="283.654" height="71.594" rx="10" transform="translate(1.377)" fill="url(#linear-gradient)"/>
  <g id="Rect치ngulo_37706" data-name="Rect치ngulo 37706" fill="#fff" stroke="#afafaf" stroke-width="1">
    <rect width="67.464" height="71.594" rx="10" stroke="none"/>
    <rect x="0.5" y="0.5" width="66.464" height="70.594" rx="9.5" fill="none"/>
  </g>
  <path id="Trazado_194547" data-name="Trazado 194547" d="M-39.615-4.477a1.8,1.8,0,0,0-.7-1.529A9.222,9.222,0,0,0-42.85-7.131,17.944,17.944,0,0,1-45.744-8.3q-2.906-1.57-2.906-4.23a4.12,4.12,0,0,1,.779-2.467,5.083,5.083,0,0,1,2.238-1.693,8.425,8.425,0,0,1,3.275-.609,7.668,7.668,0,0,1,3.258.662,5.187,5.187,0,0,1,2.221,1.869,4.891,4.891,0,0,1,.791,2.742H-39.6a2.3,2.3,0,0,0-.738-1.822,3.035,3.035,0,0,0-2.074-.65,3.242,3.242,0,0,0-2,.545,1.719,1.719,0,0,0-.715,1.436,1.646,1.646,0,0,0,.838,1.395,9.466,9.466,0,0,0,2.467,1.055,10.658,10.658,0,0,1,4.371,2.238A4.458,4.458,0,0,1-36.088-4.5a4.106,4.106,0,0,1-1.676,3.475A7.336,7.336,0,0,1-42.275.234a8.712,8.712,0,0,1-3.586-.721,5.674,5.674,0,0,1-2.467-1.975,5.057,5.057,0,0,1-.85-2.906h3.527q0,2.824,3.375,2.824a3.283,3.283,0,0,0,1.957-.51A1.658,1.658,0,0,0-39.615-4.477ZM-28.1.234a6.225,6.225,0,0,1-4.541-1.711,6.082,6.082,0,0,1-1.752-4.559v-.328a7.66,7.66,0,0,1,.738-3.416,5.418,5.418,0,0,1,2.092-2.32,5.871,5.871,0,0,1,3.088-.814,5.262,5.262,0,0,1,4.1,1.641,6.667,6.667,0,0,1,1.494,4.652v1.383h-8.074a3.146,3.146,0,0,0,.99,1.992,2.993,2.993,0,0,0,2.092.75,3.656,3.656,0,0,0,3.059-1.418l1.664,1.863A5.084,5.084,0,0,1-25.213-.369,6.767,6.767,0,0,1-28.1.234Zm-.387-10.418a2.116,2.116,0,0,0-1.635.683,3.535,3.535,0,0,0-.8,1.954h4.711v-.271a2.521,2.521,0,0,0-.609-1.748A2.183,2.183,0,0,0-28.482-10.184Zm14.648.68A9.2,9.2,0,0,0-15.053-9.6a2.481,2.481,0,0,0-2.52,1.3V0h-3.387V-12.68h3.2l.094,1.512a3.138,3.138,0,0,1,2.824-1.746,3.549,3.549,0,0,1,1.055.152Zm6.586,5.367,2.355-8.543h3.539L-5.631,0H-8.865l-4.277-12.68H-9.6ZM3.709,0H.311V-12.68h3.4ZM.111-15.961a1.668,1.668,0,0,1,.51-1.254,1.915,1.915,0,0,1,1.389-.492,1.919,1.919,0,0,1,1.383.492,1.658,1.658,0,0,1,.516,1.254A1.663,1.663,0,0,1,3.387-14.7,1.924,1.924,0,0,1,2.01-14.2,1.924,1.924,0,0,1,.633-14.7,1.663,1.663,0,0,1,.111-15.961ZM11.771-2.5a2.221,2.221,0,0,0,1.523-.516A1.807,1.807,0,0,0,13.9-4.383H17.08a4.344,4.344,0,0,1-.7,2.361A4.64,4.64,0,0,1,14.484-.357,5.923,5.923,0,0,1,11.83.234,5.5,5.5,0,0,1,7.541-1.494,6.84,6.84,0,0,1,5.971-6.27v-.223a6.762,6.762,0,0,1,1.559-4.676,5.441,5.441,0,0,1,4.277-1.746,5.333,5.333,0,0,1,3.814,1.354,4.792,4.792,0,0,1,1.459,3.6H13.9a2.327,2.327,0,0,0-.609-1.608,2.032,2.032,0,0,0-1.547-.619,2.04,2.04,0,0,0-1.787.863,5,5,0,0,0-.6,2.8v.352a5.063,5.063,0,0,0,.6,2.817A2.065,2.065,0,0,0,11.771-2.5ZM22.588,0h-3.4V-12.68h3.4Zm-3.6-15.961a1.668,1.668,0,0,1,.51-1.254,1.915,1.915,0,0,1,1.389-.492,1.919,1.919,0,0,1,1.383.492,1.658,1.658,0,0,1,.516,1.254,1.663,1.663,0,0,1-.521,1.266,1.924,1.924,0,0,1-1.377.492,1.924,1.924,0,0,1-1.377-.492A1.663,1.663,0,0,1,18.99-15.961Zm5.859,9.5a7.52,7.52,0,0,1,.727-3.363,5.319,5.319,0,0,1,2.092-2.285,6.1,6.1,0,0,1,3.17-.809,5.774,5.774,0,0,1,4.189,1.57,6.3,6.3,0,0,1,1.811,4.266l.023.867a6.627,6.627,0,0,1-1.629,4.682A5.662,5.662,0,0,1,30.861.234a5.69,5.69,0,0,1-4.377-1.758A6.744,6.744,0,0,1,24.85-6.3Zm3.387.24a4.74,4.74,0,0,0,.68,2.764,2.242,2.242,0,0,0,1.945.957,2.247,2.247,0,0,0,1.922-.945,5.186,5.186,0,0,0,.691-3.022,4.692,4.692,0,0,0-.691-2.746,2.248,2.248,0,0,0-1.945-.974,2.211,2.211,0,0,0-1.922.968A5.274,5.274,0,0,0,28.236-6.217ZM45.814-3.5a1.091,1.091,0,0,0-.615-.979,6.989,6.989,0,0,0-1.975-.639Q38.7-6.07,38.7-8.965a3.484,3.484,0,0,1,1.4-2.818,5.649,5.649,0,0,1,3.662-1.131,6.08,6.08,0,0,1,3.861,1.137,3.582,3.582,0,0,1,1.447,2.953H45.686a1.639,1.639,0,0,0-.469-1.2,1.984,1.984,0,0,0-1.465-.475,2.027,2.027,0,0,0-1.324.387,1.221,1.221,0,0,0-.469.984,1.044,1.044,0,0,0,.533.908,5.485,5.485,0,0,0,1.8.6,14.693,14.693,0,0,1,2.133.568q2.684.984,2.684,3.41A3.307,3.307,0,0,1,47.619-.838,6.42,6.42,0,0,1,43.775.234a6.706,6.706,0,0,1-2.83-.568,4.748,4.748,0,0,1-1.939-1.559,3.621,3.621,0,0,1-.7-2.139h3.211a1.768,1.768,0,0,0,.668,1.383,2.649,2.649,0,0,0,1.664.48,2.452,2.452,0,0,0,1.471-.369A1.149,1.149,0,0,0,45.814-3.5Z" transform="translate(175.399 44.405)" fill="#fff"/>
  <g id="jqVasm" transform="translate(-4730.21 4666.066)">
    <g id="Grupo_151310" data-name="Grupo 151310" transform="translate(4735.688 -4658.54)">
      <path id="Trazado_193284" data-name="Trazado 193284" d="M4751.473-4539.47c-2.056.63-4.157,1.145-6.155,1.922-2.508.977-4.939,2.157-7.389,3.279-.819.375-1.576.543-2.062-.41-.5-.99.141-1.5.942-1.851,3.293-1.433,6.515-3.087,9.91-4.217,5.473-1.823,10.557-1.2,14.677,3.363a4.714,4.714,0,0,0,5.74.783c2.013-1.25,3.987-2.563,6.041-3.74,2.64-1.512,5.323-1.932,7.983.052a1.527,1.527,0,0,0,1.013.13c1.993-.277,3.87-.172,5.479,1.268a1.747,1.747,0,0,0,1.112.2c.469-.018.93-.195,1.4-.224a3.909,3.909,0,0,1,3.992,1.9,3.468,3.468,0,0,1-.555,4.321,14.432,14.432,0,0,1-2.775,2.412c-6.43,4.188-12.922,8.28-19.341,12.484a9.357,9.357,0,0,1-9.949.584c-3.561-1.773-7.126-3.54-10.643-5.4a3.494,3.494,0,0,0-4.2.248c-.817.638-1.755,1.121-2.627,1.691-.744.485-1.486.547-1.961-.268-.459-.789-.1-1.454.666-1.9.124-.071.246-.145.365-.222,5.431-3.534,5.431-3.535,11.2-.613,2.741,1.387,5.486,2.766,8.22,4.167a6.91,6.91,0,0,0,7.5-.394c6.533-4.289,13.14-8.466,19.7-12.712a7.689,7.689,0,0,0,1.808-1.582c.308-.382.591-1.244.4-1.472a2.063,2.063,0,0,0-1.643-.741,15.137,15.137,0,0,0-3.891,1.625c-3.7,2.308-7.255,4.842-10.991,7.081a10,10,0,0,1-4.509,1.382c-4.781.21-9.583.248-14.262-1.081-.365-.1-.873-.116-1.052-.362-.3-.409-.649-1.115-.482-1.434a1.731,1.731,0,0,1,1.413-.742c1.826.23,3.619.835,5.444.937,3.36.187,6.734.18,10.1.112.959-.019,2.017-.414,2.071-1.729.056-1.376-.9-1.792-2-1.924-2.582-.308-5.187-.461-7.753-.861a9.276,9.276,0,0,1-5.973-3.242c-1.761-2.129-4.245-2.5-6.841-2.436Zm34.115,2.18a3.3,3.3,0,0,0-3.561-.018c-2.068,1.229-4.1,2.518-6.206,3.817l.942,1.993Zm-15.331,2.206c1.116,0,2.395.352,3.314-.073a53.5,53.5,0,0,0,5.562-3.359C4777.069-4540,4774.213-4538.3,4770.257-4535.084Z" transform="translate(-4735.688 4575)" fill="#12263f"/>
      <path id="Trazado_193285" data-name="Trazado 193285" d="M4811.1-4651.345c-.757,1.108-1.5,2.08-2.1,3.134a2.865,2.865,0,0,0-.271,1.612c.082.812.666,1.07,1.479,1.206,4.164.694,3.831.116,3.819,4.259-.007,2.2-.02,2.223-2.206,2.665-.649.131-1.307.223-1.949.377a1.631,1.631,0,0,0-1.027,2.62c2.66,3.846,2.771,2.776-.567,6.25-.938.977-1.761,1.13-2.8.235-.536-.462-1.15-.833-1.732-1.241a1.679,1.679,0,0,0-2.825,1.193c-.741,4.282-.167,3.844-4.395,3.847-2.029,0-2.145-.1-2.509-2.037-.122-.651-.217-1.308-.36-1.954a1.692,1.692,0,0,0-2.788-1.146c-3.851,2.7-2.958,2.4-6.171-.642-.983-.931-1.142-1.761-.243-2.8.463-.537.841-1.146,1.254-1.724.9-1.264.337-2.5-1.221-2.818-4.246-.854-3.783-.124-3.795-4.469-.006-2.05.041-2.1,2.052-2.506.649-.13,1.309-.211,1.956-.348a1.681,1.681,0,0,0,1.08-2.784c-2.64-3.748-2.348-2.963.566-5.944,1.361-1.392,1.509-1.385,3.105-.253.541.383,1.066.789,1.609,1.169a1.706,1.706,0,0,0,2.736-1.12c.87-4.545.139-3.889,4.75-3.971,1.291-.023,2.1.321,2.179,1.771a14.614,14.614,0,0,0,.4,2.231,1.647,1.647,0,0,0,2.752,1.1c3.688-2.613,2.792-2.577,6.008.594A18.139,18.139,0,0,1,4811.1-4651.345Zm-3.3.306-.892-1.417c-1.94,1.159-3.162,2.694-5.862,1.6-2.778-1.127-2.039-3.36-2.823-5.015-1.289-.349-1.887.064-1.9,1.341a4.491,4.491,0,0,1-.3,1.665,2.585,2.585,0,0,1-.958,1.293c-3.35,1.731-3.361,1.707-6.407-.506-.185-.134-.39-.241-.653-.4l-1.125,1.21c1.1,1.821,2.524,3.026,1.475,5.669-1.107,2.79-3.292,2.135-5.46,3.035.45.637.813,1.588,1.169,1.586,2.6-.016,3.972,1.3,4.511,3.71.01.044.061.086.058.127a6.008,6.008,0,0,1-.187,2.059,18.265,18.265,0,0,1-1.748,2.56l1.233,1.146c1.814-1.064,3.066-2.585,5.744-1.494,2.752,1.122,2.1,3.321,3.026,5.485.629-.458,1.551-.814,1.557-1.185a4.266,4.266,0,0,1,3.515-4.54,2.655,2.655,0,0,1,2.725.3c.694.554,1.446,1.035,2.21,1.576l1.151-1.215c-1.068-1.8-2.645-3.026-1.537-5.72,1.128-2.742,3.315-2.11,5.063-2.836.129-1.641.129-1.639-1.3-1.864a7.192,7.192,0,0,1-1.805-.334,3.027,3.027,0,0,1-1.328-1.114c-1.342-2.276-1.5-4.475.7-6.395C4807.746-4650.8,4807.77-4650.97,4807.8-4651.04Z" transform="translate(-4767.853 4658.539)" fill="#12263f"/>
      <path id="Trazado_193286" data-name="Trazado 193286" d="M4823.066-4609.6a6.274,6.274,0,0,1-6.411-6.358,6.447,6.447,0,0,1,6.407-6.45,6.588,6.588,0,0,1,6.406,6.508A6.431,6.431,0,0,1,4823.066-4609.6Zm3.86-6.325a3.966,3.966,0,0,0-3.857-3.942,3.9,3.9,0,0,0-3.924,3.851,3.868,3.868,0,0,0,3.844,3.927A3.894,3.894,0,0,0,4826.926-4615.926Z" transform="translate(-4793.578 4632.708)" fill="#12263f"/>
    </g>
  </g>
</svg>
