<svg id="Grupo_152066" data-name="Grupo 152066" xmlns="http://www.w3.org/2000/svg" xmlns:xlink="http://www.w3.org/1999/xlink" width="285.031" height="71.594" viewBox="0 0 285.031 71.594">
  <defs>
    <linearGradient id="linear-gradient" x1="0.5" x2="0.5" y2="1" gradientUnits="objectBoundingBox">
      <stop offset="0" stop-color="#039be5"/>
      <stop offset="1" stop-color="#027fbc"/>
    </linearGradient>
  </defs>
  <rect id="Rect치ngulo_37703" data-name="Rect치ngulo 37703" width="283.654" height="71.594" rx="10" transform="translate(1.377)" fill="url(#linear-gradient)"/>
  <g id="Rect치ngulo_37706" data-name="Rect치ngulo 37706" fill="#fff" stroke="#afafaf" stroke-width="1">
    <rect width="67.464" height="71.594" rx="10" stroke="none"/>
    <rect x="0.5" y="0.5" width="66.464" height="70.594" rx="9.5" fill="none"/>
  </g>
  <path id="Trazado_194546" data-name="Trazado 194546" d="M-58.33-3.516h-6.164L-65.666,0H-69.4l6.352-17.062h3.258L-53.408,0h-3.738Zm-5.215-2.848h4.266l-2.145-6.387Zm22.922.141a7.6,7.6,0,0,1-1.33,4.693A4.264,4.264,0,0,1-45.545.234,3.95,3.95,0,0,1-48.65-1.1V4.875h-3.387V-12.68H-48.9l.117,1.242a3.98,3.98,0,0,1,3.211-1.477,4.294,4.294,0,0,1,3.645,1.734,7.811,7.811,0,0,1,1.3,4.781Zm-3.387-.246a4.99,4.99,0,0,0-.627-2.73,2.042,2.042,0,0,0-1.822-.961A2.218,2.218,0,0,0-48.65-8.941V-3.75A2.255,2.255,0,0,0-46.436-2.5Q-44.01-2.5-44.01-6.469ZM-34.951,0h-3.4V-18h3.4Zm6.363,0h-3.4V-12.68h3.4Zm-3.6-15.961a1.668,1.668,0,0,1,.51-1.254,1.915,1.915,0,0,1,1.389-.492,1.919,1.919,0,0,1,1.383.492,1.658,1.658,0,0,1,.516,1.254A1.663,1.663,0,0,1-28.91-14.7a1.924,1.924,0,0,1-1.377.492,1.924,1.924,0,0,1-1.377-.492A1.663,1.663,0,0,1-32.186-15.961ZM-20.525-2.5A2.221,2.221,0,0,0-19-3.012a1.807,1.807,0,0,0,.609-1.371h3.176a4.344,4.344,0,0,1-.7,2.361A4.64,4.64,0,0,1-17.812-.357a5.923,5.923,0,0,1-2.654.592,5.5,5.5,0,0,1-4.289-1.729,6.84,6.84,0,0,1-1.57-4.775v-.223a6.762,6.762,0,0,1,1.559-4.676,5.441,5.441,0,0,1,4.277-1.746,5.333,5.333,0,0,1,3.814,1.354,4.792,4.792,0,0,1,1.459,3.6h-3.176A2.327,2.327,0,0,0-19-9.565a2.032,2.032,0,0,0-1.547-.619,2.04,2.04,0,0,0-1.787.863,5,5,0,0,0-.6,2.8v.352a5.063,5.063,0,0,0,.6,2.817A2.065,2.065,0,0,0-20.525-2.5ZM-5.936,0a3.761,3.761,0,0,1-.34-1.137A4.1,4.1,0,0,1-9.475.234,4.5,4.5,0,0,1-12.562-.844a3.467,3.467,0,0,1-1.225-2.719,3.583,3.583,0,0,1,1.494-3.094,7.373,7.373,0,0,1,4.318-1.09h1.559v-.727a2.089,2.089,0,0,0-.451-1.406,1.775,1.775,0,0,0-1.424-.527A2.018,2.018,0,0,0-9.633-10a1.393,1.393,0,0,0-.486,1.125h-3.387a3.4,3.4,0,0,1,.68-2.039A4.493,4.493,0,0,1-10.9-12.381a7,7,0,0,1,2.789-.533,5.534,5.534,0,0,1,3.721,1.178A4.12,4.12,0,0,1-3.018-8.426v5.5a6.062,6.062,0,0,0,.5,2.73V0Zm-2.8-2.355a2.917,2.917,0,0,0,1.383-.334,2.194,2.194,0,0,0,.938-.9v-2.18H-7.682q-2.543,0-2.707,1.758l-.012.2a1.356,1.356,0,0,0,.445,1.043A1.73,1.73,0,0,0-8.736-2.355ZM4.857-2.5a2.221,2.221,0,0,0,1.523-.516A1.807,1.807,0,0,0,6.99-4.383h3.176a4.344,4.344,0,0,1-.7,2.361A4.64,4.64,0,0,1,7.57-.357,5.923,5.923,0,0,1,4.916.234,5.5,5.5,0,0,1,.627-1.494,6.84,6.84,0,0,1-.943-6.27v-.223A6.762,6.762,0,0,1,.615-11.168a5.441,5.441,0,0,1,4.277-1.746,5.333,5.333,0,0,1,3.814,1.354,4.792,4.792,0,0,1,1.459,3.6H6.99a2.327,2.327,0,0,0-.609-1.608,2.032,2.032,0,0,0-1.547-.619,2.04,2.04,0,0,0-1.787.863,5,5,0,0,0-.6,2.8v.352a5.063,5.063,0,0,0,.6,2.817A2.065,2.065,0,0,0,4.857-2.5ZM15.674,0h-3.4V-12.68h3.4Zm-3.6-15.961a1.668,1.668,0,0,1,.51-1.254,1.915,1.915,0,0,1,1.389-.492,1.919,1.919,0,0,1,1.383.492,1.658,1.658,0,0,1,.516,1.254,1.663,1.663,0,0,1-.521,1.266,1.924,1.924,0,0,1-1.377.492A1.924,1.924,0,0,1,12.6-14.7,1.663,1.663,0,0,1,12.076-15.961Zm5.859,9.5a7.52,7.52,0,0,1,.727-3.363,5.319,5.319,0,0,1,2.092-2.285,6.1,6.1,0,0,1,3.17-.809,5.774,5.774,0,0,1,4.189,1.57,6.3,6.3,0,0,1,1.811,4.266l.023.867a6.627,6.627,0,0,1-1.629,4.682A5.662,5.662,0,0,1,23.947.234,5.69,5.69,0,0,1,19.57-1.523,6.744,6.744,0,0,1,17.936-6.3Zm3.387.24A4.74,4.74,0,0,0,22-3.453a2.242,2.242,0,0,0,1.945.957,2.247,2.247,0,0,0,1.922-.945,5.186,5.186,0,0,0,.691-3.022,4.692,4.692,0,0,0-.691-2.746,2.248,2.248,0,0,0-1.945-.974A2.211,2.211,0,0,0,22-9.215,5.274,5.274,0,0,0,21.322-6.217ZM35.15-12.68l.105,1.465a4.427,4.427,0,0,1,3.645-1.7,3.679,3.679,0,0,1,3,1.184,5.522,5.522,0,0,1,1.008,3.539V0H39.521V-8.109a2.2,2.2,0,0,0-.469-1.564,2.1,2.1,0,0,0-1.559-.486A2.33,2.33,0,0,0,35.35-8.941V0H31.963V-12.68ZM51.311.234A6.225,6.225,0,0,1,46.77-1.477a6.082,6.082,0,0,1-1.752-4.559v-.328a7.66,7.66,0,0,1,.738-3.416,5.418,5.418,0,0,1,2.092-2.32,5.871,5.871,0,0,1,3.088-.814,5.262,5.262,0,0,1,4.1,1.641,6.667,6.667,0,0,1,1.494,4.652v1.383H48.451a3.146,3.146,0,0,0,.99,1.992,2.993,2.993,0,0,0,2.092.75,3.656,3.656,0,0,0,3.059-1.418l1.664,1.863A5.084,5.084,0,0,1,54.193-.369,6.767,6.767,0,0,1,51.311.234Zm-.387-10.418a2.116,2.116,0,0,0-1.635.683,3.535,3.535,0,0,0-.8,1.954H53.2v-.271a2.521,2.521,0,0,0-.609-1.748A2.183,2.183,0,0,0,50.924-10.184ZM65.314-3.5a1.091,1.091,0,0,0-.615-.979,6.989,6.989,0,0,0-1.975-.639Q58.2-6.07,58.2-8.965a3.484,3.484,0,0,1,1.4-2.818,5.649,5.649,0,0,1,3.662-1.131,6.08,6.08,0,0,1,3.861,1.137,3.582,3.582,0,0,1,1.447,2.953H65.186a1.639,1.639,0,0,0-.469-1.2,1.984,1.984,0,0,0-1.465-.475,2.027,2.027,0,0,0-1.324.387,1.221,1.221,0,0,0-.469.984,1.044,1.044,0,0,0,.533.908,5.485,5.485,0,0,0,1.8.6,14.693,14.693,0,0,1,2.133.568q2.684.984,2.684,3.41A3.307,3.307,0,0,1,67.119-.838,6.42,6.42,0,0,1,63.275.234a6.706,6.706,0,0,1-2.83-.568,4.748,4.748,0,0,1-1.939-1.559,3.621,3.621,0,0,1-.7-2.139h3.211a1.768,1.768,0,0,0,.668,1.383,2.649,2.649,0,0,0,1.664.48,2.452,2.452,0,0,0,1.471-.369A1.149,1.149,0,0,0,65.314-3.5Z" transform="translate(175.399 44.405)" fill="#fff"/>
  <g id="T8n5iG.tif" transform="translate(-4742.417 4654.744)">
    <g id="Grupo_151309" data-name="Grupo 151309" transform="translate(4755.855 -4647.146)">
      <path id="Trazado_193272" data-name="Trazado 193272" d="M4758.945-4592.833c-2.5-1.417-3.107-3.625-3.089-6.39.088-13.92.036-27.841.043-41.761,0-4.771,1.4-6.159,6.166-6.159q10.338,0,20.676,0c3.913.005,5.65,1.708,5.667,5.671.033,7.773.059,15.547-.028,23.319a4.679,4.679,0,0,0,1.691,4.054c1.51,1.255,2.9,2.657,4.45,4.1l-1.354,1.439a4.044,4.044,0,0,1-.579-.384c-2.591-2.594-5.165-5.2-7.764-7.789-1.822-1.812-3.452-2.057-4.767-.766-1.336,1.312-1.128,2.978.635,4.781,1.576,1.614,3.135,3.25,4.788,4.781a2.041,2.041,0,0,1,.436,2.956,20.432,20.432,0,0,0-2.9,12.149Zm-1.132-7.192c-.369,4.511.37,5.354,4.485,5.358,5.559,0,11.119-.056,16.675.036,1.6.027,2.082-.475,2.385-2.062a44.945,44.945,0,0,1,2.337-8.05,2.16,2.16,0,0,0-.539-2.866,52.4,52.4,0,0,1-4.931-5.216,4.464,4.464,0,0,1,.49-5.973,4.762,4.762,0,0,1,6-.487c.5.336.99.692,1.557,1.089V-4639.8H4757.84v37.873h2.451c6.052,0,12.1.009,18.154-.007,1.283,0,2.3.123,1.475,1.913Zm28.4-41.8c.262-2.254-.453-3.4-2.577-3.427q-11.493-.144-22.99-.01c-2.121.023-2.779,1-2.809,3.437Z" transform="translate(-4755.855 4647.146)" fill="#12263f"/>
      <path id="Trazado_193273" data-name="Trazado 193273" d="M4842.774-4564.682c-.01-6.843-.086-13.688,0-20.531a8.644,8.644,0,0,0-3.3-7.389c-1.473-1.183-2.792-2.559-4.319-3.978l1.283-1.391a63.967,63.967,0,0,1,6.2,6.058,8.93,8.93,0,0,1,1.778,5.01c.176,7.4.056,14.813.043,22.22Z" transform="translate(-4801.25 4618.996)" fill="#12263f"/>
      <path id="Trazado_193274" data-name="Trazado 193274" d="M4764.194-4622.7c.009-3.073.445-3.471,3.8-3.465,3.212,0,3.57.4,3.549,3.925-.019,3.106-.434,3.485-3.8,3.474C4764.557-4618.782,4764.185-4619.195,4764.194-4622.7Zm5.315,1.9v-3.26h-3.236v3.26Z" transform="translate(-4760.629 4635.138)" fill="#12263f"/>
      <path id="Trazado_193275" data-name="Trazado 193275" d="M4792.636-4622.531c0,3.368-.39,3.764-3.72,3.76-3.231,0-3.622-.4-3.626-3.647,0-3.382.364-3.754,3.721-3.752C4792.221-4626.167,4792.632-4625.754,4792.636-4622.531Zm-2.1,1.764v-3.311h-3.192v3.311Z" transform="translate(-4772.705 4635.138)" fill="#12263f"/>
      <path id="Trazado_193276" data-name="Trazado 193276" d="M4764.195-4559.08c0-3.237.38-3.579,3.9-3.569,3.079.01,3.451.423,3.44,3.822-.01,3.194-.408,3.58-3.7,3.578S4764.19-4555.648,4764.195-4559.08Zm5.321,1.83v-3.3h-3.174v3.3Z" transform="translate(-4760.629 4598.776)" fill="#12263f"/>
      <path id="Trazado_193277" data-name="Trazado 193277" d="M4792.635-4558.836c0,3.179-.422,3.587-3.681,3.587-3.306,0-3.675-.385-3.664-3.819.01-3.234.4-3.591,3.892-3.58C4792.246-4562.639,4792.639-4562.206,4792.635-4558.836Zm-5.387,1.555h3.248v-3.235h-3.248Z" transform="translate(-4772.705 4598.776)" fill="#12263f"/>
      <path id="Trazado_193278" data-name="Trazado 193278" d="M4767.833-4597.56c-3.295,0-3.644-.369-3.639-3.82,0-3.206.352-3.536,3.706-3.534,3.336,0,3.653.334,3.64,3.813C4771.528-4597.933,4771.136-4597.559,4767.833-4597.56Zm1.647-2.058v-3.275H4766.3v3.275Z" transform="translate(-4760.629 4622.971)" fill="#12263f"/>
      <path id="Trazado_193279" data-name="Trazado 193279" d="M4788.879-4597.561c-3.223,0-3.587-.374-3.589-3.659,0-3.393.313-3.7,3.757-3.695,3.293.008,3.6.334,3.589,3.864C4792.627-4597.935,4792.222-4597.559,4788.879-4597.561Zm-1.583-5.423v3.269h3.212v-3.269Z" transform="translate(-4772.705 4622.971)" fill="#12263f"/>
      <path id="Trazado_193280" data-name="Trazado 193280" d="M4813.724-4622.478c0,3.354-.324,3.7-3.488,3.706-3.386.009-3.7-.3-3.7-3.708,0-3.484.212-3.7,3.7-3.691C4813.486-4626.166,4813.723-4625.914,4813.724-4622.478Zm-5.235-1.607v3.27h3.319v-3.27Z" transform="translate(-4784.869 4635.138)" fill="#12263f"/>
      <path id="Trazado_193281" data-name="Trazado 193281" d="M4767.863-4576.4c-3.481,0-3.672-.194-3.668-3.713,0-3.267.256-3.508,3.665-3.508s3.688.292,3.68,3.714C4771.533-4576.7,4771.216-4576.4,4767.863-4576.4Zm1.688-5.269h-3.237v3.343h3.237Z" transform="translate(-4760.629 4610.779)" fill="#12263f"/>
      <path id="Trazado_193282" data-name="Trazado 193282" d="M4788.891-4576.4c-3.29,0-3.6-.31-3.6-3.583,0-3.394.271-3.644,3.966-3.638,3.155.005,3.386.264,3.378,3.8C4792.628-4576.609,4792.394-4576.394,4788.891-4576.4Zm1.659-5.273h-3.221v3.339h3.221Z" transform="translate(-4772.705 4610.779)" fill="#12263f"/>
      <path id="Trazado_193283" data-name="Trazado 193283" d="M4813.724-4601.007c-.005,3.226-.247,3.451-3.714,3.446-3.3,0-3.477-.2-3.472-3.9,0-3.187.3-3.463,3.714-3.454C4813.487-4604.905,4813.729-4604.631,4813.724-4601.007Zm-5.239-1.917v3.2h3.346v-3.2Z" transform="translate(-4784.868 4622.971)" fill="#12263f"/>
    </g>
  </g>
</svg>
