<svg xmlns="http://www.w3.org/2000/svg" xmlns:xlink="http://www.w3.org/1999/xlink" width="246" height="187" viewBox="0 0 246 187">
  <defs>
    <filter id="Rect치ngulo_44441" x="0" y="0" width="246" height="187" filterUnits="userSpaceOnUse">
      <feOffset dy="3" input="SourceAlpha"/>
      <feGaussianBlur stdDeviation="3" result="blur"/>
      <feFlood flood-opacity="0.161"/>
      <feComposite operator="in" in2="blur"/>
      <feComposite in="SourceGraphic"/>
    </filter>
  </defs>
  <g id="Grupo_152031" data-name="Grupo 152031" transform="translate(-1156.676 -2608)">
    <g id="Grupo_152030" data-name="Grupo 152030">
      <g transform="matrix(1, 0, 0, 1, 1156.68, 2608)" filter="url(#Rect치ngulo_44441)">
        <rect id="Rect치ngulo_44441-2" data-name="Rect치ngulo 44441" width="228" height="169" rx="10" transform="translate(9 6)" fill="#fff"/>
      </g>
      <path id="Trazado_194464" data-name="Trazado 194464" d="M62.48,12.836H60.613V17H58.27V5.625H62.5a4.778,4.778,0,0,1,3.109.9A3.1,3.1,0,0,1,66.7,9.063,3.5,3.5,0,0,1,66.2,11a3.437,3.437,0,0,1-1.527,1.238l2.461,4.648V17H64.613Zm-1.867-1.9H62.5a1.936,1.936,0,0,0,1.367-.449,1.606,1.606,0,0,0,.484-1.238A1.719,1.719,0,0,0,63.9,7.984a1.9,1.9,0,0,0-1.4-.461H60.613Zm11.609,6.219A4.15,4.15,0,0,1,69.2,16.016a4.054,4.054,0,0,1-1.168-3.039v-.219a5.106,5.106,0,0,1,.492-2.277,3.612,3.612,0,0,1,1.395-1.547,3.914,3.914,0,0,1,2.059-.543A3.508,3.508,0,0,1,74.7,9.484a4.444,4.444,0,0,1,1,3.1v.922H70.316a2.1,2.1,0,0,0,.66,1.328,2,2,0,0,0,1.395.5,2.437,2.437,0,0,0,2.039-.945l1.109,1.242a3.389,3.389,0,0,1-1.375,1.121A4.511,4.511,0,0,1,72.223,17.156Zm-.258-6.945a1.411,1.411,0,0,0-1.09.455,2.357,2.357,0,0,0-.535,1.3H73.48v-.181a1.681,1.681,0,0,0-.406-1.165A1.456,1.456,0,0,0,71.965,10.211ZM80.5,15.336a1.481,1.481,0,0,0,1.016-.344,1.2,1.2,0,0,0,.406-.914h2.117a2.9,2.9,0,0,1-.469,1.574A3.093,3.093,0,0,1,82.3,16.762a3.949,3.949,0,0,1-1.77.395A3.67,3.67,0,0,1,77.676,16a4.56,4.56,0,0,1-1.047-3.184v-.148a4.508,4.508,0,0,1,1.039-3.117A3.627,3.627,0,0,1,80.52,8.391a3.555,3.555,0,0,1,2.543.9,3.2,3.2,0,0,1,.973,2.4H81.918a1.551,1.551,0,0,0-.406-1.072,1.51,1.51,0,0,0-2.223.163,3.333,3.333,0,0,0-.4,1.866v.235a3.375,3.375,0,0,0,.4,1.878A1.377,1.377,0,0,0,80.5,15.336Zm9.891.8a2.831,2.831,0,0,1-2.312,1.016A2.67,2.67,0,0,1,86,16.375a3.335,3.335,0,0,1-.73-2.289V8.547h2.258v5.467q0,1.322,1.2,1.322a1.63,1.63,0,0,0,1.578-.8V8.547h2.266V17H90.449Zm8.641-5.477a6.134,6.134,0,0,0-.812-.062,1.654,1.654,0,0,0-1.68.867V17H94.277V8.547H96.41l.063,1.008a2.092,2.092,0,0,1,1.883-1.164,2.366,2.366,0,0,1,.7.1Zm5.664,4a.727.727,0,0,0-.41-.652,4.659,4.659,0,0,0-1.316-.426q-3.016-.633-3.016-2.562a2.323,2.323,0,0,1,.934-1.879,3.766,3.766,0,0,1,2.441-.754,4.053,4.053,0,0,1,2.574.758,2.388,2.388,0,0,1,.965,1.969h-2.258a1.092,1.092,0,0,0-.312-.8,1.322,1.322,0,0,0-.977-.316,1.351,1.351,0,0,0-.883.258.814.814,0,0,0-.312.656.7.7,0,0,0,.355.605,3.657,3.657,0,0,0,1.2.4,9.8,9.8,0,0,1,1.422.379,2.336,2.336,0,0,1,1.789,2.273,2.2,2.2,0,0,1-.992,1.871,4.28,4.28,0,0,1-2.562.715,4.47,4.47,0,0,1-1.887-.379,3.166,3.166,0,0,1-1.293-1.039,2.414,2.414,0,0,1-.469-1.426h2.141a1.179,1.179,0,0,0,.445.922,1.766,1.766,0,0,0,1.109.32,1.635,1.635,0,0,0,.98-.246A.766.766,0,0,0,104.691,14.664Zm3.3-1.969a5.013,5.013,0,0,1,.484-2.242,3.546,3.546,0,0,1,1.395-1.523,4.069,4.069,0,0,1,2.113-.539,3.849,3.849,0,0,1,2.793,1.047,4.2,4.2,0,0,1,1.207,2.844l.016.578a4.418,4.418,0,0,1-1.086,3.121,4.209,4.209,0,0,1-5.832,0,4.5,4.5,0,0,1-1.09-3.187Zm2.258.16A3.16,3.16,0,0,0,110.7,14.7a1.628,1.628,0,0,0,2.578.008,3.457,3.457,0,0,0,.461-2.015,3.128,3.128,0,0,0-.461-1.831,1.5,1.5,0,0,0-1.3-.649,1.474,1.474,0,0,0-1.281.646A3.516,3.516,0,0,0,110.246,12.856Zm11.719,1.808a.727.727,0,0,0-.41-.652,4.659,4.659,0,0,0-1.316-.426q-3.016-.633-3.016-2.562a2.323,2.323,0,0,1,.934-1.879,3.766,3.766,0,0,1,2.441-.754,4.053,4.053,0,0,1,2.574.758,2.388,2.388,0,0,1,.965,1.969h-2.258a1.092,1.092,0,0,0-.312-.8A1.322,1.322,0,0,0,120.59,10a1.351,1.351,0,0,0-.883.258.814.814,0,0,0-.312.656.7.7,0,0,0,.355.605,3.657,3.657,0,0,0,1.2.4,9.8,9.8,0,0,1,1.422.379,2.336,2.336,0,0,1,1.789,2.273,2.2,2.2,0,0,1-.992,1.871,4.28,4.28,0,0,1-2.562.715,4.47,4.47,0,0,1-1.887-.379,3.166,3.166,0,0,1-1.293-1.039,2.414,2.414,0,0,1-.469-1.426H119.1a1.179,1.179,0,0,0,.445.922,1.766,1.766,0,0,0,1.109.32,1.635,1.635,0,0,0,.98-.246A.766.766,0,0,0,121.965,14.664ZM49.887,33.336a1.481,1.481,0,0,0,1.016-.344,1.2,1.2,0,0,0,.406-.914h2.117a2.9,2.9,0,0,1-.469,1.574A3.093,3.093,0,0,1,51.7,34.762a3.949,3.949,0,0,1-1.77.395A3.67,3.67,0,0,1,47.066,34,4.56,4.56,0,0,1,46.02,30.82v-.148a4.508,4.508,0,0,1,1.039-3.117,3.627,3.627,0,0,1,2.852-1.164,3.555,3.555,0,0,1,2.543.9,3.2,3.2,0,0,1,.973,2.4H51.309a1.551,1.551,0,0,0-.406-1.072,1.51,1.51,0,0,0-2.223.163,3.333,3.333,0,0,0-.4,1.866v.235a3.375,3.375,0,0,0,.4,1.878A1.377,1.377,0,0,0,49.887,33.336ZM54.363,30.7a5.013,5.013,0,0,1,.484-2.242,3.546,3.546,0,0,1,1.395-1.523,4.069,4.069,0,0,1,2.113-.539,3.849,3.849,0,0,1,2.793,1.047,4.2,4.2,0,0,1,1.207,2.844l.016.578a4.418,4.418,0,0,1-1.086,3.121,4.209,4.209,0,0,1-5.832,0,4.5,4.5,0,0,1-1.09-3.187Zm2.258.16a3.16,3.16,0,0,0,.453,1.843,1.628,1.628,0,0,0,2.578.008,3.457,3.457,0,0,0,.461-2.015,3.128,3.128,0,0,0-.461-1.831,1.5,1.5,0,0,0-1.3-.649,1.474,1.474,0,0,0-1.281.646A3.516,3.516,0,0,0,56.621,30.856Zm9.258-4.309.07.945a2.971,2.971,0,0,1,2.43-1.1,2.255,2.255,0,0,1,2.242,1.289,2.9,2.9,0,0,1,2.539-1.289,2.521,2.521,0,0,1,2.047.8,3.681,3.681,0,0,1,.672,2.41V35H73.613V29.609a1.61,1.61,0,0,0-.281-1.051,1.246,1.246,0,0,0-.992-.332,1.409,1.409,0,0,0-1.406.969l.008,5.8H68.684V29.617a1.59,1.59,0,0,0-.289-1.062,1.259,1.259,0,0,0-.984-.328,1.463,1.463,0,0,0-1.391.8V35H63.762V26.547Zm19.344,4.3a5.07,5.07,0,0,1-.887,3.129,2.843,2.843,0,0,1-2.395,1.176,2.633,2.633,0,0,1-2.07-.891V38.25H77.613v-11.7h2.094l.078.828a2.654,2.654,0,0,1,2.141-.984,2.862,2.862,0,0,1,2.43,1.156,5.207,5.207,0,0,1,.867,3.188Zm-2.258-.164a3.327,3.327,0,0,0-.418-1.82,1.361,1.361,0,0,0-1.215-.641,1.478,1.478,0,0,0-1.461.813V32.5a1.5,1.5,0,0,0,1.477.836Q82.965,33.336,82.965,30.688ZM91.52,35a2.507,2.507,0,0,1-.227-.758,2.732,2.732,0,0,1-2.133.914,3,3,0,0,1-2.059-.719,2.312,2.312,0,0,1-.816-1.812,2.389,2.389,0,0,1,1-2.062,4.915,4.915,0,0,1,2.879-.727H91.2v-.484a1.393,1.393,0,0,0-.3-.937,1.183,1.183,0,0,0-.949-.352,1.345,1.345,0,0,0-.895.273.929.929,0,0,0-.324.75H86.473a2.268,2.268,0,0,1,.453-1.359,3,3,0,0,1,1.281-.98,4.669,4.669,0,0,1,1.859-.355,3.689,3.689,0,0,1,2.48.785,2.747,2.747,0,0,1,.918,2.207v3.664a4.041,4.041,0,0,0,.336,1.82V35Zm-1.867-1.57a1.945,1.945,0,0,0,.922-.223,1.462,1.462,0,0,0,.625-.6V31.156h-.844q-1.7,0-1.8,1.172l-.008.133a.9.9,0,0,0,.3.7A1.153,1.153,0,0,0,89.652,33.43Zm10.3-4.766a6.134,6.134,0,0,0-.812-.062,1.654,1.654,0,0,0-1.68.867V35H95.2V26.547h2.133l.063,1.008a2.092,2.092,0,0,1,1.883-1.164,2.366,2.366,0,0,1,.7.1Zm4.18-4.2v2.078h1.445V28.2h-1.445v4.219a1.007,1.007,0,0,0,.18.672.9.9,0,0,0,.688.2,3.6,3.6,0,0,0,.664-.055v1.711a4.648,4.648,0,0,1-1.367.2,2.156,2.156,0,0,1-2.422-2.4V28.2h-1.234V26.547h1.234V24.469ZM109.215,35h-2.266V26.547h2.266Zm-2.4-10.641a1.112,1.112,0,0,1,.34-.836,1.465,1.465,0,0,1,1.848,0,1.193,1.193,0,0,1,0,1.68,1.448,1.448,0,0,1-1.836,0A1.108,1.108,0,0,1,106.816,24.359Zm3.906,6.352a5.094,5.094,0,0,1,.887-3.148,2.877,2.877,0,0,1,2.426-1.172,2.589,2.589,0,0,1,2.039.922V23h2.266V35H116.3l-.109-.9a2.657,2.657,0,0,1-2.172,1.055,2.869,2.869,0,0,1-2.395-1.176A5.258,5.258,0,0,1,110.723,30.711Zm2.258.168a3.337,3.337,0,0,0,.414,1.823,1.349,1.349,0,0,0,1.2.634,1.511,1.511,0,0,0,1.477-.884V29.111a1.489,1.489,0,0,0-1.461-.884Q112.98,28.227,112.98,30.879Zm6.758-.184a5.013,5.013,0,0,1,.484-2.242,3.546,3.546,0,0,1,1.395-1.523,4.069,4.069,0,0,1,2.113-.539,3.849,3.849,0,0,1,2.793,1.047,4.2,4.2,0,0,1,1.207,2.844l.016.578a4.418,4.418,0,0,1-1.086,3.121,4.209,4.209,0,0,1-5.832,0,4.5,4.5,0,0,1-1.09-3.187Zm2.258.16a3.16,3.16,0,0,0,.453,1.843,1.628,1.628,0,0,0,2.578.008,3.457,3.457,0,0,0,.461-2.015,3.128,3.128,0,0,0-.461-1.831,1.5,1.5,0,0,0-1.3-.649,1.474,1.474,0,0,0-1.281.646A3.516,3.516,0,0,0,122,30.856Zm11.719,1.808a.727.727,0,0,0-.41-.652,4.659,4.659,0,0,0-1.316-.426q-3.016-.633-3.016-2.562a2.323,2.323,0,0,1,.934-1.879,3.766,3.766,0,0,1,2.441-.754,4.053,4.053,0,0,1,2.574.758,2.388,2.388,0,0,1,.965,1.969h-2.258a1.092,1.092,0,0,0-.312-.8A1.322,1.322,0,0,0,132.34,28a1.351,1.351,0,0,0-.883.258.814.814,0,0,0-.312.656.7.7,0,0,0,.355.605,3.657,3.657,0,0,0,1.2.4,9.8,9.8,0,0,1,1.422.379,2.336,2.336,0,0,1,1.789,2.273,2.205,2.205,0,0,1-.992,1.871,4.28,4.28,0,0,1-2.562.715,4.47,4.47,0,0,1-1.887-.379,3.166,3.166,0,0,1-1.293-1.039,2.414,2.414,0,0,1-.469-1.426h2.141a1.179,1.179,0,0,0,.445.922,1.766,1.766,0,0,0,1.109.32,1.635,1.635,0,0,0,.98-.246A.766.766,0,0,0,133.715,32.664Z" transform="translate(1189.676 2731)" fill="#12263f"/>
      <g id="Grupo_149889" data-name="Grupo 149889" transform="translate(981.676 -3197)">
        <circle id="Elipse_4775" data-name="Elipse 4775" cx="43" cy="43" r="43" transform="translate(256 5830)" fill="#244366"/>
        <g id="Grupo_143141" data-name="Grupo 143141" transform="translate(276.687 5848.687)">
          <path id="Trazado_184357" data-name="Trazado 184357" d="M2875.463-2070.551c1.261-3.108,2.384-3.857,5.788-3.857,2.2,0,4.409,0,6.613,0,.684,0,1.324.1,1.323.961,0,.842-.622,1-1.31,1-2.484,0-4.969-.005-7.453,0a2.775,2.775,0,0,0-3.02,3q-.022,14.644,0,29.288a2.957,2.957,0,0,0,3.065,3.162c8.993.026,17.985.011,26.978.008a4.846,4.846,0,0,0,.547-.079v-1.12c0-2.274-.018-4.549.005-6.823a4.8,4.8,0,0,1,4.738-4.763c.944-.016,1.89.015,2.834-.009.7-.018,1.232.235,1.211.969-.02.711-.555.979-1.248.966q-1.312-.025-2.625,0a2.9,2.9,0,0,0-2.985,2.985c-.023,2.061-.005,4.122-.005,6.331a7.035,7.035,0,0,0,.627-.486c3.22-3.213,6.448-6.418,9.632-9.666a2.284,2.284,0,0,0,.584-1.448c.039-6.3.014-12.6.05-18.9a1.64,1.64,0,0,1,.568-1.277c.315-.15.884.236,1.342.387v21.426l-13.444,13.443h-29.618a5.34,5.34,0,0,1-4.2-4.2Z" transform="translate(-2875.463 2082.314)" fill="#fff"/>
          <path id="Trazado_184358" data-name="Trazado 184358" d="M2964.692-2112.042a2.443,2.443,0,0,1,1.481,2.609c-.061,1.639,0,3.282-.019,4.923a2.063,2.063,0,0,1-2.318,2.329q-5.552.024-11.1,0a2.064,2.064,0,0,1-2.317-2.331c-.014-1.641.044-3.284-.019-4.923a2.437,2.437,0,0,1,1.482-2.607Zm-12.3,7.838h11.755v-5.84h-11.755Z" transform="translate(-2934.653 2112.042)" fill="#fff"/>
          <path id="Trazado_184359" data-name="Trazado 184359" d="M2958.321-2045.935c-1.853,0-3.705.009-5.558,0-1.578-.01-2.291-.73-2.3-2.321-.012-1.748-.015-3.5,0-5.243a2,2,0,0,1,2.268-2.25q5.61-.021,11.221,0a2,2,0,0,1,2.248,2.271c.015,1.782.019,3.565,0,5.348a1.976,1.976,0,0,1-2.215,2.194C2962.1-2045.922,2960.208-2045.935,2958.321-2045.935Zm5.9-1.988v-5.819h-11.786v5.819Z" transform="translate(-2934.699 2067.585)" fill="#fff"/>
          <path id="Trazado_184360" data-name="Trazado 184360" d="M2958.257-1989.571c-1.887,0-3.774.014-5.661,0a1.926,1.926,0,0,1-2.142-2.141q-.034-2.725,0-5.451a1.906,1.906,0,0,1,2.112-2.16q5.766-.023,11.531,0a1.889,1.889,0,0,1,2.089,2.076q.04,2.777,0,5.555a1.931,1.931,0,0,1-2.164,2.12C2962.1-1989.559,2960.178-1989.571,2958.257-1989.571Zm-5.82-7.783v5.771h11.747v-5.771Z" transform="translate(-2934.689 2023.013)" fill="#fff"/>
          <path id="Trazado_184361" data-name="Trazado 184361" d="M3038.252-2079.113a11.189,11.189,0,0,1,1.169.827c.481.436.62,1.061.058,1.429a1.451,1.451,0,0,1-1.361-.068,37.246,37.246,0,0,1-2.837-2.793.973.973,0,0,1,.029-1.489c.934-.945,1.835-1.931,2.846-2.786.281-.237.9-.074,1.365-.095a3.491,3.491,0,0,1-.05,1.388c-.2.4-.705.647-1.077.96l.131.293c1.162,0,2.329.063,3.481-.043a1.229,1.229,0,0,0,.776-.9c.064-2.621.047-5.245.033-7.867,0-.814-.53-1.051-1.264-1.045-1.783.013-3.567,0-5.35.007-.739,0-1.322-.262-1.179-1.062a1.324,1.324,0,0,1,.967-.819q3.091-.111,6.188-.013a2.643,2.643,0,0,1,2.541,2.593q.074,4.247,0,8.5a2.668,2.668,0,0,1-2.656,2.584c-1.152.037-2.306.028-3.459.043-.02,0-.038.052-.057.08Z" transform="translate(-3001.447 2097.188)" fill="#fff"/>
          <path id="Trazado_184362" data-name="Trazado 184362" d="M2900.563-2023.293c-1,0-2,.006-3,0-2.175-.014-3.231-1.052-3.239-3.2q-.014-3.724,0-7.448a2.84,2.84,0,0,1,3.055-3.091c1.783-.02,3.567,0,5.35-.008.689,0,1.333.116,1.35.949.019.923-.669.988-1.395.979-1.678-.019-3.357.012-5.035-.013-.946-.014-1.43.336-1.418,1.348q.043,3.619,0,7.238c-.011.937.375,1.348,1.313,1.317.976-.031,1.953-.007,3.2-.007-.472-.491-.8-.82-1.113-1.158-.439-.469-.616-1.071-.057-1.445a1.448,1.448,0,0,1,1.362.053,36.879,36.879,0,0,1,2.843,2.788,1.029,1.029,0,0,1-.071,1.577c-.882.9-1.769,1.791-2.667,2.672-.485.475-1.056.636-1.561.083a.948.948,0,0,1,.2-1.469c.341-.3.732-.534,1.1-.8Z" transform="translate(-2890.359 2052.795)" fill="#fff"/>
          <path id="Trazado_184363" data-name="Trazado 184363" d="M2906.876-1938.508c1.85,0,3.7-.015,5.552,0,1.621.017,2.249.677,2.262,2.309.026,3.321-.2,3.546-3.549,3.546-3.213,0-6.425.005-9.637,0-1.875,0-2.483-.629-2.5-2.525,0-.314,0-.628,0-.943.023-1.738.659-2.375,2.42-2.387C2903.244-1938.517,2905.06-1938.508,2906.876-1938.508Zm-5.853,3.82H2912.7v-1.817h-11.679Z" transform="translate(-2894.06 1974.964)" fill="#fff"/>
          <path id="Trazado_184364" data-name="Trazado 184364" d="M2986.818-1936.545c-.733,0-1.467.007-2.2,0-.628-.008-1.127-.248-1.151-.943s.453-.979,1.093-.984q2.305-.018,4.611,0c.644,0,1.1.267,1.086.982s-.5.944-1.132.948C2988.355-1936.54,2987.586-1936.545,2986.818-1936.545Z" transform="translate(-2960.779 1974.94)" fill="#fff"/>
          <path id="Trazado_184365" data-name="Trazado 184365" d="M2985.069-1917.988c-.813,0-1.555-.027-1.56-.95,0-.887.692-1.007,1.412-1.016s1.421.117,1.444.987C2986.389-1918.051,2985.663-1917.973,2985.069-1917.988Z" transform="translate(-2960.813 1960.303)" fill="#fff"/>
          <path id="Trazado_184366" data-name="Trazado 184366" d="M3003.715-1917.971c-.7,0-1.407-.07-1.368-1.009.038-.915.753-.953,1.445-.955.717,0,1.4.121,1.371,1.029C3005.137-1917.967,3004.4-1917.978,3003.715-1917.971Z" transform="translate(-2975.693 1960.288)" fill="#fff"/>
        </g>
      </g>
    </g>
  </g>
</svg>
