<svg xmlns="http://www.w3.org/2000/svg" xmlns:xlink="http://www.w3.org/1999/xlink" width="246" height="187" viewBox="0 0 246 187">
  <defs>
    <filter id="Rect치ngulo_44440" x="0" y="0" width="246" height="187" filterUnits="userSpaceOnUse">
      <feOffset dy="3" input="SourceAlpha"/>
      <feGaussianBlur stdDeviation="3" result="blur"/>
      <feFlood flood-opacity="0.161"/>
      <feComposite operator="in" in2="blur"/>
      <feComposite in="SourceGraphic"/>
    </filter>
  </defs>
  <g id="Grupo_152028" data-name="Grupo 152028" transform="translate(-676.676 -2608)">
    <g transform="matrix(1, 0, 0, 1, 676.68, 2608)" filter="url(#Rect치ngulo_44440)">
      <rect id="Rect치ngulo_44440-2" data-name="Rect치ngulo 44440" width="228" height="169" rx="10" transform="translate(9 6)" fill="#fff"/>
    </g>
    <path id="Trazado_194462" data-name="Trazado 194462" d="M55.238,12.992V17H52.895V5.625h4.438a5.134,5.134,0,0,1,2.254.469,3.454,3.454,0,0,1,1.5,1.332,3.714,3.714,0,0,1,.523,1.965,3.266,3.266,0,0,1-1.145,2.637,4.767,4.767,0,0,1-3.168.965Zm0-1.9h2.094a2.059,2.059,0,0,0,1.418-.437,1.591,1.591,0,0,0,.488-1.25,1.876,1.876,0,0,0-.492-1.352,1.839,1.839,0,0,0-1.359-.531H55.238Zm12.891,5.047a2.831,2.831,0,0,1-2.312,1.016,2.67,2.67,0,0,1-2.074-.781,3.335,3.335,0,0,1-.73-2.289V8.547H65.27v5.467q0,1.322,1.2,1.322a1.63,1.63,0,0,0,1.578-.8V8.547h2.266V17H68.191Zm7.781,1.016a4.15,4.15,0,0,1-3.027-1.141,4.054,4.054,0,0,1-1.168-3.039v-.219a5.106,5.106,0,0,1,.492-2.277A3.612,3.612,0,0,1,73.6,8.934a3.914,3.914,0,0,1,2.059-.543,3.508,3.508,0,0,1,2.73,1.094,4.444,4.444,0,0,1,1,3.1v.922H74a2.1,2.1,0,0,0,.66,1.328,2,2,0,0,0,1.395.5,2.437,2.437,0,0,0,2.039-.945l1.109,1.242a3.389,3.389,0,0,1-1.375,1.121A4.511,4.511,0,0,1,75.91,17.156Zm-.258-6.945a1.411,1.411,0,0,0-1.09.455,2.357,2.357,0,0,0-.535,1.3h3.141v-.181a1.681,1.681,0,0,0-.406-1.165A1.456,1.456,0,0,0,75.652,10.211Zm9.766.453a6.134,6.134,0,0,0-.812-.062,1.654,1.654,0,0,0-1.68.867V17H80.668V8.547H82.8l.063,1.008a2.092,2.092,0,0,1,1.883-1.164,2.366,2.366,0,0,1,.7.1Zm4.18-4.2V8.547h1.445V10.2H89.6v4.219a1.007,1.007,0,0,0,.18.672.9.9,0,0,0,.688.2,3.6,3.6,0,0,0,.664-.055v1.711a4.648,4.648,0,0,1-1.367.2,2.156,2.156,0,0,1-2.422-2.4V10.2H86.105V8.547H87.34V6.469ZM91.715,12.7a5.013,5.013,0,0,1,.484-2.242A3.546,3.546,0,0,1,93.594,8.93a4.069,4.069,0,0,1,2.113-.539A3.849,3.849,0,0,1,98.5,9.438a4.2,4.2,0,0,1,1.207,2.844l.016.578a4.418,4.418,0,0,1-1.086,3.121,4.209,4.209,0,0,1-5.832,0,4.5,4.5,0,0,1-1.09-3.187Zm2.258.16a3.16,3.16,0,0,0,.453,1.843A1.628,1.628,0,0,0,97,14.706a3.457,3.457,0,0,0,.461-2.015A3.128,3.128,0,0,0,97,10.86a1.5,1.5,0,0,0-1.3-.649,1.474,1.474,0,0,0-1.281.646A3.516,3.516,0,0,0,93.973,12.856Zm11.719,1.808a.727.727,0,0,0-.41-.652,4.659,4.659,0,0,0-1.316-.426q-3.016-.633-3.016-2.562a2.323,2.323,0,0,1,.934-1.879,3.766,3.766,0,0,1,2.441-.754,4.053,4.053,0,0,1,2.574.758,2.388,2.388,0,0,1,.965,1.969h-2.258a1.092,1.092,0,0,0-.312-.8,1.322,1.322,0,0,0-.977-.316,1.351,1.351,0,0,0-.883.258.814.814,0,0,0-.312.656.7.7,0,0,0,.355.605,3.657,3.657,0,0,0,1.2.4,9.8,9.8,0,0,1,1.422.379,2.336,2.336,0,0,1,1.789,2.273,2.2,2.2,0,0,1-.992,1.871,4.28,4.28,0,0,1-2.562.715,4.47,4.47,0,0,1-1.887-.379,3.166,3.166,0,0,1-1.293-1.039,2.414,2.414,0,0,1-.469-1.426h2.141a1.179,1.179,0,0,0,.445.922,1.766,1.766,0,0,0,1.109.32,1.635,1.635,0,0,0,.98-.246A.766.766,0,0,0,105.691,14.664Zm7.281-1.953a5.094,5.094,0,0,1,.887-3.148,2.877,2.877,0,0,1,2.426-1.172,2.589,2.589,0,0,1,2.039.922V5h2.266V17h-2.039l-.109-.9a2.657,2.657,0,0,1-2.172,1.055,2.869,2.869,0,0,1-2.395-1.176A5.258,5.258,0,0,1,112.973,12.711Zm2.258.168a3.337,3.337,0,0,0,.414,1.823,1.349,1.349,0,0,0,1.2.634,1.511,1.511,0,0,0,1.477-.884V11.111a1.489,1.489,0,0,0-1.461-.884Q115.23,10.227,115.23,12.879Zm11,4.277a4.15,4.15,0,0,1-3.027-1.141,4.054,4.054,0,0,1-1.168-3.039v-.219a5.106,5.106,0,0,1,.492-2.277,3.612,3.612,0,0,1,1.395-1.547,3.914,3.914,0,0,1,2.059-.543,3.508,3.508,0,0,1,2.73,1.094,4.444,4.444,0,0,1,1,3.1v.922h-5.383a2.1,2.1,0,0,0,.66,1.328,2,2,0,0,0,1.395.5,2.437,2.437,0,0,0,2.039-.945l1.109,1.242a3.389,3.389,0,0,1-1.375,1.121A4.511,4.511,0,0,1,126.23,17.156Zm-.258-6.945a1.411,1.411,0,0,0-1.09.455,2.357,2.357,0,0,0-.535,1.3h3.141v-.181a1.681,1.681,0,0,0-.406-1.165A1.456,1.456,0,0,0,125.973,10.211ZM44.926,33.336a1.481,1.481,0,0,0,1.016-.344,1.2,1.2,0,0,0,.406-.914h2.117A2.9,2.9,0,0,1,48,33.652a3.093,3.093,0,0,1-1.262,1.109,3.949,3.949,0,0,1-1.77.395A3.67,3.67,0,0,1,42.105,34a4.56,4.56,0,0,1-1.047-3.184v-.148A4.508,4.508,0,0,1,42.1,27.555a3.627,3.627,0,0,1,2.852-1.164,3.555,3.555,0,0,1,2.543.9,3.2,3.2,0,0,1,.973,2.4H46.348a1.551,1.551,0,0,0-.406-1.072,1.51,1.51,0,0,0-2.223.163,3.333,3.333,0,0,0-.4,1.866v.235a3.375,3.375,0,0,0,.4,1.878A1.377,1.377,0,0,0,44.926,33.336ZM49.4,30.7a5.013,5.013,0,0,1,.484-2.242,3.546,3.546,0,0,1,1.395-1.523,4.069,4.069,0,0,1,2.113-.539,3.849,3.849,0,0,1,2.793,1.047,4.2,4.2,0,0,1,1.207,2.844l.016.578a4.418,4.418,0,0,1-1.086,3.121,4.209,4.209,0,0,1-5.832,0A4.5,4.5,0,0,1,49.4,30.8Zm2.258.16a3.16,3.16,0,0,0,.453,1.843,1.628,1.628,0,0,0,2.578.008,3.457,3.457,0,0,0,.461-2.015,3.128,3.128,0,0,0-.461-1.831,1.5,1.5,0,0,0-1.3-.649,1.474,1.474,0,0,0-1.281.646A3.516,3.516,0,0,0,51.66,30.856Zm9.258-4.309.07.945a2.971,2.971,0,0,1,2.43-1.1A2.255,2.255,0,0,1,65.66,27.68,2.9,2.9,0,0,1,68.2,26.391a2.521,2.521,0,0,1,2.047.8,3.681,3.681,0,0,1,.672,2.41V35H68.652V29.609a1.61,1.61,0,0,0-.281-1.051,1.246,1.246,0,0,0-.992-.332,1.409,1.409,0,0,0-1.406.969L65.98,35H63.723V29.617a1.59,1.59,0,0,0-.289-1.062,1.259,1.259,0,0,0-.984-.328,1.463,1.463,0,0,0-1.391.8V35H58.8V26.547Zm16.8,7.594A2.831,2.831,0,0,1,75.4,35.156a2.67,2.67,0,0,1-2.074-.781,3.335,3.335,0,0,1-.73-2.289V26.547h2.258v5.467q0,1.322,1.2,1.322a1.63,1.63,0,0,0,1.578-.8V26.547H79.9V35H77.777Zm5.969-7.594.07.977a2.951,2.951,0,0,1,2.43-1.133,2.453,2.453,0,0,1,2,.789,3.682,3.682,0,0,1,.672,2.359V35H86.6V29.594a1.465,1.465,0,0,0-.312-1.043,1.4,1.4,0,0,0-1.039-.324,1.553,1.553,0,0,0-1.43.813V35H81.559V26.547ZM92.949,35H90.684V26.547h2.266Zm-2.4-10.641a1.112,1.112,0,0,1,.34-.836,1.465,1.465,0,0,1,1.848,0,1.193,1.193,0,0,1,0,1.68,1.448,1.448,0,0,1-1.836,0A1.108,1.108,0,0,1,90.551,24.359Zm7.773,8.977a1.481,1.481,0,0,0,1.016-.344,1.2,1.2,0,0,0,.406-.914h2.117a2.9,2.9,0,0,1-.469,1.574,3.093,3.093,0,0,1-1.262,1.109,3.949,3.949,0,0,1-1.77.395A3.67,3.67,0,0,1,95.5,34a4.56,4.56,0,0,1-1.047-3.184v-.148A4.508,4.508,0,0,1,95.5,27.555a3.627,3.627,0,0,1,2.852-1.164,3.555,3.555,0,0,1,2.543.9,3.2,3.2,0,0,1,.973,2.4H99.746a1.551,1.551,0,0,0-.406-1.072,1.51,1.51,0,0,0-2.223.163,3.333,3.333,0,0,0-.4,1.866v.235a3.375,3.375,0,0,0,.4,1.878A1.377,1.377,0,0,0,98.324,33.336ZM108.051,35a2.507,2.507,0,0,1-.227-.758,2.732,2.732,0,0,1-2.133.914,3,3,0,0,1-2.059-.719,2.312,2.312,0,0,1-.816-1.812,2.389,2.389,0,0,1,1-2.062,4.915,4.915,0,0,1,2.879-.727h1.039v-.484a1.393,1.393,0,0,0-.3-.937,1.183,1.183,0,0,0-.949-.352,1.345,1.345,0,0,0-.895.273.929.929,0,0,0-.324.75H103a2.268,2.268,0,0,1,.453-1.359,3,3,0,0,1,1.281-.98,4.669,4.669,0,0,1,1.859-.355,3.689,3.689,0,0,1,2.48.785A2.747,2.747,0,0,1,110,29.383v3.664a4.041,4.041,0,0,0,.336,1.82V35Zm-1.867-1.57a1.945,1.945,0,0,0,.922-.223,1.462,1.462,0,0,0,.625-.6V31.156h-.844q-1.7,0-1.8,1.172l-.008.133a.9.9,0,0,0,.3.7A1.153,1.153,0,0,0,106.184,33.43Zm9.063-.094a1.481,1.481,0,0,0,1.016-.344,1.2,1.2,0,0,0,.406-.914h2.117a2.9,2.9,0,0,1-.469,1.574,3.093,3.093,0,0,1-1.262,1.109,3.949,3.949,0,0,1-1.77.395A3.67,3.67,0,0,1,112.426,34a4.56,4.56,0,0,1-1.047-3.184v-.148a4.508,4.508,0,0,1,1.039-3.117,3.627,3.627,0,0,1,2.852-1.164,3.555,3.555,0,0,1,2.543.9,3.2,3.2,0,0,1,.973,2.4h-2.117a1.551,1.551,0,0,0-.406-1.072,1.51,1.51,0,0,0-2.223.163,3.333,3.333,0,0,0-.4,1.866v.235a3.375,3.375,0,0,0,.4,1.878A1.377,1.377,0,0,0,115.246,33.336ZM122.457,35h-2.266V26.547h2.266Zm-2.4-10.641a1.112,1.112,0,0,1,.34-.836,1.465,1.465,0,0,1,1.848,0,1.193,1.193,0,0,1,0,1.68,1.448,1.448,0,0,1-1.836,0A1.108,1.108,0,0,1,120.059,24.359Zm3.906,6.336a5.013,5.013,0,0,1,.484-2.242,3.546,3.546,0,0,1,1.395-1.523,4.069,4.069,0,0,1,2.113-.539,3.849,3.849,0,0,1,2.793,1.047,4.2,4.2,0,0,1,1.207,2.844l.016.578a4.418,4.418,0,0,1-1.086,3.121,4.209,4.209,0,0,1-5.832,0,4.5,4.5,0,0,1-1.09-3.187Zm2.258.16a3.16,3.16,0,0,0,.453,1.843,1.628,1.628,0,0,0,2.578.008,3.457,3.457,0,0,0,.461-2.015,3.128,3.128,0,0,0-.461-1.831,1.5,1.5,0,0,0-1.3-.649,1.474,1.474,0,0,0-1.281.646A3.516,3.516,0,0,0,126.223,30.856ZM128.4,23h2.461L128.7,25.422h-1.836Zm7.039,3.547.07.977a2.951,2.951,0,0,1,2.43-1.133,2.453,2.453,0,0,1,2,.789,3.682,3.682,0,0,1,.672,2.359V35h-2.258V29.594a1.465,1.465,0,0,0-.312-1.043A1.4,1.4,0,0,0,137,28.227a1.553,1.553,0,0,0-1.43.813V35h-2.258V26.547Z" transform="translate(709.676 2731)" fill="#12263f"/>
    <g id="Grupo_149888" data-name="Grupo 149888" transform="translate(501.676 -3197)">
      <circle id="Elipse_4775" data-name="Elipse 4775" cx="43" cy="43" r="43" transform="translate(256 5830)" fill="#244366"/>
      <g id="cBpRW6" transform="translate(-4681.833 4987.99)">
        <g id="Grupo_143032" data-name="Grupo 143032" transform="translate(4955.523 852.734)">
          <path id="Trazado_184068" data-name="Trazado 184068" d="M4964.052,864.794a12.739,12.739,0,0,1,3.093-7.767,12.444,12.444,0,0,1,19.443.8,1.408,1.408,0,0,0,1.3.663,10.818,10.818,0,0,1,9.919,5.759,1.779,1.779,0,0,0,1,.781,9.439,9.439,0,0,1,7.324,9.471,9.332,9.332,0,0,1-8.333,8.987c-.394.047-.786.1-1.311.174,0,.632-.025,1.254.006,1.872.042.832-.3,1.306-1.155,1.209-.754-.085-1.08.214-1.213.934a4.884,4.884,0,0,1-.5,1.3c-.455.891-1,1.74.176,2.557.146.1.063.861-.153,1.1-1.1,1.2-2.282,2.332-3.439,3.483a.906.906,0,0,1-1.526-.115c-.457-.6-.88-.557-1.512-.221-.9.48-1.885.8-2.85,1.2-.245,1.907-.245,1.907-2.618,2.095V903.5c.049.034.1.1.153.1,2.063.04,2.028-.132,2.017,2.156,0,.966-.021,1.932.006,2.9.021.757-.317,1.117-1.062,1.117-1.3,0-2.6-.006-3.9,0-.783.006-1.157-.332-1.137-1.147.03-1.232,0-2.465.011-3.7.008-1.173.128-1.281,1.347-1.3.26,0,.52-.022.832-.036V899.08c-.713-.064-1.549.092-2.034-.25-.439-.311-.5-1.163-.77-1.906-.921-.4-2.025-.925-3.165-1.351-.227-.085-.655.123-.881.322-.871.765-1.085.787-1.9-.023-.947-.937-1.886-1.882-2.827-2.825-1.005-1.008-1-1.109.009-2.166.113-.118.216-.246.287-.326-.448-1.16-.843-2.285-1.333-3.366a1.072,1.072,0,0,0-.853-.411c-.988.03-1.418-.37-1.335-1.367.046-.558.008-1.123.008-1.787a9.658,9.658,0,0,1-7.739-3.777,9.044,9.044,0,0,1-1.9-5.765C4955.583,870.075,4958.212,865.724,4964.052,864.794Zm32.431,17.144a16.315,16.315,0,0,0,1.92-.2,7.649,7.649,0,0,0,6.053-7.738,7.547,7.547,0,0,0-6.428-7.4,1.843,1.843,0,0,1-1.521-1.182,8.99,8.99,0,0,0-9.26-5.212,1.349,1.349,0,0,1-1.488-.676,10.81,10.81,0,0,0-20.027,5.564c-.032.953-.287,1.342-1.308,1.392a7.712,7.712,0,0,0-1.366,15.191,16.827,16.827,0,0,0,2,.256c.217-1.676.22-1.666,1.87-2.093a.8.8,0,0,0,.446-.435c.453-1.1.873-2.2,1.319-3.348-.106-.113-.24-.26-.378-.4-.918-.943-.918-1.07.021-2.013.8-.8,1.607-1.6,2.4-2.4,1.308-1.331,1.371-1.547,2.824-.079.041.042.119.046.067.027,1.034-.425,1.964-.875,2.94-1.185.641-.2.954-.46.854-1.169-.086-.619.069-1.166.851-1.172,1.7-.014,3.4-.041,5.093.03.3.012.851.522.818.729-.191,1.208.512,1.5,1.454,1.772a19.8,19.8,0,0,1,2.385,1.035c.137-.126.284-.257.426-.394.951-.92,1.137-.916,2.1.046l2.4,2.4c1.326,1.325,1.326,1.324.053,2.733a.319.319,0,0,0-.055.131,27.618,27.618,0,0,1,1.188,2.882c.2.687.5.916,1.177.842.782-.085,1.195.291,1.168,1.1C4996.475,881.23,4996.482,881.491,4996.482,881.938Zm-26.713-7.231c1.013,1.213.966,1.19.223,2.7a19.2,19.2,0,0,0-1.162,3.056c-.21.719-.523,1.111-1.306,1.039a3.018,3.018,0,0,0-.657.082v3.526c1.4-.332,1.853.415,2.11,1.6a10.545,10.545,0,0,0,1,2.483c.764,1.5.792,1.485-.217,2.73l2.413,2.483c1.262-1.058,1.249-1.033,2.708-.277a11.192,11.192,0,0,0,2.382.991c1.167.291,2.178.583,1.717,2.168h3.57c.2-1.665.215-1.621.9-1.892,1.382-.547,2.729-1.185,4.123-1.7a2.034,2.034,0,0,1,1.228.146c.255.088.438.385.666.6l2.454-2.511c-1.036-1.238-1.01-1.225-.234-2.746a11.312,11.312,0,0,0,.965-2.39c.282-1.149.627-2.078,2.121-1.686v-3.655c-1.536.416-1.817-.542-2.138-1.667a14.275,14.275,0,0,0-1.324-2.989,1.142,1.142,0,0,1,.214-1.659,2.662,2.662,0,0,0,.352-.425l-2.4-2.526c-.627.424-1,1.276-2.045.715-1.273-.682-2.69-1.091-4.005-1.7a2.037,2.037,0,0,1-.772-.97,2.406,2.406,0,0,1-.022-.919h-3.682c.536,1.619-.495,1.893-1.67,2.173a7.5,7.5,0,0,0-2.286.957c-1.041.669-1.959,1.084-2.756-.316Zm9.728,30.555v2.781h2.655v-2.781Z" transform="translate(-4955.523 -852.734)" fill="#fff"/>
          <path id="Trazado_184069" data-name="Trazado 184069" d="M5158.62,1059.984c-1.7,0-3.359-.009-5.014.005-.612.005-1.228-.054-1.222-.811s.608-.825,1.228-.82c1.83.015,3.662.028,5.491,0,.918-.017,1.23.392,1.223,1.269-.026,2.793-.009,5.586-.009,8.341.093.08.142.158.19.158,2.352-.048,2.011.248,2.027,2.242.008.932-.025,1.865.01,2.8.03.826-.369,1.143-1.143,1.138-1.265-.008-2.53-.018-3.794,0-.851.014-1.2-.387-1.191-1.217.02-1.165,0-2.33.005-3.494,0-1.271.153-1.416,1.432-1.434.232,0,.463-.02.769-.034Zm2.223,12.585v-2.76h-2.678v2.76Z" transform="translate(-5113.033 -1017.252)" fill="#fff"/>
          <path id="Trazado_184070" data-name="Trazado 184070" d="M4968.616,1060.006c0,2.561,0,4.984,0,7.407,0,.226.021.452.03.662,2.2.306,2.2.306,2.2,2.577,0,.865-.019,1.73.006,2.594a.9.9,0,0,1-1.005,1.065q-2.046.017-4.091,0c-.7,0-1.011-.38-1-1.075.013-1.231,0-2.462,0-3.692s.132-1.345,1.383-1.368c.258,0,.515-.028.866-.049v-8.011c0-1.73,0-1.73,1.718-1.73,1.7,0,3.393.009,5.089,0,.616,0,1.094.181,1.081.863-.012.642-.493.771-1.056.766C4972.146,1060,4970.455,1060.006,4968.616,1060.006Zm-2.133,9.829v2.75h2.658v-2.75Z" transform="translate(-4962.908 -1017.274)" fill="#fff"/>
          <path id="Trazado_184071" data-name="Trazado 184071" d="M5026.849,872.632a10.964,10.964,0,0,1,5.223,1.475c.548.321.962.723.563,1.353-.377.594-.918.356-1.4.066a8.236,8.236,0,0,0-6.048-1.062c-3.146.655-4.9,2.875-5.342,6.605-.069.586-.081,1.235-.865,1.183-.812-.053-.832-.714-.788-1.351A8.487,8.487,0,0,1,5026.849,872.632Z" transform="translate(-5005.65 -868.655)" fill="#fff"/>
          <path id="Trazado_184072" data-name="Trazado 184072" d="M5042.762,974.554a8.175,8.175,0,0,0,8.1-7.87c.031-.636.188-1.209.91-1.16.748.051.756.694.732,1.294a9.853,9.853,0,0,1-19.69-.795c.168-5.213,4.55-9.628,9.507-9.535a1.464,1.464,0,0,1,1.06.5c.349.522-.12,1.024-.943,1.083a8.242,8.242,0,0,0,.327,16.48Z" transform="translate(-5017.358 -935.748)" fill="#fff"/>
          <path id="Trazado_184073" data-name="Trazado 184073" d="M5067.033,985.457a4.974,4.974,0,0,1-4.56,5.035c-.57.057-1.135.041-1.233-.661-.107-.768.451-.916,1.071-.989a3.344,3.344,0,0,0,3.107-3.3,3.4,3.4,0,0,0-6.778-.394c-.071.63-.159,1.183-.928,1.113-.812-.074-.724-.734-.689-1.3a5.017,5.017,0,0,1,10.01.5Z" transform="translate(-5036.718 -954.909)" fill="#fff"/>
        </g>
      </g>
    </g>
  </g>
</svg>
