<svg id="Grupo_152065" data-name="Grupo 152065" xmlns="http://www.w3.org/2000/svg" xmlns:xlink="http://www.w3.org/1999/xlink" width="285.031" height="71.594" viewBox="0 0 285.031 71.594">
  <defs>
    <linearGradient id="linear-gradient" x1="0.5" x2="0.5" y2="1" gradientUnits="objectBoundingBox">
      <stop offset="0" stop-color="#039be5"/>
      <stop offset="1" stop-color="#027fbc"/>
    </linearGradient>
  </defs>
  <rect id="Rect치ngulo_37703" data-name="Rect치ngulo 37703" width="283.654" height="71.594" rx="10" transform="translate(1.377)" fill="url(#linear-gradient)"/>
  <g id="Rect치ngulo_37706" data-name="Rect치ngulo 37706" fill="#fff" stroke="#afafaf" stroke-width="1">
    <rect width="67.464" height="71.594" rx="10" stroke="none"/>
    <rect x="0.5" y="0.5" width="66.464" height="70.594" rx="9.5" fill="none"/>
  </g>
  <path id="Trazado_194545" data-name="Trazado 194545" d="M-80.648,0V-17.062h5.977a7.848,7.848,0,0,1,4.711,1.189,4.067,4.067,0,0,1,1.605,3.486A3.855,3.855,0,0,1-69-10.178a3.723,3.723,0,0,1-1.793,1.4,3.6,3.6,0,0,1,2.068,1.324,3.915,3.915,0,0,1,.756,2.438,4.5,4.5,0,0,1-1.57,3.727A7.069,7.069,0,0,1-74.016,0Zm3.516-7.43v4.605h3.012a2.906,2.906,0,0,0,1.939-.592,2.029,2.029,0,0,0,.7-1.635A2.143,2.143,0,0,0-73.91-7.43Zm0-2.484h2.6q2.66-.047,2.66-2.121a1.96,1.96,0,0,0-.674-1.67,3.544,3.544,0,0,0-2.127-.51h-2.461ZM-58.207,0a3.761,3.761,0,0,1-.34-1.137,4.1,4.1,0,0,1-3.2,1.371A4.5,4.5,0,0,1-64.834-.844a3.467,3.467,0,0,1-1.225-2.719,3.583,3.583,0,0,1,1.494-3.094,7.373,7.373,0,0,1,4.318-1.09h1.559v-.727a2.089,2.089,0,0,0-.451-1.406,1.775,1.775,0,0,0-1.424-.527A2.018,2.018,0,0,0-61.9-10a1.393,1.393,0,0,0-.486,1.125h-3.387a3.4,3.4,0,0,1,.68-2.039,4.493,4.493,0,0,1,1.922-1.471,7,7,0,0,1,2.789-.533,5.534,5.534,0,0,1,3.721,1.178,4.12,4.12,0,0,1,1.377,3.311v5.5a6.062,6.062,0,0,0,.5,2.73V0Zm-2.8-2.355a2.917,2.917,0,0,0,1.383-.334,2.194,2.194,0,0,0,.938-.9v-2.18h-1.266q-2.543,0-2.707,1.758l-.012.2a1.356,1.356,0,0,0,.445,1.043A1.73,1.73,0,0,0-61.008-2.355ZM-45.82-3.5a1.091,1.091,0,0,0-.615-.979,6.989,6.989,0,0,0-1.975-.639q-4.523-.949-4.523-3.844a3.484,3.484,0,0,1,1.4-2.818,5.649,5.649,0,0,1,3.662-1.131,6.08,6.08,0,0,1,3.861,1.137,3.582,3.582,0,0,1,1.447,2.953h-3.387a1.639,1.639,0,0,0-.469-1.2,1.984,1.984,0,0,0-1.465-.475,2.027,2.027,0,0,0-1.324.387,1.221,1.221,0,0,0-.469.984,1.044,1.044,0,0,0,.533.908,5.485,5.485,0,0,0,1.8.6,14.693,14.693,0,0,1,2.133.568q2.684.984,2.684,3.41A3.307,3.307,0,0,1-44.016-.838,6.42,6.42,0,0,1-47.859.234a6.706,6.706,0,0,1-2.83-.568,4.748,4.748,0,0,1-1.939-1.559,3.621,3.621,0,0,1-.7-2.139h3.211a1.768,1.768,0,0,0,.668,1.383,2.649,2.649,0,0,0,1.664.48,2.452,2.452,0,0,0,1.471-.369A1.149,1.149,0,0,0-45.82-3.5ZM-34.512.234a6.225,6.225,0,0,1-4.541-1.711A6.082,6.082,0,0,1-40.8-6.035v-.328a7.66,7.66,0,0,1,.738-3.416,5.418,5.418,0,0,1,2.092-2.32,5.871,5.871,0,0,1,3.088-.814,5.262,5.262,0,0,1,4.1,1.641A6.667,6.667,0,0,1-29.3-6.621v1.383h-8.074a3.146,3.146,0,0,0,.99,1.992,2.993,2.993,0,0,0,2.092.75A3.656,3.656,0,0,0-31.23-3.914l1.664,1.863A5.084,5.084,0,0,1-31.629-.369,6.767,6.767,0,0,1-34.512.234ZM-34.9-10.184a2.116,2.116,0,0,0-1.635.683,3.535,3.535,0,0,0-.8,1.954h4.711v-.271a2.521,2.521,0,0,0-.609-1.748A2.183,2.183,0,0,0-34.9-10.184ZM-20.508-3.5a1.091,1.091,0,0,0-.615-.979A6.989,6.989,0,0,0-23.1-5.121q-4.523-.949-4.523-3.844a3.484,3.484,0,0,1,1.4-2.818,5.649,5.649,0,0,1,3.662-1.131A6.08,6.08,0,0,1-18.7-11.777,3.582,3.582,0,0,1-17.25-8.824h-3.387a1.639,1.639,0,0,0-.469-1.2A1.984,1.984,0,0,0-22.57-10.5a2.027,2.027,0,0,0-1.324.387,1.221,1.221,0,0,0-.469.984,1.044,1.044,0,0,0,.533.908,5.485,5.485,0,0,0,1.8.6,14.693,14.693,0,0,1,2.133.568q2.684.984,2.684,3.41A3.308,3.308,0,0,1-18.7-.838,6.42,6.42,0,0,1-22.547.234a6.706,6.706,0,0,1-2.83-.568,4.748,4.748,0,0,1-1.939-1.559,3.621,3.621,0,0,1-.7-2.139h3.211a1.768,1.768,0,0,0,.668,1.383,2.649,2.649,0,0,0,1.664.48,2.452,2.452,0,0,0,1.471-.369A1.149,1.149,0,0,0-20.508-3.5Zm10.922-2.93a7.641,7.641,0,0,1,1.33-4.723,4.316,4.316,0,0,1,3.639-1.758,3.884,3.884,0,0,1,3.059,1.383V-18h3.4V0H-1.219l-.164-1.348A3.985,3.985,0,0,1-4.641.234,4.3,4.3,0,0,1-8.232-1.529,7.887,7.887,0,0,1-9.586-6.434Zm3.387.252a5.005,5.005,0,0,0,.621,2.735,2.023,2.023,0,0,0,1.8.951A2.266,2.266,0,0,0-1.559-3.822V-8.834A2.234,2.234,0,0,0-3.75-10.16Q-6.2-10.16-6.2-6.181ZM10.3.234A6.225,6.225,0,0,1,5.76-1.477,6.082,6.082,0,0,1,4.008-6.035v-.328a7.66,7.66,0,0,1,.738-3.416A5.418,5.418,0,0,1,6.838-12.1a5.871,5.871,0,0,1,3.088-.814,5.262,5.262,0,0,1,4.1,1.641,6.667,6.667,0,0,1,1.494,4.652v1.383H7.441a3.146,3.146,0,0,0,.99,1.992,2.993,2.993,0,0,0,2.092.75,3.656,3.656,0,0,0,3.059-1.418l1.664,1.863A5.084,5.084,0,0,1,13.184-.369,6.767,6.767,0,0,1,10.3.234ZM9.914-10.184A2.116,2.116,0,0,0,8.279-9.5a3.535,3.535,0,0,0-.8,1.954h4.711v-.271a2.521,2.521,0,0,0-.609-1.748A2.183,2.183,0,0,0,9.914-10.184Zm12.973,3.75a7.641,7.641,0,0,1,1.33-4.723,4.316,4.316,0,0,1,3.639-1.758,3.884,3.884,0,0,1,3.059,1.383V-18h3.4V0H31.254L31.09-1.348A3.985,3.985,0,0,1,27.832.234,4.3,4.3,0,0,1,24.24-1.529,7.887,7.887,0,0,1,22.887-6.434Zm3.387.252a5.005,5.005,0,0,0,.621,2.735,2.023,2.023,0,0,0,1.8.951,2.266,2.266,0,0,0,2.215-1.326V-8.834a2.234,2.234,0,0,0-2.191-1.326Q26.273-10.16,26.273-6.181ZM44.285,0a3.761,3.761,0,0,1-.34-1.137,4.1,4.1,0,0,1-3.2,1.371A4.5,4.5,0,0,1,37.658-.844a3.467,3.467,0,0,1-1.225-2.719,3.583,3.583,0,0,1,1.494-3.094,7.373,7.373,0,0,1,4.318-1.09H43.8v-.727a2.089,2.089,0,0,0-.451-1.406,1.775,1.775,0,0,0-1.424-.527,2.018,2.018,0,0,0-1.342.41A1.393,1.393,0,0,0,40.1-8.871H36.715a3.4,3.4,0,0,1,.68-2.039,4.493,4.493,0,0,1,1.922-1.471,7,7,0,0,1,2.789-.533,5.534,5.534,0,0,1,3.721,1.178A4.12,4.12,0,0,1,47.2-8.426v5.5a6.062,6.062,0,0,0,.5,2.73V0Zm-2.8-2.355a2.917,2.917,0,0,0,1.383-.334,2.194,2.194,0,0,0,.938-.9v-2.18H42.539q-2.543,0-2.707,1.758l-.012.2a1.356,1.356,0,0,0,.445,1.043A1.73,1.73,0,0,0,41.484-2.355ZM53.859-15.8v3.117h2.168V-10.2H53.859v6.328a1.511,1.511,0,0,0,.27,1.008,1.354,1.354,0,0,0,1.031.3,5.4,5.4,0,0,0,1-.082V-.07a6.972,6.972,0,0,1-2.051.3q-3.562,0-3.633-3.6V-10.2H48.621V-12.68h1.852V-15.8Zm3.176,9.34a7.52,7.52,0,0,1,.727-3.363,5.319,5.319,0,0,1,2.092-2.285,6.1,6.1,0,0,1,3.17-.809,5.774,5.774,0,0,1,4.189,1.57,6.3,6.3,0,0,1,1.811,4.266l.023.867a6.627,6.627,0,0,1-1.629,4.682A5.662,5.662,0,0,1,63.047.234,5.69,5.69,0,0,1,58.67-1.523,6.744,6.744,0,0,1,57.035-6.3Zm3.387.24a4.74,4.74,0,0,0,.68,2.764,2.242,2.242,0,0,0,1.945.957,2.247,2.247,0,0,0,1.922-.945,5.186,5.186,0,0,0,.691-3.022,4.692,4.692,0,0,0-.691-2.746,2.248,2.248,0,0,0-1.945-.974,2.211,2.211,0,0,0-1.922.968A5.274,5.274,0,0,0,60.422-6.217ZM78-3.5a1.091,1.091,0,0,0-.615-.979,6.989,6.989,0,0,0-1.975-.639q-4.523-.949-4.523-3.844a3.484,3.484,0,0,1,1.4-2.818,5.649,5.649,0,0,1,3.662-1.131,6.08,6.08,0,0,1,3.861,1.137,3.582,3.582,0,0,1,1.447,2.953H77.871a1.639,1.639,0,0,0-.469-1.2,1.984,1.984,0,0,0-1.465-.475,2.027,2.027,0,0,0-1.324.387,1.221,1.221,0,0,0-.469.984,1.044,1.044,0,0,0,.533.908,5.485,5.485,0,0,0,1.8.6,14.693,14.693,0,0,1,2.133.568q2.684.984,2.684,3.41A3.307,3.307,0,0,1,79.8-.838,6.42,6.42,0,0,1,75.961.234a6.706,6.706,0,0,1-2.83-.568,4.748,4.748,0,0,1-1.939-1.559,3.621,3.621,0,0,1-.7-2.139H73.7a1.768,1.768,0,0,0,.668,1.383,2.649,2.649,0,0,0,1.664.48A2.452,2.452,0,0,0,77.5-2.537,1.149,1.149,0,0,0,78-3.5Z" transform="translate(175.399 44.405)" fill="#fff"/>
  <g id="wmvP3Q" transform="translate(-3760.877 5183.846)">
    <g id="Grupo_151308" data-name="Grupo 151308" transform="translate(3769.459 -5173.596)">
      <path id="Trazado_193265" data-name="Trazado 193265" d="M3769.459-5168.882l32.41-4.714,4.365,19.417c-.5.025-.974.059-1.45.062-.062,0-.161-.143-.181-.233-.346-1.509-.681-3.021-1.02-4.532-.392-1.746-.79-3.49-1.17-5.238-.05-.229-.142-.254-.341-.223q-6.342,1.008-12.684,2.008-5.674.9-11.348,1.807c-1.509.239-3.02.47-4.529.708a2.926,2.926,0,0,0-.291.079q3.712,16.934,7.426,33.878l11.321-2.318c0,.638.007,1.223-.011,1.807,0,.063-.146.157-.237.176-1.515.322-3.032.635-4.548.95l-7.467,1.552c-.1.021-.2.034-.342.057Z" transform="translate(-3769.459 5173.596)" fill="#12263f"/>
      <path id="Trazado_193266" data-name="Trazado 193266" d="M4186.988-4822.771c0,.775-.018,1.551,0,2.326a2.731,2.731,0,0,1-.822,2.037,8.205,8.205,0,0,1-3.114,1.9,22.248,22.248,0,0,1-5.776,1.278,30.4,30.4,0,0,1-5.68.049,19.818,19.818,0,0,1-7.561-1.9,9.381,9.381,0,0,1-1.852-1.33,2.6,2.6,0,0,1-.837-2.089c.024-1.445.047-2.893-.006-4.337a3.182,3.182,0,0,1,1.352-2.753,11.289,11.289,0,0,1,4.07-1.9,27.944,27.944,0,0,1,8.617-.919,25.937,25.937,0,0,1,6.379.971,11.324,11.324,0,0,1,3.865,1.832,3.056,3.056,0,0,1,1.364,2.773c-.025.3,0,.607,0,.911v1.163Zm-12.269,1.3c.7-.054,1.963-.119,3.221-.257a18.462,18.462,0,0,0,4.9-1.2,7.212,7.212,0,0,0,2.216-1.288c.865-.786.884-1.486-.018-2.234a7.785,7.785,0,0,0-1.64-1.033,19.409,19.409,0,0,0-6.685-1.59,29.383,29.383,0,0,0-4.866-.014,23.139,23.139,0,0,0-5.27.966,9.511,9.511,0,0,0-3.113,1.525c-1.08.861-1.077,1.673.01,2.534a9.019,9.019,0,0,0,2.759,1.4A26.8,26.8,0,0,0,4174.719-4821.467Z" transform="translate(-4136.705 4852.019)" fill="#12263f"/>
      <path id="Trazado_193267" data-name="Trazado 193267" d="M4161.531-4496.8a5.351,5.351,0,0,0,3.03,2.754,19.713,19.713,0,0,0,6.138,1.608,30.033,30.033,0,0,0,5.426.163,22.042,22.042,0,0,0,7.958-1.75,9.211,9.211,0,0,0,1.1-.6,4.354,4.354,0,0,0,1.97-2.233v.382c0,1.3-.029,2.6.007,3.9a2.96,2.96,0,0,1-1.031,2.362,8.92,8.92,0,0,1-3.035,1.735,22.813,22.813,0,0,1-5.971,1.263,30.322,30.322,0,0,1-6.772-.135,17.413,17.413,0,0,1-6.513-1.953,8.457,8.457,0,0,1-1.6-1.253,2.475,2.475,0,0,1-.725-1.882c.015-1.4.006-2.808.007-4.211C4161.524-4496.7,4161.528-4496.748,4161.531-4496.8Z" transform="translate(-4136.868 4539.401)" fill="#12263f"/>
      <path id="Trazado_193268" data-name="Trazado 193268" d="M4161.35-4618.915c.738,1.726,2.26,2.458,3.834,3.093a21.756,21.756,0,0,0,6.673,1.394,28.985,28.985,0,0,0,9.291-.742,13.332,13.332,0,0,0,3.827-1.549,4.331,4.331,0,0,0,1.989-2.249c0,.1.014.191.014.287,0,1.3-.04,2.6.012,3.9a3.123,3.123,0,0,1-1.326,2.7,11.348,11.348,0,0,1-4.155,1.939,27.8,27.8,0,0,1-8.523.9,25.257,25.257,0,0,1-6.977-1.152,10.644,10.644,0,0,1-3.3-1.653,3.225,3.225,0,0,1-1.376-2.867c.064-1.233.014-2.472.013-3.708Z" transform="translate(-4136.694 4653.836)" fill="#12263f"/>
      <path id="Trazado_193269" data-name="Trazado 193269" d="M3925.511-4937.514l.8,3.585-22.374,3.821c-.2-.9-.391-1.775-.585-2.652-.061-.275-.117-.552-.187-.825-.051-.2,0-.273.213-.308,2.262-.366,4.521-.743,6.781-1.117l10.5-1.739q2.306-.382,4.613-.765A1.733,1.733,0,0,1,3925.511-4937.514Z" transform="translate(-3894.74 4952.36)" fill="#12263f"/>
      <path id="Trazado_193270" data-name="Trazado 193270" d="M3937.057-4756.25c-.269-1.215-.528-2.388-.789-3.561-.047-.21.094-.208.235-.233q2.951-.526,5.9-1.058,2.75-.491,5.5-.979c.132-.023.264-.042.375-.06v1.037c0,.8-.013,1.592.007,2.388.007.3-.064.433-.387.49-2.925.52-5.846,1.06-8.769,1.594Z" transform="translate(-3925.772 4788.009)" fill="#12263f"/>
      <path id="Trazado_193271" data-name="Trazado 193271" d="M3979.04-4606.767v3.9l-9.1,1.793-.836-3.793Z" transform="translate(-3956.553 4642.404)" fill="#12263f"/>
    </g>
  </g>
</svg>
