<svg xmlns="http://www.w3.org/2000/svg" xmlns:xlink="http://www.w3.org/1999/xlink" width="246" height="187" viewBox="0 0 246 187">
  <defs>
    <filter id="Rect치ngulo_44439" x="0" y="0" width="246" height="187" filterUnits="userSpaceOnUse">
      <feOffset dy="3" input="SourceAlpha"/>
      <feGaussianBlur stdDeviation="3" result="blur"/>
      <feFlood flood-opacity="0.161"/>
      <feComposite operator="in" in2="blur"/>
      <feComposite in="SourceGraphic"/>
    </filter>
  </defs>
  <g id="Grupo_152029" data-name="Grupo 152029" transform="translate(-916.676 -2608)">
    <g transform="matrix(1, 0, 0, 1, 916.68, 2608)" filter="url(#Rect치ngulo_44439)">
      <rect id="Rect치ngulo_44439-2" data-name="Rect치ngulo 44439" width="228" height="169" rx="10" transform="translate(9 6)" fill="#fff"/>
    </g>
    <path id="Trazado_194463" data-name="Trazado 194463" d="M57.656,5.625l2.922,8.25,2.906-8.25h3.078V17H64.211V13.891l.234-5.367L61.375,17H59.766L56.7,8.531l.234,5.359V17H54.594V5.625Zm14.7,11.531a4.15,4.15,0,0,1-3.027-1.141,4.054,4.054,0,0,1-1.168-3.039v-.219a5.106,5.106,0,0,1,.492-2.277,3.612,3.612,0,0,1,1.395-1.547A3.914,3.914,0,0,1,72.1,8.391a3.508,3.508,0,0,1,2.73,1.094,4.444,4.444,0,0,1,1,3.1v.922H70.445a2.1,2.1,0,0,0,.66,1.328,2,2,0,0,0,1.395.5,2.437,2.437,0,0,0,2.039-.945l1.109,1.242a3.389,3.389,0,0,1-1.375,1.121A4.511,4.511,0,0,1,72.352,17.156Zm-.258-6.945a1.411,1.411,0,0,0-1.09.455,2.357,2.357,0,0,0-.535,1.3h3.141v-.181a1.681,1.681,0,0,0-.406-1.165A1.456,1.456,0,0,0,72.094,10.211Zm4.664,2.5a5.094,5.094,0,0,1,.887-3.148A2.877,2.877,0,0,1,80.07,8.391a2.589,2.589,0,0,1,2.039.922V5h2.266V17H82.336l-.109-.9a2.657,2.657,0,0,1-2.172,1.055A2.869,2.869,0,0,1,77.66,15.98,5.258,5.258,0,0,1,76.758,12.711Zm2.258.168A3.337,3.337,0,0,0,79.43,14.7a1.349,1.349,0,0,0,1.2.634,1.511,1.511,0,0,0,1.477-.884V11.111a1.489,1.489,0,0,0-1.461-.884Q79.016,10.227,79.016,12.879ZM88.508,17H86.242V8.547h2.266Zm-2.4-10.641a1.112,1.112,0,0,1,.34-.836,1.465,1.465,0,0,1,1.848,0,1.105,1.105,0,0,1,.344.836,1.108,1.108,0,0,1-.348.844,1.448,1.448,0,0,1-1.836,0A1.108,1.108,0,0,1,86.109,6.359ZM90.016,12.7a5.013,5.013,0,0,1,.484-2.242A3.546,3.546,0,0,1,91.895,8.93a4.069,4.069,0,0,1,2.113-.539A3.849,3.849,0,0,1,96.8,9.438a4.2,4.2,0,0,1,1.207,2.844l.016.578a4.418,4.418,0,0,1-1.086,3.121,4.209,4.209,0,0,1-5.832,0,4.5,4.5,0,0,1-1.09-3.187Zm2.258.16a3.16,3.16,0,0,0,.453,1.843,1.628,1.628,0,0,0,2.578.008,3.457,3.457,0,0,0,.461-2.015A3.128,3.128,0,0,0,95.3,10.86a1.5,1.5,0,0,0-1.3-.649,1.474,1.474,0,0,0-1.281.646A3.516,3.516,0,0,0,92.273,12.856Zm11.719,1.808a.727.727,0,0,0-.41-.652,4.659,4.659,0,0,0-1.316-.426q-3.016-.633-3.016-2.562a2.323,2.323,0,0,1,.934-1.879,3.766,3.766,0,0,1,2.441-.754,4.053,4.053,0,0,1,2.574.758,2.388,2.388,0,0,1,.965,1.969h-2.258a1.092,1.092,0,0,0-.312-.8,1.322,1.322,0,0,0-.977-.316,1.351,1.351,0,0,0-.883.258.814.814,0,0,0-.312.656.7.7,0,0,0,.355.605,3.657,3.657,0,0,0,1.2.4,9.8,9.8,0,0,1,1.422.379,2.336,2.336,0,0,1,1.789,2.273,2.2,2.2,0,0,1-.992,1.871,4.28,4.28,0,0,1-2.562.715,4.47,4.47,0,0,1-1.887-.379,3.166,3.166,0,0,1-1.293-1.039,2.414,2.414,0,0,1-.469-1.426h2.141a1.179,1.179,0,0,0,.445.922,1.766,1.766,0,0,0,1.109.32,1.635,1.635,0,0,0,.98-.246A.766.766,0,0,0,103.992,14.664Zm7.281-1.953a5.094,5.094,0,0,1,.887-3.148,2.877,2.877,0,0,1,2.426-1.172,2.589,2.589,0,0,1,2.039.922V5h2.266V17h-2.039l-.109-.9a2.657,2.657,0,0,1-2.172,1.055,2.869,2.869,0,0,1-2.395-1.176A5.258,5.258,0,0,1,111.273,12.711Zm2.258.168a3.337,3.337,0,0,0,.414,1.823,1.349,1.349,0,0,0,1.2.634,1.511,1.511,0,0,0,1.477-.884V11.111a1.489,1.489,0,0,0-1.461-.884Q113.531,10.227,113.531,12.879Zm11,4.277a4.15,4.15,0,0,1-3.027-1.141,4.054,4.054,0,0,1-1.168-3.039v-.219a5.106,5.106,0,0,1,.492-2.277,3.612,3.612,0,0,1,1.395-1.547,3.914,3.914,0,0,1,2.059-.543,3.508,3.508,0,0,1,2.73,1.094,4.444,4.444,0,0,1,1,3.1v.922h-5.383a2.1,2.1,0,0,0,.66,1.328,2,2,0,0,0,1.395.5,2.437,2.437,0,0,0,2.039-.945l1.109,1.242a3.389,3.389,0,0,1-1.375,1.121A4.511,4.511,0,0,1,124.531,17.156Zm-.258-6.945a1.411,1.411,0,0,0-1.09.455,2.357,2.357,0,0,0-.535,1.3h3.141v-.181a1.681,1.681,0,0,0-.406-1.165A1.456,1.456,0,0,0,124.273,10.211ZM51.9,24.469v2.078h1.445V28.2H51.9v4.219a1.007,1.007,0,0,0,.18.672.9.9,0,0,0,.688.2,3.6,3.6,0,0,0,.664-.055v1.711a4.648,4.648,0,0,1-1.367.2,2.156,2.156,0,0,1-2.422-2.4V28.2H48.406V26.547h1.234V24.469Zm7.453,4.2a6.134,6.134,0,0,0-.812-.062,1.654,1.654,0,0,0-1.68.867V35H54.6V26.547h2.133l.063,1.008a2.092,2.092,0,0,1,1.883-1.164,2.366,2.366,0,0,1,.7.1ZM65.1,35a2.507,2.507,0,0,1-.227-.758,2.732,2.732,0,0,1-2.133.914,3,3,0,0,1-2.059-.719,2.312,2.312,0,0,1-.816-1.812,2.389,2.389,0,0,1,1-2.062,4.915,4.915,0,0,1,2.879-.727h1.039v-.484a1.393,1.393,0,0,0-.3-.937,1.183,1.183,0,0,0-.949-.352,1.345,1.345,0,0,0-.895.273.929.929,0,0,0-.324.75H60.055a2.268,2.268,0,0,1,.453-1.359,3,3,0,0,1,1.281-.98,4.669,4.669,0,0,1,1.859-.355,3.689,3.689,0,0,1,2.48.785,2.747,2.747,0,0,1,.918,2.207v3.664a4.041,4.041,0,0,0,.336,1.82V35Zm-1.867-1.57a1.945,1.945,0,0,0,.922-.223,1.462,1.462,0,0,0,.625-.6V31.156h-.844q-1.7,0-1.8,1.172l-.008.133a.9.9,0,0,0,.3.7A1.153,1.153,0,0,0,63.234,33.43Zm7.625-6.883.07.977a2.951,2.951,0,0,1,2.43-1.133,2.453,2.453,0,0,1,2,.789,3.682,3.682,0,0,1,.672,2.359V35H73.773V29.594a1.465,1.465,0,0,0-.312-1.043,1.4,1.4,0,0,0-1.039-.324,1.553,1.553,0,0,0-1.43.813V35H68.734V26.547ZM82.32,32.664a.727.727,0,0,0-.41-.652,4.659,4.659,0,0,0-1.316-.426q-3.016-.633-3.016-2.562a2.323,2.323,0,0,1,.934-1.879,3.766,3.766,0,0,1,2.441-.754,4.053,4.053,0,0,1,2.574.758,2.388,2.388,0,0,1,.965,1.969H82.234a1.092,1.092,0,0,0-.312-.8A1.322,1.322,0,0,0,80.945,28a1.351,1.351,0,0,0-.883.258.814.814,0,0,0-.312.656.7.7,0,0,0,.355.605,3.657,3.657,0,0,0,1.2.4,9.8,9.8,0,0,1,1.422.379,2.336,2.336,0,0,1,1.789,2.273,2.2,2.2,0,0,1-.992,1.871,4.28,4.28,0,0,1-2.562.715,4.47,4.47,0,0,1-1.887-.379,3.166,3.166,0,0,1-1.293-1.039,2.414,2.414,0,0,1-.469-1.426h2.141a1.179,1.179,0,0,0,.445.922,1.766,1.766,0,0,0,1.109.32,1.635,1.635,0,0,0,.98-.246A.766.766,0,0,0,82.32,32.664Zm5.766-6.117.07.945a2.971,2.971,0,0,1,2.43-1.1,2.255,2.255,0,0,1,2.242,1.289,2.9,2.9,0,0,1,2.539-1.289,2.521,2.521,0,0,1,2.047.8,3.681,3.681,0,0,1,.672,2.41V35H95.82V29.609a1.61,1.61,0,0,0-.281-1.051,1.246,1.246,0,0,0-.992-.332,1.409,1.409,0,0,0-1.406.969l.008,5.8H90.891V29.617a1.59,1.59,0,0,0-.289-1.062,1.259,1.259,0,0,0-.984-.328,1.463,1.463,0,0,0-1.391.8V35H85.969V26.547ZM102.2,35H99.938V26.547H102.2ZM99.8,24.359a1.112,1.112,0,0,1,.34-.836,1.465,1.465,0,0,1,1.848,0,1.193,1.193,0,0,1,0,1.68,1.448,1.448,0,0,1-1.836,0A1.108,1.108,0,0,1,99.8,24.359Zm8.836,8.3a.727.727,0,0,0-.41-.652,4.659,4.659,0,0,0-1.316-.426q-3.016-.633-3.016-2.562a2.323,2.323,0,0,1,.934-1.879,3.766,3.766,0,0,1,2.441-.754,4.053,4.053,0,0,1,2.574.758,2.388,2.388,0,0,1,.965,1.969h-2.258a1.092,1.092,0,0,0-.312-.8,1.322,1.322,0,0,0-.977-.316,1.351,1.351,0,0,0-.883.258.814.814,0,0,0-.312.656.7.7,0,0,0,.355.605,3.657,3.657,0,0,0,1.2.4,9.8,9.8,0,0,1,1.422.379,2.336,2.336,0,0,1,1.789,2.273,2.2,2.2,0,0,1-.992,1.871,4.28,4.28,0,0,1-2.562.715,4.47,4.47,0,0,1-1.887-.379,3.166,3.166,0,0,1-1.293-1.039,2.414,2.414,0,0,1-.469-1.426h2.141a1.179,1.179,0,0,0,.445.922,1.766,1.766,0,0,0,1.109.32,1.635,1.635,0,0,0,.98-.246A.766.766,0,0,0,108.641,32.664ZM114.672,35h-2.266V26.547h2.266Zm-2.4-10.641a1.112,1.112,0,0,1,.34-.836,1.465,1.465,0,0,1,1.848,0,1.193,1.193,0,0,1,0,1.68,1.448,1.448,0,0,1-1.836,0A1.108,1.108,0,0,1,112.273,24.359ZM116.18,30.7a5.013,5.013,0,0,1,.484-2.242,3.546,3.546,0,0,1,1.395-1.523,4.069,4.069,0,0,1,2.113-.539,3.849,3.849,0,0,1,2.793,1.047,4.2,4.2,0,0,1,1.207,2.844l.016.578A4.418,4.418,0,0,1,123.1,33.98a4.209,4.209,0,0,1-5.832,0,4.5,4.5,0,0,1-1.09-3.187Zm2.258.16a3.16,3.16,0,0,0,.453,1.843,1.628,1.628,0,0,0,2.578.008,3.457,3.457,0,0,0,.461-2.015,3.128,3.128,0,0,0-.461-1.831,1.5,1.5,0,0,0-1.3-.649,1.474,1.474,0,0,0-1.281.646A3.516,3.516,0,0,0,118.438,30.856ZM120.617,23h2.461l-2.164,2.422h-1.836Zm7.039,3.547.07.977a2.951,2.951,0,0,1,2.43-1.133,2.453,2.453,0,0,1,2,.789,3.682,3.682,0,0,1,.672,2.359V35H130.57V29.594a1.465,1.465,0,0,0-.312-1.043,1.4,1.4,0,0,0-1.039-.324,1.553,1.553,0,0,0-1.43.813V35h-2.258V26.547Z" transform="translate(949.676 2731)" fill="#12263f"/>
    <g id="Grupo_149887" data-name="Grupo 149887" transform="translate(741.676 -3197)">
      <circle id="Elipse_4775" data-name="Elipse 4775" cx="43" cy="43" r="43" transform="translate(256 5830)" fill="#ff2c9c"/>
      <g id="RPLRvI.tif" transform="translate(934.503 4194.171)">
        <g id="Grupo_142575" data-name="Grupo 142575" transform="translate(-666.931 1653.613)">
          <path id="Trazado_183809" data-name="Trazado 183809" d="M-577.2,1724c0,2.643.027,5.287-.009,7.929a3.631,3.631,0,0,1-3.885,3.942q-7.09.074-14.18,0a3.639,3.639,0,0,1-3.907-3.924q-.042-8,0-16.01a3.591,3.591,0,0,1,3.886-3.915q7.09-.053,14.18,0c2.516.019,3.892,1.476,3.911,4.047C-577.184,1718.717-577.2,1721.36-577.2,1724Zm-2.442-.125h-.008c0-2.438,0-4.876,0-7.315,0-1.878-.251-2.152-2.075-2.156q-6.477-.017-12.954.01c-1.8.007-2.051.251-2.056,2-.014,5.029.015,10.059-.026,15.088-.011,1.346.489,1.96,1.869,1.951q6.705-.045,13.411,0c1.4.011,1.879-.638,1.855-1.963C-579.674,1728.959-579.642,1726.418-579.642,1723.878Z" transform="translate(619.97 -1694.096)" fill="#fff"/>
          <path id="Trazado_183810" data-name="Trazado 183810" d="M-479.213,1718.508a18.1,18.1,0,0,1-6.05,13.525c-.675.616-1.419,1.2-2.219.278-.733-.841-.118-1.456.514-2.058,7.067-6.727,7.059-16.668-.02-23.322-.673-.633-1.345-1.268-.519-2.163.767-.832,1.475-.252,2.109.306A17.764,17.764,0,0,1-479.213,1718.508Z" transform="translate(542.793 -1688.793)" fill="#fff"/>
          <path id="Trazado_183811" data-name="Trazado 183811" d="M-666.931,1717.467a17.377,17.377,0,0,1,5.784-12.028c.692-.65,1.475-1.567,2.437-.505.893.987-.026,1.627-.7,2.258a15.524,15.524,0,0,0,.063,23.025c.6.562,1.381,1.1.745,2.029-.686,1-1.448.575-2.188-.043C-664.582,1729.036-666.933,1723.847-666.931,1717.467Z" transform="translate(666.931 -1688.86)" fill="#fff"/>
          <path id="Trazado_183812" data-name="Trazado 183812" d="M-586.484,1653.613a13.308,13.308,0,0,1,8.468,3.627c.652.589,1.194,1.256.443,2.07s-1.421.324-2.1-.256c-4.7-4.006-10.5-4.021-15.263-.056-.7.58-1.433,1.21-2.212.264-.76-.923-.019-1.581.634-2.179A14.484,14.484,0,0,1-586.484,1653.613Z" transform="translate(618.772 -1653.613)" fill="#fff"/>
          <path id="Trazado_183813" data-name="Trazado 183813" d="M-507.912,1729.465a10.985,10.985,0,0,1-4.442,8.732c-.677.531-1.441.979-2.124.106-.666-.852-.118-1.454.582-2.029,4.709-3.867,4.77-10.025.142-13.938-.694-.587-1.471-1.181-.733-2.117.816-1.035,1.635-.312,2.345.279A11.214,11.214,0,0,1-507.912,1729.465Z" transform="translate(561.442 -1699.432)" fill="#fff"/>
          <path id="Trazado_183814" data-name="Trazado 183814" d="M-628.5,1719.111c.373.295.859.5,1,.844a1.728,1.728,0,0,1-.106,1.268c-.16.335-.584.544-.894.805a8.678,8.678,0,0,0,.093,13.647c.157.129.42.216.468.374.172.567.273,1.156.4,1.737-.627.064-1.446.417-1.849.147a10.4,10.4,0,0,1-4.678-7.683,11.114,11.114,0,0,1,4.3-10.349A11.75,11.75,0,0,1-628.5,1719.111Z" transform="translate(644.202 -1699.026)" fill="#fff"/>
          <path id="Trazado_183815" data-name="Trazado 183815" d="M-578.633,1670.023a8.82,8.82,0,0,1,5.832,2.28c.655.583,1,1.354.264,1.931a1.955,1.955,0,0,1-1.813-.1c-3.113-2.218-5.605-2.268-8.606.037-.7.542-1.5.831-1.932,0a2.147,2.147,0,0,1,.432-1.906A8.231,8.231,0,0,1-578.633,1670.023Z" transform="translate(610.107 -1664.991)" fill="#fff"/>
          <path id="Trazado_183816" data-name="Trazado 183816" d="M-570.44,1686.154a2.639,2.639,0,0,1,2.643,2.576,2.673,2.673,0,0,1-2.679,2.709,2.686,2.686,0,0,1-2.64-2.75A2.613,2.613,0,0,1-570.44,1686.154Z" transform="translate(601.886 -1676.175)" fill="#fff"/>
          <path id="Trazado_183817" data-name="Trazado 183817" d="M-571.823,1734.663c0,1.17.054,2.343-.012,3.509a3.561,3.561,0,0,1-3.63,3.56c-2.032.062-4.07.057-6.1,0a3.532,3.532,0,0,1-3.609-3.575q-.109-3.582,0-7.17a3.572,3.572,0,0,1,3.624-3.581c2.032-.066,4.07-.068,6.1,0a3.6,3.6,0,0,1,3.615,3.6C-571.774,1732.219-571.823,1733.442-571.823,1734.663Zm-2.44-.126h-.006v-3.2a1.341,1.341,0,0,0-1.481-1.532c-1.83-.009-3.66,0-5.49,0a1.332,1.332,0,0,0-1.5,1.5q-.01,3.279-.006,6.558a1.272,1.272,0,0,0,1.41,1.426c1.881.014,3.762.009,5.643.008a1.28,1.28,0,0,0,1.43-1.409C-574.248,1736.774-574.264,1735.656-574.264,1734.537Z" transform="translate(610.284 -1704.742)" fill="#fff"/>
          <path id="Trazado_183818" data-name="Trazado 183818" d="M-564.282,1748.514c-.862.541-1.368,1.105-1.838,1.077-.393-.024-.743-.741-1.113-1.152.433-.387.828-1.007,1.31-1.084C-565.553,1747.3-565.074,1747.922-564.282,1748.514Z" transform="translate(597.805 -1718.606)" fill="#fff"/>
        </g>
      </g>
    </g>
  </g>
</svg>
