<svg xmlns="http://www.w3.org/2000/svg" width="177.506" height="390" viewBox="0 0 177.506 390">
  <g id="Grupo_152089" data-name="Grupo 152089" transform="translate(-172.17 -15666.127)">
    <path id="Trazado_194550" data-name="Trazado 194550" d="M73.76-41.152q0,20.645-8.545,31.582T40.2,1.367q-16.27,0-24.883-10.732T6.494-40.127v-18.32q0-20.85,8.647-31.65t24.917-10.8q16.27,0,24.883,10.7T73.76-59.473ZM54-61.295q0-12.386-3.384-18.031T40.059-84.971q-6.973,0-10.288,5.372T26.25-62.8v24.223q0,12.18,3.315,18.1T40.2-14.561q7.246,0,10.459-5.679T54-37.62Zm53.184,2.779h10.527q7.52,0,11.143-3.76a13.777,13.777,0,0,0,3.623-9.98q0-6.016-3.589-9.365t-9.878-3.35a14.579,14.579,0,0,0-9.5,3.11,9.945,9.945,0,0,0-3.828,8.1H85.928a24.3,24.3,0,0,1,4.2-13.979,28.015,28.015,0,0,1,11.758-9.673,39.241,39.241,0,0,1,16.646-3.486q15.791,0,24.746,7.554t8.955,20.815a20.943,20.943,0,0,1-4.17,12.578,27.091,27.091,0,0,1-10.937,8.818q8.408,3.008,12.544,9.023a24.477,24.477,0,0,1,4.136,14.219q0,13.262-9.673,21.26t-25.6,8q-14.9,0-24.37-7.861T84.7-27.275h19.756a11.446,11.446,0,0,0,4.2,9.16,15.492,15.492,0,0,0,10.356,3.555q7.041,0,11.04-3.726a12.861,12.861,0,0,0,4-9.878q0-14.9-16.406-14.9H107.188Z" transform="translate(165.676 15794.344)" fill="#12263f" opacity="0.422"/>
    <rect id="Rectángulo_45022" data-name="Rectángulo 45022" width="8" height="390" transform="translate(341.676 15666.127)" fill="#12263f"/>
  </g>
</svg>
