<svg xmlns="http://www.w3.org/2000/svg" width="49.51" height="49.434" viewBox="0 0 49.51 49.434">
  <g id="Grupo_153384" data-name="Grupo 153384" transform="translate(-707.972 -312.255)">
    <path id="Trazado_197643" data-name="Trazado 197643" d="M754.739,346.088a3.293,3.293,0,0,0-3.647,2.115c-.088.22-.175.316-.432.315q-4.255-.017-8.509,0c-.315,0-.358-.113-.353-.383.015-.858.013-1.716,0-2.573,0-.245.049-.328.321-.374a2.457,2.457,0,0,0,2.159-2.582c0-.635.026-1.271-.009-1.9-.021-.379.113-.443.459-.436,1.2.022,2.406.006,3.61.009a11.615,11.615,0,0,0,2.464-.155,8.229,8.229,0,0,0-2.463-16.259c-.383.055-.481-.042-.584-.39a15.66,15.66,0,0,0-17.762-10.957,15.388,15.388,0,0,0-10.871,7.649.62.62,0,0,1-.683.366,9.282,9.282,0,0,0-3.211.339,9.875,9.875,0,0,0,1.443,19.323,34.831,34.831,0,0,0,4.069.072c.368,0,.46.1.443.455-.031.633-.011,1.269-.008,1.9a2.444,2.444,0,0,0,2.175,2.566c.3.048.3.168.3.389-.006.841-.02,1.682.006,2.522.01.338-.087.422-.422.42q-4.177-.021-8.354,0a.483.483,0,0,1-.544-.376,3.292,3.292,0,1,0,0,2.389c.128-.334.292-.381.6-.378,1.547.013,3.094.006,4.641.006,1.581,0,3.163,0,4.744,0,.673,0,.979-.3.984-.968.006-.926,0-1.853,0-2.779,0-1.2,0-1.181,1.179-1.2.372-.007.488.067.483.467-.025,1.887-.022,3.774,0,5.661,0,.372-.069.486-.468.481-1.994-.024-3.988-.013-5.982-.01-.676,0-.978.3-.985.966-.006.635-.03,1.271.009,1.9a.6.6,0,0,1-.463.7,3.253,3.253,0,0,0-1.986,3.527,3.3,3.3,0,0,0,6.41.475,3.1,3.1,0,0,0-1.492-3.781,1.29,1.29,0,0,1-.831-1.561.561.561,0,0,0,0-.154c-.072-.378.108-.438.452-.435,1.96.017,3.919.009,5.879.008.833,0,1.1-.269,1.1-1.115,0-2.213.013-4.426-.011-6.639,0-.421.126-.5.511-.489.79.029,1.582.031,2.371,0,.379-.016.44.113.438.458q-.023,3.731,0,7.463c0,.328-.1.451-.41.574a3.254,3.254,0,0,0-1.913,4.046,3.3,3.3,0,1,0,4.358-4.062c-.237-.092-.4-.141-.4-.471.018-2.556.015-5.113,0-7.669,0-.279.087-.34.348-.336.842.015,1.685.027,2.526,0,.373-.014.444.1.442.454-.017,2.247-.01,4.495-.008,6.742,0,.768.284,1.047,1.059,1.048,1.667,0,3.335,0,5,0,.442,0,1.022-.192,1.287.077s.038.847.082,1.286c.03.292-.085.4-.355.506a3.262,3.262,0,0,0-1.969,4.064,3.3,3.3,0,1,0,4.363-4.045c-.316-.12-.417-.251-.4-.578.028-.634.01-1.269.008-1.9,0-.773-.282-1.055-1.052-1.056-1.977,0-3.954-.01-5.93.008-.355,0-.458-.074-.453-.443.022-1.647.01-3.294.01-4.941,0-1.234,0-1.222,1.26-1.222.313,0,.4.069.4.393-.022,1.149-.009,2.3-.008,3.448,0,.845.263,1.109,1.1,1.109,3.094,0,6.188.005,9.283-.007a.511.511,0,0,1,.584.395,3.294,3.294,0,1,0,3.615-4.457ZM711.3,350.981a1.646,1.646,0,1,1,1.624-1.647A1.66,1.66,0,0,1,711.3,350.981ZM722,358.4a1.65,1.65,0,1,1-1.618-1.653A1.658,1.658,0,0,1,722,358.4Zm23.105-1.653a1.645,1.645,0,1,1-1.649,1.672A1.666,1.666,0,0,1,745.1,356.747Zm-22.278-23.714c0-.7.3-.993,1.009-.993q8.889,0,17.779,0c.71,0,1.011.294,1.015.988q.008,1.466,0,2.932c0,.731-.294,1.02-1.036,1.02q-4.432,0-8.864,0h-8.812c-.815,0-1.09-.269-1.092-1.067C722.824,334.953,722.822,333.993,722.827,333.033Zm0-3.652q-.006-1.466,0-2.932c0-.7.3-1,1-1q4.458,0,8.915,0h8.761c.87,0,1.123.257,1.124,1.138,0,.943,0,1.886,0,2.829a.85.85,0,0,1-.979.973q-8.915,0-17.83,0C723.123,330.39,722.829,330.088,722.827,329.381Zm-1.651-2.879c0,.978.008,1.956,0,2.933a2.43,2.43,0,0,0,.46,1.545.328.328,0,0,1-.009.479,2.418,2.418,0,0,0-.451,1.5c.008,1.046.006,2.093,0,3.139a2.555,2.555,0,0,0,.434,1.453c.169.257-.153,1.077-.449,1.069-2.1-.052-4.229.26-6.269-.545a8.227,8.227,0,0,1,1.892-15.837,7.736,7.736,0,0,1,2.155,0c.754.107.931-.016,1.307-.693,2.884-5.188,7.316-7.789,13.246-7.585a13.877,13.877,0,0,1,12.869,10.686c.247,1.029.471,1.168,1.515.941a6.589,6.589,0,1,1,2.348,12.962,7.574,7.574,0,0,1-1.129.082c-1.427,0-2.857-.065-4.278.028-.678.044-.818-.378-1.09-.758-.105-.147.031-.216.092-.3a2.735,2.735,0,0,0,.466-1.651q-.022-1.518,0-3.036c.01-.649-.533-1.192-.521-1.708s.522-1.032.519-1.66c-.006-1.08.008-2.161,0-3.242a2.458,2.458,0,0,0-2.528-2.491c-3.008-.008-6.015,0-9.023,0q-4.434,0-8.868,0A2.484,2.484,0,0,0,721.175,326.5Zm13.2,30.22a1.65,1.65,0,1,1-1.649-1.622A1.657,1.657,0,0,1,734.378,356.722Zm-1.648-13.153h-8.812c-.815,0-1.09-.27-1.091-1.067,0-.96,0-1.92,0-2.88,0-.7.3-.992,1.009-.993q8.889,0,17.779,0c.709,0,1.01.294,1.014.989q.008,1.466,0,2.932c0,.732-.294,1.019-1.036,1.019Q737.161,343.571,732.729,343.569Zm21.454,7.412a1.646,1.646,0,1,1,1.65-1.622A1.659,1.659,0,0,1,754.183,350.981Z" fill="#eddd9c"/>
    <path id="Trazado_197644" data-name="Trazado 197644" d="M828.279,421.724c1.5-.019,2.991-.008,4.486-.008h3.816c1.193,0,1.174,0,1.2-1.184.008-.386-.091-.476-.476-.474-2.733.019-5.466.01-8.2.01-1.253,0-1.24,0-1.248,1.235C827.855,421.64,827.943,421.728,828.279,421.724Z" transform="translate(-103.39 -92.971)" fill="#eddd9c"/>
    <path id="Trazado_197645" data-name="Trazado 197645" d="M912.747,421.778c.791,0,.791,0,.791-.806,0-.841,0-.841-.859-.841-.791,0-.791,0-.791.806C911.888,421.778,911.888,421.778,912.747,421.778Z" transform="translate(-175.859 -93.033)" fill="#eddd9c"/>
    <path id="Trazado_197646" data-name="Trazado 197646" d="M936.68,421.778c.85,0,.85,0,.85-.85,0-.8,0-.8-.8-.8-.85,0-.85,0-.85.85C935.879,421.778,935.879,421.778,936.68,421.778Z" transform="translate(-196.55 -93.033)" fill="#eddd9c"/>
    <path id="Trazado_197647" data-name="Trazado 197647" d="M828.281,469.621c1.5-.015,2.991-.007,4.486-.007h3.816c1.182,0,1.16,0,1.188-1.2.009-.411-.129-.462-.489-.46-2.733.015-5.466.008-8.2.008-1.245,0-1.228,0-1.238,1.247C827.842,469.573,827.967,469.624,828.281,469.621Z" transform="translate(-103.379 -134.281)" fill="#eddd9c"/>
    <path id="Trazado_197648" data-name="Trazado 197648" d="M912.744,469.665c.795,0,.795,0,.795-.8,0-.845,0-.845-.855-.845-.795,0-.795,0-.795.8C911.888,469.665,911.888,469.665,912.744,469.665Z" transform="translate(-175.859 -134.332)" fill="#eddd9c"/>
    <path id="Trazado_197649" data-name="Trazado 197649" d="M936.68,469.665c.85,0,.85,0,.85-.85,0-.8,0-.8-.8-.8-.85,0-.85,0-.85.85C935.879,469.665,935.879,469.665,936.68,469.665Z" transform="translate(-196.55 -134.332)" fill="#eddd9c"/>
    <path id="Trazado_197650" data-name="Trazado 197650" d="M837.3,515.833c-2.733.019-5.466.01-8.2.01-1.253,0-1.24,0-1.248,1.235,0,.336.087.425.422.42,1.495-.019,2.991-.008,4.486-.008h3.816c1.193,0,1.174,0,1.2-1.183C837.786,515.92,837.688,515.83,837.3,515.833Z" transform="translate(-103.39 -175.568)" fill="#eddd9c"/>
    <path id="Trazado_197651" data-name="Trazado 197651" d="M912.692,515.906c-.8,0-.8,0-.8.793,0,.854,0,.854.846.854.8,0,.8,0,.8-.793C913.538,515.906,913.538,515.906,912.692,515.906Z" transform="translate(-175.859 -175.631)" fill="#eddd9c"/>
    <path id="Trazado_197652" data-name="Trazado 197652" d="M936.69,515.906c-.811,0-.811,0-.811.786,0,.861,0,.861.839.861.811,0,.811,0,.811-.786C937.529,515.906,937.529,515.906,936.69,515.906Z" transform="translate(-196.55 -175.631)" fill="#eddd9c"/>
  </g>
</svg>
