<svg xmlns="http://www.w3.org/2000/svg" width="177.506" height="390" viewBox="0 0 177.506 390">
  <g id="Grupo_152083" data-name="Grupo 152083" transform="translate(-172.17 -15205)">
    <path id="Trazado_194549" data-name="Trazado 194549" d="M73.76-41.152q0,20.645-8.545,31.582T40.2,1.367q-16.27,0-24.883-10.732T6.494-40.127v-18.32q0-20.85,8.647-31.65t24.917-10.8q16.27,0,24.883,10.7T73.76-59.473ZM54-61.295q0-12.386-3.384-18.031T40.059-84.971q-6.973,0-10.288,5.372T26.25-62.8v24.223q0,12.18,3.315,18.1T40.2-14.561q7.246,0,10.459-5.679T54-37.62ZM155.313,0H87.09V-13.535l32.2-34.316A79.43,79.43,0,0,0,129.1-60.5a20.318,20.318,0,0,0,3.179-10.254q0-6.631-3.35-10.425t-9.57-3.794a13.041,13.041,0,0,0-10.562,4.614q-3.862,4.614-3.862,12.134H85.107a32.63,32.63,0,0,1,4.341-16.611,30.594,30.594,0,0,1,12.271-11.792A37.3,37.3,0,0,1,119.7-100.9q15.381,0,23.892,7.383t8.511,20.85a33.466,33.466,0,0,1-3.828,15.039q-3.828,7.656-13.125,17.842L112.52-15.928h42.793Z" transform="translate(165.676 15333.217)" fill="#12263f" opacity="0.422"/>
    <rect id="Rectángulo_44869" data-name="Rectángulo 44869" width="8" height="390" transform="translate(341.676 15205)" fill="#12263f"/>
  </g>
</svg>
