<svg xmlns="http://www.w3.org/2000/svg" width="152" height="151" viewBox="0 0 152 151">
  <g id="Grupo_158451" data-name="Grupo 158451" transform="translate(-930.676 -15230)">
    <ellipse id="Elipse_5158" data-name="Elipse 5158" cx="76" cy="75.5" rx="76" ry="75.5" transform="translate(930.676 15230)" fill="#fff"/>
    <g id="Grupo_158450" data-name="Grupo 158450" transform="translate(268.026 15235.421)">
      <path id="Trazado_208413" data-name="Trazado 208413" d="M769.267,111.576c-.748-.1-.862-.375-.829-1.031a20.3,20.3,0,0,0-.484-5.192,22.6,22.6,0,0,0-4.138-8.946A14.388,14.388,0,1,0,760.8,67.865a13.64,13.64,0,0,0-9.261,6.031,14.279,14.279,0,0,0-1.289,14.023,3.453,3.453,0,0,1-.4,0c-9.793-1.455-17.617,1.78-23.36,9.9-.389.55-.711.531-1.251.4a15.84,15.84,0,0,0-19.609,13.224.923.923,0,0,1-.734.9,19.02,19.02,0,0,0-13.011,21.039c1.1,6.987,4.7,12.276,11.166,15.418a9.658,9.658,0,0,0,4.334.968q29.653-.05,59.306-.015a19.836,19.836,0,0,0,3.262-.256c9.324-1.547,15.953-9.777,15.775-19.565A19.111,19.111,0,0,0,769.267,111.576ZM763.36,71.731a10.263,10.263,0,1,1-10.238,10.241A10.288,10.288,0,0,1,763.36,71.731Zm3.681,73.893c-4.1.049-8.195.008-12.293.008-4.3,0-8.605-.029-12.907.024-.884.011-1.038-.249-1.033-1.074.035-7.013.018-14.027.023-21.041a2.6,2.6,0,0,0-.39-1.66,1.936,1.936,0,0,0-2.056-.836,1.98,1.98,0,0,0-1.63,1.756,8.316,8.316,0,0,0-.024,1.229c0,6.877-.024,13.754.027,20.631.007.964-.378.965-1.116,1-.85.042-.98-.273-.976-1.031.03-5.679.009-11.359.024-17.038a2.3,2.3,0,0,0-.944-2.138,1.88,1.88,0,0,0-2.037-.113,2.035,2.035,0,0,0-1.124,1.926q0,4.875,0,9.751c0,2.6-.052,5.2.027,7.8.029.974-.5.8-1.07.821-.618.022-1.044.057-1.032-.858.059-4.447.035-8.9.021-13.343a2.052,2.052,0,1,0-4.091-.01c-.007.239,0,.479,0,.719,0,4.174-.038,8.349.028,12.522.016.978-.4.95-1.125.993-.867.053-.977-.294-.968-1.038.037-2.942.019-5.884.014-8.827,0-1.539-.833-2.512-2.1-2.479-1.236.032-1.994.966-2,2.477,0,2.977-.022,5.953.014,8.93.008.674-.1.938-.863.928-3.517-.045-7.034,0-10.551-.028a7.587,7.587,0,0,1-4.024-1.6,16.09,16.09,0,0,1-6.847-16.243c1.3-6.351,5.288-10.3,11.554-11.928,1.495-.387,2.039-.96,2.038-2.5,0-7.978,8.266-13.762,16.209-10.67,1.632.635,2.348.268,3.363-1.445,4.092-6.9,10.246-10.2,18.142-9.488s13.359,5.077,16.1,12.615a17.156,17.156,0,0,1,.723,8.4c-.25,1.757.555,2.666,2.307,2.693a15.088,15.088,0,0,1,.579,30.169Z" transform="translate(0 -32.729)"/>
      <path id="Trazado_208414" data-name="Trazado 208414" d="M756.268,47.212A12.317,12.317,0,1,0,744.047,34.9,12.348,12.348,0,0,0,756.268,47.212Zm.127-20.527a8.211,8.211,0,1,1-8.249,8.153A8.228,8.228,0,0,1,756.395,26.685Z" transform="translate(-38.049)"/>
      <path id="Trazado_208415" data-name="Trazado 208415" d="M699.1,99.174c0,2.839.019,5.678-.015,8.517-.007.615.117.845.776.8a22.7,22.7,0,0,1,2.661,0c.523.024.691-.117.689-.671q-.032-8.569,0-17.137c0-.518-.109-.723-.668-.692a22.769,22.769,0,0,1-2.661,0c-.62-.038-.806.125-.8.777C699.128,93.564,699.1,96.369,699.1,99.174Z" transform="translate(-5.401 -48.943)"/>
      <path id="Trazado_208416" data-name="Trazado 208416" d="M721.416,129.725c.672.684,2.124.123,3.232.225.6.054.732-.169.723-.737-.032-2.086-.007-4.172-.015-6.258,0-1.055.382-2.518-.152-3.062-.672-.683-2.122-.145-3.233-.216a.976.976,0,0,1-.1,0c-.5-.084-.628.145-.618.626.029,1.47.01,2.941.01,4.412,0,.65-.006,1.3,0,1.949C721.274,127.719,720.881,129.181,721.416,129.725Z" transform="translate(-21.411 -70.411)"/>
      <path id="Trazado_208417" data-name="Trazado 208417" d="M743.977,142.474c-.011.618.212.732.758.707a24.431,24.431,0,0,1,2.661,0c.621.039.725-.213.706-.759-.038-1.093-.011-2.188-.011-3.283s-.041-2.191.015-3.282c.035-.679-.094-.989-.861-.919a16.7,16.7,0,0,1-2.456.005c-.585-.033-.831.072-.816.756C744.024,137.959,744.016,140.217,743.977,142.474Z" transform="translate(-37.995 -81.587)"/>
      <path id="Trazado_208418" data-name="Trazado 208418" d="M723.649,165.016c-2.051,0-2.051,0-2.051,2.051s0,2.055,2.047,2.055,2.051,0,2.051-2.051S725.7,165.016,723.649,165.016Z" transform="translate(-21.748 -103.433)"/>
      <path id="Trazado_208419" data-name="Trazado 208419" d="M884.392,179.011a2.053,2.053,0,1,0-1.259,3.895,14.461,14.461,0,0,1,1.884.775c3.7,1.969,5.3,5.213,5.563,9.271a2.024,2.024,0,0,0,2.1,2.04,2.111,2.111,0,0,0,1.978-2.194,17.958,17.958,0,0,0-.786-4.523A13.994,13.994,0,0,0,884.392,179.011Z" transform="translate(-137.896 -113.5)"/>
      <path id="Trazado_208420" data-name="Trazado 208420" d="M940.6,102.946a4.628,4.628,0,0,1-1.305-.567c-.63-.474-.905-.333-1.228.351-.785,1.667-.82,1.659.933,2.293a4.27,4.27,0,0,0,1.372.38c1.018,0,1.293.482,1.148,1.4-.064.4-.016.719.563.7.522-.016.564-.3.508-.663-.144-.915.155-1.3,1.142-1.427a3.265,3.265,0,0,0,.609-6.294,12.6,12.6,0,0,0-1.358-.441c-.274-.078-.557-.137-.541-.5.026-.57-.257-1.291.138-1.667.366-.349.933.166,1.408.314a1.17,1.17,0,0,1,.365.179c.516.4.776.219,1.06-.326.822-1.576.849-1.569-.826-2.219a4.456,4.456,0,0,0-1.077-.307c-.684-.079-1.06-.336-.923-1.1.069-.386.038-.723-.547-.723-.617,0-.58.387-.515.742.141.772-.252.973-.916,1.113a3.316,3.316,0,0,0-2.567,2.256c-.713,2.037.144,3.5,2.567,4.275.762.244,1.354.479,1.089,1.315C941.7,103.306,941.691,103.317,940.6,102.946Zm2.119-1.5a.927.927,0,0,1,.926.918.755.755,0,0,1-.86.8c-.677-.047-.2-.648-.38-.939C942.522,101.944,942.2,101.409,942.718,101.45Zm-1.01-3.2c-.628-.129-1.033-.34-1.149-.875a.79.79,0,0,1,.33-.8.655.655,0,0,1,.661-.149c.249.094.146.345.153.53C941.718,97.363,941.708,97.77,941.708,98.252Z" transform="translate(-178.565 -50.65)"/>
      <path id="Trazado_208421" data-name="Trazado 208421" d="M778.108,53.3a4.181,4.181,0,0,1-1.12-.478c-.515-.375-.7-.183-.946.3-.684,1.367-.71,1.366.719,1.9a5.843,5.843,0,0,0,1.376.373c.6.065.818.313.748.917-.038.329-.171.8.461.806s.507-.456.472-.789c-.062-.591.137-.784.74-.9a2.624,2.624,0,0,0,2.461-2.349c.229-1.638-.507-2.563-2.568-3.228a1.24,1.24,0,0,1-.762-1.713c.336-.6.8.017,1.214.058a.76.76,0,0,1,.367.173c.48.385.664.1.893-.317.671-1.238.691-1.233-.6-1.749a4.534,4.534,0,0,0-.972-.3c-.53-.083-.9-.232-.775-.891.056-.3.052-.619-.428-.632-.512-.014-.551.289-.518.661a.674.674,0,0,1-.587.85,2.929,2.929,0,0,0-2.459,2.86c-.023,1.334.593,2.052,2.391,2.633.6.193,1.01.4.818,1.032C779.04,53.609,779.037,53.617,778.108,53.3Zm1.523-1.323c.674.237,1.176.4,1.01,1.082a.547.547,0,0,1-.7.424C779.315,53.16,779.788,52.558,779.631,51.975Zm-1.5-3.543c.042-.335.382-.656.635-.518.606.331.087.932.353,1.458C778.4,49.283,778.059,49.018,778.133,48.433Z" transform="translate(-60.952 -15.904)"/>
    </g>
  </g>
</svg>
