<svg xmlns="http://www.w3.org/2000/svg" width="112" height="112" viewBox="0 0 112 112">
  <g id="Grupo_164907" data-name="Grupo 164907" transform="translate(-893.676 -8748.596)">
    <circle id="Elipse_6388" data-name="Elipse 6388" cx="56" cy="56" r="56" transform="translate(893.676 8748.596)" fill="#12263f"/>
    <g id="Grupo_158382" data-name="Grupo 158382" transform="translate(250.449 8924.407)">
      <path id="Trazado_208061" data-name="Trazado 208061" d="M732.065-88.515c-.321-.409-1.152-.124-1.759-.128-.374,0-.468-.113-.479-.482-.056-1.871-.066-1.917,1.772-1.859a3.813,3.813,0,0,0,4.109-2.862v-10.828a5.649,5.649,0,0,0-1.065-1.8,3.8,3.8,0,0,0-2.723-1.018c-1.685,0-3.37-.019-5.054.012-.479.009-.589-.14-.577-.592.031-1.114-.039-2.233.028-3.344.042-.691-.215-.8-.828-.791-3.417.028-6.834,0-10.252.027-.6.005-.741-.16-.735-.747q.047-4.556,0-9.112c-.006-.575.11-.758.723-.75,2.776.037,5.553.017,8.329.016A11.743,11.743,0,0,0,735.572-132.8c.017-.1.031-.184.136-.222v-2.85a6.434,6.434,0,0,1-.342-1.486,11.773,11.773,0,0,0-12.372-8.885.812.812,0,0,1-.9-.533c-3.442-6.187-8.735-9.324-15.784-8.839-6.7.461-11.412,4.078-14.109,10.248-.187.428-.338.558-.821.424a6.78,6.78,0,0,0-2.262-.178c-.385.026-.475-.114-.469-.479.022-1.187-.006-2.374.017-3.561.007-.381-.083-.581-.493-.569a2.15,2.15,0,0,1-.419-.077,1.486,1.486,0,0,1-1.028-2.521c.5-.609.391-.915-.13-1.4-1.264-1.185-2.485-2.418-3.676-3.676-.372-.393-.607-.375-.967-.046a1.824,1.824,0,0,1-.922.5c-1.006.168-1.742-.44-1.854-1.643-.048-.514-.19-.67-.718-.66-1.851.036-3.7.026-5.556,0-.424,0-.675.072-.645.551a1.253,1.253,0,0,1-.055.278,1.519,1.519,0,0,1-2.6,1.06c-.51-.406-.781-.415-1.241.075-1.217,1.3-2.492,2.544-3.771,3.783-.328.317-.4.512-.093.909,1.08,1.4.633,2.554-1.1,2.813-.555.083-.655.293-.647.8.029,1.828.023,3.656,0,5.484,0,.424.061.644.557.658a1.61,1.61,0,0,1,1.214,2.83c-.348.342-.3.569.051.906,1.283,1.235,2.552,2.486,3.774,3.78.443.469.749.575,1.235.094a1.427,1.427,0,0,1,1.574-.362,1.367,1.367,0,0,1,1.007,1.321c.014,2.3.005,4.6.005,7.014a7.184,7.184,0,0,0-2.856-1.285,3.984,3.984,0,0,0-2.44.2,3.029,3.029,0,0,0-1.44,4.1,21.008,21.008,0,0,1,1.966,7.08c.1,1.115.074,2.231.058,3.345a8.22,8.22,0,0,0,3.664,7.3,2.251,2.251,0,0,1,1.073,2.143c-.052,6.03-.029,12.061-.03,18.092h16.528c-.011-1.114-.032-2.228-.033-3.343,0-4.865.037-9.731-.032-14.6a2.45,2.45,0,0,1,1.182-2.378,7.867,7.867,0,0,0,3.364-5.088,9.474,9.474,0,0,0,.193-1.978c0-2.824.011-5.649-.013-8.473,0-.482.094-.633.608-.632q8.829.03,17.659,0c.476,0,.581.138.579.593q-.029,4.7,0,9.4c0,.522-.169.612-.643.609-3.489-.019-6.978,0-10.467-.024-.565,0-.728.145-.7.708.045,1.09-.019,2.184.027,3.274.024.567-.091.771-.715.751-1.612-.051-3.227-.025-4.841-.015a3.583,3.583,0,0,0-3.867,3.858q-.007,4.415,0,8.829a3.569,3.569,0,0,0,3.772,3.8c.546,0,1.092.019,1.637-.006.351-.016.481.067.492.457.053,1.863.067,1.88-1.782,1.879-.466,0-.621.121-.587.593.042.59.011,1.186.011,1.779h14.106c0-.142.007-.285,0-.427-.01-.616.208-1.413-.1-1.8-.32-.4-1.154-.119-1.763-.126-.361,0-.48-.1-.494-.478C706.218-91,706.205-91,708.06-91c2.74,0,4.123-1.372,4.124-4.091q0-4.236,0-8.472a3.6,3.6,0,0,0-3.94-3.927c-1.637-.006-3.275-.013-4.912.007-.405,0-.57-.056-.573-.527-.009-1.807-.03-1.807,1.773-1.807,6.241,0,12.482.008,18.723-.014.561,0,.7.145.692.7-.033,1.642-.009,1.643-1.66,1.643-1.329,0-2.658-.012-3.987,0a3.566,3.566,0,0,0-3.78,3.8q-.015,4.449,0,8.9A3.563,3.563,0,0,0,718.3-91c.546,0,1.093.019,1.637-.006.361-.017.48.084.492.469.058,1.846.072,1.86-1.8,1.869-.456,0-.63.109-.595.592.043.59,0,1.185,0,1.779h14.106c.007-.142.022-.284.02-.425C732.155-87.334,732.368-88.128,732.065-88.515Zm-29.882-.143c-.806,0-1.611-.015-2.416.006-.371.01-.534-.06-.546-.492C699.171-91,699.154-91,701.02-91h.569c.64,0,1.28.018,1.919-.007.351-.014.422.118.436.447C704.027-88.658,704.036-88.658,702.182-88.658Zm5.944-4.7q-6.543,0-13.086,0c-1.41,0-1.977-.726-1.685-2.1.084-.394.357-.241.55-.242,2.56-.011,5.12-.007,7.681-.007,2.537,0,5.073.014,7.609-.012.494,0,.636.118.627.621C709.8-93.684,709.51-93.358,708.127-93.358Zm.307-11.752c.966,0,1.368.411,1.374,1.4.009,1.685-.013,3.371.013,5.056.007.464-.125.6-.592.595-2.563-.022-5.127-.01-7.691-.01-2.516,0-5.032-.013-7.548.011-.486,0-.649-.108-.64-.62.033-1.685.006-3.37.015-5.056.005-.972.413-1.371,1.4-1.372Q701.6-105.116,708.433-105.11ZM672.1-137.785a4.215,4.215,0,0,0-2.571-.082.5.5,0,0,1-.565-.18,6.865,6.865,0,0,0-.6-.6,2.3,2.3,0,0,1-.984-2.436,3.359,3.359,0,0,0-1.784-3.462.841.841,0,0,1-.481-.908,2.833,2.833,0,0,0,0-.569,2.415,2.415,0,0,1,1.036-2.5,3.326,3.326,0,0,0,1.156-3.713.761.761,0,0,1,.264-.914,3.879,3.879,0,0,0,.5-.5,2.215,2.215,0,0,1,2.371-.967,3.332,3.332,0,0,0,3.477-1.747.887.887,0,0,1,.962-.512,3.01,3.01,0,0,0,.64,0,2.277,2.277,0,0,1,2.376,1,3.329,3.329,0,0,0,3.7,1.192.794.794,0,0,1,.98.28,2.164,2.164,0,0,0,.4.4,2.364,2.364,0,0,1,1.049,2.5,3.389,3.389,0,0,0,1.839,3.5.682.682,0,0,1,.414.72,4.8,4.8,0,0,0,0,.854,2.205,2.205,0,0,1-.984,2.307,3.371,3.371,0,0,0-1.206,3.764.788.788,0,0,1-.279.924,3.523,3.523,0,0,0-.454.451c-.646.74-1.276,1.415-2.437.985a2.922,2.922,0,0,0-1.623.2,1.179,1.179,0,0,1,.634-1.505,8.124,8.124,0,0,0,3.6-9.542,8.3,8.3,0,0,0-8.446-5.671,8.272,8.272,0,0,0-7.408,6.367,8.093,8.093,0,0,0,3.724,8.817A1.2,1.2,0,0,1,672.1-137.785Zm3.489-7.339c-1.786.05-2.958,1.19-3.485,3.389a5.76,5.76,0,0,1-2.052-6.246,5.887,5.887,0,0,1,5.567-4.186,5.843,5.843,0,0,1,5.7,4.181,5.7,5.7,0,0,1-2.018,6.249C678.537-144.17,677.433-145.177,675.592-145.125Zm10.182,56.472c-1.8-.007-3.605,0-5.408,0-1.732,0-3.463-.015-5.195.01-.473.007-.656-.091-.651-.614q.04-4.091,0-8.183c0-.491.128-.712.632-.631.023,0,.048,0,.071,0a3.36,3.36,0,0,0,3.613-1.463c.281-.422.559-.333.812.029a3.436,3.436,0,0,0,3.553,1.454,25.594,25.594,0,0,1,2.63-.026c.336-.007.454.1.452.444-.011,2.846-.016,5.693,0,8.539C686.293-88.666,686.092-88.651,685.773-88.653Zm.515-12.254c.009.406-.119.521-.518.511-1.09-.025-2.18-.02-3.27,0a.926.926,0,0,1-.74-.316c-.726-.748-1.48-1.469-2.2-2.222-.246-.257-.4-.284-.656-.009-.7.74-1.433,1.448-2.155,2.168a3.207,3.207,0,0,1-2.063.364c-.209-.1-.149-.276-.149-.428-.006-1.28.013-2.56-.013-3.839-.009-.426.2-.439.52-.438,1.8.009,3.6,0,5.4,0,1.754,0,3.508.018,5.261-.012.474-.008.594.135.582.592C686.26-103.324,686.264-102.114,686.289-100.906Zm2.261-7.648a4.457,4.457,0,0,1-3.151,1.1c-3.678-.082-7.359-.036-11.039-.02a1.912,1.912,0,0,1-1.169-.393,6.927,6.927,0,0,1-3.217-4.17,7.246,7.246,0,0,1-.148-1.769,23.566,23.566,0,0,0-2.225-11.327c-.344-.7.056-1.208.847-1.161a4,4,0,0,1,3.71,3.821c.024.925.022,1.852,0,2.777-.009.37.1.475.478.486,1.9.059,1.9.071,1.9-1.782q0-4.808,0-9.615,0-5.342,0-10.683c0-.942.37-1.416,1.1-1.453a1.134,1.134,0,0,1,1.227,1.03,6.281,6.281,0,0,1,.011.712c0,7,.008,14.007-.013,21.011,0,.6.107.811.763.789,1.619-.054,1.62-.016,1.621-1.638,0-2.944-.009-5.888.006-8.831.005-1.047.876-1.635,1.706-1.184a1.268,1.268,0,0,1,.628,1.258c-.01,3.205.014,6.41-.021,9.615-.007.626.141.8.776.779,1.612-.049,1.613-.014,1.613-1.642,0-2.54-.006-5.08,0-7.621,0-.953.606-1.5,1.42-1.305a1.173,1.173,0,0,1,.911,1.334c-.008,2.8.014,5.6-.016,8.4-.007.614.1.859.794.833,1.592-.059,1.594-.018,1.594-1.591,0-2.137,0-4.273,0-6.41,0-.943.432-1.443,1.2-1.424.734.018,1.131.5,1.132,1.419q.005,6.873,0,13.746A6.113,6.113,0,0,1,688.55-108.554Zm20.82-16.574c-5.105,0-10.211-.008-15.316.012-.546,0-.733-.121-.708-.693a9.914,9.914,0,0,0-.062-2.273,3.461,3.461,0,0,0-4.686-2.663.646.646,0,0,1-.872-.239,3.364,3.364,0,0,0-3.879-.934c-.268.1-.451.229-.713-.1a3.336,3.336,0,0,0-3.487-1.236c-.331.066-.432.019-.407-.308a2.975,2.975,0,0,1,.16-1.325,1.549,1.549,0,0,1,2.485-.29c.435.348.681.365,1.088-.062,1.276-1.341,2.6-2.64,3.924-3.933.283-.276.309-.468.056-.757a2.376,2.376,0,0,1-.581-.964,1.448,1.448,0,0,1,1.2-1.837,13.027,13.027,0,0,1,3.339.074,5.664,5.664,0,0,1,4.247,3.331c.182.395.348.5.725.309a4.529,4.529,0,0,1,.533-.194c1.288-.458,1.29-.459.593-1.684a7.716,7.716,0,0,0-2.483-2.7c-.327-.213-.349-.409-.223-.752a14.144,14.144,0,0,1,14.214-8.957c5.848.564,9.881,3.641,12.13,9.053.22.531.4.732,1.058.587a9.375,9.375,0,0,1,11.513,7.523,9.429,9.429,0,0,1-8.388,10.963c-.45.031-.9.046-1.352.047Q716.422-125.125,709.369-125.128Zm7.523,21.355c.005-.917.429-1.335,1.363-1.336q6.874-.008,13.748,0c.894,0,1.329.407,1.339,1.292.021,1.757-.011,3.514.018,5.271.009.543-.305.474-.639.474q-3.811,0-7.622,0c-2.541,0-5.081-.01-7.622.01-.452,0-.609-.1-.6-.581C716.908-100.354,716.883-102.064,716.892-103.773Zm1.71,10.415c-1.441,0-1.955-.639-1.72-2.066.074-.452.384-.268.592-.27,2.561-.013,5.123-.009,7.684-.009,2.538,0,5.075.011,7.613-.01.457,0,.6.111.594.584-.014,1.44-.311,1.77-1.742,1.77Q725.112-93.356,718.6-93.358Zm7.113,4.7c-.828,0-1.656-.014-2.483.006-.371.009-.471-.123-.486-.489C722.673-91,722.662-91,724.471-91h.639c.639,0,1.278.017,1.916-.007.341-.012.428.1.444.441C727.562-88.658,727.572-88.658,725.715-88.658Z" transform="translate(0 0)" fill="#fff"/>
      <path id="Trazado_208062" data-name="Trazado 208062" d="M983.958-64.649c-.046.429.122.554.537.616a4.639,4.639,0,0,1,4.169,4.684,4.639,4.639,0,0,1-4.23,4.628c-.364.049-.509.162-.473.524.021.212,0,.427,0,.64a4.6,4.6,0,0,1,0,.64c-.075.527.163.628.641.582a7.123,7.123,0,0,0,6.432-6.961A7.106,7.106,0,0,0,984.77-66.4c-.536-.065-.942-.049-.815.688A3.918,3.918,0,0,1,983.958-64.649Z" transform="translate(-260.033 -75.155)" fill="#fff"/>
      <path id="Trazado_208063" data-name="Trazado 208063" d="M884.2-108.719c.258.46.3,1.223.784,1.324.455.1,1-.346,1.529-.468.558-.129.489-.379.32-.8a11.844,11.844,0,0,0-11.078-7.235,8.325,8.325,0,0,0-2,.194,10.847,10.847,0,0,0-2.174.646c-.843.353-.846.344-.456,1.132a8.492,8.492,0,0,1,.366.769c.17.453.355.554.87.336A9.412,9.412,0,0,1,884.2-108.719Z" transform="translate(-168.497 -35.095)" fill="#fff"/>
      <path id="Trazado_208064" data-name="Trazado 208064" d="M932.208-41.715a3.528,3.528,0,0,0-3.688,3.429,3.526,3.526,0,0,0,3.445,3.6,3.53,3.53,0,0,0,3.621-3.43A3.544,3.544,0,0,0,932.208-41.715Zm-.15,4.693a1.162,1.162,0,0,1-1.16-1.17,1.149,1.149,0,0,1,1.149-1.177,1.168,1.168,0,0,1,1.165,1.168A1.169,1.169,0,0,1,932.058-37.021Z" transform="translate(-215.17 -95.161)" fill="#fff"/>
      <path id="Trazado_208065" data-name="Trazado 208065" d="M882.6-41.718a3.523,3.523,0,0,0-3.511,3.536,3.521,3.521,0,0,0,3.547,3.5,3.52,3.52,0,0,0,3.513-3.535A3.525,3.525,0,0,0,882.6-41.718Zm-.008,4.7a1.168,1.168,0,0,1-1.127-1.2,1.151,1.151,0,0,1,1.186-1.143,1.177,1.177,0,0,1,1.136,1.2A1.186,1.186,0,0,1,882.6-37.023Z" transform="translate(-175.154 -95.159)" fill="#fff"/>
      <path id="Trazado_208066" data-name="Trazado 208066" d="M833.372-41.717a3.52,3.52,0,0,0-3.691,3.42,3.513,3.513,0,0,0,3.428,3.612,3.5,3.5,0,0,0,3.617-3.419A3.516,3.516,0,0,0,833.372-41.717Zm-.147,4.693a1.165,1.165,0,0,1-1.175-1.158,1.153,1.153,0,0,1,1.142-1.189,1.188,1.188,0,0,1,1.189,1.155A1.205,1.205,0,0,1,833.225-37.023Z" transform="translate(-135.151 -95.159)" fill="#fff"/>
      <path id="Trazado_208067" data-name="Trazado 208067" d="M848.385-96.356a1.059,1.059,0,0,0,.216-.156c.444-.538,1.118-1.036,1.235-1.641.073-.373-.705-.911-1.1-1.375a1.333,1.333,0,0,1-.1-.1c-.15-.219-.274-.162-.441,0a11.879,11.879,0,0,0-1.478,1.708c-.07.1-.252.239-.1.348C847.186-97.156,847.778-96.771,848.385-96.356Z" transform="translate(-148.818 -48.156)" fill="#fff"/>
    </g>
  </g>
</svg>
