<svg xmlns="http://www.w3.org/2000/svg" width="52.724" height="49.435" viewBox="0 0 52.724 49.435">
  <g id="Grupo_153386" data-name="Grupo 153386" transform="translate(166.777 -280.96)">
    <path id="Trazado_197625" data-name="Trazado 197625" d="M-114.223,480.331a4.134,4.134,0,0,0-4.482-2.968c-.918.1-1.827.278-2.741.417q-6.1.928-12.19,1.862c-.244.038-.322-.017-.4-.242a4.1,4.1,0,0,0-3.366-2.87q-4.432-.878-8.874-1.709a24.752,24.752,0,0,0-5.936-.788c-1.385.077-2.779,0-4.167.026-.423.009-.548-.087-.53-.522.036-.869-.253-1.132-1.125-1.133-2.5,0-5.009.009-7.513-.009a1.342,1.342,0,0,0-1.236.522v22.815a.948.948,0,0,0,.992.655c2.625,0,5.25.007,7.876-.005a1.017,1.017,0,0,0,1.147-1.046c.035-.345.172-.437.493-.4.494.06.985.14,1.478.2,5.19.652,10.373,1.353,15.561,2.018a1.945,1.945,0,0,0,1.236-.219c2.679-1.461,5.374-2.894,8.062-4.338,4.485-2.411,8.96-4.84,13.46-7.222a4.093,4.093,0,0,0,2.42-3.213v-1.439C-114.231,480.65-114.182,480.461-114.223,480.331ZM-159,494.611c-1.9-.023-3.81-.019-5.714,0-.336,0-.421-.084-.421-.42q.016-9.865,0-19.73c0-.333.082-.424.419-.421q2.883.025,5.766,0c.336,0,.422.084.421.42-.013,3.288-.008,6.577-.008,9.865,0,3.271-.007,6.542.01,9.814C-158.527,494.519-158.615,494.616-159,494.611Zm42.363-11.261a6.61,6.61,0,0,1-.869.542q-10.46,5.624-20.918,11.253a2.028,2.028,0,0,1-1.332.148q-6.654-.863-13.308-1.732c-1.088-.142-2.174-.3-3.264-.417-.416-.046-.581-.169-.576-.641.029-2.723.014-5.446.014-8.169s.007-5.446-.008-8.169c0-.361.052-.492.461-.486,1.922.026,3.845-.022,5.765.024a21.238,21.238,0,0,1,3.434.6c3.162.6,6.318,1.238,9.48,1.839a2.543,2.543,0,0,1,2.162,1.724,2.452,2.452,0,0,1-2.537,3.2c-1.934-.115-3.865-.29-5.8-.441-1.488-.117-2.974-.243-4.462-.353-.642-.048-1.042.249-1.076.76-.033.495.343.829.982.88q5.026.4,10.052.806a4.141,4.141,0,0,0,4.425-2.986.59.59,0,0,1,.546-.479q6.228-.927,12.453-1.875c.813-.123,1.629-.227,2.439-.363a2.492,2.492,0,0,1,2.655,1.413A2.454,2.454,0,0,1-116.639,483.35Z" transform="translate(0 -166.784)" fill="#eddd9c"/>
    <path id="Trazado_197626" data-name="Trazado 197626" d="M-40.94,298.9a.619.619,0,0,1,.625.195c.865.88,1.76,1.732,2.61,2.626a1.565,1.565,0,0,0,1.439.612c.3-.047.361.083.363.365.007,1.085.194,1.284,1.241,1.269.36-.005.443.121.4.434a1.376,1.376,0,0,0,.518,1.268c.432.39.832.816,1.234,1.238a1.086,1.086,0,0,0,.861.365c.909-.018,1.819-.006,2.728-.006s1.819,0,2.728,0c.71,0,.989-.281.99-.993,0-1.8-.008-3.6.008-5.395a1.226,1.226,0,0,0-.407-.944q-3.895-3.888-7.776-7.788a.626.626,0,0,1-.2-.625,8.915,8.915,0,0,0-1.764-7.054,9.072,9.072,0,0,0-9.81-3.11,9.062,9.062,0,0,0-6.4,8.152A9.044,9.044,0,0,0-40.94,298.9Zm7.061-4.931q3.375,3.385,6.745,6.773a.783.783,0,0,1,.294.609c-.019,1.3-.016,2.6,0,3.9,0,.276-.052.381-.358.377-1.32-.018-2.641-.012-3.961,0a.588.588,0,0,1-.492-.2,3.632,3.632,0,0,0-.51-.505,1.077,1.077,0,0,1-.454-1.108,2.209,2.209,0,0,0,0-.359c0-.841-.272-1.138-1.1-1.1-.44.018-.582-.081-.559-.546.041-.835-.264-1.16-1.093-1.093a1.936,1.936,0,0,1-1.772-.744c-.511-.594-1.11-1.113-1.689-1.684a9.241,9.241,0,0,0,4.6-4.571C-34.051,293.709-33.98,293.864-33.879,293.965ZM-42.52,282.6a7.42,7.42,0,0,1,7.432,7.393A7.423,7.423,0,0,1-42.5,297.4a7.42,7.42,0,0,1-7.408-7.417A7.419,7.419,0,0,1-42.52,282.6Z" transform="translate(-100.385)" fill="#eddd9c"/>
    <path id="Trazado_197627" data-name="Trazado 197627" d="M-133.777,625.723a.859.859,0,0,0-.844.8.861.861,0,0,0,.806.837.812.812,0,0,0,.829-.8A.816.816,0,0,0-133.777,625.723Z" transform="translate(-28.016 -300.369)" fill="#eddd9c"/>
    <path id="Trazado_197628" data-name="Trazado 197628" d="M-5.85,327.268a.812.812,0,0,0,.822-.805.815.815,0,0,0-.8-.83.858.858,0,0,0-.836.805A.862.862,0,0,0-5.85,327.268Z" transform="translate(-139.496 -38.92)" fill="#eddd9c"/>
  </g>
</svg>
