<svg xmlns="http://www.w3.org/2000/svg" xmlns:xlink="http://www.w3.org/1999/xlink" width="207.324" height="140" viewBox="0 0 207.324 140">
  <defs>
    <filter id="Rect치ngulo_47870" x="0" y="0" width="207.324" height="140" filterUnits="userSpaceOnUse">
      <feOffset dy="3" input="SourceAlpha"/>
      <feGaussianBlur stdDeviation="3" result="blur"/>
      <feFlood flood-opacity="0.161"/>
      <feComposite operator="in" in2="blur"/>
      <feComposite in="SourceGraphic"/>
    </filter>
    <linearGradient id="linear-gradient" x1="0.5" x2="0.5" y2="1" gradientUnits="objectBoundingBox">
      <stop offset="0" stop-color="#4dd0e1"/>
      <stop offset="1" stop-color="#039be5"/>
    </linearGradient>
  </defs>
  <g id="Grupo_164917" data-name="Grupo 164917" transform="translate(-906.676 -13399)">
    <g transform="matrix(1, 0, 0, 1, 906.68, 13399)" filter="url(#Rect치ngulo_47870)">
      <rect id="Rect치ngulo_47870-2" data-name="Rect치ngulo 47870" width="189.324" height="122" rx="10" transform="translate(9 6)" fill="#fff"/>
    </g>
    <path id="Trazado_225274" data-name="Trazado 225274" d="M36.068,13.211A4.025,4.025,0,0,1,34.713,16.1a4.76,4.76,0,0,1-3.223,1.055,4.28,4.28,0,0,1-3.441-1.473,6.038,6.038,0,0,1-1.254-4.043v-.7a6.819,6.819,0,0,1,.578-2.891,4.332,4.332,0,0,1,1.652-1.918,4.629,4.629,0,0,1,2.5-.668,4.637,4.637,0,0,1,3.172,1.055,4.326,4.326,0,0,1,1.391,2.961H33.74a2.376,2.376,0,0,0-.613-1.6,2.271,2.271,0,0,0-1.605-.5,1.991,1.991,0,0,0-1.754.84,4.707,4.707,0,0,0-.6,2.605V11.7a5.038,5.038,0,0,0,.559,2.7,1.954,1.954,0,0,0,1.762.852,2.314,2.314,0,0,0,1.621-.5,2.241,2.241,0,0,0,.613-1.535ZM42.357,17a2.507,2.507,0,0,1-.227-.758A2.732,2.732,0,0,1,40,17.156a3,3,0,0,1-2.059-.719,2.312,2.312,0,0,1-.816-1.812,2.389,2.389,0,0,1,1-2.062A4.915,4.915,0,0,1,41,11.836h1.039v-.484a1.393,1.393,0,0,0-.3-.937,1.183,1.183,0,0,0-.949-.352,1.345,1.345,0,0,0-.895.273.929.929,0,0,0-.324.75H37.311a2.268,2.268,0,0,1,.453-1.359,3,3,0,0,1,1.281-.98A4.669,4.669,0,0,1,40.9,8.391a3.689,3.689,0,0,1,2.48.785,2.747,2.747,0,0,1,.918,2.207v3.664a4.041,4.041,0,0,0,.336,1.82V17ZM40.49,15.43a1.945,1.945,0,0,0,.922-.223,1.462,1.462,0,0,0,.625-.6V13.156h-.844q-1.7,0-1.8,1.172l-.008.133a.9.9,0,0,0,.3.7A1.153,1.153,0,0,0,40.49,15.43Zm13.156-2.578a5.07,5.07,0,0,1-.887,3.129,2.843,2.843,0,0,1-2.395,1.176,2.633,2.633,0,0,1-2.07-.891V20.25H46.037V8.547h2.094l.078.828a2.654,2.654,0,0,1,2.141-.984,2.862,2.862,0,0,1,2.43,1.156,5.207,5.207,0,0,1,.867,3.188Zm-2.258-.164a3.327,3.327,0,0,0-.418-1.82,1.361,1.361,0,0,0-1.215-.641,1.479,1.479,0,0,0-1.461.813V14.5a1.5,1.5,0,0,0,1.477.836Q51.389,15.336,51.389,12.688ZM59.943,17a2.507,2.507,0,0,1-.227-.758,2.732,2.732,0,0,1-2.133.914,3,3,0,0,1-2.059-.719,2.312,2.312,0,0,1-.816-1.812,2.389,2.389,0,0,1,1-2.062,4.915,4.915,0,0,1,2.879-.727h1.039v-.484a1.393,1.393,0,0,0-.3-.937,1.183,1.183,0,0,0-.949-.352,1.345,1.345,0,0,0-.895.273.929.929,0,0,0-.324.75H54.9a2.268,2.268,0,0,1,.453-1.359,3,3,0,0,1,1.281-.98,4.669,4.669,0,0,1,1.859-.355,3.689,3.689,0,0,1,2.48.785,2.747,2.747,0,0,1,.918,2.207v3.664a4.041,4.041,0,0,0,.336,1.82V17Zm-1.867-1.57A1.945,1.945,0,0,0,59,15.207a1.462,1.462,0,0,0,.625-.6V13.156h-.844q-1.7,0-1.8,1.172l-.008.133a.9.9,0,0,0,.3.7A1.153,1.153,0,0,0,58.076,15.43Zm9.18-2.719a5.094,5.094,0,0,1,.887-3.148,2.877,2.877,0,0,1,2.426-1.172,2.589,2.589,0,0,1,2.039.922V5h2.266V17H72.834l-.109-.9a2.657,2.657,0,0,1-2.172,1.055,2.869,2.869,0,0,1-2.395-1.176A5.258,5.258,0,0,1,67.256,12.711Zm2.258.168a3.337,3.337,0,0,0,.414,1.823,1.349,1.349,0,0,0,1.2.634,1.511,1.511,0,0,0,1.477-.884V11.111a1.489,1.489,0,0,0-1.461-.884Q69.514,10.227,69.514,12.879Zm11,4.277a4.15,4.15,0,0,1-3.027-1.141,4.054,4.054,0,0,1-1.168-3.039v-.219a5.106,5.106,0,0,1,.492-2.277,3.612,3.612,0,0,1,1.395-1.547,3.914,3.914,0,0,1,2.059-.543,3.508,3.508,0,0,1,2.73,1.094,4.444,4.444,0,0,1,1,3.1v.922H78.607a2.1,2.1,0,0,0,.66,1.328,2,2,0,0,0,1.395.5,2.437,2.437,0,0,0,2.039-.945l1.109,1.242a3.389,3.389,0,0,1-1.375,1.121A4.511,4.511,0,0,1,80.514,17.156Zm-.258-6.945a1.411,1.411,0,0,0-1.09.455,2.357,2.357,0,0,0-.535,1.3h3.141v-.181a1.681,1.681,0,0,0-.406-1.165A1.456,1.456,0,0,0,80.256,10.211Zm13.578,4.453a.727.727,0,0,0-.41-.652,4.659,4.659,0,0,0-1.316-.426q-3.016-.633-3.016-2.562a2.323,2.323,0,0,1,.934-1.879,3.766,3.766,0,0,1,2.441-.754,4.053,4.053,0,0,1,2.574.758,2.388,2.388,0,0,1,.965,1.969H93.748a1.092,1.092,0,0,0-.312-.8A1.322,1.322,0,0,0,92.459,10a1.351,1.351,0,0,0-.883.258.814.814,0,0,0-.312.656.7.7,0,0,0,.355.605,3.657,3.657,0,0,0,1.2.4,9.8,9.8,0,0,1,1.422.379,2.336,2.336,0,0,1,1.789,2.273,2.2,2.2,0,0,1-.992,1.871,4.28,4.28,0,0,1-2.562.715,4.47,4.47,0,0,1-1.887-.379,3.166,3.166,0,0,1-1.293-1.039,2.414,2.414,0,0,1-.469-1.426h2.141a1.179,1.179,0,0,0,.445.922,1.766,1.766,0,0,0,1.109.32,1.635,1.635,0,0,0,.98-.246A.766.766,0,0,0,93.834,14.664Zm7.539,2.492a4.15,4.15,0,0,1-3.027-1.141,4.054,4.054,0,0,1-1.168-3.039v-.219a5.106,5.106,0,0,1,.492-2.277,3.612,3.612,0,0,1,1.395-1.547,3.914,3.914,0,0,1,2.059-.543,3.508,3.508,0,0,1,2.73,1.094,4.444,4.444,0,0,1,1,3.1v.922H99.467a2.1,2.1,0,0,0,.66,1.328,2,2,0,0,0,1.395.5,2.437,2.437,0,0,0,2.039-.945l1.109,1.242a3.389,3.389,0,0,1-1.375,1.121A4.511,4.511,0,0,1,101.373,17.156Zm-.258-6.945a1.411,1.411,0,0,0-1.09.455,2.357,2.357,0,0,0-.535,1.3h3.141v-.181a1.681,1.681,0,0,0-.406-1.165A1.456,1.456,0,0,0,101.115,10.211Zm9.766.453a6.134,6.134,0,0,0-.812-.062,1.654,1.654,0,0,0-1.68.867V17h-2.258V8.547h2.133l.063,1.008a2.092,2.092,0,0,1,1.883-1.164,2.366,2.366,0,0,1,.7.1Zm4.391,3.578,1.57-5.7H119.2L116.35,17h-2.156l-2.852-8.453H113.7Zm7.3,2.758h-2.266V8.547h2.266Zm-2.4-10.641a1.112,1.112,0,0,1,.34-.836,1.465,1.465,0,0,1,1.848,0,1.105,1.105,0,0,1,.344.836,1.108,1.108,0,0,1-.348.844,1.448,1.448,0,0,1-1.836,0A1.108,1.108,0,0,1,120.178,6.359Zm7.773,8.977a1.481,1.481,0,0,0,1.016-.344,1.2,1.2,0,0,0,.406-.914h2.117a2.9,2.9,0,0,1-.469,1.574,3.093,3.093,0,0,1-1.262,1.109,3.949,3.949,0,0,1-1.77.395A3.67,3.67,0,0,1,125.131,16a4.56,4.56,0,0,1-1.047-3.184v-.148a4.508,4.508,0,0,1,1.039-3.117,3.627,3.627,0,0,1,2.852-1.164,3.555,3.555,0,0,1,2.543.9,3.2,3.2,0,0,1,.973,2.4h-2.117a1.551,1.551,0,0,0-.406-1.072,1.51,1.51,0,0,0-2.223.163,3.333,3.333,0,0,0-.4,1.866v.235a3.375,3.375,0,0,0,.4,1.878A1.377,1.377,0,0,0,127.951,15.336ZM135.162,17H132.9V8.547h2.266Zm-2.4-10.641a1.112,1.112,0,0,1,.34-.836,1.465,1.465,0,0,1,1.848,0,1.105,1.105,0,0,1,.344.836,1.109,1.109,0,0,1-.348.844,1.448,1.448,0,0,1-1.836,0A1.109,1.109,0,0,1,132.764,6.359ZM136.67,12.7a5.013,5.013,0,0,1,.484-2.242,3.546,3.546,0,0,1,1.395-1.523,4.069,4.069,0,0,1,2.113-.539,3.849,3.849,0,0,1,2.793,1.047,4.2,4.2,0,0,1,1.207,2.844l.016.578a4.418,4.418,0,0,1-1.086,3.121,4.209,4.209,0,0,1-5.832,0,4.5,4.5,0,0,1-1.09-3.187Zm2.258.16a3.16,3.16,0,0,0,.453,1.843,1.628,1.628,0,0,0,2.578.008,3.457,3.457,0,0,0,.461-2.015,3.128,3.128,0,0,0-.461-1.831,1.5,1.5,0,0,0-1.3-.649,1.474,1.474,0,0,0-1.281.646A3.516,3.516,0,0,0,138.928,12.856Z" transform="translate(924.676 13481)" fill="#12263f"/>
    <g id="Grupo_158418" data-name="Grupo 158418" transform="translate(981.676 13416)">
      <ellipse id="Elipse_4871" data-name="Elipse 4871" cx="28.5" cy="29" rx="28.5" ry="29" fill="url(#linear-gradient)"/>
      <g id="Grupo_158442" data-name="Grupo 158442" transform="translate(-676.498 63.647)">
        <path id="Trazado_208362" data-name="Trazado 208362" d="M720.066-42.792c-.167-.092-.3-.155-.311-.406a4.574,4.574,0,0,0-5.386-4.326c-.305.049-.411-.02-.517-.3A9.827,9.827,0,0,0,704.7-54.18a9.841,9.841,0,0,0-9.235,6.3c-.128.335-.257.4-.6.349a4.578,4.578,0,0,0-5.316,4.193.6.6,0,0,1-.374.579,7.871,7.871,0,0,0-4.14,8.3,7.866,7.866,0,0,0,6.808,6.488c.272.032.34.133.322.383-.02.286-.007.575,0,.862,0,.564.237.8.793.805.643,0,1.287.007,1.931,0a.288.288,0,0,1,.339.252,7.756,7.756,0,0,0,.72,1.735.312.312,0,0,1-.071.454c-.456.434-.9.885-1.339,1.333-.4.41-.413.727-.016,1.127q1.3,1.312,2.615,2.614a.673.673,0,0,0,1.1-.007c.46-.45.916-.9,1.363-1.367a.289.289,0,0,1,.419-.071,7.546,7.546,0,0,0,1.735.719c.244.066.28.191.275.408-.012.63-.008,1.26,0,1.89,0,.533.245.773.78.777.616,0,1.232,0,1.849,0s1.232,0,1.848,0c.534,0,.776-.244.78-.777,0-.63.008-1.26,0-1.89,0-.216.028-.337.277-.4a7.079,7.079,0,0,0,1.7-.706.334.334,0,0,1,.487.083c.433.457.883.9,1.332,1.339a.683.683,0,0,0,1.1,0q1.314-1.3,2.614-2.614a.674.674,0,0,0,0-1.1c-.44-.451-.884-.9-1.34-1.333-.162-.154-.214-.274-.09-.486a7.122,7.122,0,0,0,.706-1.7c.066-.24.179-.287.4-.282.643.013,1.287.01,1.931,0a.666.666,0,0,0,.742-.732,8.591,8.591,0,0,0,0-.944c-.024-.274.088-.342.338-.371a7.823,7.823,0,0,0,6.885-7.693A7.7,7.7,0,0,0,720.066-42.792Zm-4.583,15.566c-.575-.016-1.15-.008-1.725,0a.683.683,0,0,0-.785.616,8.7,8.7,0,0,1-1.079,2.6.671.671,0,0,0,.13.987c.413.42.824.841,1.251,1.247.161.154.191.246.012.416-.5.471-.98.957-1.453,1.451-.159.166-.252.178-.416,0-.4-.429-.826-.839-1.246-1.252a.681.681,0,0,0-1.022-.12,8.557,8.557,0,0,1-2.561,1.058c-.471.109-.623.323-.626.819,0,.589-.009,1.178,0,1.766,0,.211-.049.287-.27.275-.355-.019-.712-.005-1.068-.005s-.685-.012-1.027,0c-.213.01-.281-.051-.275-.27.015-.6,0-1.205.008-1.807a.7.7,0,0,0-.588-.769,8.8,8.8,0,0,1-2.636-1.09.669.669,0,0,0-.986.138c-.429.423-.86.845-1.275,1.28-.14.147-.22.14-.357,0q-.743-.767-1.511-1.51c-.149-.144-.13-.223.01-.357.425-.407.837-.828,1.251-1.247a.7.7,0,0,0,.138-1.053,8.487,8.487,0,0,1-1.045-2.523c-.117-.5-.321-.653-.838-.656-.575,0-1.15-.009-1.725,0-.215,0-.313-.029-.307-.281q.028-1.047,0-2.095c-.006-.234.085-.266.283-.262.589.01,1.178.006,1.766,0,.478,0,.7-.152.8-.6a8.552,8.552,0,0,1,1.1-2.633.7.7,0,0,0-.123-.959c-.429-.423-.847-.857-1.282-1.274-.148-.142-.177-.228-.012-.386.5-.483,1-.978,1.482-1.481.147-.152.232-.167.386,0,.4.428.827.838,1.246,1.252a.7.7,0,0,0,1.053.122,8.551,8.551,0,0,1,2.525-1.04c.491-.114.642-.325.644-.848,0-.589.009-1.178,0-1.766,0-.2.055-.254.252-.251q1.068.017,2.136,0c.2,0,.254.057.25.253-.012.6-.007,1.2,0,1.807a.683.683,0,0,0,.608.791,8.668,8.668,0,0,1,2.6,1.077.673.673,0,0,0,.99-.118c.421-.412.839-.826,1.247-1.251.145-.151.238-.212.416-.024.48.507.976,1,1.481,1.481.168.161.129.246-.016.386-.434.418-.852.852-1.282,1.274a.694.694,0,0,0-.122.959,8.387,8.387,0,0,1,1.093,2.634.7.7,0,0,0,.763.6c.589-.008,1.178.008,1.766-.007.236-.006.335.031.326.3-.023.67-.025,1.342,0,2.012C715.843-27.258,715.731-27.22,715.483-27.226ZM717.6-29.3c-.361.06-.517-.008-.464-.406a4.636,4.636,0,0,0,0-.78.652.652,0,0,0-.7-.691c-.643-.01-1.288-.015-1.931,0-.257.007-.388-.05-.459-.322a6.291,6.291,0,0,0-.673-1.621c-.143-.241-.084-.378.1-.553.448-.422.88-.863,1.312-1.3a.672.672,0,0,0,0-1.1q-1.3-1.314-2.614-2.615a.672.672,0,0,0-1.1,0c-.45.441-.9.88-1.332,1.34a.357.357,0,0,1-.524.073,6.511,6.511,0,0,0-1.622-.673c-.269-.07-.332-.2-.324-.457.02-.616.01-1.232.005-1.849,0-.538-.242-.782-.772-.784q-1.849-.006-3.7,0c-.554,0-.785.241-.787.81,0,.63-.009,1.26,0,1.89a.31.31,0,0,1-.27.368,7.866,7.866,0,0,0-1.735.721.289.289,0,0,1-.42-.062c-.436-.454-.885-.9-1.333-1.339a.7.7,0,0,0-1.164-.012q-1.283,1.274-2.557,2.556a.692.692,0,0,0-.01,1.158c.442.449.882.9,1.338,1.334a.312.312,0,0,1,.068.454,7.752,7.752,0,0,0-.72,1.736.287.287,0,0,1-.341.249c-.589-.01-1.178,0-1.767,0-.776,0-.954.181-.954.974v.94a6.542,6.542,0,0,1-5.837-5.586,6.52,6.52,0,0,1,3.97-6.985.832.832,0,0,0,.567-.916,3.26,3.26,0,0,1,4.494-3.3c.584.212.882.045,1.072-.564a8.3,8.3,0,0,1,6.69-6.091,8.5,8.5,0,0,1,9.741,6c.219.757.457.879,1.191.613a3.279,3.279,0,0,1,4.4,3.176c-.02.823-.02.823.734,1.158a6.594,6.594,0,0,1,3.843,6.615A6.617,6.617,0,0,1,717.6-29.3Z" transform="translate(0 0)"/>
        <path id="Trazado_208363" data-name="Trazado 208363" d="M811.365,119.388a6.572,6.572,0,1,0,6.562,6.514A6.58,6.58,0,0,0,811.365,119.388Zm.02,11.832a5.259,5.259,0,1,1,5.227-5.23A5.266,5.266,0,0,1,811.385,131.22Z" transform="translate(-106.705 -154.507)"/>
        <path id="Trazado_208364" data-name="Trazado 208364" d="M838,149.318a3.286,3.286,0,1,0,3.28,3.336A3.289,3.289,0,0,0,838,149.318Zm.008,5.258a1.971,1.971,0,1,1,1.957-1.963A1.982,1.982,0,0,1,838.007,154.576Z" transform="translate(-133.344 -181.151)"/>
      </g>
    </g>
  </g>
</svg>
