<svg id="Grupo_152064" data-name="Grupo 152064" xmlns="http://www.w3.org/2000/svg" xmlns:xlink="http://www.w3.org/1999/xlink" width="285.031" height="71.594" viewBox="0 0 285.031 71.594">
  <defs>
    <linearGradient id="linear-gradient" x1="0.5" x2="0.5" y2="1" gradientUnits="objectBoundingBox">
      <stop offset="0" stop-color="#039be5"/>
      <stop offset="1" stop-color="#027fbc"/>
    </linearGradient>
  </defs>
  <g id="Grupo_152063" data-name="Grupo 152063">
    <rect id="Rect치ngulo_37703" data-name="Rect치ngulo 37703" width="283.654" height="71.594" rx="10" transform="translate(1.377)" fill="url(#linear-gradient)"/>
  </g>
  <g id="Rect치ngulo_37706" data-name="Rect치ngulo 37706" fill="#fff" stroke="#afafaf" stroke-width="1">
    <rect width="67.464" height="71.594" rx="10" stroke="none"/>
    <rect x="0.5" y="0.5" width="66.464" height="70.594" rx="9.5" fill="none"/>
  </g>
  <path id="Trazado_194544" data-name="Trazado 194544" d="M-36.27-3.516h-6.164L-43.605,0h-3.738l6.352-17.062h3.258L-31.348,0h-3.738Zm-5.215-2.848h4.266l-2.145-6.387ZM-22.852-9.5A9.2,9.2,0,0,0-24.07-9.6a2.481,2.481,0,0,0-2.52,1.3V0h-3.387V-12.68h3.2l.094,1.512a3.138,3.138,0,0,1,2.824-1.746,3.549,3.549,0,0,1,1.055.152Zm6.68,7.008a2.221,2.221,0,0,0,1.523-.516,1.807,1.807,0,0,0,.609-1.371h3.176a4.344,4.344,0,0,1-.7,2.361A4.64,4.64,0,0,1-13.459-.357a5.923,5.923,0,0,1-2.654.592A5.5,5.5,0,0,1-20.4-1.494a6.84,6.84,0,0,1-1.57-4.775v-.223a6.762,6.762,0,0,1,1.559-4.676,5.441,5.441,0,0,1,4.277-1.746,5.333,5.333,0,0,1,3.814,1.354,4.792,4.792,0,0,1,1.459,3.6h-3.176a2.327,2.327,0,0,0-.609-1.608,2.032,2.032,0,0,0-1.547-.619,2.04,2.04,0,0,0-1.787.863,5,5,0,0,0-.6,2.8v.352a5.063,5.063,0,0,0,.6,2.817A2.065,2.065,0,0,0-16.172-2.5Zm10.547-8.8a4.227,4.227,0,0,1,3.387-1.617q4.125,0,4.184,4.793V0H-1.441V-8.027A2.356,2.356,0,0,0-1.91-9.639a2.01,2.01,0,0,0-1.559-.521A2.305,2.305,0,0,0-5.625-9.012V0H-9.012V-18h3.387ZM8.074,0h-3.4V-12.68h3.4Zm-3.6-15.961a1.668,1.668,0,0,1,.51-1.254,1.915,1.915,0,0,1,1.389-.492,1.919,1.919,0,0,1,1.383.492,1.658,1.658,0,0,1,.516,1.254A1.663,1.663,0,0,1,7.752-14.7a1.924,1.924,0,0,1-1.377.492A1.924,1.924,0,0,1,5-14.7,1.663,1.663,0,0,1,4.477-15.961ZM15.609-4.137l2.355-8.543H21.5L17.227,0H13.992L9.715-12.68h3.539Zm6.68-2.32a7.52,7.52,0,0,1,.727-3.363,5.319,5.319,0,0,1,2.092-2.285,6.1,6.1,0,0,1,3.17-.809,5.774,5.774,0,0,1,4.189,1.57,6.3,6.3,0,0,1,1.811,4.266l.023.867a6.627,6.627,0,0,1-1.629,4.682A5.662,5.662,0,0,1,28.3.234a5.69,5.69,0,0,1-4.377-1.758A6.744,6.744,0,0,1,22.289-6.3Zm3.387.24a4.74,4.74,0,0,0,.68,2.764A2.242,2.242,0,0,0,28.3-2.5a2.247,2.247,0,0,0,1.922-.945,5.186,5.186,0,0,0,.691-3.022,4.692,4.692,0,0,0-.691-2.746,2.248,2.248,0,0,0-1.945-.974,2.211,2.211,0,0,0-1.922.968A5.274,5.274,0,0,0,25.676-6.217ZM43.254-3.5a1.091,1.091,0,0,0-.615-.979,6.989,6.989,0,0,0-1.975-.639q-4.523-.949-4.523-3.844a3.484,3.484,0,0,1,1.4-2.818A5.649,5.649,0,0,1,41.2-12.914a6.08,6.08,0,0,1,3.861,1.137,3.582,3.582,0,0,1,1.447,2.953H43.125a1.639,1.639,0,0,0-.469-1.2,1.984,1.984,0,0,0-1.465-.475,2.027,2.027,0,0,0-1.324.387,1.221,1.221,0,0,0-.469.984,1.044,1.044,0,0,0,.533.908,5.485,5.485,0,0,0,1.8.6,14.693,14.693,0,0,1,2.133.568q2.684.984,2.684,3.41A3.307,3.307,0,0,1,45.059-.838,6.42,6.42,0,0,1,41.215.234a6.706,6.706,0,0,1-2.83-.568,4.748,4.748,0,0,1-1.939-1.559,3.621,3.621,0,0,1-.7-2.139h3.211a1.768,1.768,0,0,0,.668,1.383,2.649,2.649,0,0,0,1.664.48,2.452,2.452,0,0,0,1.471-.369A1.149,1.149,0,0,0,43.254-3.5Z" transform="translate(175.4 44.405)" fill="#fff"/>
  <g id="_6mFEJY.tif" data-name="6mFEJY.tif" transform="translate(-4410.629 4153.178)">
    <g id="Grupo_151307" data-name="Grupo 151307" transform="translate(4421.759 -4138.251)">
      <path id="Trazado_193262" data-name="Trazado 193262" d="M4464.682-4129.239a2.325,2.325,0,0,1,2.268,2.634q0,11.9,0,23.808c0,1.641-.035,3.282.01,4.921a2.415,2.415,0,0,1-2.561,2.561q-20.024-.047-40.051.006a2.468,2.468,0,0,1-2.59-2.593c.03-10.018.015-20.034.015-30.052q0-3.835,0-7.672a2.312,2.312,0,0,1,2.64-2.618c4.32,0,8.642,0,12.962-.007a2.285,2.285,0,0,1,1.968.836,3.683,3.683,0,0,0,3.371,1.411c6.542-.056,13.085.007,19.627.028a2.219,2.219,0,0,1,2.341,2.362C4464.685-4132.168,4464.682-4130.724,4464.682-4129.239Zm-38.334-4.472v33.813h36.033v-24.771h-.98c-4.816,0-9.632-.007-14.447.006a2.872,2.872,0,0,1-2.171-.9c-2.581-2.607-5.185-5.192-7.77-7.8a1.121,1.121,0,0,0-.879-.362c-3.069.013-6.139.007-9.208.007Zm33.764,4.509v-2.236h-14.782c.691.688,1.3,1.323,1.947,1.917a1.192,1.192,0,0,0,.723.3c2.943.022,5.888.016,8.831.018Z" transform="translate(-4421.759 4138.251)" fill="#12263f"/>
      <path id="Trazado_193263" data-name="Trazado 193263" d="M4494.825-3835.726q-3.3,0-6.608,0a2.252,2.252,0,0,1-2.368-2.236,2.259,2.259,0,0,1,2.321-2.3q6.714-.018,13.428-.006a2.268,2.268,0,0,1,2.315,2.306,2.24,2.24,0,0,1-2.32,2.229q-3.383.007-6.768,0Z" transform="translate(-4479.052 3871.871)" fill="#12263f"/>
      <path id="Trazado_193264" data-name="Trazado 193264" d="M4491.469-3899.678c-1.11,0-2.22,0-3.33,0a2.224,2.224,0,0,1-2.29-2.2,2.232,2.232,0,0,1,2.185-2.318q3.461-.055,6.924,0a2.239,2.239,0,0,1,2.186,2.319,2.244,2.244,0,0,1-2.292,2.205c-1.127.006-2.255,0-3.383,0Z" transform="translate(-4479.052 3929.045)" fill="#12263f"/>
    </g>
  </g>
</svg>
