<svg xmlns="http://www.w3.org/2000/svg" xmlns:xlink="http://www.w3.org/1999/xlink" width="1240" height="52" viewBox="0 0 1240 52">
  <defs>
    <linearGradient id="linear-gradient" x1="0.5" x2="0.5" y2="1" gradientUnits="objectBoundingBox">
      <stop offset="0" stop-color="#039be5"/>
      <stop offset="1" stop-color="#027fbc"/>
    </linearGradient>
  </defs>
  <g id="Grupo_152015" data-name="Grupo 152015" transform="translate(-180.676 -24133)">
    <g id="Grupo_152014" data-name="Grupo 152014">
      <rect id="Rectángulo_45125" data-name="Rectángulo 45125" width="1240" height="52" transform="translate(180.676 24133)" fill="url(#linear-gradient)"/>
    </g>
    <path id="Trazado_194450" data-name="Trazado 194450" d="M1.65,27V8.516H7.338a8.637,8.637,0,0,1,4.361,1.1,7.658,7.658,0,0,1,3,3.123,9.633,9.633,0,0,1,1.079,4.6v.851a9.66,9.66,0,0,1-1.06,4.583,7.592,7.592,0,0,1-2.99,3.11A8.7,8.7,0,0,1,7.376,27ZM5.459,11.6V23.94H7.3a4.136,4.136,0,0,0,3.415-1.46A6.6,6.6,0,0,0,11.921,18.3v-.978a6.7,6.7,0,0,0-1.168-4.272A4.122,4.122,0,0,0,7.338,11.6Zm19.17,15.653A6.743,6.743,0,0,1,19.709,25.4a6.588,6.588,0,0,1-1.9-4.938v-.355a8.3,8.3,0,0,1,.8-3.7,5.87,5.87,0,0,1,2.266-2.514,6.36,6.36,0,0,1,3.345-.882,5.7,5.7,0,0,1,4.437,1.777,7.222,7.222,0,0,1,1.619,5.04v1.5H21.531A3.408,3.408,0,0,0,22.6,23.483a3.243,3.243,0,0,0,2.266.813,3.96,3.96,0,0,0,3.313-1.536l1.8,2.019A5.508,5.508,0,0,1,27.752,26.6,7.331,7.331,0,0,1,24.629,27.254ZM24.21,15.968a2.293,2.293,0,0,0-1.771.74,3.83,3.83,0,0,0-.87,2.117h5.1v-.293a2.731,2.731,0,0,0-.66-1.894A2.365,2.365,0,0,0,24.21,15.968Zm11.527-2.7.114,1.587A4.8,4.8,0,0,1,39.8,13.01a3.986,3.986,0,0,1,3.25,1.282,5.982,5.982,0,0,1,1.092,3.834V27H40.473V18.215a2.38,2.38,0,0,0-.508-1.695,2.273,2.273,0,0,0-1.688-.527,2.524,2.524,0,0,0-2.323,1.32V27H32.284V13.264ZM51.314,9.887v3.377h2.349v2.691H51.314v6.855a1.637,1.637,0,0,0,.292,1.092,1.467,1.467,0,0,0,1.117.33,5.851,5.851,0,0,0,1.079-.089v2.78a7.553,7.553,0,0,1-2.222.33q-3.859,0-3.936-3.9v-7.4H45.64V13.264h2.006V9.887ZM63.426,16.7a9.968,9.968,0,0,0-1.32-.1,2.687,2.687,0,0,0-2.729,1.409V27H55.707V13.264h3.466l.1,1.638a3.4,3.4,0,0,1,3.06-1.892,3.844,3.844,0,0,1,1.143.165Zm.736,3.3a8.146,8.146,0,0,1,.787-3.644,5.762,5.762,0,0,1,2.266-2.476,6.611,6.611,0,0,1,3.434-.876,6.255,6.255,0,0,1,4.539,1.7,6.827,6.827,0,0,1,1.961,4.621l.025.939a7.18,7.18,0,0,1-1.765,5.072,6.839,6.839,0,0,1-9.477.006,7.306,7.306,0,0,1-1.771-5.18Zm3.669.26a5.135,5.135,0,0,0,.736,2.994,2.645,2.645,0,0,0,4.189.013A5.618,5.618,0,0,0,73.506,20a5.083,5.083,0,0,0-.749-2.975,2.435,2.435,0,0,0-2.107-1.055,2.4,2.4,0,0,0-2.082,1.049A5.713,5.713,0,0,0,67.831,20.265Zm17.507-.235a8.278,8.278,0,0,1,1.441-5.116,4.675,4.675,0,0,1,3.942-1.9,4.207,4.207,0,0,1,3.313,1.5V7.5h3.682V27H94.4l-.178-1.46A4.318,4.318,0,0,1,90.7,27.254,4.663,4.663,0,0,1,86.8,25.343,8.545,8.545,0,0,1,85.338,20.03Zm3.669.273a5.423,5.423,0,0,0,.673,2.963,2.192,2.192,0,0,0,1.955,1.03,2.455,2.455,0,0,0,2.4-1.437V17.43a2.42,2.42,0,0,0-2.374-1.437Q89.007,15.993,89.007,20.3Zm17.875,6.95a6.743,6.743,0,0,1-4.919-1.854,6.588,6.588,0,0,1-1.9-4.938v-.355a8.3,8.3,0,0,1,.8-3.7,5.87,5.87,0,0,1,2.266-2.514,6.36,6.36,0,0,1,3.345-.882,5.7,5.7,0,0,1,4.437,1.777,7.222,7.222,0,0,1,1.619,5.04v1.5h-8.747a3.408,3.408,0,0,0,1.073,2.158,3.243,3.243,0,0,0,2.266.813,3.96,3.96,0,0,0,3.313-1.536l1.8,2.019A5.508,5.508,0,0,1,110,26.6,7.331,7.331,0,0,1,106.882,27.254Zm-.419-11.286a2.293,2.293,0,0,0-1.771.74,3.83,3.83,0,0,0-.87,2.117h5.1v-.293a2.731,2.731,0,0,0-.66-1.894A2.365,2.365,0,0,0,106.463,15.968ZM124.96,27h-3.682V7.5h3.682Zm2.45-7a8.146,8.146,0,0,1,.787-3.644,5.762,5.762,0,0,1,2.266-2.476,6.611,6.611,0,0,1,3.434-.876,6.255,6.255,0,0,1,4.539,1.7,6.828,6.828,0,0,1,1.961,4.621l.025.939a7.18,7.18,0,0,1-1.765,5.072,6.839,6.839,0,0,1-9.477.006,7.306,7.306,0,0,1-1.771-5.18Zm3.669.26a5.135,5.135,0,0,0,.736,2.994,2.645,2.645,0,0,0,4.189.013A5.618,5.618,0,0,0,136.754,20,5.083,5.083,0,0,0,136,17.023a2.435,2.435,0,0,0-2.107-1.055,2.4,2.4,0,0,0-2.082,1.049A5.713,5.713,0,0,0,131.079,20.265ZM150.122,23.2a1.182,1.182,0,0,0-.667-1.06,7.571,7.571,0,0,0-2.139-.692q-4.9-1.028-4.9-4.164a3.774,3.774,0,0,1,1.517-3.053A6.12,6.12,0,0,1,147.9,13.01a6.587,6.587,0,0,1,4.183,1.231,3.881,3.881,0,0,1,1.568,3.2h-3.669a1.775,1.775,0,0,0-.508-1.3,2.149,2.149,0,0,0-1.587-.514,2.2,2.2,0,0,0-1.435.419,1.322,1.322,0,0,0-.508,1.066,1.131,1.131,0,0,0,.578.984,5.942,5.942,0,0,0,1.949.647,15.917,15.917,0,0,1,2.311.616q2.907,1.066,2.907,3.694a3.583,3.583,0,0,1-1.612,3.041,6.955,6.955,0,0,1-4.164,1.162,7.264,7.264,0,0,1-3.066-.616,5.144,5.144,0,0,1-2.1-1.688,3.923,3.923,0,0,1-.762-2.317h3.479a1.915,1.915,0,0,0,.724,1.5,2.87,2.87,0,0,0,1.8.521,2.657,2.657,0,0,0,1.593-.4A1.244,1.244,0,0,0,150.122,23.2Zm15.844-9.94.114,1.536a4.827,4.827,0,0,1,3.948-1.79,3.664,3.664,0,0,1,3.644,2.095A4.716,4.716,0,0,1,177.8,13.01a4.1,4.1,0,0,1,3.326,1.3,5.981,5.981,0,0,1,1.092,3.917V27h-3.682V18.24a2.616,2.616,0,0,0-.457-1.708,2.025,2.025,0,0,0-1.612-.54,2.29,2.29,0,0,0-2.285,1.574L174.192,27h-3.669V18.253a2.584,2.584,0,0,0-.47-1.727,2.045,2.045,0,0,0-1.6-.533,2.378,2.378,0,0,0-2.26,1.295V27h-3.669V13.264ZM192.994,27a4.074,4.074,0,0,1-.368-1.231,4.439,4.439,0,0,1-3.466,1.485,4.877,4.877,0,0,1-3.345-1.168,3.756,3.756,0,0,1-1.327-2.945,3.882,3.882,0,0,1,1.619-3.352,7.987,7.987,0,0,1,4.678-1.181h1.688v-.787a2.264,2.264,0,0,0-.489-1.523,1.923,1.923,0,0,0-1.542-.571,2.186,2.186,0,0,0-1.454.444,1.509,1.509,0,0,0-.527,1.219h-3.669a3.685,3.685,0,0,1,.736-2.209,4.867,4.867,0,0,1,2.082-1.593,7.588,7.588,0,0,1,3.021-.578,6,6,0,0,1,4.031,1.276,4.463,4.463,0,0,1,1.492,3.586v5.954a6.567,6.567,0,0,0,.546,2.958V27Zm-3.034-2.552a3.16,3.16,0,0,0,1.5-.362,2.376,2.376,0,0,0,1.016-.971V20.754H191.1q-2.755,0-2.933,1.9l-.013.216A1.469,1.469,0,0,0,188.64,24,1.874,1.874,0,0,0,189.96,24.448Zm1.4-16.948h4l-3.517,3.936h-2.983Zm15.057,15.7a1.182,1.182,0,0,0-.667-1.06,7.571,7.571,0,0,0-2.139-.692q-4.9-1.028-4.9-4.164a3.774,3.774,0,0,1,1.517-3.053,6.12,6.12,0,0,1,3.967-1.225,6.587,6.587,0,0,1,4.183,1.231,3.881,3.881,0,0,1,1.568,3.2h-3.669a1.775,1.775,0,0,0-.508-1.3,2.149,2.149,0,0,0-1.587-.514,2.2,2.2,0,0,0-1.435.419,1.322,1.322,0,0,0-.508,1.066,1.131,1.131,0,0,0,.578.984,5.942,5.942,0,0,0,1.949.647,15.917,15.917,0,0,1,2.311.616q2.907,1.066,2.907,3.694a3.583,3.583,0,0,1-1.612,3.041,6.955,6.955,0,0,1-4.164,1.162,7.264,7.264,0,0,1-3.066-.616,5.144,5.144,0,0,1-2.1-1.688,3.923,3.923,0,0,1-.762-2.317h3.479a1.915,1.915,0,0,0,.724,1.5,2.87,2.87,0,0,0,1.8.521,2.657,2.657,0,0,0,1.593-.4A1.244,1.244,0,0,0,206.413,23.2Zm11.832-3.174a8.278,8.278,0,0,1,1.441-5.116,4.675,4.675,0,0,1,3.942-1.9,4.207,4.207,0,0,1,3.313,1.5V7.5h3.682V27H227.31l-.178-1.46a4.318,4.318,0,0,1-3.529,1.714,4.663,4.663,0,0,1-3.891-1.911A8.545,8.545,0,0,1,218.245,20.03Zm3.669.273a5.423,5.423,0,0,0,.673,2.963,2.192,2.192,0,0,0,1.955,1.03,2.455,2.455,0,0,0,2.4-1.437V17.43a2.42,2.42,0,0,0-2.374-1.437Q221.914,15.993,221.914,20.3Zm17.875,6.95A6.743,6.743,0,0,1,234.87,25.4a6.588,6.588,0,0,1-1.9-4.938v-.355a8.3,8.3,0,0,1,.8-3.7,5.87,5.87,0,0,1,2.266-2.514,6.36,6.36,0,0,1,3.345-.882,5.7,5.7,0,0,1,4.437,1.777,7.222,7.222,0,0,1,1.619,5.04v1.5h-8.747a3.408,3.408,0,0,0,1.073,2.158,3.243,3.243,0,0,0,2.266.813,3.96,3.96,0,0,0,3.313-1.536l1.8,2.019a5.508,5.508,0,0,1-2.234,1.822A7.331,7.331,0,0,1,239.789,27.254Zm-.419-11.286a2.293,2.293,0,0,0-1.771.74,3.83,3.83,0,0,0-.87,2.117h5.1v-.293a2.731,2.731,0,0,0-.66-1.894A2.365,2.365,0,0,0,239.37,15.968ZM262.755,27h-3.669V12.857l-4.38,1.358V11.232l7.655-2.742h.394ZM281.2,19.357a9.364,9.364,0,0,1-1.587,5.865,6.342,6.342,0,0,1-9.268.038,9.09,9.09,0,0,1-1.638-5.713v-3.4a9.241,9.241,0,0,1,1.606-5.878,6.354,6.354,0,0,1,9.249-.019,9.062,9.062,0,0,1,1.638,5.707Zm-3.669-3.741a6.769,6.769,0,0,0-.628-3.349,2.124,2.124,0,0,0-1.961-1.048,2.086,2.086,0,0,0-1.911,1,6.334,6.334,0,0,0-.654,3.12v4.5a7.105,7.105,0,0,0,.616,3.361,2.1,2.1,0,0,0,1.974,1.1,2.06,2.06,0,0,0,1.942-1.055,6.935,6.935,0,0,0,.622-3.228Zm18.586,3.741a9.364,9.364,0,0,1-1.587,5.865,6.342,6.342,0,0,1-9.268.038,9.09,9.09,0,0,1-1.638-5.713v-3.4a9.241,9.241,0,0,1,1.606-5.878,6.354,6.354,0,0,1,9.249-.019,9.062,9.062,0,0,1,1.638,5.707Zm-3.669-3.741a6.769,6.769,0,0,0-.628-3.349,2.124,2.124,0,0,0-1.961-1.048,2.086,2.086,0,0,0-1.911,1,6.334,6.334,0,0,0-.654,3.12v4.5a7.105,7.105,0,0,0,.616,3.361,2.1,2.1,0,0,0,1.974,1.1,2.06,2.06,0,0,0,1.942-1.055,6.935,6.935,0,0,0,.622-3.228ZM312.66,23.2a1.182,1.182,0,0,0-.667-1.06,7.571,7.571,0,0,0-2.139-.692q-4.9-1.028-4.9-4.164a3.774,3.774,0,0,1,1.517-3.053,6.12,6.12,0,0,1,3.967-1.225,6.587,6.587,0,0,1,4.183,1.231,3.881,3.881,0,0,1,1.568,3.2h-3.669a1.775,1.775,0,0,0-.508-1.3,2.149,2.149,0,0,0-1.587-.514,2.2,2.2,0,0,0-1.435.419,1.323,1.323,0,0,0-.508,1.066,1.13,1.13,0,0,0,.578.984,5.942,5.942,0,0,0,1.949.647,15.917,15.917,0,0,1,2.311.616q2.907,1.066,2.907,3.694a3.583,3.583,0,0,1-1.612,3.041,6.955,6.955,0,0,1-4.164,1.162,7.264,7.264,0,0,1-3.066-.616,5.144,5.144,0,0,1-2.1-1.688,3.923,3.923,0,0,1-.762-2.317H308a1.915,1.915,0,0,0,.724,1.5,2.87,2.87,0,0,0,1.8.521,2.657,2.657,0,0,0,1.593-.4A1.244,1.244,0,0,0,312.66,23.2Zm12.251,4.05a6.743,6.743,0,0,1-4.919-1.854,6.588,6.588,0,0,1-1.9-4.938v-.355a8.3,8.3,0,0,1,.8-3.7,5.87,5.87,0,0,1,2.266-2.514,6.36,6.36,0,0,1,3.345-.882,5.7,5.7,0,0,1,4.437,1.777,7.222,7.222,0,0,1,1.619,5.04v1.5h-8.747a3.408,3.408,0,0,0,1.073,2.158,3.243,3.243,0,0,0,2.266.813,3.96,3.96,0,0,0,3.313-1.536l1.8,2.019a5.508,5.508,0,0,1-2.234,1.822A7.331,7.331,0,0,1,324.911,27.254Zm-.419-11.286a2.293,2.293,0,0,0-1.771.74,3.83,3.83,0,0,0-.87,2.117h5.1v-.293a2.731,2.731,0,0,0-.66-1.894A2.365,2.365,0,0,0,324.492,15.968Zm15.869.736a9.968,9.968,0,0,0-1.32-.1,2.687,2.687,0,0,0-2.729,1.409V27h-3.669V13.264h3.466l.1,1.638a3.4,3.4,0,0,1,3.06-1.892,3.844,3.844,0,0,1,1.143.165Zm7.135,5.814,2.552-9.255h3.834L349.248,27h-3.5L341.11,13.264h3.834ZM359.366,27h-3.682V13.264h3.682Zm-3.9-17.291a1.807,1.807,0,0,1,.552-1.358,2.38,2.38,0,0,1,3,0,1.8,1.8,0,0,1,.559,1.358,1.8,1.8,0,0,1-.565,1.371,2.353,2.353,0,0,1-2.983,0A1.8,1.8,0,0,1,355.469,9.709ZM368.1,24.3a2.406,2.406,0,0,0,1.65-.559,1.957,1.957,0,0,0,.66-1.485h3.44a4.706,4.706,0,0,1-.762,2.558,5.026,5.026,0,0,1-2.05,1.8,6.417,6.417,0,0,1-2.875.641,5.963,5.963,0,0,1-4.646-1.873,7.41,7.41,0,0,1-1.7-5.173v-.241A7.325,7.325,0,0,1,363.5,14.9a5.894,5.894,0,0,1,4.634-1.892,5.778,5.778,0,0,1,4.132,1.466,5.192,5.192,0,0,1,1.581,3.9h-3.44a2.521,2.521,0,0,0-.66-1.742,2.454,2.454,0,0,0-3.612.264,5.416,5.416,0,0,0-.654,3.032v.381a5.485,5.485,0,0,0,.647,3.052A2.237,2.237,0,0,0,368.1,24.3ZM379.818,27h-3.682V13.264h3.682Zm-3.9-17.291a1.807,1.807,0,0,1,.552-1.358,2.38,2.38,0,0,1,3,0,1.8,1.8,0,0,1,.559,1.358,1.8,1.8,0,0,1-.565,1.371,2.353,2.353,0,0,1-2.983,0A1.8,1.8,0,0,1,375.921,9.709ZM382.269,20a8.146,8.146,0,0,1,.787-3.644,5.762,5.762,0,0,1,2.266-2.476,6.611,6.611,0,0,1,3.434-.876,6.255,6.255,0,0,1,4.539,1.7,6.827,6.827,0,0,1,1.961,4.621l.025.939a7.18,7.18,0,0,1-1.765,5.072,6.839,6.839,0,0,1-9.477.006,7.306,7.306,0,0,1-1.771-5.18Zm3.669.26a5.135,5.135,0,0,0,.736,2.994,2.645,2.645,0,0,0,4.189.013A5.618,5.618,0,0,0,391.612,20a5.083,5.083,0,0,0-.749-2.975,2.435,2.435,0,0,0-2.107-1.055,2.4,2.4,0,0,0-2.082,1.049A5.713,5.713,0,0,0,385.938,20.265ZM404.98,23.2a1.182,1.182,0,0,0-.667-1.06,7.571,7.571,0,0,0-2.139-.692q-4.9-1.028-4.9-4.164a3.774,3.774,0,0,1,1.517-3.053,6.12,6.12,0,0,1,3.967-1.225,6.587,6.587,0,0,1,4.183,1.231,3.881,3.881,0,0,1,1.568,3.2h-3.669a1.775,1.775,0,0,0-.508-1.3,2.149,2.149,0,0,0-1.587-.514,2.2,2.2,0,0,0-1.435.419,1.323,1.323,0,0,0-.508,1.066,1.13,1.13,0,0,0,.578.984,5.942,5.942,0,0,0,1.949.647,15.917,15.917,0,0,1,2.311.616q2.907,1.066,2.907,3.694a3.583,3.583,0,0,1-1.612,3.041,6.955,6.955,0,0,1-4.164,1.162,7.264,7.264,0,0,1-3.066-.616,5.144,5.144,0,0,1-2.1-1.688,3.923,3.923,0,0,1-.762-2.317h3.479a1.915,1.915,0,0,0,.724,1.5,2.87,2.87,0,0,0,1.8.521,2.657,2.657,0,0,0,1.593-.4A1.244,1.244,0,0,0,404.98,23.2ZM416.813,20a8.146,8.146,0,0,1,.787-3.644,5.762,5.762,0,0,1,2.266-2.476,6.611,6.611,0,0,1,3.434-.876,6.255,6.255,0,0,1,4.539,1.7,6.827,6.827,0,0,1,1.961,4.621l.025.939a7.18,7.18,0,0,1-1.765,5.072,6.839,6.839,0,0,1-9.477.006,7.306,7.306,0,0,1-1.771-5.18Zm3.669.26a5.135,5.135,0,0,0,.736,2.994,2.645,2.645,0,0,0,4.189.013A5.618,5.618,0,0,0,426.156,20a5.083,5.083,0,0,0-.749-2.975,2.435,2.435,0,0,0-2.107-1.055,2.4,2.4,0,0,0-2.082,1.049A5.713,5.713,0,0,0,420.481,20.265ZM433.088,27V15.955h-2.044V13.264h2.044V12.1a4.742,4.742,0,0,1,1.327-3.586,5.138,5.138,0,0,1,3.713-1.276,8.577,8.577,0,0,1,1.866.254l-.038,2.844a4.678,4.678,0,0,0-1.117-.114q-2.069,0-2.069,1.942v1.1H439.5v2.691H436.77V27Zm16.034-10.3a9.968,9.968,0,0,0-1.32-.1,2.687,2.687,0,0,0-2.729,1.409V27H441.4V13.264h3.466l.1,1.638a3.4,3.4,0,0,1,3.06-1.892,3.844,3.844,0,0,1,1.143.165Zm8.087,10.55A6.743,6.743,0,0,1,452.29,25.4a6.588,6.588,0,0,1-1.9-4.938v-.355a8.3,8.3,0,0,1,.8-3.7,5.87,5.87,0,0,1,2.266-2.514,6.36,6.36,0,0,1,3.345-.882,5.7,5.7,0,0,1,4.437,1.777,7.222,7.222,0,0,1,1.619,5.04v1.5h-8.747a3.408,3.408,0,0,0,1.073,2.158,3.243,3.243,0,0,0,2.266.813,3.96,3.96,0,0,0,3.313-1.536l1.8,2.019a5.508,5.508,0,0,1-2.234,1.822A7.331,7.331,0,0,1,457.209,27.254Zm-.419-11.286a2.293,2.293,0,0,0-1.771.74,3.83,3.83,0,0,0-.87,2.117h5.1v-.293a2.731,2.731,0,0,0-.66-1.894A2.365,2.365,0,0,0,456.79,15.968ZM470.653,24.3a2.406,2.406,0,0,0,1.65-.559,1.957,1.957,0,0,0,.66-1.485h3.44a4.706,4.706,0,0,1-.762,2.558,5.026,5.026,0,0,1-2.05,1.8,6.417,6.417,0,0,1-2.875.641,5.963,5.963,0,0,1-4.646-1.873,7.41,7.41,0,0,1-1.7-5.173v-.241a7.325,7.325,0,0,1,1.688-5.065,5.894,5.894,0,0,1,4.634-1.892,5.778,5.778,0,0,1,4.132,1.466,5.192,5.192,0,0,1,1.581,3.9h-3.44a2.521,2.521,0,0,0-.66-1.742,2.454,2.454,0,0,0-3.612.264,5.416,5.416,0,0,0-.654,3.032v.381a5.485,5.485,0,0,0,.647,3.052A2.237,2.237,0,0,0,470.653,24.3ZM482.371,27h-3.682V13.264h3.682Zm-3.9-17.291a1.807,1.807,0,0,1,.552-1.358,2.38,2.38,0,0,1,3,0,1.8,1.8,0,0,1,.559,1.358,1.8,1.8,0,0,1-.565,1.371,2.353,2.353,0,0,1-2.983,0A1.8,1.8,0,0,1,478.474,9.709Zm6.348,10.321a8.278,8.278,0,0,1,1.441-5.116,4.675,4.675,0,0,1,3.942-1.9,4.207,4.207,0,0,1,3.313,1.5V7.5H497.2V27h-3.313l-.178-1.46a4.318,4.318,0,0,1-3.529,1.714,4.663,4.663,0,0,1-3.891-1.911A8.545,8.545,0,0,1,484.821,20.03Zm3.669.273a5.422,5.422,0,0,0,.673,2.963,2.192,2.192,0,0,0,1.955,1.03,2.455,2.455,0,0,0,2.4-1.437V17.43a2.42,2.42,0,0,0-2.374-1.437Q488.49,15.993,488.49,20.3Zm10.981-.3a8.146,8.146,0,0,1,.787-3.644,5.762,5.762,0,0,1,2.266-2.476,6.611,6.611,0,0,1,3.434-.876,6.255,6.255,0,0,1,4.539,1.7,6.828,6.828,0,0,1,1.961,4.621l.025.939a7.18,7.18,0,0,1-1.765,5.072,6.839,6.839,0,0,1-9.477.006,7.306,7.306,0,0,1-1.771-5.18Zm3.669.26a5.135,5.135,0,0,0,.736,2.994,2.645,2.645,0,0,0,4.189.013A5.618,5.618,0,0,0,508.815,20a5.083,5.083,0,0,0-.749-2.975,2.435,2.435,0,0,0-2.107-1.055,2.4,2.4,0,0,0-2.082,1.049A5.713,5.713,0,0,0,503.141,20.265ZM522.184,23.2a1.182,1.182,0,0,0-.667-1.06,7.571,7.571,0,0,0-2.139-.692q-4.9-1.028-4.9-4.164a3.774,3.774,0,0,1,1.517-3.053,6.12,6.12,0,0,1,3.967-1.225,6.587,6.587,0,0,1,4.183,1.231,3.881,3.881,0,0,1,1.568,3.2h-3.669a1.775,1.775,0,0,0-.508-1.3,2.149,2.149,0,0,0-1.587-.514,2.2,2.2,0,0,0-1.435.419,1.322,1.322,0,0,0-.508,1.066,1.131,1.131,0,0,0,.578.984,5.942,5.942,0,0,0,1.949.647,15.916,15.916,0,0,1,2.311.616q2.907,1.066,2.907,3.694a3.583,3.583,0,0,1-1.612,3.041,6.955,6.955,0,0,1-4.164,1.162,7.264,7.264,0,0,1-3.066-.616,5.144,5.144,0,0,1-2.1-1.688,3.923,3.923,0,0,1-.762-2.317h3.479a1.916,1.916,0,0,0,.724,1.5,2.87,2.87,0,0,0,1.8.521,2.657,2.657,0,0,0,1.593-.4A1.244,1.244,0,0,0,522.184,23.2Zm24.769-2.945a8.238,8.238,0,0,1-1.441,5.084,4.62,4.62,0,0,1-3.891,1.911,4.279,4.279,0,0,1-3.364-1.447v6.475h-3.669V13.264h3.4l.127,1.346a4.312,4.312,0,0,1,3.479-1.6,4.651,4.651,0,0,1,3.948,1.879,8.461,8.461,0,0,1,1.409,5.18Zm-3.669-.267a5.406,5.406,0,0,0-.679-2.958,2.212,2.212,0,0,0-1.974-1.041,2.4,2.4,0,0,0-2.374,1.32v5.624a2.443,2.443,0,0,0,2.4,1.358Q543.283,24.3,543.283,19.992Zm5.37.013a8.147,8.147,0,0,1,.787-3.644,5.762,5.762,0,0,1,2.266-2.476,6.611,6.611,0,0,1,3.434-.876,6.255,6.255,0,0,1,4.539,1.7,6.828,6.828,0,0,1,1.961,4.621l.025.939a7.179,7.179,0,0,1-1.765,5.072,6.839,6.839,0,0,1-9.477.006,7.306,7.306,0,0,1-1.771-5.18Zm3.669.26a5.134,5.134,0,0,0,.736,2.994,2.645,2.645,0,0,0,4.189.013A5.619,5.619,0,0,0,558,20a5.083,5.083,0,0,0-.749-2.975,2.435,2.435,0,0,0-2.107-1.055,2.4,2.4,0,0,0-2.082,1.049A5.713,5.713,0,0,0,552.322,20.265ZM571.645,16.7a9.968,9.968,0,0,0-1.32-.1,2.687,2.687,0,0,0-2.729,1.409V27h-3.669V13.264h3.466l.1,1.638a3.4,3.4,0,0,1,3.06-1.892,3.844,3.844,0,0,1,1.143.165ZM585.1,8.516l4.748,13.406,4.723-13.406h5V27h-3.821V21.947l.381-8.722L591.145,27h-2.615l-4.977-13.762.381,8.709V27h-3.809V8.516ZM606.531,27H602.85V13.264h3.682Zm-3.9-17.291a1.807,1.807,0,0,1,.552-1.358,2.38,2.38,0,0,1,3,0,1.8,1.8,0,0,1,.559,1.358,1.8,1.8,0,0,1-.565,1.371,2.353,2.353,0,0,1-2.983,0A1.8,1.8,0,0,1,602.634,9.709ZM615.266,24.3a2.406,2.406,0,0,0,1.65-.559,1.957,1.957,0,0,0,.66-1.485h3.44a4.707,4.707,0,0,1-.762,2.558,5.026,5.026,0,0,1-2.05,1.8,6.417,6.417,0,0,1-2.875.641,5.963,5.963,0,0,1-4.646-1.873,7.41,7.41,0,0,1-1.7-5.173v-.241A7.325,7.325,0,0,1,610.67,14.9,5.894,5.894,0,0,1,615.3,13.01a5.778,5.778,0,0,1,4.132,1.466,5.192,5.192,0,0,1,1.581,3.9h-3.44a2.521,2.521,0,0,0-.66-1.742,2.454,2.454,0,0,0-3.612.264,5.416,5.416,0,0,0-.654,3.032v.381a5.485,5.485,0,0,0,.647,3.052A2.237,2.237,0,0,0,615.266,24.3ZM630.83,16.7a9.968,9.968,0,0,0-1.32-.1,2.687,2.687,0,0,0-2.729,1.409V27h-3.669V13.264h3.466l.1,1.638a3.4,3.4,0,0,1,3.06-1.892,3.844,3.844,0,0,1,1.143.165Zm.736,3.3a8.147,8.147,0,0,1,.787-3.644,5.762,5.762,0,0,1,2.266-2.476,6.611,6.611,0,0,1,3.434-.876,6.255,6.255,0,0,1,4.539,1.7,6.828,6.828,0,0,1,1.961,4.621l.025.939a7.179,7.179,0,0,1-1.765,5.072,6.839,6.839,0,0,1-9.477.006,7.306,7.306,0,0,1-1.771-5.18Zm3.669.26a5.134,5.134,0,0,0,.736,2.994,2.645,2.645,0,0,0,4.189.013A5.619,5.619,0,0,0,640.91,20a5.083,5.083,0,0,0-.749-2.975,2.435,2.435,0,0,0-2.107-1.055,2.4,2.4,0,0,0-2.082,1.049A5.713,5.713,0,0,0,635.235,20.265ZM654.278,23.2a1.182,1.182,0,0,0-.667-1.06,7.571,7.571,0,0,0-2.139-.692q-4.9-1.028-4.9-4.164a3.774,3.774,0,0,1,1.517-3.053,6.12,6.12,0,0,1,3.967-1.225,6.587,6.587,0,0,1,4.183,1.231,3.881,3.881,0,0,1,1.568,3.2h-3.669a1.775,1.775,0,0,0-.508-1.3,2.149,2.149,0,0,0-1.587-.514,2.2,2.2,0,0,0-1.435.419,1.322,1.322,0,0,0-.508,1.066,1.131,1.131,0,0,0,.578.984,5.942,5.942,0,0,0,1.949.647,15.916,15.916,0,0,1,2.311.616q2.907,1.066,2.907,3.694a3.583,3.583,0,0,1-1.612,3.041,6.955,6.955,0,0,1-4.164,1.162A7.264,7.264,0,0,1,649,26.638a5.144,5.144,0,0,1-2.1-1.688,3.923,3.923,0,0,1-.762-2.317h3.479a1.916,1.916,0,0,0,.724,1.5,2.87,2.87,0,0,0,1.8.521,2.657,2.657,0,0,0,1.593-.4A1.244,1.244,0,0,0,654.278,23.2Zm5.357-3.2a8.147,8.147,0,0,1,.787-3.644,5.762,5.762,0,0,1,2.266-2.476,6.611,6.611,0,0,1,3.434-.876,6.255,6.255,0,0,1,4.539,1.7,6.828,6.828,0,0,1,1.961,4.621l.025.939a7.179,7.179,0,0,1-1.765,5.072,6.839,6.839,0,0,1-9.477.006,7.306,7.306,0,0,1-1.771-5.18Zm3.669.26a5.134,5.134,0,0,0,.736,2.994,2.645,2.645,0,0,0,4.189.013A5.619,5.619,0,0,0,668.979,20a5.083,5.083,0,0,0-.749-2.975,2.435,2.435,0,0,0-2.107-1.055,2.4,2.4,0,0,0-2.082,1.049A5.713,5.713,0,0,0,663.3,20.265ZM675.911,27V15.955h-2.044V13.264h2.044V12.1a4.742,4.742,0,0,1,1.327-3.586,5.138,5.138,0,0,1,3.713-1.276,8.577,8.577,0,0,1,1.866.254l-.038,2.844a4.677,4.677,0,0,0-1.117-.114q-2.069,0-2.069,1.942v1.1h2.729v2.691h-2.729V27ZM688.619,9.887v3.377h2.349v2.691h-2.349v6.855a1.637,1.637,0,0,0,.292,1.092,1.467,1.467,0,0,0,1.117.33,5.851,5.851,0,0,0,1.079-.089v2.78a7.553,7.553,0,0,1-2.222.33q-3.859,0-3.936-3.9v-7.4h-2.006V13.264h2.006V9.887Zm21.544,13.3h-6.678L702.216,27h-4.05l6.881-18.484h3.529L715.5,27h-4.05Zm-5.649-3.085h4.621l-2.323-6.919Zm16.834,3.936h6.716V27h-11.4V24.766l6.462-8.544h-6.271V13.264H727.86v2.162Zm17.24,1.562a4.6,4.6,0,0,1-3.758,1.65,4.339,4.339,0,0,1-3.371-1.27,5.419,5.419,0,0,1-1.187-3.72v-9h3.669v8.884q0,2.148,1.955,2.148a2.649,2.649,0,0,0,2.564-1.3V13.264h3.682V27h-3.453Zm14.041-8.9a9.968,9.968,0,0,0-1.32-.1,2.687,2.687,0,0,0-2.729,1.409V27H744.91V13.264h3.466l.1,1.638a3.4,3.4,0,0,1,3.06-1.892,3.844,3.844,0,0,1,1.143.165Zm8.087,10.55A6.743,6.743,0,0,1,755.8,25.4a6.588,6.588,0,0,1-1.9-4.938v-.355a8.3,8.3,0,0,1,.8-3.7,5.87,5.87,0,0,1,2.266-2.514,6.36,6.36,0,0,1,3.345-.882,5.7,5.7,0,0,1,4.437,1.777,7.222,7.222,0,0,1,1.619,5.04v1.5h-8.747a3.408,3.408,0,0,0,1.073,2.158,3.243,3.243,0,0,0,2.266.813,3.96,3.96,0,0,0,3.313-1.536l1.8,2.019a5.508,5.508,0,0,1-2.234,1.822A7.331,7.331,0,0,1,760.716,27.254ZM760.3,15.968a2.293,2.293,0,0,0-1.771.74,3.83,3.83,0,0,0-.87,2.117h5.1v-.293a2.731,2.731,0,0,0-.66-1.894A2.365,2.365,0,0,0,760.3,15.968Zm26.99,4.291a8.238,8.238,0,0,1-1.441,5.084,4.62,4.62,0,0,1-3.891,1.911,4.279,4.279,0,0,1-3.364-1.447v6.475h-3.669V13.264h3.4l.127,1.346a4.312,4.312,0,0,1,3.479-1.6,4.651,4.651,0,0,1,3.948,1.879,8.461,8.461,0,0,1,1.409,5.18Zm-3.669-.267a5.406,5.406,0,0,0-.679-2.958,2.212,2.212,0,0,0-1.974-1.041,2.4,2.4,0,0,0-2.374,1.32v5.624a2.443,2.443,0,0,0,2.4,1.358Q783.618,24.3,783.618,19.992Zm5.37.013a8.147,8.147,0,0,1,.787-3.644,5.762,5.762,0,0,1,2.266-2.476,6.611,6.611,0,0,1,3.434-.876,6.255,6.255,0,0,1,4.539,1.7,6.828,6.828,0,0,1,1.961,4.621l.025.939a7.179,7.179,0,0,1-1.765,5.072,6.839,6.839,0,0,1-9.477.006,7.306,7.306,0,0,1-1.771-5.18Zm3.669.26a5.134,5.134,0,0,0,.736,2.994,2.645,2.645,0,0,0,4.189.013A5.619,5.619,0,0,0,798.332,20a5.083,5.083,0,0,0-.749-2.975,2.435,2.435,0,0,0-2.107-1.055,2.4,2.4,0,0,0-2.082,1.049A5.713,5.713,0,0,0,792.657,20.265Zm11.032-.235a8.278,8.278,0,0,1,1.441-5.116,4.675,4.675,0,0,1,3.942-1.9,4.207,4.207,0,0,1,3.313,1.5V7.5h3.682V27h-3.313l-.178-1.46a4.318,4.318,0,0,1-3.529,1.714,4.663,4.663,0,0,1-3.891-1.911A8.545,8.545,0,0,1,803.689,20.03Zm3.669.273a5.423,5.423,0,0,0,.673,2.963,2.192,2.192,0,0,0,1.955,1.03,2.455,2.455,0,0,0,2.4-1.437V17.43a2.42,2.42,0,0,0-2.374-1.437Q807.358,15.993,807.358,20.3Zm17.875,6.95a6.743,6.743,0,0,1-4.919-1.854,6.588,6.588,0,0,1-1.9-4.938v-.355a8.3,8.3,0,0,1,.8-3.7,5.87,5.87,0,0,1,2.266-2.514,6.36,6.36,0,0,1,3.345-.882,5.7,5.7,0,0,1,4.437,1.777,7.222,7.222,0,0,1,1.619,5.04v1.5h-8.747a3.408,3.408,0,0,0,1.073,2.158,3.243,3.243,0,0,0,2.266.813,3.96,3.96,0,0,0,3.313-1.536l1.8,2.019a5.508,5.508,0,0,1-2.234,1.822A7.331,7.331,0,0,1,825.233,27.254Zm-.419-11.286a2.293,2.293,0,0,0-1.771.74,3.83,3.83,0,0,0-.87,2.117h5.1v-.293a2.731,2.731,0,0,0-.66-1.894A2.365,2.365,0,0,0,824.814,15.968Zm11.591-2.7.114,1.536a4.827,4.827,0,0,1,3.948-1.79,3.664,3.664,0,0,1,3.644,2.095,4.716,4.716,0,0,1,4.126-2.095,4.1,4.1,0,0,1,3.326,1.3,5.981,5.981,0,0,1,1.092,3.917V27h-3.682V18.24a2.616,2.616,0,0,0-.457-1.708,2.025,2.025,0,0,0-1.612-.54,2.29,2.29,0,0,0-2.285,1.574L844.632,27h-3.669V18.253a2.584,2.584,0,0,0-.47-1.727,2.045,2.045,0,0,0-1.6-.533,2.378,2.378,0,0,0-2.26,1.295V27h-3.669V13.264ZM854.9,20a8.147,8.147,0,0,1,.787-3.644,5.762,5.762,0,0,1,2.266-2.476,6.611,6.611,0,0,1,3.434-.876,6.255,6.255,0,0,1,4.539,1.7,6.828,6.828,0,0,1,1.961,4.621l.025.939a7.179,7.179,0,0,1-1.765,5.072,6.839,6.839,0,0,1-9.477.006,7.306,7.306,0,0,1-1.771-5.18Zm3.669.26a5.134,5.134,0,0,0,.736,2.994,2.645,2.645,0,0,0,4.189.013A5.619,5.619,0,0,0,864.246,20a5.083,5.083,0,0,0-.749-2.975,2.435,2.435,0,0,0-2.107-1.055,2.4,2.4,0,0,0-2.082,1.049A5.713,5.713,0,0,0,858.571,20.265ZM877.614,23.2a1.182,1.182,0,0,0-.667-1.06,7.571,7.571,0,0,0-2.139-.692q-4.9-1.028-4.9-4.164a3.774,3.774,0,0,1,1.517-3.053,6.12,6.12,0,0,1,3.967-1.225,6.587,6.587,0,0,1,4.183,1.231,3.881,3.881,0,0,1,1.568,3.2h-3.669a1.775,1.775,0,0,0-.508-1.3,2.149,2.149,0,0,0-1.587-.514,2.2,2.2,0,0,0-1.435.419,1.322,1.322,0,0,0-.508,1.066,1.131,1.131,0,0,0,.578.984,5.942,5.942,0,0,0,1.949.647,15.916,15.916,0,0,1,2.311.616q2.907,1.066,2.907,3.694a3.583,3.583,0,0,1-1.612,3.041,6.955,6.955,0,0,1-4.164,1.162,7.264,7.264,0,0,1-3.066-.616,5.144,5.144,0,0,1-2.1-1.688,3.923,3.923,0,0,1-.762-2.317h3.479a1.916,1.916,0,0,0,.724,1.5,2.87,2.87,0,0,0,1.8.521,2.657,2.657,0,0,0,1.593-.4A1.244,1.244,0,0,0,877.614,23.2Zm15.844-9.94.114,1.536a4.827,4.827,0,0,1,3.948-1.79,3.664,3.664,0,0,1,3.644,2.095,4.716,4.716,0,0,1,4.126-2.095,4.1,4.1,0,0,1,3.326,1.3,5.981,5.981,0,0,1,1.092,3.917V27h-3.682V18.24a2.616,2.616,0,0,0-.457-1.708,2.025,2.025,0,0,0-1.612-.54,2.29,2.29,0,0,0-2.285,1.574L901.685,27h-3.669V18.253a2.584,2.584,0,0,0-.47-1.727,2.045,2.045,0,0,0-1.6-.533,2.378,2.378,0,0,0-2.26,1.295V27h-3.669V13.264Zm25.391,13.99a6.743,6.743,0,0,1-4.919-1.854,6.588,6.588,0,0,1-1.9-4.938v-.355a8.3,8.3,0,0,1,.8-3.7,5.87,5.87,0,0,1,2.266-2.514,6.36,6.36,0,0,1,3.345-.882,5.7,5.7,0,0,1,4.437,1.777,7.222,7.222,0,0,1,1.619,5.04v1.5h-8.747a3.408,3.408,0,0,0,1.073,2.158,3.243,3.243,0,0,0,2.266.813A3.96,3.96,0,0,0,922.4,22.76l1.8,2.019a5.508,5.508,0,0,1-2.234,1.822A7.331,7.331,0,0,1,918.849,27.254Zm-.419-11.286a2.293,2.293,0,0,0-1.771.74,3.83,3.83,0,0,0-.87,2.117h5.1v-.293a2.731,2.731,0,0,0-.66-1.894A2.365,2.365,0,0,0,918.43,15.968Zm11.527-2.7.114,1.587a4.8,4.8,0,0,1,3.948-1.841,3.986,3.986,0,0,1,3.25,1.282,5.982,5.982,0,0,1,1.092,3.834V27h-3.669V18.215a2.38,2.38,0,0,0-.508-1.695,2.273,2.273,0,0,0-1.688-.527,2.524,2.524,0,0,0-2.323,1.32V27H926.5V13.264Zm16.9,11.032a2.406,2.406,0,0,0,1.65-.559,1.957,1.957,0,0,0,.66-1.485h3.44a4.707,4.707,0,0,1-.762,2.558,5.026,5.026,0,0,1-2.05,1.8,6.417,6.417,0,0,1-2.875.641,5.963,5.963,0,0,1-4.646-1.873,7.41,7.41,0,0,1-1.7-5.173v-.241a7.325,7.325,0,0,1,1.688-5.065,5.894,5.894,0,0,1,4.634-1.892,5.778,5.778,0,0,1,4.132,1.466,5.192,5.192,0,0,1,1.581,3.9h-3.44a2.521,2.521,0,0,0-.66-1.742,2.454,2.454,0,0,0-3.612.264,5.416,5.416,0,0,0-.654,3.032v.381a5.485,5.485,0,0,0,.647,3.052A2.237,2.237,0,0,0,946.854,24.3ZM958.572,27h-3.682V13.264h3.682Zm-3.9-17.291a1.807,1.807,0,0,1,.552-1.358,2.38,2.38,0,0,1,3,0,1.8,1.8,0,0,1,.559,1.358,1.8,1.8,0,0,1-.565,1.371,2.353,2.353,0,0,1-2.983,0A1.8,1.8,0,0,1,954.675,9.709ZM961.022,20a8.147,8.147,0,0,1,.787-3.644,5.762,5.762,0,0,1,2.266-2.476,6.611,6.611,0,0,1,3.434-.876,6.255,6.255,0,0,1,4.539,1.7,6.828,6.828,0,0,1,1.961,4.621l.025.939a7.179,7.179,0,0,1-1.765,5.072,6.839,6.839,0,0,1-9.477.006,7.306,7.306,0,0,1-1.771-5.18Zm3.669.26a5.134,5.134,0,0,0,.736,2.994,2.645,2.645,0,0,0,4.189.013A5.619,5.619,0,0,0,970.366,20a5.083,5.083,0,0,0-.749-2.975,2.435,2.435,0,0,0-2.107-1.055,2.4,2.4,0,0,0-2.082,1.049A5.713,5.713,0,0,0,964.691,20.265Zm14.98-7,.114,1.587a4.8,4.8,0,0,1,3.948-1.841,3.986,3.986,0,0,1,3.25,1.282,5.982,5.982,0,0,1,1.092,3.834V27h-3.669V18.215a2.38,2.38,0,0,0-.508-1.695,2.273,2.273,0,0,0-1.688-.527,2.524,2.524,0,0,0-2.323,1.32V27h-3.669V13.264ZM998.816,27a4.075,4.075,0,0,1-.368-1.231,4.439,4.439,0,0,1-3.466,1.485,4.877,4.877,0,0,1-3.345-1.168,3.756,3.756,0,0,1-1.327-2.945,3.882,3.882,0,0,1,1.619-3.352,7.987,7.987,0,0,1,4.678-1.181H998.3v-.787a2.264,2.264,0,0,0-.489-1.523,1.923,1.923,0,0,0-1.542-.571,2.186,2.186,0,0,0-1.454.444,1.509,1.509,0,0,0-.527,1.219h-3.669a3.685,3.685,0,0,1,.736-2.209,4.867,4.867,0,0,1,2.082-1.593,7.588,7.588,0,0,1,3.021-.578,6,6,0,0,1,4.031,1.276,4.463,4.463,0,0,1,1.492,3.586v5.954a6.567,6.567,0,0,0,.546,2.958V27Zm-3.034-2.552a3.16,3.16,0,0,0,1.5-.362,2.376,2.376,0,0,0,1.016-.971V20.754h-1.371q-2.755,0-2.933,1.9l-.013.216a1.469,1.469,0,0,0,.482,1.13A1.874,1.874,0,0,0,995.782,24.448Zm16.732-7.744a9.968,9.968,0,0,0-1.32-.1,2.687,2.687,0,0,0-2.729,1.409V27H1004.8V13.264h3.466l.1,1.638a3.4,3.4,0,0,1,3.06-1.892,3.844,3.844,0,0,1,1.143.165Zm1.942,8.493a1.847,1.847,0,0,1,.59-1.422,2.294,2.294,0,0,1,2.971,0,1.847,1.847,0,0,1,.59,1.422,1.822,1.822,0,0,1-.584,1.4,2.332,2.332,0,0,1-2.983,0A1.822,1.822,0,0,1,1014.457,25.2Zm0-10.4a1.847,1.847,0,0,1,.59-1.422,2.294,2.294,0,0,1,2.971,0,1.847,1.847,0,0,1,.59,1.422,1.822,1.822,0,0,1-.584,1.4,2.332,2.332,0,0,1-2.983,0A1.822,1.822,0,0,1,1014.457,14.8Z" transform="translate(285.192 24144.223)" fill="#fff"/>
  </g>
</svg>
