<svg xmlns="http://www.w3.org/2000/svg" xmlns:xlink="http://www.w3.org/1999/xlink" width="1240" height="52" viewBox="0 0 1240 52">
  <defs>
    <linearGradient id="linear-gradient" x1="0.5" x2="0.5" y2="1" gradientUnits="objectBoundingBox">
      <stop offset="0" stop-color="#039be5"/>
      <stop offset="1" stop-color="#027fbc"/>
    </linearGradient>
  </defs>
  <g id="Grupo_152012" data-name="Grupo 152012" transform="translate(-180.676 -22190)">
    <g id="Grupo_152011" data-name="Grupo 152011">
      <rect id="Rectángulo_45120" data-name="Rectángulo 45120" width="1240" height="52" transform="translate(180.676 22190)" fill="url(#linear-gradient)"/>
    </g>
    <path id="Trazado_194450" data-name="Trazado 194450" d="M12.086,23.191H5.408L4.139,27H.089L6.97,8.516H10.5L17.418,27h-4.05ZM6.437,20.106h4.621L8.734,13.188Zm15.907-6.843.114,1.536a4.827,4.827,0,0,1,3.948-1.79A3.664,3.664,0,0,1,30.05,15.1a4.716,4.716,0,0,1,4.126-2.095,4.1,4.1,0,0,1,3.326,1.3,5.981,5.981,0,0,1,1.092,3.917V27H34.912V18.24a2.616,2.616,0,0,0-.457-1.708,2.025,2.025,0,0,0-1.612-.54,2.29,2.29,0,0,0-2.285,1.574L30.57,27H26.9V18.253a2.584,2.584,0,0,0-.47-1.727,2.045,2.045,0,0,0-1.6-.533,2.378,2.378,0,0,0-2.26,1.295V27H18.9V13.264ZM49.372,27A4.074,4.074,0,0,1,49,25.769a4.439,4.439,0,0,1-3.466,1.485,4.877,4.877,0,0,1-3.345-1.168,3.756,3.756,0,0,1-1.327-2.945,3.882,3.882,0,0,1,1.619-3.352,7.987,7.987,0,0,1,4.678-1.181h1.688v-.787a2.264,2.264,0,0,0-.489-1.523,1.923,1.923,0,0,0-1.542-.571,2.186,2.186,0,0,0-1.454.444,1.509,1.509,0,0,0-.527,1.219H41.171a3.685,3.685,0,0,1,.736-2.209,4.867,4.867,0,0,1,2.082-1.593,7.588,7.588,0,0,1,3.021-.578,6,6,0,0,1,4.031,1.276,4.463,4.463,0,0,1,1.492,3.586v5.954a6.567,6.567,0,0,0,.546,2.958V27Zm-3.034-2.552a3.16,3.16,0,0,0,1.5-.362,2.376,2.376,0,0,0,1.016-.971V20.754H47.48q-2.755,0-2.933,1.9l-.013.216A1.469,1.469,0,0,0,45.018,24,1.874,1.874,0,0,0,46.338,24.448Zm13.229-.406h6.716V27h-11.4V24.766l6.462-8.544H55.072V13.264H66.079v2.162ZM67.806,20a8.146,8.146,0,0,1,.787-3.644,5.762,5.762,0,0,1,2.266-2.476,6.611,6.611,0,0,1,3.434-.876,6.255,6.255,0,0,1,4.539,1.7,6.827,6.827,0,0,1,1.961,4.621l.025.939a7.18,7.18,0,0,1-1.765,5.072,6.839,6.839,0,0,1-9.477.006,7.306,7.306,0,0,1-1.771-5.18Zm3.669.26a5.135,5.135,0,0,0,.736,2.994,2.645,2.645,0,0,0,4.189.013A5.618,5.618,0,0,0,77.149,20a5.083,5.083,0,0,0-.749-2.975,2.435,2.435,0,0,0-2.107-1.055,2.4,2.4,0,0,0-2.082,1.049A5.713,5.713,0,0,0,71.475,20.265Zm14.98-7,.114,1.587a4.8,4.8,0,0,1,3.948-1.841,3.986,3.986,0,0,1,3.25,1.282,5.983,5.983,0,0,1,1.092,3.834V27H91.19V18.215a2.38,2.38,0,0,0-.508-1.695,2.273,2.273,0,0,0-1.688-.527,2.524,2.524,0,0,0-2.323,1.32V27H83V13.264ZM103.543,20a8.146,8.146,0,0,1,.787-3.644,5.762,5.762,0,0,1,2.266-2.476,6.611,6.611,0,0,1,3.434-.876,6.255,6.255,0,0,1,4.539,1.7,6.827,6.827,0,0,1,1.961,4.621l.025.939a7.18,7.18,0,0,1-1.765,5.072,6.839,6.839,0,0,1-9.477.006,7.306,7.306,0,0,1-1.771-5.18Zm3.669.26a5.135,5.135,0,0,0,.736,2.994,2.645,2.645,0,0,0,4.189.013A5.618,5.618,0,0,0,112.887,20a5.083,5.083,0,0,0-.749-2.975,2.435,2.435,0,0,0-2.107-1.055,2.4,2.4,0,0,0-2.082,1.049A5.713,5.713,0,0,0,107.212,20.265ZM119.818,27V15.955h-2.044V13.264h2.044V12.1a4.742,4.742,0,0,1,1.327-3.586,5.138,5.138,0,0,1,3.713-1.276,8.577,8.577,0,0,1,1.866.254l-.038,2.844a4.678,4.678,0,0,0-1.117-.114q-2.069,0-2.069,1.942v1.1h2.729v2.691H123.5V27Zm16.034-10.3a9.968,9.968,0,0,0-1.32-.1,2.687,2.687,0,0,0-2.729,1.409V27h-3.669V13.264H131.6l.1,1.638a3.4,3.4,0,0,1,3.06-1.892,3.844,3.844,0,0,1,1.143.165Zm8.087,10.55A6.743,6.743,0,0,1,139.02,25.4a6.588,6.588,0,0,1-1.9-4.938v-.355a8.3,8.3,0,0,1,.8-3.7,5.87,5.87,0,0,1,2.266-2.514,6.36,6.36,0,0,1,3.345-.882,5.7,5.7,0,0,1,4.437,1.777,7.222,7.222,0,0,1,1.619,5.04v1.5h-8.747a3.408,3.408,0,0,0,1.073,2.158,3.243,3.243,0,0,0,2.266.813,3.96,3.96,0,0,0,3.313-1.536l1.8,2.019a5.508,5.508,0,0,1-2.234,1.822A7.331,7.331,0,0,1,143.939,27.254Zm-.419-11.286a2.293,2.293,0,0,0-1.771.74,3.83,3.83,0,0,0-.87,2.117h5.1v-.293a2.731,2.731,0,0,0-.66-1.894A2.365,2.365,0,0,0,143.521,15.968ZM157.384,24.3a2.406,2.406,0,0,0,1.65-.559,1.957,1.957,0,0,0,.66-1.485h3.44a4.706,4.706,0,0,1-.762,2.558,5.026,5.026,0,0,1-2.05,1.8,6.417,6.417,0,0,1-2.875.641,5.963,5.963,0,0,1-4.646-1.873,7.41,7.41,0,0,1-1.7-5.173v-.241a7.325,7.325,0,0,1,1.688-5.065,5.894,5.894,0,0,1,4.634-1.892,5.778,5.778,0,0,1,4.132,1.466,5.192,5.192,0,0,1,1.581,3.9h-3.44a2.521,2.521,0,0,0-.66-1.742,2.454,2.454,0,0,0-3.612.264,5.416,5.416,0,0,0-.654,3.032v.381a5.485,5.485,0,0,0,.647,3.052A2.237,2.237,0,0,0,157.384,24.3Zm14.168,2.958a6.743,6.743,0,0,1-4.919-1.854,6.588,6.588,0,0,1-1.9-4.938v-.355a8.3,8.3,0,0,1,.8-3.7,5.87,5.87,0,0,1,2.266-2.514,6.36,6.36,0,0,1,3.345-.882,5.7,5.7,0,0,1,4.437,1.777,7.222,7.222,0,0,1,1.619,5.04v1.5h-8.747a3.408,3.408,0,0,0,1.073,2.158,3.243,3.243,0,0,0,2.266.813,3.96,3.96,0,0,0,3.313-1.536l1.8,2.019a5.508,5.508,0,0,1-2.234,1.822A7.331,7.331,0,0,1,171.552,27.254Zm-.419-11.286a2.293,2.293,0,0,0-1.771.74,3.83,3.83,0,0,0-.87,2.117h5.1v-.293a2.731,2.731,0,0,0-.66-1.894A2.365,2.365,0,0,0,171.133,15.968Zm18.065-2.7.114,1.536a4.827,4.827,0,0,1,3.948-1.79A3.664,3.664,0,0,1,196.9,15.1a4.716,4.716,0,0,1,4.126-2.095,4.1,4.1,0,0,1,3.326,1.3,5.981,5.981,0,0,1,1.092,3.917V27h-3.682V18.24a2.616,2.616,0,0,0-.457-1.708,2.025,2.025,0,0,0-1.612-.54,2.29,2.29,0,0,0-2.285,1.574L197.425,27h-3.669V18.253a2.584,2.584,0,0,0-.47-1.727,2.045,2.045,0,0,0-1.6-.533,2.378,2.378,0,0,0-2.26,1.295V27h-3.669V13.264ZM216.227,27a4.074,4.074,0,0,1-.368-1.231,4.439,4.439,0,0,1-3.466,1.485,4.877,4.877,0,0,1-3.345-1.168,3.756,3.756,0,0,1-1.327-2.945,3.882,3.882,0,0,1,1.619-3.352,7.987,7.987,0,0,1,4.678-1.181h1.688v-.787a2.264,2.264,0,0,0-.489-1.523,1.923,1.923,0,0,0-1.542-.571,2.186,2.186,0,0,0-1.454.444,1.509,1.509,0,0,0-.527,1.219h-3.669a3.685,3.685,0,0,1,.736-2.209,4.867,4.867,0,0,1,2.082-1.593,7.588,7.588,0,0,1,3.021-.578,6,6,0,0,1,4.031,1.276,4.463,4.463,0,0,1,1.492,3.586v5.954a6.567,6.567,0,0,0,.546,2.958V27Zm-3.034-2.552a3.16,3.16,0,0,0,1.5-.362,2.376,2.376,0,0,0,1.016-.971V20.754h-1.371q-2.755,0-2.933,1.9l-.013.216a1.469,1.469,0,0,0,.482,1.13A1.874,1.874,0,0,0,213.192,24.448Zm1.4-16.948h4l-3.517,3.936h-2.983Zm15.057,15.7a1.182,1.182,0,0,0-.667-1.06,7.571,7.571,0,0,0-2.139-.692q-4.9-1.028-4.9-4.164a3.774,3.774,0,0,1,1.517-3.053,6.12,6.12,0,0,1,3.967-1.225,6.587,6.587,0,0,1,4.183,1.231,3.881,3.881,0,0,1,1.568,3.2h-3.669a1.775,1.775,0,0,0-.508-1.3,2.149,2.149,0,0,0-1.587-.514,2.2,2.2,0,0,0-1.435.419,1.322,1.322,0,0,0-.508,1.066,1.131,1.131,0,0,0,.578.984,5.942,5.942,0,0,0,1.949.647,15.917,15.917,0,0,1,2.311.616q2.907,1.066,2.907,3.694a3.583,3.583,0,0,1-1.612,3.041,6.955,6.955,0,0,1-4.164,1.162,7.264,7.264,0,0,1-3.066-.616,5.144,5.144,0,0,1-2.1-1.688,3.923,3.923,0,0,1-.762-2.317h3.479a1.915,1.915,0,0,0,.724,1.5,2.87,2.87,0,0,0,1.8.521,2.657,2.657,0,0,0,1.593-.4A1.244,1.244,0,0,0,229.646,23.2Zm11.832-3.174a8.278,8.278,0,0,1,1.441-5.116,4.675,4.675,0,0,1,3.942-1.9,4.207,4.207,0,0,1,3.313,1.5V7.5h3.682V27h-3.313l-.178-1.46a4.318,4.318,0,0,1-3.529,1.714,4.663,4.663,0,0,1-3.891-1.911A8.545,8.545,0,0,1,241.478,20.03Zm3.669.273a5.423,5.423,0,0,0,.673,2.963,2.192,2.192,0,0,0,1.955,1.03,2.455,2.455,0,0,0,2.4-1.437V17.43a2.42,2.42,0,0,0-2.374-1.437Q245.146,15.993,245.146,20.3Zm17.875,6.95A6.743,6.743,0,0,1,258.1,25.4a6.588,6.588,0,0,1-1.9-4.938v-.355a8.3,8.3,0,0,1,.8-3.7,5.87,5.87,0,0,1,2.266-2.514,6.36,6.36,0,0,1,3.345-.882,5.7,5.7,0,0,1,4.437,1.777,7.222,7.222,0,0,1,1.619,5.04v1.5h-8.747A3.408,3.408,0,0,0,261,23.483a3.243,3.243,0,0,0,2.266.813,3.96,3.96,0,0,0,3.313-1.536l1.8,2.019a5.508,5.508,0,0,1-2.234,1.822A7.331,7.331,0,0,1,263.021,27.254ZM262.6,15.968a2.293,2.293,0,0,0-1.771.74,3.83,3.83,0,0,0-.87,2.117h5.1v-.293a2.731,2.731,0,0,0-.66-1.894A2.365,2.365,0,0,0,262.6,15.968ZM285.987,27h-3.669V12.857l-4.38,1.358V11.232l7.655-2.742h.394Zm18.446-7.643a9.364,9.364,0,0,1-1.587,5.865,6.342,6.342,0,0,1-9.268.038,9.09,9.09,0,0,1-1.638-5.713v-3.4a9.241,9.241,0,0,1,1.606-5.878,6.354,6.354,0,0,1,9.249-.019,9.062,9.062,0,0,1,1.638,5.707Zm-3.669-3.741a6.769,6.769,0,0,0-.628-3.349,2.124,2.124,0,0,0-1.961-1.048,2.086,2.086,0,0,0-1.911,1,6.334,6.334,0,0,0-.654,3.12v4.5a7.105,7.105,0,0,0,.616,3.361,2.1,2.1,0,0,0,1.974,1.1,2.06,2.06,0,0,0,1.942-1.055,6.935,6.935,0,0,0,.622-3.228Zm18.586,3.741a9.364,9.364,0,0,1-1.587,5.865,6.342,6.342,0,0,1-9.268.038,9.09,9.09,0,0,1-1.638-5.713v-3.4a9.241,9.241,0,0,1,1.606-5.878,6.354,6.354,0,0,1,9.249-.019,9.062,9.062,0,0,1,1.638,5.707Zm-3.669-3.741a6.769,6.769,0,0,0-.628-3.349,2.124,2.124,0,0,0-1.961-1.048,2.086,2.086,0,0,0-1.911,1,6.334,6.334,0,0,0-.654,3.12v4.5a7.105,7.105,0,0,0,.616,3.361,2.1,2.1,0,0,0,1.974,1.1,2.06,2.06,0,0,0,1.942-1.055,6.935,6.935,0,0,0,.622-3.228ZM335.893,23.2a1.182,1.182,0,0,0-.667-1.06,7.571,7.571,0,0,0-2.139-.692q-4.9-1.028-4.9-4.164a3.774,3.774,0,0,1,1.517-3.053,6.12,6.12,0,0,1,3.967-1.225,6.587,6.587,0,0,1,4.183,1.231,3.881,3.881,0,0,1,1.568,3.2h-3.669a1.775,1.775,0,0,0-.508-1.3,2.149,2.149,0,0,0-1.587-.514,2.2,2.2,0,0,0-1.435.419,1.323,1.323,0,0,0-.508,1.066,1.13,1.13,0,0,0,.578.984,5.942,5.942,0,0,0,1.949.647,15.917,15.917,0,0,1,2.311.616q2.907,1.066,2.907,3.694a3.583,3.583,0,0,1-1.612,3.041,6.955,6.955,0,0,1-4.164,1.162,7.264,7.264,0,0,1-3.066-.616,5.144,5.144,0,0,1-2.1-1.688,3.923,3.923,0,0,1-.762-2.317h3.479a1.915,1.915,0,0,0,.724,1.5,2.87,2.87,0,0,0,1.8.521,2.657,2.657,0,0,0,1.593-.4A1.244,1.244,0,0,0,335.893,23.2Zm12.251,4.05a6.743,6.743,0,0,1-4.919-1.854,6.588,6.588,0,0,1-1.9-4.938v-.355a8.3,8.3,0,0,1,.8-3.7,5.87,5.87,0,0,1,2.266-2.514,6.36,6.36,0,0,1,3.345-.882,5.7,5.7,0,0,1,4.437,1.777,7.222,7.222,0,0,1,1.619,5.04v1.5h-8.747a3.408,3.408,0,0,0,1.073,2.158,3.243,3.243,0,0,0,2.266.813A3.96,3.96,0,0,0,351.7,22.76l1.8,2.019a5.508,5.508,0,0,1-2.234,1.822A7.331,7.331,0,0,1,348.144,27.254Zm-.419-11.286a2.293,2.293,0,0,0-1.771.74,3.83,3.83,0,0,0-.87,2.117h5.1v-.293a2.731,2.731,0,0,0-.66-1.894A2.365,2.365,0,0,0,347.725,15.968Zm15.869.736a9.968,9.968,0,0,0-1.32-.1,2.687,2.687,0,0,0-2.729,1.409V27h-3.669V13.264h3.466l.1,1.638a3.4,3.4,0,0,1,3.06-1.892,3.844,3.844,0,0,1,1.143.165Zm7.135,5.814,2.552-9.255h3.834L372.48,27h-3.5l-4.634-13.736h3.834ZM382.6,27h-3.682V13.264H382.6ZM378.7,9.709a1.807,1.807,0,0,1,.552-1.358,2.38,2.38,0,0,1,3,0,1.8,1.8,0,0,1,.559,1.358,1.8,1.8,0,0,1-.565,1.371,2.353,2.353,0,0,1-2.983,0A1.8,1.8,0,0,1,378.7,9.709ZM391.333,24.3a2.406,2.406,0,0,0,1.65-.559,1.957,1.957,0,0,0,.66-1.485h3.44a4.706,4.706,0,0,1-.762,2.558,5.026,5.026,0,0,1-2.05,1.8,6.417,6.417,0,0,1-2.875.641,5.963,5.963,0,0,1-4.646-1.873,7.41,7.41,0,0,1-1.7-5.173v-.241a7.325,7.325,0,0,1,1.688-5.065,5.894,5.894,0,0,1,4.634-1.892,5.778,5.778,0,0,1,4.132,1.466,5.192,5.192,0,0,1,1.581,3.9h-3.44a2.521,2.521,0,0,0-.66-1.742,2.454,2.454,0,0,0-3.612.264,5.416,5.416,0,0,0-.654,3.032v.381a5.485,5.485,0,0,0,.647,3.052A2.237,2.237,0,0,0,391.333,24.3ZM403.051,27h-3.682V13.264h3.682Zm-3.9-17.291a1.807,1.807,0,0,1,.552-1.358,2.38,2.38,0,0,1,3,0,1.8,1.8,0,0,1,.559,1.358,1.8,1.8,0,0,1-.565,1.371,2.353,2.353,0,0,1-2.983,0A1.8,1.8,0,0,1,399.153,9.709ZM405.5,20a8.146,8.146,0,0,1,.787-3.644,5.762,5.762,0,0,1,2.266-2.476,6.611,6.611,0,0,1,3.434-.876,6.255,6.255,0,0,1,4.539,1.7,6.827,6.827,0,0,1,1.961,4.621l.025.939a7.18,7.18,0,0,1-1.765,5.072,6.839,6.839,0,0,1-9.477.006,7.306,7.306,0,0,1-1.771-5.18Zm3.669.26a5.135,5.135,0,0,0,.736,2.994,2.645,2.645,0,0,0,4.189.013A5.618,5.618,0,0,0,414.845,20a5.083,5.083,0,0,0-.749-2.975,2.435,2.435,0,0,0-2.107-1.055,2.4,2.4,0,0,0-2.082,1.049A5.713,5.713,0,0,0,409.17,20.265ZM428.213,23.2a1.182,1.182,0,0,0-.667-1.06,7.571,7.571,0,0,0-2.139-.692q-4.9-1.028-4.9-4.164a3.774,3.774,0,0,1,1.517-3.053,6.12,6.12,0,0,1,3.967-1.225,6.587,6.587,0,0,1,4.183,1.231,3.881,3.881,0,0,1,1.568,3.2h-3.669a1.775,1.775,0,0,0-.508-1.3,2.149,2.149,0,0,0-1.587-.514,2.2,2.2,0,0,0-1.435.419,1.323,1.323,0,0,0-.508,1.066,1.13,1.13,0,0,0,.578.984,5.942,5.942,0,0,0,1.949.647,15.917,15.917,0,0,1,2.311.616q2.907,1.066,2.907,3.694a3.583,3.583,0,0,1-1.612,3.041A6.955,6.955,0,0,1,426,27.254a7.264,7.264,0,0,1-3.066-.616,5.144,5.144,0,0,1-2.1-1.688,3.923,3.923,0,0,1-.762-2.317h3.479a1.915,1.915,0,0,0,.724,1.5,2.87,2.87,0,0,0,1.8.521,2.657,2.657,0,0,0,1.593-.4A1.244,1.244,0,0,0,428.213,23.2Zm11.832-3.174a8.278,8.278,0,0,1,1.441-5.116,4.675,4.675,0,0,1,3.942-1.9,4.207,4.207,0,0,1,3.313,1.5V7.5h3.682V27h-3.313l-.178-1.46a4.318,4.318,0,0,1-3.529,1.714,4.663,4.663,0,0,1-3.891-1.911A8.545,8.545,0,0,1,440.045,20.03Zm3.669.273a5.422,5.422,0,0,0,.673,2.963,2.192,2.192,0,0,0,1.955,1.03,2.455,2.455,0,0,0,2.4-1.437V17.43a2.42,2.42,0,0,0-2.374-1.437Q443.714,15.993,443.714,20.3ZM459.139,27h-3.682V13.264h3.682Zm-3.9-17.291a1.807,1.807,0,0,1,.552-1.358,2.38,2.38,0,0,1,3,0,1.8,1.8,0,0,1,.559,1.358,1.8,1.8,0,0,1-.565,1.371,2.353,2.353,0,0,1-2.983,0A1.8,1.8,0,0,1,455.241,9.709ZM469.6,23.2a1.182,1.182,0,0,0-.667-1.06,7.571,7.571,0,0,0-2.139-.692q-4.9-1.028-4.9-4.164a3.774,3.774,0,0,1,1.517-3.053,6.12,6.12,0,0,1,3.967-1.225,6.587,6.587,0,0,1,4.183,1.231,3.881,3.881,0,0,1,1.568,3.2H469.46a1.775,1.775,0,0,0-.508-1.3,2.149,2.149,0,0,0-1.587-.514,2.2,2.2,0,0,0-1.435.419,1.323,1.323,0,0,0-.508,1.066,1.13,1.13,0,0,0,.578.984,5.942,5.942,0,0,0,1.949.647,15.917,15.917,0,0,1,2.311.616q2.907,1.066,2.907,3.694a3.583,3.583,0,0,1-1.612,3.041,6.955,6.955,0,0,1-4.164,1.162,7.264,7.264,0,0,1-3.066-.616,5.144,5.144,0,0,1-2.1-1.688,3.923,3.923,0,0,1-.762-2.317h3.479a1.915,1.915,0,0,0,.724,1.5,2.87,2.87,0,0,0,1.8.521,2.657,2.657,0,0,0,1.593-.4A1.244,1.244,0,0,0,469.6,23.2ZM479.921,9.887v3.377h2.349v2.691h-2.349v6.855a1.637,1.637,0,0,0,.292,1.092,1.467,1.467,0,0,0,1.117.33,5.851,5.851,0,0,0,1.079-.089v2.78a7.553,7.553,0,0,1-2.222.33q-3.859,0-3.936-3.9v-7.4h-2.006V13.264h2.006V9.887ZM492.032,16.7a9.968,9.968,0,0,0-1.32-.1,2.687,2.687,0,0,0-2.729,1.409V27h-3.669V13.264h3.466l.1,1.638a3.4,3.4,0,0,1,3.06-1.892,3.844,3.844,0,0,1,1.143.165ZM497.669,27h-3.682V13.264h3.682Zm-3.9-17.291a1.807,1.807,0,0,1,.552-1.358,2.38,2.38,0,0,1,3,0,1.8,1.8,0,0,1,.559,1.358,1.8,1.8,0,0,1-.565,1.371,2.353,2.353,0,0,1-2.983,0A1.8,1.8,0,0,1,493.771,9.709Zm19.3,10.55a8.318,8.318,0,0,1-1.409,5.148,4.668,4.668,0,0,1-3.936,1.847,4.289,4.289,0,0,1-3.567-1.714L503.991,27h-3.3V7.5h3.669v7A4.178,4.178,0,0,1,507.7,13.01a4.706,4.706,0,0,1,3.942,1.847,8.33,8.33,0,0,1,1.428,5.2Zm-3.669-.267a5.464,5.464,0,0,0-.66-3.041,2.232,2.232,0,0,0-1.968-.958,2.42,2.42,0,0,0-2.412,1.435v5.421A2.453,2.453,0,0,0,506.8,24.3a2.265,2.265,0,0,0,2.336-1.752A9.038,9.038,0,0,0,509.4,19.992ZM523.555,25.6a4.6,4.6,0,0,1-3.758,1.65,4.339,4.339,0,0,1-3.371-1.27,5.419,5.419,0,0,1-1.187-3.72v-9h3.669v8.884q0,2.148,1.955,2.148a2.649,2.649,0,0,0,2.564-1.3V13.264h3.682V27h-3.453ZM533.749,27h-3.682V13.264h3.682Zm-3.9-17.291a1.807,1.807,0,0,1,.552-1.358,2.38,2.38,0,0,1,3,0,1.8,1.8,0,0,1,.559,1.358,1.8,1.8,0,0,1-.565,1.371,2.353,2.353,0,0,1-2.983,0A1.8,1.8,0,0,1,529.852,9.709ZM536.2,20.03a8.278,8.278,0,0,1,1.441-5.116,4.675,4.675,0,0,1,3.942-1.9,4.207,4.207,0,0,1,3.313,1.5V7.5h3.682V27h-3.313l-.178-1.46a4.318,4.318,0,0,1-3.529,1.714,4.663,4.663,0,0,1-3.891-1.911A8.545,8.545,0,0,1,536.2,20.03Zm3.669.273a5.423,5.423,0,0,0,.673,2.963A2.192,2.192,0,0,0,542.5,24.3a2.455,2.455,0,0,0,2.4-1.437V17.43a2.42,2.42,0,0,0-2.374-1.437Q539.868,15.993,539.868,20.3ZM550.85,20a8.147,8.147,0,0,1,.787-3.644,5.762,5.762,0,0,1,2.266-2.476,6.611,6.611,0,0,1,3.434-.876,6.255,6.255,0,0,1,4.539,1.7,6.828,6.828,0,0,1,1.961,4.621l.025.939a7.179,7.179,0,0,1-1.765,5.072,6.839,6.839,0,0,1-9.477.006,7.306,7.306,0,0,1-1.771-5.18Zm3.669.26a5.134,5.134,0,0,0,.736,2.994,2.645,2.645,0,0,0,4.189.013A5.619,5.619,0,0,0,560.193,20a5.083,5.083,0,0,0-.749-2.975,2.435,2.435,0,0,0-2.107-1.055,2.4,2.4,0,0,0-2.082,1.049A5.713,5.713,0,0,0,554.519,20.265ZM573.562,23.2a1.182,1.182,0,0,0-.667-1.06,7.571,7.571,0,0,0-2.139-.692q-4.9-1.028-4.9-4.164a3.774,3.774,0,0,1,1.517-3.053,6.12,6.12,0,0,1,3.967-1.225,6.587,6.587,0,0,1,4.183,1.231,3.881,3.881,0,0,1,1.568,3.2h-3.669a1.775,1.775,0,0,0-.508-1.3,2.149,2.149,0,0,0-1.587-.514,2.2,2.2,0,0,0-1.435.419,1.322,1.322,0,0,0-.508,1.066,1.131,1.131,0,0,0,.578.984,5.942,5.942,0,0,0,1.949.647,15.916,15.916,0,0,1,2.311.616q2.907,1.066,2.907,3.694a3.583,3.583,0,0,1-1.612,3.041,6.955,6.955,0,0,1-4.164,1.162,7.264,7.264,0,0,1-3.066-.616,5.144,5.144,0,0,1-2.1-1.688,3.923,3.923,0,0,1-.762-2.317H568.9a1.916,1.916,0,0,0,.724,1.5,2.87,2.87,0,0,0,1.8.521,2.657,2.657,0,0,0,1.593-.4A1.244,1.244,0,0,0,573.562,23.2Zm18.726,4.05a6.743,6.743,0,0,1-4.919-1.854,6.588,6.588,0,0,1-1.9-4.938v-.355a8.3,8.3,0,0,1,.8-3.7,5.87,5.87,0,0,1,2.266-2.514,6.36,6.36,0,0,1,3.345-.882,5.7,5.7,0,0,1,4.437,1.777,7.222,7.222,0,0,1,1.619,5.04v1.5h-8.747a3.408,3.408,0,0,0,1.073,2.158,3.243,3.243,0,0,0,2.266.813,3.96,3.96,0,0,0,3.313-1.536l1.8,2.019A5.508,5.508,0,0,1,595.41,26.6,7.331,7.331,0,0,1,592.287,27.254Zm-.419-11.286a2.293,2.293,0,0,0-1.771.74,3.83,3.83,0,0,0-.87,2.117h5.1v-.293a2.731,2.731,0,0,0-.66-1.894A2.365,2.365,0,0,0,591.868,15.968Zm11.527-2.7.114,1.587a4.8,4.8,0,0,1,3.948-1.841,3.986,3.986,0,0,1,3.25,1.282,5.982,5.982,0,0,1,1.092,3.834V27h-3.669V18.215a2.38,2.38,0,0,0-.508-1.695,2.273,2.273,0,0,0-1.688-.527,2.524,2.524,0,0,0-2.323,1.32V27h-3.669V13.264Zm15.577-3.377v3.377h2.349v2.691h-2.349v6.855a1.637,1.637,0,0,0,.292,1.092,1.467,1.467,0,0,0,1.117.33,5.851,5.851,0,0,0,1.079-.089v2.78a7.553,7.553,0,0,1-2.222.33q-3.859,0-3.936-3.9v-7.4H613.3V13.264H615.3V9.887ZM631.084,16.7a9.968,9.968,0,0,0-1.32-.1,2.687,2.687,0,0,0-2.729,1.409V27h-3.669V13.264h3.466l.1,1.638a3.4,3.4,0,0,1,3.06-1.892,3.844,3.844,0,0,1,1.143.165Zm8.087,10.55a6.743,6.743,0,0,1-4.919-1.854,6.588,6.588,0,0,1-1.9-4.938v-.355a8.3,8.3,0,0,1,.8-3.7,5.87,5.87,0,0,1,2.266-2.514,6.36,6.36,0,0,1,3.345-.882,5.7,5.7,0,0,1,4.437,1.777,7.222,7.222,0,0,1,1.619,5.04v1.5h-8.747a3.408,3.408,0,0,0,1.073,2.158,3.243,3.243,0,0,0,2.266.813,3.96,3.96,0,0,0,3.313-1.536l1.8,2.019a5.508,5.508,0,0,1-2.234,1.822A7.331,7.331,0,0,1,639.171,27.254Zm-.419-11.286a2.293,2.293,0,0,0-1.771.74,3.83,3.83,0,0,0-.87,2.117h5.1v-.293a2.731,2.731,0,0,0-.66-1.894A2.365,2.365,0,0,0,638.752,15.968ZM657.249,27h-3.682V7.5h3.682Zm2.45-7a8.147,8.147,0,0,1,.787-3.644,5.762,5.762,0,0,1,2.266-2.476,6.611,6.611,0,0,1,3.434-.876,6.255,6.255,0,0,1,4.539,1.7,6.828,6.828,0,0,1,1.961,4.621l.025.939a7.179,7.179,0,0,1-1.765,5.072,6.839,6.839,0,0,1-9.477.006,7.306,7.306,0,0,1-1.771-5.18Zm3.669.26a5.134,5.134,0,0,0,.736,2.994,2.645,2.645,0,0,0,4.189.013A5.619,5.619,0,0,0,669.043,20a5.083,5.083,0,0,0-.749-2.975,2.435,2.435,0,0,0-2.107-1.055,2.4,2.4,0,0,0-2.082,1.049A5.713,5.713,0,0,0,663.368,20.265ZM682.411,23.2a1.182,1.182,0,0,0-.667-1.06,7.571,7.571,0,0,0-2.139-.692q-4.9-1.028-4.9-4.164a3.774,3.774,0,0,1,1.517-3.053,6.12,6.12,0,0,1,3.967-1.225,6.587,6.587,0,0,1,4.183,1.231,3.881,3.881,0,0,1,1.568,3.2h-3.669a1.775,1.775,0,0,0-.508-1.3,2.149,2.149,0,0,0-1.587-.514,2.2,2.2,0,0,0-1.435.419,1.322,1.322,0,0,0-.508,1.066,1.131,1.131,0,0,0,.578.984,5.942,5.942,0,0,0,1.949.647,15.916,15.916,0,0,1,2.311.616q2.907,1.066,2.907,3.694a3.583,3.583,0,0,1-1.612,3.041,6.955,6.955,0,0,1-4.164,1.162,7.264,7.264,0,0,1-3.066-.616,5.144,5.144,0,0,1-2.1-1.688,3.923,3.923,0,0,1-.762-2.317h3.479a1.916,1.916,0,0,0,.724,1.5,2.87,2.87,0,0,0,1.8.521,2.657,2.657,0,0,0,1.593-.4A1.244,1.244,0,0,0,682.411,23.2ZM700.527,24.3a2.406,2.406,0,0,0,1.65-.559,1.957,1.957,0,0,0,.66-1.485h3.44a4.707,4.707,0,0,1-.762,2.558,5.026,5.026,0,0,1-2.05,1.8,6.417,6.417,0,0,1-2.875.641,5.963,5.963,0,0,1-4.646-1.873,7.41,7.41,0,0,1-1.7-5.173v-.241a7.325,7.325,0,0,1,1.688-5.065,5.894,5.894,0,0,1,4.634-1.892,5.778,5.778,0,0,1,4.132,1.466,5.192,5.192,0,0,1,1.581,3.9h-3.44a2.521,2.521,0,0,0-.66-1.742,2.454,2.454,0,0,0-3.612.264,5.416,5.416,0,0,0-.654,3.032v.381a5.485,5.485,0,0,0,.647,3.052A2.237,2.237,0,0,0,700.527,24.3ZM716.6,25.6a4.6,4.6,0,0,1-3.758,1.65,4.339,4.339,0,0,1-3.371-1.27,5.419,5.419,0,0,1-1.187-3.72v-9h3.669v8.884q0,2.148,1.955,2.148a2.649,2.649,0,0,0,2.564-1.3V13.264h3.682V27H716.7ZM730.882,27a4.075,4.075,0,0,1-.368-1.231,4.439,4.439,0,0,1-3.466,1.485,4.877,4.877,0,0,1-3.345-1.168,3.756,3.756,0,0,1-1.327-2.945,3.882,3.882,0,0,1,1.619-3.352,7.987,7.987,0,0,1,4.678-1.181h1.688v-.787a2.264,2.264,0,0,0-.489-1.523,1.923,1.923,0,0,0-1.542-.571,2.186,2.186,0,0,0-1.454.444,1.509,1.509,0,0,0-.527,1.219h-3.669a3.685,3.685,0,0,1,.736-2.209,4.867,4.867,0,0,1,2.082-1.593,7.588,7.588,0,0,1,3.021-.578,6,6,0,0,1,4.031,1.276,4.463,4.463,0,0,1,1.492,3.586v5.954a6.567,6.567,0,0,0,.546,2.958V27Zm-3.034-2.552a3.16,3.16,0,0,0,1.5-.362,2.376,2.376,0,0,0,1.016-.971V20.754H728.99q-2.755,0-2.933,1.9l-.013.216a1.469,1.469,0,0,0,.482,1.13A1.874,1.874,0,0,0,727.848,24.448ZM740.733,27h-3.682V7.5h3.682Zm9.344.254a6.743,6.743,0,0,1-4.919-1.854,6.588,6.588,0,0,1-1.9-4.938v-.355a8.3,8.3,0,0,1,.8-3.7,5.87,5.87,0,0,1,2.266-2.514,6.36,6.36,0,0,1,3.345-.882,5.7,5.7,0,0,1,4.437,1.777,7.222,7.222,0,0,1,1.619,5.04v1.5h-8.747a3.408,3.408,0,0,0,1.073,2.158,3.243,3.243,0,0,0,2.266.813,3.96,3.96,0,0,0,3.313-1.536l1.8,2.019A5.508,5.508,0,0,1,753.2,26.6,7.331,7.331,0,0,1,750.077,27.254Zm-.419-11.286a2.293,2.293,0,0,0-1.771.74,3.83,3.83,0,0,0-.87,2.117h5.1v-.293a2.731,2.731,0,0,0-.66-1.894A2.365,2.365,0,0,0,749.658,15.968Zm15.59,7.236a1.182,1.182,0,0,0-.667-1.06,7.571,7.571,0,0,0-2.139-.692q-4.9-1.028-4.9-4.164a3.774,3.774,0,0,1,1.517-3.053,6.12,6.12,0,0,1,3.967-1.225,6.587,6.587,0,0,1,4.183,1.231,3.881,3.881,0,0,1,1.568,3.2h-3.669a1.775,1.775,0,0,0-.508-1.3,2.149,2.149,0,0,0-1.587-.514,2.2,2.2,0,0,0-1.435.419,1.322,1.322,0,0,0-.508,1.066,1.131,1.131,0,0,0,.578.984,5.942,5.942,0,0,0,1.949.647,15.916,15.916,0,0,1,2.311.616q2.907,1.066,2.907,3.694a3.583,3.583,0,0,1-1.612,3.041,6.955,6.955,0,0,1-4.164,1.162,7.264,7.264,0,0,1-3.066-.616,5.144,5.144,0,0,1-2.1-1.688,3.923,3.923,0,0,1-.762-2.317h3.479a1.916,1.916,0,0,0,.724,1.5,2.87,2.87,0,0,0,1.8.521,2.657,2.657,0,0,0,1.593-.4A1.244,1.244,0,0,0,765.248,23.2Zm24.769-2.945a8.238,8.238,0,0,1-1.441,5.084,4.62,4.62,0,0,1-3.891,1.911,4.279,4.279,0,0,1-3.364-1.447v6.475h-3.669V13.264h3.4l.127,1.346a4.312,4.312,0,0,1,3.479-1.6,4.651,4.651,0,0,1,3.948,1.879,8.461,8.461,0,0,1,1.409,5.18Zm-3.669-.267a5.406,5.406,0,0,0-.679-2.958,2.212,2.212,0,0,0-1.974-1.041,2.4,2.4,0,0,0-2.374,1.32v5.624a2.443,2.443,0,0,0,2.4,1.358Q786.348,24.3,786.348,19.992Zm5.37.013a8.147,8.147,0,0,1,.787-3.644,5.762,5.762,0,0,1,2.266-2.476,6.611,6.611,0,0,1,3.434-.876,6.255,6.255,0,0,1,4.539,1.7,6.828,6.828,0,0,1,1.961,4.621l.025.939a7.179,7.179,0,0,1-1.765,5.072,6.839,6.839,0,0,1-9.477.006,7.306,7.306,0,0,1-1.771-5.18Zm3.669.26a5.134,5.134,0,0,0,.736,2.994,2.645,2.645,0,0,0,4.189.013A5.619,5.619,0,0,0,801.062,20a5.083,5.083,0,0,0-.749-2.975,2.435,2.435,0,0,0-2.107-1.055,2.4,2.4,0,0,0-2.082,1.049A5.713,5.713,0,0,0,795.387,20.265Zm11.032-.235a8.278,8.278,0,0,1,1.441-5.116,4.675,4.675,0,0,1,3.942-1.9,4.207,4.207,0,0,1,3.313,1.5V7.5H818.8V27h-3.313l-.178-1.46a4.318,4.318,0,0,1-3.529,1.714,4.663,4.663,0,0,1-3.891-1.911A8.545,8.545,0,0,1,806.419,20.03Zm3.669.273a5.423,5.423,0,0,0,.673,2.963,2.192,2.192,0,0,0,1.955,1.03,2.455,2.455,0,0,0,2.4-1.437V17.43a2.42,2.42,0,0,0-2.374-1.437Q810.088,15.993,810.088,20.3Zm17.875,6.95a6.743,6.743,0,0,1-4.919-1.854,6.588,6.588,0,0,1-1.9-4.938v-.355a8.3,8.3,0,0,1,.8-3.7,5.87,5.87,0,0,1,2.266-2.514,6.36,6.36,0,0,1,3.345-.882,5.7,5.7,0,0,1,4.437,1.777,7.222,7.222,0,0,1,1.619,5.04v1.5h-8.747a3.408,3.408,0,0,0,1.073,2.158,3.243,3.243,0,0,0,2.266.813,3.96,3.96,0,0,0,3.313-1.536l1.8,2.019a5.508,5.508,0,0,1-2.234,1.822A7.331,7.331,0,0,1,827.963,27.254Zm-.419-11.286a2.293,2.293,0,0,0-1.771.74,3.83,3.83,0,0,0-.87,2.117h5.1v-.293a2.731,2.731,0,0,0-.66-1.894A2.365,2.365,0,0,0,827.544,15.968Zm11.591-2.7.114,1.536a4.827,4.827,0,0,1,3.948-1.79,3.664,3.664,0,0,1,3.644,2.095,4.716,4.716,0,0,1,4.126-2.095,4.1,4.1,0,0,1,3.326,1.3,5.981,5.981,0,0,1,1.092,3.917V27H851.7V18.24a2.616,2.616,0,0,0-.457-1.708,2.025,2.025,0,0,0-1.612-.54,2.29,2.29,0,0,0-2.285,1.574L847.361,27h-3.669V18.253a2.584,2.584,0,0,0-.47-1.727,2.045,2.045,0,0,0-1.6-.533,2.378,2.378,0,0,0-2.26,1.295V27h-3.669V13.264ZM857.632,20a8.147,8.147,0,0,1,.787-3.644,5.762,5.762,0,0,1,2.266-2.476,6.611,6.611,0,0,1,3.434-.876,6.255,6.255,0,0,1,4.539,1.7,6.828,6.828,0,0,1,1.961,4.621l.025.939a7.179,7.179,0,0,1-1.765,5.072,6.839,6.839,0,0,1-9.477.006,7.306,7.306,0,0,1-1.771-5.18Zm3.669.26a5.134,5.134,0,0,0,.736,2.994,2.645,2.645,0,0,0,4.189.013A5.619,5.619,0,0,0,866.976,20a5.083,5.083,0,0,0-.749-2.975,2.435,2.435,0,0,0-2.107-1.055,2.4,2.4,0,0,0-2.082,1.049A5.713,5.713,0,0,0,861.3,20.265ZM880.344,23.2a1.182,1.182,0,0,0-.667-1.06,7.571,7.571,0,0,0-2.139-.692q-4.9-1.028-4.9-4.164a3.774,3.774,0,0,1,1.517-3.053,6.12,6.12,0,0,1,3.967-1.225,6.587,6.587,0,0,1,4.183,1.231,3.881,3.881,0,0,1,1.568,3.2H880.2a1.775,1.775,0,0,0-.508-1.3,2.149,2.149,0,0,0-1.587-.514,2.2,2.2,0,0,0-1.435.419,1.322,1.322,0,0,0-.508,1.066,1.131,1.131,0,0,0,.578.984,5.942,5.942,0,0,0,1.949.647,15.916,15.916,0,0,1,2.311.616q2.907,1.066,2.907,3.694a3.583,3.583,0,0,1-1.612,3.041,6.955,6.955,0,0,1-4.164,1.162,7.264,7.264,0,0,1-3.066-.616,5.144,5.144,0,0,1-2.1-1.688,3.923,3.923,0,0,1-.762-2.317h3.479a1.916,1.916,0,0,0,.724,1.5,2.87,2.87,0,0,0,1.8.521,2.657,2.657,0,0,0,1.593-.4A1.244,1.244,0,0,0,880.344,23.2Zm15.844-9.94L896.3,14.8a4.827,4.827,0,0,1,3.948-1.79,3.664,3.664,0,0,1,3.644,2.095,4.716,4.716,0,0,1,4.126-2.095,4.1,4.1,0,0,1,3.326,1.3,5.981,5.981,0,0,1,1.092,3.917V27h-3.682V18.24a2.616,2.616,0,0,0-.457-1.708,2.025,2.025,0,0,0-1.612-.54,2.29,2.29,0,0,0-2.285,1.574L904.414,27h-3.669V18.253a2.584,2.584,0,0,0-.47-1.727,2.045,2.045,0,0,0-1.6-.533,2.378,2.378,0,0,0-2.26,1.295V27h-3.669V13.264Zm25.391,13.99a6.743,6.743,0,0,1-4.919-1.854,6.588,6.588,0,0,1-1.9-4.938v-.355a8.3,8.3,0,0,1,.8-3.7,5.87,5.87,0,0,1,2.266-2.514,6.36,6.36,0,0,1,3.345-.882,5.7,5.7,0,0,1,4.437,1.777,7.222,7.222,0,0,1,1.619,5.04v1.5H918.48a3.408,3.408,0,0,0,1.073,2.158,3.243,3.243,0,0,0,2.266.813,3.96,3.96,0,0,0,3.313-1.536l1.8,2.019A5.508,5.508,0,0,1,924.7,26.6,7.331,7.331,0,0,1,921.578,27.254Zm-.419-11.286a2.293,2.293,0,0,0-1.771.74,3.83,3.83,0,0,0-.87,2.117h5.1v-.293a2.731,2.731,0,0,0-.66-1.894A2.365,2.365,0,0,0,921.159,15.968Zm11.527-2.7.114,1.587a4.8,4.8,0,0,1,3.948-1.841A3.986,3.986,0,0,1,940,14.292a5.982,5.982,0,0,1,1.092,3.834V27h-3.669V18.215a2.38,2.38,0,0,0-.508-1.695,2.273,2.273,0,0,0-1.688-.527,2.524,2.524,0,0,0-2.323,1.32V27h-3.669V13.264Zm16.9,11.032a2.406,2.406,0,0,0,1.65-.559,1.957,1.957,0,0,0,.66-1.485h3.44a4.707,4.707,0,0,1-.762,2.558,5.026,5.026,0,0,1-2.05,1.8,6.417,6.417,0,0,1-2.875.641A5.963,5.963,0,0,1,945,25.381a7.41,7.41,0,0,1-1.7-5.173v-.241a7.325,7.325,0,0,1,1.688-5.065,5.894,5.894,0,0,1,4.634-1.892,5.778,5.778,0,0,1,4.132,1.466,5.192,5.192,0,0,1,1.581,3.9h-3.44a2.521,2.521,0,0,0-.66-1.742,2.454,2.454,0,0,0-3.612.264,5.416,5.416,0,0,0-.654,3.032v.381a5.485,5.485,0,0,0,.647,3.052A2.237,2.237,0,0,0,949.584,24.3ZM961.3,27H957.62V13.264H961.3ZM957.4,9.709a1.807,1.807,0,0,1,.552-1.358,2.38,2.38,0,0,1,3,0,1.8,1.8,0,0,1,.559,1.358,1.8,1.8,0,0,1-.565,1.371,2.353,2.353,0,0,1-2.983,0A1.8,1.8,0,0,1,957.4,9.709ZM963.752,20a8.147,8.147,0,0,1,.787-3.644,5.762,5.762,0,0,1,2.266-2.476,6.611,6.611,0,0,1,3.434-.876,6.255,6.255,0,0,1,4.539,1.7,6.828,6.828,0,0,1,1.961,4.621l.025.939A7.179,7.179,0,0,1,975,25.343a6.839,6.839,0,0,1-9.477.006,7.306,7.306,0,0,1-1.771-5.18Zm3.669.26a5.134,5.134,0,0,0,.736,2.994,2.645,2.645,0,0,0,4.189.013A5.619,5.619,0,0,0,973.1,20a5.083,5.083,0,0,0-.749-2.975,2.435,2.435,0,0,0-2.107-1.055,2.4,2.4,0,0,0-2.082,1.049A5.713,5.713,0,0,0,967.421,20.265Zm14.98-7,.114,1.587a4.8,4.8,0,0,1,3.948-1.841,3.986,3.986,0,0,1,3.25,1.282,5.982,5.982,0,0,1,1.092,3.834V27h-3.669V18.215a2.38,2.38,0,0,0-.508-1.695,2.273,2.273,0,0,0-1.688-.527,2.524,2.524,0,0,0-2.323,1.32V27h-3.669V13.264ZM1001.546,27a4.075,4.075,0,0,1-.368-1.231,4.439,4.439,0,0,1-3.466,1.485,4.877,4.877,0,0,1-3.345-1.168,3.756,3.756,0,0,1-1.327-2.945,3.882,3.882,0,0,1,1.619-3.352,7.987,7.987,0,0,1,4.678-1.181h1.688v-.787a2.264,2.264,0,0,0-.489-1.523,1.923,1.923,0,0,0-1.542-.571,2.186,2.186,0,0,0-1.454.444,1.509,1.509,0,0,0-.527,1.219h-3.669a3.685,3.685,0,0,1,.736-2.209,4.867,4.867,0,0,1,2.082-1.593,7.588,7.588,0,0,1,3.021-.578,6,6,0,0,1,4.031,1.276,4.463,4.463,0,0,1,1.492,3.586v5.954a6.567,6.567,0,0,0,.546,2.958V27Zm-3.034-2.552a3.16,3.16,0,0,0,1.5-.362,2.376,2.376,0,0,0,1.016-.971V20.754h-1.371q-2.755,0-2.933,1.9l-.013.216a1.469,1.469,0,0,0,.482,1.13A1.874,1.874,0,0,0,998.512,24.448Zm16.732-7.744a9.968,9.968,0,0,0-1.32-.1,2.687,2.687,0,0,0-2.729,1.409V27h-3.669V13.264h3.466l.1,1.638a3.4,3.4,0,0,1,3.06-1.892,3.844,3.844,0,0,1,1.143.165Zm1.942,8.493a1.847,1.847,0,0,1,.59-1.422,2.294,2.294,0,0,1,2.971,0,1.847,1.847,0,0,1,.59,1.422,1.822,1.822,0,0,1-.584,1.4,2.332,2.332,0,0,1-2.983,0A1.822,1.822,0,0,1,1017.187,25.2Zm0-10.4a1.847,1.847,0,0,1,.59-1.422,2.294,2.294,0,0,1,2.971,0,1.847,1.847,0,0,1,.59,1.422,1.822,1.822,0,0,1-.584,1.4,2.332,2.332,0,0,1-2.983,0A1.822,1.822,0,0,1,1017.187,14.8Z" transform="translate(285.192 22201.223)" fill="#fff"/>
  </g>
</svg>
