<svg xmlns="http://www.w3.org/2000/svg" width="366" height="332" viewBox="0 0 366 332">
  <g id="Grupo_152009" data-name="Grupo 152009" transform="translate(-588.676 -18828)">
    <g id="Grupo_151925" data-name="Grupo 151925" transform="translate(-600 2169)">
      <g id="Rect치ngulo_45025" data-name="Rect치ngulo 45025" transform="translate(1188.676 16659)" fill="#fff" stroke="#ff2c9c" stroke-width="6">
        <path d="M20,0H366a0,0,0,0,1,0,0V332a0,0,0,0,1,0,0H0a0,0,0,0,1,0,0V20A20,20,0,0,1,20,0Z" stroke="none"/>
        <path d="M20,3H363a0,0,0,0,1,0,0V329a0,0,0,0,1,0,0H3a0,0,0,0,1,0,0V20A17,17,0,0,1,20,3Z" fill="none"/>
      </g>
      <g id="Oey2kO" transform="translate(1285.676 16715.035)">
        <g id="Grupo_151762" data-name="Grupo 151762" transform="translate(0 0)">
          <path id="Trazado_194213" data-name="Trazado 194213" d="M900.814-1509.278c0-3.934-.01-7.569,0-11.2.01-2.77,1.456-4.034,4.667-4.04q10.841-.022,21.683,0c3.3.005,4.775,1.275,4.788,4.122.016,3.631,0,7.261,0,11.007h10.357c.031-.555.089-1.136.091-1.717.009-3.2-.032-6.4.017-9.6.038-2.458,1.568-3.8,4.38-3.808q11.222-.044,22.443,0c2.809.012,4.265,1.359,4.284,3.851.023,3.2,0,6.4.009,9.6,0,.537.05,1.074.082,1.7h10.467v-1.574c0-3.31-.028-6.619.013-9.928.028-2.274,1.517-3.625,4.139-3.638q11.411-.062,22.823,0c2.643.016,4.111,1.43,4.142,3.842.04,3.144.01,6.288.009,9.432v1.958h10.452v-4.214q0-3.227,0-6.453c.006-3.436,1.3-4.579,5.223-4.581q10.461-.006,20.922,0c3.689,0,5,1.164,5,4.416,0,3.522,0,7.044,0,10.831,2.756,0,5.388,0,8.021,0,4.008.008,5.27,1.091,5.271,4.518,0,18.589,0,16.657,0,35.246,0,3.326-1.3,4.446-5.151,4.446H892.632c-3.812,0-5.109-1.14-5.109-4.486,0-18.588,0-16.657,0-35.246,0-3.331,1.3-4.466,5.13-4.477C895.3-1509.284,897.948-1509.278,900.814-1509.278Zm161.311,37.29v-30.334h-166.6v30.334Zm-111.711-45.6v8.178h15.244v-8.178Zm41.537,8.174h15.276v-8.134H991.951Zm-67.99.057v-8.192H908.79v8.192Zm109.7-8.243v8.2h15.194v-8.2Z" transform="translate(-887.522 1524.544)" fill="#5793ce"/>
          <path id="Trazado_194214" data-name="Trazado 194214" d="M1077.238-1427.067H908.561V-1457.4h168.677Z" transform="translate(-901.598 1479.623)" fill="#fff"/>
          <path id="Trazado_194215" data-name="Trazado 194215" d="M1052.846-1503.524h15.2v8.178h-15.2Z" transform="translate(-990.209 1510.481)" fill="#fff"/>
          <path id="Trazado_194216" data-name="Trazado 194216" d="M1162.034-1495.27v-8.134h15.419v8.134Z" transform="translate(-1057.573 1510.4)" fill="#fff"/>
          <path id="Trazado_194217" data-name="Trazado 194217" d="M961.235-1495.214H943.429v-8.192h17.806Z" transform="translate(-924.926 1510.402)" fill="#fff"/>
          <path id="Trazado_194218" data-name="Trazado 194218" d="M1271.68-1503.561h18v8.2h-18Z" transform="translate(-1125.587 1510.505)" fill="#fff"/>
        </g>
      </g>
      <g id="Oey2kO-2" data-name="Oey2kO" transform="translate(1285.676 16843.49)">
        <g id="Grupo_151762-2" data-name="Grupo 151762" transform="translate(0 0)">
          <path id="Trazado_194213-2" data-name="Trazado 194213" d="M900.814-1509.278c0-3.934-.01-7.569,0-11.2.01-2.77,1.456-4.034,4.667-4.04q10.841-.022,21.683,0c3.3.005,4.775,1.275,4.788,4.122.016,3.631,0,7.261,0,11.007h10.357c.031-.555.089-1.136.091-1.717.009-3.2-.032-6.4.017-9.6.038-2.458,1.568-3.8,4.38-3.808q11.222-.044,22.443,0c2.809.012,4.265,1.359,4.284,3.851.023,3.2,0,6.4.009,9.6,0,.537.05,1.074.082,1.7h10.467v-1.574c0-3.31-.028-6.619.013-9.928.028-2.274,1.517-3.625,4.139-3.638q11.411-.062,22.823,0c2.643.016,4.111,1.43,4.142,3.842.04,3.144.01,6.288.009,9.432v1.958h10.452v-4.214q0-3.227,0-6.453c.006-3.436,1.3-4.579,5.223-4.581q10.461-.006,20.922,0c3.689,0,5,1.164,5,4.416,0,3.522,0,7.044,0,10.831,2.756,0,5.388,0,8.021,0,4.008.008,5.27,1.091,5.271,4.518,0,18.589,0,16.657,0,35.246,0,3.326-1.3,4.446-5.151,4.446H892.632c-3.812,0-5.109-1.14-5.109-4.486,0-18.588,0-16.657,0-35.246,0-3.331,1.3-4.466,5.13-4.477C895.3-1509.284,897.948-1509.278,900.814-1509.278Zm161.311,37.29v-30.334h-166.6v30.334Zm-111.711-45.6v8.178h15.244v-8.178Zm41.537,8.174h15.276v-8.134H991.951Zm-67.99.057v-8.192H908.79v8.192Zm109.7-8.243v8.2h15.194v-8.2Z" transform="translate(-887.522 1524.544)" fill="#e2c140"/>
          <path id="Trazado_194214-2" data-name="Trazado 194214" d="M1077.238-1427.067H908.561V-1457.4h168.677Z" transform="translate(-901.598 1479.623)" fill="#fff"/>
          <path id="Trazado_194215-2" data-name="Trazado 194215" d="M1052.846-1503.524h15.2v8.178h-15.2Z" transform="translate(-990.209 1510.481)" fill="#fff"/>
          <path id="Trazado_194216-2" data-name="Trazado 194216" d="M1162.034-1495.27v-8.134h15.419v8.134Z" transform="translate(-1057.573 1510.4)" fill="#fff"/>
          <path id="Trazado_194217-2" data-name="Trazado 194217" d="M961.235-1495.214H943.429v-8.192h17.806Z" transform="translate(-924.926 1510.402)" fill="#fff"/>
          <path id="Trazado_194218-2" data-name="Trazado 194218" d="M1271.68-1503.561h18v8.2h-18Z" transform="translate(-1125.587 1510.505)" fill="#fff"/>
        </g>
      </g>
      <g id="Oey2kO-3" data-name="Oey2kO" transform="translate(1285.676 16908.262)">
        <g id="Grupo_151762-3" data-name="Grupo 151762" transform="translate(0 0)">
          <path id="Trazado_194213-3" data-name="Trazado 194213" d="M900.814-1509.278c0-3.934-.01-7.569,0-11.2.01-2.77,1.456-4.034,4.667-4.04q10.841-.022,21.683,0c3.3.005,4.775,1.275,4.788,4.122.016,3.631,0,7.261,0,11.007h10.357c.031-.555.089-1.136.091-1.717.009-3.2-.032-6.4.017-9.6.038-2.458,1.568-3.8,4.38-3.808q11.222-.044,22.443,0c2.809.012,4.265,1.359,4.284,3.851.023,3.2,0,6.4.009,9.6,0,.537.05,1.074.082,1.7h10.467v-1.574c0-3.31-.028-6.619.013-9.928.028-2.274,1.517-3.625,4.139-3.638q11.411-.062,22.823,0c2.643.016,4.111,1.43,4.142,3.842.04,3.144.01,6.288.009,9.432v1.958h10.452v-4.214q0-3.227,0-6.453c.006-3.436,1.3-4.579,5.223-4.581q10.461-.006,20.922,0c3.689,0,5,1.164,5,4.416,0,3.522,0,7.044,0,10.831,2.756,0,5.388,0,8.021,0,4.008.008,5.27,1.091,5.271,4.518,0,18.589,0,16.657,0,35.246,0,3.326-1.3,4.446-5.151,4.446H892.632c-3.812,0-5.109-1.14-5.109-4.486,0-18.588,0-16.657,0-35.246,0-3.331,1.3-4.466,5.13-4.477C895.3-1509.284,897.948-1509.278,900.814-1509.278Zm161.311,37.29v-30.334h-166.6v30.334Zm-111.711-45.6v8.178h15.244v-8.178Zm41.537,8.174h15.276v-8.134H991.951Zm-67.99.057v-8.192H908.79v8.192Zm109.7-8.243v8.2h15.194v-8.2Z" transform="translate(-887.522 1524.544)" fill="#636363"/>
          <path id="Trazado_194214-3" data-name="Trazado 194214" d="M1077.238-1427.067H908.561V-1457.4h168.677Z" transform="translate(-901.598 1479.623)" fill="#fff"/>
          <path id="Trazado_194215-3" data-name="Trazado 194215" d="M1052.846-1503.524h15.2v8.178h-15.2Z" transform="translate(-990.209 1510.481)" fill="#fff"/>
          <path id="Trazado_194216-3" data-name="Trazado 194216" d="M1162.034-1495.27v-8.134h15.419v8.134Z" transform="translate(-1057.573 1510.4)" fill="#fff"/>
          <path id="Trazado_194217-3" data-name="Trazado 194217" d="M961.235-1495.214H943.429v-8.192h17.806Z" transform="translate(-924.926 1510.402)" fill="#fff"/>
          <path id="Trazado_194218-3" data-name="Trazado 194218" d="M1271.68-1503.561h18v8.2h-18Z" transform="translate(-1125.587 1510.505)" fill="#fff"/>
        </g>
      </g>
      <g id="Oey2kO-4" data-name="Oey2kO" transform="translate(1285.676 16779.262)">
        <g id="Grupo_151762-4" data-name="Grupo 151762" transform="translate(0 0)">
          <path id="Trazado_194213-4" data-name="Trazado 194213" d="M900.814-1509.278c0-3.934-.01-7.569,0-11.2.01-2.77,1.456-4.034,4.667-4.04q10.841-.022,21.683,0c3.3.005,4.775,1.275,4.788,4.122.016,3.631,0,7.261,0,11.007h10.357c.031-.555.089-1.136.091-1.717.009-3.2-.032-6.4.017-9.6.038-2.458,1.568-3.8,4.38-3.808q11.222-.044,22.443,0c2.809.012,4.265,1.359,4.284,3.851.023,3.2,0,6.4.009,9.6,0,.537.05,1.074.082,1.7h10.467v-1.574c0-3.31-.028-6.619.013-9.928.028-2.274,1.517-3.625,4.139-3.638q11.411-.062,22.823,0c2.643.016,4.111,1.43,4.142,3.842.04,3.144.01,6.288.009,9.432v1.958h10.452v-4.214q0-3.227,0-6.453c.006-3.436,1.3-4.579,5.223-4.581q10.461-.006,20.922,0c3.689,0,5,1.164,5,4.416,0,3.522,0,7.044,0,10.831,2.756,0,5.388,0,8.021,0,4.008.008,5.27,1.091,5.271,4.518,0,18.589,0,16.657,0,35.246,0,3.326-1.3,4.446-5.151,4.446H892.632c-3.812,0-5.109-1.14-5.109-4.486,0-18.588,0-16.657,0-35.246,0-3.331,1.3-4.466,5.13-4.477C895.3-1509.284,897.948-1509.278,900.814-1509.278Zm161.311,37.29v-30.334h-166.6v30.334Zm-111.711-45.6v8.178h15.244v-8.178Zm41.537,8.174h15.276v-8.134H991.951Zm-67.99.057v-8.192H908.79v8.192Zm109.7-8.243v8.2h15.194v-8.2Z" transform="translate(-887.522 1524.544)" fill="#12263f"/>
          <path id="Trazado_194214-4" data-name="Trazado 194214" d="M1077.238-1427.067H908.561V-1457.4h168.677Z" transform="translate(-901.598 1479.623)" fill="#fff"/>
          <path id="Trazado_194215-4" data-name="Trazado 194215" d="M1052.846-1503.524h15.2v8.178h-15.2Z" transform="translate(-990.209 1510.481)" fill="#fff"/>
          <path id="Trazado_194216-4" data-name="Trazado 194216" d="M1162.034-1495.27v-8.134h15.419v8.134Z" transform="translate(-1057.573 1510.4)" fill="#fff"/>
          <path id="Trazado_194217-4" data-name="Trazado 194217" d="M961.235-1495.214H943.429v-8.192h17.806Z" transform="translate(-924.926 1510.402)" fill="#fff"/>
          <path id="Trazado_194218-4" data-name="Trazado 194218" d="M1271.68-1503.561h18v8.2h-18Z" transform="translate(-1125.587 1510.505)" fill="#fff"/>
        </g>
      </g>
      <path id="Trazado_194446" data-name="Trazado 194446" d="M5.618-2.425a.977.977,0,0,0-.381-.828,5,5,0,0,0-1.371-.609A9.72,9.72,0,0,1,2.3-4.494,2.562,2.562,0,0,1,.724-6.786a2.232,2.232,0,0,1,.422-1.336,2.753,2.753,0,0,1,1.212-.917,4.563,4.563,0,0,1,1.774-.33A4.154,4.154,0,0,1,5.9-9.01,2.81,2.81,0,0,1,7.1-8a2.649,2.649,0,0,1,.428,1.485h-1.9a1.246,1.246,0,0,0-.4-.987A1.644,1.644,0,0,0,4.1-7.852a1.756,1.756,0,0,0-1.085.3.931.931,0,0,0-.387.778.892.892,0,0,0,.454.755,5.128,5.128,0,0,0,1.336.571A5.773,5.773,0,0,1,6.786-4.24a2.415,2.415,0,0,1,.743,1.8A2.224,2.224,0,0,1,6.621-.555,3.974,3.974,0,0,1,4.177.127a4.719,4.719,0,0,1-1.942-.39A3.074,3.074,0,0,1,.9-1.333a2.739,2.739,0,0,1-.46-1.574H2.349q0,1.53,1.828,1.53a1.778,1.778,0,0,0,1.06-.276A.9.9,0,0,0,5.618-2.425ZM8.411-3.5A4.073,4.073,0,0,1,8.8-5.319,2.881,2.881,0,0,1,9.937-6.557,3.306,3.306,0,0,1,11.654-7a3.128,3.128,0,0,1,2.269.851A3.414,3.414,0,0,1,14.9-3.834l.013.47a3.59,3.59,0,0,1-.882,2.536,3.067,3.067,0,0,1-2.368.955A3.082,3.082,0,0,1,9.3-.825a3.653,3.653,0,0,1-.885-2.59Zm1.834.13a2.567,2.567,0,0,0,.368,1.5,1.215,1.215,0,0,0,1.054.518,1.217,1.217,0,0,0,1.041-.512A2.809,2.809,0,0,0,13.083-3.5a2.542,2.542,0,0,0-.375-1.488,1.217,1.217,0,0,0-1.054-.528,1.2,1.2,0,0,0-1.041.524A2.857,2.857,0,0,0,10.245-3.367ZM16.548,0V-5.522H15.526V-6.868h1.022v-.584a2.371,2.371,0,0,1,.663-1.793,2.569,2.569,0,0,1,1.857-.638A4.289,4.289,0,0,1,20-9.756l-.019,1.422a2.339,2.339,0,0,0-.559-.057q-1.035,0-1.035.971v.552h1.365v1.346H18.389V0ZM22.9-8.557v1.688h1.174v1.346H22.9v3.428a.818.818,0,0,0,.146.546.733.733,0,0,0,.559.165,2.925,2.925,0,0,0,.54-.044v1.39a3.777,3.777,0,0,1-1.111.165,1.752,1.752,0,0,1-1.968-1.949v-3.7h-1V-6.868h1V-8.557Zm8.169,6.062.9-4.374h1.771L31.992,0H30.456l-1.3-4.323L27.854,0h-1.53L24.572-6.868h1.771l.9,4.367,1.257-4.367h1.327ZM38.632,0a2.037,2.037,0,0,1-.184-.616,2.22,2.22,0,0,1-1.733.743,2.439,2.439,0,0,1-1.673-.584,1.878,1.878,0,0,1-.663-1.473,1.941,1.941,0,0,1,.809-1.676,3.994,3.994,0,0,1,2.339-.59h.844v-.394a1.132,1.132,0,0,0-.244-.762.961.961,0,0,0-.771-.286,1.093,1.093,0,0,0-.727.222.755.755,0,0,0-.263.609H34.531a1.843,1.843,0,0,1,.368-1.1,2.434,2.434,0,0,1,1.041-.8A3.794,3.794,0,0,1,37.451-7a3,3,0,0,1,2.015.638,2.232,2.232,0,0,1,.746,1.793v2.977a3.284,3.284,0,0,0,.273,1.479V0ZM37.115-1.276a1.58,1.58,0,0,0,.749-.181,1.188,1.188,0,0,0,.508-.486V-3.123h-.686q-1.377,0-1.466.952l-.006.108a.734.734,0,0,0,.241.565A.937.937,0,0,0,37.115-1.276Zm8.366-3.872a4.984,4.984,0,0,0-.66-.051,1.344,1.344,0,0,0-1.365.7V0H41.622V-6.868h1.733l.051.819A1.7,1.7,0,0,1,44.935-7a1.922,1.922,0,0,1,.571.083ZM49.524.127A3.372,3.372,0,0,1,47.065-.8a3.294,3.294,0,0,1-.949-2.469v-.178a4.149,4.149,0,0,1,.4-1.85,2.935,2.935,0,0,1,1.133-1.257A3.18,3.18,0,0,1,49.321-7a2.85,2.85,0,0,1,2.219.889,3.611,3.611,0,0,1,.809,2.52v.749H47.976a1.7,1.7,0,0,0,.536,1.079,1.621,1.621,0,0,0,1.133.406A1.98,1.98,0,0,0,51.3-2.12l.9,1.009A2.754,2.754,0,0,1,51.086-.2,3.665,3.665,0,0,1,49.524.127Zm-.209-5.643a1.146,1.146,0,0,0-.885.37,1.915,1.915,0,0,0-.435,1.058h2.552v-.147a1.366,1.366,0,0,0-.33-.947A1.183,1.183,0,0,0,49.315-5.516Zm7.027,2.031a4.139,4.139,0,0,1,.72-2.558A2.338,2.338,0,0,1,59.033-7a2.1,2.1,0,0,1,1.657.749v-3.5h1.841V0H60.874l-.089-.73a2.159,2.159,0,0,1-1.765.857,2.331,2.331,0,0,1-1.946-.955A4.272,4.272,0,0,1,56.342-3.485Zm1.834.137a2.711,2.711,0,0,0,.336,1.481,1.1,1.1,0,0,0,.978.515,1.227,1.227,0,0,0,1.2-.718V-4.785A1.21,1.21,0,0,0,59.5-5.5Q58.176-5.5,58.176-3.348ZM67.114.127A3.372,3.372,0,0,1,64.654-.8a3.294,3.294,0,0,1-.949-2.469v-.178a4.149,4.149,0,0,1,.4-1.85,2.935,2.935,0,0,1,1.133-1.257A3.18,3.18,0,0,1,66.911-7a2.85,2.85,0,0,1,2.219.889,3.611,3.611,0,0,1,.809,2.52v.749H65.565A1.7,1.7,0,0,0,66.1-1.758a1.621,1.621,0,0,0,1.133.406,1.98,1.98,0,0,0,1.657-.768l.9,1.009A2.754,2.754,0,0,1,68.675-.2,3.665,3.665,0,0,1,67.114.127ZM66.9-5.516a1.146,1.146,0,0,0-.885.37,1.915,1.915,0,0,0-.435,1.058h2.552v-.147a1.366,1.366,0,0,0-.33-.947A1.183,1.183,0,0,0,66.9-5.516ZM78.2,0a2.037,2.037,0,0,1-.184-.616A2.22,2.22,0,0,1,76.28.127a2.439,2.439,0,0,1-1.673-.584,1.878,1.878,0,0,1-.663-1.473,1.941,1.941,0,0,1,.809-1.676,3.994,3.994,0,0,1,2.339-.59h.844v-.394a1.132,1.132,0,0,0-.244-.762.961.961,0,0,0-.771-.286,1.093,1.093,0,0,0-.727.222.755.755,0,0,0-.263.609H74.1a1.843,1.843,0,0,1,.368-1.1,2.434,2.434,0,0,1,1.041-.8A3.794,3.794,0,0,1,77.016-7a3,3,0,0,1,2.015.638,2.232,2.232,0,0,1,.746,1.793v2.977A3.284,3.284,0,0,0,80.05-.108V0ZM76.68-1.276a1.58,1.58,0,0,0,.749-.181,1.188,1.188,0,0,0,.508-.486V-3.123h-.686q-1.377,0-1.466.952l-.006.108a.734.734,0,0,0,.241.565A.937.937,0,0,0,76.68-1.276ZM87.369-3.371a4.119,4.119,0,0,1-.72,2.542A2.31,2.31,0,0,1,84.7.127,2.14,2.14,0,0,1,83.021-.6V2.641H81.187V-6.868h1.7l.063.673A2.156,2.156,0,0,1,84.69-7a2.326,2.326,0,0,1,1.974.939,4.231,4.231,0,0,1,.7,2.59ZM85.535-3.5a2.7,2.7,0,0,0-.34-1.479,1.106,1.106,0,0,0-.987-.521,1.2,1.2,0,0,0-1.187.66v2.812a1.222,1.222,0,0,0,1.2.679Q85.535-1.352,85.535-3.5ZM90.441,0H88.6V-9.75h1.841Zm3.447,0H92.047V-6.868h1.841ZM91.939-8.646a.9.9,0,0,1,.276-.679,1.037,1.037,0,0,1,.752-.267,1.04,1.04,0,0,1,.749.267A.9.9,0,0,1,94-8.646a.9.9,0,0,1-.282.686,1.042,1.042,0,0,1-.746.267,1.042,1.042,0,0,1-.746-.267A.9.9,0,0,1,91.939-8.646Zm6.316,7.293a1.2,1.2,0,0,0,.825-.279.979.979,0,0,0,.33-.743h1.72a2.353,2.353,0,0,1-.381,1.279,2.513,2.513,0,0,1-1.025.9,3.208,3.208,0,0,1-1.438.321,2.982,2.982,0,0,1-2.323-.936A3.705,3.705,0,0,1,95.113-3.4v-.121a3.663,3.663,0,0,1,.844-2.533A2.947,2.947,0,0,1,98.274-7a2.889,2.889,0,0,1,2.066.733,2.6,2.6,0,0,1,.79,1.952h-1.72a1.261,1.261,0,0,0-.33-.871,1.1,1.1,0,0,0-.838-.335,1.1,1.1,0,0,0-.968.467,2.708,2.708,0,0,0-.327,1.516v.191a2.742,2.742,0,0,0,.324,1.526A1.119,1.119,0,0,0,98.255-1.352ZM106.158,0a2.037,2.037,0,0,1-.184-.616,2.22,2.22,0,0,1-1.733.743,2.439,2.439,0,0,1-1.673-.584,1.878,1.878,0,0,1-.663-1.473,1.941,1.941,0,0,1,.809-1.676,3.994,3.994,0,0,1,2.339-.59h.844v-.394a1.132,1.132,0,0,0-.244-.762.961.961,0,0,0-.771-.286,1.093,1.093,0,0,0-.727.222.755.755,0,0,0-.263.609h-1.834a1.843,1.843,0,0,1,.368-1.1,2.434,2.434,0,0,1,1.041-.8A3.794,3.794,0,0,1,104.978-7a3,3,0,0,1,2.015.638,2.232,2.232,0,0,1,.746,1.793v2.977a3.284,3.284,0,0,0,.273,1.479V0Zm-1.517-1.276a1.58,1.58,0,0,0,.749-.181,1.188,1.188,0,0,0,.508-.486V-3.123h-.686q-1.377,0-1.466.952l-.006.108a.734.734,0,0,0,.241.565A.937.937,0,0,0,104.641-1.276ZM112-1.352a1.2,1.2,0,0,0,.825-.279.979.979,0,0,0,.33-.743h1.72a2.353,2.353,0,0,1-.381,1.279,2.513,2.513,0,0,1-1.025.9,3.208,3.208,0,0,1-1.438.321,2.982,2.982,0,0,1-2.323-.936,3.705,3.705,0,0,1-.851-2.587v-.121a3.663,3.663,0,0,1,.844-2.533A2.947,2.947,0,0,1,112.023-7a2.889,2.889,0,0,1,2.066.733,2.6,2.6,0,0,1,.79,1.952h-1.72a1.261,1.261,0,0,0-.33-.871,1.1,1.1,0,0,0-.838-.335,1.1,1.1,0,0,0-.968.467,2.708,2.708,0,0,0-.327,1.516v.191a2.742,2.742,0,0,0,.324,1.526A1.119,1.119,0,0,0,112-1.352ZM117.863,0h-1.841V-6.868h1.841Zm-1.949-8.646a.9.9,0,0,1,.276-.679,1.037,1.037,0,0,1,.752-.267,1.04,1.04,0,0,1,.749.267.9.9,0,0,1,.279.679.9.9,0,0,1-.282.686,1.042,1.042,0,0,1-.746.267,1.042,1.042,0,0,1-.746-.267A.9.9,0,0,1,115.915-8.646ZM119.088-3.5a4.073,4.073,0,0,1,.394-1.822,2.881,2.881,0,0,1,1.133-1.238A3.306,3.306,0,0,1,122.332-7a3.127,3.127,0,0,1,2.269.851,3.414,3.414,0,0,1,.981,2.311l.013.47a3.59,3.59,0,0,1-.882,2.536,3.067,3.067,0,0,1-2.368.955,3.082,3.082,0,0,1-2.371-.952,3.653,3.653,0,0,1-.885-2.59Zm1.834.13a2.567,2.567,0,0,0,.368,1.5,1.215,1.215,0,0,0,1.054.518,1.217,1.217,0,0,0,1.041-.512A2.809,2.809,0,0,0,123.76-3.5a2.542,2.542,0,0,0-.375-1.488,1.217,1.217,0,0,0-1.054-.528,1.2,1.2,0,0,0-1.041.524A2.857,2.857,0,0,0,120.923-3.367Zm1.771-6.383h2l-1.758,1.968h-1.492Zm5.719,2.882.057.793A2.4,2.4,0,0,1,130.444-7a1.993,1.993,0,0,1,1.625.641,2.991,2.991,0,0,1,.546,1.917V0h-1.834V-4.393a1.19,1.19,0,0,0-.254-.847,1.137,1.137,0,0,0-.844-.263,1.262,1.262,0,0,0-1.162.66V0h-1.834V-6.868Z" transform="translate(1309.676 16757)" fill="#12263f"/>
      <path id="Trazado_194448" data-name="Trazado 194448" d="M7.82-9.242v6.087a3.117,3.117,0,0,1-.949,2.4A3.659,3.659,0,0,1,4.278.127,3.7,3.7,0,0,1,1.708-.73,3.063,3.063,0,0,1,.736-3.085V-9.242h1.9v6.1a1.761,1.761,0,0,0,.435,1.323,1.669,1.669,0,0,0,1.2.416q1.606,0,1.631-1.688V-9.242ZM12.981-1.9a.591.591,0,0,0-.333-.53,3.785,3.785,0,0,0-1.07-.346q-2.45-.514-2.45-2.082a1.887,1.887,0,0,1,.759-1.527A3.06,3.06,0,0,1,11.87-7a3.293,3.293,0,0,1,2.092.616,1.94,1.94,0,0,1,.784,1.6H12.911a.888.888,0,0,0-.254-.651,1.075,1.075,0,0,0-.793-.257,1.1,1.1,0,0,0-.717.209.661.661,0,0,0-.254.533.565.565,0,0,0,.289.492,2.971,2.971,0,0,0,.974.324,7.959,7.959,0,0,1,1.155.308,1.9,1.9,0,0,1,1.454,1.847,1.792,1.792,0,0,1-.806,1.52,3.478,3.478,0,0,1-2.082.581,3.632,3.632,0,0,1-1.533-.308,2.572,2.572,0,0,1-1.051-.844,1.962,1.962,0,0,1-.381-1.158h1.739a.958.958,0,0,0,.362.749,1.435,1.435,0,0,0,.9.26,1.328,1.328,0,0,0,.8-.2A.622.622,0,0,0,12.981-1.9ZM15.66-3.5a4.073,4.073,0,0,1,.394-1.822,2.881,2.881,0,0,1,1.133-1.238A3.306,3.306,0,0,1,18.9-7a3.127,3.127,0,0,1,2.269.851,3.414,3.414,0,0,1,.981,2.311l.013.47a3.59,3.59,0,0,1-.882,2.536,3.067,3.067,0,0,1-2.368.955,3.082,3.082,0,0,1-2.371-.952,3.653,3.653,0,0,1-.885-2.59Zm1.834.13a2.567,2.567,0,0,0,.368,1.5,1.215,1.215,0,0,0,1.054.518,1.217,1.217,0,0,0,1.041-.512A2.809,2.809,0,0,0,20.332-3.5a2.542,2.542,0,0,0-.375-1.488A1.217,1.217,0,0,0,18.9-5.516a1.2,1.2,0,0,0-1.041.524A2.857,2.857,0,0,0,17.494-3.367Zm11.9,2.015a1.2,1.2,0,0,0,.825-.279.979.979,0,0,0,.33-.743h1.72a2.353,2.353,0,0,1-.381,1.279,2.513,2.513,0,0,1-1.025.9,3.208,3.208,0,0,1-1.438.321A2.982,2.982,0,0,1,27.1-.809,3.705,3.705,0,0,1,26.248-3.4v-.121a3.663,3.663,0,0,1,.844-2.533A2.947,2.947,0,0,1,29.409-7a2.889,2.889,0,0,1,2.066.733,2.6,2.6,0,0,1,.79,1.952h-1.72a1.261,1.261,0,0,0-.33-.871,1.1,1.1,0,0,0-.838-.335,1.1,1.1,0,0,0-.968.467,2.708,2.708,0,0,0-.327,1.516v.191a2.742,2.742,0,0,0,.324,1.526A1.119,1.119,0,0,0,29.39-1.352ZM33.027-3.5a4.073,4.073,0,0,1,.394-1.822,2.881,2.881,0,0,1,1.133-1.238A3.306,3.306,0,0,1,36.271-7a3.128,3.128,0,0,1,2.269.851,3.414,3.414,0,0,1,.981,2.311l.013.47a3.59,3.59,0,0,1-.882,2.536,3.067,3.067,0,0,1-2.368.955,3.082,3.082,0,0,1-2.371-.952,3.653,3.653,0,0,1-.885-2.59Zm1.834.13a2.567,2.567,0,0,0,.368,1.5,1.215,1.215,0,0,0,1.054.518,1.217,1.217,0,0,0,1.041-.512A2.809,2.809,0,0,0,37.7-3.5a2.542,2.542,0,0,0-.375-1.488,1.217,1.217,0,0,0-1.054-.528,1.2,1.2,0,0,0-1.041.524A2.857,2.857,0,0,0,34.861-3.367Zm7.522-3.5.057.768A2.414,2.414,0,0,1,44.415-7a1.832,1.832,0,0,1,1.822,1.047A2.358,2.358,0,0,1,48.3-7a2.049,2.049,0,0,1,1.663.651,2.991,2.991,0,0,1,.546,1.958V0H48.667V-4.38a1.308,1.308,0,0,0-.229-.854,1.013,1.013,0,0,0-.806-.27,1.145,1.145,0,0,0-1.143.787L46.5,0H44.662V-4.374a1.292,1.292,0,0,0-.235-.863,1.023,1.023,0,0,0-.8-.267,1.189,1.189,0,0,0-1.13.647V0H40.663V-6.868ZM58.1-3.371a4.119,4.119,0,0,1-.72,2.542,2.31,2.31,0,0,1-1.946.955A2.14,2.14,0,0,1,53.752-.6V2.641H51.917V-6.868h1.7l.063.673A2.156,2.156,0,0,1,55.421-7a2.326,2.326,0,0,1,1.974.939,4.231,4.231,0,0,1,.7,2.59ZM56.266-3.5a2.7,2.7,0,0,0-.34-1.479,1.106,1.106,0,0,0-.987-.521,1.2,1.2,0,0,0-1.187.66v2.812a1.222,1.222,0,0,0,1.2.679Q56.266-1.352,56.266-3.5ZM63.216,0a2.037,2.037,0,0,1-.184-.616A2.22,2.22,0,0,1,61.3.127a2.439,2.439,0,0,1-1.673-.584,1.878,1.878,0,0,1-.663-1.473,1.941,1.941,0,0,1,.809-1.676,3.994,3.994,0,0,1,2.339-.59h.844v-.394a1.132,1.132,0,0,0-.244-.762.961.961,0,0,0-.771-.286,1.093,1.093,0,0,0-.727.222.755.755,0,0,0-.263.609H59.116a1.843,1.843,0,0,1,.368-1.1,2.434,2.434,0,0,1,1.041-.8A3.794,3.794,0,0,1,62.036-7a3,3,0,0,1,2.015.638A2.232,2.232,0,0,1,64.8-4.564v2.977A3.284,3.284,0,0,0,65.07-.108V0ZM61.7-1.276a1.58,1.58,0,0,0,.749-.181,1.188,1.188,0,0,0,.508-.486V-3.123h-.686q-1.377,0-1.466.952l-.006.108a.734.734,0,0,0,.241.565A.937.937,0,0,0,61.7-1.276Zm8.366-3.872a4.984,4.984,0,0,0-.66-.051,1.344,1.344,0,0,0-1.365.7V0H66.206V-6.868h1.733l.051.819A1.7,1.7,0,0,1,69.52-7a1.922,1.922,0,0,1,.571.083Zm3.4-3.409v1.688h1.174v1.346H73.461v3.428a.818.818,0,0,0,.146.546.733.733,0,0,0,.559.165,2.925,2.925,0,0,0,.54-.044v1.39a3.777,3.777,0,0,1-1.111.165,1.752,1.752,0,0,1-1.968-1.949v-3.7h-1V-6.868h1V-8.557ZM77.594,0H75.753V-6.868h1.841ZM75.645-8.646a.9.9,0,0,1,.276-.679,1.037,1.037,0,0,1,.752-.267,1.04,1.04,0,0,1,.749.267.9.9,0,0,1,.279.679.9.9,0,0,1-.282.686,1.042,1.042,0,0,1-.746.267,1.042,1.042,0,0,1-.746-.267A.9.9,0,0,1,75.645-8.646Zm3.174,5.161a4.139,4.139,0,0,1,.72-2.558A2.338,2.338,0,0,1,81.51-7a2.1,2.1,0,0,1,1.657.749v-3.5h1.841V0H83.351l-.089-.73A2.159,2.159,0,0,1,81.5.127a2.331,2.331,0,0,1-1.946-.955A4.272,4.272,0,0,1,78.819-3.485Zm1.834.137a2.711,2.711,0,0,0,.336,1.481,1.1,1.1,0,0,0,.978.515,1.227,1.227,0,0,0,1.2-.718V-4.785A1.21,1.21,0,0,0,81.98-5.5Q80.653-5.5,80.653-3.348ZM86.144-3.5a4.073,4.073,0,0,1,.394-1.822,2.881,2.881,0,0,1,1.133-1.238A3.306,3.306,0,0,1,89.388-7a3.127,3.127,0,0,1,2.269.851,3.414,3.414,0,0,1,.981,2.311l.013.47a3.59,3.59,0,0,1-.882,2.536A3.067,3.067,0,0,1,89.4.127,3.082,3.082,0,0,1,87.03-.825a3.653,3.653,0,0,1-.885-2.59Zm1.834.13a2.567,2.567,0,0,0,.368,1.5,1.215,1.215,0,0,0,1.054.518,1.217,1.217,0,0,0,1.041-.512A2.809,2.809,0,0,0,90.816-3.5a2.542,2.542,0,0,0-.375-1.488,1.217,1.217,0,0,0-1.054-.528,1.2,1.2,0,0,0-1.041.524A2.857,2.857,0,0,0,87.979-3.367Zm8.753-.118a4.139,4.139,0,0,1,.72-2.558A2.338,2.338,0,0,1,99.423-7a2.1,2.1,0,0,1,1.657.749v-3.5h1.841V0h-1.657l-.089-.73a2.159,2.159,0,0,1-1.765.857,2.331,2.331,0,0,1-1.946-.955A4.272,4.272,0,0,1,96.732-3.485Zm1.834.137A2.711,2.711,0,0,0,98.9-1.867a1.1,1.1,0,0,0,.978.515,1.227,1.227,0,0,0,1.2-.718V-4.785A1.21,1.21,0,0,0,99.893-5.5Q98.566-5.5,98.566-3.348ZM107.5.127a3.372,3.372,0,0,1-2.46-.927,3.294,3.294,0,0,1-.949-2.469v-.178a4.149,4.149,0,0,1,.4-1.85,2.935,2.935,0,0,1,1.133-1.257A3.18,3.18,0,0,1,107.3-7a2.85,2.85,0,0,1,2.219.889,3.611,3.611,0,0,1,.809,2.52v.749h-4.374a1.7,1.7,0,0,0,.536,1.079,1.621,1.621,0,0,0,1.133.406,1.98,1.98,0,0,0,1.657-.768l.9,1.009a2.754,2.754,0,0,1-1.117.911A3.665,3.665,0,0,1,107.5.127Zm-.209-5.643a1.146,1.146,0,0,0-.885.37,1.915,1.915,0,0,0-.435,1.058h2.552v-.147a1.366,1.366,0,0,0-.33-.947A1.183,1.183,0,0,0,107.294-5.516Zm11.172.368a4.984,4.984,0,0,0-.66-.051,1.344,1.344,0,0,0-1.365.7V0h-1.834V-6.868h1.733l.051.819A1.7,1.7,0,0,1,117.92-7a1.922,1.922,0,0,1,.571.083ZM118.39-.9a.924.924,0,0,1,.3-.711,1.047,1.047,0,0,1,.74-.273,1.056,1.056,0,0,1,.746.273.924.924,0,0,1,.3.711.911.911,0,0,1-.292.7,1.06,1.06,0,0,1-.749.27,1.052,1.052,0,0,1-.743-.27A.911.911,0,0,1,118.39-.9Zm3,0a.924.924,0,0,1,.3-.711,1.047,1.047,0,0,1,.74-.273,1.056,1.056,0,0,1,.746.273.924.924,0,0,1,.3.711.911.911,0,0,1-.292.7,1.06,1.06,0,0,1-.749.27,1.052,1.052,0,0,1-.743-.27A.911.911,0,0,1,121.393-.9Zm2.945,0a.924.924,0,0,1,.3-.711,1.047,1.047,0,0,1,.74-.273,1.056,1.056,0,0,1,.746.273.924.924,0,0,1,.3.711.911.911,0,0,1-.292.7,1.06,1.06,0,0,1-.749.27,1.052,1.052,0,0,1-.743-.27A.911.911,0,0,1,124.338-.9Z" transform="translate(1313.676 16886)" fill="#12263f"/>
      <path id="Trazado_194449" data-name="Trazado 194449" d="M2.85,0H.946V-9.242h1.9ZM6.183-6.868l.057.793A2.4,2.4,0,0,1,8.214-7a1.993,1.993,0,0,1,1.625.641,2.991,2.991,0,0,1,.546,1.917V0H8.55V-4.393A1.19,1.19,0,0,0,8.3-5.24,1.137,1.137,0,0,0,7.452-5.5a1.262,1.262,0,0,0-1.162.66V0H4.456V-6.868ZM12.276,0V-5.522H11.254V-6.868h1.022v-.584a2.371,2.371,0,0,1,.663-1.793A2.569,2.569,0,0,1,14.8-9.883a4.289,4.289,0,0,1,.933.127L15.71-8.334a2.339,2.339,0,0,0-.559-.057q-1.035,0-1.035.971v.552h1.365v1.346H14.117V0Zm8.017-5.148a4.984,4.984,0,0,0-.66-.051,1.344,1.344,0,0,0-1.365.7V0H16.434V-6.868h1.733l.051.819A1.7,1.7,0,0,1,19.748-7a1.922,1.922,0,0,1,.571.083ZM24.965,0a2.037,2.037,0,0,1-.184-.616,2.22,2.22,0,0,1-1.733.743,2.439,2.439,0,0,1-1.673-.584,1.878,1.878,0,0,1-.663-1.473,1.941,1.941,0,0,1,.809-1.676,3.994,3.994,0,0,1,2.339-.59h.844v-.394a1.132,1.132,0,0,0-.244-.762.961.961,0,0,0-.771-.286,1.093,1.093,0,0,0-.727.222.755.755,0,0,0-.263.609H20.865a1.843,1.843,0,0,1,.368-1.1,2.434,2.434,0,0,1,1.041-.8A3.794,3.794,0,0,1,23.785-7a3,3,0,0,1,2.015.638,2.232,2.232,0,0,1,.746,1.793v2.977a3.284,3.284,0,0,0,.273,1.479V0ZM23.448-1.276a1.58,1.58,0,0,0,.749-.181,1.188,1.188,0,0,0,.508-.486V-3.123H24.02q-1.377,0-1.466.952l-.006.108a.734.734,0,0,0,.241.565A.937.937,0,0,0,23.448-1.276Zm7.668,1.4A3.372,3.372,0,0,1,28.656-.8a3.294,3.294,0,0,1-.949-2.469v-.178a4.149,4.149,0,0,1,.4-1.85A2.935,2.935,0,0,1,29.24-6.554,3.18,3.18,0,0,1,30.913-7a2.85,2.85,0,0,1,2.219.889,3.611,3.611,0,0,1,.809,2.52v.749H29.567A1.7,1.7,0,0,0,30.1-1.758a1.621,1.621,0,0,0,1.133.406,1.98,1.98,0,0,0,1.657-.768l.9,1.009A2.754,2.754,0,0,1,32.678-.2,3.665,3.665,0,0,1,31.116.127Zm-.209-5.643a1.146,1.146,0,0,0-.885.37,1.915,1.915,0,0,0-.435,1.058h2.552v-.147a1.366,1.366,0,0,0-.33-.947A1.183,1.183,0,0,0,30.907-5.516ZM38.7-1.9a.591.591,0,0,0-.333-.53,3.785,3.785,0,0,0-1.07-.346q-2.45-.514-2.45-2.082a1.887,1.887,0,0,1,.759-1.527A3.06,3.06,0,0,1,37.591-7a3.293,3.293,0,0,1,2.092.616,1.94,1.94,0,0,1,.784,1.6H38.632a.888.888,0,0,0-.254-.651,1.075,1.075,0,0,0-.793-.257,1.1,1.1,0,0,0-.717.209.661.661,0,0,0-.254.533.565.565,0,0,0,.289.492,2.971,2.971,0,0,0,.974.324,7.959,7.959,0,0,1,1.155.308,1.9,1.9,0,0,1,1.454,1.847,1.792,1.792,0,0,1-.806,1.52A3.478,3.478,0,0,1,37.6.127a3.632,3.632,0,0,1-1.533-.308,2.572,2.572,0,0,1-1.051-.844,1.962,1.962,0,0,1-.381-1.158h1.739a.958.958,0,0,0,.362.749,1.435,1.435,0,0,0,.9.26,1.328,1.328,0,0,0,.8-.2A.622.622,0,0,0,38.7-1.9Zm5.161-6.659v1.688h1.174v1.346H43.862v3.428a.818.818,0,0,0,.146.546.733.733,0,0,0,.559.165,2.925,2.925,0,0,0,.54-.044v1.39A3.777,3.777,0,0,1,44,.127a1.752,1.752,0,0,1-1.968-1.949v-3.7h-1V-6.868h1V-8.557Zm6.056,3.409a4.984,4.984,0,0,0-.66-.051,1.344,1.344,0,0,0-1.365.7V0H46.059V-6.868h1.733l.051.819A1.7,1.7,0,0,1,49.372-7a1.922,1.922,0,0,1,.571.083Zm5,4.45a2.3,2.3,0,0,1-1.879.825,2.17,2.17,0,0,1-1.685-.635,2.71,2.71,0,0,1-.594-1.86v-4.5H52.59v4.442q0,1.074.978,1.074A1.325,1.325,0,0,0,54.85-2V-6.868h1.841V0H54.964Zm6.018-.654a1.2,1.2,0,0,0,.825-.279.979.979,0,0,0,.33-.743h1.72a2.353,2.353,0,0,1-.381,1.279,2.513,2.513,0,0,1-1.025.9,3.208,3.208,0,0,1-1.438.321A2.982,2.982,0,0,1,58.64-.809,3.705,3.705,0,0,1,57.789-3.4v-.121a3.663,3.663,0,0,1,.844-2.533A2.947,2.947,0,0,1,60.95-7a2.889,2.889,0,0,1,2.066.733,2.6,2.6,0,0,1,.79,1.952h-1.72a1.261,1.261,0,0,0-.33-.871,1.1,1.1,0,0,0-.838-.335,1.1,1.1,0,0,0-.968.467,2.708,2.708,0,0,0-.327,1.516v.191a2.742,2.742,0,0,0,.324,1.526A1.119,1.119,0,0,0,60.931-1.352Zm6.119-7.2v1.688h1.174v1.346H67.05v3.428a.818.818,0,0,0,.146.546.733.733,0,0,0,.559.165,2.925,2.925,0,0,0,.54-.044v1.39a3.777,3.777,0,0,1-1.111.165,1.752,1.752,0,0,1-1.968-1.949v-3.7h-1V-6.868h1V-8.557ZM73.36-.7a2.3,2.3,0,0,1-1.879.825A2.17,2.17,0,0,1,69.8-.508a2.71,2.71,0,0,1-.594-1.86v-4.5h1.834v4.442q0,1.074.978,1.074A1.325,1.325,0,0,0,73.3-2V-6.868h1.841V0H73.411Zm7.021-4.45a4.984,4.984,0,0,0-.66-.051,1.344,1.344,0,0,0-1.365.7V0H76.521V-6.868h1.733l.051.819A1.7,1.7,0,0,1,79.834-7a1.922,1.922,0,0,1,.571.083ZM85.052,0a2.037,2.037,0,0,1-.184-.616,2.22,2.22,0,0,1-1.733.743,2.439,2.439,0,0,1-1.673-.584A1.878,1.878,0,0,1,80.8-1.93a1.941,1.941,0,0,1,.809-1.676,3.994,3.994,0,0,1,2.339-.59h.844v-.394a1.132,1.132,0,0,0-.244-.762.961.961,0,0,0-.771-.286,1.093,1.093,0,0,0-.727.222.755.755,0,0,0-.263.609H80.952a1.843,1.843,0,0,1,.368-1.1,2.434,2.434,0,0,1,1.041-.8A3.794,3.794,0,0,1,83.872-7a3,3,0,0,1,2.015.638,2.232,2.232,0,0,1,.746,1.793v2.977a3.284,3.284,0,0,0,.273,1.479V0ZM83.535-1.276a1.58,1.58,0,0,0,.749-.181,1.188,1.188,0,0,0,.508-.486V-3.123h-.686q-1.377,0-1.466.952l-.006.108a.734.734,0,0,0,.241.565A.937.937,0,0,0,83.535-1.276Z" transform="translate(1333.676 16950.771)" fill="#12263f"/>
      <path id="Trazado_194447" data-name="Trazado 194447" d="M2.729-3.256V0H.825V-9.242H4.431a4.171,4.171,0,0,1,1.831.381A2.807,2.807,0,0,1,7.478-7.779a3.018,3.018,0,0,1,.425,1.6,2.654,2.654,0,0,1-.93,2.142A3.873,3.873,0,0,1,4.4-3.256Zm0-1.542h1.7a1.673,1.673,0,0,0,1.152-.355,1.293,1.293,0,0,0,.4-1.016,1.524,1.524,0,0,0-.4-1.1,1.494,1.494,0,0,0-1.1-.432H2.729Zm8.3,4.8H9.185V-9.75h1.841Zm5.491,0a2.037,2.037,0,0,1-.184-.616A2.22,2.22,0,0,1,14.6.127a2.439,2.439,0,0,1-1.673-.584,1.878,1.878,0,0,1-.663-1.473,1.941,1.941,0,0,1,.809-1.676,3.994,3.994,0,0,1,2.339-.59h.844v-.394a1.132,1.132,0,0,0-.244-.762.961.961,0,0,0-.771-.286,1.093,1.093,0,0,0-.727.222.755.755,0,0,0-.263.609H12.416a1.843,1.843,0,0,1,.368-1.1,2.434,2.434,0,0,1,1.041-.8A3.794,3.794,0,0,1,15.336-7a3,3,0,0,1,2.015.638A2.232,2.232,0,0,1,18.1-4.564v2.977A3.284,3.284,0,0,0,18.37-.108V0ZM15-1.276a1.58,1.58,0,0,0,.749-.181,1.188,1.188,0,0,0,.508-.486V-3.123h-.686q-1.377,0-1.466.952l-.006.108a.734.734,0,0,0,.241.565A.937.937,0,0,0,15-1.276Zm6.7-7.281v1.688h1.174v1.346H21.7v3.428a.818.818,0,0,0,.146.546.733.733,0,0,0,.559.165,2.925,2.925,0,0,0,.54-.044v1.39a3.777,3.777,0,0,1-1.111.165,1.752,1.752,0,0,1-1.968-1.949v-3.7h-1V-6.868h1V-8.557ZM27.879,0a2.037,2.037,0,0,1-.184-.616,2.22,2.22,0,0,1-1.733.743,2.439,2.439,0,0,1-1.673-.584,1.878,1.878,0,0,1-.663-1.473,1.941,1.941,0,0,1,.809-1.676,3.994,3.994,0,0,1,2.339-.59h.844v-.394a1.132,1.132,0,0,0-.244-.762.961.961,0,0,0-.771-.286,1.093,1.093,0,0,0-.727.222.755.755,0,0,0-.263.609H23.778a1.843,1.843,0,0,1,.368-1.1,2.434,2.434,0,0,1,1.041-.8A3.794,3.794,0,0,1,26.7-7a3,3,0,0,1,2.015.638,2.232,2.232,0,0,1,.746,1.793v2.977a3.284,3.284,0,0,0,.273,1.479V0ZM26.362-1.276a1.58,1.58,0,0,0,.749-.181,1.188,1.188,0,0,0,.508-.486V-3.123h-.686q-1.377,0-1.466.952l-.006.108A.734.734,0,0,0,25.7-1.5.937.937,0,0,0,26.362-1.276ZM31.37,0V-5.522H30.348V-6.868H31.37v-.584a2.371,2.371,0,0,1,.663-1.793,2.569,2.569,0,0,1,1.857-.638,4.289,4.289,0,0,1,.933.127L34.8-8.334a2.339,2.339,0,0,0-.559-.057q-1.035,0-1.035.971v.552h1.365v1.346H33.211V0Zm3.872-3.5a4.073,4.073,0,0,1,.394-1.822,2.881,2.881,0,0,1,1.133-1.238A3.306,3.306,0,0,1,38.486-7a3.128,3.128,0,0,1,2.269.851,3.414,3.414,0,0,1,.981,2.311l.013.47a3.59,3.59,0,0,1-.882,2.536A3.067,3.067,0,0,1,38.5.127a3.082,3.082,0,0,1-2.371-.952,3.653,3.653,0,0,1-.885-2.59Zm1.834.13a2.567,2.567,0,0,0,.368,1.5,1.215,1.215,0,0,0,1.054.518,1.217,1.217,0,0,0,1.041-.512A2.809,2.809,0,0,0,39.914-3.5a2.542,2.542,0,0,0-.375-1.488,1.217,1.217,0,0,0-1.054-.528,1.2,1.2,0,0,0-1.041.524A2.857,2.857,0,0,0,37.077-3.367Zm9.661-1.781a4.984,4.984,0,0,0-.66-.051,1.344,1.344,0,0,0-1.365.7V0H42.878V-6.868h1.733l.051.819A1.7,1.7,0,0,1,46.192-7a1.922,1.922,0,0,1,.571.083Zm2.6-1.72L49.4-6.1A2.414,2.414,0,0,1,51.372-7a1.832,1.832,0,0,1,1.822,1.047A2.358,2.358,0,0,1,55.256-7a2.049,2.049,0,0,1,1.663.651,2.991,2.991,0,0,1,.546,1.958V0H55.625V-4.38a1.308,1.308,0,0,0-.229-.854,1.013,1.013,0,0,0-.806-.27,1.145,1.145,0,0,0-1.143.787L53.454,0H51.619V-4.374a1.292,1.292,0,0,0-.235-.863,1.023,1.023,0,0,0-.8-.267,1.189,1.189,0,0,0-1.13.647V0H47.62V-6.868ZM62.854,0a2.037,2.037,0,0,1-.184-.616,2.22,2.22,0,0,1-1.733.743,2.439,2.439,0,0,1-1.673-.584A1.878,1.878,0,0,1,58.6-1.93a1.941,1.941,0,0,1,.809-1.676A3.994,3.994,0,0,1,61.75-4.2h.844v-.394a1.132,1.132,0,0,0-.244-.762.961.961,0,0,0-.771-.286,1.093,1.093,0,0,0-.727.222.755.755,0,0,0-.263.609H58.754a1.843,1.843,0,0,1,.368-1.1,2.434,2.434,0,0,1,1.041-.8A3.794,3.794,0,0,1,61.674-7a3,3,0,0,1,2.015.638,2.232,2.232,0,0,1,.746,1.793v2.977a3.284,3.284,0,0,0,.273,1.479V0ZM61.337-1.276a1.58,1.58,0,0,0,.749-.181,1.188,1.188,0,0,0,.508-.486V-3.123h-.686q-1.377,0-1.466.952l-.006.108a.734.734,0,0,0,.241.565A.937.937,0,0,0,61.337-1.276ZM69.564-1.9a.591.591,0,0,0-.333-.53,3.785,3.785,0,0,0-1.07-.346q-2.45-.514-2.45-2.082a1.887,1.887,0,0,1,.759-1.527A3.06,3.06,0,0,1,68.453-7a3.293,3.293,0,0,1,2.092.616,1.94,1.94,0,0,1,.784,1.6H69.494a.888.888,0,0,0-.254-.651,1.075,1.075,0,0,0-.793-.257,1.1,1.1,0,0,0-.717.209.661.661,0,0,0-.254.533.565.565,0,0,0,.289.492,2.971,2.971,0,0,0,.974.324,7.958,7.958,0,0,1,1.155.308,1.9,1.9,0,0,1,1.454,1.847,1.792,1.792,0,0,1-.806,1.52,3.478,3.478,0,0,1-2.082.581,3.632,3.632,0,0,1-1.533-.308,2.572,2.572,0,0,1-1.051-.844A1.962,1.962,0,0,1,65.5-2.184h1.739a.958.958,0,0,0,.362.749,1.435,1.435,0,0,0,.9.26,1.328,1.328,0,0,0,.8-.2A.622.622,0,0,0,69.564-1.9ZM75.48-3.485a4.139,4.139,0,0,1,.72-2.558A2.338,2.338,0,0,1,78.171-7a2.1,2.1,0,0,1,1.657.749v-3.5h1.841V0H80.012l-.089-.73a2.159,2.159,0,0,1-1.765.857,2.331,2.331,0,0,1-1.946-.955A4.272,4.272,0,0,1,75.48-3.485Zm1.834.137a2.711,2.711,0,0,0,.336,1.481,1.1,1.1,0,0,0,.978.515,1.227,1.227,0,0,0,1.2-.718V-4.785A1.21,1.21,0,0,0,78.641-5.5Q77.314-5.5,77.314-3.348ZM86.252.127A3.372,3.372,0,0,1,83.792-.8a3.294,3.294,0,0,1-.949-2.469v-.178a4.149,4.149,0,0,1,.4-1.85,2.935,2.935,0,0,1,1.133-1.257A3.18,3.18,0,0,1,86.049-7a2.85,2.85,0,0,1,2.219.889,3.611,3.611,0,0,1,.809,2.52v.749H84.7a1.7,1.7,0,0,0,.536,1.079,1.621,1.621,0,0,0,1.133.406,1.98,1.98,0,0,0,1.657-.768l.9,1.009A2.754,2.754,0,0,1,87.813-.2,3.665,3.665,0,0,1,86.252.127Zm-.209-5.643a1.146,1.146,0,0,0-.885.37,1.915,1.915,0,0,0-.435,1.058h2.552v-.147a1.366,1.366,0,0,0-.33-.947A1.183,1.183,0,0,0,86.042-5.516Zm7.027,2.031a4.139,4.139,0,0,1,.72-2.558A2.338,2.338,0,0,1,95.761-7a2.1,2.1,0,0,1,1.657.749v-3.5h1.841V0H97.6l-.089-.73a2.159,2.159,0,0,1-1.765.857A2.331,2.331,0,0,1,93.8-.828,4.272,4.272,0,0,1,93.069-3.485Zm1.834.137a2.711,2.711,0,0,0,.336,1.481,1.1,1.1,0,0,0,.978.515,1.227,1.227,0,0,0,1.2-.718V-4.785A1.21,1.21,0,0,0,96.23-5.5Q94.9-5.5,94.9-3.348ZM103.841.127a3.372,3.372,0,0,1-2.46-.927,3.294,3.294,0,0,1-.949-2.469v-.178a4.149,4.149,0,0,1,.4-1.85,2.935,2.935,0,0,1,1.133-1.257A3.18,3.18,0,0,1,103.638-7a2.85,2.85,0,0,1,2.219.889,3.611,3.611,0,0,1,.809,2.52v.749h-4.374a1.7,1.7,0,0,0,.536,1.079,1.621,1.621,0,0,0,1.133.406,1.98,1.98,0,0,0,1.657-.768l.9,1.009A2.754,2.754,0,0,1,105.4-.2,3.665,3.665,0,0,1,103.841.127Zm-.209-5.643a1.146,1.146,0,0,0-.885.37,1.915,1.915,0,0,0-.435,1.058h2.552v-.147a1.366,1.366,0,0,0-.33-.947A1.183,1.183,0,0,0,103.632-5.516ZM111.427-1.9a.591.591,0,0,0-.333-.53,3.785,3.785,0,0,0-1.07-.346q-2.45-.514-2.45-2.082a1.887,1.887,0,0,1,.759-1.527A3.06,3.06,0,0,1,110.316-7a3.293,3.293,0,0,1,2.092.616,1.94,1.94,0,0,1,.784,1.6h-1.834a.888.888,0,0,0-.254-.651,1.075,1.075,0,0,0-.793-.257,1.1,1.1,0,0,0-.717.209.661.661,0,0,0-.254.533.565.565,0,0,0,.289.492,2.971,2.971,0,0,0,.974.324,7.958,7.958,0,0,1,1.155.308,1.9,1.9,0,0,1,1.454,1.847,1.792,1.792,0,0,1-.806,1.52,3.478,3.478,0,0,1-2.082.581,3.632,3.632,0,0,1-1.533-.308,2.572,2.572,0,0,1-1.051-.844,1.962,1.962,0,0,1-.381-1.158H109.1a.958.958,0,0,0,.362.749,1.435,1.435,0,0,0,.9.26,1.328,1.328,0,0,0,.8-.2A.622.622,0,0,0,111.427-1.9ZM118.371,0a2.037,2.037,0,0,1-.184-.616,2.22,2.22,0,0,1-1.733.743,2.439,2.439,0,0,1-1.673-.584,1.878,1.878,0,0,1-.663-1.473,1.941,1.941,0,0,1,.809-1.676,3.994,3.994,0,0,1,2.339-.59h.844v-.394a1.132,1.132,0,0,0-.244-.762.961.961,0,0,0-.771-.286,1.093,1.093,0,0,0-.727.222.755.755,0,0,0-.263.609h-1.834a1.843,1.843,0,0,1,.368-1.1,2.434,2.434,0,0,1,1.041-.8A3.794,3.794,0,0,1,117.19-7a3,3,0,0,1,2.015.638,2.232,2.232,0,0,1,.746,1.793v2.977a3.284,3.284,0,0,0,.273,1.479V0Zm-1.517-1.276a1.58,1.58,0,0,0,.749-.181,1.188,1.188,0,0,0,.508-.486V-3.123h-.686q-1.377,0-1.466.952l-.006.108a.734.734,0,0,0,.241.565A.937.937,0,0,0,116.854-1.276Zm8.366-3.872a4.984,4.984,0,0,0-.66-.051,1.344,1.344,0,0,0-1.365.7V0h-1.834V-6.868h1.733l.051.819A1.7,1.7,0,0,1,124.674-7a1.922,1.922,0,0,1,.571.083Zm4.742,0a4.984,4.984,0,0,0-.66-.051,1.344,1.344,0,0,0-1.365.7V0H126.1V-6.868h1.733l.051.819A1.7,1.7,0,0,1,129.416-7a1.922,1.922,0,0,1,.571.083Zm.368,1.65a4.073,4.073,0,0,1,.394-1.822,2.881,2.881,0,0,1,1.133-1.238A3.306,3.306,0,0,1,133.574-7a3.128,3.128,0,0,1,2.269.851,3.414,3.414,0,0,1,.981,2.311l.013.47a3.59,3.59,0,0,1-.882,2.536,3.067,3.067,0,0,1-2.368.955,3.082,3.082,0,0,1-2.371-.952,3.653,3.653,0,0,1-.885-2.59Zm1.834.13a2.567,2.567,0,0,0,.368,1.5,1.215,1.215,0,0,0,1.054.518,1.217,1.217,0,0,0,1.041-.512A2.809,2.809,0,0,0,135-3.5a2.542,2.542,0,0,0-.375-1.488,1.217,1.217,0,0,0-1.054-.528,1.2,1.2,0,0,0-1.041.524A2.857,2.857,0,0,0,132.165-3.367ZM139.9,0h-1.841V-9.75H139.9Zm3.447,0h-1.841V-9.75h1.841Zm1.225-3.5a4.073,4.073,0,0,1,.394-1.822A2.881,2.881,0,0,1,146.1-6.557,3.306,3.306,0,0,1,147.818-7a3.128,3.128,0,0,1,2.269.851,3.414,3.414,0,0,1,.981,2.311l.013.47A3.59,3.59,0,0,1,150.2-.828a3.067,3.067,0,0,1-2.368.955,3.082,3.082,0,0,1-2.371-.952,3.653,3.653,0,0,1-.885-2.59Zm1.834.13a2.567,2.567,0,0,0,.368,1.5,1.215,1.215,0,0,0,1.054.518,1.217,1.217,0,0,0,1.041-.512,2.809,2.809,0,0,0,.375-1.637,2.542,2.542,0,0,0-.375-1.488,1.217,1.217,0,0,0-1.054-.528,1.2,1.2,0,0,0-1.041.524A2.857,2.857,0,0,0,146.409-3.367Z" transform="translate(1300.676 16821)" fill="#12263f"/>
      <g id="Grupo_151763" data-name="Grupo 151763" transform="translate(362.578 11745.171)">
        <g id="Grupo_142583" data-name="Grupo 142583" transform="translate(671.676 -9452.594)">
          <rect id="Rect치ngulo_33770" data-name="Rect치ngulo 33770" width="4" height="25" transform="translate(183 14383)" fill="#e2c140"/>
          <path id="Trazado_194445" data-name="Trazado 194445" d="M6.386-3.777H2.729V0H.825V-9.242H6.843V-7.7H2.729v2.387H6.386ZM9.763,0H7.922V-6.868H9.763ZM7.814-8.646a.9.9,0,0,1,.276-.679,1.037,1.037,0,0,1,.752-.267,1.04,1.04,0,0,1,.749.267.9.9,0,0,1,.279.679.9.9,0,0,1-.282.686,1.042,1.042,0,0,1-.746.267A1.042,1.042,0,0,1,8.1-7.96.9.9,0,0,1,7.814-8.646Zm3.193,5.161a4.025,4.025,0,0,1,.752-2.545A2.437,2.437,0,0,1,13.787-7a2.138,2.138,0,0,1,1.758.774l.076-.647h1.663v6.64a2.935,2.935,0,0,1-.409,1.568,2.629,2.629,0,0,1-1.152,1.016,4.05,4.05,0,0,1-1.739.349,3.766,3.766,0,0,1-1.473-.3,2.614,2.614,0,0,1-1.085-.778L12.238.508a2.149,2.149,0,0,0,1.663.768,1.573,1.573,0,0,0,1.136-.39,1.464,1.464,0,0,0,.406-1.108V-.59a2.122,2.122,0,0,1-1.669.717,2.431,2.431,0,0,1-2-.968,4.024,4.024,0,0,1-.765-2.568Zm1.834.137a2.506,2.506,0,0,0,.375,1.465,1.191,1.191,0,0,0,1.028.531,1.274,1.274,0,0,0,1.2-.629V-4.874A1.271,1.271,0,0,0,14.257-5.5a1.2,1.2,0,0,0-1.038.54A2.825,2.825,0,0,0,12.841-3.348ZM22.807-.7a2.3,2.3,0,0,1-1.879.825,2.17,2.17,0,0,1-1.685-.635,2.71,2.71,0,0,1-.594-1.86v-4.5h1.834v4.442q0,1.074.978,1.074A1.325,1.325,0,0,0,22.744-2V-6.868h1.841V0H22.858Zm7.021-4.45a4.984,4.984,0,0,0-.66-.051,1.344,1.344,0,0,0-1.365.7V0H25.968V-6.868H27.7l.051.819A1.7,1.7,0,0,1,29.282-7a1.922,1.922,0,0,1,.571.083ZM34.5,0a2.037,2.037,0,0,1-.184-.616,2.22,2.22,0,0,1-1.733.743A2.439,2.439,0,0,1,30.91-.457a1.878,1.878,0,0,1-.663-1.473,1.941,1.941,0,0,1,.809-1.676A3.994,3.994,0,0,1,33.4-4.2h.844v-.394a1.132,1.132,0,0,0-.244-.762.961.961,0,0,0-.771-.286,1.093,1.093,0,0,0-.727.222.755.755,0,0,0-.263.609H30.4a1.843,1.843,0,0,1,.368-1.1,2.434,2.434,0,0,1,1.041-.8A3.794,3.794,0,0,1,33.319-7a3,3,0,0,1,2.015.638,2.232,2.232,0,0,1,.746,1.793v2.977a3.284,3.284,0,0,0,.273,1.479V0ZM32.982-1.276a1.58,1.58,0,0,0,.749-.181,1.188,1.188,0,0,0,.508-.486V-3.123h-.686q-1.377,0-1.466.952l-.006.108a.734.734,0,0,0,.241.565A.937.937,0,0,0,32.982-1.276ZM45.627-9.337v1.511h-.178a3.117,3.117,0,0,0-2,.647,2.631,2.631,0,0,0-.911,1.746,2.5,2.5,0,0,1,1.86-.749,2.354,2.354,0,0,1,1.917.863,3.461,3.461,0,0,1,.711,2.272,3.4,3.4,0,0,1-.39,1.631,2.8,2.8,0,0,1-1.1,1.136,3.209,3.209,0,0,1-1.615.406A3,3,0,0,1,41.555-.889a3.942,3.942,0,0,1-.9-2.71v-.66a5.933,5.933,0,0,1,.568-2.656A4.166,4.166,0,0,1,42.856-8.7a4.78,4.78,0,0,1,2.466-.638ZM43.837-4.7a1.466,1.466,0,0,0-.806.231,1.393,1.393,0,0,0-.533.611V-3.3a2.47,2.47,0,0,0,.362,1.435,1.169,1.169,0,0,0,1.016.516,1.156,1.156,0,0,0,.955-.466A1.9,1.9,0,0,0,45.2-3.025a1.9,1.9,0,0,0-.368-1.216A1.2,1.2,0,0,0,43.837-4.7ZM48.28-.9a.924.924,0,0,1,.3-.711,1.047,1.047,0,0,1,.74-.273,1.056,1.056,0,0,1,.746.273.924.924,0,0,1,.3.711.911.911,0,0,1-.292.7,1.06,1.06,0,0,1-.749.27,1.052,1.052,0,0,1-.743-.27A.911.911,0,0,1,48.28-.9Zm8.861-8.341L60.163-1.7l3.021-7.541h1.581V0H63.546V-3.6l.114-3.885L60.626,0h-.933L56.666-7.465,56.786-3.6V0H55.567V-9.242ZM66.422-3.5a4.057,4.057,0,0,1,.4-1.815,2.96,2.96,0,0,1,1.1-1.244A3.007,3.007,0,0,1,69.539-7a2.9,2.9,0,0,1,2.269.971,3.736,3.736,0,0,1,.866,2.583v.083a4.092,4.092,0,0,1-.384,1.8,2.916,2.916,0,0,1-1.1,1.241,3.041,3.041,0,0,1-1.641.444,2.889,2.889,0,0,1-2.263-.971,3.718,3.718,0,0,1-.866-2.571Zm1.181.14a2.938,2.938,0,0,0,.53,1.834,1.7,1.7,0,0,0,1.419.692,1.686,1.686,0,0,0,1.422-.7A3.213,3.213,0,0,0,71.5-3.5a2.933,2.933,0,0,0-.536-1.831,1.705,1.705,0,0,0-1.425-.7,1.686,1.686,0,0,0-1.4.692A3.189,3.189,0,0,0,67.6-3.358Zm6.259-.133a4.023,4.023,0,0,1,.749-2.542A2.369,2.369,0,0,1,76.572-7a2.382,2.382,0,0,1,1.911.825V-9.75h1.174V0H78.578l-.057-.736a2.391,2.391,0,0,1-1.961.863,2.346,2.346,0,0,1-1.946-.978A4.069,4.069,0,0,1,73.861-3.4Zm1.174.133a3.046,3.046,0,0,0,.482,1.828,1.56,1.56,0,0,0,1.333.66,1.713,1.713,0,0,0,1.631-1V-5.027A1.726,1.726,0,0,0,76.864-6a1.567,1.567,0,0,0-1.346.667A3.354,3.354,0,0,0,75.036-3.358ZM84.329.127A3,3,0,0,1,82.056-.79a3.4,3.4,0,0,1-.876-2.453v-.216a4.121,4.121,0,0,1,.39-1.825,3.045,3.045,0,0,1,1.092-1.257A2.745,2.745,0,0,1,84.183-7a2.572,2.572,0,0,1,2.082.882,3.82,3.82,0,0,1,.743,2.526V-3.1H82.354a2.441,2.441,0,0,0,.594,1.641,1.866,1.866,0,0,0,1.444.625,2.045,2.045,0,0,0,1.054-.254,2.648,2.648,0,0,0,.755-.673l.717.559A2.884,2.884,0,0,1,84.329.127ZM84.183-6.03a1.566,1.566,0,0,0-1.193.517,2.515,2.515,0,0,0-.6,1.45h3.44v-.089a2.237,2.237,0,0,0-.482-1.387A1.475,1.475,0,0,0,84.183-6.03ZM89.642,0H88.467V-9.75h1.174Zm1.568-3.5a4.057,4.057,0,0,1,.4-1.815,2.96,2.96,0,0,1,1.1-1.244A3.007,3.007,0,0,1,94.326-7a2.9,2.9,0,0,1,2.269.971,3.736,3.736,0,0,1,.866,2.583v.083a4.092,4.092,0,0,1-.384,1.8,2.916,2.916,0,0,1-1.1,1.241,3.041,3.041,0,0,1-1.641.444,2.889,2.889,0,0,1-2.263-.971,3.718,3.718,0,0,1-.866-2.571Zm1.181.14a2.938,2.938,0,0,0,.53,1.834,1.7,1.7,0,0,0,1.419.692,1.686,1.686,0,0,0,1.422-.7A3.213,3.213,0,0,0,96.288-3.5a2.933,2.933,0,0,0-.536-1.831,1.705,1.705,0,0,0-1.425-.7,1.686,1.686,0,0,0-1.4.692A3.189,3.189,0,0,0,92.39-3.358Zm9.477-.133a4.023,4.023,0,0,1,.749-2.542A2.369,2.369,0,0,1,104.578-7a2.382,2.382,0,0,1,1.911.825V-9.75h1.174V0h-1.079l-.057-.736a2.391,2.391,0,0,1-1.961.863,2.346,2.346,0,0,1-1.946-.978,4.069,4.069,0,0,1-.752-2.552Zm1.174.133a3.046,3.046,0,0,0,.482,1.828,1.56,1.56,0,0,0,1.333.66,1.713,1.713,0,0,0,1.631-1V-5.027A1.726,1.726,0,0,0,104.87-6a1.567,1.567,0,0,0-1.346.667A3.354,3.354,0,0,0,103.042-3.358ZM112.334.127a3,3,0,0,1-2.272-.917,3.4,3.4,0,0,1-.876-2.453v-.216a4.121,4.121,0,0,1,.39-1.825,3.045,3.045,0,0,1,1.092-1.257A2.745,2.745,0,0,1,112.188-7a2.572,2.572,0,0,1,2.082.882,3.82,3.82,0,0,1,.743,2.526V-3.1H110.36a2.441,2.441,0,0,0,.594,1.641,1.866,1.866,0,0,0,1.444.625,2.045,2.045,0,0,0,1.054-.254,2.648,2.648,0,0,0,.755-.673l.717.559A2.884,2.884,0,0,1,112.334.127Zm-.146-6.157A1.566,1.566,0,0,0,111-5.513a2.515,2.515,0,0,0-.6,1.45h3.44v-.089a2.237,2.237,0,0,0-.482-1.387A1.475,1.475,0,0,0,112.188-6.03ZM119.774,0V-9.242H122.8a3.507,3.507,0,0,1,2.263.622,2.242,2.242,0,0,1,.759,1.841,1.877,1.877,0,0,1-.368,1.146,2.387,2.387,0,0,1-1,.771,2.143,2.143,0,0,1,1.184.8,2.286,2.286,0,0,1,.435,1.4,2.472,2.472,0,0,1-.806,1.955A3.334,3.334,0,0,1,122.979,0Zm1.219-4.323V-1H123a1.938,1.938,0,0,0,1.343-.441,1.549,1.549,0,0,0,.492-1.216q0-1.669-1.815-1.669Zm0-.978h1.841a1.93,1.93,0,0,0,1.279-.4,1.344,1.344,0,0,0,.479-1.088,1.321,1.321,0,0,0-.444-1.11,2.182,2.182,0,0,0-1.352-.347h-1.8ZM128.959,0h-1.174V-9.75h1.174Zm1.568-3.5a4.057,4.057,0,0,1,.4-1.815,2.959,2.959,0,0,1,1.1-1.244A3.007,3.007,0,0,1,133.644-7a2.9,2.9,0,0,1,2.269.971,3.736,3.736,0,0,1,.866,2.583v.083a4.092,4.092,0,0,1-.384,1.8,2.916,2.916,0,0,1-1.1,1.241,3.041,3.041,0,0,1-1.641.444,2.889,2.889,0,0,1-2.263-.971,3.718,3.718,0,0,1-.866-2.571Zm1.181.14a2.938,2.938,0,0,0,.53,1.834,1.7,1.7,0,0,0,1.419.692,1.686,1.686,0,0,0,1.422-.7A3.213,3.213,0,0,0,135.6-3.5a2.933,2.933,0,0,0-.536-1.831,1.705,1.705,0,0,0-1.425-.7,1.686,1.686,0,0,0-1.4.692A3.189,3.189,0,0,0,131.708-3.358Zm6.259-.133a4.031,4.031,0,0,1,.743-2.561A2.407,2.407,0,0,1,140.7-7a2.4,2.4,0,0,1,1.923.819l.051-.692h1.079V2.641h-1.174V-.635a2.465,2.465,0,0,1-1.892.762,2.369,2.369,0,0,1-1.984-.968,4.121,4.121,0,0,1-.74-2.568Zm1.174.133a3.056,3.056,0,0,0,.5,1.854,1.585,1.585,0,0,0,1.343.673,1.758,1.758,0,0,0,1.6-.927V-5.123a1.764,1.764,0,0,0-1.587-.908,1.6,1.6,0,0,0-1.352.676A3.327,3.327,0,0,0,139.141-3.358Zm10.74,2.679a2.494,2.494,0,0,1-2.012.806A2.135,2.135,0,0,1,146.2-.511a2.761,2.761,0,0,1-.581-1.888V-6.868h1.174v4.437q0,1.562,1.27,1.562a1.758,1.758,0,0,0,1.79-1v-5h1.174V0h-1.117Zm5.776.806a3,3,0,0,1-2.272-.917,3.4,3.4,0,0,1-.876-2.453v-.216a4.121,4.121,0,0,1,.39-1.825,3.045,3.045,0,0,1,1.092-1.257A2.745,2.745,0,0,1,155.511-7a2.572,2.572,0,0,1,2.082.882,3.82,3.82,0,0,1,.743,2.526V-3.1h-4.653a2.441,2.441,0,0,0,.594,1.641,1.866,1.866,0,0,0,1.444.625,2.045,2.045,0,0,0,1.054-.254,2.647,2.647,0,0,0,.755-.673l.717.559A2.884,2.884,0,0,1,155.657.127Zm-.146-6.157a1.566,1.566,0,0,0-1.193.517,2.515,2.515,0,0,0-.6,1.45h3.44v-.089a2.237,2.237,0,0,0-.482-1.387A1.475,1.475,0,0,0,155.511-6.03Zm8.182,4.208a.865.865,0,0,0-.359-.74,3.452,3.452,0,0,0-1.25-.454,5.912,5.912,0,0,1-1.416-.457,2.014,2.014,0,0,1-.774-.635,1.518,1.518,0,0,1-.251-.876,1.782,1.782,0,0,1,.714-1.428A2.789,2.789,0,0,1,162.183-7a2.87,2.87,0,0,1,1.895.6A1.915,1.915,0,0,1,164.8-4.85h-1.181a1.06,1.06,0,0,0-.409-.832,1.534,1.534,0,0,0-1.031-.349,1.605,1.605,0,0,0-1,.279.879.879,0,0,0-.362.73.712.712,0,0,0,.336.641,4.139,4.139,0,0,0,1.216.413,6.334,6.334,0,0,1,1.425.47,2.079,2.079,0,0,1,.809.657,1.615,1.615,0,0,1,.263.936,1.758,1.758,0,0,1-.736,1.476,3.089,3.089,0,0,1-1.911.555,3.459,3.459,0,0,1-1.46-.292,2.375,2.375,0,0,1-.993-.816,1.966,1.966,0,0,1-.359-1.133h1.174a1.216,1.216,0,0,0,.473.936,1.835,1.835,0,0,0,1.165.346,1.894,1.894,0,0,0,1.07-.27A.829.829,0,0,0,163.693-1.822Zm5.637-1.669a4.023,4.023,0,0,1,.749-2.542A2.369,2.369,0,0,1,172.041-7a2.382,2.382,0,0,1,1.911.825V-9.75h1.174V0h-1.079l-.057-.736a2.391,2.391,0,0,1-1.961.863,2.346,2.346,0,0,1-1.946-.978A4.069,4.069,0,0,1,169.33-3.4Zm1.174.133a3.046,3.046,0,0,0,.482,1.828,1.56,1.56,0,0,0,1.333.66,1.713,1.713,0,0,0,1.631-1V-5.027A1.726,1.726,0,0,0,172.333-6a1.567,1.567,0,0,0-1.346.667A3.354,3.354,0,0,0,170.5-3.358ZM179.8.127a3,3,0,0,1-2.272-.917,3.4,3.4,0,0,1-.876-2.453v-.216a4.121,4.121,0,0,1,.39-1.825,3.045,3.045,0,0,1,1.092-1.257A2.745,2.745,0,0,1,179.651-7a2.572,2.572,0,0,1,2.082.882,3.82,3.82,0,0,1,.743,2.526V-3.1h-4.653a2.441,2.441,0,0,0,.594,1.641,1.866,1.866,0,0,0,1.444.625,2.045,2.045,0,0,0,1.054-.254,2.647,2.647,0,0,0,.755-.673l.717.559A2.884,2.884,0,0,1,179.8.127Zm-.146-6.157a1.566,1.566,0,0,0-1.193.517,2.515,2.515,0,0,0-.6,1.45h3.44v-.089a2.237,2.237,0,0,0-.482-1.387A1.475,1.475,0,0,0,179.651-6.03Zm10.156,5.2a1.692,1.692,0,0,0,1.1-.381,1.34,1.34,0,0,0,.521-.952h1.111a2.13,2.13,0,0,1-.406,1.124,2.676,2.676,0,0,1-1,.851,2.885,2.885,0,0,1-1.323.317,2.829,2.829,0,0,1-2.231-.936,3.729,3.729,0,0,1-.828-2.561v-.2a4.135,4.135,0,0,1,.368-1.784,2.8,2.8,0,0,1,1.057-1.212A3,3,0,0,1,189.8-7a2.755,2.755,0,0,1,1.92.692,2.473,2.473,0,0,1,.816,1.8h-1.111a1.618,1.618,0,0,0-.5-1.095,1.57,1.57,0,0,0-1.12-.428,1.644,1.644,0,0,0-1.387.644,3.026,3.026,0,0,0-.492,1.863V-3.3a2.965,2.965,0,0,0,.489,1.828A1.651,1.651,0,0,0,189.808-.832Zm7.37-4.983a3.519,3.519,0,0,0-.578-.044,1.547,1.547,0,0,0-1.568.984V0h-1.174V-6.868H195l.019.793A1.829,1.829,0,0,1,196.657-7a1.2,1.2,0,0,1,.521.089ZM201.106.127a3,3,0,0,1-2.272-.917,3.4,3.4,0,0,1-.876-2.453v-.216a4.121,4.121,0,0,1,.39-1.825,3.045,3.045,0,0,1,1.092-1.257A2.745,2.745,0,0,1,200.96-7a2.572,2.572,0,0,1,2.082.882,3.82,3.82,0,0,1,.743,2.526V-3.1h-4.653a2.441,2.441,0,0,0,.594,1.641,1.866,1.866,0,0,0,1.444.625,2.045,2.045,0,0,0,1.054-.254,2.647,2.647,0,0,0,.755-.673l.717.559A2.884,2.884,0,0,1,201.106.127ZM200.96-6.03a1.566,1.566,0,0,0-1.193.517,2.515,2.515,0,0,0-.6,1.45h3.44v-.089a2.237,2.237,0,0,0-.482-1.387A1.475,1.475,0,0,0,200.96-6.03ZM209.384,0a2.467,2.467,0,0,1-.165-.724,2.62,2.62,0,0,1-1.955.851A2.424,2.424,0,0,1,205.6-.448a1.859,1.859,0,0,1-.651-1.457,1.942,1.942,0,0,1,.816-1.666,3.846,3.846,0,0,1,2.295-.594H209.2V-4.7a1.319,1.319,0,0,0-.368-.981,1.48,1.48,0,0,0-1.085-.365,1.712,1.712,0,0,0-1.054.317.935.935,0,0,0-.425.768h-1.181a1.621,1.621,0,0,1,.365-.993,2.491,2.491,0,0,1,.99-.759A3.331,3.331,0,0,1,207.816-7a2.715,2.715,0,0,1,1.86.594,2.141,2.141,0,0,1,.7,1.635v3.161a3.865,3.865,0,0,0,.241,1.5V0Zm-1.949-.9a2.064,2.064,0,0,0,1.047-.286,1.728,1.728,0,0,0,.717-.743V-3.333h-.92q-2.158,0-2.158,1.263a1.069,1.069,0,0,0,.368.863A1.415,1.415,0,0,0,207.435-.9Zm7.535.063a1.692,1.692,0,0,0,1.1-.381,1.34,1.34,0,0,0,.521-.952H217.7a2.13,2.13,0,0,1-.406,1.124,2.676,2.676,0,0,1-1,.851,2.885,2.885,0,0,1-1.323.317,2.829,2.829,0,0,1-2.231-.936,3.729,3.729,0,0,1-.828-2.561v-.2a4.135,4.135,0,0,1,.368-1.784,2.8,2.8,0,0,1,1.057-1.212A3,3,0,0,1,214.963-7a2.755,2.755,0,0,1,1.92.692,2.473,2.473,0,0,1,.816,1.8h-1.111a1.618,1.618,0,0,0-.5-1.095,1.57,1.57,0,0,0-1.12-.428,1.644,1.644,0,0,0-1.387.644,3.026,3.026,0,0,0-.492,1.863V-3.3a2.965,2.965,0,0,0,.489,1.828A1.651,1.651,0,0,0,214.97-.832ZM220.3,0h-1.174V-6.868H220.3Zm-1.27-8.69a.7.7,0,0,1,.175-.482.655.655,0,0,1,.517-.2.666.666,0,0,1,.521.2.694.694,0,0,1,.178.482.671.671,0,0,1-.178.476.678.678,0,0,1-.521.19.667.667,0,0,1-.517-.19A.678.678,0,0,1,219.026-8.69ZM221.863-3.5a4.057,4.057,0,0,1,.4-1.815,2.959,2.959,0,0,1,1.1-1.244A3.007,3.007,0,0,1,224.98-7a2.9,2.9,0,0,1,2.269.971,3.736,3.736,0,0,1,.866,2.583v.083a4.092,4.092,0,0,1-.384,1.8,2.916,2.916,0,0,1-1.1,1.241,3.041,3.041,0,0,1-1.641.444,2.889,2.889,0,0,1-2.263-.971,3.718,3.718,0,0,1-.866-2.571Zm1.181.14a2.938,2.938,0,0,0,.53,1.834,1.7,1.7,0,0,0,1.419.692,1.686,1.686,0,0,0,1.422-.7,3.213,3.213,0,0,0,.527-1.965,2.933,2.933,0,0,0-.536-1.831,1.705,1.705,0,0,0-1.425-.7,1.686,1.686,0,0,0-1.4.692A3.189,3.189,0,0,0,223.044-3.358Zm2.469-6.392h1.422l-1.7,1.866-.946,0ZM230.7-6.868l.038.863A2.5,2.5,0,0,1,232.794-7q2.177,0,2.2,2.457V0h-1.174V-4.545a1.581,1.581,0,0,0-.34-1.1A1.361,1.361,0,0,0,232.438-6a1.7,1.7,0,0,0-1,.3,2.069,2.069,0,0,0-.673.8V0h-1.174V-6.868Zm12.13,7a3,3,0,0,1-2.272-.917,3.4,3.4,0,0,1-.876-2.453v-.216a4.121,4.121,0,0,1,.39-1.825,3.045,3.045,0,0,1,1.092-1.257A2.745,2.745,0,0,1,242.684-7a2.572,2.572,0,0,1,2.082.882,3.82,3.82,0,0,1,.743,2.526V-3.1h-4.653a2.441,2.441,0,0,0,.594,1.641,1.866,1.866,0,0,0,1.444.625,2.045,2.045,0,0,0,1.054-.254,2.647,2.647,0,0,0,.755-.673l.717.559A2.884,2.884,0,0,1,242.83.127Zm-.146-6.157a1.566,1.566,0,0,0-1.193.517,2.515,2.515,0,0,0-.6,1.45h3.44v-.089a2.237,2.237,0,0,0-.482-1.387A1.475,1.475,0,0,0,242.684-6.03Zm5.294-.838.038.863A2.5,2.5,0,0,1,250.072-7q2.177,0,2.2,2.457V0h-1.174V-4.545a1.581,1.581,0,0,0-.34-1.1A1.361,1.361,0,0,0,249.717-6a1.7,1.7,0,0,0-1,.3,2.069,2.069,0,0,0-.673.8V0h-1.174V-6.868ZM258.534,0h-1.174V-9.75h1.174Zm6.119,0a2.467,2.467,0,0,1-.165-.724,2.62,2.62,0,0,1-1.955.851,2.424,2.424,0,0,1-1.666-.574,1.859,1.859,0,0,1-.651-1.457,1.942,1.942,0,0,1,.816-1.666,3.846,3.846,0,0,1,2.295-.594h1.143V-4.7a1.319,1.319,0,0,0-.368-.981,1.48,1.48,0,0,0-1.085-.365,1.712,1.712,0,0,0-1.054.317.935.935,0,0,0-.425.768h-1.181a1.621,1.621,0,0,1,.365-.993,2.491,2.491,0,0,1,.99-.759A3.331,3.331,0,0,1,263.085-7a2.715,2.715,0,0,1,1.86.594,2.141,2.141,0,0,1,.7,1.635v3.161a3.865,3.865,0,0,0,.241,1.5V0ZM262.7-.9a2.064,2.064,0,0,0,1.047-.286,1.728,1.728,0,0,0,.717-.743V-3.333h-.92q-2.158,0-2.158,1.263a1.069,1.069,0,0,0,.368.863A1.415,1.415,0,0,0,262.7-.9Zm15.285.9h-1.225l-4.653-7.122V0h-1.225V-9.242h1.225l4.666,7.154V-9.242h1.212Zm6.221-.679A2.494,2.494,0,0,1,282.2.127a2.135,2.135,0,0,1-1.673-.638,2.761,2.761,0,0,1-.581-1.888V-6.868h1.174v4.437q0,1.562,1.27,1.562a1.758,1.758,0,0,0,1.79-1v-5h1.174V0h-1.117Zm8.741-2.679a4.084,4.084,0,0,1-.724,2.53,2.312,2.312,0,0,1-1.942.955,2.394,2.394,0,0,1-2.012-.92L288.215,0h-1.079V-9.75h1.174v3.637A2.381,2.381,0,0,1,290.272-7a2.326,2.326,0,0,1,1.965.946,4.206,4.206,0,0,1,.714,2.59Zm-1.174-.133a3.173,3.173,0,0,0-.463-1.854A1.534,1.534,0,0,0,289.98-6a1.724,1.724,0,0,0-1.669,1.079v2.971A1.772,1.772,0,0,0,289.993-.87a1.526,1.526,0,0,0,1.314-.654A3.375,3.375,0,0,0,291.776-3.491Zm5.5,3.618a3,3,0,0,1-2.272-.917,3.4,3.4,0,0,1-.876-2.453v-.216a4.121,4.121,0,0,1,.39-1.825,3.045,3.045,0,0,1,1.092-1.257A2.745,2.745,0,0,1,297.134-7a2.572,2.572,0,0,1,2.082.882,3.82,3.82,0,0,1,.743,2.526V-3.1h-4.653a2.441,2.441,0,0,0,.594,1.641,1.866,1.866,0,0,0,1.444.625,2.045,2.045,0,0,0,1.054-.254,2.648,2.648,0,0,0,.755-.673l.717.559A2.884,2.884,0,0,1,297.28.127Zm-.146-6.157a1.566,1.566,0,0,0-1.193.517,2.514,2.514,0,0,0-.6,1.45h3.44v-.089a2.237,2.237,0,0,0-.482-1.387A1.475,1.475,0,0,0,297.134-6.03Z" transform="translate(198 14400)" fill="#12263f"/>
        </g>
      </g>
    </g>
  </g>
</svg>
