<svg xmlns="http://www.w3.org/2000/svg" width="364.964" height="284.359" viewBox="0 0 364.964 284.359">
  <g id="Grupo_160748" data-name="Grupo 160748" transform="translate(-1219.684 -853.053)">
    <path id="Trazado_210005" data-name="Trazado 210005" d="M1397.225,853.053c44.47,0,63.2,33.825,95.3,60.113,42.493,34.8,84.978,12.148,91.781,129.725,6.056,104.651-69.5,11.332-176.034,48.816s-215.027,52.584-182.83-68.7,68.451-169.952,171.78-169.952Zm0,0" transform="translate(0 0)" fill="#e9eef7" fill-rule="evenodd"/>
    <path id="Trazado_210006" data-name="Trazado 210006" d="M2178.925,889.827l-3.281,1.9a1.337,1.337,0,0,0-.615.813,1.315,1.315,0,0,0,.14,1.018l.783,1.355a4.961,4.961,0,0,1,.718,2.014,2.342,2.342,0,0,1-.718,2.02c-.7.622-1.4,1.346-2.087,2.065l-.125.124c-.388.409-1.56,1.633-4.137.139l-1.238-.725a1.355,1.355,0,0,0-1.018-.132,1.333,1.333,0,0,0-.821.615l-2.072,3.566a1.358,1.358,0,0,0-.124,1.01,1.335,1.335,0,0,0,.615.814l1.23.711a4.56,4.56,0,0,1,1.89,1.691,2.231,2.231,0,0,1,.088,1.874l-.146.469c-.242.828-.5,1.648-.659,2.417l-.044.219c-.257,1.363-.44,2.293-3.522,2.293h-1.414a1.351,1.351,0,0,0-1.34,1.34v4.107a1.328,1.328,0,0,0,.4.945,1.31,1.31,0,0,0,.944.4h1.414c3.082,0,3.265.938,3.522,2.292l.044.227c.168.776.41,1.589.659,2.4l.139.476a2.218,2.218,0,0,1-.08,1.882,4.549,4.549,0,0,1-1.89,1.683l-1.23.718a1.334,1.334,0,0,0-.615.813,1.317,1.317,0,0,0,.132,1.018l2.065,3.551a1.313,1.313,0,0,0,.813.622,1.342,1.342,0,0,0,1.017-.138l1.245-.718c2.577-1.5,3.756-.263,4.144.141l.125.123c.688.718,1.377,1.443,2.072,2.066a2.293,2.293,0,0,1,.725,2.02,4.96,4.96,0,0,1-.718,2.014l-.783,1.347a1.35,1.35,0,0,0,.475,1.838l3.559,2.065a1.351,1.351,0,0,0,1.831-.483l.783-1.347a4.617,4.617,0,0,1,1.472-1.633,2.512,2.512,0,0,1,2.16-.322c.74.234,1.523.432,2.343.637l.944.242a2.34,2.34,0,0,1,1.406.952,4.269,4.269,0,0,1,.637,2.534v1.443a1.347,1.347,0,0,0,.4.952,1.367,1.367,0,0,0,.945.388h4.108a1.329,1.329,0,0,0,.944-.4,1.315,1.315,0,0,0,.4-.945v-1.443a4.213,4.213,0,0,1,.645-2.534,2.329,2.329,0,0,1,1.4-.952l.952-.242c.82-.205,1.6-.4,2.343-.637a2.419,2.419,0,0,1,1.735.1,4.2,4.2,0,0,1,1.9,1.86l.776,1.347a1.362,1.362,0,0,0,1.823.492l3.566-2.073a1.336,1.336,0,0,0,.615-.82,1.356,1.356,0,0,0-.132-1.018l-.783-1.347a4.867,4.867,0,0,1-.717-2.014,2.3,2.3,0,0,1,.717-2.028c.7-.614,1.384-1.34,2.08-2.058l.117-.123c.389-.4,1.567-1.64,4.145-.141l1.245.718a1.342,1.342,0,0,0,1.017.138,1.326,1.326,0,0,0,.813-.614l2.065-3.559a1.335,1.335,0,0,0-.483-1.831l-1.223-.718a4.5,4.5,0,0,1-1.889-1.683,2.246,2.246,0,0,1-.088-1.882l.146-.483c.242-.82.491-1.64.652-2.395l.044-.227c.256-1.354.447-2.292,3.523-2.292h1.413a1.311,1.311,0,0,0,.945-.4,1.33,1.33,0,0,0,.4-.945V917.44a1.35,1.35,0,0,0-1.34-1.34h-1.413c-3.076,0-3.267-.93-3.523-2.293l-.044-.219c-.16-.762-.41-1.581-.659-2.4l-.139-.484a2.254,2.254,0,0,1,.081-1.874,4.592,4.592,0,0,1,1.9-1.691l1.223-.711a1.346,1.346,0,0,0,.622-.814,1.316,1.316,0,0,0-.139-1.018l-2.065-3.558a1.352,1.352,0,0,0-1.831-.483l-1.245.725c-2.57,1.494-3.749.27-4.137-.139l-.118-.124c-.7-.719-1.39-1.443-2.087-2.065a2.32,2.32,0,0,1-.724-2.02,4.961,4.961,0,0,1,.724-2.014l.783-1.355a1.35,1.35,0,0,0-.483-1.83l-3.552-2.064a1.346,1.346,0,0,0-1.838.474l-.783,1.348a4.107,4.107,0,0,1-1.89,1.859,2.485,2.485,0,0,1-1.743.1c-.725-.234-1.5-.432-2.314-.637l-.974-.25a2.335,2.335,0,0,1-1.406-.943,4.323,4.323,0,0,1-.637-2.542v-1.442a1.335,1.335,0,0,0-1.339-1.332h-4.108a1.323,1.323,0,0,0-.945.387,1.344,1.344,0,0,0-.4.946v1.442a4.318,4.318,0,0,1-.637,2.542,2.314,2.314,0,0,1-1.406.943l-.973.25c-.806.205-1.582.4-2.314.63a2.506,2.506,0,0,1-2.16-.315,4.585,4.585,0,0,1-1.472-1.64l-.8-1.369a1.336,1.336,0,0,0-1.816-.453Zm-4.459-.14,3.83-2.226h.037a3.624,3.624,0,0,1,2.49-.211,3.688,3.688,0,0,1,2.255,1.714l.784,1.346a2.4,2.4,0,0,0,.688.828c.11.066.161.073.183.066.908-.285,1.67-.476,2.46-.673l.952-.242c.029-.008.066-.023.073-.037a2.131,2.131,0,0,0,.2-1.172v-1.442a3.677,3.677,0,0,1,1.09-2.615,3.718,3.718,0,0,1,2.615-1.084h4.108a3.7,3.7,0,0,1,3.7,3.7v1.442a2.208,2.208,0,0,0,.2,1.172.184.184,0,0,0,.073.037l.952.242c.8.2,1.56.388,2.46.673a.293.293,0,0,0,.1-.022,2.012,2.012,0,0,0,.776-.871l.784-1.346a3.709,3.709,0,0,1,5.052-1.341l3.559,2.065a3.714,3.714,0,0,1,1.341,5.061l-.784,1.347a2.7,2.7,0,0,0-.417,1.047c-.014.081-.08.036-.058.051.8.718,1.515,1.458,2.218,2.189l.117.125c.073.072.286.292,1.259-.272l1.238-.718a3.7,3.7,0,0,1,5.06,1.34l2.064,3.552a3.711,3.711,0,0,1-1.34,5.059l-1.23.71a2.918,2.918,0,0,0-.973.718c-.022.051.051.029.081.131l.146.476c.249.835.505,1.677.7,2.614a1.522,1.522,0,0,1,.052.249c.044.22.073.365,1.208.365h1.414a3.712,3.712,0,0,1,3.7,3.706v4.107a3.7,3.7,0,0,1-3.7,3.706h-1.414c-1.135,0-1.165.154-1.208.373a1.457,1.457,0,0,1-.052.242c-.2.944-.446,1.779-.7,2.615l-.146.476c-.03.109-.1.086-.081.131a2.91,2.91,0,0,0,.973.726l1.23.709a3.713,3.713,0,0,1,1.34,5.061l-2.064,3.551a3.713,3.713,0,0,1-5.06,1.34l-1.238-.717c-.974-.57-1.186-.352-1.252-.278l-.133.139c-.7.732-1.406,1.464-2.21,2.182-.016.022.051-.022.058.05a2.853,2.853,0,0,0,.417,1.048l.784,1.347a3.708,3.708,0,0,1-1.341,5.052l-3.559,2.073a3.708,3.708,0,0,1-4.957-1.187,16.667,16.667,0,0,1-.879-1.5,1.965,1.965,0,0,0-.776-.871.168.168,0,0,0-.1-.023c-.908.286-1.677.477-2.482.682l-.93.234c-.03.008-.058.014-.073.037a2.192,2.192,0,0,0-.2,1.164v1.443a3.71,3.71,0,0,1-3.7,3.7h-4.108a3.71,3.71,0,0,1-3.705-3.7v-1.443a2.191,2.191,0,0,0-.2-1.164c-.015-.023-.044-.028-.073-.037l-.931-.234c-.8-.205-1.574-.4-2.474-.682-.023-.007-.074-.007-.191.068a2.322,2.322,0,0,0-.688.827l-.784,1.347a3.715,3.715,0,0,1-5.06,1.341l-3.552-2.073a3.691,3.691,0,0,1-1.341-5.052l.784-1.347a2.762,2.762,0,0,0,.41-1.048c0-.072.081-.028.059-.05-.805-.718-1.508-1.45-2.211-2.182l-.132-.139c-.066-.073-.278-.292-1.252.278l-1.237.717a3.7,3.7,0,0,1-5.053-1.34l-2.072-3.551a3.716,3.716,0,0,1,1.34-5.061l1.23-.709c.63-.367.907-.587.974-.726.03-.045-.051-.022-.08-.131l-.139-.476c-.256-.836-.512-1.685-.71-2.615a1.36,1.36,0,0,1-.044-.242c-.044-.219-.073-.373-1.208-.373h-1.414a3.713,3.713,0,0,1-3.7-3.706V917.44a3.726,3.726,0,0,1,3.7-3.706h1.414c1.135,0,1.164-.145,1.208-.365,0-.036.037-.212.044-.249.2-.946.453-1.787.71-2.629l.139-.461c.029-.1.11-.08.08-.131-.066-.14-.344-.352-.974-.718a15.627,15.627,0,0,1-1.384-.813,3.7,3.7,0,0,1-1.186-4.956l2.072-3.552a3.686,3.686,0,0,1,5.053-1.34l1.237.718c.974.563,1.187.344,1.26.272l.118-.125c.71-.732,1.413-1.472,2.218-2.189.022-.016-.051.029-.059-.051a2.629,2.629,0,0,0-.41-1.047l-.784-1.347a3.714,3.714,0,0,1,1.341-5.061Zm19.712,8.465a21.338,21.338,0,1,1-15.1,6.253,21.255,21.255,0,0,1,15.1-6.253Zm13.422,7.922a18.986,18.986,0,1,0,5.559,13.423,18.941,18.941,0,0,0-5.559-13.423Zm0,0" transform="translate(-730.611 -24.032)" fill="#8ca3ca" fill-rule="evenodd"/>
    <path id="Trazado_210007" data-name="Trazado 210007" d="M1702.249,1055.33H1443.763c-12.507,0-23.117,10.251-22.737,22.737l4.716,155.743c.381,12.485,10.251,22.736,22.744,22.736h249.047c12.419,0,22.363-10.237,22.737-22.736l4.723-155.743c.374-12.5-10.237-22.737-22.744-22.737Zm0,12.419H1443.763a10.25,10.25,0,0,0-10.318,10.317l4.716,155.743a10.6,10.6,0,0,0,10.325,10.318h249.047a10.527,10.527,0,0,0,10.318-10.318l4.722-155.743a10.246,10.246,0,0,0-10.324-10.317Zm0,0" transform="translate(-156.655 -157.39)" fill="#cbd5eb" fill-rule="evenodd"/>
    <path id="Trazado_210008" data-name="Trazado 210008" d="M1476.993,1121.613a10.359,10.359,0,0,1,8.253-10.105l.242-.051.256-.037.249-.036.256-.029v-.008l.264-.021.256-.016h.007l.257-.007.27-.007h258.487l.527.015h.007l.256.016.264.021.256.037.249.036a10.357,10.357,0,0,1,8.75,10.193l-4.716,155.743a10.533,10.533,0,0,1-10.324,10.318H1492.011a10.6,10.6,0,0,1-10.317-10.318Zm0,0" transform="translate(-200.21 -200.936)" fill="#e9eef7" fill-rule="evenodd"/>
    <path id="Trazado_210009" data-name="Trazado 210009" d="M1694.078,1962.079H1365.427v10.127a10.153,10.153,0,0,0,10.127,10.127h308.4a10.153,10.153,0,0,0,10.127-10.127Zm0,0" transform="translate(-113.401 -862.923)" fill="#8ca3ca" fill-rule="evenodd"/>
    <path id="Trazado_210010" data-name="Trazado 210010" d="M1806.448,1185.87h-55.571a4.774,4.774,0,0,0-4.76,4.76v24.032a4.768,4.768,0,0,0,4.76,4.754h55.571a4.768,4.768,0,0,0,4.76-4.754V1190.63a4.774,4.774,0,0,0-4.76-4.76Zm-76.85,127.559H1575.846a3.513,3.513,0,0,0-3.508,3.508v13.172a3.511,3.511,0,0,0,3.508,3.5H1729.6a3.516,3.516,0,0,0,3.507-3.5v-13.172a3.517,3.517,0,0,0-3.507-3.508Zm0-26.917H1575.846a3.517,3.517,0,0,0-3.508,3.508v13.172a3.513,3.513,0,0,0,3.508,3.507H1729.6a3.518,3.518,0,0,0,3.507-3.507V1290.02a3.521,3.521,0,0,0-3.507-3.508Zm0-26.911H1575.846a3.511,3.511,0,0,0-3.508,3.5v13.181a3.511,3.511,0,0,0,3.508,3.5H1729.6a3.516,3.516,0,0,0,3.507-3.5V1263.1a3.516,3.516,0,0,0-3.507-3.5Zm0-26.918H1575.846a3.517,3.517,0,0,0-3.508,3.507v13.173a3.517,3.517,0,0,0,3.508,3.508H1729.6a3.521,3.521,0,0,0,3.507-3.508v-13.173a3.521,3.521,0,0,0-3.507-3.507Zm-.755-46.813H1572.134a4.774,4.774,0,0,0-4.76,4.76v24.032a4.768,4.768,0,0,0,4.76,4.754h156.709a4.768,4.768,0,0,0,4.76-4.754V1190.63a4.774,4.774,0,0,0-4.76-4.76Zm72.135,43.057h-46.63a9.261,9.261,0,0,0-9.227,9.235v81.425a9.253,9.253,0,0,0,9.227,9.226h46.63a9.253,9.253,0,0,0,9.226-9.226v-81.425a9.26,9.26,0,0,0-9.226-9.235Zm0,0" transform="translate(-270.534 -258.962)" fill="#fff" fill-rule="evenodd"/>
    <path id="Trazado_210011" data-name="Trazado 210011" d="M1778.276,1358.491a26.252,26.252,0,0,1,8.45,1.368,21.093,21.093,0,0,1-.432-4.218c0-12.4,10.771-22.458,24.054-22.458a25.773,25.773,0,0,1,6.788.907c3.361-15.868,18.029-27.811,35.625-27.811,20.071,0,36.349,15.56,36.349,34.745a33.459,33.459,0,0,1-1.377,9.511c13.13.887,23.47,10.12,23.47,22.028s-11.387,21.382-18.387,23.343a10.085,10.085,0,0,1-4.166,0H1778.276c-12.4,0-22.451-8.376-22.451-18.708s10.054-18.708,22.451-18.708Zm0,0" transform="translate(-417.166 -352.652)" fill="#cbd5eb" fill-rule="evenodd"/>
    <path id="Trazado_210012" data-name="Trazado 210012" d="M1584.858,865.229a66.72,66.72,0,1,1-66.716,66.723,66.728,66.728,0,0,1,66.716-66.723Zm0,0" transform="translate(-232.227 -9.474)" fill="#cbd5eb" fill-rule="evenodd"/>
    <path id="Trazado_210013" data-name="Trazado 210013" d="M1603.086,888.654a61.521,61.521,0,1,1-61.517,61.525,61.527,61.527,0,0,1,61.517-61.525Zm0,0" transform="translate(-250.456 -27.701)" fill="#e9eef7" fill-rule="evenodd"/>
    <path id="Trazado_210014" data-name="Trazado 210014" d="M1619.949,909.479a4.876,4.876,0,1,1-4.876,4.877,4.875,4.875,0,0,1,4.876-4.877Zm-26.009,6.971a4.877,4.877,0,1,1-4.877,4.877,4.875,4.875,0,0,1,4.877-4.877Zm-19.046,19.039a4.88,4.88,0,1,1-4.877,4.877,4.88,4.88,0,0,1,4.877-4.877Zm-6.437,26.127a4.877,4.877,0,1,1-4.877,4.876,4.875,4.875,0,0,1,4.877-4.876Zm6.437,25.9a4.877,4.877,0,1,1-4.877,4.877,4.875,4.875,0,0,1,4.877-4.877Zm19.046,19.038a4.878,4.878,0,1,1-4.877,4.878,4.88,4.88,0,0,1,4.877-4.878Zm52.019,0a4.878,4.878,0,1,1-4.877,4.878,4.88,4.88,0,0,1,4.877-4.878ZM1665,987.515a4.877,4.877,0,1,1-4.877,4.877,4.875,4.875,0,0,1,4.877-4.877Zm6.964-26.01a4.877,4.877,0,1,1-4.877,4.877,4.875,4.875,0,0,1,4.877-4.877ZM1665,935.489a4.88,4.88,0,1,1-4.877,4.877,4.88,4.88,0,0,1,4.877-4.877Zm-19.046-19.039a4.877,4.877,0,1,1-4.877,4.877,4.875,4.875,0,0,1,4.877-4.877Zm-26.01,97.075a4.877,4.877,0,1,1-4.876,4.877,4.875,4.875,0,0,1,4.876-4.877Zm0,0" transform="translate(-267.582 -43.904)" fill="#fff" fill-rule="evenodd"/>
    <path id="Trazado_210015" data-name="Trazado 210015" d="M1796.854,1022.159q9.326-12.961-3.177-36.422-12.5,23.46-3.178,36.422a4.783,4.783,0,0,1,6.356,0Zm0,0" transform="translate(-441.046 -103.24)" fill="#cbd5eb" fill-rule="evenodd"/>
    <path id="Trazado_210016" data-name="Trazado 210016" d="M1837.683,1149.895q15.52,6.667,43.43-2.409-28.063-8.875-43.451-2.116a4.8,4.8,0,0,1,.022,4.526Zm0,0" transform="translate(-480.842 -225.176)" fill="#cbd5eb" fill-rule="evenodd"/>
    <path id="Trazado_210017" data-name="Trazado 210017" d="M1802.072,1144.424a4.767,4.767,0,1,1-4.768,4.767,4.763,4.763,0,0,1,4.768-4.767Zm0,0" transform="translate(-449.441 -226.713)" fill="#fff" fill-rule="evenodd"/>
    <path id="Trazado_210018" data-name="Trazado 210018" d="M2014.74,1501.92l14.119-14.119,14.125,14.119h-6.247v25.373h-15.758V1501.92Zm2.154,11.253-14.118,14.12-14.118-14.12h6.239V1487.8h15.758v25.372Zm0,0" transform="translate(-598.331 -493.892)" fill="#fff" fill-rule="evenodd"/>
    <path id="Trazado_210019" data-name="Trazado 210019" d="M2451.873,1459.831a23.73,23.73,0,0,0-4.247-5.346q9.062-4.919,10.054-10.8a10.356,10.356,0,0,1,2.24,2.812,48.086,48.086,0,0,1-8.047,13.333Zm0,0" transform="translate(-955.45 -459.566)" fill="#bd251d" fill-rule="evenodd"/>
    <path id="Trazado_210020" data-name="Trazado 210020" d="M2400.265,1459.831a23.677,23.677,0,0,1,4.254-5.346q-9.073-4.919-10.054-10.8a10.342,10.342,0,0,0-2.24,2.812,48.058,48.058,0,0,0,8.04,13.333Zm0,0" transform="translate(-912.343 -459.566)" fill="#bd251d" fill-rule="evenodd"/>
    <path id="Trazado_210021" data-name="Trazado 210021" d="M2289.727,1474.86q-9.776-13.531-36.877-18.5a48.086,48.086,0,0,1-8.047,13.334,23.7,23.7,0,0,0-4.247-5.346,23.679,23.679,0,0,0-4.254,5.346,48.064,48.064,0,0,1-8.04-13.334q-27.11,4.975-36.884,18.5-7.482,21.892-9.879,34.7,7.941,1.7,18.277,4.019-1.384,24.713-.717,42.207c9.629,2.8,23.087,7.806,39.117,14.506.834-.022,1.626-.066,2.38-.118.754.053,1.545.1,2.373.118,16.037-6.708,29.5-11.7,39.124-14.506q.671-17.5-.717-42.207,10.336-2.318,18.27-4.019-2.4-12.8-9.878-34.7Zm0,0" transform="translate(-748.38 -469.425)" fill="#d5403c" fill-rule="evenodd"/>
    <path id="Trazado_210022" data-name="Trazado 210022" d="M2618.357,1589.93q1.923,12.377,2.892,27.577c.872-.191,1.729-.388,2.578-.572q-1.691-9.412-5.47-27Zm0,0" transform="translate(-1088.294 -573.357)" fill="#bd251d" fill-rule="evenodd"/>
    <path id="Trazado_210023" data-name="Trazado 210023" d="M2257.709,1589.93q-1.911,12.377-2.885,27.577c-.871-.191-1.736-.388-2.577-.572q1.68-9.412,5.462-27Zm0,0" transform="translate(-803.427 -573.357)" fill="#bd251d" fill-rule="evenodd"/>
    <path id="Trazado_210024" data-name="Trazado 210024" d="M2201.587,1898.019c1.94,4.942-1.633,12.924-4.049,14.513-44.133-4.423-71.681-10.625-88.677-19.222-5.066-2.8-13.913-4.012-19.3-7.585-13.042-13.752-3.273-31.794,9.651-30.9,9.036,1.736,13.3,4.321,17.582,9.417,15.465,3.536,46.945,16.022,84.8,33.779Zm0,0" transform="translate(-672.044 -779.443)" fill="#2b478b" fill-rule="evenodd"/>
    <path id="Trazado_210025" data-name="Trazado 210025" d="M2235.816,2052.789c1.773,12.053-13.261,13.957-44.192,8.706,13-4.291,14.726-8.076,5.038-14.117,26.911-4.877,39.2-4.833,39.154,5.411Zm-168.624,0c-1.779,12.053,13.261,13.957,44.184,8.706-13-4.291-14.718-8.076-5.038-14.117-26.9-4.877-39.19-4.833-39.146,5.411Zm0,0" transform="translate(-659.328 -926.839)" fill="#233862" fill-rule="evenodd"/>
    <path id="Trazado_210026" data-name="Trazado 210026" d="M2301.5,2067.511a21.147,21.147,0,0,1,6.231,2.035c13-4.291,14.726-8.076,5.038-14.117a26.751,26.751,0,0,1-7.461-.857c1.018,4.54-1.633,10.794-3.808,12.939Zm-67.778,0a21.276,21.276,0,0,0-6.239,2.035c-13-4.291-14.717-8.076-5.038-14.117a26.7,26.7,0,0,0,7.462-.857c-1.01,4.54,1.633,10.794,3.815,12.939Zm0,0" transform="translate(-775.437 -934.891)" fill="#ffb27d" fill-rule="evenodd"/>
    <path id="Trazado_210027" data-name="Trazado 210027" d="M2648.058,1725.409a92.523,92.523,0,0,0-.8-26.983q-6.019,1.3-13.291,2.928c-.849.184-1.706.381-2.577.572q1.341,23.946.754,41.109,11.852-9.556,15.912-17.626Zm0,0" transform="translate(-1098.436 -657.777)" fill="#ffb27d" fill-rule="evenodd"/>
    <path id="Trazado_210028" data-name="Trazado 210028" d="M2186.512,1725.409a92.227,92.227,0,0,1,.8-26.983q6.008,1.3,13.291,2.928c.842.184,1.706.381,2.577.572q-1.34,23.946-.761,41.109-11.852-9.556-15.9-17.626Zm0,0" transform="translate(-751.781 -657.777)" fill="#ffb27d" fill-rule="evenodd"/>
    <path id="Trazado_210029" data-name="Trazado 210029" d="M2309.145,1732.334q-.109-9.346-.68-22.063c-.44.1-.894.2-1.341.3-.849.184-1.706.381-2.578.572q.824,14.762.923,26.946,1.076-1.262,2.519-2.943a20.58,20.58,0,0,1,8.216-1.721c-3.148-.981-5.507-1.34-7.059-1.091Zm-90.755,0q.11-9.346.673-22.063c.447.1.893.2,1.348.3.842.184,1.706.381,2.577.572q-.834,14.762-.923,26.946-1.087-1.262-2.526-2.943a20.519,20.519,0,0,0-8.208-1.721c3.148-.981,5.5-1.34,7.059-1.091Zm0,0" transform="translate(-771.591 -666.993)" fill="#f08261" fill-rule="evenodd"/>
    <path id="Trazado_210030" data-name="Trazado 210030" d="M2261.079,1734.427h80.606a1.416,1.416,0,0,1,1.406,1.406v36.254c-9.622,2.79-23.117,7.791-39.212,14.521h-4.994c-16.1-6.737-29.591-11.732-39.212-14.521v-36.254a1.41,1.41,0,0,1,1.405-1.406Zm0,0" transform="translate(-809.206 -685.789)" fill="#cbd5eb" fill-rule="evenodd"/>
    <path id="Trazado_210031" data-name="Trazado 210031" d="M2276.565,1804.264c9.257,2.915,21.36,7.484,35.463,13.387l.117.043.974-.043h2.812l.966.043c14.155-5.917,26.3-10.509,35.581-13.43v-29.942c-5.295,6.715-15.832,12.258-29.327,15.583a9.159,9.159,0,0,1,.1,1.353,8.733,8.733,0,0,1-17.34,1.474q-5.822.526-11.995.534a130.838,130.838,0,0,1-17.354-1.135Zm0,0" transform="translate(-822.349 -716.831)" fill="#8ca3ca" fill-rule="evenodd"/>
    <path id="Trazado_210032" data-name="Trazado 210032" d="M2381.942,1259.72q8.15,11.336,25.878,19.932c-2.952,8.853-7.41,17.494-17.165,19.1-9.343-1.492-14.506-8.251-16.615-17.837q7.536-8.393,7.9-21.2Zm0,0" transform="translate(-898.194 -316.424)" fill="#ffb27d" fill-rule="evenodd"/>
    <path id="Trazado_210033" data-name="Trazado 210033" d="M2379.105,1186.29a27.115,27.115,0,1,0-54.23,0v42.667a102.078,102.078,0,0,1,14.945-3.835,10.358,10.358,0,0,1,2.241-2.812q.988,5.886,10.054,10.8,9.062-4.919,10.054-10.8a10.367,10.367,0,0,1,2.241,2.812,101.456,101.456,0,0,1,14.7,3.757Zm-35.419-4.8q8.15,11.336,25.878,19.932c-2.951,8.853-7.411,17.494-17.164,19.1-9.344-1.492-14.506-8.251-16.615-17.837q7.534-8.393,7.9-21.2Zm0,0" transform="translate(-859.939 -238.191)" fill="#233862" fill-rule="evenodd"/>
    <path id="Trazado_210034" data-name="Trazado 210034" d="M2422.429,1421.731a13.957,13.957,0,0,1-1.436-5.668,16.621,16.621,0,0,1-8.333,3.88,18.306,18.306,0,0,1-9.628-4.473,33.948,33.948,0,0,1-.71,6.262q.989,5.886,10.053,10.8,9.063-4.919,10.054-10.8Zm0,0" transform="translate(-920.198 -437.611)" fill="#ffb27d" fill-rule="evenodd"/>
    <path id="Trazado_210035" data-name="Trazado 210035" d="M2423.248,1418.12c-.11-.623-.2-1.31-.278-2.058a16.625,16.625,0,0,1-8.333,3.88,18.309,18.309,0,0,1-9.629-4.473c-.029.88-.081,1.713-.147,2.49a32.217,32.217,0,0,0,9.864,4.056,24.9,24.9,0,0,0,8.523-3.9Zm0,0" transform="translate(-922.175 -437.611)" fill="#f08261" fill-rule="evenodd"/>
    <path id="Trazado_210036" data-name="Trazado 210036" d="M2314.4,1386.068h12.25v36.3h-15.238a114.532,114.532,0,0,0,2.987-36.3Zm0,0" transform="translate(-849.464 -414.734)" fill="#233862" fill-rule="evenodd"/>
    <path id="Trazado_210037" data-name="Trazado 210037" d="M2514.086,1386.068h12.243c-.835,12.053.769,24.172,2.783,36.3h-15.026Zm0,0" transform="translate(-1007.162 -414.734)" fill="#233862" fill-rule="evenodd"/>
    <path id="Trazado_210038" data-name="Trazado 210038" d="M2427.8,1825.172a5.649,5.649,0,1,1-5.653,5.652,5.644,5.644,0,0,1,5.653-5.652Zm0,0" transform="translate(-935.629 -756.397)" fill="#8ca3ca" fill-rule="evenodd"/>
    <path id="Trazado_210039" data-name="Trazado 210039" d="M2277.277,1898.019c-1.948,4.942,1.626,12.924,4.05,14.513,44.125-4.423,71.672-10.625,88.676-19.222,5.06-2.8,13.913-4.012,19.3-7.585,13.042-13.752,3.273-31.794-9.651-30.9-9.043,1.736-13.3,4.321-17.582,9.417-15.465,3.536-46.952,16.022-84.795,33.779Zm0,0" transform="translate(-822.467 -779.443)" fill="#2b478b" fill-rule="evenodd"/>
    <path id="Trazado_210040" data-name="Trazado 210040" d="M2234.531,1968.712q-36.181,14.094-56.992,11.314a29.39,29.39,0,0,1,4.576,1.926,107.246,107.246,0,0,0,15.583,6.254c.674-.118,1.362-.272,2.072-.44a8.052,8.052,0,0,1,.337-1.105c13.393-6.283,25.995-11.906,37.366-16.71q-1.2-.507-2.379-1c-.037-.015-.081-.031-.117-.043-.154-.067-.3-.125-.447-.191Zm0,0" transform="translate(-745.298 -868.084)" fill="#233862" fill-rule="evenodd"/>
    <path id="Trazado_210041" data-name="Trazado 210041" d="M2485.491,2059.258a271.247,271.247,0,0,1-37.865,8.216c9.892,1.538,20.949,2.914,33.317,4.151a3.794,3.794,0,0,0,.571-.468c2.014-1.984,4.43-7.491,3.976-11.9Zm0,0" transform="translate(-955.45 -938.537)" fill="#233862" fill-rule="evenodd"/>
    <path id="Trazado_210042" data-name="Trazado 210042" d="M2439.283,1970.62q1.2-.506,2.372-1l-.967-.043h-2.812l-.974.043c.791.329,1.582.665,2.38,1Zm0,0" transform="translate(-947.106 -868.755)" fill="#151e40" fill-rule="evenodd"/>
    <path id="Trazado_210043" data-name="Trazado 210043" d="M1374.578,1559.769l-3.413,1.984a1.406,1.406,0,0,0-.5,1.9l.813,1.406a5.155,5.155,0,0,1,.754,2.1,2.417,2.417,0,0,1-.754,2.1c-.724.652-1.449,1.406-2.167,2.159l-.132.125c-.4.424-1.626,1.7-4.306.14l-1.289-.746a1.4,1.4,0,0,0-1.062-.14,1.376,1.376,0,0,0-.849.645l-2.16,3.7a1.407,1.407,0,0,0-.132,1.055,1.368,1.368,0,0,0,.645.848l1.274.74a4.749,4.749,0,0,1,1.969,1.757,2.331,2.331,0,0,1,.088,1.955l-.147.492c-.256.857-.519,1.714-.689,2.512l-.044.234c-.271,1.413-.461,2.386-3.669,2.386h-1.472a1.4,1.4,0,0,0-1.391,1.393v4.283a1.4,1.4,0,0,0,1.391,1.391h1.472c3.207,0,3.4.973,3.669,2.387l.051.235c.168.813.425,1.662.681,2.5l.147.5a2.333,2.333,0,0,1-.088,1.956,4.706,4.706,0,0,1-1.969,1.757l-1.274.74a1.405,1.405,0,0,0-.506,1.91l2.153,3.706a1.414,1.414,0,0,0,1.911.5l1.289-.748c2.687-1.559,3.911-.278,4.313.139l.132.14c.717.747,1.435,1.493,2.16,2.146a2.407,2.407,0,0,1,.754,2.1,5.156,5.156,0,0,1-.754,2.1l-.813,1.406a1.4,1.4,0,0,0,.5,1.9l3.706,2.152a1.386,1.386,0,0,0,1.062.146,1.421,1.421,0,0,0,.849-.644l.812-1.405a4.8,4.8,0,0,1,1.538-1.706,2.62,2.62,0,0,1,2.241-.33c.769.242,1.589.447,2.439.667l.989.249a2.454,2.454,0,0,1,1.464.988,4.493,4.493,0,0,1,.667,2.646v1.5a1.39,1.39,0,0,0,1.391,1.393h4.284a1.4,1.4,0,0,0,1.391-1.393v-1.5a4.472,4.472,0,0,1,.667-2.646,2.473,2.473,0,0,1,1.464-.988l.989-.249c.849-.22,1.669-.425,2.438-.667a2.506,2.506,0,0,1,1.809.1,4.341,4.341,0,0,1,1.969,1.935l.82,1.405a1.386,1.386,0,0,0,1.889.506l3.72-2.161a1.36,1.36,0,0,0,.637-.842,1.392,1.392,0,0,0-.139-1.062l-.813-1.406a5.157,5.157,0,0,1-.754-2.1,2.427,2.427,0,0,1,.754-2.108c.725-.645,1.442-1.392,2.16-2.139l.132-.14c.4-.417,1.633-1.7,4.313-.139l1.288.748a1.415,1.415,0,0,0,1.911-.5l2.153-3.706a1.405,1.405,0,0,0-.506-1.91l-1.274-.74a4.713,4.713,0,0,1-1.97-1.757,2.335,2.335,0,0,1-.088-1.956l.154-.505c.256-.857.512-1.706.681-2.5l.044-.235c.271-1.414.461-2.387,3.669-2.387h1.471a1.4,1.4,0,0,0,1.391-1.391v-4.283a1.4,1.4,0,0,0-1.391-1.393h-1.471c-3.208,0-3.4-.973-3.669-2.386l-.051-.234c-.161-.791-.425-1.648-.681-2.5l-.146-.507a2.332,2.332,0,0,1,.088-1.955,4.756,4.756,0,0,1,1.97-1.757l1.274-.74a1.377,1.377,0,0,0,.645-.848,1.393,1.393,0,0,0-.139-1.062l-2.153-3.7a1.375,1.375,0,0,0-.849-.645,1.4,1.4,0,0,0-1.062.14l-1.288.746c-2.68,1.559-3.9.284-4.306-.14l-.132-.125c-.718-.754-1.442-1.508-2.167-2.159a2.414,2.414,0,0,1-.754-2.1,5.156,5.156,0,0,1,.754-2.1l.813-1.406a1.406,1.406,0,0,0-.5-1.9l-3.705-2.153a1.388,1.388,0,0,0-1.061-.139,1.354,1.354,0,0,0-.843.636l-.82,1.406a4.331,4.331,0,0,1-1.969,1.933,2.541,2.541,0,0,1-1.809.1c-.761-.241-1.574-.446-2.416-.657l-1.011-.257a2.437,2.437,0,0,1-1.464-.989,4.459,4.459,0,0,1-.667-2.642v-1.5a1.4,1.4,0,0,0-1.391-1.391h-4.284a1.391,1.391,0,0,0-.981.4,1.43,1.43,0,0,0-.41.989v1.5a4.462,4.462,0,0,1-.667,2.642,2.419,2.419,0,0,1-1.464.989l-1.011.257c-.842.212-1.655.416-2.409.657a2.605,2.605,0,0,1-2.248-.328,4.771,4.771,0,0,1-1.538-1.707l-.827-1.428a1.412,1.412,0,0,0-1.9-.475Zm-4.643-.14,3.991-2.328h.037a3.869,3.869,0,0,1,4.943,1.568l.813,1.405a2.456,2.456,0,0,0,.718.857c.117.073.168.081.191.073.944-.3,1.742-.5,2.562-.7l1-.256c.029-.007.066-.016.074-.037a2.25,2.25,0,0,0,.2-1.215v-1.5a3.874,3.874,0,0,1,3.859-3.858h4.284a3.861,3.861,0,0,1,3.852,3.858v1.5a2.247,2.247,0,0,0,.205,1.215c.014.021.051.03.08.037l.989.256c.828.206,1.625.4,2.563.7a.254.254,0,0,0,.11-.029,2.065,2.065,0,0,0,.805-.9l.813-1.405a3.864,3.864,0,0,1,5.265-1.4l3.706,2.153a3.857,3.857,0,0,1,1.391,5.271l-.813,1.406a2.79,2.79,0,0,0-.432,1.084c-.015.081-.08.037-.059.059.835.746,1.575,1.515,2.307,2.277l.125.132c.073.074.293.307,1.311-.286l1.289-.747a3.848,3.848,0,0,1,5.265,1.391l2.153,3.707a3.847,3.847,0,0,1-1.4,5.264l-1.274.747c-.659.38-.945.6-1.018.746-.022.043.051.029.088.139l.146.49c.264.864.527,1.744.732,2.724a1.589,1.589,0,0,1,.051.257c.044.227.073.388,1.26.388h1.471a3.848,3.848,0,0,1,3.852,3.852v4.283a3.851,3.851,0,0,1-3.852,3.852h-1.471c-1.186,0-1.216.161-1.26.387a1.558,1.558,0,0,1-.051.257c-.205.982-.469,1.852-.732,2.717l-.146.506c-.037.1-.11.088-.088.132a2.941,2.941,0,0,0,1.018.755l1.274.739a3.847,3.847,0,0,1,1.4,5.265l-2.153,3.705a3.849,3.849,0,0,1-5.265,1.391l-1.289-.746c-1.018-.587-1.237-.358-1.3-.286l-.139.139c-.732.761-1.464,1.522-2.3,2.27-.022.028.051-.022.059.058a2.844,2.844,0,0,0,.432,1.092l.813,1.4a3.86,3.86,0,0,1-1.391,5.273l-3.706,2.152a3.867,3.867,0,0,1-5.162-1.23c-.168-.176-.754-1.29-.915-1.567a2.074,2.074,0,0,0-.805-.907c-.066-.03-.1-.03-.11-.023-.944.292-1.75.5-2.585.7l-.967.25c-.029.007-.066.013-.08.035a2.277,2.277,0,0,0-.205,1.217v1.5a3.864,3.864,0,0,1-3.852,3.86h-4.284a3.824,3.824,0,0,1-2.724-1.136,3.864,3.864,0,0,1-1.135-2.724v-1.5a2.28,2.28,0,0,0-.2-1.217c-.015-.022-.052-.028-.074-.035l-.966-.243c-.843-.213-1.64-.417-2.585-.717-.022-.007-.08,0-.2.073a2.5,2.5,0,0,0-.718.864l-.813,1.4a3.87,3.87,0,0,1-5.272,1.4l-3.7-2.152a3.871,3.871,0,0,1-1.4-5.273l.82-1.4a2.844,2.844,0,0,0,.432-1.092c0-.08.081-.03.059-.051-.835-.755-1.567-1.516-2.3-2.277l-.139-.139c-.074-.073-.293-.3-1.3.286l-1.288.746a3.849,3.849,0,0,1-5.265-1.391l-2.16-3.705a3.863,3.863,0,0,1,1.4-5.265l1.282-.739a3.045,3.045,0,0,0,1.018-.755c.022-.044-.059-.028-.088-.132l-.146-.5c-.264-.872-.535-1.758-.74-2.724a1.547,1.547,0,0,1-.052-.257c-.044-.226-.073-.387-1.252-.387h-1.472a3.863,3.863,0,0,1-3.859-3.852v-4.283a3.86,3.86,0,0,1,3.859-3.852h1.472c1.179,0,1.216-.161,1.252-.388,0-.036.044-.22.052-.257.212-.988.475-1.867.74-2.738l.146-.476c.037-.11.11-.088.088-.139a3.153,3.153,0,0,0-1.018-.746,14.873,14.873,0,0,1-1.443-.851,3.816,3.816,0,0,1-1.625-2.247,3.86,3.86,0,0,1,.388-2.913l2.153-3.707a3.859,3.859,0,0,1,5.272-1.391l1.288.747c1.011.593,1.238.36,1.311.286l.124-.132c.733-.761,1.465-1.531,2.307-2.277.022-.022-.051.022-.059-.059a2.914,2.914,0,0,0-.432-1.084l-.82-1.406a3.886,3.886,0,0,1-.388-2.922,3.828,3.828,0,0,1,1.786-2.343Zm20.526,8.811a22.223,22.223,0,1,1-15.715,6.508,22.164,22.164,0,0,1,15.715-6.508Zm13.979,8.252a19.755,19.755,0,1,0,5.792,13.979,19.681,19.681,0,0,0-5.792-13.979Zm0,0" transform="translate(-104.107 -545.115)" fill="#8ca3ca" fill-rule="evenodd"/>
    <path id="Trazado_210044" data-name="Trazado 210044" d="M1685.639,1755.342l-1.685.981a.686.686,0,0,0-.315.417.7.7,0,0,0,.066.527l.4.695a2.589,2.589,0,0,1,.373,1.034,1.191,1.191,0,0,1-.373,1.047c-.359.315-.718.688-1.069,1.062l-.066.064c-.2.206-.806.836-2.131.066l-.637-.364a.694.694,0,0,0-.945.241l-1.062,1.839a.68.68,0,0,0-.066.519.691.691,0,0,0,.315.418l.63.365a2.326,2.326,0,0,1,.974.871,1.152,1.152,0,0,1,.044.966l-.073.243c-.124.425-.256.848-.337,1.245l-.022.11c-.132.7-.227,1.179-1.816,1.179h-.725a.715.715,0,0,0-.491.205.69.69,0,0,0-.2.483v2.117a.7.7,0,0,0,.2.491.71.71,0,0,0,.491.2h.725c1.589,0,1.684.484,1.816,1.187l.022.109c.088.4.213.821.337,1.24l.073.247a1.131,1.131,0,0,1-.044.968,2.284,2.284,0,0,1-.966.864l-.637.373a.65.65,0,0,0-.315.417.682.682,0,0,0,.066.52l1.069,1.831a.686.686,0,0,0,.417.322.7.7,0,0,0,.52-.072l.637-.375c1.333-.768,1.933-.13,2.138.074l.059.066c.359.373.718.74,1.069,1.062a1.184,1.184,0,0,1,.373,1.04,2.487,2.487,0,0,1-.366,1.038l-.41.7a.685.685,0,0,0-.066.521.638.638,0,0,0,.315.416l1.831,1.07a.7.7,0,0,0,.527.066.686.686,0,0,0,.417-.315l.4-.7a2.332,2.332,0,0,1,.761-.841,1.284,1.284,0,0,1,1.106-.162c.381.117.784.22,1.208.322l.484.132a1.189,1.189,0,0,1,.725.483,2.231,2.231,0,0,1,.33,1.31v.739a.7.7,0,0,0,.2.492.706.706,0,0,0,.483.2h2.116a.679.679,0,0,0,.483-.206.641.641,0,0,0,.205-.484v-.739a2.23,2.23,0,0,1,.329-1.31,1.187,1.187,0,0,1,.725-.483l.491-.132c.417-.1.82-.205,1.2-.322a1.206,1.206,0,0,1,.893.051,2.107,2.107,0,0,1,.974.952l.4.7a.68.68,0,0,0,.425.315.669.669,0,0,0,.512-.066l1.838-1.07a.642.642,0,0,0,.315-.416.656.656,0,0,0-.066-.521l-.4-.7a2.625,2.625,0,0,1-.374-1.038,1.181,1.181,0,0,1,.374-1.04c.359-.322.71-.688,1.069-1.062l.059-.066c.205-.2.813-.841,2.138-.074l.637.375a.7.7,0,0,0,.52.072.727.727,0,0,0,.425-.322l1.062-1.831a.7.7,0,0,0-.249-.937l-.63-.373a2.274,2.274,0,0,1-.974-.864,1.158,1.158,0,0,1-.044-.968l.073-.247c.132-.426.256-.843.337-1.24l.022-.116c.132-.7.227-1.179,1.816-1.179h.725a.674.674,0,0,0,.688-.688v-2.117a.688.688,0,0,0-.2-.483.712.712,0,0,0-.49-.205h-.725c-1.589,0-1.684-.476-1.816-1.179l-.022-.11c-.081-.4-.212-.82-.337-1.237l-.073-.25a1.153,1.153,0,0,1,.044-.966,2.333,2.333,0,0,1,.974-.871l.63-.365a.7.7,0,0,0,.249-.944l-1.062-1.831a.688.688,0,0,0-.425-.315.681.681,0,0,0-.52.074l-.637.364c-1.325.77-1.933.14-2.13-.066l-.066-.064c-.351-.373-.71-.747-1.069-1.062a1.188,1.188,0,0,1-.374-1.047,2.584,2.584,0,0,1,.374-1.034l.4-.695a.7.7,0,0,0,.066-.527.691.691,0,0,0-.315-.417l-1.831-1.062a.681.681,0,0,0-.519-.073.722.722,0,0,0-.425.322l-.4.689a2.13,2.13,0,0,1-.974.959,1.283,1.283,0,0,1-.893.052c-.373-.117-.776-.22-1.194-.323l-.5-.131a1.171,1.171,0,0,1-.725-.491,2.187,2.187,0,0,1-.329-1.3v-.74a.693.693,0,0,0-.205-.49.671.671,0,0,0-.483-.2h-2.116a.671.671,0,0,0-.483.2.693.693,0,0,0-.2.49v.74a2.189,2.189,0,0,1-.33,1.3,1.173,1.173,0,0,1-.725.491l-.5.131c-.417.1-.82.206-1.194.323a1.308,1.308,0,0,1-1.113-.161,2.462,2.462,0,0,1-.754-.849l-.41-.7a.708.708,0,0,0-.41-.307.7.7,0,0,0-.527.073Zm-2.292-.066,1.969-1.149h.022a1.9,1.9,0,0,1,2.438.776l.4.688a1.172,1.172,0,0,0,.359.425c.058.037.08.044.1.037.461-.147.857-.242,1.266-.345l.491-.124a.169.169,0,0,0,.036-.022,1.1,1.1,0,0,0,.1-.6v-.74a1.893,1.893,0,0,1,.557-1.346,1.928,1.928,0,0,1,1.347-.565h2.116a1.915,1.915,0,0,1,1.9,1.912v.74a1.1,1.1,0,0,0,.1.6c0,.007.022.015.037.022l.491.124c.41.1.805.2,1.266.345a.126.126,0,0,0,.051-.015c.1-.036.234-.161.4-.447l.4-.688a1.9,1.9,0,0,1,2.6-.7l1.831,1.071a1.928,1.928,0,0,1,.886,1.157,1.9,1.9,0,0,1-.2,1.443l-.4.7a1.305,1.305,0,0,0-.212.534c0,.044-.036.021-.03.029.418.375.777.747,1.143,1.128l.059.066c.036.038.146.147.644-.138l.644-.373a1.909,1.909,0,0,1,2.6.687l1.062,1.83a1.9,1.9,0,0,1-.688,2.608l-.63.366a1.576,1.576,0,0,0-.505.366c-.015.029.029.014.044.073l.073.242c.132.424.264.865.367,1.346,0,.016.022.111.022.125.022.109.037.19.622.19h.725a1.9,1.9,0,0,1,1.9,1.9v2.117a1.908,1.908,0,0,1-1.9,1.91h-.725c-.586,0-.6.073-.622.191a.925.925,0,0,1-.022.125c-.1.483-.234.915-.367,1.34l-.073.249c-.015.051-.059.043-.044.067.036.073.176.183.505.372l.63.367a1.9,1.9,0,0,1,.886,1.164,1.875,1.875,0,0,1-.2,1.434l-1.062,1.831a1.9,1.9,0,0,1-1.164.887,1.934,1.934,0,0,1-1.443-.191l-.637-.373c-.5-.292-.608-.175-.644-.138l-.066.065c-.359.381-.725.754-1.135,1.12-.014.016.023-.007.03.03a1.46,1.46,0,0,0,.212.542l.4.7a1.875,1.875,0,0,1,.2,1.435,1.928,1.928,0,0,1-.886,1.164l-1.831,1.061a1.9,1.9,0,0,1-1.443.2,1.937,1.937,0,0,1-1.113-.805,8.018,8.018,0,0,1-.447-.776,1.058,1.058,0,0,0-.4-.446.071.071,0,0,0-.051-.007c-.468.147-.864.241-1.274.35l-.484.119a.056.056,0,0,0-.037.015,1.13,1.13,0,0,0-.1.607v.739a1.9,1.9,0,0,1-1.9,1.9h-2.116a1.9,1.9,0,0,1-1.9-1.9v-.739a1.126,1.126,0,0,0-.1-.607c0-.007-.029-.015-.036-.015l-.484-.119c-.41-.109-.805-.2-1.274-.35-.015-.008-.037-.008-.1.03a1.225,1.225,0,0,0-.359.424l-.4.7a1.892,1.892,0,0,1-2.6.688l-1.83-1.061a1.9,1.9,0,0,1-.689-2.6l.4-.7a1.338,1.338,0,0,0,.212-.542c0-.037.037-.014.03-.023-.411-.373-.776-.746-1.135-1.127l-.073-.065c-.03-.037-.139-.154-.644.138l-.637.373a1.929,1.929,0,0,1-1.443.191,1.908,1.908,0,0,1-1.157-.887l-1.062-1.831a1.877,1.877,0,0,1-.2-1.434,1.9,1.9,0,0,1,.886-1.164l.63-.367a1.539,1.539,0,0,0,.505-.372c.014-.023-.029-.016-.044-.067l-.073-.241c-.132-.432-.264-.872-.366-1.347,0-.022-.022-.11-.022-.125-.022-.118-.037-.191-.623-.191h-.725a1.921,1.921,0,0,1-1.911-1.91v-2.117a1.914,1.914,0,0,1,1.911-1.9h.725c.586,0,.6-.08.623-.19a.744.744,0,0,1,.022-.125c.1-.489.234-.922.366-1.354l.073-.234c.015-.06.051-.044.044-.073a1.578,1.578,0,0,0-.505-.366c-.132-.082-.637-.345-.71-.418a1.9,1.9,0,0,1-.608-2.557l1.062-1.83a1.909,1.909,0,0,1,2.6-.687l.637.373c.505.285.615.177.652.138l.058-.066c.366-.381.725-.753,1.142-1.128.014-.008-.03.015-.03-.029a1.573,1.573,0,0,0-.212-.534l-.4-.7a1.894,1.894,0,0,1,.689-2.6Zm10.148,4.349a11,11,0,1,1-7.769,3.222,10.947,10.947,0,0,1,7.769-3.222Zm6.906,4.079a9.767,9.767,0,1,0,2.863,6.911,9.735,9.735,0,0,0-2.863-6.911Zm0,0" transform="translate(-354.441 -699.703)" fill="#8ca3ca" fill-rule="evenodd"/>
  </g>
</svg>
