<svg xmlns="http://www.w3.org/2000/svg" xmlns:xlink="http://www.w3.org/1999/xlink" width="1240" height="52" viewBox="0 0 1240 52">
  <defs>
    <linearGradient id="linear-gradient" x1="0.5" x2="0.5" y2="1" gradientUnits="objectBoundingBox">
      <stop offset="0" stop-color="#039be5"/>
      <stop offset="1" stop-color="#027fbc"/>
    </linearGradient>
  </defs>
  <g id="Grupo_152024" data-name="Grupo 152024" transform="translate(-180.676 -26141)">
    <rect id="Rectángulo_45135" data-name="Rectángulo 45135" width="1240" height="52" transform="translate(180.676 26141)" fill="url(#linear-gradient)"/>
    <path id="Trazado_194451" data-name="Trazado 194451" d="M1.65,27V8.516H7.338a8.637,8.637,0,0,1,4.361,1.1,7.658,7.658,0,0,1,3,3.123,9.633,9.633,0,0,1,1.079,4.6v.851a9.66,9.66,0,0,1-1.06,4.583,7.592,7.592,0,0,1-2.99,3.11A8.7,8.7,0,0,1,7.376,27ZM5.459,11.6V23.94H7.3a4.136,4.136,0,0,0,3.415-1.46A6.6,6.6,0,0,0,11.921,18.3v-.978a6.7,6.7,0,0,0-1.168-4.272A4.122,4.122,0,0,0,7.338,11.6Zm19.17,15.653A6.743,6.743,0,0,1,19.709,25.4a6.588,6.588,0,0,1-1.9-4.938v-.355a8.3,8.3,0,0,1,.8-3.7,5.87,5.87,0,0,1,2.266-2.514,6.36,6.36,0,0,1,3.345-.882,5.7,5.7,0,0,1,4.437,1.777,7.222,7.222,0,0,1,1.619,5.04v1.5H21.531A3.408,3.408,0,0,0,22.6,23.483a3.243,3.243,0,0,0,2.266.813,3.96,3.96,0,0,0,3.313-1.536l1.8,2.019A5.508,5.508,0,0,1,27.752,26.6,7.331,7.331,0,0,1,24.629,27.254ZM24.21,15.968a2.293,2.293,0,0,0-1.771.74,3.83,3.83,0,0,0-.87,2.117h5.1v-.293a2.731,2.731,0,0,0-.66-1.894A2.365,2.365,0,0,0,24.21,15.968Zm11.527-2.7.114,1.587A4.8,4.8,0,0,1,39.8,13.01a3.986,3.986,0,0,1,3.25,1.282,5.982,5.982,0,0,1,1.092,3.834V27H40.473V18.215a2.38,2.38,0,0,0-.508-1.695,2.273,2.273,0,0,0-1.688-.527,2.524,2.524,0,0,0-2.323,1.32V27H32.284V13.264ZM51.314,9.887v3.377h2.349v2.691H51.314v6.855a1.637,1.637,0,0,0,.292,1.092,1.467,1.467,0,0,0,1.117.33,5.851,5.851,0,0,0,1.079-.089v2.78a7.553,7.553,0,0,1-2.222.33q-3.859,0-3.936-3.9v-7.4H45.64V13.264h2.006V9.887ZM63.426,16.7a9.968,9.968,0,0,0-1.32-.1,2.687,2.687,0,0,0-2.729,1.409V27H55.707V13.264h3.466l.1,1.638a3.4,3.4,0,0,1,3.06-1.892,3.844,3.844,0,0,1,1.143.165Zm.736,3.3a8.146,8.146,0,0,1,.787-3.644,5.762,5.762,0,0,1,2.266-2.476,6.611,6.611,0,0,1,3.434-.876,6.255,6.255,0,0,1,4.539,1.7,6.827,6.827,0,0,1,1.961,4.621l.025.939a7.18,7.18,0,0,1-1.765,5.072,6.839,6.839,0,0,1-9.477.006,7.306,7.306,0,0,1-1.771-5.18Zm3.669.26a5.135,5.135,0,0,0,.736,2.994,2.645,2.645,0,0,0,4.189.013A5.618,5.618,0,0,0,73.506,20a5.083,5.083,0,0,0-.749-2.975,2.435,2.435,0,0,0-2.107-1.055,2.4,2.4,0,0,0-2.082,1.049A5.713,5.713,0,0,0,67.831,20.265Zm17.507-.235a8.278,8.278,0,0,1,1.441-5.116,4.675,4.675,0,0,1,3.942-1.9,4.207,4.207,0,0,1,3.313,1.5V7.5h3.682V27H94.4l-.178-1.46A4.318,4.318,0,0,1,90.7,27.254,4.663,4.663,0,0,1,86.8,25.343,8.545,8.545,0,0,1,85.338,20.03Zm3.669.273a5.423,5.423,0,0,0,.673,2.963,2.192,2.192,0,0,0,1.955,1.03,2.455,2.455,0,0,0,2.4-1.437V17.43a2.42,2.42,0,0,0-2.374-1.437Q89.007,15.993,89.007,20.3Zm17.875,6.95a6.743,6.743,0,0,1-4.919-1.854,6.588,6.588,0,0,1-1.9-4.938v-.355a8.3,8.3,0,0,1,.8-3.7,5.87,5.87,0,0,1,2.266-2.514,6.36,6.36,0,0,1,3.345-.882,5.7,5.7,0,0,1,4.437,1.777,7.222,7.222,0,0,1,1.619,5.04v1.5h-8.747a3.408,3.408,0,0,0,1.073,2.158,3.243,3.243,0,0,0,2.266.813,3.96,3.96,0,0,0,3.313-1.536l1.8,2.019A5.508,5.508,0,0,1,110,26.6,7.331,7.331,0,0,1,106.882,27.254Zm-.419-11.286a2.293,2.293,0,0,0-1.771.74,3.83,3.83,0,0,0-.87,2.117h5.1v-.293a2.731,2.731,0,0,0-.66-1.894A2.365,2.365,0,0,0,106.463,15.968ZM124.96,27h-3.682V7.5h3.682Zm2.45-7a8.146,8.146,0,0,1,.787-3.644,5.762,5.762,0,0,1,2.266-2.476,6.611,6.611,0,0,1,3.434-.876,6.255,6.255,0,0,1,4.539,1.7,6.828,6.828,0,0,1,1.961,4.621l.025.939a7.18,7.18,0,0,1-1.765,5.072,6.839,6.839,0,0,1-9.477.006,7.306,7.306,0,0,1-1.771-5.18Zm3.669.26a5.135,5.135,0,0,0,.736,2.994,2.645,2.645,0,0,0,4.189.013A5.618,5.618,0,0,0,136.754,20,5.083,5.083,0,0,0,136,17.023a2.435,2.435,0,0,0-2.107-1.055,2.4,2.4,0,0,0-2.082,1.049A5.713,5.713,0,0,0,131.079,20.265ZM150.122,23.2a1.182,1.182,0,0,0-.667-1.06,7.571,7.571,0,0,0-2.139-.692q-4.9-1.028-4.9-4.164a3.774,3.774,0,0,1,1.517-3.053A6.12,6.12,0,0,1,147.9,13.01a6.587,6.587,0,0,1,4.183,1.231,3.881,3.881,0,0,1,1.568,3.2h-3.669a1.775,1.775,0,0,0-.508-1.3,2.149,2.149,0,0,0-1.587-.514,2.2,2.2,0,0,0-1.435.419,1.322,1.322,0,0,0-.508,1.066,1.131,1.131,0,0,0,.578.984,5.942,5.942,0,0,0,1.949.647,15.917,15.917,0,0,1,2.311.616q2.907,1.066,2.907,3.694a3.583,3.583,0,0,1-1.612,3.041,6.955,6.955,0,0,1-4.164,1.162,7.264,7.264,0,0,1-3.066-.616,5.144,5.144,0,0,1-2.1-1.688,3.923,3.923,0,0,1-.762-2.317h3.479a1.915,1.915,0,0,0,.724,1.5,2.87,2.87,0,0,0,1.8.521,2.657,2.657,0,0,0,1.593-.4A1.244,1.244,0,0,0,150.122,23.2Zm19.843,0a1.182,1.182,0,0,0-.667-1.06,7.571,7.571,0,0,0-2.139-.692q-4.9-1.028-4.9-4.164a3.774,3.774,0,0,1,1.517-3.053,6.12,6.12,0,0,1,3.967-1.225,6.587,6.587,0,0,1,4.183,1.231,3.881,3.881,0,0,1,1.568,3.2h-3.669a1.775,1.775,0,0,0-.508-1.3,2.149,2.149,0,0,0-1.587-.514,2.2,2.2,0,0,0-1.435.419,1.322,1.322,0,0,0-.508,1.066,1.131,1.131,0,0,0,.578.984,5.942,5.942,0,0,0,1.949.647,15.917,15.917,0,0,1,2.311.616q2.907,1.066,2.907,3.694a3.583,3.583,0,0,1-1.612,3.041,6.955,6.955,0,0,1-4.164,1.162,7.264,7.264,0,0,1-3.066-.616,5.144,5.144,0,0,1-2.1-1.688,3.923,3.923,0,0,1-.762-2.317h3.479a1.915,1.915,0,0,0,.724,1.5,2.87,2.87,0,0,0,1.8.521,2.657,2.657,0,0,0,1.593-.4A1.244,1.244,0,0,0,169.965,23.2Zm12.251,4.05A6.743,6.743,0,0,1,177.3,25.4a6.588,6.588,0,0,1-1.9-4.938v-.355a8.3,8.3,0,0,1,.8-3.7,5.87,5.87,0,0,1,2.266-2.514,6.36,6.36,0,0,1,3.345-.882,5.7,5.7,0,0,1,4.437,1.777,7.222,7.222,0,0,1,1.619,5.04v1.5h-8.747a3.408,3.408,0,0,0,1.073,2.158,3.243,3.243,0,0,0,2.266.813,3.96,3.96,0,0,0,3.313-1.536l1.8,2.019a5.508,5.508,0,0,1-2.234,1.822A7.331,7.331,0,0,1,182.216,27.254ZM181.8,15.968a2.293,2.293,0,0,0-1.771.74,3.83,3.83,0,0,0-.87,2.117h5.1v-.293a2.731,2.731,0,0,0-.66-1.894A2.365,2.365,0,0,0,181.8,15.968Zm15.869.736a9.968,9.968,0,0,0-1.32-.1,2.687,2.687,0,0,0-2.729,1.409V27h-3.669V13.264h3.466l.1,1.638a3.4,3.4,0,0,1,3.06-1.892,3.844,3.844,0,0,1,1.143.165Zm7.135,5.814,2.552-9.255h3.834L206.553,27h-3.5l-4.634-13.736h3.834ZM216.671,27h-3.682V13.264h3.682Zm-3.9-17.291a1.807,1.807,0,0,1,.552-1.358,2.38,2.38,0,0,1,3,0,1.8,1.8,0,0,1,.559,1.358,1.8,1.8,0,0,1-.565,1.371,2.353,2.353,0,0,1-2.983,0A1.8,1.8,0,0,1,212.773,9.709ZM225.405,24.3a2.406,2.406,0,0,0,1.65-.559,1.957,1.957,0,0,0,.66-1.485h3.44a4.706,4.706,0,0,1-.762,2.558,5.026,5.026,0,0,1-2.05,1.8,6.417,6.417,0,0,1-2.875.641,5.963,5.963,0,0,1-4.646-1.873,7.41,7.41,0,0,1-1.7-5.173v-.241A7.325,7.325,0,0,1,220.81,14.9a5.894,5.894,0,0,1,4.634-1.892,5.778,5.778,0,0,1,4.132,1.466,5.192,5.192,0,0,1,1.581,3.9h-3.44a2.521,2.521,0,0,0-.66-1.742,2.454,2.454,0,0,0-3.612.264,5.416,5.416,0,0,0-.654,3.032v.381a5.485,5.485,0,0,0,.647,3.052A2.237,2.237,0,0,0,225.405,24.3ZM237.123,27h-3.682V13.264h3.682Zm-3.9-17.291a1.807,1.807,0,0,1,.552-1.358,2.38,2.38,0,0,1,3,0,1.8,1.8,0,0,1,.559,1.358,1.8,1.8,0,0,1-.565,1.371,2.353,2.353,0,0,1-2.983,0A1.8,1.8,0,0,1,233.226,9.709ZM239.573,20a8.147,8.147,0,0,1,.787-3.644,5.762,5.762,0,0,1,2.266-2.476,6.611,6.611,0,0,1,3.434-.876,6.255,6.255,0,0,1,4.539,1.7,6.828,6.828,0,0,1,1.961,4.621l.025.939a7.18,7.18,0,0,1-1.765,5.072,6.839,6.839,0,0,1-9.477.006,7.306,7.306,0,0,1-1.771-5.18Zm3.669.26a5.135,5.135,0,0,0,.736,2.994,2.645,2.645,0,0,0,4.189.013A5.618,5.618,0,0,0,248.917,20a5.083,5.083,0,0,0-.749-2.975,2.435,2.435,0,0,0-2.107-1.055,2.4,2.4,0,0,0-2.082,1.049A5.713,5.713,0,0,0,243.242,20.265ZM262.285,23.2a1.182,1.182,0,0,0-.667-1.06,7.571,7.571,0,0,0-2.139-.692q-4.9-1.028-4.9-4.164a3.774,3.774,0,0,1,1.517-3.053,6.12,6.12,0,0,1,3.967-1.225,6.587,6.587,0,0,1,4.183,1.231,3.881,3.881,0,0,1,1.568,3.2h-3.669a1.775,1.775,0,0,0-.508-1.3,2.149,2.149,0,0,0-1.587-.514,2.2,2.2,0,0,0-1.435.419,1.323,1.323,0,0,0-.508,1.066,1.13,1.13,0,0,0,.578.984,5.942,5.942,0,0,0,1.949.647,15.917,15.917,0,0,1,2.311.616q2.907,1.066,2.907,3.694a3.583,3.583,0,0,1-1.612,3.041,6.955,6.955,0,0,1-4.164,1.162,7.264,7.264,0,0,1-3.066-.616,5.144,5.144,0,0,1-2.1-1.688,3.923,3.923,0,0,1-.762-2.317h3.479a1.915,1.915,0,0,0,.724,1.5,2.87,2.87,0,0,0,1.8.521,2.657,2.657,0,0,0,1.593-.4A1.244,1.244,0,0,0,262.285,23.2Zm11.832-3.174a8.278,8.278,0,0,1,1.441-5.116,4.675,4.675,0,0,1,3.942-1.9,4.207,4.207,0,0,1,3.313,1.5V7.5H286.5V27h-3.313L283,25.54a4.318,4.318,0,0,1-3.529,1.714,4.663,4.663,0,0,1-3.891-1.911A8.545,8.545,0,0,1,274.117,20.03Zm3.669.273a5.422,5.422,0,0,0,.673,2.963,2.192,2.192,0,0,0,1.955,1.03,2.455,2.455,0,0,0,2.4-1.437V17.43a2.42,2.42,0,0,0-2.374-1.437Q277.786,15.993,277.786,20.3Zm17.875,6.95a6.743,6.743,0,0,1-4.919-1.854,6.588,6.588,0,0,1-1.9-4.938v-.355a8.3,8.3,0,0,1,.8-3.7,5.87,5.87,0,0,1,2.266-2.514,6.36,6.36,0,0,1,3.345-.882,5.7,5.7,0,0,1,4.437,1.777,7.222,7.222,0,0,1,1.619,5.04v1.5h-8.747a3.408,3.408,0,0,0,1.073,2.158,3.243,3.243,0,0,0,2.266.813,3.96,3.96,0,0,0,3.313-1.536l1.8,2.019a5.508,5.508,0,0,1-2.234,1.822A7.331,7.331,0,0,1,295.661,27.254Zm-.419-11.286a2.293,2.293,0,0,0-1.771.74,3.83,3.83,0,0,0-.87,2.117h5.1v-.293a2.731,2.731,0,0,0-.66-1.894A2.365,2.365,0,0,0,295.242,15.968Zm29.491,8.7a6.611,6.611,0,0,1-2.907,1.911,12.175,12.175,0,0,1-4.164.679,8.249,8.249,0,0,1-4.208-1.047,6.986,6.986,0,0,1-2.793-3.041,10.7,10.7,0,0,1-1.009-4.685V17.225a11.365,11.365,0,0,1,.933-4.792,6.9,6.9,0,0,1,2.691-3.1,8.861,8.861,0,0,1,9.261.5,6.7,6.7,0,0,1,2.2,4.564h-3.707A3.686,3.686,0,0,0,319.9,12.07a3.588,3.588,0,0,0-2.393-.736,3.377,3.377,0,0,0-2.958,1.46,7.677,7.677,0,0,0-1.028,4.342v1.181a7.308,7.308,0,0,0,1.1,4.393,3.782,3.782,0,0,0,3.237,1.485,4.225,4.225,0,0,0,3.06-.914V20.094h-3.466V17.288h7.274ZM327.006,20a8.146,8.146,0,0,1,.787-3.644,5.762,5.762,0,0,1,2.266-2.476,6.611,6.611,0,0,1,3.434-.876,6.255,6.255,0,0,1,4.539,1.7,6.827,6.827,0,0,1,1.961,4.621l.025.939a7.18,7.18,0,0,1-1.765,5.072,6.839,6.839,0,0,1-9.477.006,7.306,7.306,0,0,1-1.771-5.18Zm3.669.26a5.135,5.135,0,0,0,.736,2.994,2.645,2.645,0,0,0,4.189.013A5.618,5.618,0,0,0,336.35,20a5.083,5.083,0,0,0-.749-2.975,2.435,2.435,0,0,0-2.107-1.055,2.4,2.4,0,0,0-2.082,1.049A5.713,5.713,0,0,0,330.675,20.265ZM341.707,20a8.146,8.146,0,0,1,.787-3.644,5.762,5.762,0,0,1,2.266-2.476,6.611,6.611,0,0,1,3.434-.876,6.255,6.255,0,0,1,4.539,1.7,6.827,6.827,0,0,1,1.961,4.621l.025.939a7.18,7.18,0,0,1-1.765,5.072,6.839,6.839,0,0,1-9.477.006,7.306,7.306,0,0,1-1.771-5.18Zm3.669.26a5.135,5.135,0,0,0,.736,2.994,2.645,2.645,0,0,0,4.189.013A5.618,5.618,0,0,0,351.051,20a5.083,5.083,0,0,0-.749-2.975,2.435,2.435,0,0,0-2.107-1.055,2.4,2.4,0,0,0-2.082,1.049A5.713,5.713,0,0,0,345.376,20.265Zm11.07-.235a8.05,8.05,0,0,1,1.5-5.091,4.875,4.875,0,0,1,4.056-1.93,4.275,4.275,0,0,1,3.517,1.549l.152-1.295H369V26.543a5.871,5.871,0,0,1-.819,3.136,5.259,5.259,0,0,1-2.3,2.031,8.1,8.1,0,0,1-3.479.7,7.532,7.532,0,0,1-2.945-.6,5.227,5.227,0,0,1-2.171-1.555l1.625-2.234a4.3,4.3,0,0,0,3.326,1.536,3.146,3.146,0,0,0,2.272-.781,2.929,2.929,0,0,0,.813-2.215v-.736a4.244,4.244,0,0,1-3.339,1.435,4.862,4.862,0,0,1-4.005-1.936,8.048,8.048,0,0,1-1.53-5.135Zm3.669.273a5.013,5.013,0,0,0,.749,2.931,2.383,2.383,0,0,0,2.057,1.062,2.548,2.548,0,0,0,2.4-1.259V17.252a2.542,2.542,0,0,0-2.374-1.259,2.4,2.4,0,0,0-2.076,1.081A5.65,5.65,0,0,0,360.115,20.3ZM375.692,27h-3.682V7.5h3.682Zm9.344.254a6.743,6.743,0,0,1-4.919-1.854,6.588,6.588,0,0,1-1.9-4.938v-.355a8.3,8.3,0,0,1,.8-3.7,5.87,5.87,0,0,1,2.266-2.514,6.36,6.36,0,0,1,3.345-.882,5.7,5.7,0,0,1,4.437,1.777,7.222,7.222,0,0,1,1.619,5.04v1.5h-8.747a3.408,3.408,0,0,0,1.073,2.158,3.243,3.243,0,0,0,2.266.813,3.96,3.96,0,0,0,3.313-1.536l1.8,2.019a5.508,5.508,0,0,1-2.234,1.822A7.331,7.331,0,0,1,385.036,27.254Zm-.419-11.286a2.293,2.293,0,0,0-1.771.74,3.83,3.83,0,0,0-.87,2.117h5.1v-.293a2.731,2.731,0,0,0-.66-1.894A2.365,2.365,0,0,0,384.617,15.968Zm29.377,4.875a6.541,6.541,0,0,1-2.2,4.7,7.736,7.736,0,0,1-5.237,1.714,6.956,6.956,0,0,1-5.592-2.393,9.812,9.812,0,0,1-2.038-6.57v-1.13a11.08,11.08,0,0,1,.939-4.7,7.04,7.04,0,0,1,2.685-3.117,8.391,8.391,0,0,1,9.21.628,7.029,7.029,0,0,1,2.26,4.812h-3.809a3.86,3.86,0,0,0-1-2.6,3.69,3.69,0,0,0-2.609-.806,3.236,3.236,0,0,0-2.85,1.365,7.649,7.649,0,0,0-.971,4.234v1.4a8.186,8.186,0,0,0,.908,4.38,3.176,3.176,0,0,0,2.863,1.384,3.76,3.76,0,0,0,2.634-.806,3.641,3.641,0,0,0,1-2.495ZM420.126,27h-3.682V7.5h3.682Zm2.45-7a8.146,8.146,0,0,1,.787-3.644,5.762,5.762,0,0,1,2.266-2.476,6.611,6.611,0,0,1,3.434-.876,6.255,6.255,0,0,1,4.539,1.7,6.827,6.827,0,0,1,1.961,4.621l.025.939a7.18,7.18,0,0,1-1.765,5.072,6.839,6.839,0,0,1-9.477.006,7.306,7.306,0,0,1-1.771-5.18Zm3.669.26a5.135,5.135,0,0,0,.736,2.994,2.645,2.645,0,0,0,4.189.013A5.618,5.618,0,0,0,431.92,20a5.083,5.083,0,0,0-.749-2.975,2.435,2.435,0,0,0-2.107-1.055,2.4,2.4,0,0,0-2.082,1.049A5.713,5.713,0,0,0,426.245,20.265Zm19.83,5.338a4.6,4.6,0,0,1-3.758,1.65,4.339,4.339,0,0,1-3.371-1.27,5.419,5.419,0,0,1-1.187-3.72v-9h3.669v8.884q0,2.148,1.955,2.148a2.649,2.649,0,0,0,2.564-1.3V13.264h3.682V27h-3.453Zm5.751-5.573a8.278,8.278,0,0,1,1.441-5.116,4.675,4.675,0,0,1,3.942-1.9,4.207,4.207,0,0,1,3.313,1.5V7.5H464.2V27h-3.313l-.178-1.46a4.318,4.318,0,0,1-3.529,1.714,4.663,4.663,0,0,1-3.891-1.911A8.545,8.545,0,0,1,451.826,20.03Zm3.669.273a5.422,5.422,0,0,0,.673,2.963,2.192,2.192,0,0,0,1.955,1.03,2.455,2.455,0,0,0,2.4-1.437V17.43a2.42,2.42,0,0,0-2.374-1.437Q455.5,15.993,455.5,20.3Zm22.077.184V27h-3.809V8.516h7.211a8.343,8.343,0,0,1,3.663.762,5.613,5.613,0,0,1,2.431,2.165,6.036,6.036,0,0,1,.851,3.193,5.307,5.307,0,0,1-1.86,4.285,7.746,7.746,0,0,1-5.148,1.568Zm0-3.085h3.4a3.345,3.345,0,0,0,2.3-.711,2.586,2.586,0,0,0,.793-2.031,3.049,3.049,0,0,0-.8-2.2,2.988,2.988,0,0,0-2.209-.863h-3.491ZM494.165,27h-3.682V7.5h3.682Zm10.981,0a4.074,4.074,0,0,1-.368-1.231,4.439,4.439,0,0,1-3.466,1.485,4.877,4.877,0,0,1-3.345-1.168,3.756,3.756,0,0,1-1.327-2.945,3.882,3.882,0,0,1,1.619-3.352,7.987,7.987,0,0,1,4.678-1.181h1.688v-.787a2.264,2.264,0,0,0-.489-1.523,1.923,1.923,0,0,0-1.542-.571,2.186,2.186,0,0,0-1.454.444,1.51,1.51,0,0,0-.527,1.219h-3.669a3.686,3.686,0,0,1,.736-2.209,4.867,4.867,0,0,1,2.082-1.593,7.588,7.588,0,0,1,3.021-.578,6,6,0,0,1,4.031,1.276,4.463,4.463,0,0,1,1.492,3.586v5.954a6.567,6.567,0,0,0,.546,2.958V27Zm-3.034-2.552a3.16,3.16,0,0,0,1.5-.362,2.376,2.376,0,0,0,1.016-.971V20.754h-1.371q-2.755,0-2.933,1.9l-.013.216a1.469,1.469,0,0,0,.482,1.13A1.874,1.874,0,0,0,502.112,24.448ZM515.519,9.887v3.377h2.349v2.691h-2.349v6.855a1.637,1.637,0,0,0,.292,1.092,1.467,1.467,0,0,0,1.117.33,5.851,5.851,0,0,0,1.079-.089v2.78a7.553,7.553,0,0,1-2.222.33q-3.859,0-3.936-3.9v-7.4h-2.006V13.264h2.006V9.887ZM520.914,27V15.955H518.87V13.264h2.044V12.1a4.742,4.742,0,0,1,1.327-3.586,5.138,5.138,0,0,1,3.713-1.276,8.577,8.577,0,0,1,1.866.254l-.038,2.844a4.677,4.677,0,0,0-1.117-.114q-2.069,0-2.069,1.942v1.1h2.729v2.691H524.6V27Zm7.744-7a8.147,8.147,0,0,1,.787-3.644,5.762,5.762,0,0,1,2.266-2.476,6.611,6.611,0,0,1,3.434-.876,6.255,6.255,0,0,1,4.539,1.7,6.828,6.828,0,0,1,1.961,4.621l.025.939a7.179,7.179,0,0,1-1.765,5.072,6.839,6.839,0,0,1-9.477.006,7.306,7.306,0,0,1-1.771-5.18Zm3.669.26a5.134,5.134,0,0,0,.736,2.994,2.645,2.645,0,0,0,4.189.013A5.619,5.619,0,0,0,538,20a5.083,5.083,0,0,0-.749-2.975,2.435,2.435,0,0,0-2.107-1.055,2.4,2.4,0,0,0-2.082,1.049A5.713,5.713,0,0,0,532.327,20.265ZM551.649,16.7a9.968,9.968,0,0,0-1.32-.1,2.687,2.687,0,0,0-2.729,1.409V27h-3.669V13.264H547.4l.1,1.638a3.4,3.4,0,0,1,3.06-1.892,3.844,3.844,0,0,1,1.143.165Zm5.205-3.44.114,1.536a4.827,4.827,0,0,1,3.948-1.79,3.664,3.664,0,0,1,3.644,2.095,4.716,4.716,0,0,1,4.126-2.095,4.1,4.1,0,0,1,3.326,1.3,5.981,5.981,0,0,1,1.092,3.917V27h-3.682V18.24a2.616,2.616,0,0,0-.457-1.708,2.025,2.025,0,0,0-1.612-.54,2.29,2.29,0,0,0-2.285,1.574L565.081,27h-3.669V18.253a2.584,2.584,0,0,0-.47-1.727,2.045,2.045,0,0,0-1.6-.533,2.378,2.378,0,0,0-2.26,1.295V27h-3.669V13.264Zm25.708,6.221a19.482,19.482,0,0,1,.774-5.535A14.608,14.608,0,0,1,585.622,9.3,8.532,8.532,0,0,1,588.9,6.484l.711,1.98a8.837,8.837,0,0,0-2.895,4.24,19.633,19.633,0,0,0-1.041,6.7V19.8A20.008,20.008,0,0,0,586.7,26.53a9.009,9.009,0,0,0,2.907,4.3l-.711,1.942a8.536,8.536,0,0,1-3.218-2.736,14.363,14.363,0,0,1-2.279-4.526,19.369,19.369,0,0,1-.838-5.357Zm23.829,5.18a6.611,6.611,0,0,1-2.907,1.911,12.175,12.175,0,0,1-4.164.679,8.249,8.249,0,0,1-4.208-1.047,6.986,6.986,0,0,1-2.793-3.041,10.7,10.7,0,0,1-1.009-4.685V17.225a11.365,11.365,0,0,1,.933-4.792,6.9,6.9,0,0,1,2.691-3.1,8.861,8.861,0,0,1,9.261.5,6.7,6.7,0,0,1,2.2,4.564h-3.707a3.685,3.685,0,0,0-1.124-2.323,3.588,3.588,0,0,0-2.393-.736,3.377,3.377,0,0,0-2.958,1.46,7.677,7.677,0,0,0-1.028,4.342v1.181a7.308,7.308,0,0,0,1.1,4.393,3.782,3.782,0,0,0,3.237,1.485,4.225,4.225,0,0,0,3.06-.914V20.094h-3.466V17.288h7.274Zm17.6-3.821a6.541,6.541,0,0,1-2.2,4.7,7.736,7.736,0,0,1-5.237,1.714,6.956,6.956,0,0,1-5.592-2.393,9.812,9.812,0,0,1-2.038-6.57v-1.13a11.081,11.081,0,0,1,.939-4.7,7.04,7.04,0,0,1,2.685-3.117,8.391,8.391,0,0,1,9.21.628,7.029,7.029,0,0,1,2.26,4.812H620.2a3.86,3.86,0,0,0-1-2.6,3.69,3.69,0,0,0-2.609-.806,3.236,3.236,0,0,0-2.85,1.365,7.648,7.648,0,0,0-.971,4.234v1.4a8.186,8.186,0,0,0,.908,4.38,3.176,3.176,0,0,0,2.863,1.384,3.76,3.76,0,0,0,2.634-.806,3.641,3.641,0,0,0,1-2.495Zm6.31-.355V27h-3.809V8.516H633.7a8.343,8.343,0,0,1,3.663.762,5.613,5.613,0,0,1,2.431,2.165,6.035,6.035,0,0,1,.851,3.193,5.307,5.307,0,0,1-1.86,4.285,7.746,7.746,0,0,1-5.148,1.568Zm0-3.085h3.4a3.346,3.346,0,0,0,2.3-.711,2.586,2.586,0,0,0,.793-2.031,3.049,3.049,0,0,0-.8-2.2,2.988,2.988,0,0,0-2.209-.863H630.3Zm19.043,2.374a18.488,18.488,0,0,1-.825,5.522,14.991,14.991,0,0,1-2.374,4.685,8.553,8.553,0,0,1-3.313,2.793l-.711-1.942a8.927,8.927,0,0,0,2.844-4.189,19.4,19.4,0,0,0,1.079-6.513v-.673A19.839,19.839,0,0,0,645,12.769a9.306,9.306,0,0,0-2.888-4.342l.711-1.942A8.556,8.556,0,0,1,646.083,9.2a14.8,14.8,0,0,1,2.374,4.583,18.357,18.357,0,0,1,.882,5.421Zm3.8,11.857-1.917-1,.457-.825a6.6,6.6,0,0,0,.876-3.085V23.877h3.1l-.013,2.539a6.6,6.6,0,0,1-.711,2.844A7.291,7.291,0,0,1,653.136,31.634Zm19.31-8.43a1.182,1.182,0,0,0-.667-1.06,7.571,7.571,0,0,0-2.139-.692q-4.9-1.028-4.9-4.164a3.774,3.774,0,0,1,1.517-3.053,6.12,6.12,0,0,1,3.967-1.225,6.587,6.587,0,0,1,4.183,1.231,3.881,3.881,0,0,1,1.568,3.2h-3.669a1.775,1.775,0,0,0-.508-1.3,2.149,2.149,0,0,0-1.587-.514,2.2,2.2,0,0,0-1.435.419,1.322,1.322,0,0,0-.508,1.066,1.131,1.131,0,0,0,.578.984,5.942,5.942,0,0,0,1.949.647,15.916,15.916,0,0,1,2.311.616q2.907,1.066,2.907,3.694a3.583,3.583,0,0,1-1.612,3.041,6.955,6.955,0,0,1-4.164,1.162,7.264,7.264,0,0,1-3.066-.616,5.144,5.144,0,0,1-2.1-1.688,3.923,3.923,0,0,1-.762-2.317h3.479a1.916,1.916,0,0,0,.724,1.5,2.87,2.87,0,0,0,1.8.521,2.657,2.657,0,0,0,1.593-.4A1.244,1.244,0,0,0,672.445,23.2Zm12.251,4.05a6.743,6.743,0,0,1-4.919-1.854,6.588,6.588,0,0,1-1.9-4.938v-.355a8.3,8.3,0,0,1,.8-3.7,5.87,5.87,0,0,1,2.266-2.514,6.36,6.36,0,0,1,3.345-.882,5.7,5.7,0,0,1,4.437,1.777,7.222,7.222,0,0,1,1.619,5.04v1.5H681.6a3.408,3.408,0,0,0,1.073,2.158,3.243,3.243,0,0,0,2.266.813,3.96,3.96,0,0,0,3.313-1.536l1.8,2.019a5.508,5.508,0,0,1-2.234,1.822A7.331,7.331,0,0,1,684.7,27.254Zm-.419-11.286a2.293,2.293,0,0,0-1.771.74,3.83,3.83,0,0,0-.87,2.117h5.1v-.293a2.731,2.731,0,0,0-.66-1.894A2.365,2.365,0,0,0,684.277,15.968Zm14.054,4.063a8.278,8.278,0,0,1,1.441-5.116,4.675,4.675,0,0,1,3.942-1.9,4.207,4.207,0,0,1,3.313,1.5V7.5h3.682V27H707.4l-.178-1.46a4.318,4.318,0,0,1-3.529,1.714,4.663,4.663,0,0,1-3.891-1.911A8.545,8.545,0,0,1,698.331,20.03ZM702,20.3a5.423,5.423,0,0,0,.673,2.963,2.192,2.192,0,0,0,1.955,1.03,2.455,2.455,0,0,0,2.4-1.437V17.43a2.42,2.42,0,0,0-2.374-1.437Q702,15.993,702,20.3Zm17.875,6.95a6.743,6.743,0,0,1-4.919-1.854,6.588,6.588,0,0,1-1.9-4.938v-.355a8.3,8.3,0,0,1,.8-3.7,5.87,5.87,0,0,1,2.266-2.514,6.36,6.36,0,0,1,3.345-.882,5.7,5.7,0,0,1,4.437,1.777,7.222,7.222,0,0,1,1.619,5.04v1.5h-8.747a3.408,3.408,0,0,0,1.073,2.158,3.243,3.243,0,0,0,2.266.813,3.96,3.96,0,0,0,3.313-1.536l1.8,2.019A5.508,5.508,0,0,1,723,26.6,7.331,7.331,0,0,1,719.875,27.254Zm-.419-11.286a2.293,2.293,0,0,0-1.771.74,3.83,3.83,0,0,0-.87,2.117h5.1v-.293a2.731,2.731,0,0,0-.66-1.894A2.365,2.365,0,0,0,719.456,15.968Zm15.59,7.236a1.182,1.182,0,0,0-.667-1.06,7.571,7.571,0,0,0-2.139-.692q-4.9-1.028-4.9-4.164a3.774,3.774,0,0,1,1.517-3.053,6.12,6.12,0,0,1,3.967-1.225,6.587,6.587,0,0,1,4.183,1.231,3.881,3.881,0,0,1,1.568,3.2h-3.669a1.775,1.775,0,0,0-.508-1.3,2.149,2.149,0,0,0-1.587-.514,2.2,2.2,0,0,0-1.435.419,1.322,1.322,0,0,0-.508,1.066,1.131,1.131,0,0,0,.578.984,5.942,5.942,0,0,0,1.949.647,15.916,15.916,0,0,1,2.311.616q2.907,1.066,2.907,3.694A3.583,3.583,0,0,1,737,26.092a6.955,6.955,0,0,1-4.164,1.162,7.264,7.264,0,0,1-3.066-.616,5.144,5.144,0,0,1-2.1-1.688,3.923,3.923,0,0,1-.762-2.317h3.479a1.916,1.916,0,0,0,.724,1.5,2.87,2.87,0,0,0,1.8.521,2.657,2.657,0,0,0,1.593-.4A1.244,1.244,0,0,0,735.046,23.2ZM745.367,9.887v3.377h2.349v2.691h-2.349v6.855a1.637,1.637,0,0,0,.292,1.092,1.467,1.467,0,0,0,1.117.33,5.851,5.851,0,0,0,1.079-.089v2.78a7.553,7.553,0,0,1-2.222.33q-3.859,0-3.936-3.9v-7.4h-2.006V13.264H741.7V9.887ZM757.72,27a4.075,4.075,0,0,1-.368-1.231,4.439,4.439,0,0,1-3.466,1.485,4.877,4.877,0,0,1-3.345-1.168,3.756,3.756,0,0,1-1.327-2.945,3.882,3.882,0,0,1,1.619-3.352,7.987,7.987,0,0,1,4.678-1.181H757.2v-.787a2.264,2.264,0,0,0-.489-1.523,1.923,1.923,0,0,0-1.542-.571,2.186,2.186,0,0,0-1.454.444,1.509,1.509,0,0,0-.527,1.219h-3.669a3.685,3.685,0,0,1,.736-2.209,4.867,4.867,0,0,1,2.082-1.593,7.588,7.588,0,0,1,3.021-.578,6,6,0,0,1,4.031,1.276,4.463,4.463,0,0,1,1.492,3.586v5.954a6.567,6.567,0,0,0,.546,2.958V27Zm-3.034-2.552a3.16,3.16,0,0,0,1.5-.362,2.376,2.376,0,0,0,1.016-.971V20.754h-1.371q-2.755,0-2.933,1.9l-.013.216a1.469,1.469,0,0,0,.482,1.13A1.874,1.874,0,0,0,754.686,24.448Zm14.727-.152a2.406,2.406,0,0,0,1.65-.559,1.957,1.957,0,0,0,.66-1.485h3.44a4.707,4.707,0,0,1-.762,2.558,5.026,5.026,0,0,1-2.05,1.8,6.417,6.417,0,0,1-2.875.641,5.963,5.963,0,0,1-4.646-1.873,7.41,7.41,0,0,1-1.7-5.173v-.241a7.325,7.325,0,0,1,1.688-5.065,5.894,5.894,0,0,1,4.634-1.892,5.778,5.778,0,0,1,4.132,1.466,5.192,5.192,0,0,1,1.581,3.9h-3.44a2.521,2.521,0,0,0-.66-1.742,2.454,2.454,0,0,0-3.612.264,5.416,5.416,0,0,0-.654,3.032v.381a5.485,5.485,0,0,0,.647,3.052A2.237,2.237,0,0,0,769.412,24.3ZM785.218,27a4.075,4.075,0,0,1-.368-1.231,4.439,4.439,0,0,1-3.466,1.485,4.877,4.877,0,0,1-3.345-1.168,3.756,3.756,0,0,1-1.327-2.945,3.882,3.882,0,0,1,1.619-3.352,7.987,7.987,0,0,1,4.678-1.181H784.7v-.787a2.264,2.264,0,0,0-.489-1.523,1.923,1.923,0,0,0-1.542-.571,2.186,2.186,0,0,0-1.454.444,1.509,1.509,0,0,0-.527,1.219h-3.669a3.685,3.685,0,0,1,.736-2.209,4.867,4.867,0,0,1,2.082-1.593,7.588,7.588,0,0,1,3.021-.578,6,6,0,0,1,4.031,1.276,4.463,4.463,0,0,1,1.492,3.586v5.954a6.567,6.567,0,0,0,.546,2.958V27Zm-3.034-2.552a3.16,3.16,0,0,0,1.5-.362,2.376,2.376,0,0,0,1.016-.971V20.754h-1.371q-2.755,0-2.933,1.9l-.013.216a1.469,1.469,0,0,0,.482,1.13A1.874,1.874,0,0,0,782.184,24.448Zm12.391-11.185.114,1.587a4.8,4.8,0,0,1,3.948-1.841,3.986,3.986,0,0,1,3.25,1.282,5.982,5.982,0,0,1,1.092,3.834V27H799.31V18.215a2.38,2.38,0,0,0-.508-1.695,2.273,2.273,0,0,0-1.688-.527,2.524,2.524,0,0,0-2.323,1.32V27h-3.669V13.264ZM816.105,27h-3.682V7.5h3.682Zm2.45-7a8.147,8.147,0,0,1,.787-3.644,5.762,5.762,0,0,1,2.266-2.476,6.611,6.611,0,0,1,3.434-.876,6.255,6.255,0,0,1,4.539,1.7,6.828,6.828,0,0,1,1.961,4.621l.025.939a7.179,7.179,0,0,1-1.765,5.072,6.839,6.839,0,0,1-9.477.006,7.306,7.306,0,0,1-1.771-5.18Zm3.669.26a5.134,5.134,0,0,0,.736,2.994,2.645,2.645,0,0,0,4.189.013A5.619,5.619,0,0,0,827.9,20a5.083,5.083,0,0,0-.749-2.975,2.435,2.435,0,0,0-2.107-1.055,2.4,2.4,0,0,0-2.082,1.049A5.713,5.713,0,0,0,822.225,20.265ZM841.268,23.2a1.182,1.182,0,0,0-.667-1.06,7.571,7.571,0,0,0-2.139-.692q-4.9-1.028-4.9-4.164a3.774,3.774,0,0,1,1.517-3.053,6.12,6.12,0,0,1,3.967-1.225,6.587,6.587,0,0,1,4.183,1.231,3.881,3.881,0,0,1,1.568,3.2h-3.669a1.775,1.775,0,0,0-.508-1.3,2.149,2.149,0,0,0-1.587-.514,2.2,2.2,0,0,0-1.435.419,1.322,1.322,0,0,0-.508,1.066,1.131,1.131,0,0,0,.578.984,5.942,5.942,0,0,0,1.949.647,15.916,15.916,0,0,1,2.311.616q2.907,1.066,2.907,3.694a3.583,3.583,0,0,1-1.612,3.041,6.955,6.955,0,0,1-4.164,1.162,7.264,7.264,0,0,1-3.066-.616,5.144,5.144,0,0,1-2.1-1.688,3.923,3.923,0,0,1-.762-2.317h3.479a1.916,1.916,0,0,0,.724,1.5,2.87,2.87,0,0,0,1.8.521,2.657,2.657,0,0,0,1.593-.4A1.244,1.244,0,0,0,841.268,23.2Zm19.843,0a1.182,1.182,0,0,0-.667-1.06,7.571,7.571,0,0,0-2.139-.692q-4.9-1.028-4.9-4.164a3.774,3.774,0,0,1,1.517-3.053,6.12,6.12,0,0,1,3.967-1.225,6.587,6.587,0,0,1,4.183,1.231,3.881,3.881,0,0,1,1.568,3.2h-3.669a1.775,1.775,0,0,0-.508-1.3,2.149,2.149,0,0,0-1.587-.514,2.2,2.2,0,0,0-1.435.419,1.322,1.322,0,0,0-.508,1.066,1.131,1.131,0,0,0,.578.984,5.942,5.942,0,0,0,1.949.647,15.916,15.916,0,0,1,2.311.616q2.907,1.066,2.907,3.694a3.583,3.583,0,0,1-1.612,3.041,6.955,6.955,0,0,1-4.164,1.162,7.264,7.264,0,0,1-3.066-.616,5.144,5.144,0,0,1-2.1-1.688,3.923,3.923,0,0,1-.762-2.317h3.479a1.916,1.916,0,0,0,.724,1.5,2.87,2.87,0,0,0,1.8.521,2.657,2.657,0,0,0,1.593-.4A1.244,1.244,0,0,0,861.11,23.2Zm9.8,3.8h-3.682V13.264h3.682Zm-3.9-17.291a1.807,1.807,0,0,1,.552-1.358,2.38,2.38,0,0,1,3,0,1.8,1.8,0,0,1,.559,1.358,1.8,1.8,0,0,1-.565,1.371,2.353,2.353,0,0,1-2.983,0A1.8,1.8,0,0,1,867.014,9.709ZM873.4,20.03a8.05,8.05,0,0,1,1.5-5.091,4.875,4.875,0,0,1,4.056-1.93,4.275,4.275,0,0,1,3.517,1.549l.152-1.295h3.326V26.543a5.871,5.871,0,0,1-.819,3.136,5.259,5.259,0,0,1-2.3,2.031,8.1,8.1,0,0,1-3.479.7,7.532,7.532,0,0,1-2.945-.6,5.228,5.228,0,0,1-2.171-1.555l1.625-2.234a4.3,4.3,0,0,0,3.326,1.536,3.146,3.146,0,0,0,2.272-.781,2.928,2.928,0,0,0,.813-2.215v-.736a4.244,4.244,0,0,1-3.339,1.435,4.862,4.862,0,0,1-4.005-1.936,8.048,8.048,0,0,1-1.53-5.135Zm3.669.273a5.013,5.013,0,0,0,.749,2.931,2.383,2.383,0,0,0,2.057,1.062,2.548,2.548,0,0,0,2.4-1.259V17.252a2.542,2.542,0,0,0-2.374-1.259,2.4,2.4,0,0,0-2.076,1.081A5.65,5.65,0,0,0,877.068,20.3ZM897,25.6a4.6,4.6,0,0,1-3.758,1.65,4.339,4.339,0,0,1-3.371-1.27,5.419,5.419,0,0,1-1.187-3.72v-9h3.669v8.884q0,2.148,1.955,2.148a2.649,2.649,0,0,0,2.564-1.3V13.264h3.682V27H897.1ZM907.194,27h-3.682V13.264h3.682ZM903.3,9.709a1.807,1.807,0,0,1,.552-1.358,2.38,2.38,0,0,1,3,0,1.8,1.8,0,0,1,.559,1.358,1.8,1.8,0,0,1-.565,1.371,2.353,2.353,0,0,1-2.983,0A1.8,1.8,0,0,1,903.3,9.709Zm13.241,17.545a6.743,6.743,0,0,1-4.919-1.854,6.588,6.588,0,0,1-1.9-4.938v-.355a8.3,8.3,0,0,1,.8-3.7,5.87,5.87,0,0,1,2.266-2.514,6.36,6.36,0,0,1,3.345-.882,5.7,5.7,0,0,1,4.437,1.777,7.222,7.222,0,0,1,1.619,5.04v1.5H913.44a3.408,3.408,0,0,0,1.073,2.158,3.243,3.243,0,0,0,2.266.813,3.96,3.96,0,0,0,3.313-1.536l1.8,2.019a5.508,5.508,0,0,1-2.234,1.822A7.331,7.331,0,0,1,916.538,27.254Zm-.419-11.286a2.293,2.293,0,0,0-1.771.74,3.83,3.83,0,0,0-.87,2.117h5.1v-.293a2.731,2.731,0,0,0-.66-1.894A2.365,2.365,0,0,0,916.119,15.968Zm11.527-2.7.114,1.587a4.8,4.8,0,0,1,3.948-1.841,3.986,3.986,0,0,1,3.25,1.282,5.982,5.982,0,0,1,1.092,3.834V27h-3.669V18.215a2.38,2.38,0,0,0-.508-1.695,2.273,2.273,0,0,0-1.688-.527,2.524,2.524,0,0,0-2.323,1.32V27h-3.669V13.264Zm15.577-3.377v3.377h2.349v2.691h-2.349v6.855a1.637,1.637,0,0,0,.292,1.092,1.467,1.467,0,0,0,1.117.33,5.851,5.851,0,0,0,1.079-.089v2.78a7.553,7.553,0,0,1-2.222.33q-3.859,0-3.936-3.9v-7.4h-2.006V13.264h2.006V9.887Zm10.715,17.367a6.743,6.743,0,0,1-4.919-1.854,6.588,6.588,0,0,1-1.9-4.938v-.355a8.3,8.3,0,0,1,.8-3.7,5.87,5.87,0,0,1,2.266-2.514,6.36,6.36,0,0,1,3.345-.882,5.7,5.7,0,0,1,4.437,1.777,7.222,7.222,0,0,1,1.619,5.04v1.5h-8.747a3.408,3.408,0,0,0,1.073,2.158,3.243,3.243,0,0,0,2.266.813,3.96,3.96,0,0,0,3.313-1.536l1.8,2.019a5.508,5.508,0,0,1-2.234,1.822A7.331,7.331,0,0,1,953.938,27.254Zm-.419-11.286a2.293,2.293,0,0,0-1.771.74,3.83,3.83,0,0,0-.87,2.117h5.1v-.293a2.731,2.731,0,0,0-.66-1.894A2.365,2.365,0,0,0,953.52,15.968Zm15.59,7.236a1.182,1.182,0,0,0-.667-1.06,7.571,7.571,0,0,0-2.139-.692q-4.9-1.028-4.9-4.164a3.774,3.774,0,0,1,1.517-3.053,6.12,6.12,0,0,1,3.967-1.225,6.587,6.587,0,0,1,4.183,1.231,3.881,3.881,0,0,1,1.568,3.2H968.97a1.775,1.775,0,0,0-.508-1.3,2.149,2.149,0,0,0-1.587-.514,2.2,2.2,0,0,0-1.435.419,1.322,1.322,0,0,0-.508,1.066,1.131,1.131,0,0,0,.578.984,5.942,5.942,0,0,0,1.949.647,15.916,15.916,0,0,1,2.311.616q2.907,1.066,2.907,3.694a3.583,3.583,0,0,1-1.612,3.041,6.955,6.955,0,0,1-4.164,1.162,7.264,7.264,0,0,1-3.066-.616,5.144,5.144,0,0,1-2.1-1.688,3.923,3.923,0,0,1-.762-2.317h3.479a1.916,1.916,0,0,0,.724,1.5,2.87,2.87,0,0,0,1.8.521,2.657,2.657,0,0,0,1.593-.4A1.244,1.244,0,0,0,969.109,23.2Zm6.881,8.43-1.917-1,.457-.825a6.6,6.6,0,0,0,.876-3.085V23.877h3.1l-.013,2.539a6.6,6.6,0,0,1-.711,2.844A7.291,7.291,0,0,1,975.99,31.634ZM993,22.519l2.552-9.255h3.834L994.754,27h-3.5l-4.634-13.736h3.834Zm14.32,4.735A6.743,6.743,0,0,1,1002.4,25.4a6.588,6.588,0,0,1-1.9-4.938v-.355a8.3,8.3,0,0,1,.8-3.7,5.87,5.87,0,0,1,2.266-2.514,6.36,6.36,0,0,1,3.345-.882,5.7,5.7,0,0,1,4.437,1.777,7.222,7.222,0,0,1,1.619,5.04v1.5h-8.747a3.408,3.408,0,0,0,1.073,2.158,3.243,3.243,0,0,0,2.266.813,3.96,3.96,0,0,0,3.313-1.536l1.8,2.019a5.508,5.508,0,0,1-2.234,1.822A7.331,7.331,0,0,1,1007.322,27.254Zm-.419-11.286a2.293,2.293,0,0,0-1.771.74,3.83,3.83,0,0,0-.87,2.117h5.1v-.293a2.731,2.731,0,0,0-.66-1.894A2.365,2.365,0,0,0,1006.9,15.968ZM1023.014,27a4.075,4.075,0,0,1-.368-1.231,4.439,4.439,0,0,1-3.466,1.485,4.877,4.877,0,0,1-3.345-1.168,3.756,3.756,0,0,1-1.327-2.945,3.882,3.882,0,0,1,1.619-3.352,7.987,7.987,0,0,1,4.678-1.181h1.688v-.787A2.264,2.264,0,0,0,1022,16.3a1.923,1.923,0,0,0-1.542-.571,2.186,2.186,0,0,0-1.454.444,1.509,1.509,0,0,0-.527,1.219h-3.669a3.685,3.685,0,0,1,.736-2.209,4.867,4.867,0,0,1,2.082-1.593,7.588,7.588,0,0,1,3.021-.578,6,6,0,0,1,4.031,1.276,4.463,4.463,0,0,1,1.492,3.586v5.954a6.566,6.566,0,0,0,.546,2.958V27Zm-3.034-2.552a3.16,3.16,0,0,0,1.5-.362,2.376,2.376,0,0,0,1.016-.971V20.754h-1.371q-2.755,0-2.933,1.9l-.013.216a1.469,1.469,0,0,0,.482,1.13A1.874,1.874,0,0,0,1019.979,24.448Zm12.454-11.185.114,1.536a4.827,4.827,0,0,1,3.948-1.79,3.664,3.664,0,0,1,3.644,2.095,4.716,4.716,0,0,1,4.126-2.095,4.1,4.1,0,0,1,3.326,1.3,5.981,5.981,0,0,1,1.092,3.917V27H1045V18.24a2.616,2.616,0,0,0-.457-1.708,2.025,2.025,0,0,0-1.612-.54,2.29,2.29,0,0,0-2.285,1.574L1040.66,27h-3.669V18.253a2.584,2.584,0,0,0-.47-1.727,2.045,2.045,0,0,0-1.6-.533,2.378,2.378,0,0,0-2.26,1.295V27h-3.669V13.264Zm18.5,6.741a8.146,8.146,0,0,1,.787-3.644,5.763,5.763,0,0,1,2.266-2.476,6.611,6.611,0,0,1,3.434-.876,6.255,6.255,0,0,1,4.539,1.7,6.827,6.827,0,0,1,1.961,4.621l.025.939a7.18,7.18,0,0,1-1.765,5.072,6.839,6.839,0,0,1-9.477.006,7.306,7.306,0,0,1-1.771-5.18Zm3.669.26a5.135,5.135,0,0,0,.736,2.994,2.645,2.645,0,0,0,4.189.013,5.618,5.618,0,0,0,.749-3.274,5.083,5.083,0,0,0-.749-2.975,2.435,2.435,0,0,0-2.107-1.055,2.4,2.4,0,0,0-2.082,1.049A5.713,5.713,0,0,0,1054.6,20.265Zm19.043,2.939a1.182,1.182,0,0,0-.667-1.06,7.57,7.57,0,0,0-2.139-.692q-4.9-1.028-4.9-4.164a3.774,3.774,0,0,1,1.517-3.053,6.12,6.12,0,0,1,3.967-1.225,6.587,6.587,0,0,1,4.183,1.231,3.881,3.881,0,0,1,1.568,3.2H1073.5a1.775,1.775,0,0,0-.508-1.3,2.149,2.149,0,0,0-1.587-.514,2.2,2.2,0,0,0-1.435.419,1.323,1.323,0,0,0-.508,1.066,1.13,1.13,0,0,0,.578.984,5.943,5.943,0,0,0,1.949.647,15.918,15.918,0,0,1,2.311.616q2.907,1.066,2.907,3.694a3.583,3.583,0,0,1-1.612,3.041,6.955,6.955,0,0,1-4.164,1.162,7.265,7.265,0,0,1-3.066-.616,5.144,5.144,0,0,1-2.1-1.688,3.923,3.923,0,0,1-.762-2.317h3.479a1.915,1.915,0,0,0,.724,1.5,2.87,2.87,0,0,0,1.8.521,2.657,2.657,0,0,0,1.593-.4A1.244,1.244,0,0,0,1073.643,23.2Zm6.106,1.993a1.847,1.847,0,0,1,.59-1.422,2.294,2.294,0,0,1,2.971,0,1.847,1.847,0,0,1,.59,1.422,1.822,1.822,0,0,1-.584,1.4,2.332,2.332,0,0,1-2.983,0A1.822,1.822,0,0,1,1079.749,25.2Zm0-10.4a1.847,1.847,0,0,1,.59-1.422,2.294,2.294,0,0,1,2.971,0,1.847,1.847,0,0,1,.59,1.422,1.822,1.822,0,0,1-.584,1.4,2.332,2.332,0,0,1-2.983,0A1.822,1.822,0,0,1,1079.749,14.8Z" transform="translate(264.192 26152.223)" fill="#fff"/>
  </g>
</svg>
