<svg xmlns="http://www.w3.org/2000/svg" xmlns:xlink="http://www.w3.org/1999/xlink" width="1118" height="140" viewBox="0 0 1118 140">
  <defs>
    <filter id="Rectángulo_37326" x="0" y="0" width="166" height="140" filterUnits="userSpaceOnUse">
      <feOffset dy="3" input="SourceAlpha"/>
      <feGaussianBlur stdDeviation="3" result="blur"/>
      <feFlood flood-opacity="0.161"/>
      <feComposite operator="in" in2="blur"/>
      <feComposite in="SourceGraphic"/>
    </filter>
    <filter id="Rectángulo_37327" x="317" y="0" width="167" height="140" filterUnits="userSpaceOnUse">
      <feOffset dy="3" input="SourceAlpha"/>
      <feGaussianBlur stdDeviation="3" result="blur-2"/>
      <feFlood flood-opacity="0.161"/>
      <feComposite operator="in" in2="blur-2"/>
      <feComposite in="SourceGraphic"/>
    </filter>
    <filter id="Rectángulo_37328" x="160" y="0" width="166" height="140" filterUnits="userSpaceOnUse">
      <feOffset dy="3" input="SourceAlpha"/>
      <feGaussianBlur stdDeviation="3" result="blur-3"/>
      <feFlood flood-opacity="0.161"/>
      <feComposite operator="in" in2="blur-3"/>
      <feComposite in="SourceGraphic"/>
    </filter>
    <filter id="Rectángulo_37329" x="477" y="0" width="166" height="140" filterUnits="userSpaceOnUse">
      <feOffset dy="3" input="SourceAlpha"/>
      <feGaussianBlur stdDeviation="3" result="blur-4"/>
      <feFlood flood-opacity="0.161"/>
      <feComposite operator="in" in2="blur-4"/>
      <feComposite in="SourceGraphic"/>
    </filter>
    <filter id="Rectángulo_37330" x="635" y="0" width="166" height="140" filterUnits="userSpaceOnUse">
      <feOffset dy="3" input="SourceAlpha"/>
      <feGaussianBlur stdDeviation="3" result="blur-5"/>
      <feFlood flood-opacity="0.161"/>
      <feComposite operator="in" in2="blur-5"/>
      <feComposite in="SourceGraphic"/>
    </filter>
    <filter id="Rectángulo_37331" x="794" y="0" width="166" height="140" filterUnits="userSpaceOnUse">
      <feOffset dy="3" input="SourceAlpha"/>
      <feGaussianBlur stdDeviation="3" result="blur-6"/>
      <feFlood flood-opacity="0.161"/>
      <feComposite operator="in" in2="blur-6"/>
      <feComposite in="SourceGraphic"/>
    </filter>
    <filter id="Rectángulo_44433" x="952" y="0" width="166" height="140" filterUnits="userSpaceOnUse">
      <feOffset dy="3" input="SourceAlpha"/>
      <feGaussianBlur stdDeviation="3" result="blur-7"/>
      <feFlood flood-opacity="0.161"/>
      <feComposite operator="in" in2="blur-7"/>
      <feComposite in="SourceGraphic"/>
    </filter>
    <linearGradient id="linear-gradient" x1="0.5" x2="0.5" y2="1" gradientUnits="objectBoundingBox">
      <stop offset="0" stop-color="#4dd0e1"/>
      <stop offset="1" stop-color="#039be5"/>
    </linearGradient>
    <clipPath id="clip-path">
      <rect id="Rectángulo_37044" data-name="Rectángulo 37044" width="35.594" height="39.208" fill="#12263f"/>
    </clipPath>
    <clipPath id="clip-path-2">
      <rect id="Rectángulo_37093" data-name="Rectángulo 37093" width="46.099" height="46.099" fill="#12263f"/>
    </clipPath>
  </defs>
  <g id="Grupo_152637" data-name="Grupo 152637" transform="translate(-241.676 -1914)">
    <g id="Grupo_152636" data-name="Grupo 152636">
      <g transform="matrix(1, 0, 0, 1, 241.68, 1914)" filter="url(#Rectángulo_37326)">
        <rect id="Rectángulo_37326-2" data-name="Rectángulo 37326" width="148" height="122" rx="10" transform="translate(9 6)" fill="#fff"/>
      </g>
      <g transform="matrix(1, 0, 0, 1, 241.68, 1914)" filter="url(#Rectángulo_37327)">
        <rect id="Rectángulo_37327-2" data-name="Rectángulo 37327" width="149" height="122" rx="10" transform="translate(326 6)" fill="#fff"/>
      </g>
      <g transform="matrix(1, 0, 0, 1, 241.68, 1914)" filter="url(#Rectángulo_37328)">
        <rect id="Rectángulo_37328-2" data-name="Rectángulo 37328" width="148" height="122" rx="10" transform="translate(169 6)" fill="#fff"/>
      </g>
      <g transform="matrix(1, 0, 0, 1, 241.68, 1914)" filter="url(#Rectángulo_37329)">
        <rect id="Rectángulo_37329-2" data-name="Rectángulo 37329" width="148" height="122" rx="10" transform="translate(486 6)" fill="#fff"/>
      </g>
      <g transform="matrix(1, 0, 0, 1, 241.68, 1914)" filter="url(#Rectángulo_37330)">
        <rect id="Rectángulo_37330-2" data-name="Rectángulo 37330" width="148" height="122" rx="10" transform="translate(644 6)" fill="#fff"/>
      </g>
      <g transform="matrix(1, 0, 0, 1, 241.68, 1914)" filter="url(#Rectángulo_37331)">
        <rect id="Rectángulo_37331-2" data-name="Rectángulo 37331" width="148" height="122" rx="10" transform="translate(803 6)" fill="#fff"/>
      </g>
      <g transform="matrix(1, 0, 0, 1, 241.68, 1914)" filter="url(#Rectángulo_44433)">
        <rect id="Rectángulo_44433-2" data-name="Rectángulo 44433" width="148" height="122" rx="10" transform="translate(961 6)" fill="#fff"/>
      </g>
      <path id="Trazado_195416" data-name="Trazado 195416" d="M41.852,12.836H39.984V17H37.641V5.625h4.227a4.778,4.778,0,0,1,3.109.9A3.1,3.1,0,0,1,46.07,9.063a3.5,3.5,0,0,1-.5,1.941,3.437,3.437,0,0,1-1.527,1.238L46.5,16.891V17H43.984Zm-1.867-1.9h1.891a1.936,1.936,0,0,0,1.367-.449,1.606,1.606,0,0,0,.484-1.238,1.719,1.719,0,0,0-.457-1.266,1.9,1.9,0,0,0-1.4-.461H39.984Zm11.609,6.219a4.15,4.15,0,0,1-3.027-1.141A4.054,4.054,0,0,1,47.4,12.977v-.219a5.106,5.106,0,0,1,.492-2.277,3.612,3.612,0,0,1,1.395-1.547,3.914,3.914,0,0,1,2.059-.543,3.508,3.508,0,0,1,2.73,1.094,4.444,4.444,0,0,1,1,3.1v.922H49.688a2.1,2.1,0,0,0,.66,1.328,2,2,0,0,0,1.395.5,2.437,2.437,0,0,0,2.039-.945l1.109,1.242a3.389,3.389,0,0,1-1.375,1.121A4.511,4.511,0,0,1,51.594,17.156Zm-.258-6.945a1.411,1.411,0,0,0-1.09.455,2.357,2.357,0,0,0-.535,1.3h3.141v-.181a1.681,1.681,0,0,0-.406-1.165A1.456,1.456,0,0,0,51.336,10.211ZM56,12.711a5.094,5.094,0,0,1,.887-3.148,2.877,2.877,0,0,1,2.426-1.172,2.589,2.589,0,0,1,2.039.922V5h2.266V17H61.578l-.109-.9A2.657,2.657,0,0,1,59.3,17.156,2.869,2.869,0,0,1,56.9,15.98,5.258,5.258,0,0,1,56,12.711Zm2.258.168a3.337,3.337,0,0,0,.414,1.823,1.349,1.349,0,0,0,1.2.634,1.511,1.511,0,0,0,1.477-.884V11.111a1.489,1.489,0,0,0-1.461-.884Q58.258,10.227,58.258,12.879Zm11,4.277a4.15,4.15,0,0,1-3.027-1.141,4.054,4.054,0,0,1-1.168-3.039v-.219a5.106,5.106,0,0,1,.492-2.277,3.612,3.612,0,0,1,1.395-1.547,3.914,3.914,0,0,1,2.059-.543,3.508,3.508,0,0,1,2.73,1.094,4.444,4.444,0,0,1,1,3.1v.922H67.352a2.1,2.1,0,0,0,.66,1.328,2,2,0,0,0,1.395.5,2.437,2.437,0,0,0,2.039-.945l1.109,1.242a3.389,3.389,0,0,1-1.375,1.121A4.511,4.511,0,0,1,69.258,17.156ZM69,10.211a1.411,1.411,0,0,0-1.09.455,2.357,2.357,0,0,0-.535,1.3h3.141v-.181a1.681,1.681,0,0,0-.406-1.165A1.456,1.456,0,0,0,69,10.211Zm9.594,4.453a.727.727,0,0,0-.41-.652,4.659,4.659,0,0,0-1.316-.426q-3.016-.633-3.016-2.562a2.323,2.323,0,0,1,.934-1.879,3.766,3.766,0,0,1,2.441-.754,4.053,4.053,0,0,1,2.574.758,2.388,2.388,0,0,1,.965,1.969H78.508a1.092,1.092,0,0,0-.312-.8A1.322,1.322,0,0,0,77.219,10a1.351,1.351,0,0,0-.883.258.814.814,0,0,0-.312.656.7.7,0,0,0,.355.605,3.657,3.657,0,0,0,1.2.4A9.8,9.8,0,0,1,79,12.3a2.336,2.336,0,0,1,1.789,2.273,2.2,2.2,0,0,1-.992,1.871,4.28,4.28,0,0,1-2.562.715,4.47,4.47,0,0,1-1.887-.379,3.166,3.166,0,0,1-1.293-1.039,2.414,2.414,0,0,1-.469-1.426h2.141a1.179,1.179,0,0,0,.445.922,1.766,1.766,0,0,0,1.109.32,1.635,1.635,0,0,0,.98-.246A.766.766,0,0,0,78.594,14.664ZM28.672,30.711a5.094,5.094,0,0,1,.887-3.148,2.877,2.877,0,0,1,2.426-1.172,2.589,2.589,0,0,1,2.039.922V23h2.266V35H34.25l-.109-.9a2.657,2.657,0,0,1-2.172,1.055,2.869,2.869,0,0,1-2.395-1.176A5.258,5.258,0,0,1,28.672,30.711Zm2.258.168a3.337,3.337,0,0,0,.414,1.823,1.349,1.349,0,0,0,1.2.634,1.511,1.511,0,0,0,1.477-.884V29.111a1.489,1.489,0,0,0-1.461-.884Q30.93,28.227,30.93,30.879Zm11,4.277A4.15,4.15,0,0,1,38.9,34.016a4.054,4.054,0,0,1-1.168-3.039v-.219a5.106,5.106,0,0,1,.492-2.277,3.612,3.612,0,0,1,1.395-1.547,3.914,3.914,0,0,1,2.059-.543,3.508,3.508,0,0,1,2.73,1.094,4.444,4.444,0,0,1,1,3.1v.922H40.023a2.1,2.1,0,0,0,.66,1.328,2,2,0,0,0,1.395.5,2.437,2.437,0,0,0,2.039-.945l1.109,1.242a3.389,3.389,0,0,1-1.375,1.121A4.511,4.511,0,0,1,41.93,35.156Zm-.258-6.945a1.411,1.411,0,0,0-1.09.455,2.357,2.357,0,0,0-.535,1.3h3.141v-.181a1.681,1.681,0,0,0-.406-1.165A1.456,1.456,0,0,0,41.672,28.211Zm8.648,2.5a5.094,5.094,0,0,1,.887-3.148,2.877,2.877,0,0,1,2.426-1.172,2.589,2.589,0,0,1,2.039.922V23h2.266V35H55.9l-.109-.9a2.657,2.657,0,0,1-2.172,1.055,2.869,2.869,0,0,1-2.395-1.176A5.258,5.258,0,0,1,50.32,30.711Zm2.258.168a3.337,3.337,0,0,0,.414,1.823,1.349,1.349,0,0,0,1.2.634,1.511,1.511,0,0,0,1.477-.884V29.111a1.489,1.489,0,0,0-1.461-.884Q52.578,28.227,52.578,30.879ZM64.586,35a2.507,2.507,0,0,1-.227-.758,2.732,2.732,0,0,1-2.133.914,3,3,0,0,1-2.059-.719,2.312,2.312,0,0,1-.816-1.812,2.389,2.389,0,0,1,1-2.062,4.915,4.915,0,0,1,2.879-.727h1.039v-.484a1.393,1.393,0,0,0-.3-.937,1.183,1.183,0,0,0-.949-.352,1.345,1.345,0,0,0-.895.273.929.929,0,0,0-.324.75H59.539a2.268,2.268,0,0,1,.453-1.359,3,3,0,0,1,1.281-.98,4.669,4.669,0,0,1,1.859-.355,3.689,3.689,0,0,1,2.48.785,2.747,2.747,0,0,1,.918,2.207v3.664a4.041,4.041,0,0,0,.336,1.82V35Zm-1.867-1.57a1.945,1.945,0,0,0,.922-.223,1.462,1.462,0,0,0,.625-.6V31.156h-.844q-1.7,0-1.8,1.172l-.008.133a.9.9,0,0,0,.3.7A1.153,1.153,0,0,0,62.719,33.43Zm8.25-8.961v2.078h1.445V28.2H70.969v4.219a1.007,1.007,0,0,0,.18.672.9.9,0,0,0,.688.2,3.6,3.6,0,0,0,.664-.055v1.711a4.648,4.648,0,0,1-1.367.2,2.156,2.156,0,0,1-2.422-2.4V28.2H67.477V26.547h1.234V24.469ZM73.086,30.7a5.013,5.013,0,0,1,.484-2.242,3.546,3.546,0,0,1,1.395-1.523,4.069,4.069,0,0,1,2.113-.539,3.849,3.849,0,0,1,2.793,1.047,4.2,4.2,0,0,1,1.207,2.844l.016.578a4.418,4.418,0,0,1-1.086,3.121,4.209,4.209,0,0,1-5.832,0,4.5,4.5,0,0,1-1.09-3.187Zm2.258.16A3.16,3.16,0,0,0,75.8,32.7a1.628,1.628,0,0,0,2.578.008,3.457,3.457,0,0,0,.461-2.015,3.128,3.128,0,0,0-.461-1.831,1.5,1.5,0,0,0-1.3-.649,1.474,1.474,0,0,0-1.281.646A3.516,3.516,0,0,0,75.344,30.856Zm11.719,1.808a.727.727,0,0,0-.41-.652,4.659,4.659,0,0,0-1.316-.426q-3.016-.633-3.016-2.562a2.323,2.323,0,0,1,.934-1.879,3.766,3.766,0,0,1,2.441-.754,4.053,4.053,0,0,1,2.574.758,2.388,2.388,0,0,1,.965,1.969H86.977a1.092,1.092,0,0,0-.312-.8A1.322,1.322,0,0,0,85.688,28a1.351,1.351,0,0,0-.883.258.814.814,0,0,0-.312.656.7.7,0,0,0,.355.605,3.657,3.657,0,0,0,1.2.4,9.8,9.8,0,0,1,1.422.379,2.336,2.336,0,0,1,1.789,2.273,2.2,2.2,0,0,1-.992,1.871,4.28,4.28,0,0,1-2.562.715,4.47,4.47,0,0,1-1.887-.379,3.166,3.166,0,0,1-1.293-1.039,2.414,2.414,0,0,1-.469-1.426H84.2a1.179,1.179,0,0,0,.445.922,1.766,1.766,0,0,0,1.109.32,1.635,1.635,0,0,0,.98-.246A.766.766,0,0,0,87.063,32.664Z" transform="translate(261.676 1996)" fill="#12263f"/>
      <path id="Trazado_195418" data-name="Trazado 195418" d="M35.246,5.625l2.922,8.25,2.906-8.25h3.078V17H41.8V13.891l.234-5.367L38.965,17H37.355L34.293,8.531l.234,5.359V17H32.184V5.625ZM45.7,12.7a5.013,5.013,0,0,1,.484-2.242A3.546,3.546,0,0,1,47.578,8.93a4.069,4.069,0,0,1,2.113-.539,3.849,3.849,0,0,1,2.793,1.047,4.2,4.2,0,0,1,1.207,2.844l.016.578a4.418,4.418,0,0,1-1.086,3.121,4.209,4.209,0,0,1-5.832,0A4.5,4.5,0,0,1,45.7,12.8Zm2.258.16A3.16,3.16,0,0,0,48.41,14.7a1.628,1.628,0,0,0,2.578.008,3.457,3.457,0,0,0,.461-2.015,3.128,3.128,0,0,0-.461-1.831,1.5,1.5,0,0,0-1.3-.649,1.474,1.474,0,0,0-1.281.646A3.516,3.516,0,0,0,47.957,12.856Zm6.789-.145a5.094,5.094,0,0,1,.887-3.148,2.877,2.877,0,0,1,2.426-1.172,2.589,2.589,0,0,1,2.039.922V5h2.266V17H60.324l-.109-.9a2.657,2.657,0,0,1-2.172,1.055,2.869,2.869,0,0,1-2.395-1.176A5.258,5.258,0,0,1,54.746,12.711ZM57,12.879a3.337,3.337,0,0,0,.414,1.823,1.349,1.349,0,0,0,1.2.634,1.511,1.511,0,0,0,1.477-.884V11.111a1.489,1.489,0,0,0-1.461-.884Q57,10.227,57,12.879Zm11,4.277a4.15,4.15,0,0,1-3.027-1.141,4.054,4.054,0,0,1-1.168-3.039v-.219A5.106,5.106,0,0,1,64.3,10.48,3.612,3.612,0,0,1,65.7,8.934a3.914,3.914,0,0,1,2.059-.543,3.508,3.508,0,0,1,2.73,1.094,4.444,4.444,0,0,1,1,3.1v.922H66.1a2.1,2.1,0,0,0,.66,1.328,2,2,0,0,0,1.395.5,2.437,2.437,0,0,0,2.039-.945L71.3,15.633a3.389,3.389,0,0,1-1.375,1.121A4.511,4.511,0,0,1,68,17.156Zm-.258-6.945a1.411,1.411,0,0,0-1.09.455,2.357,2.357,0,0,0-.535,1.3h3.141v-.181a1.681,1.681,0,0,0-.406-1.165A1.456,1.456,0,0,0,67.746,10.211ZM75.145,17H72.879V5h2.266Zm1.508-4.3a5.013,5.013,0,0,1,.484-2.242A3.546,3.546,0,0,1,78.531,8.93a4.069,4.069,0,0,1,2.113-.539,3.849,3.849,0,0,1,2.793,1.047,4.2,4.2,0,0,1,1.207,2.844l.016.578a4.418,4.418,0,0,1-1.086,3.121,4.209,4.209,0,0,1-5.832,0,4.5,4.5,0,0,1-1.09-3.187Zm2.258.16a3.16,3.16,0,0,0,.453,1.843,1.628,1.628,0,0,0,2.578.008,3.457,3.457,0,0,0,.461-2.015,3.128,3.128,0,0,0-.461-1.831,1.5,1.5,0,0,0-1.3-.649,1.474,1.474,0,0,0-1.281.646A3.516,3.516,0,0,0,78.91,12.856Zm10.773-.145a5.094,5.094,0,0,1,.887-3.148A2.877,2.877,0,0,1,93,8.391a2.589,2.589,0,0,1,2.039.922V5H97.3V17H95.262l-.109-.9a2.657,2.657,0,0,1-2.172,1.055,2.869,2.869,0,0,1-2.395-1.176A5.258,5.258,0,0,1,89.684,12.711Zm2.258.168a3.337,3.337,0,0,0,.414,1.823,1.349,1.349,0,0,0,1.2.634,1.511,1.511,0,0,0,1.477-.884V11.111a1.489,1.489,0,0,0-1.461-.884Q91.941,10.227,91.941,12.879Zm11,4.277a4.15,4.15,0,0,1-3.027-1.141,4.054,4.054,0,0,1-1.168-3.039v-.219a5.106,5.106,0,0,1,.492-2.277,3.612,3.612,0,0,1,1.395-1.547,3.914,3.914,0,0,1,2.059-.543,3.508,3.508,0,0,1,2.73,1.094,4.444,4.444,0,0,1,1,3.1v.922h-5.383a2.1,2.1,0,0,0,.66,1.328,2,2,0,0,0,1.395.5,2.437,2.437,0,0,0,2.039-.945l1.109,1.242a3.389,3.389,0,0,1-1.375,1.121A4.511,4.511,0,0,1,102.941,17.156Zm-.258-6.945a1.411,1.411,0,0,0-1.09.455,2.357,2.357,0,0,0-.535,1.3H104.2v-.181a1.681,1.681,0,0,0-.406-1.165A1.456,1.456,0,0,0,102.684,10.211ZM8.3,28.664a6.134,6.134,0,0,0-.812-.062,1.654,1.654,0,0,0-1.68.867V35H3.555V26.547H5.688l.063,1.008a2.092,2.092,0,0,1,1.883-1.164,2.366,2.366,0,0,1,.7.1Zm4.977,6.492a4.15,4.15,0,0,1-3.027-1.141,4.054,4.054,0,0,1-1.168-3.039v-.219a5.106,5.106,0,0,1,.492-2.277,3.612,3.612,0,0,1,1.395-1.547,3.914,3.914,0,0,1,2.059-.543,3.508,3.508,0,0,1,2.73,1.094,4.444,4.444,0,0,1,1,3.1v.922H11.375a2.1,2.1,0,0,0,.66,1.328,2,2,0,0,0,1.395.5,2.437,2.437,0,0,0,2.039-.945l1.109,1.242A3.389,3.389,0,0,1,15.2,34.754,4.511,4.511,0,0,1,13.281,35.156Zm-.258-6.945a1.411,1.411,0,0,0-1.09.455,2.357,2.357,0,0,0-.535,1.3h3.141v-.181a1.681,1.681,0,0,0-.406-1.165A1.456,1.456,0,0,0,13.023,28.211ZM18.656,35V28.2H17.4V26.547h1.258v-.719a2.918,2.918,0,0,1,.816-2.207,3.162,3.162,0,0,1,2.285-.785,5.278,5.278,0,0,1,1.148.156l-.023,1.75a2.878,2.878,0,0,0-.687-.07q-1.273,0-1.273,1.2v.68H22.6V28.2h-1.68V35Zm9.008.156a4.15,4.15,0,0,1-3.027-1.141,4.054,4.054,0,0,1-1.168-3.039v-.219a5.106,5.106,0,0,1,.492-2.277,3.612,3.612,0,0,1,1.395-1.547,3.914,3.914,0,0,1,2.059-.543,3.508,3.508,0,0,1,2.73,1.094,4.444,4.444,0,0,1,1,3.1v.922H25.758a2.1,2.1,0,0,0,.66,1.328,2,2,0,0,0,1.395.5,2.437,2.437,0,0,0,2.039-.945l1.109,1.242a3.389,3.389,0,0,1-1.375,1.121A4.511,4.511,0,0,1,27.664,35.156Zm-.258-6.945a1.411,1.411,0,0,0-1.09.455,2.357,2.357,0,0,0-.535,1.3h3.141v-.181a1.681,1.681,0,0,0-.406-1.165A1.456,1.456,0,0,0,27.406,28.211Zm9.766.453a6.134,6.134,0,0,0-.812-.062,1.654,1.654,0,0,0-1.68.867V35H32.422V26.547h2.133l.063,1.008A2.092,2.092,0,0,1,36.5,26.391a2.366,2.366,0,0,1,.7.1Zm4.977,6.492a4.15,4.15,0,0,1-3.027-1.141,4.054,4.054,0,0,1-1.168-3.039v-.219a5.106,5.106,0,0,1,.492-2.277,3.612,3.612,0,0,1,1.395-1.547,3.914,3.914,0,0,1,2.059-.543,3.508,3.508,0,0,1,2.73,1.094,4.444,4.444,0,0,1,1,3.1v.922H40.242a2.1,2.1,0,0,0,.66,1.328,2,2,0,0,0,1.395.5,2.437,2.437,0,0,0,2.039-.945l1.109,1.242a3.389,3.389,0,0,1-1.375,1.121A4.511,4.511,0,0,1,42.148,35.156Zm-.258-6.945a1.411,1.411,0,0,0-1.09.455,2.357,2.357,0,0,0-.535,1.3h3.141v-.181A1.681,1.681,0,0,0,43,28.623,1.456,1.456,0,0,0,41.891,28.211Zm7.094-1.664.07.977a2.951,2.951,0,0,1,2.43-1.133,2.453,2.453,0,0,1,2,.789,3.682,3.682,0,0,1,.672,2.359V35H51.9V29.594a1.465,1.465,0,0,0-.312-1.043,1.4,1.4,0,0,0-1.039-.324,1.553,1.553,0,0,0-1.43.813V35H46.859V26.547Zm10.4,6.789a1.481,1.481,0,0,0,1.016-.344,1.2,1.2,0,0,0,.406-.914h2.117a2.9,2.9,0,0,1-.469,1.574,3.093,3.093,0,0,1-1.262,1.109,3.949,3.949,0,0,1-1.77.395A3.67,3.67,0,0,1,56.563,34a4.56,4.56,0,0,1-1.047-3.184v-.148a4.508,4.508,0,0,1,1.039-3.117,3.627,3.627,0,0,1,2.852-1.164,3.555,3.555,0,0,1,2.543.9,3.2,3.2,0,0,1,.973,2.4H60.8a1.551,1.551,0,0,0-.406-1.072,1.51,1.51,0,0,0-2.223.163,3.333,3.333,0,0,0-.4,1.866v.235a3.375,3.375,0,0,0,.4,1.878A1.377,1.377,0,0,0,59.383,33.336ZM66.594,35H64.328V26.547h2.266ZM64.2,24.359a1.112,1.112,0,0,1,.34-.836,1.465,1.465,0,0,1,1.848,0,1.193,1.193,0,0,1,0,1.68,1.448,1.448,0,0,1-1.836,0A1.108,1.108,0,0,1,64.2,24.359ZM73.352,35a2.507,2.507,0,0,1-.227-.758,2.732,2.732,0,0,1-2.133.914,3,3,0,0,1-2.059-.719,2.312,2.312,0,0,1-.816-1.812,2.389,2.389,0,0,1,1-2.062,4.915,4.915,0,0,1,2.879-.727h1.039v-.484a1.393,1.393,0,0,0-.3-.937,1.183,1.183,0,0,0-.949-.352,1.345,1.345,0,0,0-.895.273.929.929,0,0,0-.324.75H68.3a2.268,2.268,0,0,1,.453-1.359,3,3,0,0,1,1.281-.98,4.669,4.669,0,0,1,1.859-.355,3.689,3.689,0,0,1,2.48.785,2.747,2.747,0,0,1,.918,2.207v3.664a4.041,4.041,0,0,0,.336,1.82V35Zm-1.867-1.57a1.945,1.945,0,0,0,.922-.223,1.462,1.462,0,0,0,.625-.6V31.156h-.844q-1.7,0-1.8,1.172l-.008.133a.9.9,0,0,0,.3.7A1.153,1.153,0,0,0,71.484,33.43Zm17.773-7.906H85.773V35H83.43V25.523H79.992v-1.9h9.266Zm10.266,5.688A4.025,4.025,0,0,1,98.168,34.1a4.76,4.76,0,0,1-3.223,1.055A4.28,4.28,0,0,1,91.5,33.684a6.038,6.038,0,0,1-1.254-4.043v-.7a6.819,6.819,0,0,1,.578-2.891,4.332,4.332,0,0,1,1.652-1.918,5.164,5.164,0,0,1,5.668.387,4.326,4.326,0,0,1,1.391,2.961H97.2a2.376,2.376,0,0,0-.613-1.6,2.271,2.271,0,0,0-1.605-.5,1.991,1.991,0,0,0-1.754.84,4.707,4.707,0,0,0-.6,2.605V29.7a5.038,5.038,0,0,0,.559,2.7,1.954,1.954,0,0,0,1.762.852,2.314,2.314,0,0,0,1.621-.5,2.241,2.241,0,0,0,.613-1.535Zm3.883-.219V35h-2.344V23.625H105.5a5.134,5.134,0,0,1,2.254.469,3.454,3.454,0,0,1,1.5,1.332,3.714,3.714,0,0,1,.523,1.965,3.266,3.266,0,0,1-1.145,2.637,4.767,4.767,0,0,1-3.168.965Zm0-1.9H105.5a2.059,2.059,0,0,0,1.418-.437,1.591,1.591,0,0,0,.488-1.25,1.876,1.876,0,0,0-.492-1.352,1.839,1.839,0,0,0-1.359-.531h-2.148Zm12.523,6.883h-1.68l4.188-12.352h1.68ZM123.836,35h-2.344V23.625h2.344Zm4.516-4.008V35h-2.344V23.625h4.438a5.134,5.134,0,0,1,2.254.469,3.454,3.454,0,0,1,1.5,1.332,3.714,3.714,0,0,1,.523,1.965,3.266,3.266,0,0,1-1.145,2.637,4.767,4.767,0,0,1-3.168.965Zm0-1.9h2.094a2.059,2.059,0,0,0,1.418-.437,1.591,1.591,0,0,0,.488-1.25,1.876,1.876,0,0,0-.492-1.352,1.839,1.839,0,0,0-1.359-.531h-2.148Z" transform="translate(571.676 1996)" fill="#12263f"/>
      <path id="Trazado_195417" data-name="Trazado 195417" d="M21.133,5.625l2.922,8.25,2.906-8.25h3.078V17H27.688V13.891l.234-5.367L24.852,17H23.242L20.18,8.531l.234,5.359V17H18.07V5.625ZM31.586,12.7a5.013,5.013,0,0,1,.484-2.242A3.546,3.546,0,0,1,33.465,8.93a4.069,4.069,0,0,1,2.113-.539,3.849,3.849,0,0,1,2.793,1.047,4.2,4.2,0,0,1,1.207,2.844l.016.578a4.418,4.418,0,0,1-1.086,3.121,4.209,4.209,0,0,1-5.832,0,4.5,4.5,0,0,1-1.09-3.187Zm2.258.16A3.16,3.16,0,0,0,34.3,14.7a1.628,1.628,0,0,0,2.578.008,3.457,3.457,0,0,0,.461-2.015,3.128,3.128,0,0,0-.461-1.831,1.5,1.5,0,0,0-1.3-.649,1.474,1.474,0,0,0-1.281.646A3.516,3.516,0,0,0,33.844,12.856Zm6.789-.145a5.094,5.094,0,0,1,.887-3.148,2.877,2.877,0,0,1,2.426-1.172,2.589,2.589,0,0,1,2.039.922V5H48.25V17H46.211l-.109-.9a2.657,2.657,0,0,1-2.172,1.055,2.869,2.869,0,0,1-2.395-1.176A5.258,5.258,0,0,1,40.633,12.711Zm2.258.168A3.337,3.337,0,0,0,43.3,14.7a1.349,1.349,0,0,0,1.2.634,1.511,1.511,0,0,0,1.477-.884V11.111a1.489,1.489,0,0,0-1.461-.884Q42.891,10.227,42.891,12.879Zm11,4.277a4.15,4.15,0,0,1-3.027-1.141A4.054,4.054,0,0,1,49.7,12.977v-.219a5.106,5.106,0,0,1,.492-2.277,3.612,3.612,0,0,1,1.395-1.547,3.914,3.914,0,0,1,2.059-.543,3.508,3.508,0,0,1,2.73,1.094,4.444,4.444,0,0,1,1,3.1v.922H51.984a2.1,2.1,0,0,0,.66,1.328,2,2,0,0,0,1.395.5,2.437,2.437,0,0,0,2.039-.945l1.109,1.242a3.389,3.389,0,0,1-1.375,1.121A4.511,4.511,0,0,1,53.891,17.156Zm-.258-6.945a1.411,1.411,0,0,0-1.09.455,2.357,2.357,0,0,0-.535,1.3h3.141v-.181a1.681,1.681,0,0,0-.406-1.165A1.456,1.456,0,0,0,53.633,10.211ZM61.031,17H58.766V5h2.266Zm1.508-4.3a5.013,5.013,0,0,1,.484-2.242A3.546,3.546,0,0,1,64.418,8.93a4.069,4.069,0,0,1,2.113-.539,3.849,3.849,0,0,1,2.793,1.047,4.2,4.2,0,0,1,1.207,2.844l.016.578a4.418,4.418,0,0,1-1.086,3.121,4.209,4.209,0,0,1-5.832,0,4.5,4.5,0,0,1-1.09-3.187Zm2.258.16A3.16,3.16,0,0,0,65.25,14.7a1.628,1.628,0,0,0,2.578.008,3.457,3.457,0,0,0,.461-2.015,3.128,3.128,0,0,0-.461-1.831,1.5,1.5,0,0,0-1.3-.649,1.474,1.474,0,0,0-1.281.646A3.516,3.516,0,0,0,64.8,12.856Zm11.719,1.808a.727.727,0,0,0-.41-.652,4.659,4.659,0,0,0-1.316-.426q-3.016-.633-3.016-2.562a2.323,2.323,0,0,1,.934-1.879,3.766,3.766,0,0,1,2.441-.754,4.053,4.053,0,0,1,2.574.758,2.388,2.388,0,0,1,.965,1.969H76.43a1.092,1.092,0,0,0-.312-.8A1.322,1.322,0,0,0,75.141,10a1.351,1.351,0,0,0-.883.258.814.814,0,0,0-.312.656.7.7,0,0,0,.355.605,3.657,3.657,0,0,0,1.2.4,9.8,9.8,0,0,1,1.422.379,2.336,2.336,0,0,1,1.789,2.273,2.2,2.2,0,0,1-.992,1.871,4.28,4.28,0,0,1-2.562.715,4.47,4.47,0,0,1-1.887-.379,3.166,3.166,0,0,1-1.293-1.039,2.414,2.414,0,0,1-.469-1.426h2.141a1.179,1.179,0,0,0,.445.922,1.766,1.766,0,0,0,1.109.32,1.635,1.635,0,0,0,.98-.246A.766.766,0,0,0,76.516,14.664ZM83.8,12.711a5.094,5.094,0,0,1,.887-3.148,2.877,2.877,0,0,1,2.426-1.172,2.589,2.589,0,0,1,2.039.922V5h2.266V17H89.375l-.109-.9a2.657,2.657,0,0,1-2.172,1.055A2.869,2.869,0,0,1,84.7,15.98,5.258,5.258,0,0,1,83.8,12.711Zm2.258.168a3.337,3.337,0,0,0,.414,1.823,1.349,1.349,0,0,0,1.2.634,1.511,1.511,0,0,0,1.477-.884V11.111a1.489,1.489,0,0,0-1.461-.884Q86.055,10.227,86.055,12.879Zm11,4.277a4.15,4.15,0,0,1-3.027-1.141,4.054,4.054,0,0,1-1.168-3.039v-.219a5.106,5.106,0,0,1,.492-2.277,3.612,3.612,0,0,1,1.395-1.547A3.914,3.914,0,0,1,96.8,8.391a3.508,3.508,0,0,1,2.73,1.094,4.444,4.444,0,0,1,1,3.1v.922H95.148a2.1,2.1,0,0,0,.66,1.328,2,2,0,0,0,1.395.5,2.437,2.437,0,0,0,2.039-.945l1.109,1.242a3.389,3.389,0,0,1-1.375,1.121A4.511,4.511,0,0,1,97.055,17.156ZM96.8,10.211a1.411,1.411,0,0,0-1.09.455,2.357,2.357,0,0,0-.535,1.3h3.141v-.181a1.681,1.681,0,0,0-.406-1.165A1.456,1.456,0,0,0,96.8,10.211ZM27.879,28.664a6.134,6.134,0,0,0-.812-.062,1.654,1.654,0,0,0-1.68.867V35H23.129V26.547h2.133l.063,1.008a2.092,2.092,0,0,1,1.883-1.164,2.366,2.366,0,0,1,.7.1Zm4.977,6.492a4.15,4.15,0,0,1-3.027-1.141,4.054,4.054,0,0,1-1.168-3.039v-.219a5.106,5.106,0,0,1,.492-2.277,3.612,3.612,0,0,1,1.395-1.547,3.914,3.914,0,0,1,2.059-.543,3.508,3.508,0,0,1,2.73,1.094,4.444,4.444,0,0,1,1,3.1v.922H30.949a2.1,2.1,0,0,0,.66,1.328,2,2,0,0,0,1.395.5,2.437,2.437,0,0,0,2.039-.945l1.109,1.242a3.389,3.389,0,0,1-1.375,1.121A4.511,4.511,0,0,1,32.855,35.156ZM32.6,28.211a1.411,1.411,0,0,0-1.09.455,2.357,2.357,0,0,0-.535,1.3h3.141v-.181a1.681,1.681,0,0,0-.406-1.165A1.456,1.456,0,0,0,32.6,28.211ZM38.23,35V28.2H36.973V26.547H38.23v-.719a2.918,2.918,0,0,1,.816-2.207,3.162,3.162,0,0,1,2.285-.785,5.278,5.278,0,0,1,1.148.156l-.023,1.75a2.878,2.878,0,0,0-.687-.07q-1.273,0-1.273,1.2v.68h1.68V28.2H40.5V35Zm9.008.156a4.15,4.15,0,0,1-3.027-1.141,4.054,4.054,0,0,1-1.168-3.039v-.219a5.106,5.106,0,0,1,.492-2.277,3.612,3.612,0,0,1,1.395-1.547,3.914,3.914,0,0,1,2.059-.543,3.508,3.508,0,0,1,2.73,1.094,4.444,4.444,0,0,1,1,3.1v.922H45.332a2.1,2.1,0,0,0,.66,1.328,2,2,0,0,0,1.395.5,2.437,2.437,0,0,0,2.039-.945l1.109,1.242a3.389,3.389,0,0,1-1.375,1.121A4.511,4.511,0,0,1,47.238,35.156Zm-.258-6.945a1.411,1.411,0,0,0-1.09.455,2.357,2.357,0,0,0-.535,1.3H48.5v-.181a1.681,1.681,0,0,0-.406-1.165A1.456,1.456,0,0,0,46.98,28.211Zm9.766.453a6.134,6.134,0,0,0-.812-.062,1.654,1.654,0,0,0-1.68.867V35H52V26.547h2.133l.063,1.008a2.092,2.092,0,0,1,1.883-1.164,2.366,2.366,0,0,1,.7.1Zm4.977,6.492A4.15,4.15,0,0,1,58.7,34.016a4.054,4.054,0,0,1-1.168-3.039v-.219a5.106,5.106,0,0,1,.492-2.277,3.612,3.612,0,0,1,1.395-1.547,3.914,3.914,0,0,1,2.059-.543,3.508,3.508,0,0,1,2.73,1.094,4.444,4.444,0,0,1,1,3.1v.922H59.816a2.1,2.1,0,0,0,.66,1.328,2,2,0,0,0,1.395.5,2.437,2.437,0,0,0,2.039-.945l1.109,1.242a3.389,3.389,0,0,1-1.375,1.121A4.511,4.511,0,0,1,61.723,35.156Zm-.258-6.945a1.411,1.411,0,0,0-1.09.455,2.357,2.357,0,0,0-.535,1.3H62.98v-.181a1.681,1.681,0,0,0-.406-1.165A1.456,1.456,0,0,0,61.465,28.211Zm7.094-1.664.07.977a2.951,2.951,0,0,1,2.43-1.133,2.453,2.453,0,0,1,2,.789,3.682,3.682,0,0,1,.672,2.359V35H71.473V29.594a1.465,1.465,0,0,0-.312-1.043,1.4,1.4,0,0,0-1.039-.324,1.553,1.553,0,0,0-1.43.813V35H66.434V26.547Zm10.4,6.789a1.481,1.481,0,0,0,1.016-.344,1.2,1.2,0,0,0,.406-.914H82.5a2.9,2.9,0,0,1-.469,1.574,3.093,3.093,0,0,1-1.262,1.109,3.949,3.949,0,0,1-1.77.395A3.67,3.67,0,0,1,76.137,34,4.56,4.56,0,0,1,75.09,30.82v-.148a4.508,4.508,0,0,1,1.039-3.117,3.627,3.627,0,0,1,2.852-1.164,3.555,3.555,0,0,1,2.543.9,3.2,3.2,0,0,1,.973,2.4H80.379a1.551,1.551,0,0,0-.406-1.072,1.51,1.51,0,0,0-2.223.163,3.333,3.333,0,0,0-.4,1.866v.235a3.375,3.375,0,0,0,.4,1.878A1.377,1.377,0,0,0,78.957,33.336ZM86.168,35H83.9V26.547h2.266Zm-2.4-10.641a1.112,1.112,0,0,1,.34-.836,1.465,1.465,0,0,1,1.848,0,1.193,1.193,0,0,1,0,1.68,1.448,1.448,0,0,1-1.836,0A1.108,1.108,0,0,1,83.77,24.359ZM92.926,35a2.507,2.507,0,0,1-.227-.758,2.732,2.732,0,0,1-2.133.914,3,3,0,0,1-2.059-.719,2.312,2.312,0,0,1-.816-1.812,2.389,2.389,0,0,1,1-2.062,4.915,4.915,0,0,1,2.879-.727h1.039v-.484a1.393,1.393,0,0,0-.3-.937,1.183,1.183,0,0,0-.949-.352,1.345,1.345,0,0,0-.895.273.929.929,0,0,0-.324.75H87.879a2.268,2.268,0,0,1,.453-1.359,3,3,0,0,1,1.281-.98,4.669,4.669,0,0,1,1.859-.355,3.689,3.689,0,0,1,2.48.785,2.747,2.747,0,0,1,.918,2.207v3.664a4.041,4.041,0,0,0,.336,1.82V35Zm-1.867-1.57a1.945,1.945,0,0,0,.922-.223,1.462,1.462,0,0,0,.625-.6V31.156h-.844q-1.7,0-1.8,1.172l-.008.133a.9.9,0,0,0,.3.7A1.153,1.153,0,0,0,91.059,33.43Z" transform="translate(422.676 1996)" fill="#12263f"/>
      <path id="Trazado_195419" data-name="Trazado 195419" d="M12.512,12.992V17H10.168V5.625h4.438a5.134,5.134,0,0,1,2.254.469,3.454,3.454,0,0,1,1.5,1.332,3.714,3.714,0,0,1,.523,1.965,3.266,3.266,0,0,1-1.145,2.637,4.767,4.767,0,0,1-3.168.965Zm0-1.9h2.094a2.059,2.059,0,0,0,1.418-.437,1.591,1.591,0,0,0,.488-1.25,1.876,1.876,0,0,0-.492-1.352,1.839,1.839,0,0,0-1.359-.531H12.512Zm12.578-.43a6.134,6.134,0,0,0-.812-.062,1.654,1.654,0,0,0-1.68.867V17H20.34V8.547h2.133l.063,1.008a2.092,2.092,0,0,1,1.883-1.164,2.366,2.366,0,0,1,.7.1Zm.453,2.031a5.013,5.013,0,0,1,.484-2.242A3.546,3.546,0,0,1,27.422,8.93a4.069,4.069,0,0,1,2.113-.539,3.849,3.849,0,0,1,2.793,1.047,4.2,4.2,0,0,1,1.207,2.844l.016.578a4.418,4.418,0,0,1-1.086,3.121,3.775,3.775,0,0,1-2.914,1.176,3.793,3.793,0,0,1-2.918-1.172,4.5,4.5,0,0,1-1.09-3.187Zm2.258.16a3.16,3.16,0,0,0,.453,1.843,1.628,1.628,0,0,0,2.578.008,3.457,3.457,0,0,0,.461-2.015,3.128,3.128,0,0,0-.461-1.831,1.5,1.5,0,0,0-1.3-.649,1.474,1.474,0,0,0-1.281.646A3.516,3.516,0,0,0,27.8,12.856Zm9.844-6.387V8.547H39.09V10.2H37.645v4.219a1.007,1.007,0,0,0,.18.672.9.9,0,0,0,.688.2,3.6,3.6,0,0,0,.664-.055v1.711a4.648,4.648,0,0,1-1.367.2,2.156,2.156,0,0,1-2.422-2.4V10.2H34.152V8.547h1.234V6.469ZM39.762,12.7a5.013,5.013,0,0,1,.484-2.242A3.546,3.546,0,0,1,41.641,8.93a4.069,4.069,0,0,1,2.113-.539,3.849,3.849,0,0,1,2.793,1.047,4.2,4.2,0,0,1,1.207,2.844l.016.578a4.418,4.418,0,0,1-1.086,3.121,4.209,4.209,0,0,1-5.832,0,4.5,4.5,0,0,1-1.09-3.187Zm2.258.16a3.16,3.16,0,0,0,.453,1.843,1.628,1.628,0,0,0,2.578.008,3.457,3.457,0,0,0,.461-2.015,3.128,3.128,0,0,0-.461-1.831,1.5,1.5,0,0,0-1.3-.649,1.474,1.474,0,0,0-1.281.646A3.516,3.516,0,0,0,42.02,12.856Zm10.656,2.48a1.481,1.481,0,0,0,1.016-.344,1.2,1.2,0,0,0,.406-.914h2.117a2.9,2.9,0,0,1-.469,1.574,3.093,3.093,0,0,1-1.262,1.109,3.949,3.949,0,0,1-1.77.395A3.67,3.67,0,0,1,49.855,16a4.56,4.56,0,0,1-1.047-3.184v-.148a4.508,4.508,0,0,1,1.039-3.117A3.627,3.627,0,0,1,52.7,8.391a3.555,3.555,0,0,1,2.543.9,3.2,3.2,0,0,1,.973,2.4H54.1a1.551,1.551,0,0,0-.406-1.072,1.51,1.51,0,0,0-2.223.163,3.333,3.333,0,0,0-.4,1.866v.235a3.375,3.375,0,0,0,.4,1.878A1.377,1.377,0,0,0,52.676,15.336ZM57.152,12.7a5.013,5.013,0,0,1,.484-2.242A3.546,3.546,0,0,1,59.031,8.93a4.069,4.069,0,0,1,2.113-.539,3.849,3.849,0,0,1,2.793,1.047,4.2,4.2,0,0,1,1.207,2.844l.016.578a4.418,4.418,0,0,1-1.086,3.121,4.209,4.209,0,0,1-5.832,0,4.5,4.5,0,0,1-1.09-3.187Zm2.258.16a3.16,3.16,0,0,0,.453,1.843,1.628,1.628,0,0,0,2.578.008,3.457,3.457,0,0,0,.461-2.015,3.128,3.128,0,0,0-.461-1.831,1.5,1.5,0,0,0-1.3-.649,1.474,1.474,0,0,0-1.281.646A3.516,3.516,0,0,0,59.41,12.856ZM68.934,17H66.668V5h2.266Zm1.508-4.3a5.013,5.013,0,0,1,.484-2.242A3.546,3.546,0,0,1,72.32,8.93a4.069,4.069,0,0,1,2.113-.539,3.849,3.849,0,0,1,2.793,1.047,4.2,4.2,0,0,1,1.207,2.844l.016.578a4.418,4.418,0,0,1-1.086,3.121,4.209,4.209,0,0,1-5.832,0,4.5,4.5,0,0,1-1.09-3.187Zm2.258.16a3.16,3.16,0,0,0,.453,1.843,1.628,1.628,0,0,0,2.578.008,3.457,3.457,0,0,0,.461-2.015,3.128,3.128,0,0,0-.461-1.831,1.5,1.5,0,0,0-1.3-.649,1.474,1.474,0,0,0-1.281.646A3.516,3.516,0,0,0,72.7,12.856Zm11.719,1.808a.727.727,0,0,0-.41-.652,4.659,4.659,0,0,0-1.316-.426q-3.016-.633-3.016-2.562a2.323,2.323,0,0,1,.934-1.879,3.766,3.766,0,0,1,2.441-.754,4.053,4.053,0,0,1,2.574.758,2.388,2.388,0,0,1,.965,1.969H84.332a1.092,1.092,0,0,0-.312-.8A1.322,1.322,0,0,0,83.043,10a1.351,1.351,0,0,0-.883.258.814.814,0,0,0-.312.656.7.7,0,0,0,.355.605,3.657,3.657,0,0,0,1.2.4,9.8,9.8,0,0,1,1.422.379,2.336,2.336,0,0,1,1.789,2.273,2.2,2.2,0,0,1-.992,1.871,4.28,4.28,0,0,1-2.562.715,4.47,4.47,0,0,1-1.887-.379,3.166,3.166,0,0,1-1.293-1.039,2.414,2.414,0,0,1-.469-1.426h2.141a1.179,1.179,0,0,0,.445.922,1.766,1.766,0,0,0,1.109.32,1.635,1.635,0,0,0,.98-.246A.766.766,0,0,0,84.418,14.664ZM91.7,12.711a5.094,5.094,0,0,1,.887-3.148,2.877,2.877,0,0,1,2.426-1.172,2.589,2.589,0,0,1,2.039.922V5h2.266V17H97.277l-.109-.9A2.657,2.657,0,0,1,95,17.156,2.869,2.869,0,0,1,92.6,15.98,5.258,5.258,0,0,1,91.7,12.711Zm2.258.168a3.337,3.337,0,0,0,.414,1.823,1.349,1.349,0,0,0,1.2.634,1.511,1.511,0,0,0,1.477-.884V11.111a1.489,1.489,0,0,0-1.461-.884Q93.957,10.227,93.957,12.879Zm11,4.277a4.15,4.15,0,0,1-3.027-1.141,4.054,4.054,0,0,1-1.168-3.039v-.219a5.106,5.106,0,0,1,.492-2.277,3.612,3.612,0,0,1,1.395-1.547,3.914,3.914,0,0,1,2.059-.543,3.508,3.508,0,0,1,2.73,1.094,4.444,4.444,0,0,1,1,3.1v.922h-5.383a2.1,2.1,0,0,0,.66,1.328,2,2,0,0,0,1.395.5,2.437,2.437,0,0,0,2.039-.945l1.109,1.242a3.389,3.389,0,0,1-1.375,1.121A4.511,4.511,0,0,1,104.957,17.156Zm-.258-6.945a1.411,1.411,0,0,0-1.09.455,2.357,2.357,0,0,0-.535,1.3h3.141v-.181a1.681,1.681,0,0,0-.406-1.165A1.456,1.456,0,0,0,104.7,10.211ZM12.926,33.336a1.481,1.481,0,0,0,1.016-.344,1.2,1.2,0,0,0,.406-.914h2.117A2.9,2.9,0,0,1,16,33.652a3.093,3.093,0,0,1-1.262,1.109,3.949,3.949,0,0,1-1.77.395A3.67,3.67,0,0,1,10.105,34,4.56,4.56,0,0,1,9.059,30.82v-.148A4.508,4.508,0,0,1,10.1,27.555a3.627,3.627,0,0,1,2.852-1.164,3.555,3.555,0,0,1,2.543.9,3.2,3.2,0,0,1,.973,2.4H14.348a1.551,1.551,0,0,0-.406-1.072,1.354,1.354,0,0,0-1.031-.412,1.36,1.36,0,0,0-1.191.575,3.333,3.333,0,0,0-.4,1.866v.235a3.375,3.375,0,0,0,.4,1.878A1.377,1.377,0,0,0,12.926,33.336ZM17.4,30.7a5.013,5.013,0,0,1,.484-2.242,3.546,3.546,0,0,1,1.395-1.523,4.069,4.069,0,0,1,2.113-.539,3.849,3.849,0,0,1,2.793,1.047,4.2,4.2,0,0,1,1.207,2.844l.016.578a4.418,4.418,0,0,1-1.086,3.121,3.775,3.775,0,0,1-2.914,1.176,3.793,3.793,0,0,1-2.918-1.172A4.5,4.5,0,0,1,17.4,30.8Zm2.258.16a3.16,3.16,0,0,0,.453,1.843,1.628,1.628,0,0,0,2.578.008,3.457,3.457,0,0,0,.461-2.015,3.128,3.128,0,0,0-.461-1.831,1.5,1.5,0,0,0-1.3-.649,1.474,1.474,0,0,0-1.281.646A3.516,3.516,0,0,0,19.66,30.856Zm9.258-4.309.07.945a2.971,2.971,0,0,1,2.43-1.1A2.255,2.255,0,0,1,33.66,27.68,2.9,2.9,0,0,1,36.2,26.391a2.521,2.521,0,0,1,2.047.8,3.681,3.681,0,0,1,.672,2.41V35H36.652V29.609a1.61,1.61,0,0,0-.281-1.051,1.246,1.246,0,0,0-.992-.332,1.409,1.409,0,0,0-1.406.969L33.98,35H31.723V29.617a1.59,1.59,0,0,0-.289-1.062,1.259,1.259,0,0,0-.984-.328,1.463,1.463,0,0,0-1.391.8V35H26.8V26.547Zm16.8,7.594A2.831,2.831,0,0,1,43.4,35.156a2.67,2.67,0,0,1-2.074-.781,3.335,3.335,0,0,1-.73-2.289V26.547h2.258v5.467q0,1.322,1.2,1.322a1.63,1.63,0,0,0,1.578-.8V26.547H47.9V35H45.777Zm5.969-7.594.07.977a2.951,2.951,0,0,1,2.43-1.133,2.453,2.453,0,0,1,2,.789,3.682,3.682,0,0,1,.672,2.359V35H54.6V29.594a1.465,1.465,0,0,0-.312-1.043,1.4,1.4,0,0,0-1.039-.324,1.553,1.553,0,0,0-1.43.813V35H49.559V26.547ZM60.949,35H58.684V26.547h2.266Zm-2.4-10.641a1.112,1.112,0,0,1,.34-.836,1.465,1.465,0,0,1,1.848,0,1.193,1.193,0,0,1,0,1.68,1.448,1.448,0,0,1-1.836,0A1.108,1.108,0,0,1,58.551,24.359Zm7.773,8.977a1.481,1.481,0,0,0,1.016-.344,1.2,1.2,0,0,0,.406-.914h2.117a2.9,2.9,0,0,1-.469,1.574,3.093,3.093,0,0,1-1.262,1.109,3.949,3.949,0,0,1-1.77.395A3.67,3.67,0,0,1,63.5,34a4.56,4.56,0,0,1-1.047-3.184v-.148A4.508,4.508,0,0,1,63.5,27.555a3.627,3.627,0,0,1,2.852-1.164,3.555,3.555,0,0,1,2.543.9,3.2,3.2,0,0,1,.973,2.4H67.746a1.551,1.551,0,0,0-.406-1.072,1.51,1.51,0,0,0-2.223.163,3.333,3.333,0,0,0-.4,1.866v.235a3.375,3.375,0,0,0,.4,1.878A1.377,1.377,0,0,0,66.324,33.336ZM76.051,35a2.507,2.507,0,0,1-.227-.758,2.732,2.732,0,0,1-2.133.914,3,3,0,0,1-2.059-.719,2.312,2.312,0,0,1-.816-1.812,2.389,2.389,0,0,1,1-2.062,4.915,4.915,0,0,1,2.879-.727H75.73v-.484a1.393,1.393,0,0,0-.3-.937,1.183,1.183,0,0,0-.949-.352,1.345,1.345,0,0,0-.895.273.929.929,0,0,0-.324.75H71a2.268,2.268,0,0,1,.453-1.359,3,3,0,0,1,1.281-.98,4.669,4.669,0,0,1,1.859-.355,3.689,3.689,0,0,1,2.48.785A2.747,2.747,0,0,1,78,29.383v3.664a4.041,4.041,0,0,0,.336,1.82V35Zm-1.867-1.57a1.945,1.945,0,0,0,.922-.223,1.462,1.462,0,0,0,.625-.6V31.156h-.844q-1.7,0-1.8,1.172l-.008.133a.9.9,0,0,0,.3.7A1.153,1.153,0,0,0,74.184,33.43Zm9.063-.094a1.481,1.481,0,0,0,1.016-.344,1.2,1.2,0,0,0,.406-.914h2.117a2.9,2.9,0,0,1-.469,1.574,3.093,3.093,0,0,1-1.262,1.109,3.949,3.949,0,0,1-1.77.395A3.67,3.67,0,0,1,80.426,34a4.56,4.56,0,0,1-1.047-3.184v-.148a4.508,4.508,0,0,1,1.039-3.117,3.627,3.627,0,0,1,2.852-1.164,3.555,3.555,0,0,1,2.543.9,3.2,3.2,0,0,1,.973,2.4H84.668a1.551,1.551,0,0,0-.406-1.072,1.51,1.51,0,0,0-2.223.163,3.333,3.333,0,0,0-.4,1.866v.235a3.375,3.375,0,0,0,.4,1.878A1.377,1.377,0,0,0,83.246,33.336ZM90.457,35H88.191V26.547h2.266Zm-2.4-10.641a1.112,1.112,0,0,1,.34-.836,1.465,1.465,0,0,1,1.848,0,1.193,1.193,0,0,1,0,1.68,1.448,1.448,0,0,1-1.836,0A1.108,1.108,0,0,1,88.059,24.359ZM91.965,30.7a5.013,5.013,0,0,1,.484-2.242,3.546,3.546,0,0,1,1.395-1.523,4.069,4.069,0,0,1,2.113-.539,3.849,3.849,0,0,1,2.793,1.047,4.2,4.2,0,0,1,1.207,2.844l.016.578a4.418,4.418,0,0,1-1.086,3.121,4.209,4.209,0,0,1-5.832,0,4.5,4.5,0,0,1-1.09-3.187Zm2.258.16a3.16,3.16,0,0,0,.453,1.843,1.628,1.628,0,0,0,2.578.008,3.457,3.457,0,0,0,.461-2.015,3.128,3.128,0,0,0-.461-1.831,1.5,1.5,0,0,0-1.3-.649,1.474,1.474,0,0,0-1.281.646A3.516,3.516,0,0,0,94.223,30.856ZM96.4,23h2.461L96.7,25.422H94.863Zm7.039,3.547.07.977a2.951,2.951,0,0,1,2.43-1.133,2.453,2.453,0,0,1,2,.789,3.682,3.682,0,0,1,.672,2.359V35h-2.258V29.594a1.465,1.465,0,0,0-.312-1.043A1.4,1.4,0,0,0,105,28.227a1.553,1.553,0,0,0-1.43.813V35h-2.258V26.547Z" transform="translate(738.676 1996)" fill="#12263f"/>
      <path id="Trazado_195420" data-name="Trazado 195420" d="M23.238,12.992V17H20.895V5.625h4.438a5.134,5.134,0,0,1,2.254.469,3.454,3.454,0,0,1,1.5,1.332,3.714,3.714,0,0,1,.523,1.965,3.266,3.266,0,0,1-1.145,2.637,4.767,4.767,0,0,1-3.168.965Zm0-1.9h2.094a2.059,2.059,0,0,0,1.418-.437,1.591,1.591,0,0,0,.488-1.25,1.876,1.876,0,0,0-.492-1.352,1.839,1.839,0,0,0-1.359-.531H23.238Zm12.891,5.047a2.831,2.831,0,0,1-2.312,1.016,2.67,2.67,0,0,1-2.074-.781,3.335,3.335,0,0,1-.73-2.289V8.547H33.27v5.467q0,1.322,1.2,1.322a1.63,1.63,0,0,0,1.578-.8V8.547h2.266V17H36.191Zm7.781,1.016a4.15,4.15,0,0,1-3.027-1.141,4.054,4.054,0,0,1-1.168-3.039v-.219a5.106,5.106,0,0,1,.492-2.277A3.612,3.612,0,0,1,41.6,8.934a3.914,3.914,0,0,1,2.059-.543,3.508,3.508,0,0,1,2.73,1.094,4.444,4.444,0,0,1,1,3.1v.922H42a2.1,2.1,0,0,0,.66,1.328,2,2,0,0,0,1.395.5,2.437,2.437,0,0,0,2.039-.945l1.109,1.242a3.389,3.389,0,0,1-1.375,1.121A4.511,4.511,0,0,1,43.91,17.156Zm-.258-6.945a1.411,1.411,0,0,0-1.09.455,2.357,2.357,0,0,0-.535,1.3h3.141v-.181a1.681,1.681,0,0,0-.406-1.165A1.456,1.456,0,0,0,43.652,10.211Zm9.766.453a6.134,6.134,0,0,0-.812-.062,1.654,1.654,0,0,0-1.68.867V17H48.668V8.547H50.8l.063,1.008a2.092,2.092,0,0,1,1.883-1.164,2.366,2.366,0,0,1,.7.1Zm4.18-4.2V8.547h1.445V10.2H57.6v4.219a1.007,1.007,0,0,0,.18.672.9.9,0,0,0,.688.2,3.6,3.6,0,0,0,.664-.055v1.711a4.648,4.648,0,0,1-1.367.2,2.156,2.156,0,0,1-2.422-2.4V10.2H54.105V8.547H55.34V6.469ZM59.715,12.7a5.013,5.013,0,0,1,.484-2.242A3.546,3.546,0,0,1,61.594,8.93a4.069,4.069,0,0,1,2.113-.539A3.849,3.849,0,0,1,66.5,9.438a4.2,4.2,0,0,1,1.207,2.844l.016.578a4.418,4.418,0,0,1-1.086,3.121,4.209,4.209,0,0,1-5.832,0,4.5,4.5,0,0,1-1.09-3.187Zm2.258.16a3.16,3.16,0,0,0,.453,1.843A1.628,1.628,0,0,0,65,14.706a3.457,3.457,0,0,0,.461-2.015A3.128,3.128,0,0,0,65,10.86a1.5,1.5,0,0,0-1.3-.649,1.474,1.474,0,0,0-1.281.646A3.516,3.516,0,0,0,61.973,12.856Zm11.719,1.808a.727.727,0,0,0-.41-.652,4.659,4.659,0,0,0-1.316-.426q-3.016-.633-3.016-2.562a2.323,2.323,0,0,1,.934-1.879,3.766,3.766,0,0,1,2.441-.754,4.053,4.053,0,0,1,2.574.758,2.388,2.388,0,0,1,.965,1.969H73.605a1.092,1.092,0,0,0-.312-.8A1.322,1.322,0,0,0,72.316,10a1.351,1.351,0,0,0-.883.258.814.814,0,0,0-.312.656.7.7,0,0,0,.355.605,3.657,3.657,0,0,0,1.2.4A9.8,9.8,0,0,1,74.1,12.3a2.336,2.336,0,0,1,1.789,2.273,2.2,2.2,0,0,1-.992,1.871,4.28,4.28,0,0,1-2.562.715,4.47,4.47,0,0,1-1.887-.379,3.166,3.166,0,0,1-1.293-1.039,2.414,2.414,0,0,1-.469-1.426h2.141a1.179,1.179,0,0,0,.445.922,1.766,1.766,0,0,0,1.109.32,1.635,1.635,0,0,0,.98-.246A.766.766,0,0,0,73.691,14.664Zm7.281-1.953a5.094,5.094,0,0,1,.887-3.148,2.877,2.877,0,0,1,2.426-1.172,2.589,2.589,0,0,1,2.039.922V5H88.59V17H86.551l-.109-.9a2.657,2.657,0,0,1-2.172,1.055,2.869,2.869,0,0,1-2.395-1.176A5.258,5.258,0,0,1,80.973,12.711Zm2.258.168a3.337,3.337,0,0,0,.414,1.823,1.349,1.349,0,0,0,1.2.634,1.511,1.511,0,0,0,1.477-.884V11.111a1.489,1.489,0,0,0-1.461-.884Q83.23,10.227,83.23,12.879Zm11,4.277A4.15,4.15,0,0,1,91.2,16.016a4.054,4.054,0,0,1-1.168-3.039v-.219a5.106,5.106,0,0,1,.492-2.277,3.612,3.612,0,0,1,1.395-1.547,3.914,3.914,0,0,1,2.059-.543,3.508,3.508,0,0,1,2.73,1.094,4.444,4.444,0,0,1,1,3.1v.922H92.324a2.1,2.1,0,0,0,.66,1.328,2,2,0,0,0,1.395.5,2.437,2.437,0,0,0,2.039-.945l1.109,1.242a3.389,3.389,0,0,1-1.375,1.121A4.511,4.511,0,0,1,94.23,17.156Zm-.258-6.945a1.411,1.411,0,0,0-1.09.455,2.357,2.357,0,0,0-.535,1.3h3.141v-.181a1.681,1.681,0,0,0-.406-1.165A1.456,1.456,0,0,0,93.973,10.211ZM12.926,33.336a1.481,1.481,0,0,0,1.016-.344,1.2,1.2,0,0,0,.406-.914h2.117A2.9,2.9,0,0,1,16,33.652a3.093,3.093,0,0,1-1.262,1.109,3.949,3.949,0,0,1-1.77.395A3.67,3.67,0,0,1,10.105,34,4.56,4.56,0,0,1,9.059,30.82v-.148A4.508,4.508,0,0,1,10.1,27.555a3.627,3.627,0,0,1,2.852-1.164,3.555,3.555,0,0,1,2.543.9,3.2,3.2,0,0,1,.973,2.4H14.348a1.551,1.551,0,0,0-.406-1.072,1.354,1.354,0,0,0-1.031-.412,1.36,1.36,0,0,0-1.191.575,3.333,3.333,0,0,0-.4,1.866v.235a3.375,3.375,0,0,0,.4,1.878A1.377,1.377,0,0,0,12.926,33.336ZM17.4,30.7a5.013,5.013,0,0,1,.484-2.242,3.546,3.546,0,0,1,1.395-1.523,4.069,4.069,0,0,1,2.113-.539,3.849,3.849,0,0,1,2.793,1.047,4.2,4.2,0,0,1,1.207,2.844l.016.578a4.418,4.418,0,0,1-1.086,3.121,3.775,3.775,0,0,1-2.914,1.176,3.793,3.793,0,0,1-2.918-1.172A4.5,4.5,0,0,1,17.4,30.8Zm2.258.16a3.16,3.16,0,0,0,.453,1.843,1.628,1.628,0,0,0,2.578.008,3.457,3.457,0,0,0,.461-2.015,3.128,3.128,0,0,0-.461-1.831,1.5,1.5,0,0,0-1.3-.649,1.474,1.474,0,0,0-1.281.646A3.516,3.516,0,0,0,19.66,30.856Zm9.258-4.309.07.945a2.971,2.971,0,0,1,2.43-1.1A2.255,2.255,0,0,1,33.66,27.68,2.9,2.9,0,0,1,36.2,26.391a2.521,2.521,0,0,1,2.047.8,3.681,3.681,0,0,1,.672,2.41V35H36.652V29.609a1.61,1.61,0,0,0-.281-1.051,1.246,1.246,0,0,0-.992-.332,1.409,1.409,0,0,0-1.406.969L33.98,35H31.723V29.617a1.59,1.59,0,0,0-.289-1.062,1.259,1.259,0,0,0-.984-.328,1.463,1.463,0,0,0-1.391.8V35H26.8V26.547Zm16.8,7.594A2.831,2.831,0,0,1,43.4,35.156a2.67,2.67,0,0,1-2.074-.781,3.335,3.335,0,0,1-.73-2.289V26.547h2.258v5.467q0,1.322,1.2,1.322a1.63,1.63,0,0,0,1.578-.8V26.547H47.9V35H45.777Zm5.969-7.594.07.977a2.951,2.951,0,0,1,2.43-1.133,2.453,2.453,0,0,1,2,.789,3.682,3.682,0,0,1,.672,2.359V35H54.6V29.594a1.465,1.465,0,0,0-.312-1.043,1.4,1.4,0,0,0-1.039-.324,1.553,1.553,0,0,0-1.43.813V35H49.559V26.547ZM60.949,35H58.684V26.547h2.266Zm-2.4-10.641a1.112,1.112,0,0,1,.34-.836,1.465,1.465,0,0,1,1.848,0,1.193,1.193,0,0,1,0,1.68,1.448,1.448,0,0,1-1.836,0A1.108,1.108,0,0,1,58.551,24.359Zm7.773,8.977a1.481,1.481,0,0,0,1.016-.344,1.2,1.2,0,0,0,.406-.914h2.117a2.9,2.9,0,0,1-.469,1.574,3.093,3.093,0,0,1-1.262,1.109,3.949,3.949,0,0,1-1.77.395A3.67,3.67,0,0,1,63.5,34a4.56,4.56,0,0,1-1.047-3.184v-.148A4.508,4.508,0,0,1,63.5,27.555a3.627,3.627,0,0,1,2.852-1.164,3.555,3.555,0,0,1,2.543.9,3.2,3.2,0,0,1,.973,2.4H67.746a1.551,1.551,0,0,0-.406-1.072,1.51,1.51,0,0,0-2.223.163,3.333,3.333,0,0,0-.4,1.866v.235a3.375,3.375,0,0,0,.4,1.878A1.377,1.377,0,0,0,66.324,33.336ZM76.051,35a2.507,2.507,0,0,1-.227-.758,2.732,2.732,0,0,1-2.133.914,3,3,0,0,1-2.059-.719,2.312,2.312,0,0,1-.816-1.812,2.389,2.389,0,0,1,1-2.062,4.915,4.915,0,0,1,2.879-.727H75.73v-.484a1.393,1.393,0,0,0-.3-.937,1.183,1.183,0,0,0-.949-.352,1.345,1.345,0,0,0-.895.273.929.929,0,0,0-.324.75H71a2.268,2.268,0,0,1,.453-1.359,3,3,0,0,1,1.281-.98,4.669,4.669,0,0,1,1.859-.355,3.689,3.689,0,0,1,2.48.785A2.747,2.747,0,0,1,78,29.383v3.664a4.041,4.041,0,0,0,.336,1.82V35Zm-1.867-1.57a1.945,1.945,0,0,0,.922-.223,1.462,1.462,0,0,0,.625-.6V31.156h-.844q-1.7,0-1.8,1.172l-.008.133a.9.9,0,0,0,.3.7A1.153,1.153,0,0,0,74.184,33.43Zm9.063-.094a1.481,1.481,0,0,0,1.016-.344,1.2,1.2,0,0,0,.406-.914h2.117a2.9,2.9,0,0,1-.469,1.574,3.093,3.093,0,0,1-1.262,1.109,3.949,3.949,0,0,1-1.77.395A3.67,3.67,0,0,1,80.426,34a4.56,4.56,0,0,1-1.047-3.184v-.148a4.508,4.508,0,0,1,1.039-3.117,3.627,3.627,0,0,1,2.852-1.164,3.555,3.555,0,0,1,2.543.9,3.2,3.2,0,0,1,.973,2.4H84.668a1.551,1.551,0,0,0-.406-1.072,1.51,1.51,0,0,0-2.223.163,3.333,3.333,0,0,0-.4,1.866v.235a3.375,3.375,0,0,0,.4,1.878A1.377,1.377,0,0,0,83.246,33.336ZM90.457,35H88.191V26.547h2.266Zm-2.4-10.641a1.112,1.112,0,0,1,.34-.836,1.465,1.465,0,0,1,1.848,0,1.193,1.193,0,0,1,0,1.68,1.448,1.448,0,0,1-1.836,0A1.108,1.108,0,0,1,88.059,24.359ZM91.965,30.7a5.013,5.013,0,0,1,.484-2.242,3.546,3.546,0,0,1,1.395-1.523,4.069,4.069,0,0,1,2.113-.539,3.849,3.849,0,0,1,2.793,1.047,4.2,4.2,0,0,1,1.207,2.844l.016.578a4.418,4.418,0,0,1-1.086,3.121,4.209,4.209,0,0,1-5.832,0,4.5,4.5,0,0,1-1.09-3.187Zm2.258.16a3.16,3.16,0,0,0,.453,1.843,1.628,1.628,0,0,0,2.578.008,3.457,3.457,0,0,0,.461-2.015,3.128,3.128,0,0,0-.461-1.831,1.5,1.5,0,0,0-1.3-.649,1.474,1.474,0,0,0-1.281.646A3.516,3.516,0,0,0,94.223,30.856ZM96.4,23h2.461L96.7,25.422H94.863Zm7.039,3.547.07.977a2.951,2.951,0,0,1,2.43-1.133,2.453,2.453,0,0,1,2,.789,3.682,3.682,0,0,1,.672,2.359V35h-2.258V29.594a1.465,1.465,0,0,0-.312-1.043A1.4,1.4,0,0,0,105,28.227a1.553,1.553,0,0,0-1.43.813V35h-2.258V26.547Z" transform="translate(897.676 1996)" fill="#12263f"/>
      <path id="Trazado_195421" data-name="Trazado 195421" d="M25.656,5.625l2.922,8.25,2.906-8.25h3.078V17H32.211V13.891l.234-5.367L29.375,17H27.766L24.7,8.531l.234,5.359V17H22.594V5.625Zm14.7,11.531a4.15,4.15,0,0,1-3.027-1.141,4.054,4.054,0,0,1-1.168-3.039v-.219a5.106,5.106,0,0,1,.492-2.277,3.612,3.612,0,0,1,1.395-1.547A3.914,3.914,0,0,1,40.1,8.391a3.508,3.508,0,0,1,2.73,1.094,4.444,4.444,0,0,1,1,3.1v.922H38.445a2.1,2.1,0,0,0,.66,1.328,2,2,0,0,0,1.395.5,2.437,2.437,0,0,0,2.039-.945l1.109,1.242a3.389,3.389,0,0,1-1.375,1.121A4.511,4.511,0,0,1,40.352,17.156Zm-.258-6.945a1.411,1.411,0,0,0-1.09.455,2.357,2.357,0,0,0-.535,1.3h3.141v-.181a1.681,1.681,0,0,0-.406-1.165A1.456,1.456,0,0,0,40.094,10.211Zm4.664,2.5a5.094,5.094,0,0,1,.887-3.148A2.877,2.877,0,0,1,48.07,8.391a2.589,2.589,0,0,1,2.039.922V5h2.266V17H50.336l-.109-.9a2.657,2.657,0,0,1-2.172,1.055A2.869,2.869,0,0,1,45.66,15.98,5.258,5.258,0,0,1,44.758,12.711Zm2.258.168A3.337,3.337,0,0,0,47.43,14.7a1.349,1.349,0,0,0,1.2.634,1.511,1.511,0,0,0,1.477-.884V11.111a1.489,1.489,0,0,0-1.461-.884Q47.016,10.227,47.016,12.879ZM56.508,17H54.242V8.547h2.266Zm-2.4-10.641a1.112,1.112,0,0,1,.34-.836,1.465,1.465,0,0,1,1.848,0,1.105,1.105,0,0,1,.344.836,1.108,1.108,0,0,1-.348.844,1.448,1.448,0,0,1-1.836,0A1.108,1.108,0,0,1,54.109,6.359ZM58.016,12.7a5.013,5.013,0,0,1,.484-2.242A3.546,3.546,0,0,1,59.895,8.93a4.069,4.069,0,0,1,2.113-.539A3.849,3.849,0,0,1,64.8,9.438a4.2,4.2,0,0,1,1.207,2.844l.016.578a4.418,4.418,0,0,1-1.086,3.121,4.209,4.209,0,0,1-5.832,0,4.5,4.5,0,0,1-1.09-3.187Zm2.258.16a3.16,3.16,0,0,0,.453,1.843,1.628,1.628,0,0,0,2.578.008,3.457,3.457,0,0,0,.461-2.015A3.128,3.128,0,0,0,63.3,10.86a1.5,1.5,0,0,0-1.3-.649,1.474,1.474,0,0,0-1.281.646A3.516,3.516,0,0,0,60.273,12.856Zm11.719,1.808a.727.727,0,0,0-.41-.652,4.659,4.659,0,0,0-1.316-.426q-3.016-.633-3.016-2.562a2.323,2.323,0,0,1,.934-1.879,3.766,3.766,0,0,1,2.441-.754,4.053,4.053,0,0,1,2.574.758,2.388,2.388,0,0,1,.965,1.969H71.906a1.092,1.092,0,0,0-.312-.8A1.322,1.322,0,0,0,70.617,10a1.351,1.351,0,0,0-.883.258.814.814,0,0,0-.312.656.7.7,0,0,0,.355.605,3.657,3.657,0,0,0,1.2.4A9.8,9.8,0,0,1,72.4,12.3a2.336,2.336,0,0,1,1.789,2.273,2.2,2.2,0,0,1-.992,1.871,4.28,4.28,0,0,1-2.562.715,4.47,4.47,0,0,1-1.887-.379,3.166,3.166,0,0,1-1.293-1.039,2.414,2.414,0,0,1-.469-1.426h2.141a1.179,1.179,0,0,0,.445.922,1.766,1.766,0,0,0,1.109.32,1.635,1.635,0,0,0,.98-.246A.766.766,0,0,0,71.992,14.664Zm7.281-1.953a5.094,5.094,0,0,1,.887-3.148,2.877,2.877,0,0,1,2.426-1.172,2.589,2.589,0,0,1,2.039.922V5h2.266V17H84.852l-.109-.9a2.657,2.657,0,0,1-2.172,1.055,2.869,2.869,0,0,1-2.395-1.176A5.258,5.258,0,0,1,79.273,12.711Zm2.258.168a3.337,3.337,0,0,0,.414,1.823,1.349,1.349,0,0,0,1.2.634,1.511,1.511,0,0,0,1.477-.884V11.111a1.489,1.489,0,0,0-1.461-.884Q81.531,10.227,81.531,12.879Zm11,4.277A4.15,4.15,0,0,1,89.5,16.016a4.054,4.054,0,0,1-1.168-3.039v-.219a5.106,5.106,0,0,1,.492-2.277,3.612,3.612,0,0,1,1.395-1.547,3.914,3.914,0,0,1,2.059-.543,3.508,3.508,0,0,1,2.73,1.094,4.444,4.444,0,0,1,1,3.1v.922H90.625a2.1,2.1,0,0,0,.66,1.328,2,2,0,0,0,1.395.5,2.437,2.437,0,0,0,2.039-.945l1.109,1.242a3.389,3.389,0,0,1-1.375,1.121A4.511,4.511,0,0,1,92.531,17.156Zm-.258-6.945a1.411,1.411,0,0,0-1.09.455,2.357,2.357,0,0,0-.535,1.3h3.141v-.181a1.681,1.681,0,0,0-.406-1.165A1.456,1.456,0,0,0,92.273,10.211ZM19.9,24.469v2.078h1.445V28.2H19.9v4.219a1.007,1.007,0,0,0,.18.672.9.9,0,0,0,.688.2,3.6,3.6,0,0,0,.664-.055v1.711a4.648,4.648,0,0,1-1.367.2,2.156,2.156,0,0,1-2.422-2.4V28.2H16.406V26.547h1.234V24.469Zm7.453,4.2a6.134,6.134,0,0,0-.812-.062,1.654,1.654,0,0,0-1.68.867V35H22.6V26.547h2.133l.063,1.008a2.092,2.092,0,0,1,1.883-1.164,2.366,2.366,0,0,1,.7.1ZM33.1,35a2.507,2.507,0,0,1-.227-.758,2.732,2.732,0,0,1-2.133.914,3,3,0,0,1-2.059-.719,2.312,2.312,0,0,1-.816-1.812,2.389,2.389,0,0,1,1-2.062,4.915,4.915,0,0,1,2.879-.727h1.039v-.484a1.393,1.393,0,0,0-.3-.937,1.183,1.183,0,0,0-.949-.352,1.345,1.345,0,0,0-.895.273.929.929,0,0,0-.324.75H28.055a2.268,2.268,0,0,1,.453-1.359,3,3,0,0,1,1.281-.98,4.669,4.669,0,0,1,1.859-.355,3.689,3.689,0,0,1,2.48.785,2.747,2.747,0,0,1,.918,2.207v3.664a4.041,4.041,0,0,0,.336,1.82V35Zm-1.867-1.57a1.945,1.945,0,0,0,.922-.223,1.462,1.462,0,0,0,.625-.6V31.156h-.844q-1.7,0-1.8,1.172l-.008.133a.9.9,0,0,0,.3.7A1.153,1.153,0,0,0,31.234,33.43Zm7.625-6.883.07.977a2.951,2.951,0,0,1,2.43-1.133,2.453,2.453,0,0,1,2,.789,3.682,3.682,0,0,1,.672,2.359V35H41.773V29.594a1.465,1.465,0,0,0-.312-1.043,1.4,1.4,0,0,0-1.039-.324,1.553,1.553,0,0,0-1.43.813V35H36.734V26.547ZM50.32,32.664a.727.727,0,0,0-.41-.652,4.659,4.659,0,0,0-1.316-.426q-3.016-.633-3.016-2.562a2.323,2.323,0,0,1,.934-1.879,3.766,3.766,0,0,1,2.441-.754,4.053,4.053,0,0,1,2.574.758,2.388,2.388,0,0,1,.965,1.969H50.234a1.092,1.092,0,0,0-.312-.8A1.322,1.322,0,0,0,48.945,28a1.351,1.351,0,0,0-.883.258.814.814,0,0,0-.312.656.7.7,0,0,0,.355.605,3.657,3.657,0,0,0,1.2.4,9.8,9.8,0,0,1,1.422.379,2.336,2.336,0,0,1,1.789,2.273,2.205,2.205,0,0,1-.992,1.871,4.28,4.28,0,0,1-2.562.715,4.47,4.47,0,0,1-1.887-.379,3.166,3.166,0,0,1-1.293-1.039,2.414,2.414,0,0,1-.469-1.426h2.141a1.179,1.179,0,0,0,.445.922,1.766,1.766,0,0,0,1.109.32,1.635,1.635,0,0,0,.98-.246A.766.766,0,0,0,50.32,32.664Zm5.766-6.117.07.945a2.971,2.971,0,0,1,2.43-1.1,2.255,2.255,0,0,1,2.242,1.289,2.9,2.9,0,0,1,2.539-1.289,2.521,2.521,0,0,1,2.047.8,3.681,3.681,0,0,1,.672,2.41V35H63.82V29.609a1.61,1.61,0,0,0-.281-1.051,1.246,1.246,0,0,0-.992-.332,1.409,1.409,0,0,0-1.406.969l.008,5.8H58.891V29.617a1.59,1.59,0,0,0-.289-1.062,1.259,1.259,0,0,0-.984-.328,1.463,1.463,0,0,0-1.391.8V35H53.969V26.547ZM70.2,35H67.938V26.547H70.2ZM67.8,24.359a1.112,1.112,0,0,1,.34-.836,1.465,1.465,0,0,1,1.848,0,1.193,1.193,0,0,1,0,1.68,1.448,1.448,0,0,1-1.836,0A1.108,1.108,0,0,1,67.8,24.359Zm8.836,8.3a.727.727,0,0,0-.41-.652,4.659,4.659,0,0,0-1.316-.426Q71.9,30.953,71.9,29.023a2.323,2.323,0,0,1,.934-1.879,3.766,3.766,0,0,1,2.441-.754,4.053,4.053,0,0,1,2.574.758,2.388,2.388,0,0,1,.965,1.969H76.555a1.092,1.092,0,0,0-.312-.8A1.322,1.322,0,0,0,75.266,28a1.351,1.351,0,0,0-.883.258.814.814,0,0,0-.312.656.7.7,0,0,0,.355.605,3.657,3.657,0,0,0,1.2.4,9.8,9.8,0,0,1,1.422.379,2.336,2.336,0,0,1,1.789,2.273,2.2,2.2,0,0,1-.992,1.871,4.28,4.28,0,0,1-2.562.715,4.47,4.47,0,0,1-1.887-.379A3.166,3.166,0,0,1,72.1,33.738a2.414,2.414,0,0,1-.469-1.426h2.141a1.179,1.179,0,0,0,.445.922,1.766,1.766,0,0,0,1.109.32,1.635,1.635,0,0,0,.98-.246A.766.766,0,0,0,76.641,32.664ZM82.672,35H80.406V26.547h2.266Zm-2.4-10.641a1.112,1.112,0,0,1,.34-.836,1.465,1.465,0,0,1,1.848,0,1.193,1.193,0,0,1,0,1.68,1.448,1.448,0,0,1-1.836,0A1.108,1.108,0,0,1,80.273,24.359ZM84.18,30.7a5.013,5.013,0,0,1,.484-2.242,3.546,3.546,0,0,1,1.395-1.523,4.069,4.069,0,0,1,2.113-.539,3.849,3.849,0,0,1,2.793,1.047,4.2,4.2,0,0,1,1.207,2.844l.016.578A4.418,4.418,0,0,1,91.1,33.98a4.209,4.209,0,0,1-5.832,0A4.5,4.5,0,0,1,84.18,30.8Zm2.258.16a3.16,3.16,0,0,0,.453,1.843,1.628,1.628,0,0,0,2.578.008,3.457,3.457,0,0,0,.461-2.015,3.128,3.128,0,0,0-.461-1.831,1.5,1.5,0,0,0-1.3-.649,1.474,1.474,0,0,0-1.281.646A3.516,3.516,0,0,0,86.438,30.856ZM88.617,23h2.461l-2.164,2.422H87.078Zm7.039,3.547.07.977a2.951,2.951,0,0,1,2.43-1.133,2.453,2.453,0,0,1,2,.789,3.682,3.682,0,0,1,.672,2.359V35H98.57V29.594a1.465,1.465,0,0,0-.312-1.043,1.4,1.4,0,0,0-1.039-.324,1.553,1.553,0,0,0-1.43.813V35H93.531V26.547Z" transform="translate(1055.676 1996)" fill="#12263f"/>
      <path id="Trazado_195422" data-name="Trazado 195422" d="M30.48,12.836H28.613V17H26.27V5.625H30.5a4.778,4.778,0,0,1,3.109.9A3.1,3.1,0,0,1,34.7,9.063,3.5,3.5,0,0,1,34.2,11a3.437,3.437,0,0,1-1.527,1.238l2.461,4.648V17H32.613Zm-1.867-1.9H30.5a1.936,1.936,0,0,0,1.367-.449,1.606,1.606,0,0,0,.484-1.238A1.719,1.719,0,0,0,31.9,7.984a1.9,1.9,0,0,0-1.4-.461H28.613Zm11.609,6.219A4.15,4.15,0,0,1,37.2,16.016a4.054,4.054,0,0,1-1.168-3.039v-.219a5.106,5.106,0,0,1,.492-2.277,3.612,3.612,0,0,1,1.395-1.547,3.914,3.914,0,0,1,2.059-.543A3.508,3.508,0,0,1,42.7,9.484a4.444,4.444,0,0,1,1,3.1v.922H38.316a2.1,2.1,0,0,0,.66,1.328,2,2,0,0,0,1.395.5,2.437,2.437,0,0,0,2.039-.945l1.109,1.242a3.389,3.389,0,0,1-1.375,1.121A4.511,4.511,0,0,1,40.223,17.156Zm-.258-6.945a1.411,1.411,0,0,0-1.09.455,2.357,2.357,0,0,0-.535,1.3H41.48v-.181a1.681,1.681,0,0,0-.406-1.165A1.456,1.456,0,0,0,39.965,10.211ZM48.5,15.336a1.481,1.481,0,0,0,1.016-.344,1.2,1.2,0,0,0,.406-.914h2.117a2.9,2.9,0,0,1-.469,1.574A3.093,3.093,0,0,1,50.3,16.762a3.949,3.949,0,0,1-1.77.395A3.67,3.67,0,0,1,45.676,16a4.56,4.56,0,0,1-1.047-3.184v-.148a4.508,4.508,0,0,1,1.039-3.117A3.627,3.627,0,0,1,48.52,8.391a3.555,3.555,0,0,1,2.543.9,3.2,3.2,0,0,1,.973,2.4H49.918a1.551,1.551,0,0,0-.406-1.072,1.51,1.51,0,0,0-2.223.163,3.333,3.333,0,0,0-.4,1.866v.235a3.375,3.375,0,0,0,.4,1.878A1.377,1.377,0,0,0,48.5,15.336Zm9.891.8a2.831,2.831,0,0,1-2.312,1.016A2.67,2.67,0,0,1,54,16.375a3.335,3.335,0,0,1-.73-2.289V8.547h2.258v5.467q0,1.322,1.2,1.322a1.63,1.63,0,0,0,1.578-.8V8.547h2.266V17H58.449Zm8.641-5.477a6.134,6.134,0,0,0-.812-.062,1.654,1.654,0,0,0-1.68.867V17H62.277V8.547H64.41l.063,1.008a2.092,2.092,0,0,1,1.883-1.164,2.366,2.366,0,0,1,.7.1Zm5.664,4a.727.727,0,0,0-.41-.652,4.659,4.659,0,0,0-1.316-.426q-3.016-.633-3.016-2.562a2.323,2.323,0,0,1,.934-1.879,3.766,3.766,0,0,1,2.441-.754,4.053,4.053,0,0,1,2.574.758,2.388,2.388,0,0,1,.965,1.969H72.605a1.092,1.092,0,0,0-.312-.8A1.322,1.322,0,0,0,71.316,10a1.351,1.351,0,0,0-.883.258.814.814,0,0,0-.312.656.7.7,0,0,0,.355.605,3.657,3.657,0,0,0,1.2.4A9.8,9.8,0,0,1,73.1,12.3a2.336,2.336,0,0,1,1.789,2.273,2.2,2.2,0,0,1-.992,1.871,4.28,4.28,0,0,1-2.562.715,4.47,4.47,0,0,1-1.887-.379,3.166,3.166,0,0,1-1.293-1.039,2.414,2.414,0,0,1-.469-1.426h2.141a1.179,1.179,0,0,0,.445.922,1.766,1.766,0,0,0,1.109.32,1.635,1.635,0,0,0,.98-.246A.766.766,0,0,0,72.691,14.664Zm3.3-1.969a5.013,5.013,0,0,1,.484-2.242A3.546,3.546,0,0,1,77.867,8.93a4.069,4.069,0,0,1,2.113-.539,3.849,3.849,0,0,1,2.793,1.047,4.2,4.2,0,0,1,1.207,2.844l.016.578A4.418,4.418,0,0,1,82.91,15.98a4.209,4.209,0,0,1-5.832,0,4.5,4.5,0,0,1-1.09-3.187Zm2.258.16A3.16,3.16,0,0,0,78.7,14.7a1.628,1.628,0,0,0,2.578.008,3.457,3.457,0,0,0,.461-2.015,3.128,3.128,0,0,0-.461-1.831,1.5,1.5,0,0,0-1.3-.649,1.474,1.474,0,0,0-1.281.646A3.516,3.516,0,0,0,78.246,12.856Zm11.719,1.808a.727.727,0,0,0-.41-.652,4.659,4.659,0,0,0-1.316-.426q-3.016-.633-3.016-2.562a2.323,2.323,0,0,1,.934-1.879A3.766,3.766,0,0,1,88.6,8.391a4.053,4.053,0,0,1,2.574.758,2.388,2.388,0,0,1,.965,1.969H89.879a1.092,1.092,0,0,0-.312-.8A1.322,1.322,0,0,0,88.59,10a1.351,1.351,0,0,0-.883.258.814.814,0,0,0-.312.656.7.7,0,0,0,.355.605,3.657,3.657,0,0,0,1.2.4,9.8,9.8,0,0,1,1.422.379A2.336,2.336,0,0,1,92.16,14.57a2.2,2.2,0,0,1-.992,1.871,4.28,4.28,0,0,1-2.562.715,4.47,4.47,0,0,1-1.887-.379,3.166,3.166,0,0,1-1.293-1.039,2.414,2.414,0,0,1-.469-1.426H87.1a1.179,1.179,0,0,0,.445.922,1.766,1.766,0,0,0,1.109.32,1.635,1.635,0,0,0,.98-.246A.766.766,0,0,0,89.965,14.664ZM17.887,35.336a1.481,1.481,0,0,0,1.016-.344,1.2,1.2,0,0,0,.406-.914h2.117a2.9,2.9,0,0,1-.469,1.574A3.093,3.093,0,0,1,19.7,36.762a3.949,3.949,0,0,1-1.77.395A3.67,3.67,0,0,1,15.066,36,4.56,4.56,0,0,1,14.02,32.82v-.148a4.508,4.508,0,0,1,1.039-3.117,3.627,3.627,0,0,1,2.852-1.164,3.555,3.555,0,0,1,2.543.9,3.2,3.2,0,0,1,.973,2.4H19.309a1.551,1.551,0,0,0-.406-1.072,1.51,1.51,0,0,0-2.223.163,3.333,3.333,0,0,0-.4,1.866v.235a3.375,3.375,0,0,0,.4,1.878A1.377,1.377,0,0,0,17.887,35.336ZM22.363,32.7a5.013,5.013,0,0,1,.484-2.242,3.546,3.546,0,0,1,1.395-1.523,4.069,4.069,0,0,1,2.113-.539,3.849,3.849,0,0,1,2.793,1.047,4.2,4.2,0,0,1,1.207,2.844l.016.578a4.418,4.418,0,0,1-1.086,3.121,3.775,3.775,0,0,1-2.914,1.176,3.793,3.793,0,0,1-2.918-1.172,4.5,4.5,0,0,1-1.09-3.187Zm2.258.16a3.16,3.16,0,0,0,.453,1.843,1.628,1.628,0,0,0,2.578.008,3.457,3.457,0,0,0,.461-2.015,3.128,3.128,0,0,0-.461-1.831,1.5,1.5,0,0,0-1.3-.649,1.474,1.474,0,0,0-1.281.646A3.516,3.516,0,0,0,24.621,32.856Zm9.258-4.309.07.945a2.971,2.971,0,0,1,2.43-1.1,2.255,2.255,0,0,1,2.242,1.289,2.9,2.9,0,0,1,2.539-1.289,2.521,2.521,0,0,1,2.047.8,3.681,3.681,0,0,1,.672,2.41V37H41.613V31.609a1.61,1.61,0,0,0-.281-1.051,1.246,1.246,0,0,0-.992-.332,1.409,1.409,0,0,0-1.406.969l.008,5.8H36.684V31.617a1.59,1.59,0,0,0-.289-1.062,1.259,1.259,0,0,0-.984-.328,1.463,1.463,0,0,0-1.391.8V37H31.762V28.547Zm19.344,4.3a5.07,5.07,0,0,1-.887,3.129,2.843,2.843,0,0,1-2.395,1.176,2.633,2.633,0,0,1-2.07-.891V40.25H45.613v-11.7h2.094l.078.828a2.654,2.654,0,0,1,2.141-.984,2.862,2.862,0,0,1,2.43,1.156,5.207,5.207,0,0,1,.867,3.188Zm-2.258-.164a3.327,3.327,0,0,0-.418-1.82,1.361,1.361,0,0,0-1.215-.641,1.478,1.478,0,0,0-1.461.813V34.5a1.5,1.5,0,0,0,1.477.836Q50.965,35.336,50.965,32.688ZM59.52,37a2.507,2.507,0,0,1-.227-.758,2.732,2.732,0,0,1-2.133.914,3,3,0,0,1-2.059-.719,2.312,2.312,0,0,1-.816-1.812,2.389,2.389,0,0,1,1-2.062,4.915,4.915,0,0,1,2.879-.727H59.2v-.484a1.393,1.393,0,0,0-.3-.937,1.183,1.183,0,0,0-.949-.352,1.345,1.345,0,0,0-.895.273.929.929,0,0,0-.324.75H54.473a2.268,2.268,0,0,1,.453-1.359,3,3,0,0,1,1.281-.98,4.669,4.669,0,0,1,1.859-.355,3.689,3.689,0,0,1,2.48.785,2.747,2.747,0,0,1,.918,2.207v3.664a4.041,4.041,0,0,0,.336,1.82V37Zm-1.867-1.57a1.945,1.945,0,0,0,.922-.223,1.462,1.462,0,0,0,.625-.6V33.156h-.844q-1.7,0-1.8,1.172l-.008.133a.9.9,0,0,0,.3.7A1.153,1.153,0,0,0,57.652,35.43Zm10.3-4.766a6.134,6.134,0,0,0-.812-.062,1.654,1.654,0,0,0-1.68.867V37H63.2V28.547h2.133l.063,1.008a2.092,2.092,0,0,1,1.883-1.164,2.366,2.366,0,0,1,.7.1Zm4.18-4.2v2.078h1.445V30.2H72.129v4.219a1.007,1.007,0,0,0,.18.672.9.9,0,0,0,.688.2,3.6,3.6,0,0,0,.664-.055v1.711a4.648,4.648,0,0,1-1.367.2,2.156,2.156,0,0,1-2.422-2.4V30.2H68.637V28.547h1.234V26.469ZM77.215,37H74.949V28.547h2.266Zm-2.4-10.641a1.112,1.112,0,0,1,.34-.836,1.465,1.465,0,0,1,1.848,0,1.193,1.193,0,0,1,0,1.68,1.448,1.448,0,0,1-1.836,0A1.108,1.108,0,0,1,74.816,26.359Zm3.906,6.352a5.094,5.094,0,0,1,.887-3.148,2.877,2.877,0,0,1,2.426-1.172,2.589,2.589,0,0,1,2.039.922V25H86.34V37H84.3l-.109-.9a2.657,2.657,0,0,1-2.172,1.055,2.869,2.869,0,0,1-2.395-1.176A5.258,5.258,0,0,1,78.723,32.711Zm2.258.168a3.337,3.337,0,0,0,.414,1.823,1.349,1.349,0,0,0,1.2.634,1.511,1.511,0,0,0,1.477-.884V31.111a1.489,1.489,0,0,0-1.461-.884Q80.98,30.227,80.98,32.879Zm6.758-.184a5.013,5.013,0,0,1,.484-2.242,3.546,3.546,0,0,1,1.395-1.523,4.069,4.069,0,0,1,2.113-.539,3.849,3.849,0,0,1,2.793,1.047,4.2,4.2,0,0,1,1.207,2.844l.016.578A4.418,4.418,0,0,1,94.66,35.98a4.209,4.209,0,0,1-5.832,0,4.5,4.5,0,0,1-1.09-3.187Zm2.258.16a3.16,3.16,0,0,0,.453,1.843,1.628,1.628,0,0,0,2.578.008,3.457,3.457,0,0,0,.461-2.015,3.128,3.128,0,0,0-.461-1.831,1.5,1.5,0,0,0-1.3-.649,1.474,1.474,0,0,0-1.281.646A3.516,3.516,0,0,0,90,32.856Zm11.719,1.808a.727.727,0,0,0-.41-.652,4.659,4.659,0,0,0-1.316-.426q-3.016-.633-3.016-2.562a2.323,2.323,0,0,1,.934-1.879,3.766,3.766,0,0,1,2.441-.754,4.053,4.053,0,0,1,2.574.758,2.388,2.388,0,0,1,.965,1.969h-2.258a1.092,1.092,0,0,0-.312-.8A1.322,1.322,0,0,0,100.34,30a1.351,1.351,0,0,0-.883.258.814.814,0,0,0-.312.656.7.7,0,0,0,.355.605,3.657,3.657,0,0,0,1.2.4,9.8,9.8,0,0,1,1.422.379,2.336,2.336,0,0,1,1.789,2.273,2.2,2.2,0,0,1-.992,1.871,4.28,4.28,0,0,1-2.562.715,4.47,4.47,0,0,1-1.887-.379,3.166,3.166,0,0,1-1.293-1.039,2.414,2.414,0,0,1-.469-1.426h2.141a1.179,1.179,0,0,0,.445.922,1.766,1.766,0,0,0,1.109.32,1.635,1.635,0,0,0,.98-.246A.766.766,0,0,0,101.715,34.664Z" transform="translate(1213.676 1996)" fill="#12263f"/>
    </g>
    <g id="Grupo_142466" data-name="Grupo 142466" transform="translate(452.225 1931.463)">
      <ellipse id="Elipse_4868" data-name="Elipse 4868" cx="28" cy="29" rx="28" ry="29" transform="translate(0.451 -0.463)" fill="url(#linear-gradient)"/>
      <g id="Grupo_142365" data-name="Grupo 142365" transform="translate(10.388 8.993)">
        <g id="Grupo_141597" data-name="Grupo 141597" transform="translate(0 0)" clip-path="url(#clip-path)">
          <path id="Trazado_183339" data-name="Trazado 183339" d="M127.043,52.247a3.25,3.25,0,1,1,3.25-3.25,3.254,3.254,0,0,1-3.25,3.25m0-5.261a2.01,2.01,0,1,0,2.01,2.01,2.013,2.013,0,0,0-2.01-2.01" transform="translate(-109.173 -40.344)" fill="#12263f"/>
          <path id="Trazado_183340" data-name="Trazado 183340" d="M119.659,206.479a2,2,0,0,1-.323-.026,2.024,2.024,0,0,1-1.642-2.014V190.29a.62.62,0,0,1,1.24,0v14.149a.786.786,0,0,0,.6.79.729.729,0,0,0,.855-.718V194.265a1.264,1.264,0,1,1,2.527,0v10.174a.786.786,0,0,0,.6.79.729.729,0,0,0,.855-.718v-1.132a.62.62,0,0,1,1.24,0v1.132a1.969,1.969,0,0,1-2.294,1.942,2.024,2.024,0,0,1-1.642-2.014V194.265c0-.026-.047-.026-.047,0v10.246a1.967,1.967,0,0,1-1.971,1.968" transform="translate(-103.795 -167.271)" fill="#12263f"/>
          <path id="Trazado_183341" data-name="Trazado 183341" d="M174.871,214.9a.62.62,0,0,1-.62-.62v-11.63a.62.62,0,1,1,1.24,0v11.63a.62.62,0,0,1-.62.62" transform="translate(-153.673 -178.168)" fill="#12263f"/>
          <path id="Trazado_183342" data-name="Trazado 183342" d="M103.568,186.137a1.676,1.676,0,0,1-1.674-1.675v-3.837a.62.62,0,0,1,1.24,0v3.837a.435.435,0,0,0,.434.435.429.429,0,0,0,.2-.049.62.62,0,0,1,.577,1.1,1.68,1.68,0,0,1-.778.191" transform="translate(-89.861 -158.748)" fill="#12263f"/>
          <path id="Trazado_183343" data-name="Trazado 183343" d="M113.321,105.507a.618.618,0,0,1-.435-.178,6.429,6.429,0,0,0-4.537-1.861h-.184a6.429,6.429,0,0,0-4.537,1.861.62.62,0,0,1-.87-.883,7.661,7.661,0,0,1,5.407-2.218h.184a7.661,7.661,0,0,1,5.407,2.218.62.62,0,0,1-.435,1.062" transform="translate(-90.46 -90.155)" fill="#12263f"/>
          <path id="Trazado_183344" data-name="Trazado 183344" d="M177.042,217.849a1.68,1.68,0,0,1-.778-.191.62.62,0,0,1,.577-1.1.428.428,0,0,0,.2.049.435.435,0,0,0,.4-.266.62.62,0,0,1,1.142.483,1.672,1.672,0,0,1-1.543,1.023" transform="translate(-155.155 -190.46)" fill="#12263f"/>
          <path id="Trazado_183345" data-name="Trazado 183345" d="M245.368,62.495a.62.62,0,1,1,0-1.24,1.61,1.61,0,1,0-.3-3.193.62.62,0,0,1-.231-1.218,2.851,2.851,0,1,1,.533,5.651" transform="translate(-215.476 -50.087)" fill="#12263f"/>
          <path id="Trazado_183346" data-name="Trazado 183346" d="M221.554,271.308q-.094,0-.188-.009a2.015,2.015,0,0,1-1.777-2.017V263.8a.62.62,0,0,1,1.24,0v5.482a.766.766,0,0,0,.654.782.728.728,0,0,0,.8-.724v-5.192a.62.62,0,0,1,1.24,0v5.192a1.968,1.968,0,0,1-1.972,1.968" transform="translate(-193.657 -232.1)" fill="#12263f"/>
          <path id="Trazado_183347" data-name="Trazado 183347" d="M255.281,239.8c-.062,0-.125,0-.188-.009a2.015,2.015,0,0,1-1.777-2.017v-8.237a.62.62,0,1,1,1.24,0v8.237a.766.766,0,0,0,.654.782.728.728,0,0,0,.8-.725v-9.758a.62.62,0,1,1,1.24,0v9.758a1.968,1.968,0,0,1-1.972,1.968" transform="translate(-223.401 -200.597)" fill="#12263f"/>
          <path id="Trazado_183348" data-name="Trazado 183348" d="M276.767,159.056a.62.62,0,0,1-.62-.62V149.11a.62.62,0,1,1,1.24,0v9.326a.62.62,0,0,1-.62.62" transform="translate(-243.535 -130.954)" fill="#12263f"/>
          <path id="Trazado_183349" data-name="Trazado 183349" d="M282.929,223.578a.62.62,0,0,1-.62-.62v-.916a.62.62,0,0,1,1.24,0v.916a.62.62,0,0,1-.62.62" transform="translate(-248.969 -195.273)" fill="#12263f"/>
          <path id="Trazado_183350" data-name="Trazado 183350" d="M251.473,119.713a1.679,1.679,0,0,1-.778-.191.62.62,0,0,1,.577-1.1.428.428,0,0,0,.2.049.435.435,0,0,0,.434-.435V109.08a2.261,2.261,0,0,0-.665-1.6,5.358,5.358,0,0,0-3.781-1.551h-.156a.62.62,0,0,1,0-1.24h.156a6.59,6.59,0,0,1,4.651,1.907,3.508,3.508,0,0,1,1.035,2.486v8.958a1.676,1.676,0,0,1-1.674,1.675" transform="translate(-217.553 -92.324)" fill="#12263f"/>
          <path id="Trazado_183351" data-name="Trazado 183351" d="M79.138,223.578a.62.62,0,0,1-.62-.62v-.916a.62.62,0,0,1,1.24,0v.916a.62.62,0,0,1-.62.62" transform="translate(-69.245 -195.273)" fill="#12263f"/>
          <path id="Trazado_183352" data-name="Trazado 183352" d="M72.575,238.479H70.546a.62.62,0,0,1-.62-.62v-6.716a.62.62,0,0,1,.62-.62h2.029a.62.62,0,0,1,.62.62v6.716a.62.62,0,0,1-.62.62m-1.409-1.24h.789v-5.476h-.789Z" transform="translate(-61.668 -203.299)" fill="#12263f"/>
          <path id="Trazado_183353" data-name="Trazado 183353" d="M27.9,62.491h-.039a2.85,2.85,0,0,1,.177-5.7.62.62,0,0,1,0,1.24,1.61,1.61,0,0,0-.1,3.218.62.62,0,0,1-.037,1.239" transform="translate(-22.216 -50.087)" fill="#12263f"/>
          <path id="Trazado_183354" data-name="Trazado 183354" d="M21.747,170.162a1.963,1.963,0,0,1-1.965-2.04V157.948c0-.026-.047-.026-.047,0v10.246a1.969,1.969,0,0,1-2.294,1.942,2.024,2.024,0,0,1-1.642-2.014V149.11a.62.62,0,1,1,1.24,0v19.012a.786.786,0,0,0,.6.79.729.729,0,0,0,.855-.718V157.948a1.263,1.263,0,1,1,2.527,0v10.174a.786.786,0,0,0,.6.79.729.729,0,0,0,.855-.718v-1.228a.62.62,0,0,1,1.24,0v1.228a1.967,1.967,0,0,1-1.971,1.968" transform="translate(-13.933 -130.954)" fill="#12263f"/>
          <path id="Trazado_183355" data-name="Trazado 183355" d="M72.975,167.407a.62.62,0,0,1-.62-.62v-8.438a.62.62,0,0,1,1.24,0v8.438a.62.62,0,0,1-.62.62" transform="translate(-63.81 -139.102)" fill="#12263f"/>
          <path id="Trazado_183356" data-name="Trazado 183356" d="M1.674,119.713A1.676,1.676,0,0,1,0,118.038V109.08a3.507,3.507,0,0,1,1.035-2.486,6.59,6.59,0,0,1,4.651-1.907.62.62,0,0,1,0,1.24,5.357,5.357,0,0,0-3.781,1.551,2.26,2.26,0,0,0-.665,1.6v8.958a.435.435,0,0,0,.434.435.428.428,0,0,0,.2-.049.62.62,0,1,1,.577,1.1,1.679,1.679,0,0,1-.778.191" transform="translate(0 -92.324)" fill="#12263f"/>
          <path id="Trazado_183357" data-name="Trazado 183357" d="M75.147,178.768a1.68,1.68,0,0,1-.778-.191.62.62,0,0,1,.577-1.1.428.428,0,0,0,.2.049.435.435,0,0,0,.435-.435V172.27a.62.62,0,1,1,1.24,0v4.823a1.677,1.677,0,0,1-1.675,1.675" transform="translate(-65.294 -151.379)" fill="#12263f"/>
          <path id="Trazado_183358" data-name="Trazado 183358" d="M182,168.273a2.746,2.746,0,0,1-.659-.08,2.711,2.711,0,0,1-1.683-1.237l-5.136-8.489a.62.62,0,0,1,1.061-.642l5.135,8.489a1.489,1.489,0,0,0,2.044.5l.011-.006a1.489,1.489,0,0,0,.5-2.04l-5.067-8.377a.62.62,0,1,1,1.061-.642l5.067,8.376a2.729,2.729,0,0,1-.922,3.747l-.011.006a2.7,2.7,0,0,1-1.4.391" transform="translate(-153.832 -137.095)" fill="#12263f"/>
          <path id="Trazado_183359" data-name="Trazado 183359" d="M66.78,22.16a11.146,11.146,0,0,1-2.667-.325A11.075,11.075,0,0,1,61.028,1.6,11.076,11.076,0,0,1,77.515,13.728,11.089,11.089,0,0,1,66.78,22.16M66.744,1.241a9.838,9.838,0,0,0-8.4,14.93A9.835,9.835,0,1,0,75.176,5.989a9.77,9.77,0,0,0-6.064-4.46,9.9,9.9,0,0,0-2.368-.289m.032,18.628a8.845,8.845,0,0,1-2.115-.258A8.784,8.784,0,0,1,62.214,3.564,8.784,8.784,0,1,1,71.307,18.6a8.725,8.725,0,0,1-4.531,1.273M66.748,3.532a7.547,7.547,0,0,0-1.79,14.875,7.491,7.491,0,0,0,5.708-.871h0a7.545,7.545,0,0,0-2.1-13.781,7.6,7.6,0,0,0-1.817-.222" transform="translate(-49.105 0)" fill="#12263f"/>
          <path id="Trazado_183360" data-name="Trazado 183360" d="M222.724,153.084a.62.62,0,0,1-.62-.62V151.27a.62.62,0,1,1,1.24,0v1.194a.62.62,0,0,1-.62.62" transform="translate(-195.874 -132.859)" fill="#12263f"/>
        </g>
      </g>
    </g>
    <g id="Grupo_142467" data-name="Grupo 142467" transform="translate(610.79 1931.463)">
      <ellipse id="Elipse_4869" data-name="Elipse 4869" cx="28" cy="29" rx="28" ry="29" transform="translate(-0.114 -0.463)" fill="url(#linear-gradient)"/>
      <g id="Grupo_142369" data-name="Grupo 142369" transform="translate(5.649 5.653)">
        <g id="Grupo_141632" data-name="Grupo 141632" clip-path="url(#clip-path-2)">
          <path id="Trazado_183474" data-name="Trazado 183474" d="M38.914,59.433a20.52,20.52,0,1,1,20.52-20.52,20.543,20.543,0,0,1-20.52,20.52m0-39.6A19.076,19.076,0,1,0,57.989,38.913,19.1,19.1,0,0,0,38.914,19.837" transform="translate(-15.864 -15.863)" fill="#12263f"/>
          <path id="Trazado_183475" data-name="Trazado 183475" d="M163.057,193.233a.722.722,0,0,1,0-1.444,13.455,13.455,0,0,0,13.3-11.186.722.722,0,0,1,1.423.245,14.941,14.941,0,0,1-14.72,12.384" transform="translate(-140.007 -155.246)" fill="#12263f"/>
          <path id="Trazado_183476" data-name="Trazado 183476" d="M191.923,75.839a.722.722,0,0,1-.722-.722A13.5,13.5,0,0,0,179.926,61.8a.722.722,0,0,1,.236-1.425,14.941,14.941,0,0,1,12.483,14.737.722.722,0,0,1-.722.722" transform="translate(-154.658 -52.067)" fill="#12263f"/>
          <path id="Trazado_183477" data-name="Trazado 183477" d="M60.892,72.477a.729.729,0,0,1-.11-.008.722.722,0,0,1-.6-.823A14.941,14.941,0,0,1,74.943,58.981a.722.722,0,0,1,0,1.444A13.5,13.5,0,0,0,61.605,71.864a.722.722,0,0,1-.713.613" transform="translate(-51.893 -50.869)" fill="#12263f"/>
          <path id="Trazado_183478" data-name="Trazado 183478" d="M71.75,177.829a.713.713,0,0,1-.11-.009,14.941,14.941,0,0,1-12.659-14.765.722.722,0,1,1,1.444,0,13.5,13.5,0,0,0,11.433,13.337.722.722,0,0,1-.108,1.436" transform="translate(-50.869 -140.006)" fill="#12263f"/>
          <path id="Trazado_183479" data-name="Trazado 183479" d="M163.057,11.5a.722.722,0,0,1-.722-.722V.722a.722.722,0,1,1,1.444,0V10.774a.722.722,0,0,1-.722.722" transform="translate(-140.007)" fill="#12263f"/>
          <path id="Trazado_183480" data-name="Trazado 183480" d="M10.773,163.778H.721a.722.722,0,0,1,0-1.444H10.773a.722.722,0,0,1,0,1.444" transform="translate(0.001 -140.006)" fill="#12263f"/>
          <path id="Trazado_183481" data-name="Trazado 183481" d="M163.057,263.082a.722.722,0,0,1-.722-.722V252.308a.722.722,0,0,1,1.444,0V262.36a.722.722,0,0,1-.722.722" transform="translate(-140.007 -216.983)" fill="#12263f"/>
          <path id="Trazado_183482" data-name="Trazado 183482" d="M254.248,163.778h-1.94a.722.722,0,0,1,0-1.444h1.94a.722.722,0,1,1,0,1.444" transform="translate(-216.983 -140.006)" fill="#12263f"/>
          <path id="Trazado_183483" data-name="Trazado 183483" d="M274.521,163.778h-8.112a.722.722,0,0,1,0-1.444h8.112a.722.722,0,1,1,0,1.444" transform="translate(-229.144 -140.006)" fill="#12263f"/>
          <path id="Trazado_183484" data-name="Trazado 183484" d="M128.65,188.122a.722.722,0,0,1-.682-.484,6.193,6.193,0,0,0-11.692,0,.722.722,0,0,1-1.364-.476,7.637,7.637,0,0,1,14.419,0,.722.722,0,0,1-.682.96" transform="translate(-99.072 -157.005)" fill="#12263f"/>
          <path id="Trazado_183485" data-name="Trazado 183485" d="M133.615,107.97a5.417,5.417,0,1,1,5.417-5.417,5.423,5.423,0,0,1-5.417,5.417m0-9.39a3.973,3.973,0,1,0,3.973,3.973,3.977,3.977,0,0,0-3.973-3.973" transform="translate(-110.566 -83.776)" fill="#12263f"/>
        </g>
      </g>
    </g>
    <g id="Grupo_142468" data-name="Grupo 142468" transform="translate(770.31 1931.463)">
      <ellipse id="Elipse_4870" data-name="Elipse 4870" cx="27.5" cy="29" rx="27.5" ry="29" transform="translate(0.366 -0.463)" fill="url(#linear-gradient)"/>
      <g id="Fn9hEg" transform="translate(10.812 13.734)">
        <g id="Grupo_142370" data-name="Grupo 142370" transform="translate(0 0)">
          <path id="Trazado_183502" data-name="Trazado 183502" d="M3101.051-919.766v27.448a1.04,1.04,0,0,1-.991.481q-16.042-.018-32.083,0a1.033,1.033,0,0,1-1-.477v-27.448a1.04,1.04,0,0,1,1-.481q16.039.017,32.077,0A1.033,1.033,0,0,1,3101.051-919.766Zm-1.452,26.481v-19.82h-31.176v19.82Zm.012-25.5h-31.177v4.2h31.177Z" transform="translate(-3066.98 920.247)" fill="#12263f"/>
          <path id="Trazado_183503" data-name="Trazado 183503" d="M3136.019-801.007c1.329,2.116,2.652,4.2,3.948,6.308a1.081,1.081,0,0,1,.125.779.706.706,0,0,1-.539.417,1.093,1.093,0,0,1-.727-.4c-.559-.8-1.06-1.639-1.58-2.465q-1.269-2.02-2.535-4.042c-.367-.587-.366-.727.033-1.27q2.03-2.759,4.066-5.514a.738.738,0,0,1,1.052-.29c.374.247.427.662.1,1.112-1.254,1.718-2.52,3.427-3.781,5.139C3136.135-801.174,3136.091-801.109,3136.019-801.007Z" transform="translate(-3128.056 818.27)" fill="#12263f"/>
          <path id="Trazado_183504" data-name="Trazado 183504" d="M3300.195-808.7a2.773,2.773,0,0,1,.6.439c1.432,1.917,2.849,3.846,4.268,5.773a.72.72,0,0,1,.021.879c-1.409,2.237-2.811,4.479-4.225,6.713a.712.712,0,0,1-1.037.323.731.731,0,0,1-.158-1.079q1.876-3,3.772-5.993a.51.51,0,0,0-.029-.7c-1.247-1.663-2.469-3.345-3.706-5.015a.707.707,0,0,1-.105-.869A2.73,2.73,0,0,1,3300.195-808.7Z" transform="translate(-3277.487 819.257)" fill="#12263f"/>
          <path id="Trazado_183505" data-name="Trazado 183505" d="M3210.586-781.8a.746.746,0,0,1-.69-1.2q.935-1.695,1.881-3.383,1.786-3.194,3.574-6.387c.184-.331.429-.609.815-.478a1.145,1.145,0,0,1,.562.546.749.749,0,0,1-.105.571q-2.741,4.932-5.513,9.847A1.985,1.985,0,0,1,3210.586-781.8Z" transform="translate(-3196.242 805.295)" fill="#12263f"/>
          <path id="Trazado_183506" data-name="Trazado 183506" d="M3098.406-889.423a.722.722,0,0,1-.743.688.7.7,0,0,1-.673-.751.7.7,0,0,1,.713-.665A.722.722,0,0,1,3098.406-889.423Z" transform="translate(-3094.149 893)" fill="#12263f"/>
          <path id="Trazado_183507" data-name="Trazado 183507" d="M3128.414-889.44a.714.714,0,0,1-.727.7.7.7,0,0,1-.693-.735.7.7,0,0,1,.7-.681A.713.713,0,0,1,3128.414-889.44Z" transform="translate(-3121.314 893)" fill="#12263f"/>
          <path id="Trazado_183508" data-name="Trazado 183508" d="M3157.686-888.735a.718.718,0,0,1-.685-.753.72.72,0,0,1,.728-.663.729.729,0,0,1,.686.754A.727.727,0,0,1,3157.686-888.735Z" transform="translate(-3148.48 893)" fill="#12263f"/>
        </g>
      </g>
    </g>
    <g id="Grupo_142469" data-name="Grupo 142469" transform="translate(293.66 1931.463)">
      <ellipse id="Elipse_4775" data-name="Elipse 4775" cx="28" cy="29" rx="28" ry="29" transform="translate(0.016 -0.463)" fill="url(#linear-gradient)"/>
      <g id="jS21yb.tif" transform="translate(14.315 12.106)">
        <g id="Grupo_142300" data-name="Grupo 142300" transform="translate(0 0)">
          <path id="Trazado_118083" data-name="Trazado 118083" d="M-107.838,2636.549c1.128-1.339,2.107-2.507,3.093-3.67a1.987,1.987,0,0,1,3.177-.284c1.959,1.619,2.015,2.245.377,4.2-2.1,2.5-4.2,4.987-6.279,7.5a1.673,1.673,0,0,0-.352.98c-.024,3.839-.014,7.679-.016,11.518,0,1.417-.606,2.02-2.028,2.02q-10.2,0-20.4,0c-1.379,0-1.994-.612-1.994-1.985q0-14.675,0-29.35a1.708,1.708,0,0,1,1.941-1.968c5.573,0,11.147,0,16.72-.009a2.177,2.177,0,0,1,1.671.679q1.7,1.737,3.433,3.435a2.092,2.092,0,0,1,.66,1.61C-107.851,2632.926-107.838,2634.63-107.838,2636.549Zm-1.109-5.494c-1.22,0-2.37,0-3.519,0-.807,0-.917-.114-.92-.928,0-1.148,0-2.3,0-3.462a3.031,3.031,0,0,0-.336-.045q-8.322,0-16.645-.009c-.684,0-.786.373-.786.936q.011,14.6.006,29.2c0,.852.1.953.965.953q10.126,0,20.251,0c.9,0,.983-.089.983-1q0-4.925,0-9.85v-.8c-1.008,1.195-1.876,2.23-2.754,3.258a2,2,0,0,1-.6.563q-2.049.932-4.129,1.8a.546.546,0,0,1-.788-.662c.327-1.465.682-2.925,1.055-4.379a1.8,1.8,0,0,1,.408-.629c1.908-2.292,3.78-4.615,5.755-6.848a3.846,3.846,0,0,0,1.073-2.975C-109.018,2634.492-108.947,2632.808-108.947,2631.055Zm3.574,4.281-9.472,11.294,2.318,1.945,9.473-11.291Z" transform="translate(132.259 -2625.498)" fill="#12263f"/>
          <path id="Trazado_118084" data-name="Trazado 118084" d="M-102.165,2753.487h-1.522a.6.6,0,0,1-.681-.68c0-1.038,0-2.075,0-3.113a.576.576,0,0,1,.642-.643c1.037,0,2.075,0,3.112,0a.6.6,0,0,1,.681.679c0,1.038,0,2.075,0,3.113a.577.577,0,0,1-.642.644C-101.1,2753.49-101.635,2753.487-102.165,2753.487Zm1.111-3.282h-2.152v2.116h2.152Z" transform="translate(108.254 -2731.834)" fill="#12263f"/>
          <path id="Trazado_118085" data-name="Trazado 118085" d="M-102.147,2796.821c.484,0,.968.007,1.452,0s.737.2.735.7q0,1.522,0,3.044c0,.5-.249.705-.731.7-.991-.007-1.983-.009-2.974,0-.531,0-.744-.253-.738-.768.012-.968.014-1.937,0-2.905-.009-.566.256-.792.8-.772C-103.116,2796.834-102.631,2796.82-102.147,2796.821Zm1.033,3.315v-2.155h-2.119v2.155Z" transform="translate(108.284 -2772.944)" fill="#12263f"/>
          <path id="Trazado_118086" data-name="Trazado 118086" d="M-58.86,2713.177c1.569,0,3.139,0,4.708,0,.428,0,.842.054.821.59-.019.486-.42.525-.817.524q-4.708-.007-9.416,0c-.428,0-.842-.053-.821-.589.019-.488.42-.526.817-.524C-62,2713.18-60.429,2713.177-58.86,2713.177Z" transform="translate(73.843 -2700.957)" fill="#12263f"/>
          <path id="Trazado_118087" data-name="Trazado 118087" d="M-56.77,2666.475c-.945,0-1.893.038-2.834-.025a.935.935,0,0,1-.7-.529c-.081-.416.289-.557.684-.556,1.914,0,3.828-.019,5.74.025.249.006.49.341.735.523-.24.187-.471.519-.722.535C-54.83,2666.513-55.8,2666.475-56.77,2666.475Z" transform="translate(70.34 -2659.808)" fill="#12263f"/>
          <path id="Trazado_118088" data-name="Trazado 118088" d="M-101.239,2656.286c.454-.9.851-1.671,1.235-2.451.186-.377.4-.749.881-.5s.291.647.1,1.015c-.478.944-.943,1.9-1.426,2.838-.335.652-.643.707-1.161.208a15.376,15.376,0,0,1-1.4-1.431c-.146-.182-.06-.551-.081-.834.284.024.637-.049.835.094A7.786,7.786,0,0,1-101.239,2656.286Z" transform="translate(107.157 -2649.386)" fill="#12263f"/>
          <path id="Trazado_118089" data-name="Trazado 118089" d="M-102.286,2704.077c.446-.887.83-1.643,1.207-2.4.181-.366.378-.766.869-.536s.33.627.14,1c-.489.965-.963,1.938-1.459,2.9-.314.608-.628.658-1.121.189-.467-.444-.914-.91-1.373-1.363-.271-.267-.454-.566-.139-.9.347-.365.664-.167.945.126S-102.649,2703.695-102.286,2704.077Z" transform="translate(108.221 -2690.54)" fill="#12263f"/>
          <path id="Trazado_118090" data-name="Trazado 118090" d="M-61.309,2762.078c-.784,0-1.567,0-2.351,0-.4,0-.746-.167-.66-.582a.874.874,0,0,1,.659-.5c1.566-.044,3.134-.022,4.7-.024.4,0,.746.167.661.581a.889.889,0,0,1-.661.5C-59.739,2762.119-60.526,2762.078-61.309,2762.078Z" transform="translate(73.798 -2742.089)" fill="#12263f"/>
          <path id="Trazado_118091" data-name="Trazado 118091" d="M-62.293,2809.8a9.184,9.184,0,0,1-1.515-.024c-.245-.041-.446-.341-.666-.523.217-.186.425-.521.652-.533a28.022,28.022,0,0,1,3.1,0c.23.013.443.34.664.523-.217.186-.414.5-.655.533A10.191,10.191,0,0,1-62.293,2809.8Z" transform="translate(73.919 -2783.155)" fill="#12263f"/>
        </g>
      </g>
    </g>
    <g id="Grupo_142470" data-name="Grupo 142470" transform="translate(928.875 1931.463)">
      <ellipse id="Elipse_4871" data-name="Elipse 4871" cx="28.5" cy="29" rx="28.5" ry="29" transform="translate(-0.199 -0.463)" fill="url(#linear-gradient)"/>
      <g id="bbmYRn" transform="translate(12.99 13.733)">
        <g id="Grupo_142371" data-name="Grupo 142371" transform="translate(0 0)">
          <path id="Trazado_183509" data-name="Trazado 183509" d="M3553.454-884.28h-1.347v-1.011q0-13.777,0-27.553c0-1.393.23-1.638,1.592-1.638q13.776-.006,27.553,0c1.331,0,1.6.2,1.6,1.289q.016,11.764,0,23.529c0,.168-.035.336-.062.573h-1.2v-1.224c0-5.848-.016-11.7.018-17.543.005-.858-.253-1.116-1.107-1.114q-13,.039-26.005,0c-.9,0-1.068.324-1.065,1.139.027,7.43.016,14.86.016,22.29Zm28.049-28.8h-27.96v2.856h25.642C3581.852-910.223,3581.852-910.223,3581.5-913.08Z" transform="translate(-3552.107 914.486)" fill="#12263f"/>
          <path id="Trazado_183510" data-name="Trazado 183510" d="M3611.518-857.9l.826.746c.9-1.1,1.559-.522,2.274.236q1.734,1.839,3.575,3.575c.726.685.713,1.246-.028,1.876a11.6,11.6,0,0,0-1.095,1.093c-.661.735-1.257.646-1.913-.035q-1.826-1.894-3.72-3.722c-.682-.654-.954-1.268.06-2.121l-1.012-.748a8.783,8.783,0,0,1-12.44-1.812,8.645,8.645,0,0,1,1.066-11.284,8.655,8.655,0,0,1,11.406-.464C3614.263-867.548,3614.638-863.136,3611.518-857.9Zm-6.4-13.261a7.314,7.314,0,0,0-7.363,7.3,7.372,7.372,0,0,0,7.332,7.357,7.441,7.441,0,0,0,7.341-7.274A7.38,7.38,0,0,0,3605.114-871.162Zm11.121,19.737.783-.819-3.634-3.8-.97.788Z" transform="translate(-3587.283 881.152)" fill="#12263f"/>
          <path id="Trazado_183511" data-name="Trazado 183511" d="M3571.694-878.9v6h2.809v1.323h-4.15v-8.659h22.742c0,1.269.049,2.566-.047,3.852-.017.221-.655.4-1.247.726V-878.9Z" transform="translate(-3566.587 887.308)" fill="#12263f"/>
          <path id="Trazado_183512" data-name="Trazado 183512" d="M3570.5-828.42h4.15v1.3h-2.831v3.775h4.866l.06,1.29H3570.5Z" transform="translate(-3566.705 846.184)" fill="#12263f"/>
          <path id="Trazado_183513" data-name="Trazado 183513" d="M3570.291-903.342V-904.5h1.7v1.159Z" transform="translate(-3566.538 906.562)" fill="#12263f"/>
          <path id="Trazado_183514" data-name="Trazado 183514" d="M3587.1-904.4v1.128l-1.661.1V-904.4Z" transform="translate(-3578.561 906.485)" fill="#12263f"/>
          <path id="Trazado_183515" data-name="Trazado 183515" d="M3600.427-903.3v-1.134h1.676c.02.336.041.692.068,1.134Z" transform="translate(-3590.453 906.511)" fill="#12263f"/>
          <path id="Trazado_183516" data-name="Trazado 183516" d="M3624.574-838.529l-2.407-2.361.907-.876,1.573,1.5,3.207-3.316.965,1.083Z" transform="translate(-3607.707 858.215)" fill="#12263f"/>
        </g>
      </g>
    </g>
    <g id="Grupo_142471" data-name="Grupo 142471" transform="translate(1086.484 1931.463)">
      <ellipse id="Elipse_4871-2" data-name="Elipse 4871" cx="28.5" cy="29" rx="28.5" ry="29" transform="translate(0.191 -0.463)" fill="url(#linear-gradient)"/>
      <g id="Grupo_28520" data-name="Grupo 28520" transform="translate(14.331 12.581)">
        <path id="Trazado_67883" data-name="Trazado 67883" d="M226.969,210.488a3.465,3.465,0,1,1,3.466-3.466A3.469,3.469,0,0,1,226.969,210.488Zm0-6.006a2.54,2.54,0,1,0,2.54,2.54A2.543,2.543,0,0,0,226.969,204.482Z" transform="translate(-216.813 -199.421)" fill="#12263f"/>
        <path id="Trazado_67884" data-name="Trazado 67884" d="M226.969,244.746a3.466,3.466,0,1,1,3.466-3.466A3.469,3.469,0,0,1,226.969,244.746Zm0-6.006a2.54,2.54,0,1,0,2.54,2.54A2.543,2.543,0,0,0,226.969,238.74Z" transform="translate(-216.813 -224.041)" fill="#12263f"/>
        <path id="Trazado_67885" data-name="Trazado 67885" d="M226.969,279a3.465,3.465,0,1,1,3.466-3.466A3.469,3.469,0,0,1,226.969,279Zm0-6.006a2.54,2.54,0,1,0,2.54,2.54A2.543,2.543,0,0,0,226.969,273Z" transform="translate(-216.813 -248.662)" fill="#12263f"/>
        <path id="Trazado_67886" data-name="Trazado 67886" d="M204.018,198.282h-3.035a1.262,1.262,0,1,1,0-2.524h3.035a1.262,1.262,0,1,1,0,2.524Zm-3.035-1.6a.337.337,0,1,0,0,.674h3.035a.337.337,0,1,0,0-.674Z" transform="translate(-199.72 -193.816)" fill="#12263f"/>
        <path id="Trazado_67887" data-name="Trazado 67887" d="M204.018,218.238h-3.035a1.262,1.262,0,0,1,0-2.525h3.035a1.262,1.262,0,0,1,0,2.525Zm-3.035-1.6a.337.337,0,1,0,0,.674h3.035a.337.337,0,0,0,0-.674Z" transform="translate(-199.72 -208.157)" fill="#12263f"/>
        <path id="Trazado_67888" data-name="Trazado 67888" d="M204.018,238.193h-3.035a1.262,1.262,0,0,1,0-2.525h3.035a1.262,1.262,0,0,1,0,2.525Zm-3.035-1.6a.337.337,0,0,0,0,.674h3.035a.337.337,0,0,0,0-.674Z" transform="translate(-199.72 -222.498)" fill="#12263f"/>
        <path id="Trazado_67889" data-name="Trazado 67889" d="M204.018,258.149h-3.035a1.262,1.262,0,1,1,0-2.525h3.035a1.262,1.262,0,0,1,0,2.525Zm-3.035-1.6a.337.337,0,0,0,0,.674h3.035a.337.337,0,0,0,0-.674Z" transform="translate(-199.72 -236.84)" fill="#12263f"/>
        <path id="Trazado_67890" data-name="Trazado 67890" d="M204.018,278.1h-3.035a1.262,1.262,0,0,1,0-2.525h3.035a1.262,1.262,0,0,1,0,2.525Zm-3.035-1.6a.337.337,0,1,0,0,.674h3.035a.337.337,0,0,0,0-.674Z" transform="translate(-199.72 -251.182)" fill="#12263f"/>
        <path id="Trazado_67891" data-name="Trazado 67891" d="M204.018,298.06h-3.035a1.262,1.262,0,1,1,0-2.524h3.035a1.262,1.262,0,1,1,0,2.524Zm-3.035-1.6a.337.337,0,1,0,0,.674h3.035a.337.337,0,0,0,0-.674Z" transform="translate(-199.72 -265.524)" fill="#12263f"/>
        <path id="Trazado_67892" data-name="Trazado 67892" d="M233.973,223.334H209.965a1.081,1.081,0,0,1-1.079-1.079v-1.326a.463.463,0,0,1,.462-.462h1.257a.337.337,0,0,0,.336-.356.372.372,0,0,0-.382-.318h-1.211a.462.462,0,0,1-.462-.463v-4.014a.463.463,0,0,1,.462-.463h1.257a.336.336,0,0,0,.336-.356.372.372,0,0,0-.382-.318h-1.211a.463.463,0,0,1-.462-.463V209.7a.462.462,0,0,1,.462-.462h1.257a.337.337,0,0,0,.336-.356.372.372,0,0,0-.382-.318h-1.211a.463.463,0,0,1-.462-.463v-4.014a.462.462,0,0,1,.462-.463h1.257a.337.337,0,0,0,.336-.356.372.372,0,0,0-.382-.319h-1.211a.463.463,0,0,1-.462-.462v-4.015a.463.463,0,0,1,.462-.463h1.257a.337.337,0,0,0,.336-.356.372.372,0,0,0-.382-.318h-1.211a.463.463,0,0,1-.462-.463v-4.015a.463.463,0,0,1,.462-.463h1.257a.336.336,0,0,0,.336-.356.372.372,0,0,0-.382-.318h-1.211a.463.463,0,0,1-.462-.463v-1.325a1.08,1.08,0,0,1,1.079-1.079h24.008a1.08,1.08,0,0,1,1.079,1.079v32.32A1.081,1.081,0,0,1,233.973,223.334Zm-24.162-1.942v.863a.154.154,0,0,0,.154.154h24.008a.154.154,0,0,0,.154-.154v-32.32a.154.154,0,0,0-.154-.154H209.965a.154.154,0,0,0-.154.154v.863h.749a1.286,1.286,0,0,1,1.306,1.2,1.252,1.252,0,0,1-.345.936,1.268,1.268,0,0,1-.916.394h-.794v3.09h.749a1.286,1.286,0,0,1,1.306,1.2,1.252,1.252,0,0,1-.345.936,1.267,1.267,0,0,1-.916.394h-.794v3.089h.749a1.286,1.286,0,0,1,1.306,1.2,1.251,1.251,0,0,1-.345.936,1.266,1.266,0,0,1-.916.394h-.794v3.09h.749a1.286,1.286,0,0,1,1.306,1.2,1.251,1.251,0,0,1-.345.936,1.266,1.266,0,0,1-.916.394h-.794v3.089h.749a1.286,1.286,0,0,1,1.306,1.2,1.251,1.251,0,0,1-.345.936,1.266,1.266,0,0,1-.916.394h-.794v3.09h.749a1.286,1.286,0,0,1,1.306,1.195,1.252,1.252,0,0,1-.345.936,1.267,1.267,0,0,1-.916.394Z" transform="translate(-206.307 -188.855)" fill="#12263f"/>
        <path id="Trazado_67893" data-name="Trazado 67893" d="M234.64,229.462a.462.462,0,0,1-.462-.463v-3.632a.463.463,0,1,1,.925,0V229A.463.463,0,0,1,234.64,229.462Z" transform="translate(-224.484 -214.763)" fill="#12263f"/>
        <path id="Trazado_67894" data-name="Trazado 67894" d="M234.64,263.72a.462.462,0,0,1-.462-.462v-3.632a.463.463,0,1,1,.925,0v3.632A.463.463,0,0,1,234.64,263.72Z" transform="translate(-224.484 -239.384)" fill="#12263f"/>
        <path id="Trazado_67895" data-name="Trazado 67895" d="M254.36,207.856h-1.388a.463.463,0,0,1,0-.925h1.388a.463.463,0,0,1,0,.925Z" transform="translate(-237.659 -201.846)" fill="#12263f"/>
        <path id="Trazado_67896" data-name="Trazado 67896" d="M270.143,207.856h-2.687a.463.463,0,0,1,0-.925h2.687a.463.463,0,0,1,0,.925Z" transform="translate(-248.068 -201.846)" fill="#12263f"/>
        <path id="Trazado_67897" data-name="Trazado 67897" d="M287.946,207.856h-1.388a.463.463,0,0,1,0-.925h1.388a.463.463,0,0,1,0,.925Z" transform="translate(-261.796 -201.846)" fill="#12263f"/>
        <path id="Trazado_67898" data-name="Trazado 67898" d="M263.809,222.456H252.973a.462.462,0,1,1,0-.925h10.836a.462.462,0,0,1,0,.925Z" transform="translate(-237.659 -212.338)" fill="#12263f"/>
        <path id="Trazado_67899" data-name="Trazado 67899" d="M263.809,242.114H252.973a.463.463,0,0,1,0-.925h10.836a.463.463,0,0,1,0,.925Z" transform="translate(-237.659 -226.466)" fill="#12263f"/>
        <path id="Trazado_67900" data-name="Trazado 67900" d="M263.809,256.714H252.973a.463.463,0,0,1,0-.925h10.836a.463.463,0,0,1,0,.925Z" transform="translate(-237.659 -236.959)" fill="#12263f"/>
        <path id="Trazado_67901" data-name="Trazado 67901" d="M263.809,276.373H252.973a.463.463,0,0,1,0-.925h10.836a.463.463,0,0,1,0,.925Z" transform="translate(-237.659 -251.087)" fill="#12263f"/>
        <path id="Trazado_67902" data-name="Trazado 67902" d="M263.809,290.972H252.973a.463.463,0,0,1,0-.925h10.836a.463.463,0,0,1,0,.925Z" transform="translate(-237.659 -261.579)" fill="#12263f"/>
      </g>
    </g>
    <g id="Grupo_149870" data-name="Grupo 149870" transform="translate(1244.484 1931.463)">
      <ellipse id="Elipse_4871-3" data-name="Elipse 4871" cx="28.5" cy="29" rx="28.5" ry="29" transform="translate(0.191 -0.463)" fill="url(#linear-gradient)"/>
      <g id="Grupo_28520-2" data-name="Grupo 28520" transform="translate(14.331 12.581)">
        <path id="Trazado_67883-2" data-name="Trazado 67883" d="M226.969,210.488a3.465,3.465,0,1,1,3.466-3.466A3.469,3.469,0,0,1,226.969,210.488Zm0-6.006a2.54,2.54,0,1,0,2.54,2.54A2.543,2.543,0,0,0,226.969,204.482Z" transform="translate(-216.813 -199.421)" fill="#12263f"/>
        <path id="Trazado_67884-2" data-name="Trazado 67884" d="M226.969,244.746a3.466,3.466,0,1,1,3.466-3.466A3.469,3.469,0,0,1,226.969,244.746Zm0-6.006a2.54,2.54,0,1,0,2.54,2.54A2.543,2.543,0,0,0,226.969,238.74Z" transform="translate(-216.813 -224.041)" fill="#12263f"/>
        <path id="Trazado_67885-2" data-name="Trazado 67885" d="M226.969,279a3.465,3.465,0,1,1,3.466-3.466A3.469,3.469,0,0,1,226.969,279Zm0-6.006a2.54,2.54,0,1,0,2.54,2.54A2.543,2.543,0,0,0,226.969,273Z" transform="translate(-216.813 -248.662)" fill="#12263f"/>
        <path id="Trazado_67886-2" data-name="Trazado 67886" d="M204.018,198.282h-3.035a1.262,1.262,0,1,1,0-2.524h3.035a1.262,1.262,0,1,1,0,2.524Zm-3.035-1.6a.337.337,0,1,0,0,.674h3.035a.337.337,0,1,0,0-.674Z" transform="translate(-199.72 -193.816)" fill="#12263f"/>
        <path id="Trazado_67887-2" data-name="Trazado 67887" d="M204.018,218.238h-3.035a1.262,1.262,0,0,1,0-2.525h3.035a1.262,1.262,0,0,1,0,2.525Zm-3.035-1.6a.337.337,0,1,0,0,.674h3.035a.337.337,0,0,0,0-.674Z" transform="translate(-199.72 -208.157)" fill="#12263f"/>
        <path id="Trazado_67888-2" data-name="Trazado 67888" d="M204.018,238.193h-3.035a1.262,1.262,0,0,1,0-2.525h3.035a1.262,1.262,0,0,1,0,2.525Zm-3.035-1.6a.337.337,0,0,0,0,.674h3.035a.337.337,0,0,0,0-.674Z" transform="translate(-199.72 -222.498)" fill="#12263f"/>
        <path id="Trazado_67889-2" data-name="Trazado 67889" d="M204.018,258.149h-3.035a1.262,1.262,0,1,1,0-2.525h3.035a1.262,1.262,0,0,1,0,2.525Zm-3.035-1.6a.337.337,0,0,0,0,.674h3.035a.337.337,0,0,0,0-.674Z" transform="translate(-199.72 -236.84)" fill="#12263f"/>
        <path id="Trazado_67890-2" data-name="Trazado 67890" d="M204.018,278.1h-3.035a1.262,1.262,0,0,1,0-2.525h3.035a1.262,1.262,0,0,1,0,2.525Zm-3.035-1.6a.337.337,0,1,0,0,.674h3.035a.337.337,0,0,0,0-.674Z" transform="translate(-199.72 -251.182)" fill="#12263f"/>
        <path id="Trazado_67891-2" data-name="Trazado 67891" d="M204.018,298.06h-3.035a1.262,1.262,0,1,1,0-2.524h3.035a1.262,1.262,0,1,1,0,2.524Zm-3.035-1.6a.337.337,0,1,0,0,.674h3.035a.337.337,0,0,0,0-.674Z" transform="translate(-199.72 -265.524)" fill="#12263f"/>
        <path id="Trazado_67892-2" data-name="Trazado 67892" d="M233.973,223.334H209.965a1.081,1.081,0,0,1-1.079-1.079v-1.326a.463.463,0,0,1,.462-.462h1.257a.337.337,0,0,0,.336-.356.372.372,0,0,0-.382-.318h-1.211a.462.462,0,0,1-.462-.463v-4.014a.463.463,0,0,1,.462-.463h1.257a.336.336,0,0,0,.336-.356.372.372,0,0,0-.382-.318h-1.211a.463.463,0,0,1-.462-.463V209.7a.462.462,0,0,1,.462-.462h1.257a.337.337,0,0,0,.336-.356.372.372,0,0,0-.382-.318h-1.211a.463.463,0,0,1-.462-.463v-4.014a.462.462,0,0,1,.462-.463h1.257a.337.337,0,0,0,.336-.356.372.372,0,0,0-.382-.319h-1.211a.463.463,0,0,1-.462-.462v-4.015a.463.463,0,0,1,.462-.463h1.257a.337.337,0,0,0,.336-.356.372.372,0,0,0-.382-.318h-1.211a.463.463,0,0,1-.462-.463v-4.015a.463.463,0,0,1,.462-.463h1.257a.336.336,0,0,0,.336-.356.372.372,0,0,0-.382-.318h-1.211a.463.463,0,0,1-.462-.463v-1.325a1.08,1.08,0,0,1,1.079-1.079h24.008a1.08,1.08,0,0,1,1.079,1.079v32.32A1.081,1.081,0,0,1,233.973,223.334Zm-24.162-1.942v.863a.154.154,0,0,0,.154.154h24.008a.154.154,0,0,0,.154-.154v-32.32a.154.154,0,0,0-.154-.154H209.965a.154.154,0,0,0-.154.154v.863h.749a1.286,1.286,0,0,1,1.306,1.2,1.252,1.252,0,0,1-.345.936,1.268,1.268,0,0,1-.916.394h-.794v3.09h.749a1.286,1.286,0,0,1,1.306,1.2,1.252,1.252,0,0,1-.345.936,1.267,1.267,0,0,1-.916.394h-.794v3.089h.749a1.286,1.286,0,0,1,1.306,1.2,1.251,1.251,0,0,1-.345.936,1.266,1.266,0,0,1-.916.394h-.794v3.09h.749a1.286,1.286,0,0,1,1.306,1.2,1.251,1.251,0,0,1-.345.936,1.266,1.266,0,0,1-.916.394h-.794v3.089h.749a1.286,1.286,0,0,1,1.306,1.2,1.251,1.251,0,0,1-.345.936,1.266,1.266,0,0,1-.916.394h-.794v3.09h.749a1.286,1.286,0,0,1,1.306,1.195,1.252,1.252,0,0,1-.345.936,1.267,1.267,0,0,1-.916.394Z" transform="translate(-206.307 -188.855)" fill="#12263f"/>
        <path id="Trazado_67893-2" data-name="Trazado 67893" d="M234.64,229.462a.462.462,0,0,1-.462-.463v-3.632a.463.463,0,1,1,.925,0V229A.463.463,0,0,1,234.64,229.462Z" transform="translate(-224.484 -214.763)" fill="#12263f"/>
        <path id="Trazado_67894-2" data-name="Trazado 67894" d="M234.64,263.72a.462.462,0,0,1-.462-.462v-3.632a.463.463,0,1,1,.925,0v3.632A.463.463,0,0,1,234.64,263.72Z" transform="translate(-224.484 -239.384)" fill="#12263f"/>
        <path id="Trazado_67895-2" data-name="Trazado 67895" d="M254.36,207.856h-1.388a.463.463,0,0,1,0-.925h1.388a.463.463,0,0,1,0,.925Z" transform="translate(-237.659 -201.846)" fill="#12263f"/>
        <path id="Trazado_67896-2" data-name="Trazado 67896" d="M270.143,207.856h-2.687a.463.463,0,0,1,0-.925h2.687a.463.463,0,0,1,0,.925Z" transform="translate(-248.068 -201.846)" fill="#12263f"/>
        <path id="Trazado_67897-2" data-name="Trazado 67897" d="M287.946,207.856h-1.388a.463.463,0,0,1,0-.925h1.388a.463.463,0,0,1,0,.925Z" transform="translate(-261.796 -201.846)" fill="#12263f"/>
        <path id="Trazado_67898-2" data-name="Trazado 67898" d="M263.809,222.456H252.973a.462.462,0,1,1,0-.925h10.836a.462.462,0,0,1,0,.925Z" transform="translate(-237.659 -212.338)" fill="#12263f"/>
        <path id="Trazado_67899-2" data-name="Trazado 67899" d="M263.809,242.114H252.973a.463.463,0,0,1,0-.925h10.836a.463.463,0,0,1,0,.925Z" transform="translate(-237.659 -226.466)" fill="#12263f"/>
        <path id="Trazado_67900-2" data-name="Trazado 67900" d="M263.809,256.714H252.973a.463.463,0,0,1,0-.925h10.836a.463.463,0,0,1,0,.925Z" transform="translate(-237.659 -236.959)" fill="#12263f"/>
        <path id="Trazado_67901-2" data-name="Trazado 67901" d="M263.809,276.373H252.973a.463.463,0,0,1,0-.925h10.836a.463.463,0,0,1,0,.925Z" transform="translate(-237.659 -251.087)" fill="#12263f"/>
        <path id="Trazado_67902-2" data-name="Trazado 67902" d="M263.809,290.972H252.973a.463.463,0,0,1,0-.925h10.836a.463.463,0,0,1,0,.925Z" transform="translate(-237.659 -261.579)" fill="#12263f"/>
      </g>
    </g>
  </g>
</svg>
