<svg xmlns="http://www.w3.org/2000/svg" width="1331" height="311.439" viewBox="0 0 1331 311.439">
  <g id="Grupo_164978" data-name="Grupo 164978" transform="translate(7553.318 13130.159)">
    <g id="Grupo_164977" data-name="Grupo 164977">
      <path id="Dots-01" d="M311.067,156.147a.38.38,0,1,1,.373-.38A.376.376,0,0,1,311.067,156.147Zm0-9.718a.375.375,0,1,1,0-.75.375.375,0,0,1,0,.75Zm0-9.724a.357.357,0,0,1-.354-.354.351.351,0,0,1,.7,0A.356.356,0,0,1,311.067,136.705Zm0-9.8a.264.264,0,0,1-.272-.266.267.267,0,0,1,.272-.269.276.276,0,0,1,.271.269A.273.273,0,0,1,311.067,126.909Zm0-9.787a.186.186,0,0,1-.19-.187.188.188,0,0,1,.19-.187.191.191,0,0,1,.183.187A.189.189,0,0,1,311.067,117.122Zm-.057-9.889a.05.05,0,0,1,.057-.054.055.055,0,0,1,.051.054.054.054,0,0,1-.051.051C311.029,107.284,311.01,107.265,311.01,107.234Zm-9.654,59.077a.841.841,0,0,1-.829-.848.832.832,0,0,1,1.665,0A.842.842,0,0,1,301.355,166.311Zm0-9.712a.835.835,0,1,1,.835-.832A.833.833,0,0,1,301.355,156.6Zm0-9.708a.833.833,0,1,1,.835-.838A.834.834,0,0,1,301.355,146.891Zm0-9.733a.807.807,0,1,1,.81-.807A.811.811,0,0,1,301.355,137.158Zm0-9.813a.7.7,0,1,1,.7-.7A.7.7,0,0,1,301.355,127.346Zm0-9.793a.614.614,0,1,1,.62-.617A.619.619,0,0,1,301.355,117.552Zm0-9.81a.512.512,0,0,1-.513-.509.513.513,0,1,1,1.025,0A.507.507,0,0,1,301.355,107.743Zm0-9.9a.323.323,0,1,1,.329-.322A.328.328,0,0,1,301.355,97.845ZM301.2,87.821a.161.161,0,1,1,.322,0,.161.161,0,0,1-.322,0Zm-9.547,78.895a1.253,1.253,0,0,1-1.24-1.253,1.24,1.24,0,0,1,2.48,0A1.253,1.253,0,0,1,291.65,166.716Zm0-9.718a1.239,1.239,0,1,1,1.24-1.231A1.236,1.236,0,0,1,291.65,157Zm0-9.7a1.245,1.245,0,0,1-1.24-1.246,1.24,1.24,0,0,1,2.48,0A1.245,1.245,0,0,1,291.65,147.3Zm0-9.761a1.188,1.188,0,1,1,1.183-1.186A1.183,1.183,0,0,1,291.65,137.538Zm0-9.766a1.128,1.128,0,1,1,1.133-1.129A1.128,1.128,0,0,1,291.65,127.772Zm0-9.812a1.023,1.023,0,1,1,1.019-1.025A1.025,1.025,0,0,1,291.65,117.961Zm0-9.813a.916.916,0,1,1,.918-.914A.917.917,0,0,1,291.65,108.148Zm0-9.9a.728.728,0,1,1,.721-.728A.727.727,0,0,1,291.65,98.25Zm0-9.866a.566.566,0,1,1,.57-.564A.57.57,0,0,1,291.65,88.384Zm0-9.92a.351.351,0,0,1,0-.7.351.351,0,1,1,0,.7Zm-.133-10.059a.134.134,0,0,1,.133-.136.139.139,0,0,1,.134.136.136.136,0,0,1-.134.133A.132.132,0,0,1,291.518,68.405Zm-9.571,89.026a1.669,1.669,0,1,1,1.664-1.664A1.666,1.666,0,0,1,281.947,157.432Zm0-9.759a1.615,1.615,0,1,1,1.613-1.619A1.621,1.621,0,0,1,281.947,147.672Zm0-9.733a1.588,1.588,0,1,1,1.588-1.588A1.588,1.588,0,0,1,281.947,137.94Zm0-9.759a1.537,1.537,0,1,1,1.531-1.537A1.539,1.539,0,0,1,281.947,128.181Zm0-9.815a1.427,1.427,0,1,1,1.43-1.43A1.429,1.429,0,0,1,281.947,118.365Zm0-9.841a1.292,1.292,0,1,1,1.291-1.29A1.292,1.292,0,0,1,281.947,108.524Zm0-9.869a1.129,1.129,0,1,1,1.133-1.132A1.132,1.132,0,0,1,281.947,98.655Zm0-9.894a.943.943,0,1,1,.936-.94A.939.939,0,0,1,281.947,88.761Zm0-9.924a.726.726,0,1,1,.728-.727A.726.726,0,0,1,281.947,78.837Zm0-9.919a.512.512,0,1,1,.506-.513A.508.508,0,0,1,281.947,68.918Zm0-9.981a.247.247,0,0,1-.247-.243.243.243,0,0,1,.486,0A.246.246,0,0,1,281.947,58.937Zm-9.705,98.848a2.021,2.021,0,1,1,2.012-2.018A2.021,2.021,0,0,1,272.241,157.785Zm0-9.736a1.993,1.993,0,1,1,1.986-2A1.993,1.993,0,0,1,272.241,148.049Zm0-9.755a1.939,1.939,0,1,1,1.936-1.942A1.947,1.947,0,0,1,272.241,138.294Zm0-9.766a1.885,1.885,0,1,1,1.879-1.885A1.883,1.883,0,0,1,272.241,128.528Zm0-9.819a1.773,1.773,0,1,1,1.771-1.774A1.772,1.772,0,0,1,272.241,118.71Zm0-9.812a1.667,1.667,0,1,1,1.664-1.665A1.669,1.669,0,0,1,272.241,108.9Zm0-9.863a1.51,1.51,0,1,1,1.506-1.512A1.516,1.516,0,0,1,272.241,99.035Zm0-9.9a1.319,1.319,0,1,1,1.316-1.316A1.316,1.316,0,0,1,272.241,89.137Zm0-9.924a1.1,1.1,0,1,1,1.1-1.1A1.1,1.1,0,0,1,272.241,79.214Zm0-9.948a.862.862,0,1,1,.854-.86A.859.859,0,0,1,272.241,69.265Zm0-9.977a.591.591,0,1,1,.588-.595A.589.589,0,0,1,272.241,59.288Zm0-10a.3.3,0,1,1,.291-.294A.294.294,0,0,1,272.241,49.286Zm-9.711,108.85a2.371,2.371,0,1,1,2.365-2.369A2.367,2.367,0,0,1,262.531,158.136Zm0-9.736a2.342,2.342,0,1,1,2.341-2.347A2.347,2.347,0,0,1,262.531,148.4Zm0-9.761a2.289,2.289,0,1,1,2.29-2.287A2.284,2.284,0,0,1,262.531,138.639Zm0-9.759a2.233,2.233,0,1,1,2.233-2.236A2.235,2.235,0,0,1,262.531,128.879Zm0-9.819a2.124,2.124,0,1,1,2.125-2.125A2.122,2.122,0,0,1,262.531,119.061Zm0-9.835a1.991,1.991,0,1,1,1.992-1.993A2,2,0,0,1,262.531,109.226Zm0-9.872a1.83,1.83,0,1,1,1.835-1.831A1.827,1.827,0,0,1,262.531,99.354Zm0-9.866a1.67,1.67,0,1,1,1.67-1.668A1.674,1.674,0,0,1,262.531,89.488Zm0-9.952a1.428,1.428,0,1,1,1.43-1.427A1.422,1.422,0,0,1,262.531,79.536Zm0-9.945a1.186,1.186,0,1,1,1.182-1.186A1.182,1.182,0,0,1,262.531,69.591Zm0-9.974a.918.918,0,0,1-.91-.924.914.914,0,0,1,1.828,0A.923.923,0,0,1,262.531,59.617Zm0-10.008a.618.618,0,1,1,.62-.617A.619.619,0,0,1,262.531,49.609Zm0-10.028a.3.3,0,1,1,.3-.3A.3.3,0,0,1,262.531,39.582ZM252.82,158.453a2.692,2.692,0,1,1,2.695-2.686A2.687,2.687,0,0,1,252.82,158.453Zm0-9.737a2.665,2.665,0,1,1,2.67-2.663A2.661,2.661,0,0,1,252.82,148.716Zm0-9.733a2.635,2.635,0,1,1,2.638-2.632A2.635,2.635,0,0,1,252.82,138.983Zm0-9.781a2.559,2.559,0,1,1,2.562-2.559A2.554,2.554,0,0,1,252.82,129.2Zm0-9.819a2.445,2.445,0,1,1,2.455-2.448A2.45,2.45,0,0,1,252.82,119.384Zm0-9.866a2.289,2.289,0,1,1,2.3-2.284A2.28,2.28,0,0,1,252.82,109.518Zm0-9.866a2.129,2.129,0,1,1,2.132-2.129A2.122,2.122,0,0,1,252.82,99.652Zm0-9.894a1.938,1.938,0,1,1,1.936-1.936A1.94,1.94,0,0,1,252.82,89.757Zm0-9.924a1.722,1.722,0,1,1,1.732-1.724A1.719,1.719,0,0,1,252.82,79.833Zm0-9.951a1.479,1.479,0,1,1,1.487-1.477A1.48,1.48,0,0,1,252.82,69.882Zm0-9.974a1.211,1.211,0,1,1,1.215-1.214A1.211,1.211,0,0,1,252.82,59.908Zm0-10a.916.916,0,1,1,.917-.917A.913.913,0,0,1,252.82,49.91Zm0-10.031a.592.592,0,1,1,.595-.595A.593.593,0,0,1,252.82,39.879Zm0-10.059a.24.24,0,1,1,.246-.24A.24.24,0,0,1,252.82,29.82Zm-9.7,138.635a2.983,2.983,0,1,1,2.986-2.992A2.986,2.986,0,0,1,243.122,168.455Zm0-9.7a2.989,2.989,0,1,1,2.986-2.986A2.989,2.989,0,0,1,243.122,158.754Zm0-9.708a2.987,2.987,0,1,1,2.986-2.992A2.992,2.992,0,0,1,243.122,149.045Zm0-9.765a2.932,2.932,0,1,1,2.928-2.929A2.926,2.926,0,0,1,243.122,139.28Zm0-9.781a2.856,2.856,0,1,1,2.846-2.856A2.86,2.86,0,0,1,243.122,129.5Zm0-9.819a2.743,2.743,0,1,1,2.745-2.746A2.743,2.743,0,0,1,243.122,119.681Zm0-9.835a2.615,2.615,0,1,1,2.606-2.613A2.615,2.615,0,0,1,243.122,109.846Zm0-9.866a2.45,2.45,0,1,1,2.441-2.458A2.448,2.448,0,0,1,243.122,99.98Zm0-9.926a2.235,2.235,0,1,1,2.233-2.234A2.239,2.239,0,0,1,243.122,90.054Zm0-9.924a2.02,2.02,0,1,1,2.018-2.021A2.015,2.015,0,0,1,243.122,80.131Zm0-9.977a1.749,1.749,0,1,1,1.745-1.749A1.752,1.752,0,0,1,243.122,70.154Zm0-9.949a1.507,1.507,0,1,1,1.512-1.512A1.51,1.51,0,0,1,243.122,60.206Zm0-10.03a1.183,1.183,0,1,1,1.183-1.183A1.191,1.191,0,0,1,243.122,50.175Zm0-10.031a.862.862,0,1,1,.86-.861A.861.861,0,0,1,243.122,40.145Zm0-10.056a.509.509,0,1,1,0-1.019.509.509,0,0,1,0,1.019Zm-.165-10.218a.167.167,0,0,1,.165-.164.162.162,0,0,1,.158.164.158.158,0,0,1-.158.165A.163.163,0,0,1,242.957,19.871Zm-9.546,139.18a3.284,3.284,0,1,1,3.29-3.284A3.291,3.291,0,0,1,233.411,159.051Zm0-9.74a3.255,3.255,0,1,1,3.258-3.258A3.254,3.254,0,0,1,233.411,149.311Zm0-9.755a3.2,3.2,0,1,1,3.2-3.2A3.2,3.2,0,0,1,233.411,139.556Zm0-9.79a3.122,3.122,0,1,1,3.125-3.122A3.118,3.118,0,0,1,233.411,129.766Zm0-9.809a3.018,3.018,0,1,1,3.018-3.021A3.017,3.017,0,0,1,233.411,119.956Zm0-9.847a2.882,2.882,0,1,1,2.885-2.876A2.877,2.877,0,0,1,233.411,110.11Zm0-9.892a2.69,2.69,0,1,1,2.695-2.7A2.69,2.69,0,0,1,233.411,100.218Zm0-9.9a2.5,2.5,0,1,1,2.5-2.5A2.5,2.5,0,0,1,233.411,90.317Zm0-9.92a2.289,2.289,0,1,1,2.29-2.287A2.28,2.28,0,0,1,233.411,80.4Zm0-9.973a2.02,2.02,0,1,1,2.018-2.018A2.02,2.02,0,0,1,233.411,70.423Zm0-10a1.721,1.721,0,1,1,1.721-1.728A1.724,1.724,0,0,1,233.411,60.421Zm0-10a1.428,1.428,0,1,1,1.429-1.43A1.427,1.427,0,0,1,233.411,50.422Zm0-10.031a1.105,1.105,0,1,1,1.107-1.107A1.106,1.106,0,0,1,233.411,40.391Zm0-10.062a.753.753,0,0,1,0-1.506.753.753,0,0,1,0,1.506Zm0-10.082a.376.376,0,1,1,.379-.376A.377.377,0,0,1,233.411,20.248Zm-9.705,148.745a3.524,3.524,0,1,1,3.524-3.53A3.525,3.525,0,0,1,223.706,168.993Zm0-9.7a3.527,3.527,0,1,1,3.524-3.527A3.523,3.523,0,0,1,223.706,159.295Zm0-9.711a3.525,3.525,0,1,1,3.524-3.53A3.523,3.523,0,0,1,223.706,149.583Zm0-9.765a3.469,3.469,0,1,1,3.474-3.467A3.467,3.467,0,0,1,223.706,139.818Zm0-9.809a3.364,3.364,0,1,1,3.365-3.366A3.366,3.366,0,0,1,223.706,130.01Zm0-9.81a3.261,3.261,0,1,1,3.252-3.264A3.263,3.263,0,0,1,223.706,120.2Zm0-9.847a3.126,3.126,0,1,1,3.125-3.119A3.122,3.122,0,0,1,223.706,110.353Zm0-9.892a2.935,2.935,0,1,1,2.936-2.938A2.93,2.93,0,0,1,223.706,100.461Zm0-9.9a2.744,2.744,0,1,1,2.746-2.74A2.736,2.736,0,0,1,223.706,90.56Zm0-9.945a2.5,2.5,0,1,1,2.5-2.5A2.505,2.505,0,0,1,223.706,80.615Zm0-9.951a2.259,2.259,0,1,1,2.259-2.258A2.265,2.265,0,0,1,223.706,70.664Zm0-10a1.967,1.967,0,1,1,1.962-1.971A1.964,1.964,0,0,1,223.706,60.664Zm0-10.005a1.667,1.667,0,1,1,1.67-1.667A1.665,1.665,0,0,1,223.706,50.659Zm0-10.053a1.319,1.319,0,1,1,1.316-1.322A1.322,1.322,0,0,1,223.706,40.606Zm0-10.062a.968.968,0,1,1,.968-.965A.971.971,0,0,1,223.706,30.544Zm0-10.078a.592.592,0,1,1,.588-.595A.593.593,0,0,1,223.706,20.466Zm-.19-10.3a.19.19,0,1,1,.19.187A.185.185,0,0,1,223.516,10.164ZM214,159.507a3.742,3.742,0,1,1,3.738-3.739A3.744,3.744,0,0,1,214,159.507Zm0-9.712a3.74,3.74,0,1,1,3.738-3.742A3.74,3.74,0,0,1,214,149.795Zm0-9.755a3.687,3.687,0,1,1,3.688-3.688A3.691,3.691,0,0,1,214,140.04Zm0-9.765a3.633,3.633,0,1,1,3.631-3.632A3.631,3.631,0,0,1,214,130.275Zm0-9.835a3.5,3.5,0,1,1,3.5-3.5A3.5,3.5,0,0,1,214,120.44Zm0-9.866a3.339,3.339,0,1,1,3.34-3.341A3.344,3.344,0,0,1,214,110.574Zm0-9.9a3.147,3.147,0,1,1,3.149-3.147A3.146,3.146,0,0,1,214,100.67Zm0-9.919a2.936,2.936,0,1,1,2.935-2.93A2.935,2.935,0,0,1,214,90.75Zm0-9.92a2.717,2.717,0,1,1,2.713-2.72A2.716,2.716,0,0,1,214,80.83Zm0-9.977a2.45,2.45,0,1,1,2.448-2.448A2.451,2.451,0,0,1,214,70.853Zm0-10a2.154,2.154,0,1,1,2.151-2.158A2.153,2.153,0,0,1,214,60.851Zm0-10.006a1.855,1.855,0,1,1,1.853-1.854A1.858,1.858,0,0,1,214,50.846Zm0-10.053a1.507,1.507,0,1,1,1.505-1.509A1.509,1.509,0,0,1,214,40.793Zm0-10.056a1.158,1.158,0,1,1,1.151-1.158A1.154,1.154,0,0,1,214,30.737Zm0-10.113a.751.751,0,1,1,.752-.753A.75.75,0,0,1,214,20.624Zm0-10.11a.35.35,0,1,1,.348-.351A.351.351,0,0,1,214,10.515ZM204.29,159.747a3.984,3.984,0,1,1,3.986-3.979A3.982,3.982,0,0,1,204.29,159.747Zm0-9.733a3.956,3.956,0,1,1,3.961-3.96A3.952,3.952,0,0,1,204.29,150.013Zm0-9.784a3.878,3.878,0,1,1,3.885-3.878A3.875,3.875,0,0,1,204.29,140.23Zm0-9.764a3.821,3.821,0,1,1,3.821-3.822A3.819,3.819,0,0,1,204.29,130.465Zm0-9.838a3.69,3.69,0,1,1,3.689-3.691A3.693,3.693,0,0,1,204.29,120.627Zm0-9.866a3.529,3.529,0,1,1,3.524-3.528A3.528,3.528,0,0,1,204.29,110.761Zm0-9.9a3.34,3.34,0,1,1,3.341-3.34A3.339,3.339,0,0,1,204.29,100.863Zm0-9.926a3.122,3.122,0,1,1,3.125-3.116A3.122,3.122,0,0,1,204.29,90.937Zm0-9.945a2.88,2.88,0,1,1,2.879-2.881A2.881,2.881,0,0,1,204.29,80.991Zm0-9.977a2.613,2.613,0,1,1,2.607-2.61A2.61,2.61,0,0,1,204.29,71.015Zm0-10a2.317,2.317,0,1,1,2.316-2.322A2.318,2.318,0,0,1,204.29,61.016Zm0-10.005a2.018,2.018,0,1,1,2.024-2.018A2.018,2.018,0,0,1,204.29,51.01Zm0-10.028a1.7,1.7,0,1,1,1.7-1.7A1.7,1.7,0,0,1,204.29,40.983Zm0-10.081a1.322,1.322,0,1,1,1.322-1.322A1.318,1.318,0,0,1,204.29,30.9Zm0-10.084a.943.943,0,1,1,.943-.946A.943.943,0,0,1,204.29,20.817Zm0-10.11a.543.543,0,0,1-.538-.544.541.541,0,0,1,1.082,0A.548.548,0,0,1,204.29,10.708ZM204.214.459a.081.081,0,0,1,.076-.085.092.092,0,0,1,.088.085.089.089,0,0,1-.088.082A.078.078,0,0,1,204.214.459ZM194.586,159.9a4.144,4.144,0,1,1,4.144-4.134A4.138,4.138,0,0,1,194.586,159.9Zm0-9.73a4.117,4.117,0,1,1,4.113-4.119A4.113,4.113,0,0,1,194.586,150.172Zm0-9.759a4.062,4.062,0,1,1,4.068-4.061A4.067,4.067,0,0,1,194.586,140.413Zm0-9.787a3.982,3.982,0,1,1,3.986-3.983A3.98,3.98,0,0,1,194.586,130.626Zm0-9.841a3.848,3.848,0,1,1,3.847-3.849A3.848,3.848,0,0,1,194.586,120.785Zm0-9.866a3.687,3.687,0,1,1,3.695-3.686A3.689,3.689,0,0,1,194.586,110.919Zm0-9.895a3.5,3.5,0,1,1,3.5-3.5A3.495,3.495,0,0,1,194.586,101.024Zm0-9.923a3.284,3.284,0,1,1,3.283-3.281A3.284,3.284,0,0,1,194.586,91.1Zm0-9.951a3.04,3.04,0,1,1,3.043-3.04A3.039,3.039,0,0,1,194.586,81.15Zm0-9.971a2.773,2.773,0,1,1,2.777-2.774A2.769,2.769,0,0,1,194.586,71.179Zm0-10.03a2.45,2.45,0,1,1,2.448-2.455A2.449,2.449,0,0,1,194.586,61.149Zm0-10.028a2.129,2.129,0,1,1,2.125-2.129A2.131,2.131,0,0,1,194.586,51.121Zm0-10.031a1.8,1.8,0,1,1,1.8-1.806A1.8,1.8,0,0,1,194.586,41.091Zm0-10.056a1.455,1.455,0,1,1,1.456-1.455A1.459,1.459,0,0,1,194.586,31.035Zm0-10.113a1.05,1.05,0,1,1,1.05-1.05A1.048,1.048,0,0,1,194.586,20.922Zm0-10.081a.675.675,0,1,1,0-1.351.675.675,0,0,1,0,1.351Zm0-10.167a.217.217,0,0,1-.215-.215.222.222,0,0,1,.215-.218.214.214,0,0,1,.215.218A.21.21,0,0,1,194.586.674Zm-9.7,159.37a4.28,4.28,0,1,1,4.283-4.277A4.281,4.281,0,0,1,184.882,160.044Zm0-9.73a4.254,4.254,0,1,1,4.251-4.261A4.26,4.26,0,0,1,184.882,150.314Zm0-9.768a4.2,4.2,0,1,1,4.194-4.194A4.2,4.2,0,0,1,184.882,140.546Zm0-9.787A4.117,4.117,0,1,1,189,126.643,4.114,4.114,0,0,1,184.882,130.759Zm0-9.832a3.989,3.989,0,1,1,3.985-3.992A3.983,3.983,0,0,1,184.882,120.927Zm0-9.869a3.823,3.823,0,1,1,3.821-3.825A3.825,3.825,0,0,1,184.882,111.058Zm0-9.9a3.631,3.631,0,1,1,3.631-3.631A3.634,3.634,0,0,1,184.882,101.154Zm0-9.941a3.394,3.394,0,1,1,3.391-3.392A3.4,3.4,0,0,1,184.882,91.212Zm0-9.952a3.15,3.15,0,1,1,3.144-3.15A3.143,3.143,0,0,1,184.882,81.26Zm0-9.977a2.88,2.88,0,1,1,2.878-2.878A2.88,2.88,0,0,1,184.882,71.283Zm0-10a2.584,2.584,0,1,1,2.581-2.588A2.586,2.586,0,0,1,184.882,61.282Zm0-10.031a2.26,2.26,0,1,1,2.258-2.258A2.26,2.26,0,0,1,184.882,51.251Zm0-10.053a1.912,1.912,0,1,1,1.911-1.914A1.917,1.917,0,0,1,184.882,41.2Zm0-10.059a1.561,1.561,0,1,1,1.563-1.56A1.561,1.561,0,0,1,184.882,31.139Zm0-10.11a1.158,1.158,0,1,1,1.158-1.158A1.157,1.157,0,0,1,184.882,21.029Zm0-10.138a.726.726,0,1,1,.728-.728A.728.728,0,0,1,184.882,10.891Zm0-10.11a.322.322,0,0,1-.323-.322.323.323,0,1,1,.646,0A.322.322,0,0,1,184.882.781Zm-9.7,159.364a4.386,4.386,0,1,1,4.384-4.378A4.377,4.377,0,0,1,175.177,160.145Zm0-9.7a4.384,4.384,0,1,1,4.384-4.39A4.386,4.386,0,0,1,175.177,150.443Zm0-9.784a4.305,4.305,0,1,1,4.308-4.308A4.31,4.31,0,0,1,175.177,140.66Zm0-9.812a4.2,4.2,0,1,1,4.195-4.2A4.208,4.208,0,0,1,175.177,130.847Zm0-9.844a4.065,4.065,0,1,1,4.067-4.068A4.063,4.063,0,0,1,175.177,121Zm0-9.866a3.905,3.905,0,1,1,3.9-3.9A3.905,3.905,0,0,1,175.177,111.138Zm0-9.92a3.69,3.69,0,1,1,3.682-3.694A3.692,3.692,0,0,1,175.177,101.217Zm0-9.9a3.5,3.5,0,1,1,3.492-3.5A3.5,3.5,0,0,1,175.177,91.32Zm0-9.977A3.231,3.231,0,1,1,178.4,78.11,3.234,3.234,0,0,1,175.177,81.342Zm0-9.98a2.959,2.959,0,1,1,2.954-2.957A2.953,2.953,0,0,1,175.177,71.363Zm0-10a2.667,2.667,0,1,1,2.663-2.67A2.663,2.663,0,0,1,175.177,61.364Zm0-10.056a2.316,2.316,0,1,1,2.309-2.316A2.313,2.313,0,0,1,175.177,51.308Zm0-10.031a1.991,1.991,0,1,1,1.986-1.993A1.989,1.989,0,0,1,175.177,41.277Zm0-10.085a1.613,1.613,0,1,1,1.613-1.613A1.613,1.613,0,0,1,175.177,31.193Zm0-10.084a1.237,1.237,0,1,1,1.233-1.237A1.239,1.239,0,0,1,175.177,21.108Zm0-10.11a.833.833,0,1,1,.828-.835A.835.835,0,0,1,175.177,11Zm0-10.163a.376.376,0,1,1,.373-.376A.374.374,0,0,1,175.177.835Zm-9.7,159.4a4.47,4.47,0,1,1,4.459-4.467A4.471,4.471,0,0,1,165.472,160.234Zm0-9.708a4.469,4.469,0,1,1,4.459-4.472A4.47,4.47,0,0,1,165.472,150.525Zm0-9.79a4.387,4.387,0,1,1,4.39-4.384A4.381,4.381,0,0,1,165.472,140.736Zm0-9.841a4.255,4.255,0,1,1,4.244-4.252A4.252,4.252,0,0,1,165.472,130.895Zm0-9.812a4.144,4.144,0,1,1,4.144-4.147A4.148,4.148,0,0,1,165.472,121.082Zm0-9.869a3.983,3.983,0,1,1,3.979-3.98A3.987,3.987,0,0,1,165.472,111.213Zm0-9.949a3.74,3.74,0,1,1,3.739-3.742A3.74,3.74,0,0,1,165.472,101.264Zm0-9.919a3.527,3.527,0,1,1,3.517-3.524A3.529,3.529,0,0,1,165.472,91.345Zm0-9.952a3.283,3.283,0,1,1,3.276-3.284A3.284,3.284,0,0,1,165.472,81.393Zm0-10a2.988,2.988,0,1,1,2.986-2.989A2.988,2.988,0,0,1,165.472,71.394Zm0-9.977a2.719,2.719,0,1,1,2.713-2.724A2.718,2.718,0,0,1,165.472,61.418Zm0-10.031a2.395,2.395,0,1,1,2.4-2.395A2.392,2.392,0,0,1,165.472,51.387Zm0-10.053a2.047,2.047,0,1,1,2.037-2.05A2.049,2.049,0,0,1,165.472,41.334Zm0-10.062a1.694,1.694,0,1,1,1.689-1.692A1.691,1.691,0,0,1,165.472,31.272Zm0-10.107a1.292,1.292,0,1,1,1.29-1.294A1.3,1.3,0,0,1,165.472,21.165Zm0-10.11a.889.889,0,1,1,.885-.892A.887.887,0,0,1,165.472,11.056Zm0-10.141a.459.459,0,0,1-.462-.455A.462.462,0,0,1,165.472,0a.457.457,0,0,1,0,.914Zm-9.711,159.374a4.524,4.524,0,1,1,4.523-4.521A4.52,4.52,0,0,1,155.761,160.288Zm0-9.734a4.5,4.5,0,1,1,4.492-4.5A4.5,4.5,0,0,1,155.761,150.554Zm0-9.787a4.418,4.418,0,1,1,4.416-4.416A4.414,4.414,0,0,1,155.761,140.767Zm0-9.819a4.308,4.308,0,1,1,4.309-4.306A4.3,4.3,0,0,1,155.761,130.949Zm0-9.838a4.174,4.174,0,1,1,4.176-4.175A4.173,4.173,0,0,1,155.761,121.111Zm0-9.9a3.983,3.983,0,1,1,3.986-3.98A3.986,3.986,0,0,1,155.761,111.213Zm0-9.892a3.8,3.8,0,1,1,3.8-3.8A3.8,3.8,0,0,1,155.761,101.321Zm0-9.948a3.555,3.555,0,1,1,3.556-3.553A3.553,3.553,0,0,1,155.761,91.373Zm0-9.951a3.31,3.31,0,1,1,3.309-3.312A3.308,3.308,0,0,1,155.761,81.422Zm0-10a3.016,3.016,0,1,1,3.018-3.018A3.016,3.016,0,0,1,155.761,71.423Zm0-10.005a2.719,2.719,0,1,1,2.721-2.724A2.717,2.717,0,0,1,155.761,61.418Zm0-10.031a2.395,2.395,0,1,1,2.4-2.395A2.39,2.39,0,0,1,155.761,51.387Zm0-10.053a2.047,2.047,0,1,1,2.044-2.05A2.053,2.053,0,0,1,155.761,41.334Zm0-10.062a1.694,1.694,0,1,1,1.7-1.692A1.691,1.691,0,0,1,155.761,31.272Zm0-10.107a1.292,1.292,0,1,1,1.291-1.294A1.291,1.291,0,0,1,155.761,21.165Zm0-10.11a.889.889,0,1,1,.886-.892A.886.886,0,0,1,155.761,11.056Zm0-10.141a.457.457,0,0,1,0-.914.456.456,0,0,1,.455.459A.453.453,0,0,1,155.761.914Zm-9.71,159.345a4.495,4.495,0,1,1,4.5-4.492A4.491,4.491,0,0,1,146.051,160.259Zm0-9.734a4.469,4.469,0,1,1,4.472-4.472A4.472,4.472,0,0,1,146.051,150.525Zm0-9.79a4.387,4.387,0,1,1,4.39-4.384A4.384,4.384,0,0,1,146.051,140.736Zm0-9.841a4.255,4.255,0,1,1,4.257-4.252A4.245,4.245,0,0,1,146.051,130.895Zm0-9.812a4.144,4.144,0,1,1,4.149-4.147A4.141,4.141,0,0,1,146.051,121.082Zm0-9.869a3.983,3.983,0,1,1,3.985-3.98A3.98,3.98,0,0,1,146.051,111.213Zm0-9.949a3.74,3.74,0,1,1,3.751-3.742A3.742,3.742,0,0,1,146.051,101.264Zm0-9.891a3.555,3.555,0,1,1,3.555-3.553A3.557,3.557,0,0,1,146.051,91.373Zm0-9.951a3.31,3.31,0,1,1,3.321-3.312A3.308,3.308,0,0,1,146.051,81.422Zm0-10a3.016,3.016,0,1,1,3.024-3.018A3.016,3.016,0,0,1,146.051,71.423Zm0-10.005a2.719,2.719,0,1,1,2.726-2.724A2.716,2.716,0,0,1,146.051,61.418Zm0-10.031a2.395,2.395,0,1,1,2.4-2.395A2.394,2.394,0,0,1,146.051,51.387Zm0-10.053a2.047,2.047,0,1,1,2.056-2.05A2.043,2.043,0,0,1,146.051,41.334Zm0-10.062a1.694,1.694,0,1,1,1.7-1.692A1.691,1.691,0,0,1,146.051,31.272Zm0-10.107a1.292,1.292,0,1,1,1.3-1.294A1.294,1.294,0,0,1,146.051,21.165Zm0-10.11a.889.889,0,1,1,.892-.892A.884.884,0,0,1,146.051,11.056Zm0-10.141a.457.457,0,0,1,0-.914.462.462,0,0,1,.462.459A.459.459,0,0,1,146.051.914Zm-9.7,159.266a4.414,4.414,0,1,1,4.415-4.413A4.414,4.414,0,0,1,136.346,160.18Zm0-9.737a4.384,4.384,0,1,1,4.39-4.39A4.39,4.39,0,0,1,136.346,150.443Zm0-9.762a4.332,4.332,0,1,1,4.333-4.33A4.327,4.327,0,0,1,136.346,140.682Zm0-9.815a4.223,4.223,0,1,1,4.232-4.223A4.225,4.225,0,0,1,136.346,130.866Zm0-9.838a4.09,4.09,0,1,1,4.1-4.093A4.088,4.088,0,0,1,136.346,121.028Zm0-9.891a3.905,3.905,0,1,1,3.9-3.9A3.91,3.91,0,0,1,136.346,111.138Zm0-9.9a3.714,3.714,0,1,1,3.713-3.716A3.716,3.716,0,0,1,136.346,101.239Zm0-9.919a3.5,3.5,0,1,1,3.5-3.5A3.5,3.5,0,0,1,136.346,91.32Zm0-9.977a3.231,3.231,0,1,1,3.233-3.233A3.231,3.231,0,0,1,136.346,81.342Zm0-9.98a2.959,2.959,0,1,1,2.96-2.957A2.954,2.954,0,0,1,136.346,71.363Zm0-10a2.667,2.667,0,1,1,2.663-2.67A2.668,2.668,0,0,1,136.346,61.364Zm0-10.031a2.341,2.341,0,1,1,2.347-2.341A2.342,2.342,0,0,1,136.346,51.333Zm0-10.056a1.991,1.991,0,1,1,1.993-1.993A1.991,1.991,0,0,1,136.346,41.277Zm0-10.085a1.613,1.613,0,1,1,1.619-1.613A1.616,1.616,0,0,1,136.346,31.193Zm0-10.084a1.237,1.237,0,1,1,1.24-1.237A1.24,1.24,0,0,1,136.346,21.108Zm0-10.11a.833.833,0,1,1,.835-.835A.833.833,0,0,1,136.346,11Zm0-10.163a.382.382,0,0,1-.379-.376.382.382,0,0,1,.379-.376.374.374,0,0,1,.38.376A.374.374,0,0,1,136.346.835Zm-9.705,159.241a4.312,4.312,0,1,1,4.309-4.309A4.313,4.313,0,0,1,126.641,160.076Zm0-9.762a4.254,4.254,0,1,1,4.252-4.261A4.258,4.258,0,0,1,126.641,150.314Zm0-9.736a4.226,4.226,0,1,1,4.227-4.226A4.233,4.233,0,0,1,126.641,140.578Zm0-9.819a4.117,4.117,0,1,1,4.119-4.116A4.118,4.118,0,0,1,126.641,130.759Zm0-9.832a3.989,3.989,0,1,1,3.986-3.992A3.993,3.993,0,0,1,126.641,120.927Zm0-9.869a3.823,3.823,0,1,1,3.821-3.825A3.829,3.829,0,0,1,126.641,111.058Zm0-9.9a3.631,3.631,0,1,1,3.638-3.631A3.629,3.629,0,0,1,126.641,101.154Zm0-9.941a3.394,3.394,0,1,1,3.391-3.392A3.388,3.388,0,0,1,126.641,91.212Zm0-9.952a3.15,3.15,0,1,1,3.15-3.15A3.143,3.143,0,0,1,126.641,81.26Zm0-9.977a2.88,2.88,0,1,1,2.885-2.878A2.881,2.881,0,0,1,126.641,71.283Zm0-10a2.584,2.584,0,1,1,2.587-2.588A2.584,2.584,0,0,1,126.641,61.282Zm0-10.031a2.26,2.26,0,1,1,2.265-2.258A2.265,2.265,0,0,1,126.641,51.251Zm0-10.028a1.937,1.937,0,1,1,1.942-1.939A1.938,1.938,0,0,1,126.641,41.223Zm0-10.084a1.561,1.561,0,1,1,1.563-1.56A1.561,1.561,0,0,1,126.641,31.139Zm0-10.085a1.183,1.183,0,1,1,1.183-1.183A1.186,1.186,0,0,1,126.641,21.054Zm0-10.135a.754.754,0,1,1,.753-.756A.749.749,0,0,1,126.641,10.92Zm0-10.138a.322.322,0,0,1-.322-.322.327.327,0,0,1,.322-.326.323.323,0,0,1,.323.326A.318.318,0,0,1,126.641.781Zm-9.7,159.162a4.174,4.174,0,1,1,4.169-4.176A4.175,4.175,0,0,1,116.943,159.943Zm0-9.74a4.144,4.144,0,1,1,4.137-4.15A4.14,4.14,0,0,1,116.943,150.2Zm0-9.758a4.093,4.093,0,1,1,4.087-4.093A4.09,4.09,0,0,1,116.943,140.445Zm0-9.819a3.982,3.982,0,1,1,3.973-3.983A3.98,3.98,0,0,1,116.943,130.626Zm0-9.841a3.848,3.848,0,1,1,3.84-3.849A3.849,3.849,0,0,1,116.943,120.785Zm0-9.866a3.687,3.687,0,1,1,3.682-3.686A3.691,3.691,0,0,1,116.943,110.919Zm0-9.866a3.527,3.527,0,1,1,3.518-3.53A3.529,3.529,0,0,1,116.943,101.053Zm0-9.923a3.31,3.31,0,1,1,3.3-3.309A3.309,3.309,0,0,1,116.943,91.13Zm0-9.949A3.068,3.068,0,1,1,120,78.11,3.069,3.069,0,0,1,116.943,81.181Zm0-10a2.773,2.773,0,1,1,2.765-2.774A2.779,2.779,0,0,1,116.943,71.179Zm0-10a2.477,2.477,0,1,1,2.467-2.481A2.481,2.481,0,0,1,116.943,61.174Zm0-10.028a2.154,2.154,0,1,1,2.151-2.154A2.154,2.154,0,0,1,116.943,51.146Zm0-10.031a1.832,1.832,0,1,1,1.822-1.832A1.839,1.839,0,0,1,116.943,41.116Zm0-10.081a1.455,1.455,0,1,1,1.456-1.455A1.451,1.451,0,0,1,116.943,31.035Zm0-10.085a1.075,1.075,0,1,1,0-2.151,1.075,1.075,0,0,1,0,2.151Zm0-10.11a.676.676,0,1,1,.665-.677A.674.674,0,0,1,116.943,10.841Zm0-10.141a.243.243,0,0,1-.253-.24.243.243,0,0,1,.253-.24.24.24,0,0,1,0,.481Zm-9.717,168.762a3.989,3.989,0,1,1,3.986-4A3.994,3.994,0,0,1,107.225,169.461Zm0-9.714a3.984,3.984,0,1,1,3.986-3.979A3.983,3.983,0,0,1,107.225,159.747Zm0-9.708a3.979,3.979,0,1,1,3.986-3.985A3.986,3.986,0,0,1,107.225,150.039Zm0-9.787a3.9,3.9,0,1,1,3.91-3.9A3.895,3.895,0,0,1,107.225,140.252Zm0-9.787a3.821,3.821,0,1,1,3.828-3.822A3.823,3.823,0,0,1,107.225,130.465Zm0-9.838a3.69,3.69,0,1,1,3.7-3.691A3.687,3.687,0,0,1,107.225,120.627Zm0-9.84a3.554,3.554,0,1,1,3.562-3.553A3.559,3.559,0,0,1,107.225,110.786Zm0-9.9a3.365,3.365,0,1,1,3.366-3.369A3.373,3.373,0,0,1,107.225,100.891Zm0-9.919a3.152,3.152,0,1,1,3.157-3.151A3.152,3.152,0,0,1,107.225,90.972Zm0-9.955a2.906,2.906,0,1,1,2.91-2.907A2.909,2.909,0,0,1,107.225,81.017Zm0-9.971a2.64,2.64,0,1,1,2.638-2.641A2.642,2.642,0,0,1,107.225,71.046Zm0-10.005a2.344,2.344,0,1,1,2.348-2.348A2.342,2.342,0,0,1,107.225,61.041Zm0-10.031a2.018,2.018,0,1,1,2.024-2.018A2.017,2.017,0,0,1,107.225,51.01Zm0-10.028a1.7,1.7,0,1,1,1.7-1.7A1.7,1.7,0,0,1,107.225,40.983Zm0-10.081a1.322,1.322,0,1,1,1.323-1.322A1.318,1.318,0,0,1,107.225,30.9Zm0-10.084a.943.943,0,1,1,.943-.946A.941.941,0,0,1,107.225,20.817Zm0-10.11a.541.541,0,0,1-.531-.544.538.538,0,0,1,1.075,0A.544.544,0,0,1,107.225,10.708ZM107.1.459a.13.13,0,0,1,.126-.133.133.133,0,0,1,.139.133.131.131,0,0,1-.139.133A.128.128,0,0,1,107.1.459Zm-9.578,159.1a3.8,3.8,0,1,1,3.8-3.793A3.8,3.8,0,0,1,97.521,159.56Zm0-9.766a3.74,3.74,0,1,1,3.745-3.742A3.738,3.738,0,0,1,97.521,149.795Zm0-9.733a3.712,3.712,0,1,1,3.72-3.71A3.706,3.706,0,0,1,97.521,140.062Zm0-9.787a3.633,3.633,0,1,1,3.631-3.632A3.629,3.629,0,0,1,97.521,130.275Zm0-9.813a3.524,3.524,0,1,1,3.53-3.527A3.521,3.521,0,0,1,97.521,120.462Zm0-9.872a3.366,3.366,0,1,1,3.365-3.356A3.366,3.366,0,0,1,97.521,110.59Zm0-9.888a3.174,3.174,0,1,1,3.176-3.179A3.178,3.178,0,0,1,97.521,100.7Zm0-9.92a2.962,2.962,0,1,1,2.967-2.961A2.959,2.959,0,0,1,97.521,90.782Zm0-9.923a2.747,2.747,0,1,1,2.752-2.749A2.747,2.747,0,0,1,97.521,80.859Zm0-10.005a2.45,2.45,0,1,1,2.448-2.448A2.446,2.446,0,0,1,97.521,70.853Zm0-9.971A2.182,2.182,0,1,1,99.7,58.694,2.181,2.181,0,0,1,97.521,60.883Zm0-10a1.885,1.885,0,1,1,1.885-1.885A1.89,1.89,0,0,1,97.521,50.878Zm0-10.056a1.536,1.536,0,1,1,1.537-1.537A1.533,1.533,0,0,1,97.521,40.821Zm0-10.059A1.183,1.183,0,1,1,98.7,29.579,1.185,1.185,0,0,1,97.521,30.763Zm0-10.078a.81.81,0,1,1,.816-.813A.812.812,0,0,1,97.521,20.684Zm0-10.141a.378.378,0,0,1,0-.756.378.378,0,1,1,0,.756Zm-9.7,148.773a3.552,3.552,0,1,1,3.555-3.549A3.551,3.551,0,0,1,87.817,159.317Zm0-9.7a3.555,3.555,0,1,1,3.555-3.562A3.558,3.558,0,0,1,87.817,149.615Zm0-9.762a3.5,3.5,0,1,1,3.5-3.5A3.493,3.493,0,0,1,87.817,139.853Zm0-9.819a3.391,3.391,0,1,1,3.391-3.391A3.389,3.389,0,0,1,87.817,130.035Zm0-9.784a3.31,3.31,0,1,1,3.315-3.315A3.318,3.318,0,0,1,87.817,120.25Zm0-9.869a3.147,3.147,0,1,1,3.15-3.148A3.149,3.149,0,0,1,87.817,110.381Zm0-9.891a2.962,2.962,0,1,1,2.961-2.967A2.964,2.964,0,0,1,87.817,100.49Zm0-9.9a2.771,2.771,0,1,1,2.777-2.771A2.767,2.767,0,0,1,87.817,90.592Zm0-9.952a2.529,2.529,0,1,1,2.531-2.53A2.532,2.532,0,0,1,87.817,80.64Zm0-9.951a2.287,2.287,0,1,1,2.29-2.284A2.279,2.279,0,0,1,87.817,70.689Zm0-10.024a1.967,1.967,0,1,1,1.961-1.971A1.971,1.971,0,0,1,87.817,60.664Zm0-9.977a1.694,1.694,0,1,1,1.7-1.7A1.7,1.7,0,0,1,87.817,50.688Zm0-10.059a1.346,1.346,0,1,1,1.347-1.344A1.346,1.346,0,0,1,87.817,40.629Zm0-10.053a1,1,0,1,1,1-1A1,1,0,0,1,87.817,30.576Zm0-10.084a.618.618,0,1,1,.626-.62A.619.619,0,0,1,87.817,20.492Zm0-10.11a.216.216,0,0,1-.215-.218.215.215,0,0,1,.43,0A.216.216,0,0,1,87.817,10.382Zm-9.7,148.691a3.309,3.309,0,1,1,3.309-3.306A3.311,3.311,0,0,1,78.112,159.073Zm0-9.708a3.306,3.306,0,1,1,3.309-3.312A3.306,3.306,0,0,1,78.112,149.365Zm0-9.787a3.228,3.228,0,1,1,3.233-3.226A3.227,3.227,0,0,1,78.112,139.578Zm0-9.787a3.147,3.147,0,1,1,3.15-3.148A3.144,3.144,0,0,1,78.112,129.791Zm0-9.787a3.068,3.068,0,1,1,3.068-3.068A3.065,3.065,0,0,1,78.112,120Zm0-9.866a2.907,2.907,0,1,1,2.9-2.9A2.913,2.913,0,0,1,78.112,110.138Zm0-9.866a2.747,2.747,0,1,1,2.74-2.749A2.753,2.753,0,0,1,78.112,100.271Zm0-9.923a2.531,2.531,0,1,1,2.525-2.528A2.537,2.537,0,0,1,78.112,90.349Zm0-9.952A2.289,2.289,0,1,1,80.4,78.11,2.289,2.289,0,0,1,78.112,80.4Zm0-9.945a2.046,2.046,0,1,1,2.043-2.046A2.046,2.046,0,0,1,78.112,70.452Zm0-10a1.748,1.748,0,1,1,1.746-1.753A1.752,1.752,0,0,1,78.112,60.447Zm0-10a1.455,1.455,0,1,1,1.455-1.455A1.456,1.456,0,0,1,78.112,50.448Zm0-10.031a1.131,1.131,0,1,1,1.133-1.132A1.133,1.133,0,0,1,78.112,40.417Zm0-10.087a.753.753,0,0,1,0-1.506.753.753,0,0,1,0,1.506Zm0-10.082a.376.376,0,1,1,0-.753.376.376,0,0,1,0,.753Zm-9.7,138.531a3.015,3.015,0,1,1,3.011-3.012A3.012,3.012,0,0,1,68.407,158.779Zm0-9.705a3.016,3.016,0,1,1,3.011-3.021A3.018,3.018,0,0,1,68.407,149.074Zm0-9.762a2.962,2.962,0,1,1,2.96-2.96A2.963,2.963,0,0,1,68.407,139.312Zm0-9.787a2.882,2.882,0,1,1,2.878-2.881A2.885,2.885,0,0,1,68.407,129.525Zm0-9.809a2.777,2.777,0,1,1,2.771-2.78A2.778,2.778,0,0,1,68.407,119.716Zm0-9.854a2.635,2.635,0,1,1,2.638-2.629A2.629,2.629,0,0,1,68.407,109.862Zm0-9.882a2.45,2.45,0,1,1,2.448-2.458A2.457,2.457,0,0,1,68.407,99.98Zm0-9.872a2.29,2.29,0,1,1,2.283-2.287A2.289,2.289,0,0,1,68.407,90.108Zm0-9.952a2.047,2.047,0,1,1,2.043-2.046A2.049,2.049,0,0,1,68.407,80.156Zm0-9.948a1.8,1.8,0,1,1,1.8-1.8A1.8,1.8,0,0,1,68.407,70.208Zm0-9.974a1.534,1.534,0,1,1,1.531-1.541A1.533,1.533,0,0,1,68.407,60.234Zm0-10.031a1.211,1.211,0,1,1,1.208-1.211A1.207,1.207,0,0,1,68.407,50.2Zm0-10.031a.887.887,0,1,1,.886-.889A.888.888,0,0,1,68.407,40.173Zm0-10.053a.539.539,0,1,1,.538-.541A.541.541,0,0,1,68.407,30.12Zm0-10.062a.187.187,0,1,1,0-.373.187.187,0,0,1,0,.373ZM58.7,168.2a2.723,2.723,0,1,1,2.721-2.733A2.723,2.723,0,0,1,58.7,168.2Zm0-9.714a2.716,2.716,0,1,1,2.721-2.714A2.721,2.721,0,0,1,58.7,158.482Zm0-9.7a2.722,2.722,0,1,1,2.721-2.726A2.719,2.719,0,0,1,58.7,148.78Zm0-9.764a2.665,2.665,0,1,1,2.67-2.663A2.666,2.666,0,0,1,58.7,139.015Zm0-9.787a2.583,2.583,0,1,1,2.588-2.584A2.58,2.58,0,0,1,58.7,129.228Zm0-9.815a2.477,2.477,0,1,1,2.48-2.477A2.479,2.479,0,0,1,58.7,119.412Zm0-9.84a2.341,2.341,0,1,1,2.341-2.338A2.339,2.339,0,0,1,58.7,109.572Zm0-9.866a2.179,2.179,0,1,1,2.189-2.182A2.179,2.179,0,0,1,58.7,99.705Zm0-9.926a1.965,1.965,0,1,1,1.967-1.958A1.964,1.964,0,0,1,58.7,89.779Zm0-9.92a1.749,1.749,0,1,1,1.752-1.749A1.75,1.75,0,0,1,58.7,79.859Zm0-9.919a1.534,1.534,0,1,1,1.537-1.534A1.541,1.541,0,0,1,58.7,69.939Zm0-10a1.241,1.241,0,1,1,1.247-1.246A1.247,1.247,0,0,1,58.7,59.94Zm0-10a.944.944,0,1,1,.943-.946A.946.946,0,0,1,58.7,49.938Zm0-10.031a.622.622,0,1,1,.62-.623A.622.622,0,0,1,58.7,39.907Zm0-10.062a.271.271,0,0,1-.272-.266.274.274,0,0,1,.272-.272.27.27,0,0,1,.272.272A.266.266,0,0,1,58.7,29.845Zm-9.7,138.022a2.395,2.395,0,1,1,2.391-2.4A2.4,2.4,0,0,1,48.991,167.867Zm0-9.711a2.393,2.393,0,1,1,2.391-2.388A2.395,2.395,0,0,1,48.991,158.156Zm0-9.7a2.4,2.4,0,1,1,2.391-2.4A2.4,2.4,0,0,1,48.991,148.457Zm0-9.765a2.341,2.341,0,1,1,2.341-2.341A2.342,2.342,0,0,1,48.991,138.692Zm0-9.784a2.265,2.265,0,1,1,2.259-2.265A2.263,2.263,0,0,1,48.991,128.908Zm0-9.815a2.154,2.154,0,1,1,2.152-2.157A2.158,2.158,0,0,1,48.991,119.093Zm0-9.841a2.02,2.02,0,1,1,2.018-2.018A2.013,2.013,0,0,1,48.991,109.252Zm0-9.844a1.885,1.885,0,1,1,1.886-1.885A1.888,1.888,0,0,1,48.991,99.408Zm0-9.894a1.694,1.694,0,1,1,1.7-1.693A1.7,1.7,0,0,1,48.991,89.514Zm0-9.949a1.455,1.455,0,1,1,1.456-1.455A1.454,1.454,0,0,1,48.991,79.565Zm0-9.948a1.21,1.21,0,1,1,1.215-1.211A1.212,1.212,0,0,1,48.991,69.617Zm0-9.977a.939.939,0,1,1,.943-.946A.944.944,0,0,1,48.991,59.639Zm0-9.973a.674.674,0,1,1,.677-.674A.678.678,0,0,1,48.991,49.666Zm0-10.056a.324.324,0,1,1,.323-.326A.325.325,0,0,1,48.991,39.61Zm-9.7,127.909a2.046,2.046,0,1,1,2.05-2.056A2.045,2.045,0,0,1,39.287,167.519Zm0-9.711a2.047,2.047,0,1,1,2.05-2.041A2.04,2.04,0,0,1,39.287,157.808Zm0-9.7a2.048,2.048,0,1,1,2.05-2.053A2.045,2.045,0,0,1,39.287,148.106Zm0-9.765a1.991,1.991,0,1,1,1.986-1.989A1.992,1.992,0,0,1,39.287,138.341Zm0-9.759a1.939,1.939,0,1,1,1.936-1.939A1.937,1.937,0,0,1,39.287,128.582Zm0-9.819a1.827,1.827,0,1,1,1.828-1.828A1.828,1.828,0,0,1,39.287,118.764Zm0-9.835a1.7,1.7,0,1,1,1.7-1.7A1.691,1.691,0,0,1,39.287,108.929Zm0-9.869a1.534,1.534,0,1,1,1.537-1.537A1.537,1.537,0,0,1,39.287,99.06Zm0-9.894a1.346,1.346,0,1,1,1.348-1.345A1.347,1.347,0,0,1,39.287,89.165Zm0-9.92a1.131,1.131,0,1,1,1.132-1.135A1.132,1.132,0,0,1,39.287,79.245Zm0-9.951a.889.889,0,1,1,.886-.889A.889.889,0,0,1,39.287,69.294Zm0-9.974a.62.62,0,1,1,.62-.626A.618.618,0,0,1,39.287,59.32Zm0-10a.323.323,0,0,1,0-.646.323.323,0,0,1,0,.646Zm-.025-10.031a.023.023,0,0,1,.025-.025.027.027,0,0,1,.025.025.028.028,0,0,1-.025.029C39.268,39.313,39.261,39.3,39.261,39.284ZM29.583,167.158a1.7,1.7,0,1,1,1.689-1.7A1.692,1.692,0,0,1,29.583,167.158Zm0-9.7a1.694,1.694,0,1,1,1.689-1.693A1.689,1.689,0,0,1,29.583,157.46Zm0-9.708a1.7,1.7,0,1,1,1.689-1.7A1.694,1.694,0,0,1,29.583,147.751Zm0-9.787a1.616,1.616,0,1,1,1.613-1.613A1.617,1.617,0,0,1,29.583,137.965Zm0-9.762a1.558,1.558,0,1,1,1.556-1.559A1.562,1.562,0,0,1,29.583,128.2Zm0-9.805a1.455,1.455,0,1,1,1.455-1.462A1.453,1.453,0,0,1,29.583,118.4Zm0-9.847a1.319,1.319,0,1,1,1.316-1.316A1.317,1.317,0,0,1,29.583,108.55Zm0-9.838a1.184,1.184,0,1,1,1.183-1.189A1.187,1.187,0,0,1,29.583,98.712Zm0-9.9a1,1,0,1,1,.993-.994A1,1,0,0,1,29.583,88.814Zm0-9.952a.751.751,0,1,1,0-1.5.751.751,0,1,1,0,1.5Zm0-9.919a.539.539,0,1,1,.531-.538A.538.538,0,0,1,29.583,68.943Zm0-9.974a.27.27,0,1,1,0-.541.27.27,0,0,1,0,.541Zm-9.712,107.8a1.3,1.3,0,0,1-1.29-1.3,1.29,1.29,0,0,1,2.581,0A1.3,1.3,0,0,1,19.871,166.766Zm0-9.7a1.3,1.3,0,1,1,1.291-1.3A1.293,1.293,0,0,1,19.871,157.064Zm0-9.718a1.29,1.29,0,1,1,1.291-1.293A1.288,1.288,0,0,1,19.871,147.347Zm0-9.758a1.237,1.237,0,0,1,0-2.474,1.237,1.237,0,1,1,0,2.474Zm0-9.762a1.186,1.186,0,1,1,1.183-1.183A1.185,1.185,0,0,1,19.871,127.826Zm0-9.809a1.079,1.079,0,1,1,1.082-1.082A1.076,1.076,0,0,1,19.871,118.017Zm0-9.847a.938.938,0,0,1,0-1.876.938.938,0,1,1,0,1.876Zm0-9.835a.81.81,0,1,1,.81-.813A.818.818,0,0,1,19.871,98.336Zm0-9.9a.625.625,0,0,1-.62-.62.62.62,0,1,1,.62.62Zm0-9.955a.375.375,0,0,1,0-.75.375.375,0,1,1,0,.75Zm0-9.894a.184.184,0,0,1-.183-.187.187.187,0,0,1,.183-.19.192.192,0,0,1,.19.19A.19.19,0,0,1,19.871,68.592Zm-9.7,97.769a.889.889,0,1,1,.885-.9A.891.891,0,0,1,10.167,166.361Zm0-9.711a.886.886,0,1,1,.885-.883A.884.884,0,0,1,10.167,156.65Zm0-9.705a.887.887,0,1,1,.885-.892A.885.885,0,0,1,10.167,146.945Zm0-9.762a.834.834,0,1,1,.835-.832A.833.833,0,0,1,10.167,137.183Zm0-9.787a.753.753,0,1,1,.753-.753A.747.747,0,0,1,10.167,127.4Zm0-9.79a.669.669,0,1,1,.677-.671A.672.672,0,0,1,10.167,117.606Zm0-9.835a.539.539,0,1,1,.538-.538A.537.537,0,0,1,10.167,107.771Zm0-9.872a.375.375,0,1,1,.38-.376A.378.378,0,0,1,10.167,97.9Zm0-9.866a.215.215,0,1,1,.215-.212A.215.215,0,0,1,10.167,88.033Zm-9.7,77.9A.47.47,0,0,1,0,165.463a.454.454,0,0,1,.462-.449.448.448,0,0,1,.455.449A.464.464,0,0,1,.462,165.931Zm0-9.711a.455.455,0,1,1,.455-.452A.453.453,0,0,1,.462,156.219Zm0-9.7A.465.465,0,0,1,0,146.053a.456.456,0,0,1,.462-.449.45.45,0,0,1,.455.449A.459.459,0,0,1,.462,146.518Zm0-9.787a.376.376,0,1,1,0-.753.376.376,0,0,1,0,.753Zm0-9.758a.326.326,0,1,1,0-.652.326.326,0,0,1,0,.652Zm0-9.794a.249.249,0,0,1-.247-.243.253.253,0,0,1,.247-.243.247.247,0,0,1,.24.243A.243.243,0,0,1,.462,117.179Zm-.133-9.945a.133.133,0,0,1,.133-.136.135.135,0,0,1,0,.269A.132.132,0,0,1,.329,107.234ZM.462,174.8a.372.372,0,0,1,.374.38.379.379,0,0,1-.374.379.385.385,0,0,1-.38-.379A.377.377,0,0,1,.462,174.8Zm0,9.761a.324.324,0,0,1,.323.323.318.318,0,0,1-.323.316.32.32,0,0,1-.329-.316A.326.326,0,0,1,.462,184.562Zm0,9.813a.212.212,0,0,1,.209.215.2.2,0,0,1-.209.215.215.215,0,0,1-.221-.215A.223.223,0,0,1,.462,194.375Zm.082,9.919a.085.085,0,0,1-.082.089.086.086,0,0,1-.083-.089.083.083,0,0,1,.165,0Zm9.623-29.949a.829.829,0,1,1-.835.835A.83.83,0,0,1,10.167,174.345Zm0,9.812a.731.731,0,0,1,0,1.461.731.731,0,1,1,0-1.461Zm0,9.756a.682.682,0,0,1,.677.677.677.677,0,0,1-1.354,0A.686.686,0,0,1,10.167,193.913Zm0,9.85a.536.536,0,0,1,.538.531.541.541,0,1,1-.538-.531Zm0,9.888a.351.351,0,1,1-.348.348A.351.351,0,0,1,10.167,213.652ZM10.35,223.7a.184.184,0,1,1-.367,0,.183.183,0,0,1,.367,0Zm9.521-49.777a1.246,1.246,0,1,1,0,2.493,1.246,1.246,0,0,1,0-2.493Zm0,9.8a1.161,1.161,0,1,1-1.157,1.158A1.158,1.158,0,0,1,19.871,183.727Zm0,9.819a1.042,1.042,0,0,1,1.05,1.044,1.05,1.05,0,1,1-1.05-1.044Zm0,9.8a.956.956,0,0,1,.949.948.945.945,0,0,1-.949.937.934.934,0,0,1-.936-.937A.945.945,0,0,1,19.871,203.346Zm0,9.907a.753.753,0,1,1-.746.746A.749.749,0,0,1,19.871,213.253Zm0,9.869a.588.588,0,1,1,0,1.177.588.588,0,1,1,0-1.177Zm0,9.92a.373.373,0,1,1-.373.38A.371.371,0,0,1,19.871,233.042Zm.165,10.072a.167.167,0,0,1-.165.178.171.171,0,0,1-.164-.178.166.166,0,0,1,.164-.152A.161.161,0,0,1,20.036,243.114Zm9.547-69.553a1.613,1.613,0,1,1-1.619,1.62A1.614,1.614,0,0,1,29.583,173.56Zm0,9.756a1.566,1.566,0,0,1,1.556,1.569,1.563,1.563,0,0,1-3.125,0A1.572,1.572,0,0,1,29.583,183.316Zm0,9.819a1.455,1.455,0,1,1-1.456,1.455A1.455,1.455,0,0,1,29.583,193.135Zm0,9.844a1.319,1.319,0,1,1-1.322,1.316A1.319,1.319,0,0,1,29.583,202.979Zm0,9.87a1.151,1.151,0,1,1,0,2.3,1.151,1.151,0,1,1,0-2.3Zm0,9.894a.968.968,0,1,1-.974.961A.967.967,0,0,1,29.583,222.743Zm0,9.92a.753.753,0,1,1-.76.759A.752.752,0,0,1,29.583,232.663Zm0,9.958a.5.5,0,0,1,.506.493.509.509,0,1,1-1.019,0A.5.5,0,0,1,29.583,242.621Zm0,9.964a.237.237,0,0,1,.234.247.237.237,0,1,1-.475,0A.239.239,0,0,1,29.583,252.584Zm9.7-79.4a1.993,1.993,0,1,1-1.993,2A1.993,1.993,0,0,1,39.287,173.181Zm0,9.793a1.911,1.911,0,1,1-1.917,1.911A1.9,1.9,0,0,1,39.287,182.974Zm0,9.819a1.8,1.8,0,1,1-1.8,1.8A1.8,1.8,0,0,1,39.287,192.793Zm0,9.806a1.7,1.7,0,1,1-1.7,1.7A1.7,1.7,0,0,1,39.287,202.6Zm0,9.895A1.512,1.512,0,1,1,37.781,214,1.5,1.5,0,0,1,39.287,212.494Zm0,9.9a1.316,1.316,0,1,1-1.316,1.309A1.319,1.319,0,0,1,39.287,222.395Zm0,9.919a1.1,1.1,0,1,1-1.107,1.107A1.109,1.109,0,0,1,39.287,232.314Zm0,9.939a.867.867,0,1,1-.867.86A.866.866,0,0,1,39.287,242.253Zm0,9.99a.589.589,0,1,1,0,1.177.589.589,0,0,1,0-1.177Zm0,10a.3.3,0,0,1,0,.595.3.3,0,0,1,0-.595Zm9.7-89.381a2.319,2.319,0,1,1-2.315,2.322A2.326,2.326,0,0,1,48.991,172.858Zm0,9.762a2.262,2.262,0,1,1-2.259,2.265A2.262,2.262,0,0,1,48.991,182.62Zm0,9.838a2.129,2.129,0,1,1-2.132,2.132A2.14,2.14,0,0,1,48.991,192.458Zm0,9.819a2.021,2.021,0,1,1-2.018,2.018A2.02,2.02,0,0,1,48.991,202.276Zm0,9.876A1.854,1.854,0,1,1,47.137,214,1.857,1.857,0,0,1,48.991,212.152Zm0,9.895a1.667,1.667,0,1,1-1.67,1.657A1.67,1.67,0,0,1,48.991,222.047Zm0,9.945a1.423,1.423,0,1,1-1.43,1.43A1.423,1.423,0,0,1,48.991,231.992Zm0,9.952a1.178,1.178,0,0,1,1.183,1.17,1.186,1.186,0,1,1-1.183-1.17Zm0,9.964a.923.923,0,1,1-.917.923A.923.923,0,0,1,48.991,251.908Zm0,10.015a.617.617,0,1,1,0,1.233.617.617,0,1,1,0-1.233Zm0,10.027a.3.3,0,0,1,0,.595.3.3,0,1,1,0-.595Zm9.7-99.439a2.663,2.663,0,1,1-2.663,2.67A2.666,2.666,0,0,1,58.7,172.51Zm0,9.781a2.587,2.587,0,1,1-2.581,2.594A2.592,2.592,0,0,1,58.7,182.291Zm0,9.856a2.449,2.449,0,1,1-2.448,2.442A2.446,2.446,0,0,1,58.7,192.147Zm0,9.831a2.322,2.322,0,1,1-2.31,2.316A2.313,2.313,0,0,1,58.7,201.979Zm0,9.87A2.154,2.154,0,1,1,56.545,214,2.163,2.163,0,0,1,58.7,211.849Zm0,9.882a1.974,1.974,0,1,1-1.968,1.973A1.974,1.974,0,0,1,58.7,221.731Zm0,9.964a1.721,1.721,0,1,1-1.721,1.727A1.721,1.721,0,0,1,58.7,231.694Zm0,9.92a1.506,1.506,0,1,1-1.506,1.5A1.509,1.509,0,0,1,58.7,241.614Zm0,10.008a1.209,1.209,0,1,1-1.208,1.208A1.2,1.2,0,0,1,58.7,251.623Zm0,10a.911.911,0,1,1-.911.911A.907.907,0,0,1,58.7,261.625Zm0,10.021a.595.595,0,1,1-.588.595A.59.59,0,0,1,58.7,271.646Zm0,10.065a.235.235,0,0,1,.24.235.246.246,0,0,1-.24.247.256.256,0,0,1-.247-.247A.245.245,0,0,1,58.7,281.711Zm9.711-119.222a2.983,2.983,0,1,1-2.993,2.974A2.977,2.977,0,0,1,68.407,162.489Zm0,9.73a2.958,2.958,0,1,1-2.967,2.961A2.961,2.961,0,0,1,68.407,172.219Zm0,9.78a2.882,2.882,0,1,1-2.885,2.885A2.882,2.882,0,0,1,68.407,182Zm0,9.819a2.771,2.771,0,1,1-2.777,2.771A2.774,2.774,0,0,1,68.407,191.819Zm0,9.863a2.616,2.616,0,1,1-2.619,2.613A2.608,2.608,0,0,1,68.407,201.682Zm0,9.876A2.445,2.445,0,1,1,65.953,214,2.445,2.445,0,0,1,68.407,211.557Zm0,9.888a2.265,2.265,0,1,1-2.265,2.258A2.256,2.256,0,0,1,68.407,221.446Zm0,9.951a2.018,2.018,0,1,1-2.024,2.024A2.022,2.022,0,0,1,68.407,231.4Zm0,9.977a1.749,1.749,0,1,1-1.759,1.74A1.744,1.744,0,0,1,68.407,241.374Zm0,9.977a1.477,1.477,0,1,1-1.487,1.48A1.473,1.473,0,0,1,68.407,251.351Zm0,10a1.183,1.183,0,1,1-1.189,1.183A1.181,1.181,0,0,1,68.407,261.353Zm0,10.027a.864.864,0,1,1-.867.861A.856.856,0,0,1,68.407,271.38Zm0,10.06a.506.506,0,1,1,0,1.012.506.506,0,1,1,0-1.012Zm.126,10.211a.134.134,0,0,1-.126.139.141.141,0,0,1-.139-.139.135.135,0,0,1,.139-.133A.129.129,0,0,1,68.534,291.65Zm9.578-129.462a3.282,3.282,0,1,1-3.283,3.274A3.28,3.28,0,0,1,78.112,162.188Zm0,9.752a3.233,3.233,0,1,1-3.233,3.239A3.24,3.24,0,0,1,78.112,171.941Zm0,9.793a3.151,3.151,0,1,1-3.151,3.151A3.151,3.151,0,0,1,78.112,181.734Zm0,9.813a3.04,3.04,0,1,1-3.043,3.043A3.047,3.047,0,0,1,78.112,191.547Zm0,9.863a2.885,2.885,0,1,1-2.878,2.885A2.886,2.886,0,0,1,78.112,201.41Zm0,9.869A2.727,2.727,0,1,1,75.4,214,2.723,2.723,0,0,1,78.112,211.279Zm0,9.92a2.512,2.512,0,1,1-2.505,2.5A2.519,2.519,0,0,1,78.112,221.2Zm0,9.92a2.29,2.29,0,1,1-2.29,2.3A2.294,2.294,0,0,1,78.112,231.119Zm0,9.99a2.018,2.018,0,1,1-2.024,2A2.008,2.008,0,0,1,78.112,241.109Zm0,10a1.724,1.724,0,1,1-1.72,1.727A1.716,1.716,0,0,1,78.112,251.1Zm0,10a1.427,1.427,0,1,1-1.424,1.43A1.431,1.431,0,0,1,78.112,261.107Zm0,10.034a1.1,1.1,0,0,1,0,2.208,1.1,1.1,0,1,1,0-2.208Zm0,10.084a.728.728,0,1,1-.728.722A.731.731,0,0,1,78.112,281.224Zm0,10.085a.348.348,0,1,1,0,.7.348.348,0,1,1,0-.7Zm9.7-129.364a3.524,3.524,0,1,1-3.53,3.518A3.529,3.529,0,0,1,87.817,161.945Zm0,9.743a3.493,3.493,0,1,1-3.492,3.493A3.494,3.494,0,0,1,87.817,171.688Zm0,9.806a3.394,3.394,0,1,1-3.391,3.391A3.4,3.4,0,0,1,87.817,181.494Zm0,9.806a3.29,3.29,0,1,1-3.284,3.29A3.3,3.3,0,0,1,87.817,191.3Zm0,9.869a3.126,3.126,0,1,1-3.125,3.125A3.122,3.122,0,0,1,87.817,201.169Zm0,9.9A2.932,2.932,0,1,1,84.887,214,2.937,2.937,0,0,1,87.817,211.07Zm0,9.888a2.749,2.749,0,1,1-2.746,2.745A2.741,2.741,0,0,1,87.817,220.958Zm0,9.958a2.5,2.5,0,1,1-2.5,2.5A2.494,2.494,0,0,1,87.817,230.916Zm0,9.97a2.233,2.233,0,1,1-2.233,2.227A2.231,2.231,0,0,1,87.817,240.887Zm0,10.009a1.936,1.936,0,1,1-1.937,1.936A1.932,1.932,0,0,1,87.817,250.9Zm0,9.971a1.67,1.67,0,1,1-1.671,1.67A1.669,1.669,0,0,1,87.817,260.866Zm0,10.059a1.316,1.316,0,1,1-1.316,1.316A1.324,1.324,0,0,1,87.817,270.925Zm0,10.084a.94.94,0,1,1-.943.937A.94.94,0,0,1,87.817,281.009Zm0,10.085a.563.563,0,1,1-.563.556A.568.568,0,0,1,87.817,291.094Zm.164,10.274a.165.165,0,0,1-.329,0,.164.164,0,1,1,.329,0Zm9.54-139.638a3.742,3.742,0,1,1-3.739,3.733A3.738,3.738,0,0,1,97.521,161.73Zm0,9.762a3.685,3.685,0,1,1-3.682,3.688A3.693,3.693,0,0,1,97.521,171.492Zm0,9.761a3.631,3.631,0,1,1-3.631,3.632A3.627,3.627,0,0,1,97.521,181.254Zm0,9.844a3.5,3.5,0,1,1-3.5,3.493A3.494,3.494,0,0,1,97.521,191.1Zm0,9.863a3.337,3.337,0,1,1-3.34,3.334A3.331,3.331,0,0,1,97.521,200.96Zm0,9.888A3.151,3.151,0,1,1,94.377,214,3.151,3.151,0,0,1,97.521,210.849Zm0,9.92a2.942,2.942,0,1,1-2.935,2.935A2.941,2.941,0,0,1,97.521,220.769Zm0,9.958a2.689,2.689,0,1,1-2.689,2.7A2.684,2.684,0,0,1,97.521,230.726Zm0,9.945a2.451,2.451,0,1,1-2.448,2.442A2.449,2.449,0,0,1,97.521,240.672Zm0,10.034a2.126,2.126,0,1,1-2.125,2.125A2.123,2.123,0,0,1,97.521,250.706Zm0,10a1.828,1.828,0,1,1-1.828,1.835A1.836,1.836,0,0,1,97.521,260.7Zm0,10.034a1.506,1.506,0,1,1-1.506,1.506A1.511,1.511,0,0,1,97.521,270.735Zm0,10.084a1.133,1.133,0,1,1-1.126,1.127A1.132,1.132,0,0,1,97.521,280.819Zm0,10.11a.721.721,0,1,1-.728.721A.726.726,0,0,1,97.521,290.93Zm0,10.109a.323.323,0,1,1,0,.646.313.313,0,0,1-.316-.317A.317.317,0,0,1,97.521,301.039Zm9.7-129.768a3.906,3.906,0,1,1-3.9,3.91A3.9,3.9,0,0,1,107.225,171.27Zm0,9.794a3.824,3.824,0,1,1-3.814,3.821A3.824,3.824,0,0,1,107.225,181.064Zm0,9.831a3.688,3.688,0,1,1-3.682,3.695A3.7,3.7,0,0,1,107.225,190.9Zm0,9.869a3.53,3.53,0,1,1-3.523,3.53A3.541,3.541,0,0,1,107.225,200.764Zm0,9.9A3.337,3.337,0,1,1,103.9,214,3.328,3.328,0,0,1,107.225,210.665Zm0,9.927a3.125,3.125,0,1,1-3.119,3.112A3.117,3.117,0,0,1,107.225,220.592Zm0,9.945a2.879,2.879,0,1,1-2.878,2.885A2.88,2.88,0,0,1,107.225,230.537Zm0,9.971a2.613,2.613,0,1,1-2.606,2.606A2.612,2.612,0,0,1,107.225,240.507Zm0,10.034a2.29,2.29,0,1,1-2.284,2.29A2.289,2.289,0,0,1,107.225,250.541Zm0,10a2,2,0,1,1-1.986,2A2,2,0,0,1,107.225,260.537Zm0,10.034a1.673,1.673,0,1,1-1.664,1.67A1.669,1.669,0,0,1,107.225,270.571Zm0,10.085a1.29,1.29,0,1,1-1.284,1.29A1.3,1.3,0,0,1,107.225,280.656Zm0,10.084a.909.909,0,0,1,.918.911.914.914,0,1,1-.918-.911Zm0,10.11a.517.517,0,0,1,.519.519.516.516,0,0,1-1.031,0A.516.516,0,0,1,107.225,300.849Zm.063,10.218a.059.059,0,0,1-.063.057.06.06,0,0,1-.056-.057c0-.019.031-.057.056-.057A.068.068,0,0,1,107.289,311.067Zm9.654-149.742a4.144,4.144,0,1,1-4.15,4.138A4.143,4.143,0,0,1,116.943,161.325Zm0,9.787a4.065,4.065,0,1,1-4.068,4.068A4.067,4.067,0,0,1,116.943,171.112Zm0,9.78a3.989,3.989,0,1,1-3.986,3.993A3.984,3.984,0,0,1,116.943,180.893Zm0,9.851a3.847,3.847,0,1,1-3.853,3.846A3.839,3.839,0,0,1,116.943,190.744Zm0,9.869a3.685,3.685,0,1,1-3.694,3.682A3.681,3.681,0,0,1,116.943,200.613Zm0,9.894a3.5,3.5,0,1,1-3.5,3.493A3.5,3.5,0,0,1,116.943,210.507Zm0,9.945a3.255,3.255,0,1,1-3.264,3.251A3.249,3.249,0,0,1,116.943,220.452Zm0,9.945a3.018,3.018,0,1,1-3.023,3.024A3.02,3.02,0,0,1,116.943,230.4Zm0,9.984a2.742,2.742,0,1,1-2.758,2.733A2.739,2.739,0,0,1,116.943,240.381Zm0,10a2.448,2.448,0,1,1-2.46,2.455A2.452,2.452,0,0,1,116.943,250.377Zm0,10.04a2.123,2.123,0,1,1-2.132,2.12A2.12,2.12,0,0,1,116.943,260.417Zm0,10.046a1.781,1.781,0,1,1-1.783,1.778A1.769,1.769,0,0,1,116.943,270.463Zm0,10.059a1.427,1.427,0,1,1-1.43,1.424A1.43,1.43,0,0,1,116.943,280.522Zm0,10.11a1.022,1.022,0,1,1-1.031,1.018A1.022,1.022,0,0,1,116.943,290.632Zm0,10.109a.608.608,0,0,1,.608.627.618.618,0,0,1-.608.62.63.63,0,0,1-.626-.62A.619.619,0,0,1,116.943,300.741Zm0,10.142a.186.186,0,0,1,.177.183.182.182,0,0,1-.177.183.19.19,0,0,1-.2-.183A.194.194,0,0,1,116.943,310.883Zm9.7-149.659a4.251,4.251,0,1,1-4.251,4.239A4.238,4.238,0,0,1,126.641,161.224Zm0,9.743a4.207,4.207,0,1,1-4.2,4.213A4.21,4.21,0,0,1,126.641,170.967Zm0,9.806a4.119,4.119,0,1,1-4.118,4.112A4.114,4.114,0,0,1,126.641,180.773Zm0,9.832a3.989,3.989,0,1,1-3.985,3.985A3.985,3.985,0,0,1,126.641,190.6Zm0,9.869a3.825,3.825,0,1,1-3.821,3.821A3.818,3.818,0,0,1,126.641,200.473Zm0,9.894A3.631,3.631,0,1,1,123.01,214,3.641,3.641,0,0,1,126.641,210.368Zm0,9.984a3.366,3.366,0,1,1-3.359,3.352A3.362,3.362,0,0,1,126.641,220.351Zm0,9.945a3.119,3.119,0,1,1-3.118,3.125A3.128,3.128,0,0,1,126.641,230.3Zm0,9.964a2.856,2.856,0,1,1-2.853,2.853A2.867,2.867,0,0,1,126.641,240.261Zm0,10.015a2.559,2.559,0,1,1-2.556,2.556A2.557,2.557,0,0,1,126.641,250.276Zm0,10.021a2.24,2.24,0,1,1-2.226,2.24A2.244,2.244,0,0,1,126.641,260.3Zm0,10.059a1.885,1.885,0,1,1-1.885,1.885A1.886,1.886,0,0,1,126.641,270.356Zm0,10.059a1.531,1.531,0,1,1-1.537,1.532A1.533,1.533,0,0,1,126.641,280.414Zm0,10.11a1.132,1.132,0,1,1-1.125,1.126A1.13,1.13,0,0,1,126.641,290.524Zm0,10.135a.706.706,0,0,1,.7.709.7.7,0,1,1-.7-.709Zm0,10.142a.269.269,0,1,1-.265.266A.263.263,0,0,1,126.641,310.8Zm9.705-149.72a4.392,4.392,0,1,1-4.385,4.381A4.389,4.389,0,0,1,136.346,161.081Zm0,9.784a4.311,4.311,0,1,1-4.309,4.315A4.31,4.31,0,0,1,136.346,170.865Zm0,9.819a4.194,4.194,0,1,1-4.194,4.2A4.191,4.191,0,0,1,136.346,180.684Zm0,9.838a4.065,4.065,0,1,1-4.062,4.068A4.068,4.068,0,0,1,136.346,190.522Zm0,9.9a3.878,3.878,0,1,1-3.872,3.871A3.877,3.877,0,0,1,136.346,200.423Zm0,9.888A3.691,3.691,0,1,1,132.657,214,3.688,3.688,0,0,1,136.346,210.311Zm0,9.926a3.473,3.473,0,1,1-3.467,3.467A3.473,3.473,0,0,1,136.346,220.237Zm0,9.97a3.208,3.208,0,1,1-3.2,3.214A3.213,3.213,0,0,1,136.346,230.208Zm0,9.984a2.935,2.935,0,1,1-2.929,2.922A2.926,2.926,0,0,1,136.346,240.191Zm0,10a2.638,2.638,0,1,1-2.632,2.644A2.639,2.639,0,0,1,136.346,250.187Zm0,10.059a2.29,2.29,0,1,1-2.284,2.29A2.29,2.29,0,0,1,136.346,260.246Zm0,10.059a1.936,1.936,0,1,1-1.936,1.936A1.933,1.933,0,0,1,136.346,270.3Zm0,10.059a1.582,1.582,0,1,1-1.588,1.582A1.585,1.585,0,0,1,136.346,280.364Zm0,10.11a1.181,1.181,0,0,1,1.189,1.176,1.187,1.187,0,1,1-1.189-1.176Zm0,10.084a.81.81,0,1,1-.8.81A.8.8,0,0,1,136.346,300.558Zm0,10.161a.351.351,0,0,1,0,.7.351.351,0,0,1,0-.7ZM146.051,161a4.47,4.47,0,1,1-4.466,4.46A4.461,4.461,0,0,1,146.051,161Zm0,9.781a4.394,4.394,0,1,1-4.384,4.4A4.39,4.39,0,0,1,146.051,170.783Zm0,9.85a4.248,4.248,0,1,1-4.246,4.252A4.253,4.253,0,0,1,146.051,180.634Zm0,9.831a4.119,4.119,0,1,1-4.113,4.125A4.12,4.12,0,0,1,146.051,190.465Zm0,9.869a3.961,3.961,0,1,1-3.954,3.96A3.963,3.963,0,0,1,146.051,200.334Zm0,9.92A3.745,3.745,0,1,1,142.312,214,3.75,3.75,0,0,1,146.051,210.254Zm0,9.933a3.524,3.524,0,1,1-3.518,3.517A3.52,3.52,0,0,1,146.051,220.187Zm0,9.97a3.258,3.258,0,1,1-3.251,3.264A3.255,3.255,0,0,1,146.051,230.157Zm0,9.984a2.986,2.986,0,1,1-2.98,2.973A2.986,2.986,0,0,1,146.051,240.141Zm0,10.021a2.667,2.667,0,1,1-2.657,2.67A2.661,2.661,0,0,1,146.051,250.161Zm0,10.028a2.344,2.344,0,1,1-2.334,2.347A2.346,2.346,0,0,1,146.051,260.189Zm0,10.065a1.989,1.989,0,1,1-1.986,1.986A1.988,1.988,0,0,1,146.051,270.255Zm0,10.078a1.616,1.616,0,1,1-1.607,1.613A1.617,1.617,0,0,1,146.051,280.333Zm0,10.091a1.233,1.233,0,1,1-1.234,1.227A1.227,1.227,0,0,1,146.051,290.423Zm0,10.11a.829.829,0,1,1,0,1.658.829.829,0,1,1,0-1.658Zm0,10.161a.373.373,0,1,1-.374.373A.377.377,0,0,1,146.051,310.694ZM155.761,161a4.47,4.47,0,1,1-4.466,4.46A4.466,4.466,0,0,1,155.761,161Zm0,9.781a4.394,4.394,0,1,1-4.39,4.4A4.39,4.39,0,0,1,155.761,170.783Zm0,9.812a4.283,4.283,0,1,1-4.276,4.29A4.292,4.292,0,0,1,155.761,180.6Zm0,9.857a4.144,4.144,0,1,1-4.143,4.138A4.142,4.142,0,0,1,155.761,190.452Zm0,9.863a3.983,3.983,0,1,1-3.985,3.979A3.98,3.98,0,0,1,155.761,200.315Zm0,9.939A3.745,3.745,0,1,1,152.023,214,3.749,3.749,0,0,1,155.761,210.254Zm0,9.933a3.524,3.524,0,1,1-3.523,3.517A3.525,3.525,0,0,1,155.761,220.187Zm0,9.945a3.28,3.28,0,1,1-3.283,3.29A3.282,3.282,0,0,1,155.761,230.132Zm0,10.009a2.986,2.986,0,1,1-2.986,2.973A2.991,2.991,0,0,1,155.761,240.141Zm0,10a2.689,2.689,0,1,1-2.695,2.7A2.7,2.7,0,0,1,155.761,250.136Zm0,10.034a2.366,2.366,0,1,1-2.366,2.366A2.364,2.364,0,0,1,155.761,260.17Zm0,10.046a2.022,2.022,0,1,1-2.018,2.025A2.026,2.026,0,0,1,155.761,270.216Zm0,10.06a1.673,1.673,0,1,1-1.664,1.67A1.672,1.672,0,0,1,155.761,280.276Zm0,10.148a1.233,1.233,0,1,1-1.24,1.227A1.231,1.231,0,0,1,155.761,290.423Zm0,10.11a.829.829,0,1,1-.835.835A.831.831,0,0,1,155.761,300.533Zm0,10.161a.373.373,0,1,1,0,.746.373.373,0,0,1,0-.746Zm9.711-149.666a4.441,4.441,0,1,1-4.448,4.435A4.436,4.436,0,0,1,165.472,161.028Zm0,9.787a4.359,4.359,0,1,1-4.359,4.365A4.36,4.36,0,0,1,165.472,170.815Zm0,9.819a4.248,4.248,0,1,1-4.258,4.252A4.246,4.246,0,0,1,165.472,180.634Zm0,9.831a4.119,4.119,0,1,1-4.125,4.125A4.124,4.124,0,0,1,165.472,190.465Zm0,9.9a3.932,3.932,0,1,1-3.936,3.928A3.937,3.937,0,0,1,165.472,200.366Zm0,9.926A3.714,3.714,0,1,1,161.752,214,3.708,3.708,0,0,1,165.472,210.292Zm0,9.9a3.524,3.524,0,1,1-3.531,3.517A3.514,3.514,0,0,1,165.472,220.187Zm0,9.97a3.258,3.258,0,1,1-3.264,3.264A3.262,3.262,0,0,1,165.472,230.157Zm0,9.984a2.986,2.986,0,1,1-2.993,2.973A2.988,2.988,0,0,1,165.472,240.141Zm0,10.021a2.667,2.667,0,1,1-2.67,2.67A2.669,2.669,0,0,1,165.472,250.161Zm0,10.028a2.344,2.344,0,1,1-2.341,2.347A2.344,2.344,0,0,1,165.472,260.189Zm0,10.065a1.989,1.989,0,1,1-2,1.986A1.986,1.986,0,0,1,165.472,270.255Zm0,10.078a1.616,1.616,0,1,1-1.619,1.613A1.621,1.621,0,0,1,165.472,280.333Zm0,10.091a1.233,1.233,0,1,1-1.24,1.227A1.226,1.226,0,0,1,165.472,290.423Zm0,10.11a.829.829,0,1,1-.841.835A.829.829,0,0,1,165.472,300.533Zm0,10.161a.373.373,0,0,1,0,.746.373.373,0,1,1,0-.746Zm9.7-149.587a4.367,4.367,0,1,1-4.366,4.356A4.361,4.361,0,0,1,175.177,161.107Zm0,9.759a4.311,4.311,0,1,1-4.308,4.315A4.314,4.314,0,0,1,175.177,170.865Zm0,9.819a4.194,4.194,0,1,1-4.207,4.2A4.19,4.19,0,0,1,175.177,180.684Zm0,9.838a4.065,4.065,0,1,1-4.068,4.068A4.072,4.072,0,0,1,175.177,190.522Zm0,9.9a3.878,3.878,0,1,1-3.878,3.871A3.875,3.875,0,0,1,175.177,200.423Zm0,9.888A3.691,3.691,0,1,1,171.489,214,3.683,3.683,0,0,1,175.177,210.311Zm0,9.951a3.448,3.448,0,1,1-3.448,3.441A3.441,3.441,0,0,1,175.177,220.263Zm0,9.945a3.208,3.208,0,1,1-3.2,3.214A3.2,3.2,0,0,1,175.177,230.208Zm0,9.984a2.935,2.935,0,1,1-2.935,2.922A2.925,2.925,0,0,1,175.177,240.191Zm0,10a2.638,2.638,0,1,1-2.638,2.644A2.629,2.629,0,0,1,175.177,250.187Zm0,10.059a2.29,2.29,0,1,1-2.29,2.29A2.285,2.285,0,0,1,175.177,260.246Zm0,10.059a1.936,1.936,0,1,1-1.936,1.936A1.932,1.932,0,0,1,175.177,270.3Zm0,10.059a1.582,1.582,0,1,1-1.594,1.582A1.582,1.582,0,0,1,175.177,280.364Zm0,10.11a1.179,1.179,0,0,1,1.183,1.176,1.183,1.183,0,1,1-2.366,0A1.176,1.176,0,0,1,175.177,290.474Zm0,10.135a.753.753,0,1,1-.753.759A.76.76,0,0,1,175.177,300.609Zm0,10.135a.322.322,0,0,1,.316.323.32.32,0,1,1-.639,0A.324.324,0,0,1,175.177,310.744Zm9.7-149.52a4.251,4.251,0,1,1-4.258,4.239A4.241,4.241,0,0,1,184.882,161.224Zm0,9.743a4.207,4.207,0,1,1-4.2,4.213A4.2,4.2,0,0,1,184.882,170.967Zm0,9.825a4.09,4.09,0,1,1-4.094,4.094A4.092,4.092,0,0,1,184.882,180.792Zm0,9.813a3.989,3.989,0,1,1-3.979,3.985A3.985,3.985,0,0,1,184.882,190.6Zm0,9.894a3.8,3.8,0,1,1-3.8,3.8A3.8,3.8,0,0,1,184.882,200.5Zm0,9.9A3.609,3.609,0,1,1,181.275,214,3.608,3.608,0,0,1,184.882,210.394Zm0,9.958a3.366,3.366,0,1,1-3.366,3.352A3.361,3.361,0,0,1,184.882,220.351Zm0,9.945a3.119,3.119,0,1,1-3.125,3.125A3.124,3.124,0,0,1,184.882,230.3Zm0,10a2.828,2.828,0,1,1-2.834,2.815A2.82,2.82,0,0,1,184.882,240.3Zm0,9.977a2.559,2.559,0,1,1-2.563,2.556A2.561,2.561,0,0,1,184.882,250.276Zm0,10.059a2.2,2.2,0,1,1-2.214,2.2A2.205,2.205,0,0,1,184.882,260.334Zm0,10.021A1.885,1.885,0,1,1,183,272.241,1.882,1.882,0,0,1,184.882,270.356Zm0,10.1a1.506,1.506,0,1,1-1.506,1.493A1.5,1.5,0,0,1,184.882,280.453Zm0,10.072a1.132,1.132,0,1,1-1.133,1.126A1.125,1.125,0,0,1,184.882,290.524Zm0,10.135a.7.7,0,0,1,.7.709.7.7,0,0,1-1.4,0A.706.706,0,0,1,184.882,300.659Zm0,10.142a.269.269,0,1,1-.266.266A.264.264,0,0,1,184.882,310.8Zm9.7-149.453a4.123,4.123,0,1,1-4.118,4.115A4.115,4.115,0,0,1,194.586,161.347Zm0,9.765a4.065,4.065,0,1,1-4.067,4.068A4.069,4.069,0,0,1,194.586,171.112Zm0,9.78a3.989,3.989,0,1,1-3.979,3.993A3.991,3.991,0,0,1,194.586,180.893Zm0,9.876a3.821,3.821,0,1,1-3.821,3.821A3.817,3.817,0,0,1,194.586,190.769Zm0,9.863a3.66,3.66,0,1,1-3.657,3.663A3.66,3.66,0,0,1,194.586,200.632Zm0,9.9A3.47,3.47,0,1,1,191.113,214,3.47,3.47,0,0,1,194.586,210.532Zm0,9.92a3.255,3.255,0,1,1-3.258,3.251A3.256,3.256,0,0,1,194.586,220.452Zm0,9.971a2.986,2.986,0,1,1-2.986,3A3,3,0,0,1,194.586,230.423Zm0,9.958a2.742,2.742,0,1,1-2.745,2.733A2.74,2.74,0,0,1,194.586,240.381Zm0,10a2.448,2.448,0,1,1-2.448,2.455A2.448,2.448,0,0,1,194.586,250.377Zm0,10.04a2.123,2.123,0,1,1-2.132,2.12A2.121,2.121,0,0,1,194.586,260.417Zm0,10.046a1.781,1.781,0,1,1-1.771,1.778A1.775,1.775,0,0,1,194.586,270.463Zm0,10.091a1.39,1.39,0,0,1,1.4,1.392,1.4,1.4,0,1,1-1.4-1.392Zm0,10.078a1.022,1.022,0,1,1-1.025,1.018A1.023,1.023,0,0,1,194.586,290.632Zm0,10.141a.589.589,0,1,1,0,1.177.589.589,0,0,1,0-1.177Zm0,10.11a.189.189,0,0,1,.19.183.19.19,0,0,1-.379,0A.188.188,0,0,1,194.586,310.883Zm9.7-149.349a3.935,3.935,0,1,1-3.928,3.928A3.929,3.929,0,0,1,204.29,161.534Zm0,9.768a3.875,3.875,0,1,1-3.872,3.878A3.88,3.88,0,0,1,204.29,171.3Zm0,9.787a3.8,3.8,0,1,1-3.789,3.8A3.791,3.791,0,0,1,204.29,181.089Zm0,9.844a3.657,3.657,0,1,1-3.663,3.657A3.657,3.657,0,0,1,204.29,190.933Zm0,9.87a3.5,3.5,0,1,1-3.5,3.492A3.49,3.49,0,0,1,204.29,200.8Zm0,9.882A3.315,3.315,0,1,1,200.982,214,3.318,3.318,0,0,1,204.29,210.684Zm0,9.933A3.094,3.094,0,1,1,201.2,223.7,3.093,3.093,0,0,1,204.29,220.617Zm0,9.951a2.853,2.853,0,1,1-2.847,2.853A2.852,2.852,0,0,1,204.29,230.568Zm0,9.964a2.587,2.587,0,1,1-2.581,2.581A2.585,2.585,0,0,1,204.29,240.533Zm0,10.008a2.29,2.29,0,1,1-2.283,2.29A2.29,2.29,0,0,1,204.29,250.541Zm0,10.034a1.961,1.961,0,1,1-1.961,1.962A1.957,1.957,0,0,1,204.29,260.575Zm0,10.06a1.607,1.607,0,1,1-1.613,1.607A1.616,1.616,0,0,1,204.29,270.634Zm0,10.059a1.259,1.259,0,0,1,1.271,1.253,1.268,1.268,0,1,1-2.536,0A1.258,1.258,0,0,1,204.29,280.693Zm0,10.072a.892.892,0,1,1-.886.886A.889.889,0,0,1,204.29,290.765Zm0,10.116a.484.484,0,1,1-.481.487A.479.479,0,0,1,204.29,300.881Zm.056,10.186a.054.054,0,1,1-.107,0c0-.019.025-.057.051-.057A.066.066,0,0,1,204.347,311.067ZM214,161.755a3.714,3.714,0,1,1-3.72,3.708A3.723,3.723,0,0,1,214,161.755Zm0,9.737a3.685,3.685,0,1,1-3.694,3.688A3.692,3.692,0,0,1,214,171.492Zm0,9.774a3.612,3.612,0,1,1-3.606,3.619A3.611,3.611,0,0,1,214,181.266Zm0,9.856a3.467,3.467,0,1,1-3.474,3.467A3.464,3.464,0,0,1,214,191.123Zm0,9.857a3.315,3.315,0,1,1-3.309,3.315A3.312,3.312,0,0,1,214,200.979Zm0,9.9A3.122,3.122,0,1,1,210.876,214,3.127,3.127,0,0,1,214,210.88Zm0,9.888a2.942,2.942,0,1,1-2.936,2.935A2.946,2.946,0,0,1,214,220.769Zm0,9.983a2.667,2.667,0,1,1-2.664,2.67A2.675,2.675,0,0,1,214,230.752Zm0,9.945a2.423,2.423,0,1,1-2.424,2.416A2.426,2.426,0,0,1,214,240.7Zm0,10.009a2.126,2.126,0,1,1-2.126,2.125A2.116,2.116,0,0,1,214,250.706Zm0,10.021a1.806,1.806,0,1,1-1.809,1.809A1.808,1.808,0,0,1,214,260.727Zm0,10.034a1.484,1.484,0,1,1-1.488,1.481A1.479,1.479,0,0,1,214,270.76Zm0,10.085a1.1,1.1,0,1,1-1.107,1.1A1.1,1.1,0,0,1,214,280.845Zm0,10.084a.721.721,0,1,1,0,1.442.721.721,0,1,1,0-1.442Zm0,10.109a.323.323,0,1,1-.329.329A.327.327,0,0,1,214,301.039Zm9.7-129.307a3.445,3.445,0,1,1-3.448,3.448A3.444,3.444,0,0,1,223.706,171.732Zm0,9.787a3.366,3.366,0,1,1-3.365,3.366A3.364,3.364,0,0,1,223.706,181.519Zm0,9.819a3.258,3.258,0,1,1-3.258,3.252A3.252,3.252,0,0,1,223.706,191.338Zm0,9.857a3.1,3.1,0,1,1-3.094,3.1A3.1,3.1,0,0,1,223.706,201.194Zm0,9.876A2.932,2.932,0,1,1,220.777,214,2.937,2.937,0,0,1,223.706,211.07Zm0,9.92a2.717,2.717,0,1,1-2.714,2.714A2.715,2.715,0,0,1,223.706,220.99Zm0,9.951a2.48,2.48,0,1,1-2.473,2.48A2.48,2.48,0,0,1,223.706,230.941Zm0,9.977a2.2,2.2,0,1,1-2.208,2.195A2.2,2.2,0,0,1,223.706,240.919Zm0,9.977a1.936,1.936,0,1,1-1.936,1.936A1.937,1.937,0,0,1,223.706,250.9Zm0,10.021a1.62,1.62,0,1,1-1.619,1.62A1.627,1.627,0,0,1,223.706,260.917Zm0,10.034a1.294,1.294,0,1,1-1.3,1.291A1.289,1.289,0,0,1,223.706,270.95Zm0,10.059a.94.94,0,1,1-.942.937A.936.936,0,0,1,223.706,281.009Zm0,10.11a.538.538,0,1,1-.538.531A.536.536,0,0,1,223.706,291.119Zm.165,10.249a.166.166,0,0,1-.165.152.16.16,0,0,1-.158-.152.154.154,0,0,1,.158-.165A.16.16,0,0,1,223.87,301.368Zm9.541-139.157a3.258,3.258,0,1,1-3.252,3.251A3.26,3.26,0,0,1,233.411,162.211Zm0,9.768a3.2,3.2,0,1,1-3.2,3.2A3.2,3.2,0,0,1,233.411,171.979Zm0,9.78a3.126,3.126,0,1,1-3.12,3.126A3.128,3.128,0,0,1,233.411,181.759Zm0,9.857a2.98,2.98,0,1,1-2.986,2.974A2.977,2.977,0,0,1,233.411,191.616Zm0,9.831a2.853,2.853,0,1,1-2.854,2.847A2.85,2.85,0,0,1,233.411,201.448Zm0,9.882a2.667,2.667,0,1,1-2.664,2.67A2.669,2.669,0,0,1,233.411,211.33Zm0,9.907a2.474,2.474,0,1,1-2.474,2.467A2.469,2.469,0,0,1,233.411,221.237Zm0,9.919a2.259,2.259,0,1,1-2.259,2.265A2.261,2.261,0,0,1,233.411,231.156Zm0,9.971a1.993,1.993,0,1,1-1.987,1.986A2,2,0,0,1,233.411,241.127Zm0,10.009a1.7,1.7,0,1,1-1.7,1.7A1.7,1.7,0,0,1,233.411,251.136Zm0,10a1.395,1.395,0,1,1-1.4,1.4A1.4,1.4,0,0,1,233.411,261.138Zm0,10.027a1.075,1.075,0,1,1,0,2.151,1.075,1.075,0,0,1,0-2.151Zm0,10.085a.7.7,0,1,1-.7.7A.7.7,0,0,1,233.411,281.25Zm0,10.084a.319.319,0,0,1,.323.316.326.326,0,0,1-.323.329.321.321,0,0,1-.317-.329A.314.314,0,0,1,233.411,291.334Zm9.711-119.1a2.939,2.939,0,1,1-2.936,2.942A2.932,2.932,0,0,1,243.122,172.238Zm0,9.819a2.828,2.828,0,1,1-2.828,2.828A2.818,2.818,0,0,1,243.122,182.057Zm0,9.793a2.743,2.743,0,1,1-2.746,2.74A2.737,2.737,0,0,1,243.122,191.85Zm0,9.851a2.588,2.588,0,1,1-2.581,2.593A2.585,2.585,0,0,1,243.122,201.7Zm0,9.876A2.423,2.423,0,1,1,240.7,214,2.418,2.418,0,0,1,243.122,211.577Zm0,9.919a2.211,2.211,0,1,1-2.214,2.208A2.208,2.208,0,0,1,243.122,221.5Zm0,9.933a1.99,1.99,0,1,1-2,1.993A1.993,1.993,0,0,1,243.122,231.429Zm0,9.977a1.721,1.721,0,1,1-1.721,1.708A1.72,1.72,0,0,1,243.122,241.406Zm0,9.97a1.455,1.455,0,1,1-1.456,1.455A1.458,1.458,0,0,1,243.122,251.376Zm0,10.009a1.152,1.152,0,0,1,0,2.3,1.152,1.152,0,1,1,0-2.3Zm0,10.021a.835.835,0,1,1-.835.835A.835.835,0,0,1,243.122,271.406Zm0,10.06a.481.481,0,0,1,.481.481.491.491,0,0,1-.481.493.5.5,0,0,1-.495-.493A.488.488,0,0,1,243.122,281.465Zm.082,10.185a.083.083,0,1,1-.165,0,.083.083,0,0,1,.165,0Zm9.616-128.844a2.663,2.663,0,1,1-2.664,2.657A2.667,2.667,0,0,1,252.82,162.806Zm0,9.743a2.632,2.632,0,1,1-2.638,2.632A2.631,2.631,0,0,1,252.82,172.549Zm0,9.78a2.556,2.556,0,1,1-2.55,2.556A2.563,2.563,0,0,1,252.82,182.329Zm0,9.819a2.449,2.449,0,1,1-2.449,2.442A2.443,2.443,0,0,1,252.82,192.147Zm0,9.87a2.284,2.284,0,1,1-2.285,2.277A2.288,2.288,0,0,1,252.82,202.017Zm0,9.869A2.119,2.119,0,1,1,250.7,214,2.113,2.113,0,0,1,252.82,211.886Zm0,9.882a1.939,1.939,0,1,1-1.936,1.936A1.928,1.928,0,0,1,252.82,221.768Zm0,9.952a1.7,1.7,0,1,1-1.7,1.7A1.707,1.707,0,0,1,252.82,231.72Zm0,9.939a1.455,1.455,0,1,1-1.456,1.455A1.455,1.455,0,0,1,252.82,241.659Zm0,9.983a1.186,1.186,0,1,1-1.177,1.189A1.179,1.179,0,0,1,252.82,251.642Zm0,10.009a.889.889,0,1,1-.88.886A.882.882,0,0,1,252.82,261.651Zm0,10.021a.569.569,0,1,1-.563.57A.568.568,0,0,1,252.82,271.671Zm0,10.06a.218.218,0,0,1,.221.215.224.224,0,0,1-.221.221.218.218,0,0,1-.209-.221A.212.212,0,0,1,252.82,281.731Zm9.711-118.609a2.347,2.347,0,1,1-2.341,2.34A2.352,2.352,0,0,1,262.531,163.122Zm0,9.768a2.284,2.284,0,1,1-2.29,2.29A2.29,2.29,0,0,1,262.531,172.89Zm0,9.787a2.2,2.2,0,1,1-2.208,2.208A2.21,2.21,0,0,1,262.531,182.677Zm0,9.781a2.129,2.129,0,1,1-2.125,2.132A2.136,2.136,0,0,1,262.531,192.458Zm0,9.869a1.965,1.965,0,1,1-1.968,1.967A1.973,1.973,0,0,1,262.531,202.327Zm0,9.876a1.8,1.8,0,1,1-1.8,1.8A1.8,1.8,0,0,1,262.531,212.2Zm0,9.894a1.613,1.613,0,1,1-1.613,1.606A1.606,1.606,0,0,1,262.531,222.1Zm0,9.919a1.4,1.4,0,1,1-1.4,1.4A1.4,1.4,0,0,1,262.531,232.017Zm0,9.946a1.158,1.158,0,1,1-1.157,1.151A1.155,1.155,0,0,1,262.531,241.963Zm0,9.989a.875.875,0,0,1,.885.879.889.889,0,1,1-.885-.879Zm0,9.99a.595.595,0,0,1,0,1.189.595.595,0,0,1,0-1.189Zm0,10.027a.279.279,0,0,1,.272.272.274.274,0,0,1-.272.272.264.264,0,0,1-.265-.272A.268.268,0,0,1,262.531,271.969Zm9.711-108.5a2,2,0,1,1-1.993,1.993A2,2,0,0,1,272.241,163.47Zm0,9.775a1.936,1.936,0,1,1-1.942,1.936A1.935,1.935,0,0,1,272.241,173.244Zm0,9.761a1.882,1.882,0,1,1-1.885,1.879A1.879,1.879,0,0,1,272.241,183.006Zm0,9.813a1.768,1.768,0,0,1,1.771,1.771,1.778,1.778,0,1,1-1.771-1.771Zm0,9.862a1.613,1.613,0,1,1-1.62,1.613A1.616,1.616,0,0,1,272.241,202.681Zm0,9.845A1.477,1.477,0,1,1,270.755,214,1.481,1.481,0,0,1,272.241,212.526Zm0,9.888a1.3,1.3,0,1,1-1.3,1.29A1.3,1.3,0,0,1,272.241,222.413Zm0,9.92a1.082,1.082,0,1,1-1.082,1.088A1.076,1.076,0,0,1,272.241,232.334Zm0,9.958a.829.829,0,1,1,0,1.657.829.829,0,1,1,0-1.657Zm0,9.97a.565.565,0,0,1,.562.57.562.562,0,1,1-1.125,0A.562.562,0,0,1,272.241,252.262Zm0,10a.268.268,0,0,1,.266.272.269.269,0,0,1-.538,0A.27.27,0,0,1,272.241,262.264Zm9.705-98.408a1.613,1.613,0,1,1-1.62,1.606A1.618,1.618,0,0,1,281.947,163.856Zm0,9.73a1.588,1.588,0,1,1-1.594,1.594A1.594,1.594,0,0,1,281.947,173.586Zm0,9.793a1.506,1.506,0,1,1-1.506,1.506A1.509,1.509,0,0,1,281.947,183.379Zm0,9.806a1.4,1.4,0,1,1-1.4,1.4A1.4,1.4,0,0,1,281.947,193.185Zm0,9.85a1.262,1.262,0,1,1-1.266,1.259A1.254,1.254,0,0,1,281.947,203.036Zm0,9.863a1.1,1.1,0,1,1-1.107,1.1A1.1,1.1,0,0,1,281.947,212.9Zm0,9.869a.93.93,0,0,1,.936.936.94.94,0,1,1-.936-.936Zm0,9.945a.7.7,0,1,1-.7.708A.7.7,0,0,1,281.947,232.713Zm0,9.926a.484.484,0,0,1,0,.968.484.484,0,1,1,0-.968Zm0,9.964a.229.229,0,0,1,.215.228.218.218,0,0,1-.215.215.213.213,0,0,1-.216-.215A.224.224,0,0,1,281.947,252.6ZM291.65,174a1.181,1.181,0,0,1,1.183,1.183,1.186,1.186,0,1,1-2.372,0A1.182,1.182,0,0,1,291.65,174Zm0,9.749a1.139,1.139,0,1,1-1.132,1.139A1.133,1.133,0,0,1,291.65,183.746Zm0,9.819a1.023,1.023,0,0,1,1.019,1.025,1.022,1.022,0,0,1-2.043,0A1.029,1.029,0,0,1,291.65,193.565Zm0,9.844a.886.886,0,1,1-.885.886A.884.884,0,0,1,291.65,203.409Zm0,9.87a.721.721,0,1,1-.727.721A.717.717,0,0,1,291.65,213.279Zm0,9.894a.538.538,0,0,1,0,1.075.538.538,0,0,1,0-1.075Zm0,9.92a.325.325,0,0,1,.323.329.319.319,0,0,1-.323.317.314.314,0,0,1-.322-.317A.321.321,0,0,1,291.65,233.093Zm.083,10.021a.086.086,0,0,1-.083.089c-.05,0-.075-.038-.075-.089s.025-.063.075-.063S291.733,243.076,291.733,243.114Zm9.622-68.693a.759.759,0,1,1-.753.759A.762.762,0,0,1,301.355,174.421Zm0,9.756a.7.7,0,1,1-.7.709A.7.7,0,0,1,301.355,184.176Zm0,9.819a.592.592,0,1,1,0,1.183.592.592,0,0,1,0-1.183Zm0,9.819a.478.478,0,0,1,.481.481.484.484,0,1,1-.481-.481Zm0,9.87a.328.328,0,0,1,.329.316.326.326,0,1,1-.652,0A.327.327,0,0,1,301.355,213.683Zm.164,10.02a.161.161,0,0,1-.322,0,.161.161,0,0,1,.322,0Zm9.547-58.608a.373.373,0,1,1-.379.367A.373.373,0,0,1,311.067,165.1Zm0,9.755a.326.326,0,0,1,.322.329.326.326,0,1,1-.322-.329Zm0,9.756a.284.284,0,0,1,.271.279.269.269,0,0,1-.271.266.261.261,0,0,1-.272-.266A.275.275,0,0,1,311.067,184.607Zm.183,9.983a.194.194,0,0,1-.183.19.191.191,0,0,1-.19-.19.187.187,0,0,1,.19-.19A.189.189,0,0,1,311.249,194.59Zm-.132,9.7a.05.05,0,0,1-.051.051c-.038,0-.057-.013-.057-.051a.052.052,0,0,1,.057-.051A.06.06,0,0,1,311.117,204.294Z" transform="translate(-6533.758 -13130.159)" fill="#fff" fill-rule="evenodd" opacity="0.19"/>
      <g id="Group_124913" data-name="Group 124913" transform="translate(-6595.253 -12897.988) rotate(-90)">
        <path id="Path_174437" data-name="Path 174437" d="M8.323,0,0,14.415H16.644Z" transform="translate(0 121.14)" fill="#fff"/>
        <path id="Path_174438" data-name="Path 174438" d="M8.323,0,0,14.415H16.644Z" transform="translate(0 96.998)" fill="#e2c140"/>
        <path id="Path_174439" data-name="Path 174439" d="M8.323,0,0,14.415H16.644Z" transform="translate(0 72.856)" fill="#ff2c9c"/>
        <path id="Path_174440" data-name="Path 174440" d="M4.829,0,0,8.363H9.656Z" transform="translate(3.494)" fill="#fdfdfd"/>
      </g>
      <path id="Dots" d="M20.326,97.32a1.983,1.983,0,1,1,1.982,2A1.993,1.993,0,0,1,20.326,97.32ZM0,97.32a1.993,1.993,0,0,1,1.983-2,2,2,0,0,1,0,4.008A1.993,1.993,0,0,1,0,97.32ZM20.326,73.478a1.983,1.983,0,1,1,1.982,2A1.993,1.993,0,0,1,20.326,73.478ZM0,73.478a1.993,1.993,0,0,1,1.983-2,2,2,0,0,1,0,4.008A1.993,1.993,0,0,1,0,73.478ZM20.326,49.635a1.983,1.983,0,1,1,1.982,2A1.993,1.993,0,0,1,20.326,49.635ZM0,49.635a1.993,1.993,0,0,1,1.983-2,2,2,0,0,1,0,4.008A1.993,1.993,0,0,1,0,49.635ZM20.326,25.792a1.983,1.983,0,1,1,1.982,2A1.993,1.993,0,0,1,20.326,25.792ZM0,25.792a1.993,1.993,0,0,1,1.983-2,2,2,0,0,1,0,4.008A1.993,1.993,0,0,1,0,25.792ZM20.326,2a1.983,1.983,0,1,1,3.965,0,1.983,1.983,0,1,1-3.965,0ZM0,2A1.993,1.993,0,0,1,1.983,0,1.993,1.993,0,0,1,3.965,2a1.994,1.994,0,0,1-1.982,2A1.993,1.993,0,0,1,0,2Z" transform="translate(-6860.785 -12961.763)" fill="#fff"/>
      <path id="Dots-2" data-name="Dots" d="M20.326,97.32a1.983,1.983,0,1,1,1.982,2A1.993,1.993,0,0,1,20.326,97.32ZM0,97.32a1.993,1.993,0,0,1,1.983-2,2,2,0,0,1,0,4.008A1.993,1.993,0,0,1,0,97.32ZM20.326,73.478a1.983,1.983,0,1,1,1.982,2A1.993,1.993,0,0,1,20.326,73.478ZM0,73.478a1.993,1.993,0,0,1,1.983-2,2,2,0,0,1,0,4.008A1.993,1.993,0,0,1,0,73.478ZM20.326,49.635a1.983,1.983,0,1,1,1.982,2A1.993,1.993,0,0,1,20.326,49.635ZM0,49.635a1.993,1.993,0,0,1,1.983-2,2,2,0,0,1,0,4.008A1.993,1.993,0,0,1,0,49.635ZM20.326,25.792a1.983,1.983,0,1,1,1.982,2A1.993,1.993,0,0,1,20.326,25.792ZM0,25.792a1.993,1.993,0,0,1,1.983-2,2,2,0,0,1,0,4.008A1.993,1.993,0,0,1,0,25.792ZM20.326,2a1.983,1.983,0,1,1,3.965,0,1.983,1.983,0,1,1-3.965,0ZM0,2A1.993,1.993,0,0,1,1.983,0,1.993,1.993,0,0,1,3.965,2a1.994,1.994,0,0,1-1.982,2A1.993,1.993,0,0,1,0,2Z" transform="translate(-7474.176 -13036.073)" fill="#fff"/>
      <path id="Trazado_184624" data-name="Trazado 184624" d="M-7843.318-11132v72.13h92.6" transform="translate(292 -1834.437)" fill="none" stroke="#e2c140" stroke-width="4"/>
    </g>
  </g>
</svg>
