<svg xmlns="http://www.w3.org/2000/svg" width="54.058" height="49.434" viewBox="0 0 54.058 49.434">
  <g id="Grupo_161495" data-name="Grupo 161495" transform="translate(-1242.895 -934.181)">
    <path id="Trazado_213807" data-name="Trazado 213807" d="M1290.573,1061.1c-.266-.052-.448-.076-.438-.46a7.527,7.527,0,0,0-11.473-6.617c-.037-.109-.061-.162-.073-.217a10.923,10.923,0,0,0-13.622-8.536,10.477,10.477,0,0,0-8.066,8.442c-.1.463-.22.7-.777.794a7.905,7.905,0,0,0-6.327,6.258.874.874,0,0,1-.81.833,7.144,7.144,0,0,0-5.743,5.259,7.564,7.564,0,0,0,1.982,7.794c2.064,2.088,4.706,2.284,7.428,2.1a.8.8,0,0,0,.721-.815.851.851,0,0,0-.614-.961,2.454,2.454,0,0,0-.7-.078,15.009,15.009,0,0,1-2.772-.155,5.613,5.613,0,0,1-4.451-4.921,5.731,5.731,0,0,1,2.938-5.808,6.845,6.845,0,0,1,2.665-.7c.782-.064,1.026-.35,1.092-1.127a8.679,8.679,0,0,1,.089-.942,6.1,6.1,0,0,1,5.867-4.989.957.957,0,0,0,1.081-.984c.026-.2.061-.39.089-.585a8.973,8.973,0,0,1,11.158-7.607,8.808,8.808,0,0,1,7.082,8.628c.026.489.107.921.6,1.113a1.079,1.079,0,0,0,1.213-.373,5.571,5.571,0,0,1,9.457,4.863c-.176,1.164.1,1.495,1.279,1.556a5.993,5.993,0,0,1,5.143,8.415,5.919,5.919,0,0,1-5.861,3.618q-15.878-.011-31.755,0a2.381,2.381,0,0,0-.822.068.933.933,0,0,0,.1,1.792,2.207,2.207,0,0,0,.471.034c10.783,0,21.565.02,32.348-.008a7.912,7.912,0,0,0,1.5-15.674Z" transform="translate(0 -93.186)" fill="#e2c140"/>
    <path id="Trazado_213808" data-name="Trazado 213808" d="M1452.927,954.412a10.116,10.116,0,1,0-.057-20.232,10.116,10.116,0,0,0,.057,20.232Zm.136-18.342a8.225,8.225,0,0,1-.015,16.446,8.224,8.224,0,1,1,.015-16.446Z" transform="translate(-168.248)" fill="#e2c140"/>
    <path id="Trazado_213809" data-name="Trazado 213809" d="M1491.2,966.934c.138,0,.276,0,.414,0a.629.629,0,0,1,.676.718.62.62,0,0,1-.658.679c-.374.015-.75,0-1.125,0v0c-.335,0-.671-.009-1.006,0a.947.947,0,0,0-1.023.917.909.909,0,0,0,.977.957c.684-.048,1.021.09,1,.866a.791.791,0,0,0,.87.789c.432.01.887-.207.868-.631a1.58,1.58,0,0,1,1.134-1.644.381.381,0,0,0,.088-.079,2.567,2.567,0,0,0,.619-2.826,2.662,2.662,0,0,0-2.73-1.664c-.684.013-.915-.194-.931-.835s.223-.891.882-.9,1.343.011,2.013-.011a.9.9,0,0,0,.938-.869.936.936,0,0,0-.87-1.007,1.32,1.32,0,0,0-.354-.007c-.5.069-.734-.058-.714-.641a.866.866,0,0,0-.862-1c-.546-.032-.9.3-1,.946a1.535,1.535,0,0,0-.014.413c.033.257-.071.373-.309.48a2.683,2.683,0,0,0-1.509,3.283A2.448,2.448,0,0,0,1491.2,966.934Z" transform="translate(-206.691 -21.523)" fill="#e2c140"/>
  </g>
</svg>
