<svg xmlns="http://www.w3.org/2000/svg" width="49.441" height="49.434" viewBox="0 0 49.441 49.434">
  <g id="Grupo_162576" data-name="Grupo 162576" transform="translate(-1253 -873.072)">
    <path id="Trazado_216871" data-name="Trazado 216871" d="M1546.777,1152.952c0-.293-.1-.386-.355-.443-.547-.124-1.086-.286-1.635-.4-.369-.076-.4-.208-.2-.51.315-.483.586-1,.9-1.482a.323.323,0,0,0-.066-.484q-1.922-1.9-3.821-3.821a.323.323,0,0,0-.486-.066c-.5.319-1.022.6-1.526.918-.249.155-.378.167-.451-.174-.123-.58-.307-1.147-.433-1.726-.052-.24-.15-.3-.382-.3-1.8.008-3.6.012-5.4,0-.27,0-.358.1-.412.333-.128.546-.285,1.086-.4,1.635-.071.331-.16.447-.494.222-.465-.313-.97-.565-1.441-.871a.37.37,0,0,0-.566.059q-1.876,1.91-3.785,3.788a.35.35,0,0,0-.057.526c.309.488.579,1,.9,1.483.2.308.1.4-.209.47-.563.126-1.12.28-1.681.417-.2.05-.317.118-.315.376.015,1.817.011,3.634,0,5.452,0,.212.056.3.276.352.595.131,1.178.312,1.772.445.3.068.324.179.171.422-.315.5-.6,1.025-.92,1.524a.349.349,0,0,0,.068.525q1.906,1.881,3.784,3.789c.207.211.341.19.562.048.486-.311,1-.584,1.485-.892.241-.152.364-.133.432.16.158.687.33,1.37.5,2.055h6.081c.09-.735.354-1.428.5-2.149.053-.252.2-.181.36-.088.523.313,1.054.613,1.57.936.19.119.308.14.486-.04q1.915-1.94,3.856-3.854a.3.3,0,0,0,.057-.448c-.323-.517-.622-1.049-.943-1.567-.148-.238-.141-.357.17-.424.579-.125,1.148-.3,1.726-.428a.347.347,0,0,0,.328-.412C1546.761,1156.523,1546.758,1154.737,1546.777,1152.952Zm-1.935,4.534c-.406.1-.8.228-1.214.3-.275.047-.369.2-.509.422a1.885,1.885,0,0,0,.257,2.492c.273.313.185.527-.1.792-.658.614-1.287,1.26-1.913,1.907-.173.179-.318.246-.522.073-.048-.041-.117-.058-.164-.1a1.922,1.922,0,0,0-2.539-.212c-.174.112-.3.191-.349.4-.1.439-.219.871-.322,1.308-.049.21-.132.32-.383.316q-1.471-.024-2.943,0c-.244,0-.355-.087-.391-.31-.01-.063-.03-.126-.035-.19a1.979,1.979,0,0,0-1.652-1.954.6.6,0,0,0-.526.047c-.379.241-.769.464-1.156.693-.083.049-.169.091-.27.145-.083-.072-.172-.139-.25-.217-.672-.67-1.334-1.35-2.017-2.009-.2-.188-.267-.342-.077-.562.041-.048.056-.118.1-.164a1.893,1.893,0,0,0,.207-2.5.648.648,0,0,0-.438-.375c-.454-.1-.9-.242-1.352-.344a.273.273,0,0,1-.254-.322c.009-1,.012-1.994,0-2.991,0-.224.078-.322.279-.358a2.026,2.026,0,0,1,.282-.061,1.952,1.952,0,0,0,1.923-1.69.5.5,0,0,0-.044-.444c-.246-.395-.469-.8-.718-1.2a.329.329,0,0,1,.043-.492q1.055-1.025,2.082-2.08c.164-.169.3-.209.488-.057.061.05.149.069.207.122a1.889,1.889,0,0,0,2.5.2c.181-.109.308-.2.357-.4.1-.405.219-.806.3-1.214.061-.307.16-.455.527-.441.915.036,1.833.027,2.749,0,.3-.008.439.1.476.379a1.3,1.3,0,0,0,.028.142c.353,1.415.354,1.411,1.7,1.966a.432.432,0,0,0,.44-.042c.4-.243.805-.467,1.2-.715a.328.328,0,0,1,.492.04q1.024,1.057,2.08,2.082c.172.167.207.3.057.488-.05.062-.075.145-.127.2a1.88,1.88,0,0,0-.227,2.457.751.751,0,0,0,.511.423c.407.088.807.21,1.215.294a.357.357,0,0,1,.335.423c-.015.965-.018,1.93,0,2.895A.362.362,0,0,1,1544.842,1157.486Z" transform="translate(-244.336 -244.283)" fill="#e2c140"/>
    <path id="Trazado_216872" data-name="Trazado 216872" d="M1268.395,1160.133q-7.428.02-14.857.008c-.176,0-.353-.012-.529-.018q0,10.184-.009,20.368c0,.331.065.4.4.4q7.77-.02,15.541-.009,0-10.105.022-20.211C1268.959,1160.2,1268.807,1160.132,1268.395,1160.133Zm-1.47,19.156q-5.934-.021-11.869,0c-.352,0-.46-.076-.459-.447q.019-8.348,0-16.695c0-.307.069-.4.392-.4q5.983.018,11.966,0c.352,0,.417.111.416.436-.012,2.782-.007,5.565-.007,8.347,0,2.766-.007,5.533.008,8.3C1267.375,1179.178,1267.3,1179.29,1266.925,1179.289Z" transform="translate(0 -258.38)" fill="#e2c140"/>
    <path id="Trazado_216873" data-name="Trazado 216873" d="M1410.676,889.4q-1.664.625-3.328,1.249a3.987,3.987,0,0,0-2.656,3.815c-.007,1.222.013,2.445-.011,3.667-.007.353.072.453.441.45,3.039-.017,6.079-.01,9.118-.01s6.079-.008,9.119.01c.391,0,.469-.114.462-.478-.023-1.174-.006-2.348-.009-3.522a3.977,3.977,0,0,0-2.728-3.956c-1.061-.408-2.128-.8-3.192-1.2-.555-.21-.645-.63-.224-1.064a4.232,4.232,0,0,0,.955-1.433.727.727,0,0,1,.542-.462,2.889,2.889,0,0,0,2.195-2.545,20.929,20.929,0,0,0-.063-4.957,7.162,7.162,0,0,0-14.093-.02,28.086,28.086,0,0,0-.11,4.382,3.1,3.1,0,0,0,2.365,3.174.457.457,0,0,1,.355.279,4.794,4.794,0,0,0,1.109,1.672A.563.563,0,0,1,1410.676,889.4Zm8.683,2.732c.1-.308.2-.434.524-.26a7.958,7.958,0,0,0,.76.3,2.379,2.379,0,0,1,1.58,2.311c.019.707-.011,1.415.012,2.122.01.323-.1.4-.41.4-2.524-.013-5.048-.007-7.572-.007-2.508,0-5.016-.007-7.524.008-.348,0-.484-.064-.465-.443.033-.641,0-1.286.01-1.929a2.455,2.455,0,0,1,1.8-2.545c.933-.344.933-.345,1.242.59.368,1.11.761,2.213,1.091,3.335.142.482.3.478.7.263.914-.5,1.866-.924,2.786-1.409a.663.663,0,0,1,.7-.007c1,.515,2.012.993,3.005,1.514.269.141.333.077.415-.174C1418.46,894.84,1418.924,893.492,1419.36,892.134Zm-6.732-2.593a5.273,5.273,0,0,0,3.25-.006l-1.625,2.711Zm4.787,1.408c.493.093.622.317.413.816-.3.708-.5,1.453-.752,2.18-.037.108-.011.276-.208.268-.46-.229-.922-.45-1.376-.689-.166-.087-.023-.2.025-.28.441-.746.9-1.48,1.329-2.233C1417.031,890.686,1417.22,890.911,1417.416,890.948Zm1.622-6.157c0-.857,0-1.637,0-2.417,0-.073-.032-.173.06-.209.112-.043.17.068.236.126A1.57,1.57,0,0,1,1419.037,884.791Zm-9.59-.042a1.374,1.374,0,0,1-.766-1.183,1.55,1.55,0,0,1,.766-1.486Zm.818-4.508a4.05,4.05,0,0,0-1.6.419,5.523,5.523,0,0,1,2.762-5.2,5.286,5.286,0,0,1,5.87.13,5.55,5.55,0,0,1,2.544,5.1,5.145,5.145,0,0,0-2.286-.487,4.441,4.441,0,0,1-2.955-1.547c-.277-.309-.432-.282-.7.009A4.629,4.629,0,0,1,1410.266,880.241Zm.8,4.867c-.009-.482,0-.964,0-1.446,0-.53.008-1.061,0-1.591,0-.213.046-.3.281-.328a5.773,5.773,0,0,0,2.653-1.052.353.353,0,0,1,.5-.009,5.716,5.716,0,0,0,2.652,1.057c.274.037.295.152.293.366-.007,1.012.013,2.025-.008,3.037a3.183,3.183,0,0,1-6.364-.034Zm.262,5.748a.2.2,0,0,1,.283.09q.7,1.178,1.409,2.354l.045.077a.114.114,0,0,1-.071.158c-.058.028-.112.062-.17.089-.418.2-.908.623-1.235.522-.356-.11-.344-.794-.508-1.222-.183-.478-.318-.975-.5-1.456-.088-.236-.033-.348.2-.413A5.115,5.115,0,0,0,1411.33,890.857Z" transform="translate(-136.532)" fill="#e2c140"/>
    <path id="Trazado_216874" data-name="Trazado 216874" d="M1325.928,967.87c.407.01.537-.069.535-.515-.02-4.486-.012-8.973-.012-13.459a3.865,3.865,0,0,1,.009-.482.7.7,0,0,1,.683-.689c1.213-.027,2.426-.01,3.777-.01-.389.375-.688.656-.979.946s-.8.6-.768.853c.041.332.526.6.793.918.193.23.308.161.485-.019,1.073-1.088,2.148-2.173,3.243-3.237.25-.242.177-.36-.026-.559-.873-.855-1.73-1.726-2.6-2.588-.284-.282-.627-.814-.856-.771-.355.067-.629.537-.95.821-.17.15-.168.248,0,.407.524.494,1.031,1.005,1.65,1.613h-3.274a2.472,2.472,0,0,0-2.8,2.776q0,6.44,0,12.88C1324.843,967.861,1324.843,967.842,1325.928,967.87Z" transform="translate(-64.667 -67.675)" fill="#e2c140"/>
    <path id="Trazado_216875" data-name="Trazado 216875" d="M1588.643,978.315c1.125-.015,2.251-.008,3.376-.005.756,0,1.014.253,1.015,1.009q0,4.7,0,9.405c0,.1.063.226-.125.318-.276-.291-.557-.6-.849-.893-.27-.274-.545-.744-.829-.753-.329-.01-.562.506-.869.757-.238.2-.242.326-.01.552q1.623,1.582,3.2,3.207c.255.263.378.2.594-.025.852-.875,1.728-1.728,2.584-2.6.279-.284.794-.54.761-.87-.032-.313-.524-.565-.779-.872-.212-.255-.337-.171-.522.025-.473.5-.965.989-1.551,1.585v-.613q0-4.63,0-9.261a2.416,2.416,0,0,0-2.551-2.582c-.868-.01-1.736,0-2.6,0-1.249,0-1.235,0-1.228,1.256C1588.258,978.272,1588.365,978.318,1588.643,978.315Z" transform="translate(-301.77 -93.274)" fill="#e2c140"/>
    <path id="Trazado_216876" data-name="Trazado 216876" d="M1426.919,1222.3c-1.831.017-3.662.008-5.623.008.376-.374.672-.66.959-.956s.744-.565.764-.872c.021-.325-.511-.561-.761-.872-.192-.239-.315-.21-.522,0q-1.6,1.636-3.239,3.237c-.24.234-.185.344.02.545.885.864,1.753,1.746,2.629,2.62.273.272.538.738.829.757.343.021.565-.506.877-.753.247-.2.241-.338.007-.556-.508-.473-.987-.977-1.551-1.54h4.845c1.195,0,1.181,0,1.191-1.2C1427.347,1222.381,1427.255,1222.3,1426.919,1222.3Z" transform="translate(-148.825 -311.774)" fill="#e2c140"/>
    <path id="Trazado_216877" data-name="Trazado 216877" d="M1578.659,1192.263a6.378,6.378,0,1,0,6.376,6.376A6.411,6.411,0,0,0,1578.659,1192.263Zm0,11.168a4.779,4.779,0,1,1,4.794-4.774A4.788,4.788,0,0,1,1578.656,1203.431Z" transform="translate(-287.395 -287.311)" fill="#e2c140"/>
    <path id="Trazado_216878" data-name="Trazado 216878" d="M1285.273,1193.782c1.461-.015,2.922-.007,4.383-.007h3.661c1.156,0,1.139,0,1.157-1.173.006-.369-.1-.447-.455-.445-2.633.016-5.267.008-7.9.008-1.245,0-1.233,0-1.227,1.251C1284.894,1193.724,1284.986,1193.785,1285.273,1193.782Z" transform="translate(-28.707 -287.216)" fill="#e2c140"/>
    <path id="Trazado_216879" data-name="Trazado 216879" d="M1285.3,1257.651c1.461-.014,2.922-.006,4.383-.006h3.612c1.186,0,1.171,0,1.18-1.2,0-.346-.1-.42-.432-.418-2.649.013-5.3.007-7.947.007-1.213,0-1.2,0-1.2,1.228C1284.894,1257.6,1285,1257.654,1285.3,1257.651Z" transform="translate(-28.709 -344.71)" fill="#e2c140"/>
    <path id="Trazado_216880" data-name="Trazado 216880" d="M1294.228,1287.99c.052-.419-.144-.458-.491-.456-2.622.012-5.245,0-7.867.011-.4,0-.924-.182-1.152.086-.193.227-.035.739-.067,1.122-.026.313.072.4.392.4,1.464-.018,2.928-.008,4.392-.008,1.207,0,2.413.007,3.62,0,.38,0,.884.173,1.1-.08C1294.344,1288.847,1294.183,1288.353,1294.228,1287.99Z" transform="translate(-28.462 -373.023)" fill="#e2c140"/>
    <path id="Trazado_216881" data-name="Trazado 216881" d="M1322.969,1224.047c0-.324-.125-.361-.4-.357-.933.014-1.866.005-2.8.005-.66,0-1.319-.013-1.978,0-.4.01-.922-.184-1.15.088-.193.23-.037.739-.068,1.122-.025.312.071.405.393.4,1.592-.017,3.184-.008,4.777-.008C1323,1225.3,1322.982,1225.3,1322.969,1224.047Z" transform="translate(-57.201 -315.557)" fill="#e2c140"/>
    <path id="Trazado_216882" data-name="Trazado 216882" d="M1291.273,1320.343c.035-.355-.069-.463-.442-.458-1.576.023-3.152.01-4.729.01-1.245,0-1.235,0-1.219,1.262,0,.271.072.35.346.346.965-.017,1.93-.006,2.9-.006.66,0,1.319.011,1.978,0,.38-.009.883.172,1.1-.08C1291.392,1321.2,1291.238,1320.708,1291.273,1320.343Z" transform="translate(-28.696 -402.186)" fill="#e2c140"/>
    <path id="Trazado_216883" data-name="Trazado 216883" d="M1286.586,1224.957c0-.794,0-.794-.773-.794-.83,0-.83,0-.83.822,0,.788,0,.788.81.788C1286.586,1225.773,1286.586,1225.773,1286.586,1224.957Z" transform="translate(-28.789 -316.025)" fill="#e2c140"/>
    <path id="Trazado_216884" data-name="Trazado 216884" d="M1365.691,1319.985c-.8,0-.8,0-.8.8s0,.8.788.8.8,0,.8-.789C1366.474,1319.985,1366.474,1319.985,1365.691,1319.985Z" transform="translate(-100.716 -402.276)" fill="#e2c140"/>
    <path id="Trazado_216885" data-name="Trazado 216885" d="M1607.413,1224.224a3.184,3.184,0,1,0,.015,6.369,3.184,3.184,0,0,0-.015-6.369Zm.018,4.788a1.592,1.592,0,0,1-1.6-1.586,1.574,1.574,0,0,1,1.577-1.6,1.6,1.6,0,0,1,1.606,1.578A1.611,1.611,0,0,1,1607.431,1229.011Z" transform="translate(-316.149 -316.079)" fill="#e2c140"/>
  </g>
</svg>
