<svg xmlns="http://www.w3.org/2000/svg" width="287.585" height="361.863" viewBox="0 0 287.585 361.863">
  <g id="Grupo_163272" data-name="Grupo 163272" transform="translate(-261.467 -24.307)">
    <path id="Trazado_219641" data-name="Trazado 219641" d="M518.9,258.473a4.472,4.472,0,0,1-2.3-.638l-13.808-8.278.836-1.394,13.808,8.278a2.844,2.844,0,0,0,2.906.016l22.473-13.144a1.129,1.129,0,0,0-.034-1.971L512.832,225.3l.767-1.434,29.951,16.04a2.753,2.753,0,0,1,.086,4.806L521.164,257.86A4.469,4.469,0,0,1,518.9,258.473Z" transform="translate(4.048 3.347)" fill="#b2d3ea"/>
    <path id="Trazado_219642" data-name="Trazado 219642" d="M464.734,381.5a5.8,5.8,0,0,1-2.827-.732L406.8,350.1a2.535,2.535,0,0,1-.014-4.423l24.938-14.064a.868.868,0,0,0,.005-1.5l-27.746-15.932a2.49,2.49,0,0,1-.09-4.263l11.334-7.181.87,1.372-11.335,7.184a.866.866,0,0,0,.031,1.481L432.542,328.7a2.492,2.492,0,0,1-.016,4.327l-24.938,14.064a.911.911,0,0,0,.006,1.588l55.1,30.674a4.2,4.2,0,0,0,4.209-.077l20.953-12.882a.39.39,0,0,0,.191-.341.4.4,0,0,0-.192-.341l-15.165-9.218.844-1.389,15.165,9.219a2.024,2.024,0,0,1,.009,3.453l-20.958,12.885A5.826,5.826,0,0,1,464.734,381.5Z" transform="translate(2.37 4.67)" fill="#b2d3ea"/>
    <g id="Grupo_163208" data-name="Grupo 163208" transform="translate(455.512 161.924)">
      <path id="Trazado_219643" data-name="Trazado 219643" d="M487.574,259.3l-26.567-15.339c-1.631-.942-1.426-2.586.456-3.673l25.652-14.81a7.071,7.071,0,0,1,6.362-.263l26.566,15.338c1.631.942,1.427,2.586-.456,3.673l-25.652,14.81A7.073,7.073,0,0,1,487.574,259.3Z" transform="translate(-452.184 -158.565)" fill="#b2d3ea"/>
      <g id="Grupo_163202" data-name="Grupo 163202" transform="translate(0 36.687)">
        <path id="Trazado_219644" data-name="Trazado 219644" d="M528.985,229.084h0V217.606l-25.739-.014-8.9-5.137c-2.042-1.179-5.609-1.031-7.965.33l-8.3,4.792-25.762-.014v11.8a2.309,2.309,0,0,0,1.369,2.134l33.267,19.207c2.042,1.179,5.609,1.031,7.966-.33l32.122-18.545C528.405,231.048,529.061,230.031,528.985,229.084Z" transform="translate(-452.311 -195.469)" fill="#396caa"/>
        <path id="Trazado_219645" data-name="Trazado 219645" d="M490.653,211.665a9.184,9.184,0,0,0-4.269,1.12l-8.3,4.792-25.762-.014v11.8a2.309,2.309,0,0,0,1.369,2.134l33.267,19.207a7.213,7.213,0,0,0,3.7.79Z" transform="translate(-452.311 -195.469)" fill="#396caa"/>
        <path id="Trazado_219646" data-name="Trazado 219646" d="M455.237,217.467h-2.916v11.8a2.309,2.309,0,0,0,1.369,2.134l1.548.894Z" transform="translate(-452.311 -195.372)" fill="#5793ce"/>
        <path id="Trazado_219647" data-name="Trazado 219647" d="M486.889,250.534a9.078,9.078,0,0,0,6.368-.072v-13.4h-6.368Z" transform="translate(-451.731 -195.043)" fill="#5793ce"/>
        <path id="Trazado_219648" data-name="Trazado 219648" d="M486.957,239.214,453.69,220.007c-2.042-1.179-1.786-3.238.571-4.6l32.123-18.546c2.357-1.36,5.924-1.509,7.965-.329l33.268,19.207c2.042,1.178,1.785,3.237-.572,4.6l-32.122,18.546C492.565,240.245,489,240.393,486.957,239.214Z" transform="translate(-452.311 -195.736)" fill="#d4ecff"/>
        <path id="Trazado_219649" data-name="Trazado 219649" d="M487.453,235.7l-27.878-16.1c-1.711-.988-1.5-2.714.479-3.855l26.919-15.541a7.417,7.417,0,0,1,6.675-.277l27.879,16.1c1.711.987,1.5,2.713-.48,3.854l-26.919,15.542A7.423,7.423,0,0,1,487.453,235.7Z" transform="translate(-452.209 -195.677)" fill="#5793ce"/>
        <g id="Grupo_163201" data-name="Grupo 163201" transform="translate(61.751 30.694)">
          <path id="Trazado_219650" data-name="Trazado 219650" d="M515.73,231.792a2.969,2.969,0,0,1-1.344,2.327c-.742.428-1.343.081-1.343-.776a2.97,2.97,0,0,1,1.343-2.327C515.128,230.588,515.73,230.935,515.73,231.792Z" transform="translate(-513.043 -225.841)" fill="#d4ecff"/>
          <path id="Trazado_219651" data-name="Trazado 219651" d="M519.982,229.337a2.969,2.969,0,0,1-1.344,2.327c-.742.429-1.344.081-1.344-.776a2.972,2.972,0,0,1,1.344-2.327C519.38,228.133,519.982,228.481,519.982,229.337Z" transform="translate(-512.972 -225.882)" fill="#d4ecff"/>
          <path id="Trazado_219652" data-name="Trazado 219652" d="M524.233,226.883a2.971,2.971,0,0,1-1.343,2.327c-.742.428-1.344.08-1.344-.777a2.969,2.969,0,0,1,1.344-2.326C523.632,225.678,524.233,226.026,524.233,226.883Z" transform="translate(-512.9 -225.923)" fill="#d4ecff"/>
        </g>
      </g>
      <g id="Grupo_163204" data-name="Grupo 163204" transform="translate(0 18.344)">
        <path id="Trazado_219653" data-name="Trazado 219653" d="M528.985,211.043h0V199.565l-25.739-.014-8.9-5.137c-2.042-1.178-5.609-1.031-7.965.33l-8.3,4.792-25.762-.014v11.8a2.309,2.309,0,0,0,1.369,2.134l33.267,19.207c2.042,1.179,5.609,1.031,7.966-.329l32.122-18.546C528.405,213.007,529.061,211.99,528.985,211.043Z" transform="translate(-452.311 -177.428)" fill="#396caa"/>
        <path id="Trazado_219654" data-name="Trazado 219654" d="M490.653,193.624a9.185,9.185,0,0,0-4.269,1.12l-8.3,4.792-25.762-.014v11.8a2.309,2.309,0,0,0,1.369,2.134l33.267,19.207a7.213,7.213,0,0,0,3.7.79Z" transform="translate(-452.311 -177.428)" fill="#396caa"/>
        <path id="Trazado_219655" data-name="Trazado 219655" d="M455.237,199.426h-2.916v11.8a2.309,2.309,0,0,0,1.369,2.134l1.548.894Z" transform="translate(-452.311 -177.331)" fill="#5793ce"/>
        <path id="Trazado_219656" data-name="Trazado 219656" d="M486.889,232.493a9.078,9.078,0,0,0,6.368-.072v-13.4h-6.368Z" transform="translate(-451.731 -177.002)" fill="#5793ce"/>
        <path id="Trazado_219657" data-name="Trazado 219657" d="M486.957,221.173,453.69,201.966c-2.042-1.179-1.786-3.238.571-4.6l32.123-18.546c2.357-1.36,5.924-1.509,7.965-.329L527.617,197.7c2.042,1.178,1.785,3.237-.572,4.6l-32.122,18.546C492.565,222.2,489,222.352,486.957,221.173Z" transform="translate(-452.311 -177.695)" fill="#d4ecff"/>
        <path id="Trazado_219658" data-name="Trazado 219658" d="M487.453,217.657l-27.878-16.1c-1.711-.988-1.5-2.714.479-3.855l26.919-15.541a7.417,7.417,0,0,1,6.675-.277l27.879,16.1c1.711.987,1.5,2.714-.48,3.854L494.128,217.38A7.42,7.42,0,0,1,487.453,217.657Z" transform="translate(-452.209 -177.636)" fill="#5793ce"/>
        <g id="Grupo_163203" data-name="Grupo 163203" transform="translate(61.751 30.694)">
          <path id="Trazado_219659" data-name="Trazado 219659" d="M515.73,213.751a2.969,2.969,0,0,1-1.344,2.327c-.742.428-1.343.081-1.343-.776a2.97,2.97,0,0,1,1.343-2.327C515.128,212.547,515.73,212.894,515.73,213.751Z" transform="translate(-513.043 -207.8)" fill="#d4ecff"/>
          <path id="Trazado_219660" data-name="Trazado 219660" d="M519.982,211.3a2.969,2.969,0,0,1-1.344,2.327c-.742.429-1.344.081-1.344-.776a2.972,2.972,0,0,1,1.344-2.327C519.38,210.092,519.982,210.44,519.982,211.3Z" transform="translate(-512.972 -207.841)" fill="#d4ecff"/>
          <path id="Trazado_219661" data-name="Trazado 219661" d="M524.233,208.842a2.968,2.968,0,0,1-1.343,2.326c-.742.429-1.344.081-1.344-.775a2.969,2.969,0,0,1,1.344-2.327C523.632,207.637,524.233,207.985,524.233,208.842Z" transform="translate(-512.9 -207.882)" fill="#d4ecff"/>
        </g>
      </g>
      <g id="Grupo_163207" data-name="Grupo 163207">
        <path id="Trazado_219662" data-name="Trazado 219662" d="M528.985,193h0V181.524l-25.739-.014-8.9-5.137c-2.042-1.179-5.609-1.031-7.965.33l-8.3,4.792-25.762-.014v11.8a2.309,2.309,0,0,0,1.369,2.134l33.267,19.207c2.042,1.179,5.609,1.031,7.966-.329l32.122-18.546C528.405,194.966,529.061,193.949,528.985,193Z" transform="translate(-452.311 -159.387)" fill="#396caa"/>
        <path id="Trazado_219663" data-name="Trazado 219663" d="M490.653,175.583a9.184,9.184,0,0,0-4.269,1.12l-8.3,4.792-25.762-.014v11.8a2.309,2.309,0,0,0,1.369,2.134l33.267,19.207a7.213,7.213,0,0,0,3.7.79Z" transform="translate(-452.311 -159.387)" fill="#396caa"/>
        <path id="Trazado_219664" data-name="Trazado 219664" d="M455.237,181.385h-2.916v11.8a2.309,2.309,0,0,0,1.369,2.134l1.548.894Z" transform="translate(-452.311 -159.29)" fill="#5793ce"/>
        <path id="Trazado_219665" data-name="Trazado 219665" d="M486.889,214.452a9.078,9.078,0,0,0,6.368-.072v-13.4h-6.368Z" transform="translate(-451.731 -158.961)" fill="#5793ce"/>
        <path id="Trazado_219666" data-name="Trazado 219666" d="M486.957,203.132,453.69,183.925c-2.042-1.179-1.786-3.238.571-4.6l32.123-18.546c2.357-1.361,5.924-1.51,7.965-.33l33.268,19.207c2.042,1.178,1.785,3.237-.572,4.6L494.923,202.8C492.565,204.163,489,204.311,486.957,203.132Z" transform="translate(-452.311 -159.654)" fill="#d4ecff"/>
        <path id="Trazado_219667" data-name="Trazado 219667" d="M527.045,181.652,494.923,200.2c-2.358,1.361-5.925,1.51-7.966.33L453.69,181.321a3.071,3.071,0,0,1-1.019-.9c-.7,1.129-.383,2.354,1.019,3.163l33.267,19.207c2.042,1.178,5.609,1.031,7.966-.33l32.122-18.546c1.832-1.057,2.388-2.535,1.591-3.695A4.453,4.453,0,0,1,527.045,181.652Z" transform="translate(-452.311 -159.309)" fill="#fff"/>
        <g id="Grupo_163205" data-name="Grupo 163205" transform="translate(61.751 30.693)">
          <path id="Trazado_219668" data-name="Trazado 219668" d="M515.73,195.71a2.969,2.969,0,0,1-1.344,2.327c-.742.429-1.343.081-1.343-.776a2.971,2.971,0,0,1,1.343-2.327C515.128,194.506,515.73,194.853,515.73,195.71Z" transform="translate(-513.043 -189.759)" fill="#d4ecff"/>
          <path id="Trazado_219669" data-name="Trazado 219669" d="M519.982,193.255a2.969,2.969,0,0,1-1.344,2.327c-.742.429-1.344.081-1.344-.776a2.972,2.972,0,0,1,1.344-2.327C519.38,192.051,519.982,192.4,519.982,193.255Z" transform="translate(-512.972 -189.8)" fill="#d4ecff"/>
          <path id="Trazado_219670" data-name="Trazado 219670" d="M524.233,190.8a2.971,2.971,0,0,1-1.343,2.327c-.742.428-1.344.08-1.344-.776a2.969,2.969,0,0,1,1.344-2.327C523.632,189.6,524.233,189.944,524.233,190.8Z" transform="translate(-512.9 -189.841)" fill="#d4ecff"/>
        </g>
        <g id="Grupo_163206" data-name="Grupo 163206" transform="translate(20.4 11.224)">
          <path id="Trazado_219671" data-name="Trazado 219671" d="M488.587,191.039l-15.568-8.987c-.955-.552-.836-1.516.267-2.153l15.032-8.679a4.143,4.143,0,0,1,3.727-.154l15.568,8.987c.956.552.836,1.515-.267,2.153l-15.032,8.678A4.14,4.14,0,0,1,488.587,191.039Z" transform="translate(-472.375 -170.693)" fill="#5793ce"/>
          <path id="Trazado_219672" data-name="Trazado 219672" d="M489.823,183.348l-2.155-1.244c-.132-.076-.115-.209.038-.3l2.079-1.2a.574.574,0,0,1,.517-.021l2.154,1.244c.132.076.116.209-.038.3l-2.079,1.2A.572.572,0,0,1,489.823,183.348Z" transform="translate(-472.12 -170.528)" fill="#d4ecff"/>
          <path id="Trazado_219673" data-name="Trazado 219673" d="M473.02,182.051l.045.025a2.521,2.521,0,0,1,.223-.155l15.032-8.678a4.14,4.14,0,0,1,3.727-.155l15.524,8.963c.881-.631.926-1.49.044-2l-15.568-8.988a4.146,4.146,0,0,0-3.727.155L473.287,179.9C472.184,180.535,472.065,181.5,473.02,182.051Z" transform="translate(-472.375 -170.693)" fill="#396caa"/>
        </g>
      </g>
    </g>
    <g id="Grupo_163228" data-name="Grupo 163228" transform="translate(368.51 110.128)">
      <g id="Grupo_163220" data-name="Grupo 163220" transform="translate(0 0)">
        <g id="Grupo_163211" data-name="Grupo 163211">
          <path id="Trazado_219674" data-name="Trazado 219674" d="M429.233,313.808l-57.418-32.74c-2.1-1.213-1.837-3.331.588-4.731l33.037-19.074c2.425-1.4,6.093-1.552,8.193-.34l57.418,32.741c2.1,1.212,1.837,3.33-.588,4.73l-33.037,19.074C435,314.868,431.332,315.02,429.233,313.808Z" transform="translate(-366.683 -106.24)" fill="#b2d3ea"/>
          <path id="Trazado_219675" data-name="Trazado 219675" d="M476.231,280.82h0V146.773l-53.29-13.947-9.815-5.668c-2.253-1.3-6.188-1.138-8.789.364l-9.158,5.287-28.424-.015,8.417,129.4a2.549,2.549,0,0,0,1.509,2.355l53.18,40.127c2.253,1.3,6.188,1.137,8.789-.365l35.442-20.462C475.591,282.987,476.315,281.865,476.231,280.82Z" transform="translate(-366.744 -108.418)" fill="#396caa"/>
          <path id="Trazado_219676" data-name="Trazado 219676" d="M409.048,126.287a10.149,10.149,0,0,0-4.711,1.235l-9.158,5.287-28.424-.015V267.2a2.548,2.548,0,0,0,1.51,2.355l61.6,35.123a7.969,7.969,0,0,0,4.079.871l.634-135.248Z" transform="translate(-366.744 -108.418)" fill="#d4ecff"/>
          <path id="Trazado_219677" data-name="Trazado 219677" d="M429.377,304.257a10.01,10.01,0,0,0,7.025-.08V168.005h-7.025Z" transform="translate(-365.693 -107.718)" fill="#5793ce"/>
          <path id="Trazado_219678" data-name="Trazado 219678" d="M429.861,170.614l-61.6-35.123c-2.253-1.3-1.97-3.572.63-5.074l35.442-20.463c2.6-1.5,6.536-1.664,8.789-.364l61.6,35.122c2.253,1.3,1.97,3.573-.63,5.075L438.65,170.249C436.049,171.751,432.114,171.915,429.861,170.614Z" transform="translate(-366.744 -108.712)" fill="#d4ecff"/>
          <path id="Trazado_219679" data-name="Trazado 219679" d="M474.092,146.911,438.65,167.373c-2.6,1.5-6.536,1.665-8.789.364l-61.6-35.122a3.4,3.4,0,0,1-1.125-1c-.774,1.246-.423,2.6,1.125,3.49l61.6,35.123c2.253,1.3,6.188,1.137,8.789-.365L474.092,149.4c2.02-1.167,2.634-2.8,1.755-4.077A4.925,4.925,0,0,1,474.092,146.911Z" transform="translate(-366.744 -108.328)" fill="#fafdff"/>
          <g id="Grupo_163210" data-name="Grupo 163210" transform="translate(23.139 11.363)">
            <path id="Trazado_219680" data-name="Trazado 219680" d="M431.222,156.192l-41.01-23.772c-1.054-.609-.922-1.672.295-2.375l16.585-9.575a4.574,4.574,0,0,1,4.113-.171l41.01,23.773c1.054.608.922,1.672-.295,2.374l-16.585,9.575A4.574,4.574,0,0,1,431.222,156.192Z" transform="translate(-389.501 -119.888)" fill="#173d7a"/>
            <g id="Grupo_163209" data-name="Grupo 163209" transform="translate(17.107 10.493)">
              <path id="Trazado_219681" data-name="Trazado 219681" d="M408.8,133.314l-2.376-1.373c-.145-.083-.127-.231.041-.328l2.295-1.325a.635.635,0,0,1,.569-.023l2.376,1.373c.145.083.127.231-.041.328l-2.295,1.325A.635.635,0,0,1,408.8,133.314Z" transform="translate(-406.326 -130.208)" fill="#d4ecff"/>
              <path id="Trazado_219682" data-name="Trazado 219682" d="M416.608,137.8l-2.376-1.373c-.145-.084-.127-.231.041-.328l2.295-1.325a.631.631,0,0,1,.569-.023l2.376,1.372c.145.084.127.232-.041.328l-2.295,1.325A.635.635,0,0,1,416.608,137.8Z" transform="translate(-406.194 -130.133)" fill="#d4ecff"/>
              <path id="Trazado_219683" data-name="Trazado 219683" d="M424.417,142.293l-2.377-1.372c-.145-.084-.127-.232.042-.328l2.294-1.325a.631.631,0,0,1,.569-.023l2.376,1.372c.146.084.128.231-.041.328l-2.295,1.325A.629.629,0,0,1,424.417,142.293Z" transform="translate(-406.064 -130.058)" fill="#d4ecff"/>
              <path id="Trazado_219684" data-name="Trazado 219684" d="M432.225,146.783l-2.377-1.373c-.145-.083-.127-.231.042-.328l2.294-1.325a.635.635,0,0,1,.569-.023l2.376,1.373c.146.083.128.231-.041.328l-2.295,1.325A.632.632,0,0,1,432.225,146.783Z" transform="translate(-405.933 -129.982)" fill="#d4ecff"/>
            </g>
            <path id="Trazado_219685" data-name="Trazado 219685" d="M390.213,132.42l.049.027a2.748,2.748,0,0,1,.246-.169l16.585-9.576a4.57,4.57,0,0,1,4.113-.17l40.962,23.744c.971-.7,1.022-1.642.048-2.205L411.205,120.3a4.574,4.574,0,0,0-4.113.171l-16.585,9.575C389.291,130.748,389.158,131.811,390.213,132.42Z" transform="translate(-389.501 -119.888)" fill="#5793ce"/>
          </g>
        </g>
        <g id="Grupo_163213" data-name="Grupo 163213" transform="translate(76.45 60.151)">
          <path id="Trazado_219686" data-name="Trazado 219686" d="M444.309,196.179l23.317-13.349A5.693,5.693,0,0,0,470,178.29v-8.339c0-1.749-1.065-2.553-2.376-1.8l-23.317,13.35a5.688,5.688,0,0,0-2.376,4.539v8.339C441.933,196.133,443,196.937,444.309,196.179Z" transform="translate(-441.933 -167.871)" fill="#173d7a"/>
          <path id="Trazado_219687" data-name="Trazado 219687" d="M468.77,167.9a2.325,2.325,0,0,1,.6,1.735v8.339a5.689,5.689,0,0,1-2.376,4.539l-23.317,13.35a1.716,1.716,0,0,1-1.154.251,1.416,1.416,0,0,0,1.779.061l23.317-13.349a5.692,5.692,0,0,0,2.376-4.54v-8.339C469.992,168.763,469.5,168.027,468.77,167.9Z" transform="translate(-441.923 -167.87)" fill="#fff"/>
          <g id="Grupo_163212" data-name="Grupo 163212" transform="translate(8.871 10.159)">
            <path id="Trazado_219688" data-name="Trazado 219688" d="M451.176,186.886l2.139-1.235a1.24,1.24,0,0,0,.518-.989v-2.285c0-.381-.232-.556-.518-.391l-2.139,1.235a1.24,1.24,0,0,0-.518.989v2.285C450.658,186.876,450.89,187.051,451.176,186.886Z" transform="translate(-450.658 -177.794)" fill="#396caa"/>
            <path id="Trazado_219689" data-name="Trazado 219689" d="M458.21,182.825l2.139-1.235a1.24,1.24,0,0,0,.518-.989v-2.285c0-.381-.232-.556-.518-.391l-2.139,1.235a1.24,1.24,0,0,0-.518.989v2.285C457.692,182.815,457.924,182.99,458.21,182.825Z" transform="translate(-450.54 -177.862)" fill="#fff"/>
          </g>
        </g>
        <g id="Grupo_163215" data-name="Grupo 163215" transform="translate(76.45 120.404)">
          <path id="Trazado_219690" data-name="Trazado 219690" d="M444.309,255.44l23.317-13.35A5.692,5.692,0,0,0,470,237.55v-8.339c0-1.749-1.065-2.553-2.376-1.8l-23.317,13.35a5.689,5.689,0,0,0-2.376,4.539v8.339C441.933,255.393,443,256.2,444.309,255.44Z" transform="translate(-441.933 -227.131)" fill="#173d7a"/>
          <path id="Trazado_219691" data-name="Trazado 219691" d="M468.77,227.164a2.326,2.326,0,0,1,.6,1.735v8.339a5.689,5.689,0,0,1-2.376,4.539l-23.317,13.35a1.71,1.71,0,0,1-1.154.251,1.417,1.417,0,0,0,1.779.062l23.317-13.35a5.692,5.692,0,0,0,2.376-4.54v-8.339C469.992,228.023,469.5,227.287,468.77,227.164Z" transform="translate(-441.923 -227.13)" fill="#fff"/>
          <g id="Grupo_163214" data-name="Grupo 163214" transform="translate(8.871 10.159)">
            <path id="Trazado_219692" data-name="Trazado 219692" d="M451.176,246.146l2.139-1.234a1.243,1.243,0,0,0,.518-.99v-2.285c0-.381-.232-.556-.518-.391l-2.139,1.235a1.24,1.24,0,0,0-.518.989v2.285C450.658,246.136,450.89,246.311,451.176,246.146Z" transform="translate(-450.658 -237.054)" fill="#396caa"/>
            <path id="Trazado_219693" data-name="Trazado 219693" d="M458.21,242.085l2.139-1.235a1.24,1.24,0,0,0,.518-.989v-2.285c0-.381-.232-.556-.518-.391l-2.139,1.235a1.24,1.24,0,0,0-.518.989v2.285C457.692,242.075,457.924,242.25,458.21,242.085Z" transform="translate(-450.54 -237.122)" fill="#396caa"/>
          </g>
        </g>
        <g id="Grupo_163217" data-name="Grupo 163217" transform="translate(76.45 150.531)">
          <path id="Trazado_219694" data-name="Trazado 219694" d="M444.309,285.07l23.317-13.35A5.692,5.692,0,0,0,470,267.18v-8.337c0-1.75-1.065-2.554-2.376-1.8L444.309,270.4a5.689,5.689,0,0,0-2.376,4.54v8.338C441.933,285.023,443,285.827,444.309,285.07Z" transform="translate(-441.933 -256.761)" fill="#173d7a"/>
          <path id="Trazado_219695" data-name="Trazado 219695" d="M468.77,256.794a2.326,2.326,0,0,1,.6,1.735v8.339a5.689,5.689,0,0,1-2.376,4.539l-23.317,13.35a1.709,1.709,0,0,1-1.154.251,1.417,1.417,0,0,0,1.779.062l23.317-13.35a5.692,5.692,0,0,0,2.376-4.54v-8.339C469.992,257.653,469.5,256.917,468.77,256.794Z" transform="translate(-441.923 -256.76)" fill="#fff"/>
          <g id="Grupo_163216" data-name="Grupo 163216" transform="translate(8.871 10.159)">
            <path id="Trazado_219696" data-name="Trazado 219696" d="M451.176,275.776l2.139-1.234a1.244,1.244,0,0,0,.518-.99v-2.284c0-.381-.232-.557-.518-.392l-2.139,1.235a1.24,1.24,0,0,0-.518.989v2.285C450.658,275.766,450.89,275.941,451.176,275.776Z" transform="translate(-450.658 -266.684)" fill="#fff"/>
            <path id="Trazado_219697" data-name="Trazado 219697" d="M458.21,271.715l2.139-1.235a1.24,1.24,0,0,0,.518-.989v-2.285c0-.381-.232-.556-.518-.391l-2.139,1.235a1.24,1.24,0,0,0-.518.989v2.285C457.692,271.7,457.924,271.881,458.21,271.715Z" transform="translate(-450.54 -266.752)" fill="#396caa"/>
          </g>
        </g>
        <g id="Grupo_163219" data-name="Grupo 163219" transform="translate(76.45 90.278)">
          <path id="Trazado_219698" data-name="Trazado 219698" d="M444.309,225.809l23.317-13.349A5.692,5.692,0,0,0,470,207.92v-8.339c0-1.749-1.065-2.553-2.376-1.8l-23.317,13.35a5.688,5.688,0,0,0-2.376,4.539v8.339C441.933,225.763,443,226.567,444.309,225.809Z" transform="translate(-441.933 -197.501)" fill="#173d7a"/>
          <path id="Trazado_219699" data-name="Trazado 219699" d="M468.77,197.534a2.326,2.326,0,0,1,.6,1.735v8.339a5.689,5.689,0,0,1-2.376,4.539L443.674,225.5a1.71,1.71,0,0,1-1.154.251,1.416,1.416,0,0,0,1.779.061l23.317-13.349a5.692,5.692,0,0,0,2.376-4.54v-8.339C469.992,198.393,469.5,197.657,468.77,197.534Z" transform="translate(-441.923 -197.5)" fill="#fff"/>
          <g id="Grupo_163218" data-name="Grupo 163218" transform="translate(8.871 10.159)">
            <path id="Trazado_219700" data-name="Trazado 219700" d="M451.176,216.516l2.139-1.235a1.24,1.24,0,0,0,.518-.989v-2.285c0-.381-.232-.556-.518-.391l-2.139,1.235a1.24,1.24,0,0,0-.518.989v2.285C450.658,216.506,450.89,216.681,451.176,216.516Z" transform="translate(-450.658 -207.424)" fill="#fff"/>
            <path id="Trazado_219701" data-name="Trazado 219701" d="M458.21,212.455l2.139-1.235a1.24,1.24,0,0,0,.518-.989v-2.285c0-.381-.232-.556-.518-.391l-2.139,1.235a1.24,1.24,0,0,0-.518.989v2.285C457.692,212.445,457.924,212.62,458.21,212.455Z" transform="translate(-450.54 -207.492)" fill="#fff"/>
          </g>
        </g>
      </g>
      <g id="Grupo_163221" data-name="Grupo 163221" transform="translate(2.657 32.533)">
        <path id="Trazado_219702" data-name="Trazado 219702" d="M425.331,188.1l-53.794-31.058a5.222,5.222,0,0,1-2.18-4.166V142.619c0-1.605.976-2.344,2.18-1.648l53.794,31.058a5.219,5.219,0,0,1,2.18,4.165v10.258C427.511,188.056,426.535,188.794,425.331,188.1Z" transform="translate(-369.357 -140.709)" fill="#5793ce"/>
        <path id="Trazado_219703" data-name="Trazado 219703" d="M423.744,184.441l-50.705-29.275a2.648,2.648,0,0,1-1.106-2.113v-7.712c0-.814.5-1.189,1.106-.836l50.705,29.275a2.649,2.649,0,0,1,1.106,2.113v7.712C424.85,184.42,424.355,184.794,423.744,184.441Z" transform="translate(-369.314 -140.647)" fill="#d4ecff" opacity="0.4"/>
        <path id="Trazado_219704" data-name="Trazado 219704" d="M383.555,157.275l-7.567-4.368a2.574,2.574,0,0,1-1.074-2.053h0c0-.791.481-1.154,1.074-.811l7.567,4.368a2.572,2.572,0,0,1,1.075,2.053h0C384.629,157.255,384.148,157.618,383.555,157.275Z" transform="translate(-369.264 -140.554)" fill="#d4ecff"/>
        <path id="Trazado_219705" data-name="Trazado 219705" d="M389.795,159.445c0,.791-.555,1.112-1.239.717a2.741,2.741,0,0,1-1.24-2.148c0-.791.555-1.111,1.24-.716A2.742,2.742,0,0,1,389.795,159.445Z" transform="translate(-369.056 -140.433)" fill="#173d7a"/>
        <path id="Trazado_219706" data-name="Trazado 219706" d="M394.1,161.93c0,.791-.555,1.111-1.24.716a2.741,2.741,0,0,1-1.24-2.147c0-.791.555-1.112,1.24-.717A2.741,2.741,0,0,1,394.1,161.93Z" transform="translate(-368.984 -140.391)" fill="#173d7a"/>
        <path id="Trazado_219707" data-name="Trazado 219707" d="M398.4,164.414c0,.791-.555,1.112-1.24.717a2.741,2.741,0,0,1-1.24-2.148c0-.791.555-1.111,1.24-.716A2.741,2.741,0,0,1,398.4,164.414Z" transform="translate(-368.911 -140.35)" fill="#d4ecff"/>
        <path id="Trazado_219708" data-name="Trazado 219708" d="M402.7,166.9c0,.791-.555,1.111-1.24.716a2.744,2.744,0,0,1-1.24-2.148c0-.79.556-1.111,1.24-.716A2.741,2.741,0,0,1,402.7,166.9Z" transform="translate(-368.839 -140.308)" fill="#173d7a"/>
        <path id="Trazado_219709" data-name="Trazado 219709" d="M420.844,179.657l-2.549-1.472a1.651,1.651,0,0,1-.688-1.317v-2.7c0-.507.308-.741.688-.522l2.549,1.472a1.649,1.649,0,0,1,.689,1.317v2.7C421.534,179.643,421.226,179.877,420.844,179.657Z" transform="translate(-368.548 -140.157)" fill="#173d7a"/>
      </g>
      <g id="Grupo_163222" data-name="Grupo 163222" transform="translate(2.657 50.621)">
        <path id="Trazado_219710" data-name="Trazado 219710" d="M425.331,205.89l-53.794-31.058a5.222,5.222,0,0,1-2.18-4.166V160.409c0-1.605.976-2.344,2.18-1.648l53.794,31.057a5.222,5.222,0,0,1,2.18,4.166v10.258C427.511,205.847,426.535,206.584,425.331,205.89Z" transform="translate(-369.357 -158.499)" fill="#5793ce"/>
        <path id="Trazado_219711" data-name="Trazado 219711" d="M423.744,202.231l-50.705-29.275a2.648,2.648,0,0,1-1.106-2.113v-7.712c0-.814.5-1.189,1.106-.836l50.705,29.275a2.648,2.648,0,0,1,1.106,2.114V201.4C424.85,202.21,424.355,202.584,423.744,202.231Z" transform="translate(-369.314 -158.437)" fill="#d4ecff" opacity="0.4"/>
        <path id="Trazado_219712" data-name="Trazado 219712" d="M383.555,175.065l-7.567-4.369a2.571,2.571,0,0,1-1.074-2.052h0c0-.791.481-1.154,1.074-.811l7.567,4.368a2.573,2.573,0,0,1,1.075,2.053h0C384.629,175.045,384.148,175.408,383.555,175.065Z" transform="translate(-369.264 -158.344)" fill="#d4ecff"/>
        <path id="Trazado_219713" data-name="Trazado 219713" d="M389.795,177.236c0,.79-.555,1.111-1.239.716a2.741,2.741,0,0,1-1.24-2.148c0-.791.555-1.111,1.24-.716A2.743,2.743,0,0,1,389.795,177.236Z" transform="translate(-369.056 -158.223)" fill="#fff"/>
        <path id="Trazado_219714" data-name="Trazado 219714" d="M394.1,179.72c0,.791-.555,1.111-1.24.716a2.741,2.741,0,0,1-1.24-2.148c0-.79.555-1.111,1.24-.716A2.741,2.741,0,0,1,394.1,179.72Z" transform="translate(-368.984 -158.181)" fill="#173d7a"/>
        <path id="Trazado_219715" data-name="Trazado 219715" d="M398.4,182.2c0,.791-.555,1.112-1.24.717a2.741,2.741,0,0,1-1.24-2.148c0-.791.555-1.111,1.24-.716A2.741,2.741,0,0,1,398.4,182.2Z" transform="translate(-368.911 -158.14)" fill="#d4ecff"/>
        <path id="Trazado_219716" data-name="Trazado 219716" d="M402.7,184.689c0,.791-.555,1.111-1.24.716a2.744,2.744,0,0,1-1.24-2.148c0-.791.556-1.111,1.24-.716A2.741,2.741,0,0,1,402.7,184.689Z" transform="translate(-368.839 -158.098)" fill="#173d7a"/>
        <path id="Trazado_219717" data-name="Trazado 219717" d="M420.844,197.447l-2.549-1.472a1.651,1.651,0,0,1-.688-1.317v-2.7c0-.508.308-.741.688-.522l2.549,1.472a1.649,1.649,0,0,1,.689,1.317v2.7C421.534,197.433,421.226,197.667,420.844,197.447Z" transform="translate(-368.548 -157.947)" fill="#173d7a"/>
      </g>
      <g id="Grupo_163223" data-name="Grupo 163223" transform="translate(2.657 68.71)">
        <path id="Trazado_219718" data-name="Trazado 219718" d="M425.331,223.679l-53.794-31.057a5.222,5.222,0,0,1-2.18-4.166V178.2c0-1.605.976-2.344,2.18-1.648l53.794,31.057a5.222,5.222,0,0,1,2.18,4.166v10.257C427.511,223.636,426.535,224.374,425.331,223.679Z" transform="translate(-369.357 -176.289)" fill="#5793ce"/>
        <path id="Trazado_219719" data-name="Trazado 219719" d="M423.744,220.021l-50.705-29.275a2.648,2.648,0,0,1-1.106-2.113v-7.712c0-.814.5-1.189,1.106-.836l50.705,29.275a2.648,2.648,0,0,1,1.106,2.113v7.712C424.85,220,424.355,220.374,423.744,220.021Z" transform="translate(-369.314 -176.227)" fill="#d4ecff" opacity="0.4"/>
        <path id="Trazado_219720" data-name="Trazado 219720" d="M383.555,192.855l-7.567-4.369a2.571,2.571,0,0,1-1.074-2.052h0c0-.791.481-1.154,1.074-.811l7.567,4.368a2.572,2.572,0,0,1,1.075,2.053h0C384.629,192.834,384.148,193.2,383.555,192.855Z" transform="translate(-369.264 -176.134)" fill="#d4ecff"/>
        <path id="Trazado_219721" data-name="Trazado 219721" d="M389.795,195.025c0,.791-.555,1.112-1.239.717a2.741,2.741,0,0,1-1.24-2.148c0-.791.555-1.111,1.24-.716A2.743,2.743,0,0,1,389.795,195.025Z" transform="translate(-369.056 -176.013)" fill="#fff"/>
        <path id="Trazado_219722" data-name="Trazado 219722" d="M394.1,197.51c0,.791-.555,1.111-1.24.716a2.741,2.741,0,0,1-1.24-2.148c0-.791.555-1.111,1.24-.716A2.741,2.741,0,0,1,394.1,197.51Z" transform="translate(-368.984 -175.971)" fill="#173d7a"/>
        <path id="Trazado_219723" data-name="Trazado 219723" d="M398.4,199.994c0,.791-.555,1.112-1.24.716a2.738,2.738,0,0,1-1.24-2.147c0-.791.555-1.111,1.24-.716A2.739,2.739,0,0,1,398.4,199.994Z" transform="translate(-368.911 -175.93)" fill="#d4ecff"/>
        <path id="Trazado_219724" data-name="Trazado 219724" d="M402.7,202.479c0,.791-.555,1.111-1.24.716a2.744,2.744,0,0,1-1.24-2.148c0-.791.556-1.111,1.24-.716A2.741,2.741,0,0,1,402.7,202.479Z" transform="translate(-368.839 -175.888)" fill="#173d7a"/>
        <path id="Trazado_219725" data-name="Trazado 219725" d="M420.844,215.237l-2.549-1.472a1.651,1.651,0,0,1-.688-1.317v-2.7c0-.507.308-.741.688-.522l2.549,1.471a1.652,1.652,0,0,1,.689,1.318v2.7C421.534,215.223,421.226,215.457,420.844,215.237Z" transform="translate(-368.548 -175.737)" fill="#173d7a"/>
      </g>
      <g id="Grupo_163224" data-name="Grupo 163224" transform="translate(2.657 86.798)">
        <path id="Trazado_219726" data-name="Trazado 219726" d="M425.331,241.469l-53.794-31.057a5.222,5.222,0,0,1-2.18-4.166V195.989c0-1.605.976-2.344,2.18-1.648L425.331,225.4a5.222,5.222,0,0,1,2.18,4.166v10.257C427.511,241.426,426.535,242.164,425.331,241.469Z" transform="translate(-369.357 -194.079)" fill="#5793ce"/>
        <path id="Trazado_219727" data-name="Trazado 219727" d="M423.744,237.811l-50.705-29.275a2.648,2.648,0,0,1-1.106-2.113v-7.712c0-.814.5-1.189,1.106-.836l50.705,29.275a2.648,2.648,0,0,1,1.106,2.113v7.712C424.85,237.79,424.355,238.164,423.744,237.811Z" transform="translate(-369.314 -194.017)" fill="#d4ecff" opacity="0.4"/>
        <path id="Trazado_219728" data-name="Trazado 219728" d="M383.555,210.645l-7.567-4.369a2.572,2.572,0,0,1-1.074-2.052h0c0-.791.481-1.154,1.074-.812l7.567,4.369a2.573,2.573,0,0,1,1.075,2.053h0C384.629,210.624,384.148,210.988,383.555,210.645Z" transform="translate(-369.264 -193.924)" fill="#d4ecff"/>
        <path id="Trazado_219729" data-name="Trazado 219729" d="M389.795,212.815c0,.791-.555,1.112-1.239.717a2.741,2.741,0,0,1-1.24-2.148c0-.791.555-1.111,1.24-.716A2.741,2.741,0,0,1,389.795,212.815Z" transform="translate(-369.056 -193.803)" fill="#173d7a"/>
        <path id="Trazado_219730" data-name="Trazado 219730" d="M394.1,215.3c0,.791-.555,1.111-1.24.716a2.741,2.741,0,0,1-1.24-2.148c0-.791.555-1.111,1.24-.716A2.741,2.741,0,0,1,394.1,215.3Z" transform="translate(-368.984 -193.761)" fill="#173d7a"/>
        <path id="Trazado_219731" data-name="Trazado 219731" d="M398.4,217.784c0,.791-.555,1.111-1.24.716a2.739,2.739,0,0,1-1.24-2.147c0-.791.555-1.111,1.24-.717A2.741,2.741,0,0,1,398.4,217.784Z" transform="translate(-368.911 -193.72)" fill="#d4ecff"/>
        <path id="Trazado_219732" data-name="Trazado 219732" d="M402.7,220.269c0,.791-.555,1.111-1.24.716a2.744,2.744,0,0,1-1.24-2.148c0-.791.556-1.111,1.24-.716A2.741,2.741,0,0,1,402.7,220.269Z" transform="translate(-368.839 -193.678)" fill="#173d7a"/>
        <path id="Trazado_219733" data-name="Trazado 219733" d="M420.844,233.027l-2.549-1.472a1.651,1.651,0,0,1-.688-1.317v-2.7c0-.508.308-.741.688-.522l2.549,1.471a1.652,1.652,0,0,1,.689,1.318v2.7C421.534,233.013,421.226,233.247,420.844,233.027Z" transform="translate(-368.548 -193.527)" fill="#d4ecff"/>
      </g>
      <g id="Grupo_163225" data-name="Grupo 163225" transform="translate(2.657 104.886)">
        <path id="Trazado_219734" data-name="Trazado 219734" d="M425.331,259.259,371.537,228.2a5.222,5.222,0,0,1-2.18-4.166V213.777c0-1.6.976-2.343,2.18-1.647l53.794,31.057a5.222,5.222,0,0,1,2.18,4.166v10.257C427.511,259.216,426.535,259.954,425.331,259.259Z" transform="translate(-369.357 -211.869)" fill="#5793ce"/>
        <path id="Trazado_219735" data-name="Trazado 219735" d="M423.744,255.6l-50.705-29.275a2.648,2.648,0,0,1-1.106-2.113V216.5c0-.814.5-1.189,1.106-.836l50.705,29.275a2.648,2.648,0,0,1,1.106,2.113v7.712C424.85,255.58,424.355,255.954,423.744,255.6Z" transform="translate(-369.314 -211.807)" fill="#d4ecff" opacity="0.4"/>
        <path id="Trazado_219736" data-name="Trazado 219736" d="M383.555,228.435l-7.567-4.369a2.572,2.572,0,0,1-1.074-2.052h0c0-.791.481-1.155,1.074-.812l7.567,4.369a2.573,2.573,0,0,1,1.075,2.053h0C384.629,228.414,384.148,228.778,383.555,228.435Z" transform="translate(-369.264 -211.714)" fill="#d4ecff"/>
        <path id="Trazado_219737" data-name="Trazado 219737" d="M389.795,230.605c0,.791-.555,1.111-1.239.716a2.738,2.738,0,0,1-1.24-2.147c0-.791.555-1.111,1.24-.716A2.739,2.739,0,0,1,389.795,230.605Z" transform="translate(-369.056 -211.593)" fill="#173d7a"/>
        <path id="Trazado_219738" data-name="Trazado 219738" d="M394.1,233.09c0,.791-.555,1.111-1.24.716a2.741,2.741,0,0,1-1.24-2.148c0-.791.555-1.111,1.24-.716A2.741,2.741,0,0,1,394.1,233.09Z" transform="translate(-368.984 -211.551)" fill="#fff"/>
        <path id="Trazado_219739" data-name="Trazado 219739" d="M398.4,235.574c0,.791-.555,1.111-1.24.716a2.738,2.738,0,0,1-1.24-2.147c0-.791.555-1.112,1.24-.716A2.738,2.738,0,0,1,398.4,235.574Z" transform="translate(-368.911 -211.51)" fill="#d4ecff"/>
        <path id="Trazado_219740" data-name="Trazado 219740" d="M402.7,238.059c0,.791-.555,1.111-1.24.716a2.744,2.744,0,0,1-1.24-2.148c0-.791.556-1.111,1.24-.716A2.741,2.741,0,0,1,402.7,238.059Z" transform="translate(-368.839 -211.468)" fill="#fff"/>
        <path id="Trazado_219741" data-name="Trazado 219741" d="M420.844,250.817l-2.549-1.472a1.651,1.651,0,0,1-.688-1.317v-2.7c0-.508.308-.741.688-.522l2.549,1.471a1.649,1.649,0,0,1,.689,1.318v2.7C421.534,250.8,421.226,251.037,420.844,250.817Z" transform="translate(-368.548 -211.317)" fill="#d4ecff"/>
      </g>
      <g id="Grupo_163226" data-name="Grupo 163226" transform="translate(2.657 122.974)">
        <path id="Trazado_219742" data-name="Trazado 219742" d="M425.331,277.049l-53.794-31.057a5.222,5.222,0,0,1-2.18-4.166V231.567c0-1.6.976-2.343,2.18-1.648l53.794,31.058a5.222,5.222,0,0,1,2.18,4.166V275.4C427.511,277.006,426.535,277.744,425.331,277.049Z" transform="translate(-369.357 -229.658)" fill="#5793ce"/>
        <path id="Trazado_219743" data-name="Trazado 219743" d="M423.744,273.391l-50.705-29.275A2.648,2.648,0,0,1,371.932,242v-7.712c0-.814.5-1.189,1.106-.836l50.705,29.275a2.648,2.648,0,0,1,1.106,2.113v7.712C424.85,273.37,424.355,273.744,423.744,273.391Z" transform="translate(-369.314 -229.597)" fill="#d4ecff" opacity="0.4"/>
        <path id="Trazado_219744" data-name="Trazado 219744" d="M383.555,246.225l-7.567-4.369a2.573,2.573,0,0,1-1.074-2.052h0c0-.791.481-1.154,1.074-.812l7.567,4.369a2.573,2.573,0,0,1,1.075,2.053h0C384.629,246.2,384.148,246.568,383.555,246.225Z" transform="translate(-369.264 -229.504)" fill="#d4ecff"/>
        <path id="Trazado_219745" data-name="Trazado 219745" d="M389.795,248.4c0,.791-.555,1.111-1.239.716a2.738,2.738,0,0,1-1.24-2.147c0-.791.555-1.111,1.24-.716A2.739,2.739,0,0,1,389.795,248.4Z" transform="translate(-369.056 -229.383)" fill="#173d7a"/>
        <path id="Trazado_219746" data-name="Trazado 219746" d="M394.1,250.88c0,.791-.555,1.111-1.24.716a2.741,2.741,0,0,1-1.24-2.148c0-.791.555-1.111,1.24-.716A2.741,2.741,0,0,1,394.1,250.88Z" transform="translate(-368.984 -229.341)" fill="#173d7a"/>
        <path id="Trazado_219747" data-name="Trazado 219747" d="M398.4,253.364c0,.791-.555,1.111-1.24.716a2.741,2.741,0,0,1-1.24-2.147c0-.791.555-1.111,1.24-.717A2.741,2.741,0,0,1,398.4,253.364Z" transform="translate(-368.911 -229.299)" fill="#d4ecff"/>
        <path id="Trazado_219748" data-name="Trazado 219748" d="M402.7,255.849c0,.79-.555,1.111-1.24.716a2.744,2.744,0,0,1-1.24-2.148c0-.791.556-1.111,1.24-.716A2.741,2.741,0,0,1,402.7,255.849Z" transform="translate(-368.839 -229.258)" fill="#173d7a"/>
        <path id="Trazado_219749" data-name="Trazado 219749" d="M420.844,268.606l-2.549-1.471a1.651,1.651,0,0,1-.688-1.317v-2.7c0-.507.308-.74.688-.521l2.549,1.471a1.651,1.651,0,0,1,.689,1.318v2.7C421.534,268.593,421.226,268.827,420.844,268.606Z" transform="translate(-368.548 -229.107)" fill="#173d7a"/>
      </g>
      <g id="Grupo_163227" data-name="Grupo 163227" transform="translate(2.657 141.063)">
        <path id="Trazado_219750" data-name="Trazado 219750" d="M425.331,294.839l-53.794-31.057a5.222,5.222,0,0,1-2.18-4.166V249.357c0-1.605.976-2.343,2.18-1.648l53.794,31.058a5.222,5.222,0,0,1,2.18,4.166v10.257C427.511,294.8,426.535,295.534,425.331,294.839Z" transform="translate(-369.357 -247.448)" fill="#5793ce"/>
        <path id="Trazado_219751" data-name="Trazado 219751" d="M423.744,291.181l-50.705-29.275a2.65,2.65,0,0,1-1.106-2.114v-7.711c0-.814.5-1.189,1.106-.836l50.705,29.275a2.646,2.646,0,0,1,1.106,2.113v7.712C424.85,291.16,424.355,291.534,423.744,291.181Z" transform="translate(-369.314 -247.387)" fill="#d4ecff" opacity="0.4"/>
        <path id="Trazado_219752" data-name="Trazado 219752" d="M383.555,264.015l-7.567-4.369a2.572,2.572,0,0,1-1.074-2.052h0c0-.791.481-1.155,1.074-.812l7.567,4.369a2.572,2.572,0,0,1,1.075,2.052h0C384.629,263.994,384.148,264.358,383.555,264.015Z" transform="translate(-369.264 -247.294)" fill="#d4ecff"/>
        <path id="Trazado_219753" data-name="Trazado 219753" d="M389.795,266.185c0,.791-.555,1.111-1.239.716a2.739,2.739,0,0,1-1.24-2.147c0-.791.555-1.111,1.24-.717A2.743,2.743,0,0,1,389.795,266.185Z" transform="translate(-369.056 -247.173)" fill="#fff"/>
        <path id="Trazado_219754" data-name="Trazado 219754" d="M394.1,268.67c0,.79-.555,1.111-1.24.716a2.741,2.741,0,0,1-1.24-2.148c0-.791.555-1.111,1.24-.716A2.741,2.741,0,0,1,394.1,268.67Z" transform="translate(-368.984 -247.131)" fill="#173d7a"/>
        <path id="Trazado_219755" data-name="Trazado 219755" d="M398.4,271.154c0,.791-.555,1.111-1.24.716a2.741,2.741,0,0,1-1.24-2.147c0-.791.555-1.112,1.24-.717A2.741,2.741,0,0,1,398.4,271.154Z" transform="translate(-368.911 -247.089)" fill="#d4ecff"/>
        <path id="Trazado_219756" data-name="Trazado 219756" d="M402.7,273.639c0,.79-.555,1.111-1.24.716a2.744,2.744,0,0,1-1.24-2.148c0-.791.556-1.111,1.24-.716A2.741,2.741,0,0,1,402.7,273.639Z" transform="translate(-368.839 -247.048)" fill="#173d7a"/>
        <path id="Trazado_219757" data-name="Trazado 219757" d="M420.844,286.4l-2.549-1.471a1.651,1.651,0,0,1-.688-1.317v-2.7c0-.507.308-.74.688-.521l2.549,1.471a1.649,1.649,0,0,1,.689,1.318v2.7C421.534,286.383,421.226,286.617,420.844,286.4Z" transform="translate(-368.548 -246.897)" fill="#d4ecff"/>
      </g>
    </g>
    <g id="Grupo_163232" data-name="Grupo 163232" transform="translate(406.787 79.99)">
      <path id="Trazado_219758" data-name="Trazado 219758" d="M409.032,132.589a.812.812,0,0,1-.811-.812V98.337a.812.812,0,1,1,1.624,0v33.44A.812.812,0,0,1,409.032,132.589Z" transform="translate(-404.325 -78.762)" fill="#5793ce"/>
      <g id="Grupo_163231" data-name="Grupo 163231">
        <g id="Grupo_163229" data-name="Grupo 163229" transform="translate(1.802 17.473)">
          <rect id="Rectángulo_48411" data-name="Rectángulo 48411" width="5.81" height="12.537" transform="translate(0)" fill="#5793ce"/>
          <path id="Trazado_219759" data-name="Trazado 219759" d="M411.121,109.8a4.54,4.54,0,0,1-4.108,0,1.252,1.252,0,0,1,0-2.372,4.541,4.541,0,0,1,4.108,0A1.252,1.252,0,0,1,411.121,109.8Z" transform="translate(-406.162 -96.077)" fill="#5793ce"/>
        </g>
        <g id="Grupo_163230" data-name="Grupo 163230">
          <rect id="Rectángulo_48412" data-name="Rectángulo 48412" width="9.414" height="19.663" fill="#5793ce"/>
          <path id="Trazado_219760" data-name="Trazado 219760" d="M406.162,98.294v4.243a7.515,7.515,0,0,0,5.81,0V98.294A7.515,7.515,0,0,0,406.162,98.294Z" transform="translate(-404.36 -78.759)" fill="#396caa"/>
          <path id="Trazado_219761" data-name="Trazado 219761" d="M412.426,100.377a7.356,7.356,0,0,1-6.657,0c-1.838-1.062-1.838-2.782,0-3.843a7.354,7.354,0,0,1,6.656,0C414.263,97.595,414.263,99.315,412.426,100.377Z" transform="translate(-404.39 -78.792)" fill="#5793ce"/>
        </g>
      </g>
    </g>
    <g id="Grupo_163236" data-name="Grupo 163236" transform="translate(414.726 84.731)">
      <path id="Trazado_219762" data-name="Trazado 219762" d="M416.84,137.251a.813.813,0,0,1-.812-.812V103a.812.812,0,0,1,1.625,0v33.44A.812.812,0,0,1,416.84,137.251Z" transform="translate(-412.134 -83.425)" fill="#5793ce"/>
      <g id="Grupo_163235" data-name="Grupo 163235" transform="translate(0 0)">
        <g id="Grupo_163233" data-name="Grupo 163233" transform="translate(1.802 17.472)">
          <rect id="Rectángulo_48413" data-name="Rectángulo 48413" width="5.81" height="12.537" transform="translate(0)" fill="#5793ce"/>
          <path id="Trazado_219763" data-name="Trazado 219763" d="M418.929,114.461a4.534,4.534,0,0,1-4.108,0,1.251,1.251,0,0,1,0-2.371,4.54,4.54,0,0,1,4.108,0A1.251,1.251,0,0,1,418.929,114.461Z" transform="translate(-413.97 -100.739)" fill="#5793ce"/>
        </g>
        <g id="Grupo_163234" data-name="Grupo 163234">
          <rect id="Rectángulo_48414" data-name="Rectángulo 48414" width="9.414" height="19.663" fill="#5793ce"/>
          <path id="Trazado_219764" data-name="Trazado 219764" d="M413.97,102.957V107.2a7.515,7.515,0,0,0,5.81,0v-4.242A7.515,7.515,0,0,0,413.97,102.957Z" transform="translate(-412.168 -83.421)" fill="#396caa"/>
          <path id="Trazado_219765" data-name="Trazado 219765" d="M420.234,105.039a7.356,7.356,0,0,1-6.657,0c-1.838-1.062-1.838-2.782,0-3.843a7.362,7.362,0,0,1,6.657,0C422.071,102.257,422.072,103.977,420.234,105.039Z" transform="translate(-412.198 -83.455)" fill="#5793ce"/>
        </g>
      </g>
    </g>
    <g id="Grupo_163240" data-name="Grupo 163240" transform="translate(422.665 89.471)">
      <path id="Trazado_219766" data-name="Trazado 219766" d="M424.649,141.914a.811.811,0,0,1-.812-.812v-33.44a.812.812,0,0,1,1.625,0V141.1A.812.812,0,0,1,424.649,141.914Z" transform="translate(-419.942 -88.087)" fill="#5793ce"/>
      <g id="Grupo_163239" data-name="Grupo 163239" transform="translate(0 0)">
        <g id="Grupo_163237" data-name="Grupo 163237" transform="translate(1.802 17.472)">
          <rect id="Rectángulo_48415" data-name="Rectángulo 48415" width="5.81" height="12.537" transform="translate(0)" fill="#5793ce"/>
          <path id="Trazado_219767" data-name="Trazado 219767" d="M426.737,119.124a4.54,4.54,0,0,1-4.108,0,1.252,1.252,0,0,1,0-2.372,4.54,4.54,0,0,1,4.108,0A1.252,1.252,0,0,1,426.737,119.124Z" transform="translate(-421.778 -105.402)" fill="#5793ce"/>
        </g>
        <g id="Grupo_163238" data-name="Grupo 163238">
          <rect id="Rectángulo_48416" data-name="Rectángulo 48416" width="9.414" height="19.663" fill="#5793ce"/>
          <path id="Trazado_219768" data-name="Trazado 219768" d="M421.778,107.619v4.243a7.515,7.515,0,0,0,5.81,0v-4.243A7.515,7.515,0,0,0,421.778,107.619Z" transform="translate(-419.976 -88.084)" fill="#396caa"/>
          <path id="Trazado_219769" data-name="Trazado 219769" d="M428.042,109.7a7.362,7.362,0,0,1-6.657,0c-1.838-1.062-1.838-2.782,0-3.843a7.356,7.356,0,0,1,6.657,0C429.88,106.92,429.88,108.64,428.042,109.7Z" transform="translate(-420.006 -88.117)" fill="#5793ce"/>
        </g>
      </g>
    </g>
    <g id="Grupo_163244" data-name="Grupo 163244" transform="translate(430.604 94.212)">
      <path id="Trazado_219770" data-name="Trazado 219770" d="M432.456,146.576a.812.812,0,0,1-.812-.812v-33.44a.812.812,0,0,1,1.625,0v33.44A.811.811,0,0,1,432.456,146.576Z" transform="translate(-427.75 -92.749)" fill="#5793ce"/>
      <g id="Grupo_163243" data-name="Grupo 163243" transform="translate(0 0)">
        <g id="Grupo_163241" data-name="Grupo 163241" transform="translate(1.802 17.473)">
          <rect id="Rectángulo_48417" data-name="Rectángulo 48417" width="5.81" height="12.537" fill="#5793ce"/>
          <path id="Trazado_219771" data-name="Trazado 219771" d="M434.545,123.786a4.54,4.54,0,0,1-4.108,0,1.252,1.252,0,0,1,0-2.371,4.534,4.534,0,0,1,4.108,0A1.251,1.251,0,0,1,434.545,123.786Z" transform="translate(-429.586 -110.064)" fill="#5793ce"/>
        </g>
        <g id="Grupo_163242" data-name="Grupo 163242">
          <rect id="Rectángulo_48418" data-name="Rectángulo 48418" width="9.414" height="19.663" fill="#5793ce"/>
          <path id="Trazado_219772" data-name="Trazado 219772" d="M429.586,112.281v4.243a7.515,7.515,0,0,0,5.81,0v-4.243A7.524,7.524,0,0,0,429.586,112.281Z" transform="translate(-427.784 -92.746)" fill="#396caa"/>
          <path id="Trazado_219773" data-name="Trazado 219773" d="M435.85,114.364a7.356,7.356,0,0,1-6.657,0c-1.838-1.062-1.838-2.782,0-3.843a7.356,7.356,0,0,1,6.657,0C437.688,111.582,437.688,113.3,435.85,114.364Z" transform="translate(-427.814 -92.779)" fill="#5793ce"/>
        </g>
      </g>
    </g>
    <g id="Grupo_163251" data-name="Grupo 163251" transform="translate(375.406 24.307)">
      <g id="Grupo_163247" data-name="Grupo 163247">
        <path id="Trazado_219774" data-name="Trazado 219774" d="M468.774,128.785l12.623-7.434-12.021-15-3.16,5.163Z" transform="translate(-371.971 -22.931)" fill="#5793ce"/>
        <path id="Trazado_219775" data-name="Trazado 219775" d="M378.592,47.62l20.145-11.59s-.758,11.567-.758,11.59-11.573,3.585-11.573,3.585Z" transform="translate(-373.441 -24.111)" fill="#5793ce"/>
        <path id="Trazado_219776" data-name="Trazado 219776" d="M473.506,92.433a12.7,12.7,0,0,0-4.359-1.615c-2.031-10.675-9.459-22.011-18.315-27.124a17.928,17.928,0,0,0-7.495-2.536c-1.21-12.938-10.205-27.643-21.131-33.95-5.706-3.294-10.884-3.684-14.7-1.666v-.01l-.185.107c-.1.054-.194.11-.291.167L395.148,32.82l3.947,3.117c-3.543,1.549-5.782,5.523-5.782,11.4,0,10.833,7.605,24,16.986,29.421l63.207,45.134c7.044,4.067,12.755.771,12.755-7.363S480.55,96.5,473.506,92.433Z" transform="translate(-373.194 -24.307)" fill="#5793ce"/>
        <path id="Trazado_219777" data-name="Trazado 219777" d="M393.89,42.565l27.264-15.93c-5.292-2.761-10.075-2.988-13.661-1.094v-.01l-.185.107c-.1.054-.194.11-.291.167L395.139,32.82l3.947,3.117A9.524,9.524,0,0,0,393.89,42.565Z" transform="translate(-373.184 -24.307)" fill="#5793ce"/>
        <path id="Trazado_219778" data-name="Trazado 219778" d="M443.752,88.8l19.893-11.675c-3.412-5.9-8.11-11.056-13.312-14.06q-1.033-.6-2.038-1.048l-25.3,14.8Z" transform="translate(-372.696 -23.675)" fill="#5793ce"/>
        <path id="Trazado_219779" data-name="Trazado 219779" d="M400.631,34.115l8.865,5.118,16.236-9.563a32.3,32.3,0,0,0-3.648-2.472,22.778,22.778,0,0,0-5.674-2.383Z" transform="translate(-373.071 -24.299)" fill="#d4ecff"/>
        <path id="Trazado_219780" data-name="Trazado 219780" d="M461.079,73.494,445.2,82.849l5.523,6.16,14.413-8.51A46.189,46.189,0,0,0,461.079,73.494Z" transform="translate(-372.324 -23.482)" fill="#d4ecff"/>
        <path id="Trazado_219781" data-name="Trazado 219781" d="M461.366,99.659a12.684,12.684,0,0,0-4.359-1.616c-2.031-10.675-9.459-22.011-18.315-27.123a17.931,17.931,0,0,0-7.495-2.537c-1.21-12.938-10.205-27.642-21.131-33.95-11.748-6.783-21.272-1.284-21.272,12.282,0,.46.013.924.035,1.391-8.592-3.985-15.3.5-15.3,10.681,0,10.833,7.6,24,16.986,29.421l70.854,40.907c7.044,4.068,12.755.771,12.755-7.363S468.41,103.726,461.366,99.659Z" transform="translate(-373.526 -24.186)" fill="#d4ecff"/>
        <g id="Grupo_163245" data-name="Grupo 163245" transform="translate(3.885 6.331)">
          <path id="Trazado_219782" data-name="Trazado 219782" d="M388.765,47.872c-.021-.467-.035-.931-.035-1.391,0-.019,0-.039,0-.058-4.746-1.845-8.825-1.042-11.385,1.92C380.128,46.054,384.172,45.741,388.765,47.872Z" transform="translate(-377.347 -30.285)" fill="#fff"/>
          <path id="Trazado_219783" data-name="Trazado 219783" d="M462.074,98.664a12.7,12.7,0,0,0-4.359-1.615c-2.03-10.675-9.459-22.011-18.315-27.124a17.923,17.923,0,0,0-7.495-2.536c-1.209-12.938-10.205-27.643-21.13-33.95-7.32-4.226-13.775-3.683-17.6.606,3.9-3.332,9.869-3.461,16.564.406,10.925,6.306,19.921,21.011,21.131,33.949a17.943,17.943,0,0,1,7.495,2.536c8.856,5.113,16.284,16.449,18.315,27.124a12.684,12.684,0,0,1,4.359,1.616c7.044,4.067,12.755,13.958,12.755,22.092a10.507,10.507,0,0,1-2.035,6.786c1.911-1.472,3.072-4.14,3.072-7.8C474.829,112.623,469.118,102.731,462.074,98.664Z" transform="translate(-377.082 -30.534)" fill="#fff"/>
        </g>
        <g id="Grupo_163246" data-name="Grupo 163246" transform="translate(3.561 10.895)">
          <path id="Trazado_219784" data-name="Trazado 219784" d="M387.272,51.277l5.327,2.47-.272-5.864c-.019-.412-.03-.822-.03-1.227,0-5.235,1.58-9.03,4.449-10.687s6.949-1.127,11.481,1.49c9.75,5.63,18.256,19.333,19.364,31.2l.28,2.989,2.993.23a14.4,14.4,0,0,1,5.988,2.07c7.744,4.471,14.724,14.861,16.6,24.7l.469,2.465,2.478.387a9.218,9.218,0,0,1,3.131,1.183c5.948,3.435,10.975,12.139,10.975,19.009,0,2.57-.714,4.457-1.956,5.174s-3.231.391-5.458-.894L392.234,85.066c-8.242-4.758-15.206-16.819-15.206-26.337,0-3.735,1.1-6.58,3.022-7.807a5.17,5.17,0,0,1,2.824-.755A10.644,10.644,0,0,1,387.272,51.277Z" transform="translate(-377.028 -35.022)" fill="#396caa"/>
        </g>
      </g>
      <g id="Grupo_163250" data-name="Grupo 163250" transform="translate(33.715 45.323)">
        <path id="Trazado_219785" data-name="Trazado 219785" d="M421.882,94.722l1.869-.938-1.84-1.394Z" transform="translate(-406.43 -68.488)" fill="#5793ce"/>
        <path id="Trazado_219786" data-name="Trazado 219786" d="M416.361,69.866l1.814-.918.033.95Z" transform="translate(-406.522 -68.882)" fill="#5793ce"/>
        <path id="Trazado_219787" data-name="Trazado 219787" d="M427.155,88.951,429.049,88,425.4,84.533Z" transform="translate(-406.371 -68.62)" fill="#5793ce"/>
        <g id="Grupo_163248" data-name="Grupo 163248" transform="translate(1.897)">
          <path id="Trazado_219788" data-name="Trazado 219788" d="M423.342,93.981l-8.85-5.211a1.89,1.89,0,0,1-.81-1.489l.029-10.245,10.476,6.17-.03,10.245C424.157,94.008,423.791,94.246,423.342,93.981Z" transform="translate(-408.465 -68.746)" fill="#5793ce"/>
          <path id="Trazado_219789" data-name="Trazado 219789" d="M418.288,68.961l-9.558,6.15c-.406.26-.078,1.233.538,1.6l9.761,5.749,9.761,5.749c.616.363.949-.222.546-.959l-9.492-17.369C419.435,69.128,418.7,68.7,418.288,68.961Z" transform="translate(-408.551 -68.883)" fill="#5793ce"/>
        </g>
        <g id="Grupo_163249" data-name="Grupo 163249" transform="translate(0 0.956)">
          <path id="Trazado_219790" data-name="Trazado 219790" d="M421.475,94.921l-8.849-5.212a1.883,1.883,0,0,1-.81-1.488l.029-10.245,10.475,6.17-.029,10.245C422.29,94.948,421.925,95.185,421.475,94.921Z" transform="translate(-406.599 -69.686)" fill="#d4ecff"/>
          <path id="Trazado_219791" data-name="Trazado 219791" d="M416.421,69.9l-9.557,6.149c-.406.261-.078,1.234.538,1.6l9.761,5.749,9.761,5.749c.616.363.949-.222.545-.959l-9.491-17.369C417.569,70.068,416.834,69.636,416.421,69.9Z" transform="translate(-406.685 -69.823)" fill="#d4ecff"/>
        </g>
      </g>
    </g>
    <path id="Trazado_219792" data-name="Trazado 219792" d="M452.77,274.843h-1.084V214.277l7.152-4.13V180.333h1.084v30.44l-7.152,4.13Z" transform="translate(3.191 2.617)" fill="#fff"/>
    <g id="Grupo_163252" data-name="Grupo 163252" transform="translate(261.467 245.835)">
      <path id="Trazado_219793" data-name="Trazado 219793" d="M284.025,286.891a3.716,3.716,0,0,1-1.832-.485L262.43,275.215a1.9,1.9,0,0,1-.016-3.293l49.3-28.515a9.189,9.189,0,0,1,9.169,0l56.344,32.565-.813,1.408-56.343-32.565a7.565,7.565,0,0,0-7.543,0l-49.3,28.514a.272.272,0,0,0,0,.473l19.764,11.191a2.082,2.082,0,0,0,2.167-.063l8.351-5.4.883,1.365-8.352,5.4A3.71,3.71,0,0,1,284.025,286.891Z" transform="translate(-261.467 -242.18)" fill="#b2d3ea"/>
    </g>
    <g id="Grupo_163263" data-name="Grupo 163263" transform="translate(274.369 194.137)">
      <path id="Trazado_219794" data-name="Trazado 219794" d="M309.418,290.979l-26.566-15.338c-1.631-.942-1.426-2.586.457-3.673l25.652-14.811a7.071,7.071,0,0,1,6.362-.263l26.566,15.338c1.631.942,1.427,2.587-.457,3.674l-25.652,14.81A7.071,7.071,0,0,1,309.418,290.979Z" transform="translate(-274.029 -190.247)" fill="#b2d3ea"/>
      <g id="Grupo_163254" data-name="Grupo 163254" transform="translate(0 36.687)">
        <path id="Trazado_219795" data-name="Trazado 219795" d="M350.83,260.765h0V249.287l-25.739-.014-8.9-5.137c-2.042-1.178-5.609-1.031-7.965.33l-8.3,4.792-25.762-.014V261.05a2.308,2.308,0,0,0,1.369,2.133L308.8,282.391c2.042,1.178,5.608,1.031,7.966-.33l32.122-18.546C350.25,262.73,350.906,261.712,350.83,260.765Z" transform="translate(-274.156 -227.15)" fill="#396caa"/>
        <path id="Trazado_219796" data-name="Trazado 219796" d="M312.5,243.347a9.18,9.18,0,0,0-4.269,1.119l-8.3,4.792-25.762-.014V261.05a2.308,2.308,0,0,0,1.369,2.133L308.8,282.391a7.2,7.2,0,0,0,3.7.789Z" transform="translate(-274.156 -227.15)" fill="#396caa"/>
        <path id="Trazado_219797" data-name="Trazado 219797" d="M277.082,249.149l-2.916,0v11.806a2.308,2.308,0,0,0,1.369,2.133l1.548.894Z" transform="translate(-274.156 -227.053)" fill="#5793ce"/>
        <path id="Trazado_219798" data-name="Trazado 219798" d="M308.734,282.216a9.079,9.079,0,0,0,6.368-.073v-13.4h-6.368Z" transform="translate(-273.576 -226.724)" fill="#5793ce"/>
        <path id="Trazado_219799" data-name="Trazado 219799" d="M308.8,270.9l-33.267-19.207c-2.042-1.178-1.786-3.237.571-4.6l32.123-18.546c2.357-1.361,5.924-1.509,7.965-.33l33.268,19.207c2.042,1.179,1.785,3.238-.572,4.6l-32.122,18.546C314.41,271.926,310.843,272.074,308.8,270.9Z" transform="translate(-274.156 -227.417)" fill="#d4ecff"/>
        <path id="Trazado_219800" data-name="Trazado 219800" d="M309.3,267.379l-27.878-16.1c-1.711-.987-1.5-2.714.479-3.854l26.919-15.542a7.42,7.42,0,0,1,6.675-.277l27.879,16.1c1.71.988,1.5,2.714-.48,3.855L315.973,267.1A7.417,7.417,0,0,1,309.3,267.379Z" transform="translate(-274.054 -227.358)" fill="#5793ce"/>
        <g id="Grupo_163253" data-name="Grupo 163253" transform="translate(61.751 30.694)">
          <path id="Trazado_219801" data-name="Trazado 219801" d="M337.575,263.474a2.973,2.973,0,0,1-1.344,2.327c-.742.428-1.343.08-1.343-.776a2.968,2.968,0,0,1,1.343-2.327C336.973,262.269,337.575,262.617,337.575,263.474Z" transform="translate(-334.888 -257.522)" fill="#d4ecff"/>
          <path id="Trazado_219802" data-name="Trazado 219802" d="M341.826,261.019a2.97,2.97,0,0,1-1.343,2.327c-.742.428-1.344.08-1.344-.776a2.969,2.969,0,0,1,1.344-2.327C341.225,259.814,341.826,260.162,341.826,261.019Z" transform="translate(-334.817 -257.563)" fill="#d4ecff"/>
          <path id="Trazado_219803" data-name="Trazado 219803" d="M346.078,258.564a2.97,2.97,0,0,1-1.343,2.327c-.742.428-1.344.081-1.344-.776a2.971,2.971,0,0,1,1.344-2.327C345.477,257.36,346.078,257.707,346.078,258.564Z" transform="translate(-334.745 -257.605)" fill="#d4ecff"/>
        </g>
      </g>
      <g id="Grupo_163256" data-name="Grupo 163256" transform="translate(0 18.344)">
        <path id="Trazado_219804" data-name="Trazado 219804" d="M350.83,242.724h0V231.246l-25.739-.014-8.9-5.137c-2.042-1.178-5.609-1.031-7.965.33l-8.3,4.792-25.762-.014v11.806a2.311,2.311,0,0,0,1.369,2.134L308.8,264.35c2.042,1.178,5.608,1.031,7.966-.33l32.122-18.546C350.25,244.689,350.906,243.672,350.83,242.724Z" transform="translate(-274.156 -209.109)" fill="#396caa"/>
        <path id="Trazado_219805" data-name="Trazado 219805" d="M312.5,225.306a9.168,9.168,0,0,0-4.269,1.119l-8.3,4.792-25.762-.014v11.806a2.311,2.311,0,0,0,1.369,2.134L308.8,264.35a7.213,7.213,0,0,0,3.7.789Z" transform="translate(-274.156 -209.109)" fill="#396caa"/>
        <path id="Trazado_219806" data-name="Trazado 219806" d="M277.082,231.108l-2.916,0v11.806a2.311,2.311,0,0,0,1.369,2.134l1.548.893Z" transform="translate(-274.156 -209.012)" fill="#5793ce"/>
        <path id="Trazado_219807" data-name="Trazado 219807" d="M308.734,264.175a9.079,9.079,0,0,0,6.368-.073V250.7h-6.368Z" transform="translate(-273.576 -208.683)" fill="#5793ce"/>
        <path id="Trazado_219808" data-name="Trazado 219808" d="M308.8,252.854l-33.267-19.207c-2.042-1.178-1.786-3.237.571-4.6L308.229,210.5c2.357-1.361,5.924-1.509,7.965-.33l33.268,19.207c2.042,1.179,1.785,3.238-.572,4.6l-32.122,18.546C314.41,253.885,310.843,254.034,308.8,252.854Z" transform="translate(-274.156 -209.376)" fill="#d4ecff"/>
        <path id="Trazado_219809" data-name="Trazado 219809" d="M309.3,249.338l-27.878-16.1c-1.711-.988-1.5-2.714.479-3.854l26.919-15.542a7.423,7.423,0,0,1,6.675-.277l27.879,16.1c1.71.988,1.5,2.714-.48,3.855l-26.919,15.541A7.417,7.417,0,0,1,309.3,249.338Z" transform="translate(-274.054 -209.317)" fill="#5793ce"/>
        <g id="Grupo_163255" data-name="Grupo 163255" transform="translate(61.751 30.694)">
          <path id="Trazado_219810" data-name="Trazado 219810" d="M337.575,245.433a2.972,2.972,0,0,1-1.344,2.327c-.742.428-1.343.08-1.343-.776a2.968,2.968,0,0,1,1.343-2.327C336.973,244.228,337.575,244.576,337.575,245.433Z" transform="translate(-334.888 -239.481)" fill="#d4ecff"/>
          <path id="Trazado_219811" data-name="Trazado 219811" d="M341.826,242.978a2.97,2.97,0,0,1-1.343,2.327c-.742.428-1.344.081-1.344-.776a2.969,2.969,0,0,1,1.344-2.327C341.225,241.774,341.826,242.121,341.826,242.978Z" transform="translate(-334.817 -239.522)" fill="#d4ecff"/>
          <path id="Trazado_219812" data-name="Trazado 219812" d="M346.078,240.523a2.968,2.968,0,0,1-1.343,2.327c-.742.428-1.344.081-1.344-.776a2.969,2.969,0,0,1,1.344-2.327C345.477,239.319,346.078,239.666,346.078,240.523Z" transform="translate(-334.745 -239.564)" fill="#d4ecff"/>
        </g>
      </g>
      <g id="Grupo_163259" data-name="Grupo 163259">
        <path id="Trazado_219813" data-name="Trazado 219813" d="M350.83,224.683h0V213.205l-25.739-.014-8.9-5.137c-2.042-1.178-5.609-1.031-7.965.33l-8.3,4.792-25.762-.014v11.806a2.31,2.31,0,0,0,1.369,2.134L308.8,246.309c2.042,1.178,5.608,1.031,7.966-.33l32.122-18.546C350.25,226.648,350.906,225.631,350.83,224.683Z" transform="translate(-274.156 -191.068)" fill="#396caa"/>
        <path id="Trazado_219814" data-name="Trazado 219814" d="M312.5,207.265a9.18,9.18,0,0,0-4.269,1.119l-8.3,4.792-25.762-.014v11.806a2.31,2.31,0,0,0,1.369,2.134L308.8,246.309a7.213,7.213,0,0,0,3.7.79Z" transform="translate(-274.156 -191.068)" fill="#396caa"/>
        <path id="Trazado_219815" data-name="Trazado 219815" d="M277.082,213.067l-2.916,0v11.806A2.31,2.31,0,0,0,275.535,227l1.548.893Z" transform="translate(-274.156 -190.971)" fill="#5793ce"/>
        <path id="Trazado_219816" data-name="Trazado 219816" d="M308.734,246.134a9.079,9.079,0,0,0,6.368-.073v-13.4h-6.368Z" transform="translate(-273.576 -190.642)" fill="#5793ce"/>
        <path id="Trazado_219817" data-name="Trazado 219817" d="M308.8,234.813l-33.267-19.207c-2.042-1.178-1.786-3.237.571-4.6l32.123-18.546c2.357-1.361,5.924-1.509,7.965-.33l33.268,19.207c2.042,1.179,1.785,3.238-.572,4.6l-32.122,18.545C314.41,235.844,310.843,235.993,308.8,234.813Z" transform="translate(-274.156 -191.335)" fill="#d4ecff"/>
        <path id="Trazado_219818" data-name="Trazado 219818" d="M348.89,213.334,316.768,231.88c-2.358,1.361-5.925,1.509-7.966.33L275.535,213a3.06,3.06,0,0,1-1.019-.9c-.7,1.13-.383,2.354,1.019,3.163L308.8,234.468c2.042,1.179,5.608,1.031,7.966-.33l32.122-18.545c1.832-1.058,2.388-2.536,1.591-3.7A4.454,4.454,0,0,1,348.89,213.334Z" transform="translate(-274.156 -190.991)" fill="#fff"/>
        <g id="Grupo_163257" data-name="Grupo 163257" transform="translate(61.751 30.694)">
          <path id="Trazado_219819" data-name="Trazado 219819" d="M337.575,227.392a2.972,2.972,0,0,1-1.344,2.327c-.742.428-1.343.08-1.343-.776a2.968,2.968,0,0,1,1.343-2.327C336.973,226.187,337.575,226.535,337.575,227.392Z" transform="translate(-334.888 -221.44)" fill="#d4ecff"/>
          <path id="Trazado_219820" data-name="Trazado 219820" d="M341.826,224.937a2.97,2.97,0,0,1-1.343,2.327c-.742.428-1.344.081-1.344-.776a2.969,2.969,0,0,1,1.344-2.327C341.225,223.733,341.826,224.08,341.826,224.937Z" transform="translate(-334.817 -221.481)" fill="#d4ecff"/>
          <path id="Trazado_219821" data-name="Trazado 219821" d="M346.078,222.482a2.968,2.968,0,0,1-1.343,2.327c-.742.428-1.344.081-1.344-.776a2.969,2.969,0,0,1,1.344-2.327C345.477,221.278,346.078,221.625,346.078,222.482Z" transform="translate(-334.745 -221.523)" fill="#d4ecff"/>
        </g>
        <g id="Grupo_163258" data-name="Grupo 163258" transform="translate(20.4 11.224)">
          <path id="Trazado_219822" data-name="Trazado 219822" d="M310.432,222.721l-15.568-8.988c-.955-.551-.836-1.515.267-2.153l15.032-8.678a4.143,4.143,0,0,1,3.727-.155l15.568,8.988c.956.551.836,1.515-.267,2.152l-15.032,8.679A4.146,4.146,0,0,1,310.432,222.721Z" transform="translate(-294.22 -202.375)" fill="#5793ce"/>
          <path id="Trazado_219823" data-name="Trazado 219823" d="M311.668,215.029l-2.155-1.244c-.132-.076-.115-.209.038-.3l2.079-1.2a.572.572,0,0,1,.516-.022l2.155,1.244c.132.077.115.21-.038.3l-2.079,1.2A.572.572,0,0,1,311.668,215.029Z" transform="translate(-293.965 -202.21)" fill="#d4ecff"/>
          <path id="Trazado_219824" data-name="Trazado 219824" d="M294.865,213.732l.045.025a2.508,2.508,0,0,1,.223-.154l15.032-8.679a4.146,4.146,0,0,1,3.727-.155l15.524,8.963c.881-.63.926-1.489.044-2l-15.568-8.988a4.143,4.143,0,0,0-3.727.155l-15.032,8.678C294.029,212.217,293.91,213.181,294.865,213.732Z" transform="translate(-294.22 -202.375)" fill="#396caa"/>
        </g>
      </g>
      <g id="Grupo_163260" data-name="Grupo 163260" transform="translate(27.888 43.534)">
        <path id="Trazado_219825" data-name="Trazado 219825" d="M306.152,237.423c0,.577-.406.81-.9.523a2,2,0,0,1-.9-1.567c0-.577.4-.81.9-.522A2,2,0,0,1,306.152,237.423Z" transform="translate(-301.538 -234.125)" fill="#d4ecff"/>
        <path id="Trazado_219826" data-name="Trazado 219826" d="M303.393,235.841c0,.577-.4.81-.9.522a2,2,0,0,1-.9-1.566c0-.577.4-.81.9-.522A2,2,0,0,1,303.393,235.841Z" transform="translate(-301.584 -234.151)" fill="#d4ecff"/>
        <path id="Trazado_219827" data-name="Trazado 219827" d="M306.152,240.753c0,.577-.406.81-.9.522a2,2,0,0,1-.9-1.566c0-.577.4-.81.9-.523A2,2,0,0,1,306.152,240.753Z" transform="translate(-301.538 -234.069)" fill="#d4ecff"/>
        <path id="Trazado_219828" data-name="Trazado 219828" d="M303.393,239.17c0,.578-.4.81-.9.523a2,2,0,0,1-.9-1.567c0-.577.4-.81.9-.522A2,2,0,0,1,303.393,239.17Z" transform="translate(-301.584 -234.095)" fill="#d4ecff"/>
      </g>
      <g id="Grupo_163261" data-name="Grupo 163261" transform="translate(27.888 61.787)">
        <path id="Trazado_219829" data-name="Trazado 219829" d="M306.152,255.375c0,.577-.406.81-.9.522a2,2,0,0,1-.9-1.566c0-.577.4-.81.9-.523A2,2,0,0,1,306.152,255.375Z" transform="translate(-301.538 -252.076)" fill="#d4ecff"/>
        <path id="Trazado_219830" data-name="Trazado 219830" d="M303.393,253.792c0,.578-.4.81-.9.523a2,2,0,0,1-.9-1.567c0-.577.4-.809.9-.522A2,2,0,0,1,303.393,253.792Z" transform="translate(-301.584 -252.103)" fill="#d4ecff"/>
        <path id="Trazado_219831" data-name="Trazado 219831" d="M306.152,258.7c0,.577-.406.81-.9.523a2,2,0,0,1-.9-1.567c0-.576.4-.81.9-.522A2,2,0,0,1,306.152,258.7Z" transform="translate(-301.538 -252.02)" fill="#d4ecff"/>
        <path id="Trazado_219832" data-name="Trazado 219832" d="M303.393,257.122c0,.577-.4.81-.9.522a2,2,0,0,1-.9-1.566c0-.576.4-.81.9-.523A2,2,0,0,1,303.393,257.122Z" transform="translate(-301.584 -252.047)" fill="#d4ecff"/>
      </g>
      <g id="Grupo_163262" data-name="Grupo 163262" transform="translate(27.888 80.039)">
        <path id="Trazado_219833" data-name="Trazado 219833" d="M306.152,273.326c0,.577-.406.81-.9.522a2,2,0,0,1-.9-1.566c0-.576.4-.81.9-.522A2,2,0,0,1,306.152,273.326Z" transform="translate(-301.538 -270.027)" fill="#d4ecff"/>
        <path id="Trazado_219834" data-name="Trazado 219834" d="M303.393,271.744c0,.577-.4.81-.9.522a2,2,0,0,1-.9-1.566c0-.577.4-.81.9-.523A2,2,0,0,1,303.393,271.744Z" transform="translate(-301.584 -270.054)" fill="#d4ecff"/>
        <path id="Trazado_219835" data-name="Trazado 219835" d="M306.152,276.656c0,.577-.406.81-.9.522a2,2,0,0,1-.9-1.566c0-.578.4-.81.9-.523A2,2,0,0,1,306.152,276.656Z" transform="translate(-301.538 -269.972)" fill="#d4ecff"/>
        <path id="Trazado_219836" data-name="Trazado 219836" d="M303.393,275.073c0,.577-.4.81-.9.523a2,2,0,0,1-.9-1.567c0-.577.4-.81.9-.522A2,2,0,0,1,303.393,275.073Z" transform="translate(-301.584 -269.998)" fill="#d4ecff"/>
      </g>
    </g>
    <path id="Trazado_219837" data-name="Trazado 219837" d="M312.628,304.188a5.478,5.478,0,0,1-2.751-.738l-16.764-9.728a1.826,1.826,0,0,1,0-3.16l11.024-6.393.816,1.405-11.025,6.395a.2.2,0,0,0,0,.348l16.765,9.729a3.874,3.874,0,0,0,3.843.014l32.835-18.711a5.506,5.506,0,0,1,5.468.022l27.5,15.886a3.859,3.859,0,0,0,3.87.006l13.262-7.669L398.29,293l-13.262,7.669a5.491,5.491,0,0,1-5.5-.008l-27.5-15.885a3.873,3.873,0,0,0-3.849-.017l-32.835,18.711A5.475,5.475,0,0,1,312.628,304.188Z" transform="translate(0.516 4.333)" fill="#b2d3ea"/>
    <g id="Grupo_163271" data-name="Grupo 163271" transform="translate(423.381 269.682)">
      <path id="Trazado_219838" data-name="Trazado 219838" d="M455.972,365.278,429.406,349.94c-1.631-.942-1.427-2.586.457-3.673l25.652-14.81a7.072,7.072,0,0,1,6.362-.264l26.566,15.339c1.631.94,1.427,2.586-.457,3.673l-25.652,14.81A7.071,7.071,0,0,1,455.972,365.278Z" transform="translate(-420.582 -264.546)" fill="#b2d3ea"/>
      <g id="Grupo_163265" data-name="Grupo 163265" transform="translate(0 36.687)">
        <path id="Trazado_219839" data-name="Trazado 219839" d="M497.384,335.065h0V323.586l-25.739-.014-8.9-5.136c-2.042-1.179-5.609-1.032-7.965.329l-8.3,4.792-25.762-.014v11.806a2.31,2.31,0,0,0,1.369,2.134l33.267,19.207c2.042,1.178,5.609,1.031,7.966-.33l32.122-18.546C496.8,337.029,497.46,336.012,497.384,335.065Z" transform="translate(-420.71 -301.449)" fill="#396caa"/>
        <path id="Trazado_219840" data-name="Trazado 219840" d="M459.052,317.646a9.18,9.18,0,0,0-4.269,1.12l-8.3,4.792-25.762-.014v11.806a2.31,2.31,0,0,0,1.369,2.134l33.267,19.207a7.213,7.213,0,0,0,3.7.79Z" transform="translate(-420.71 -301.449)" fill="#396caa"/>
        <path id="Trazado_219841" data-name="Trazado 219841" d="M423.636,323.448l-2.916,0v11.806a2.31,2.31,0,0,0,1.369,2.134l1.548.893Z" transform="translate(-420.71 -301.352)" fill="#5793ce"/>
        <path id="Trazado_219842" data-name="Trazado 219842" d="M455.288,356.515a9.073,9.073,0,0,0,6.368-.073v-13.4h-6.368Z" transform="translate(-420.13 -301.023)" fill="#5793ce"/>
        <path id="Trazado_219843" data-name="Trazado 219843" d="M455.355,345.194l-33.267-19.207c-2.043-1.178-1.786-3.237.571-4.6l32.123-18.546c2.357-1.361,5.924-1.509,7.965-.33l33.268,19.207c2.042,1.179,1.785,3.238-.572,4.6l-32.122,18.546C460.964,346.225,457.4,346.374,455.355,345.194Z" transform="translate(-420.71 -301.716)" fill="#d4ecff"/>
        <path id="Trazado_219844" data-name="Trazado 219844" d="M455.852,341.678l-27.878-16.1c-1.711-.987-1.5-2.713.479-3.854l26.919-15.541a7.42,7.42,0,0,1,6.675-.278l27.879,16.1c1.71.988,1.5,2.714-.48,3.855L462.527,341.4A7.417,7.417,0,0,1,455.852,341.678Z" transform="translate(-420.607 -301.657)" fill="#5793ce"/>
        <g id="Grupo_163264" data-name="Grupo 163264" transform="translate(61.751 30.694)">
          <path id="Trazado_219845" data-name="Trazado 219845" d="M484.129,337.773a2.971,2.971,0,0,1-1.344,2.327c-.742.428-1.343.081-1.343-.776A2.968,2.968,0,0,1,482.785,337C483.527,336.569,484.129,336.916,484.129,337.773Z" transform="translate(-481.442 -331.821)" fill="#d4ecff"/>
          <path id="Trazado_219846" data-name="Trazado 219846" d="M488.38,335.318a2.968,2.968,0,0,1-1.343,2.327c-.742.428-1.344.081-1.344-.776a2.971,2.971,0,0,1,1.344-2.327C487.779,334.114,488.38,334.461,488.38,335.318Z" transform="translate(-481.371 -331.862)" fill="#d4ecff"/>
          <path id="Trazado_219847" data-name="Trazado 219847" d="M492.632,332.863a2.968,2.968,0,0,1-1.343,2.327c-.742.428-1.344.081-1.344-.776a2.971,2.971,0,0,1,1.344-2.327C492.031,331.659,492.632,332.006,492.632,332.863Z" transform="translate(-481.299 -331.904)" fill="#d4ecff"/>
        </g>
      </g>
      <g id="Grupo_163267" data-name="Grupo 163267" transform="translate(0 18.344)">
        <path id="Trazado_219848" data-name="Trazado 219848" d="M497.384,317.024h0V305.545l-25.739-.014-8.9-5.137c-2.042-1.178-5.609-1.03-7.965.33l-8.3,4.793L420.72,305.5v11.806a2.31,2.31,0,0,0,1.369,2.134l33.267,19.207c2.042,1.178,5.609,1.031,7.966-.33l32.122-18.546C496.8,318.988,497.46,317.971,497.384,317.024Z" transform="translate(-420.71 -283.408)" fill="#396caa"/>
        <path id="Trazado_219849" data-name="Trazado 219849" d="M459.052,299.605a9.18,9.18,0,0,0-4.269,1.119l-8.3,4.793L420.72,305.5v11.806a2.31,2.31,0,0,0,1.369,2.134l33.267,19.207a7.213,7.213,0,0,0,3.7.79Z" transform="translate(-420.71 -283.408)" fill="#396caa"/>
        <path id="Trazado_219850" data-name="Trazado 219850" d="M423.636,305.407l-2.916,0v11.806a2.31,2.31,0,0,0,1.369,2.134l1.548.894Z" transform="translate(-420.71 -283.311)" fill="#5793ce"/>
        <path id="Trazado_219851" data-name="Trazado 219851" d="M455.288,338.474a9.079,9.079,0,0,0,6.368-.073V325h-6.368Z" transform="translate(-420.13 -282.982)" fill="#5793ce"/>
        <path id="Trazado_219852" data-name="Trazado 219852" d="M455.355,327.153l-33.267-19.207c-2.043-1.178-1.786-3.237.571-4.6L454.783,284.8c2.357-1.361,5.924-1.509,7.965-.33l33.268,19.208c2.042,1.178,1.785,3.237-.572,4.6l-32.122,18.546C460.964,328.184,457.4,328.333,455.355,327.153Z" transform="translate(-420.71 -283.675)" fill="#d4ecff"/>
        <path id="Trazado_219853" data-name="Trazado 219853" d="M455.852,323.637l-27.878-16.1c-1.711-.987-1.5-2.713.479-3.854l26.919-15.542a7.423,7.423,0,0,1,6.675-.277l27.879,16.1c1.71.987,1.5,2.713-.48,3.854L462.527,323.36A7.417,7.417,0,0,1,455.852,323.637Z" transform="translate(-420.607 -283.616)" fill="#5793ce"/>
        <g id="Grupo_163266" data-name="Grupo 163266" transform="translate(61.751 30.693)">
          <path id="Trazado_219854" data-name="Trazado 219854" d="M484.129,319.732a2.971,2.971,0,0,1-1.344,2.327c-.742.428-1.343.081-1.343-.776a2.968,2.968,0,0,1,1.343-2.327C483.527,318.528,484.129,318.875,484.129,319.732Z" transform="translate(-481.442 -313.78)" fill="#d4ecff"/>
          <path id="Trazado_219855" data-name="Trazado 219855" d="M488.38,317.277a2.968,2.968,0,0,1-1.343,2.327c-.742.428-1.344.081-1.344-.776a2.971,2.971,0,0,1,1.344-2.327C487.779,316.073,488.38,316.42,488.38,317.277Z" transform="translate(-481.371 -313.821)" fill="#d4ecff"/>
          <path id="Trazado_219856" data-name="Trazado 219856" d="M492.632,314.822a2.968,2.968,0,0,1-1.343,2.327c-.742.428-1.344.081-1.344-.776a2.971,2.971,0,0,1,1.344-2.327C492.031,313.618,492.632,313.965,492.632,314.822Z" transform="translate(-481.299 -313.863)" fill="#d4ecff"/>
        </g>
      </g>
      <g id="Grupo_163270" data-name="Grupo 163270">
        <path id="Trazado_219857" data-name="Trazado 219857" d="M497.384,298.983h0V287.5l-25.739-.014-8.9-5.136c-2.042-1.179-5.609-1.031-7.965.329l-8.3,4.792-25.762-.014v11.806a2.309,2.309,0,0,0,1.369,2.134l33.267,19.207c2.042,1.178,5.609,1.031,7.966-.33l32.122-18.546C496.8,300.947,497.46,299.93,497.384,298.983Z" transform="translate(-420.71 -265.367)" fill="#396caa"/>
        <path id="Trazado_219858" data-name="Trazado 219858" d="M459.052,281.564a9.192,9.192,0,0,0-4.269,1.119l-8.3,4.792-25.762-.014v11.806a2.309,2.309,0,0,0,1.369,2.134l33.267,19.207a7.213,7.213,0,0,0,3.7.79Z" transform="translate(-420.71 -265.367)" fill="#396caa"/>
        <path id="Trazado_219859" data-name="Trazado 219859" d="M423.636,287.366l-2.916,0V299.17a2.309,2.309,0,0,0,1.369,2.134l1.548.894Z" transform="translate(-420.71 -265.27)" fill="#5793ce"/>
        <path id="Trazado_219860" data-name="Trazado 219860" d="M455.288,320.433a9.073,9.073,0,0,0,6.368-.073v-13.4h-6.368Z" transform="translate(-420.13 -264.941)" fill="#5793ce"/>
        <path id="Trazado_219861" data-name="Trazado 219861" d="M455.355,309.113l-33.267-19.208c-2.043-1.178-1.786-3.237.571-4.6l32.123-18.546c2.357-1.361,5.924-1.509,7.965-.33l33.268,19.208c2.042,1.178,1.785,3.237-.572,4.6l-32.122,18.546C460.964,310.143,457.4,310.292,455.355,309.113Z" transform="translate(-420.71 -265.634)" fill="#d4ecff"/>
        <path id="Trazado_219862" data-name="Trazado 219862" d="M495.444,287.633l-32.122,18.546c-2.358,1.361-5.925,1.509-7.966.33L422.089,287.3a3.082,3.082,0,0,1-1.019-.9c-.7,1.129-.383,2.353,1.019,3.162l33.267,19.208c2.042,1.178,5.609,1.03,7.966-.33l32.122-18.546c1.832-1.058,2.388-2.536,1.591-3.695A4.454,4.454,0,0,1,495.444,287.633Z" transform="translate(-420.71 -265.29)" fill="#fff"/>
        <g id="Grupo_163268" data-name="Grupo 163268" transform="translate(61.751 30.694)">
          <path id="Trazado_219863" data-name="Trazado 219863" d="M484.129,301.691a2.971,2.971,0,0,1-1.344,2.327c-.742.428-1.343.081-1.343-.776a2.968,2.968,0,0,1,1.343-2.327C483.527,300.487,484.129,300.834,484.129,301.691Z" transform="translate(-481.442 -295.739)" fill="#d4ecff"/>
          <path id="Trazado_219864" data-name="Trazado 219864" d="M488.38,299.236a2.968,2.968,0,0,1-1.343,2.327c-.742.428-1.344.081-1.344-.776a2.971,2.971,0,0,1,1.344-2.327C487.779,298.032,488.38,298.379,488.38,299.236Z" transform="translate(-481.371 -295.781)" fill="#d4ecff"/>
          <path id="Trazado_219865" data-name="Trazado 219865" d="M492.632,296.781a2.968,2.968,0,0,1-1.343,2.327c-.742.429-1.344.081-1.344-.776a2.972,2.972,0,0,1,1.344-2.327C492.031,295.577,492.632,295.925,492.632,296.781Z" transform="translate(-481.299 -295.822)" fill="#d4ecff"/>
        </g>
        <g id="Grupo_163269" data-name="Grupo 163269" transform="translate(20.4 11.225)">
          <path id="Trazado_219866" data-name="Trazado 219866" d="M456.986,297.02l-15.568-8.988c-.956-.551-.836-1.515.267-2.151l15.032-8.679a4.146,4.146,0,0,1,3.728-.155l15.568,8.988c.956.551.836,1.515-.267,2.151l-15.032,8.679A4.146,4.146,0,0,1,456.986,297.02Z" transform="translate(-440.773 -276.674)" fill="#5793ce"/>
          <path id="Trazado_219867" data-name="Trazado 219867" d="M458.222,289.328l-2.155-1.244c-.132-.076-.115-.209.038-.3l2.079-1.2a.572.572,0,0,1,.515-.021l2.155,1.243c.132.076.115.209-.038.3l-2.079,1.2A.572.572,0,0,1,458.222,289.328Z" transform="translate(-440.518 -276.509)" fill="#d4ecff"/>
          <path id="Trazado_219868" data-name="Trazado 219868" d="M441.419,288.031l.044.025c.073-.052.14-.1.224-.154l15.032-8.678a4.14,4.14,0,0,1,3.728-.155l15.524,8.962c.88-.63.926-1.489.044-2l-15.568-8.988a4.146,4.146,0,0,0-3.728.155l-15.032,8.679C440.583,286.516,440.463,287.48,441.419,288.031Z" transform="translate(-440.773 -276.674)" fill="#396caa"/>
        </g>
      </g>
    </g>
    <path id="Trazado_219869" data-name="Trazado 219869" d="M408.172,106.476c0,.577-.4.81-.9.523a2,2,0,0,1-.9-1.567c0-.577.4-.81.9-.522A2,2,0,0,1,408.172,106.476Z" transform="translate(2.43 1.35)" fill="#d4ecff"/>
    <path id="Trazado_219870" data-name="Trazado 219870" d="M416,111.226c0,.577-.4.81-.9.523a2,2,0,0,1-.9-1.567c0-.577.4-.81.9-.522A2,2,0,0,1,416,111.226Z" transform="translate(2.562 1.43)" fill="#d4ecff"/>
    <path id="Trazado_219871" data-name="Trazado 219871" d="M423.839,115.976c0,.577-.406.81-.9.523a2,2,0,0,1-.9-1.567c0-.577.4-.81.9-.522A2,2,0,0,1,423.839,115.976Z" transform="translate(2.693 1.509)" fill="#d4ecff"/>
    <path id="Trazado_219872" data-name="Trazado 219872" d="M431.672,120.726c0,.577-.4.81-.9.523a2,2,0,0,1-.9-1.567c0-.577.4-.81.9-.522A2,2,0,0,1,431.672,120.726Z" transform="translate(2.825 1.589)" fill="#d4ecff"/>
  </g>
</svg>
