<svg xmlns="http://www.w3.org/2000/svg" xmlns:xlink="http://www.w3.org/1999/xlink" width="334.626" height="269.822" viewBox="0 0 334.626 269.822">
  <defs>
    <linearGradient id="linear-gradient" x1="0.5" x2="0.5" y2="1" gradientUnits="objectBoundingBox">
      <stop offset="0" stop-color="#4dd0e1"/>
      <stop offset="1" stop-color="#039be5"/>
    </linearGradient>
  </defs>
  <g id="Grupo_164977" data-name="Grupo 164977" transform="translate(-203.887 -1825.356)">
    <g id="Grupo_152006" data-name="Grupo 152006" transform="translate(203.887 1869.979)" opacity="0.158">
      <path id="Trazado_183874" data-name="Trazado 183874" d="M533.166,152.21l-28.732-16.589,28.732-16.59,28.733,16.59Zm-26.7-16.589,26.7,15.414,26.7-15.414-26.7-15.414Z" transform="translate(-227.278 -119.03)" fill="#173d7a"/>
      <path id="Trazado_183875" data-name="Trazado 183875" d="M472.813,152.21l-28.733-16.59,28.732-16.589.254.148,28.48,16.442Zm-26.7-16.59,26.7,15.415,26.7-15.414-26.7-15.414Z" transform="translate(-222.355 -119.03)" fill="#173d7a"/>
      <path id="Trazado_183876" data-name="Trazado 183876" d="M502.99,169.633l-28.733-16.589,28.733-16.59,28.732,16.59Zm-26.7-16.589,26.7,15.414,26.7-15.414-26.7-15.414Z" transform="translate(-224.816 -120.451)" fill="#173d7a"/>
      <path id="Trazado_183877" data-name="Trazado 183877" d="M533.167,187.056l-.254-.147-28.48-16.442,28.732-16.59.254.147,28.48,16.443Zm-26.7-16.589,26.7,15.414,26.7-15.414-26.7-15.415Z" transform="translate(-227.278 -121.872)" fill="#173d7a"/>
      <path id="Trazado_183878" data-name="Trazado 183878" d="M412.458,152.209l-.254-.147-28.48-16.442,28.732-16.59.254.148,28.48,16.442Zm-26.7-16.589,26.7,15.414,26.7-15.414-26.7-15.414Z" transform="translate(-217.431 -119.03)" fill="#173d7a"/>
      <path id="Trazado_183879" data-name="Trazado 183879" d="M442.636,169.632l-.253-.147L413.9,153.044l28.732-16.59,28.733,16.591Zm-26.7-16.589,26.7,15.414,26.7-15.413-26.7-15.415Z" transform="translate(-219.893 -120.451)" fill="#173d7a"/>
      <path id="Trazado_183880" data-name="Trazado 183880" d="M472.814,187.055l-.253-.147-28.48-16.442,28.732-16.589,28.732,16.59Zm-26.7-16.589,26.7,15.414,26.7-15.413-26.7-15.415Z" transform="translate(-222.355 -121.872)" fill="#173d7a"/>
      <path id="Trazado_183881" data-name="Trazado 183881" d="M502.991,204.479l-28.733-16.59L502.99,171.3l.254.147,28.48,16.442Zm-26.7-16.59,26.7,15.416,26.7-15.415-26.7-15.414Z" transform="translate(-224.816 -123.293)" fill="#173d7a"/>
      <path id="Trazado_183882" data-name="Trazado 183882" d="M533.168,221.9l-.254-.147-28.479-16.443,28.732-16.589.254.147,28.48,16.442Zm-26.7-16.59,26.7,15.414,26.7-15.414-26.7-15.414Z" transform="translate(-227.278 -124.715)" fill="#173d7a"/>
      <path id="Trazado_183883" data-name="Trazado 183883" d="M352.1,152.209l-28.733-16.59L352.1,119.031l.254.148,28.48,16.442Zm-26.7-16.59,26.7,15.415,26.7-15.414-26.7-15.414Z" transform="translate(-212.508 -119.03)" fill="#173d7a"/>
      <path id="Trazado_183884" data-name="Trazado 183884" d="M382.282,169.632l-.254-.147-28.48-16.442,28.733-16.59.254.147,28.48,16.443Zm-26.7-16.589,26.7,15.414,26.7-15.414-26.7-15.414Z" transform="translate(-214.97 -120.451)" fill="#173d7a"/>
      <path id="Trazado_183885" data-name="Trazado 183885" d="M412.459,187.055l-.253-.147-28.48-16.442,28.732-16.59.254.147,28.48,16.443Zm-26.7-16.589,26.7,15.414,26.7-15.414-26.7-15.415Z" transform="translate(-217.432 -121.872)" fill="#173d7a"/>
      <path id="Trazado_183886" data-name="Trazado 183886" d="M442.637,204.478l-.253-.147L413.9,187.889,442.636,171.3l.254.147,28.479,16.442Zm-26.7-16.59,26.7,15.415,26.7-15.415-26.7-15.414Z" transform="translate(-219.893 -123.293)" fill="#173d7a"/>
      <path id="Trazado_183887" data-name="Trazado 183887" d="M472.814,221.9l-28.732-16.59,28.732-16.589,28.732,16.59Zm-26.7-16.59,26.7,15.414,26.7-15.413-26.7-15.415Z" transform="translate(-222.355 -124.715)" fill="#173d7a"/>
      <path id="Trazado_183888" data-name="Trazado 183888" d="M502.992,239.325l-28.734-16.591,28.733-16.588.253.147,28.48,16.442Zm-26.7-16.591,26.7,15.415,26.7-15.414-26.7-15.414Z" transform="translate(-224.816 -126.136)" fill="#173d7a"/>
      <path id="Trazado_183889" data-name="Trazado 183889" d="M533.169,256.747l-.254-.147-28.48-16.442,28.732-16.59.254.148L561.9,240.159Zm-26.7-16.589,26.7,15.414,26.7-15.414-26.7-15.414Z" transform="translate(-227.278 -127.557)" fill="#173d7a"/>
      <path id="Trazado_183890" data-name="Trazado 183890" d="M291.749,152.208l-.253-.147-28.48-16.442,28.732-16.59.254.148,28.48,16.442Zm-26.7-16.589,26.7,15.414,26.7-15.414-26.7-15.414Z" transform="translate(-207.585 -119.03)" fill="#173d7a"/>
      <path id="Trazado_183891" data-name="Trazado 183891" d="M321.927,169.631l-.253-.147-28.48-16.442,28.732-16.59,28.733,16.59Zm-26.7-16.589,26.7,15.414,26.7-15.413-26.7-15.415Z" transform="translate(-210.047 -120.451)" fill="#173d7a"/>
      <path id="Trazado_183892" data-name="Trazado 183892" d="M352.105,187.054l-.254-.147-28.48-16.442L352.1,153.877l.254.147,28.48,16.443Zm-26.7-16.589,26.7,15.414,26.7-15.413-26.7-15.415Z" transform="translate(-212.508 -121.872)" fill="#173d7a"/>
      <path id="Trazado_183893" data-name="Trazado 183893" d="M382.283,204.478l-28.734-16.59L382.282,171.3l.254.147,28.48,16.442Zm-26.7-16.59,26.7,15.416,26.7-15.415-26.7-15.414Z" transform="translate(-214.97 -123.293)" fill="#173d7a"/>
      <path id="Trazado_183894" data-name="Trazado 183894" d="M412.46,221.9l-.253-.147-28.48-16.443,28.732-16.589.254.147,28.48,16.442Zm-26.7-16.59,26.7,15.414,26.7-15.414-26.7-15.414Z" transform="translate(-217.432 -124.715)" fill="#173d7a"/>
      <path id="Trazado_183895" data-name="Trazado 183895" d="M442.637,239.324l-28.732-16.59,28.732-16.589,28.732,16.589Zm-26.7-16.59,26.7,15.414,26.7-15.414-26.7-15.414Z" transform="translate(-219.893 -126.136)" fill="#173d7a"/>
      <path id="Trazado_183896" data-name="Trazado 183896" d="M472.815,256.746l-.255-.147-28.479-16.442,28.732-16.59,28.733,16.591Zm-26.7-16.589,26.7,15.414,26.7-15.413-26.7-15.415Z" transform="translate(-222.355 -127.557)" fill="#173d7a"/>
      <path id="Trazado_183897" data-name="Trazado 183897" d="M502.993,274.169l-.254-.147-28.48-16.442,28.733-16.589.253.147,28.48,16.443Zm-26.7-16.589,26.7,15.414,26.7-15.413-26.7-15.414Z" transform="translate(-224.816 -128.978)" fill="#173d7a"/>
      <path id="Trazado_183898" data-name="Trazado 183898" d="M533.17,291.593,504.437,275l28.732-16.589.254.147L561.9,275ZM506.471,275l26.7,15.415L559.869,275l-26.7-15.415Z" transform="translate(-227.278 -130.399)" fill="#173d7a"/>
      <path id="Trazado_183899" data-name="Trazado 183899" d="M231.4,152.207l-.253-.147-28.48-16.442,28.732-16.589.253.148,28.48,16.442Zm-26.7-16.589,26.7,15.414,26.7-15.413-26.7-15.414Z" transform="translate(-202.662 -119.03)" fill="#173d7a"/>
      <path id="Trazado_183900" data-name="Trazado 183900" d="M261.573,169.631l-28.733-16.59,28.732-16.589.254.147,28.48,16.443Zm-26.7-16.59,26.7,15.415,26.7-15.414-26.7-15.414Z" transform="translate(-205.124 -120.451)" fill="#173d7a"/>
      <path id="Trazado_183901" data-name="Trazado 183901" d="M291.75,187.054l-.253-.147-28.48-16.442,28.732-16.59.254.147,28.48,16.443Zm-26.7-16.589,26.7,15.414,26.7-15.414-26.7-15.415Z" transform="translate(-207.585 -121.872)" fill="#173d7a"/>
      <path id="Trazado_183902" data-name="Trazado 183902" d="M321.928,204.477l-.254-.147-28.48-16.443L321.927,171.3l.254.147,28.479,16.442Zm-26.7-16.59,26.7,15.415,26.7-15.415-26.7-15.414Z" transform="translate(-210.047 -123.293)" fill="#173d7a"/>
      <path id="Trazado_183903" data-name="Trazado 183903" d="M352.106,221.9l-.254-.147-28.479-16.443,28.732-16.589,28.733,16.59Zm-26.7-16.59,26.7,15.415,26.7-15.414-26.7-15.415Z" transform="translate(-212.508 -124.714)" fill="#173d7a"/>
      <path id="Trazado_183904" data-name="Trazado 183904" d="M382.284,239.323l-.254-.147-28.48-16.443,28.733-16.588.253.147,28.48,16.442Zm-26.7-16.59,26.7,15.414,26.7-15.413-26.7-15.414Z" transform="translate(-214.97 -126.136)" fill="#173d7a"/>
      <path id="Trazado_183905" data-name="Trazado 183905" d="M412.461,256.746l-28.733-16.59,28.732-16.589,28.733,16.59Zm-26.7-16.59,26.7,15.415,26.7-15.414-26.7-15.414Z" transform="translate(-217.432 -127.557)" fill="#173d7a"/>
      <path id="Trazado_183906" data-name="Trazado 183906" d="M442.638,274.169l-28.732-16.589,28.731-16.59.253.147,28.48,16.443Zm-26.7-16.589,26.7,15.414,26.7-15.414-26.7-15.414Z" transform="translate(-219.893 -128.978)" fill="#173d7a"/>
      <path id="Trazado_183907" data-name="Trazado 183907" d="M472.816,291.592l-.254-.147L444.083,275l28.732-16.59.254.147L501.548,275ZM446.117,275l26.7,15.414L499.514,275l-26.7-15.415Z" transform="translate(-222.355 -130.399)" fill="#173d7a"/>
      <path id="Trazado_183908" data-name="Trazado 183908" d="M502.994,309.015l-.254-.147-28.48-16.443,28.733-16.589,28.733,16.59Zm-26.7-16.59,26.7,15.415,26.7-15.414-26.7-15.415Z" transform="translate(-224.817 -131.821)" fill="#173d7a"/>
      <path id="Trazado_183909" data-name="Trazado 183909" d="M533.171,326.439l-28.733-16.591,28.732-16.588.254.147L561.9,309.85Zm-26.7-16.591,26.7,15.415,26.7-15.414-26.7-15.414Z" transform="translate(-227.278 -133.242)" fill="#173d7a"/>
      <path id="Trazado_183910" data-name="Trazado 183910" d="M231.4,187.053l-.253-.147-28.48-16.442,28.732-16.59,28.733,16.59Zm-26.7-16.589,26.7,15.414,26.7-15.413L231.4,155.05Z" transform="translate(-202.662 -121.872)" fill="#173d7a"/>
      <path id="Trazado_183911" data-name="Trazado 183911" d="M261.574,204.477l-28.734-16.59L261.573,171.3l.254.147,28.48,16.442Zm-26.7-16.59,26.7,15.416,26.7-15.415-26.7-15.414Z" transform="translate(-205.124 -123.293)" fill="#173d7a"/>
      <path id="Trazado_183912" data-name="Trazado 183912" d="M291.751,221.9l-.253-.147-28.48-16.443,28.732-16.589.254.147,28.48,16.442Zm-26.7-16.59,26.7,15.415,26.7-15.415L291.75,189.9Z" transform="translate(-207.585 -124.714)" fill="#173d7a"/>
      <path id="Trazado_183913" data-name="Trazado 183913" d="M321.929,239.323l-.253-.147L293.2,222.734l28.732-16.589.253.147,28.48,16.442Zm-26.7-16.59,26.7,15.414,26.7-15.414-26.7-15.414Z" transform="translate(-210.047 -126.136)" fill="#173d7a"/>
      <path id="Trazado_183914" data-name="Trazado 183914" d="M352.107,256.746l-.254-.148-28.479-16.442,28.732-16.589.253.147,28.48,16.442Zm-26.7-16.59,26.7,15.414,26.7-15.414-26.7-15.414Z" transform="translate(-212.509 -127.557)" fill="#173d7a"/>
      <path id="Trazado_183915" data-name="Trazado 183915" d="M382.285,274.168l-.254-.147-28.48-16.442,28.733-16.59,28.733,16.591Zm-26.7-16.589,26.7,15.414,26.7-15.413-26.7-15.415Z" transform="translate(-214.97 -128.978)" fill="#173d7a"/>
      <path id="Trazado_183916" data-name="Trazado 183916" d="M412.461,291.592,383.729,275l28.732-16.589L441.194,275ZM385.763,275l26.7,15.415L439.16,275l-26.7-15.415Z" transform="translate(-217.432 -130.399)" fill="#173d7a"/>
      <path id="Trazado_183917" data-name="Trazado 183917" d="M442.639,309.015l-.253-.147-28.48-16.443,28.732-16.589.254.147,28.48,16.442Zm-26.7-16.59,26.7,15.415,26.7-15.415-26.7-15.414Z" transform="translate(-219.893 -131.821)" fill="#173d7a"/>
      <path id="Trazado_183918" data-name="Trazado 183918" d="M472.817,326.438l-.254-.147-28.479-16.443,28.732-16.589.253.147,28.48,16.442Zm-26.7-16.59,26.7,15.415,26.7-15.415-26.7-15.414Z" transform="translate(-222.355 -133.242)" fill="#173d7a"/>
      <path id="Trazado_183919" data-name="Trazado 183919" d="M502.995,343.861l-.254-.147-28.48-16.443,28.733-16.589,28.733,16.59Zm-26.7-16.59,26.7,15.414,26.7-15.413-26.7-15.415Z" transform="translate(-224.817 -134.663)" fill="#173d7a"/>
      <path id="Trazado_183920" data-name="Trazado 183920" d="M533.172,361.284l-.253-.148-28.48-16.442,28.732-16.589.254.148L561.9,344.7Zm-26.7-16.59,26.7,15.414,26.7-15.413-26.7-15.414Z" transform="translate(-227.278 -136.084)" fill="#173d7a"/>
      <path id="Trazado_183921" data-name="Trazado 183921" d="M231.4,221.9l-.253-.147-28.48-16.443L231.4,188.721l28.733,16.59Zm-26.7-16.59,26.7,15.415,26.7-15.414L231.4,189.9Z" transform="translate(-202.662 -124.714)" fill="#173d7a"/>
      <path id="Trazado_183922" data-name="Trazado 183922" d="M261.575,239.322l-.254-.147-28.48-16.443,28.733-16.588.254.147,28.48,16.442Zm-26.7-16.59,26.7,15.414,26.7-15.413-26.7-15.414Z" transform="translate(-205.124 -126.136)" fill="#173d7a"/>
      <path id="Trazado_183923" data-name="Trazado 183923" d="M291.752,256.746l-28.733-16.591,28.732-16.588.254.147,28.48,16.442Zm-26.7-16.591,26.7,15.415,26.7-15.414-26.7-15.414Z" transform="translate(-207.585 -127.557)" fill="#173d7a"/>
      <path id="Trazado_183924" data-name="Trazado 183924" d="M321.93,274.168l-.253-.147L293.2,257.58l28.732-16.59.253.147,28.48,16.443Zm-26.7-16.589,26.7,15.414,26.7-15.414-26.7-15.414Z" transform="translate(-210.047 -128.978)" fill="#173d7a"/>
      <path id="Trazado_183925" data-name="Trazado 183925" d="M352.108,291.591l-.254-.147L323.375,275l28.732-16.59.253.147L380.84,275ZM325.409,275l26.7,15.414L378.806,275l-26.7-15.414Z" transform="translate(-212.509 -130.399)" fill="#173d7a"/>
      <path id="Trazado_183926" data-name="Trazado 183926" d="M382.285,309.014l-28.733-16.589,28.733-16.59,28.732,16.59Zm-26.7-16.589,26.7,15.414,26.7-15.414-26.7-15.415Z" transform="translate(-214.97 -131.82)" fill="#173d7a"/>
      <path id="Trazado_183927" data-name="Trazado 183927" d="M412.462,326.437l-.254-.147-28.48-16.443,28.732-16.588.254.147,28.479,16.442Zm-26.7-16.59,26.7,15.415,26.7-15.414-26.7-15.414Z" transform="translate(-217.432 -133.242)" fill="#173d7a"/>
      <path id="Trazado_183928" data-name="Trazado 183928" d="M442.64,343.861l-28.733-16.591,28.732-16.588.254.147,28.48,16.442Zm-26.7-16.591,26.7,15.415,26.7-15.414-26.7-15.414Z" transform="translate(-219.893 -134.663)" fill="#173d7a"/>
      <path id="Trazado_183929" data-name="Trazado 183929" d="M472.818,361.284l-.255-.148-28.479-16.442,28.732-16.589.253.147,28.479,16.442Zm-26.7-16.59,26.7,15.414,26.7-15.414-26.7-15.414Z" transform="translate(-222.355 -136.084)" fill="#173d7a"/>
      <path id="Trazado_183930" data-name="Trazado 183930" d="M231.4,256.745l-.254-.148-28.479-16.442L231.4,223.567l.253.147,28.48,16.442Zm-26.7-16.59,26.7,15.414,26.7-15.414-26.7-15.414Z" transform="translate(-202.662 -127.557)" fill="#173d7a"/>
      <path id="Trazado_183931" data-name="Trazado 183931" d="M261.576,274.167l-.254-.147-28.48-16.442,28.733-16.59,28.733,16.59Zm-26.7-16.589,26.7,15.414,26.7-15.413-26.7-15.415Z" transform="translate(-205.124 -128.978)" fill="#173d7a"/>
      <path id="Trazado_183932" data-name="Trazado 183932" d="M291.753,291.591,263.02,275l28.732-16.589.254.147L320.486,275ZM265.054,275l26.7,15.415L318.452,275l-26.7-15.414Z" transform="translate(-207.585 -130.399)" fill="#173d7a"/>
      <path id="Trazado_183933" data-name="Trazado 183933" d="M321.931,309.014l-.253-.147L293.2,292.426l28.732-16.59.253.147,28.48,16.443Zm-26.7-16.589,26.7,15.414,26.7-15.414-26.7-15.415Z" transform="translate(-210.047 -131.82)" fill="#173d7a"/>
      <path id="Trazado_183934" data-name="Trazado 183934" d="M352.109,326.437l-.254-.147-28.479-16.443,28.732-16.589,28.732,16.589Zm-26.7-16.59,26.7,15.415,26.7-15.415-26.7-15.414Z" transform="translate(-212.509 -133.242)" fill="#173d7a"/>
      <path id="Trazado_183935" data-name="Trazado 183935" d="M382.286,343.86l-28.733-16.59,28.732-16.589.253.147,28.48,16.442Zm-26.7-16.59,26.7,15.414,26.7-15.414-26.7-15.414Z" transform="translate(-214.97 -134.663)" fill="#173d7a"/>
      <path id="Trazado_183936" data-name="Trazado 183936" d="M412.463,361.283l-.254-.148-28.48-16.442,28.732-16.589,28.733,16.59Zm-26.7-16.59,26.7,15.414,26.7-15.413-26.7-15.415Z" transform="translate(-217.432 -136.084)" fill="#173d7a"/>
      <path id="Trazado_183937" data-name="Trazado 183937" d="M231.4,291.59l-.254-.147L202.666,275l28.732-16.59.253.147L260.131,275ZM204.7,275l26.7,15.414L258.1,275l-26.7-15.414Z" transform="translate(-202.662 -130.399)" fill="#173d7a"/>
      <path id="Trazado_183938" data-name="Trazado 183938" d="M261.577,309.013l-.254-.147-28.479-16.442,28.733-16.59,28.733,16.59Zm-26.7-16.589,26.7,15.414,26.7-15.413-26.7-15.416Z" transform="translate(-205.124 -131.82)" fill="#173d7a"/>
      <path id="Trazado_183939" data-name="Trazado 183939" d="M291.754,326.436l-.253-.147-28.48-16.443,28.732-16.588.254.147,28.479,16.442Zm-26.7-16.59,26.7,15.415,26.7-15.414-26.7-15.414Z" transform="translate(-207.585 -133.242)" fill="#173d7a"/>
      <path id="Trazado_183940" data-name="Trazado 183940" d="M321.932,343.86,293.2,327.27l28.732-16.588.254.147,28.48,16.442Zm-26.7-16.59,26.7,15.415,26.7-15.414-26.7-15.414Z" transform="translate(-210.047 -134.663)" fill="#173d7a"/>
      <path id="Trazado_183941" data-name="Trazado 183941" d="M352.109,361.283l-28.732-16.59,28.732-16.589,28.732,16.589Zm-26.7-16.59,26.7,15.414,26.7-15.414-26.7-15.414Z" transform="translate(-212.509 -136.084)" fill="#173d7a"/>
      <path id="Trazado_183942" data-name="Trazado 183942" d="M231.4,326.436l-.254-.147-28.479-16.443L231.4,293.258l.253.147,28.48,16.442Zm-26.7-16.59,26.7,15.415,26.7-15.415-26.7-15.414Z" transform="translate(-202.662 -133.242)" fill="#173d7a"/>
      <path id="Trazado_183943" data-name="Trazado 183943" d="M261.578,343.859l-.254-.147-28.48-16.443,28.733-16.589.254.147,28.48,16.442Zm-26.7-16.59,26.7,15.414,26.7-15.414-26.7-15.414Z" transform="translate(-205.124 -134.663)" fill="#173d7a"/>
      <path id="Trazado_183944" data-name="Trazado 183944" d="M291.755,361.282l-.254-.148-28.48-16.442L291.754,328.1l28.733,16.59Zm-26.7-16.59,26.7,15.414,26.7-15.413-26.7-15.415Z" transform="translate(-207.586 -136.084)" fill="#173d7a"/>
      <path id="Trazado_183945" data-name="Trazado 183945" d="M231.4,361.282l-.254-.148-28.479-16.442L231.4,328.1l.253.147,28.48,16.442Zm-26.7-16.59,26.7,15.414,26.7-15.414-26.7-15.414Z" transform="translate(-202.662 -136.084)" fill="#173d7a"/>
    </g>
    <g id="Grupo_160995" data-name="Grupo 160995" transform="translate(186.756 1771.356)">
      <circle id="Elipse_6421" data-name="Elipse 6421" cx="129.069" cy="129.069" r="129.069" transform="translate(48.958 54)" fill="#e2c140"/>
      <path id="Trazado_211179" data-name="Trazado 211179" d="M344.177,416H24.713a.715.715,0,0,0-.713.713h0a.715.715,0,0,0,.713.713H344.177a.715.715,0,0,0,.713-.713h0A.715.715,0,0,0,344.177,416Z" transform="translate(0 -103.862)" fill="#2f2f96"/>
      <g id="Grupo_161031" data-name="Grupo 161031" transform="translate(98.734 86.207)">
        <path id="Trazado_211180" data-name="Trazado 211180" d="M132.509,171.783s-12.836-26.384,9.27-42.072c0,0,9.27-22.819,34.228-12.836,0,0,12.122-23.532,41.359-14.975,0,0,32.8-12.836,43.5,17.114,0,0,29.237,2.139,31.376,28.524,0,0,17.827,8.557,12.836,24.245Z" transform="translate(-128.803 -99.166)" fill="#29abe2"/>
        <path id="Trazado_211181" data-name="Trazado 211181" d="M132.509,178.783s-12.836-26.384,9.27-42.072c0,0,9.27-22.819,34.228-12.836,0,0,12.122-23.532,41.359-14.975,0,0,32.8-12.836,43.5,17.114,0,0,29.237,2.139,31.376,28.524,0,0,17.827,8.557,12.836,24.245Z" transform="translate(-128.803 -101.174)" fill="#fff"/>
      </g>
      <g id="Grupo_161032" data-name="Grupo 161032" transform="translate(65.397 158.03)">
        <path id="Rectángulo_47934" data-name="Rectángulo 47934" d="M17.9,0H221.967a17.9,17.9,0,0,1,17.9,17.9V140.912a.66.66,0,0,1-.66.66H.66a.66.66,0,0,1-.66-.66V17.9A17.9,17.9,0,0,1,17.9,0Z" transform="translate(6.626)" fill="#666"/>
        <path id="Trazado_211208" data-name="Trazado 211208" d="M11.748,0H214.012a11.748,11.748,0,0,1,11.748,11.748V125.356a.155.155,0,0,1-.155.155H.155A.155.155,0,0,1,0,125.357V11.748A11.748,11.748,0,0,1,11.748,0Z" transform="translate(13.681 8.923)" fill="url(#linear-gradient)"/>
        <path id="Trazado_211182" data-name="Trazado 211182" d="M262.445,205.987a3.313,3.313,0,1,1-3.313-3.313A3.313,3.313,0,0,1,262.445,205.987Z" transform="translate(-131.908 -200.686)" fill="#ccc"/>
        <path id="Rectángulo_47936" data-name="Rectángulo 47936" d="M.814,0H253.278a.507.507,0,0,1,.507.507V.814a13.1,13.1,0,0,1-13.1,13.1H13.1A13.1,13.1,0,0,1,0,.814v0A.814.814,0,0,1,.814,0Z" transform="translate(0 140.193)" fill="gray"/>
      </g>
      <g id="Grupo_161039" data-name="Grupo 161039" transform="translate(103.59 220.741)">
        <g id="Grupo_161034" data-name="Grupo 161034">
          <rect id="Rectángulo_47937" data-name="Rectángulo 47937" width="17.569" height="16.593" fill="#fff"/>
          <g id="Grupo_161033" data-name="Grupo 161033" transform="translate(27.33)">
            <rect id="Rectángulo_47938" data-name="Rectángulo 47938" width="70.277" height="0.976" fill="#fff"/>
            <rect id="Rectángulo_47939" data-name="Rectángulo 47939" width="70.277" height="0.976" transform="translate(0 3.904)" fill="#fff"/>
            <rect id="Rectángulo_47940" data-name="Rectángulo 47940" width="70.277" height="0.976" transform="translate(0 7.808)" fill="#fff"/>
            <rect id="Rectángulo_47941" data-name="Rectángulo 47941" width="70.277" height="0.976" transform="translate(0 11.713)" fill="#fff"/>
            <rect id="Rectángulo_47942" data-name="Rectángulo 47942" width="50.755" height="0.976" transform="translate(0 15.617)" fill="#fff"/>
          </g>
        </g>
        <g id="Grupo_161036" data-name="Grupo 161036" transform="translate(0 22.449)">
          <rect id="Rectángulo_47943" data-name="Rectángulo 47943" width="17.569" height="16.593" fill="#fff"/>
          <g id="Grupo_161035" data-name="Grupo 161035" transform="translate(27.33)">
            <rect id="Rectángulo_47944" data-name="Rectángulo 47944" width="70.277" height="0.976" fill="#fff"/>
            <rect id="Rectángulo_47945" data-name="Rectángulo 47945" width="70.277" height="0.976" transform="translate(0 3.904)" fill="#fff"/>
            <rect id="Rectángulo_47946" data-name="Rectángulo 47946" width="70.277" height="0.976" transform="translate(0 7.809)" fill="#fff"/>
            <rect id="Rectángulo_47947" data-name="Rectángulo 47947" width="70.277" height="0.976" transform="translate(0 11.713)" fill="#fff"/>
            <rect id="Rectángulo_47948" data-name="Rectángulo 47948" width="50.755" height="0.976" transform="translate(0 15.617)" fill="#fff"/>
          </g>
        </g>
        <g id="Grupo_161038" data-name="Grupo 161038" transform="translate(0 46.851)">
          <rect id="Rectángulo_47949" data-name="Rectángulo 47949" width="17.569" height="16.593" fill="#fff"/>
          <g id="Grupo_161037" data-name="Grupo 161037" transform="translate(27.33)">
            <rect id="Rectángulo_47950" data-name="Rectángulo 47950" width="70.277" height="0.976" fill="#fff"/>
            <rect id="Rectángulo_47951" data-name="Rectángulo 47951" width="70.277" height="0.976" transform="translate(0 3.904)" fill="#fff"/>
            <rect id="Rectángulo_47952" data-name="Rectángulo 47952" width="70.277" height="0.976" transform="translate(0 7.808)" fill="#fff"/>
            <rect id="Rectángulo_47953" data-name="Rectángulo 47953" width="70.277" height="0.976" transform="translate(0 11.713)" fill="#fff"/>
            <rect id="Rectángulo_47954" data-name="Rectángulo 47954" width="50.755" height="0.976" transform="translate(0 15.617)" fill="#fff"/>
          </g>
        </g>
      </g>
      <g id="Grupo_161041" data-name="Grupo 161041" transform="translate(101.994 177.269)">
        <g id="Grupo_161040" data-name="Grupo 161040" transform="translate(39.379 4.744)">
          <rect id="Rectángulo_47955" data-name="Rectángulo 47955" width="58.249" height="2.361" fill="#fff"/>
          <rect id="Rectángulo_47956" data-name="Rectángulo 47956" width="58.249" height="2.361" transform="translate(0 6.297)" fill="#fff"/>
          <rect id="Rectángulo_47957" data-name="Rectángulo 47957" width="58.249" height="2.361" transform="translate(0 12.594)" fill="#fff"/>
          <rect id="Rectángulo_47958" data-name="Rectángulo 47958" width="58.249" height="2.361" transform="translate(0 18.892)" fill="#fff"/>
          <rect id="Rectángulo_47959" data-name="Rectángulo 47959" width="41.683" height="2.361" transform="translate(0 25.189)" fill="#fff"/>
        </g>
        <circle id="Elipse_6422" data-name="Elipse 6422" cx="15.743" cy="15.743" r="15.743" transform="matrix(0.228, -0.974, 0.974, 0.228, 0, 30.66)" fill="#fbb03b"/>
        <path id="Trazado_211183" data-name="Trazado 211183" d="M134.509,243.743h15.743V228S135.3,228,134.509,243.743Z" transform="translate(-133.7 -227.192)" fill="#ff0"/>
      </g>
      <g id="Grupo_161042" data-name="Grupo 161042" transform="translate(225.531 261.922)">
        <rect id="Rectángulo_47960" data-name="Rectángulo 47960" width="33.788" height="21.992" fill="#b18cd1" stroke="#e6e6e6" stroke-miterlimit="10" stroke-width="3"/>
        <path id="Trazado_211184" data-name="Trazado 211184" d="M307.118,368.029l7.691-11.536,8.74,5.1,3.845-2.717,6.992,4.756,2.8-5.435,3.013,4.444.134,7.785h-33.21Z" transform="translate(-306.761 -348.711)" fill="#f2f2f2"/>
        <circle id="Elipse_6423" data-name="Elipse 6423" cx="1.428" cy="1.428" r="1.428" transform="translate(23.926 6.354)" fill="#f2f2f2"/>
      </g>
      <g id="Grupo_161043" data-name="Grupo 161043" transform="translate(161.626 118.178)">
        <rect id="Rectángulo_47961" data-name="Rectángulo 47961" width="12.836" height="22.819" transform="translate(3.565 0)" fill="#c1272d"/>
        <path id="Trazado_211185" data-name="Trazado 211185" d="M217,173.222l9.983,11.093,9.983-11.093Z" transform="translate(-217 -152.384)" fill="#c1272d"/>
      </g>
      <g id="Grupo_161044" data-name="Grupo 161044" transform="translate(182.306 116.039)">
        <rect id="Rectángulo_47962" data-name="Rectángulo 47962" width="12.836" height="22.819" transform="translate(16.401 31.931) rotate(180)" fill="#c1272d"/>
        <path id="Trazado_211186" data-name="Trazado 211186" d="M265.966,152.093,255.983,141,246,152.093Z" transform="translate(-246 -141)" fill="#c1272d"/>
      </g>
      <g id="Grupo_161047" data-name="Grupo 161047" transform="translate(224.137 140.171)">
        <path id="Trazado_211187" data-name="Trazado 211187" d="M413.136,399.292s1.095,24.388-7.038,1.15Z" transform="translate(-333.765 -239.24)" fill="#edd1a4"/>
        <path id="Trazado_211188" data-name="Trazado 211188" d="M444.383,403s-2.852,24.245-7.131,0Z" transform="translate(-342.704 -240.303)" fill="#edd1a4"/>
        <path id="Trazado_211189" data-name="Trazado 211189" d="M430.829,209.933l-.13,9.651,11.864-5.345-3.372-6.485Z" transform="translate(-340.823 -184.285)" fill="#edd1a4"/>
        <path id="Trazado_211190" data-name="Trazado 211190" d="M427.284,187.611s-14.985,22.322,7.609,15.244c0,0-2.524-10.033-1.874-13.155C433.019,189.7,427.648,189.073,427.284,187.611Z" transform="translate(-338.446 -178.506)" fill="#fae0b2"/>
        <path id="Trazado_211191" data-name="Trazado 211191" d="M434.926,200.19s-2.836-5.152-2.263-14.153c0,0-5.7.767-11.33-6.6,0,0-1.418-2.576,4.137-1.092,0,0,.469-3.811,2.03-3.486,0,0,.689-.182,2.106,2.394,0,0,4.281-3.343,6.245,1.3,0,0,4.137-1.092,4.032,4.1C439.883,182.655,457.43,201.623,434.926,200.19Z" transform="translate(-338.09 -174.842)"/>
        <path id="Trazado_211192" data-name="Trazado 211192" d="M432.961,302.446s5.494,1.117-2.35,71H423.48s-7.844-42.785-6.418-49.916l-13.549,15.688,4.992,32.8h-7.844s-10.7-19.966-11.409-32.8c0,0,3.445-29.252,14.914-39.228Z" transform="translate(-328.932 -210.748)" fill="#173d7a"/>
        <path id="Trazado_211193" data-name="Trazado 211193" d="M435.574,215.22l-12.364,6.065s-3.044.073-5.585,12.375l-9.92,43.013,31.769,2.71s15.283-10.651,9.276-42.283C448.751,237.1,447.736,208.8,435.574,215.22Z" transform="translate(-334.227 -186.156)" fill="#fff"/>
        <path id="Trazado_211194" data-name="Trazado 211194" d="M414.716,225.09S402.41,240.14,400.6,247.256c0,0-11.031,2.913-18.577,7.855,0,0,2.615,1.522,3.018,5.841a99.159,99.159,0,0,0,18.433-5.6l2.827-1.435Z" transform="translate(-326.858 -189.259)" fill="#f2f2f2"/>
        <g id="Grupo_161046" data-name="Grupo 161046" transform="translate(0 32.201)">
          <path id="Trazado_211195" data-name="Trazado 211195" d="M312.321,233.882v-10.8s0-3.085,2.73-3.085h20.479s1.366,0,2.731,3.085l1.365,3.086h32.767a2.8,2.8,0,0,1,2.731,3.085v4.627Z" transform="translate(-306.86 -220)" fill="#dda466"/>
          <g id="Grupo_161045" data-name="Grupo 161045" transform="translate(0 9.646)">
            <rect id="Rectángulo_47963" data-name="Rectángulo 47963" width="58.708" height="39.594" transform="translate(1.365)" fill="#e6e6e6"/>
            <rect id="Rectángulo_47964" data-name="Rectángulo 47964" width="58.708" height="39.594" transform="translate(0 1.365)" fill="#fff"/>
          </g>
          <rect id="Rectángulo_47965" data-name="Rectángulo 47965" width="68.265" height="40.959" rx="9.313" transform="translate(4.422 13.742)" fill="#e8c370"/>
        </g>
        <path id="Trazado_211196" data-name="Trazado 211196" d="M432.134,214.794s-2.9,5.409-6.622,23.615c0,0-2.787,10.582-3.476,10.765,0,0-19.227,10.977-24.015,15.191,0,0,3.525,4.969,3.381,7.22,0,0,24.236-11.562,28.555-11.965,0,0,15.179-21.537,14.8-28.16C444.755,231.46,445.376,209.084,432.134,214.794Z" transform="translate(-331.448 -186.037)" fill="#f2f2f2"/>
        <path id="Trazado_211197" data-name="Trazado 211197" d="M397.825,292.131s-27.81,7.131-3.565-7.131C394.26,285,396.4,287.139,397.825,292.131Z" transform="translate(-327.522 -206.448)" fill="#edd1a4"/>
      </g>
      <g id="Grupo_161048" data-name="Grupo 161048" transform="translate(225.804 234.411)">
        <rect id="Rectángulo_47966" data-name="Rectángulo 47966" width="33.515" height="20.68" fill="#c1272d"/>
        <path id="Trazado_211198" data-name="Trazado 211198" d="M325,310.895V326.02l9.27-7.806Z" transform="translate(-312.164 -308.117)" fill="#fff"/>
      </g>
      <g id="Grupo_161050" data-name="Grupo 161050" transform="translate(83.543 130.657)">
        <circle id="Elipse_6424" data-name="Elipse 6424" cx="19.253" cy="19.253" r="19.253" transform="translate(0 0)" fill="#00a99d" stroke="#fbb03b" stroke-miterlimit="10" stroke-width="5"/>
        <g id="Grupo_161049" data-name="Grupo 161049" transform="translate(9.238 13.225)">
          <path id="Rectángulo_47967" data-name="Rectángulo 47967" d="M1.461,0h0a1.46,1.46,0,0,1,1.46,1.46V9.378a1.461,1.461,0,0,1-1.461,1.461h0A1.461,1.461,0,0,1,0,9.378V1.461A1.461,1.461,0,0,1,1.461,0Z" transform="translate(0 6.689) rotate(-45.028)" fill="#fff"/>
          <path id="Rectángulo_47968" data-name="Rectángulo 47968" d="M1.461,0h0a1.46,1.46,0,0,1,1.46,1.46V16.493a1.461,1.461,0,0,1-1.461,1.461h0A1.461,1.461,0,0,1,0,16.493V1.461A1.461,1.461,0,0,1,1.461,0Z" transform="translate(18.498) rotate(44.971)" fill="#fff"/>
        </g>
      </g>
      <g id="Grupo_161051" data-name="Grupo 161051" transform="translate(33.348 145.455)">
        <path id="Trazado_211199" data-name="Trazado 211199" d="M85.175,196.429s3.108,7.136.879,9.975c0,0-2.119,7.428-5.208,5.471l.339,2.919s-6.128,2.544-9.5-1.5A21.607,21.607,0,0,0,73.56,206.4s-.986-1.284.593-5.63C74.153,200.774,79.1,195.754,85.175,196.429Z" transform="translate(-47.029 -186.301)" fill="#fae0b2"/>
        <path id="Trazado_211200" data-name="Trazado 211200" d="M57.793,223.431s1.048-30.644,9.735-40.208c0,0,6.463-4.5,12.229,5.879,0,0,5.017,2.611.737,12.713,0,0-6.712,11.192-1.463,18.3l-20.985,3.318Z" transform="translate(-43.044 -182.252)" fill="#1a1a1a"/>
        <path id="Trazado_211201" data-name="Trazado 211201" d="M82.773,405.589s-1.649,19.78-4.149-.99Z" transform="translate(-49.02 -246.046)" fill="#edd1a4"/>
        <path id="Trazado_211202" data-name="Trazado 211202" d="M38.665,396.02s-5.518,19.066,4.229.556Z" transform="translate(-37.109 -243.584)" fill="#edd1a4"/>
        <path id="Trazado_211203" data-name="Trazado 211203" d="M77.406,305.472s4.19-6.042-6.046,72.043l-4.543-.955s-6.671-50.819-6.227-66.8c0,0,2.893,20.37-1.945,32.982l-15.96,29.839-4.661-2.3s5.87-26.245,10-29.992c0,0-6.069-22.649-5.2-31.785Z" transform="translate(-37.372 -217.574)" fill="#173d7a"/>
        <path id="Trazado_211204" data-name="Trazado 211204" d="M108.994,255.219l17.124-4.723s17.713-3.739,1.925,5.294l-19.313,8.3.508-7.773" transform="translate(-57.658 -201.612)" fill="#fae0b2"/>
        <path id="Trazado_211205" data-name="Trazado 211205" d="M73.383,219.775a1.819,1.819,0,0,1,2.266.715c1,1.565,3.232,3.788,7.946,4.216,0,0,1.431-.384,7.913,16.707a1.846,1.846,0,0,0,.826.958l4.412,2.449a1.816,1.816,0,0,1,.829.961c.828,2.241,2.539,9.683-9.157,13.74a1.812,1.812,0,0,1-1.5-.153,25.289,25.289,0,0,1-6.412-5.081,1.832,1.832,0,0,0-3.082.3l-.133.267a1.823,1.823,0,0,1-1.417,1c-3.108.37-18.823.824-19.984.732-2.28-.183.608-11.281-1.279-20.343-.01-.049-.018-.1-.024-.147-.106-.944-1.081-10.783,4.055-12.068,0,0,4.629-.926,6.217-3.544a1.825,1.825,0,0,1,2.323-.715A7.3,7.3,0,0,0,73.383,219.775Z" transform="translate(-42.083 -192.969)" fill="#f2f2f2"/>
        <path id="Trazado_211206" data-name="Trazado 211206" d="M75.375,254.873s5.384,20.768,4.574,27.87c0,0-22.394,3.055-35.209,2.381,0,0-1.367-57.543,10.445-59.8l4.683-1.766a21.956,21.956,0,0,0,14.525-.245l6.095,2.455S71.61,243.508,75.375,254.873Z" transform="translate(-39.285 -194.033)" fill="#fff"/>
        <path id="Trazado_211207" data-name="Trazado 211207" d="M67.767,343.836s1.739-7.916.983-14.053c0,0-2.1-.067-4.128-2.765C64.622,327.019,69.564,337.722,67.767,343.836Z" transform="translate(-45.003 -223.787)" fill="#222875"/>
      </g>
    </g>
  </g>
</svg>
