<svg xmlns="http://www.w3.org/2000/svg" xmlns:xlink="http://www.w3.org/1999/xlink" width="650" height="651.504" viewBox="0 0 650 651.504">
  <defs>
    <filter id="Rectángulo_45162" x="0" y="0" width="650" height="651.504" filterUnits="userSpaceOnUse">
      <feOffset dy="3" input="SourceAlpha"/>
      <feGaussianBlur stdDeviation="3" result="blur"/>
      <feFlood flood-opacity="0.161"/>
      <feComposite operator="in" in2="blur"/>
      <feComposite in="SourceGraphic"/>
    </filter>
    <linearGradient id="linear-gradient" x1="0.5" x2="0.5" y2="1" gradientUnits="objectBoundingBox">
      <stop offset="0" stop-color="#039be5"/>
      <stop offset="1" stop-color="#027fbc"/>
    </linearGradient>
    <filter id="Trazado_192915" x="28.261" y="85.575" width="213.764" height="65.895" filterUnits="userSpaceOnUse">
      <feOffset dy="3" input="SourceAlpha"/>
      <feGaussianBlur stdDeviation="3" result="blur-2"/>
      <feFlood flood-opacity="0.161"/>
      <feComposite operator="in" in2="blur-2"/>
      <feComposite in="SourceGraphic"/>
    </filter>
  </defs>
  <g id="Grupo_152615" data-name="Grupo 152615" transform="translate(1835 8002.981)">
    <g transform="matrix(1, 0, 0, 1, -1835, -8002.98)" filter="url(#Rectángulo_45162)">
      <rect id="Rectángulo_45162-2" data-name="Rectángulo 45162" width="632" height="633.504" rx="10" transform="translate(9 6)" fill="#fff"/>
    </g>
    <g id="Grupo_152065" data-name="Grupo 152065" transform="translate(-1797.739 -7961.763)">
      <g transform="matrix(1, 0, 0, 1, -37.26, -41.22)" filter="url(#Trazado_192915)">
        <path id="Trazado_192915-2" data-name="Trazado 192915" d="M1.252,0h193.26c.691,0,1.252,1.134,1.252,2.533V45.362c0,1.4-.561,2.533-1.252,2.533H1.252C.561,47.895,0,46.761,0,45.362V2.533C0,1.134.561,0,1.252,0Z" transform="translate(37.26 91.58)" fill="url(#linear-gradient)"/>
      </g>
      <text id="Bloqueo_del_proveedor" data-name="Bloqueo del
proveedor" transform="translate(5.816 42)" fill="#12263f" font-size="40" font-family="Roboto-Bold, Roboto" font-weight="700"><tspan x="0" y="0">Bloqueo del</tspan><tspan fill="#fff"><tspan x="0" y="45">proveedor</tspan></tspan></text>
    </g>
    <text id="Los_grandes_proveedores_de_servicios_de_computación_en_la_nube_ofrecen_nubes_públicas_y_son_de_propiedad_exclusiva_de_las_empresas_que_ofrecen_el_servicio_esto_puede_llevar_a_que_en_determinado_momento_al_adquirir_un_servicio_un_cliente_quede_de_alguna_m" data-name="Los grandes proveedores de servicios de computación en la nube ofrecen nubes públicas y son de propiedad exclusiva de las empresas que ofrecen el servicio, esto puede llevar a que en determinado momento al adquirir un servicio, un cliente quede de alguna m" transform="translate(-1797.739 -7842.293)" fill="#12263f" font-size="30" font-family="Roboto-Regular, Roboto"><tspan x="0" y="31">Los grandes proveedores de servicios de </tspan><tspan x="0" y="55">computación en la nube ofrecen nubes </tspan><tspan x="0" y="79">públicas y son de propiedad exclusiva de las </tspan><tspan x="0" y="103">empresas que ofrecen el servicio, esto puede </tspan><tspan x="0" y="127">llevar a que en determinado momento al </tspan><tspan x="0" y="151">adquirir un servicio, un cliente quede de </tspan><tspan x="0" y="175">alguna manera “amarrado” a ese proveedor </tspan><tspan x="0" y="199">ya que, puede desarrollar aplicaciones o </tspan><tspan x="0" y="223">almacenar sus datos en estas nubes, hay </tspan><tspan x="0" y="247">muy poca normalización frente a los </tspan><tspan x="0" y="271">servicios que se entregan por parte de los </tspan><tspan x="0" y="295">proveedores, lo que puede llevar a que si un </tspan><tspan x="0" y="319">cliente quisiera migrar sus servicios a otro </tspan><tspan x="0" y="343">proveedor se vuelva una tarea demasiado </tspan><tspan x="0" y="367">engorrosa y, que en algunas ocasiones </tspan><tspan x="0" y="391">acarree gastos innecesarios al tener que </tspan><tspan x="0" y="415">recurrir a expertos en hacer migraciones de </tspan><tspan x="0" y="439">una plataforma a otra.</tspan></text>
    <path id="Rectángulo_45163" data-name="Rectángulo 45163" d="M10,0H622a10,10,0,0,1,10,10v4a0,0,0,0,1,0,0H0a0,0,0,0,1,0,0V10A10,10,0,0,1,10,0Z" transform="translate(-1826 -7996.981)" fill="url(#linear-gradient)"/>
  </g>
</svg>
