<svg xmlns="http://www.w3.org/2000/svg" xmlns:xlink="http://www.w3.org/1999/xlink" width="610" height="367.167" viewBox="0 0 610 367.167">
  <defs>
    <linearGradient id="linear-gradient" x1="0.717" y1="0.504" x2="-0.292" y2="0.511" gradientUnits="objectBoundingBox">
      <stop offset="0" stop-color="#b37cff"/>
      <stop offset="1" stop-color="#f895e7"/>
    </linearGradient>
    <linearGradient id="linear-gradient-2" x1="0.706" y1="0.484" x2="-0.303" y2="0.49" xlink:href="#linear-gradient"/>
    <linearGradient id="linear-gradient-3" y1="0.5" x2="1" y2="0.5" gradientUnits="objectBoundingBox">
      <stop offset="0" stop-color="#5ab6ff"/>
      <stop offset="1" stop-color="#2f68e3"/>
    </linearGradient>
    <linearGradient id="linear-gradient-7" x1="2.154" y1="-0.053" x2="-1.621" y2="1.53" gradientUnits="objectBoundingBox">
      <stop offset="0" stop-color="#fdf53f"/>
      <stop offset="1" stop-color="#d93c65"/>
    </linearGradient>
    <linearGradient id="linear-gradient-8" x1="1.566" y1="0.469" x2="-0.291" y2="0.539" gradientUnits="objectBoundingBox">
      <stop offset="0" stop-color="#53d8ff"/>
      <stop offset="1" stop-color="#3840f7"/>
    </linearGradient>
    <linearGradient id="linear-gradient-9" x1="1.165" y1="0.49" x2="-0.581" y2="0.529" xlink:href="#linear-gradient-8"/>
    <linearGradient id="linear-gradient-10" x1="1.133" y1="0.422" x2="-0.643" y2="0.683" xlink:href="#linear-gradient-7"/>
    <linearGradient id="linear-gradient-11" x1="0.725" y1="0.484" x2="-12.453" y2="1.4" xlink:href="#linear-gradient-7"/>
    <linearGradient id="linear-gradient-12" x1="-60.331" y1="19.051" x2="-57.629" y2="19.051" gradientUnits="objectBoundingBox">
      <stop offset="0" stop-color="#2b3582"/>
      <stop offset="1" stop-color="#150e42"/>
    </linearGradient>
    <linearGradient id="linear-gradient-13" x1="-0.251" y1="1.791" x2="-0.753" y2="1.009" gradientUnits="objectBoundingBox">
      <stop offset="0" stop-color="#18459f"/>
      <stop offset="1" stop-color="#2874b5"/>
    </linearGradient>
    <linearGradient id="linear-gradient-14" x1="62.245" y1="-16.033" x2="62.781" y2="-16.033" xlink:href="#linear-gradient-12"/>
    <linearGradient id="linear-gradient-15" x1="-10.198" y1="43.584" x2="-7.496" y2="43.584" xlink:href="#linear-gradient-12"/>
    <linearGradient id="linear-gradient-16" x1="57.117" y1="3.781" x2="56.615" y2="2.999" xlink:href="#linear-gradient-13"/>
    <linearGradient id="linear-gradient-17" x1="8.194" y1="13.014" x2="8.73" y2="13.014" xlink:href="#linear-gradient-12"/>
    <linearGradient id="linear-gradient-19" x1="0.979" y1="0.471" x2="-0.62" y2="0.672" xlink:href="#linear-gradient-3"/>
    <linearGradient id="linear-gradient-20" x1="18.758" y1="1.678" x2="20.281" y2="4.366" gradientUnits="objectBoundingBox">
      <stop offset="0" stop-color="#cb236d"/>
      <stop offset="1" stop-color="#4c246d"/>
    </linearGradient>
    <linearGradient id="linear-gradient-21" x1="1.063" y1="-0.44" x2="0.221" y2="0.966" gradientUnits="objectBoundingBox">
      <stop offset="0" stop-color="#cb236d"/>
      <stop offset="0.072" stop-color="#c2236d"/>
      <stop offset="1" stop-color="#4c246d"/>
    </linearGradient>
    <linearGradient id="linear-gradient-22" x1="0.04" y1="1.594" x2="0.638" y2="0.173" xlink:href="#linear-gradient-21"/>
    <linearGradient id="linear-gradient-23" x1="0" y1="0.5" x2="1" y2="0.5" xlink:href="#linear-gradient-8"/>
    <linearGradient id="linear-gradient-24" x1="0" y1="0.5" x2="1" y2="0.5" xlink:href="#linear-gradient-12"/>
    <linearGradient id="linear-gradient-25" y1="0.5" x2="1" y2="0.5" gradientUnits="objectBoundingBox">
      <stop offset="0" stop-color="#f9b776"/>
      <stop offset="1" stop-color="#f47960"/>
    </linearGradient>
    <linearGradient id="linear-gradient-26" x1="0" y1="0.5" x2="1" y2="0.5" xlink:href="#linear-gradient-8"/>
    <linearGradient id="linear-gradient-28" x1="0" y1="0.5" x2="1" y2="0.5" xlink:href="#linear-gradient-25"/>
    <linearGradient id="linear-gradient-29" x1="-0.289" y1="1.193" x2="1.375" y2="0.002" xlink:href="#linear-gradient-12"/>
    <linearGradient id="linear-gradient-30" x1="1.314" y1="-0.062" x2="-2.293" y2="2.028" xlink:href="#linear-gradient-7"/>
    <linearGradient id="linear-gradient-31" x1="-1.502" y1="5.021" x2="-1.144" y2="4.213" xlink:href="#linear-gradient-8"/>
    <linearGradient id="linear-gradient-32" x1="1.381" y1="0.1" x2="-1.008" y2="1.142" xlink:href="#linear-gradient-25"/>
    <linearGradient id="linear-gradient-33" x1="2.844" y1="-0.503" x2="-5.081" y2="3.117" xlink:href="#linear-gradient-7"/>
    <linearGradient id="linear-gradient-34" x1="2.221" y1="-0.121" x2="-8.39" y2="4.13" xlink:href="#linear-gradient-7"/>
    <linearGradient id="linear-gradient-36" x1="0.504" y1="-0.004" x2="0.489" y2="1.888" xlink:href="#linear-gradient-25"/>
    <linearGradient id="linear-gradient-38" x1="0" y1="0.5" x2="1" y2="0.5" xlink:href="#linear-gradient"/>
    <linearGradient id="linear-gradient-40" x1="-29.08" y1="98.122" x2="-30.6" y2="99.46" xlink:href="#linear-gradient-25"/>
    <linearGradient id="linear-gradient-41" x1="-16.781" y1="62.555" x2="-15.758" y2="62.555" xlink:href="#linear-gradient-12"/>
    <linearGradient id="linear-gradient-42" x1="-83.259" y1="279.945" x2="-79.969" y2="277.589" xlink:href="#linear-gradient-25"/>
    <linearGradient id="linear-gradient-43" x1="1.114" y1="-1.222" x2="-0.58" y2="3.819" xlink:href="#linear-gradient-25"/>
    <linearGradient id="linear-gradient-45" x1="14.934" y1="0.23" x2="-65.866" y2="1.744" xlink:href="#linear-gradient-12"/>
    <linearGradient id="linear-gradient-46" x1="20.835" y1="0.119" x2="-59.965" y2="1.633" xlink:href="#linear-gradient-12"/>
    <linearGradient id="linear-gradient-47" y1="0.5" x2="1" y2="0.5" gradientUnits="objectBoundingBox">
      <stop offset="0" stop-color="#9cfffb"/>
      <stop offset="1" stop-color="#9bfffa"/>
    </linearGradient>
    <linearGradient id="linear-gradient-49" x1="0" x2="1" xlink:href="#linear-gradient-47"/>
    <linearGradient id="linear-gradient-50" x1="0" x2="1" xlink:href="#linear-gradient-47"/>
    <linearGradient id="linear-gradient-55" x1="352.283" y1="-0.484" x2="349.448" y2="6.012" xlink:href="#linear-gradient-20"/>
    <linearGradient id="linear-gradient-56" x1="1392.138" y1="0.5" x2="1393.138" y2="0.5" xlink:href="#linear-gradient-25"/>
    <linearGradient id="linear-gradient-57" x1="420.353" y1="0.5" x2="421.353" y2="0.5" xlink:href="#linear-gradient-12"/>
    <linearGradient id="linear-gradient-58" x1="866.528" y1="-2.223" x2="859.51" y2="5.384" xlink:href="#linear-gradient-20"/>
    <linearGradient id="linear-gradient-59" x1="1603.931" y1="0.5" x2="1604.931" y2="0.5" xlink:href="#linear-gradient-25"/>
    <linearGradient id="linear-gradient-60" x1="295.462" y1="0.5" x2="296.462" y2="0.5" xlink:href="#linear-gradient-12"/>
    <linearGradient id="linear-gradient-61" x1="1.043" y1="0.417" x2="1.759" y2="1.056" gradientUnits="objectBoundingBox">
      <stop offset="0" stop-color="#7c27dd"/>
      <stop offset="1" stop-color="#2b41d9"/>
    </linearGradient>
    <linearGradient id="linear-gradient-62" x1="4.1" y1="0.285" x2="5.467" y2="1.477" xlink:href="#linear-gradient-25"/>
    <linearGradient id="linear-gradient-63" x1="-177.913" y1="1.605" x2="-175.913" y2="4.278" xlink:href="#linear-gradient-25"/>
    <linearGradient id="linear-gradient-64" x1="1990.544" y1="0.706" x2="1992.563" y2="-1.072" xlink:href="#linear-gradient-25"/>
    <linearGradient id="linear-gradient-65" x1="356.572" y1="1.159" x2="358.369" y2="2.794" xlink:href="#linear-gradient-61"/>
    <linearGradient id="linear-gradient-66" x1="214.015" y1="0.5" x2="215.015" y2="0.5" xlink:href="#linear-gradient-25"/>
    <linearGradient id="linear-gradient-67" x1="201.878" y1="-0.062" x2="202.391" y2="2.428" xlink:href="#linear-gradient-47"/>
    <linearGradient id="linear-gradient-68" x1="1058.909" y1="-3.497" x2="1058.336" y2="1.805" xlink:href="#linear-gradient-8"/>
    <linearGradient id="linear-gradient-69" x1="554.647" y1="-1.235" x2="554.503" y2="1.146" xlink:href="#linear-gradient-8"/>
    <linearGradient id="linear-gradient-70" x1="690.665" y1="0.5" x2="691.665" y2="0.5" xlink:href="#linear-gradient-25"/>
    <linearGradient id="linear-gradient-71" x1="543.65" y1="0.5" x2="544.65" y2="0.5" xlink:href="#linear-gradient-25"/>
    <linearGradient id="linear-gradient-72" x1="-11.671" y1="201.71" x2="-11.992" y2="200.644" xlink:href="#linear-gradient-25"/>
    <linearGradient id="linear-gradient-73" x1="-9.203" y1="153.213" x2="-8.998" y2="154.392" xlink:href="#linear-gradient-12"/>
    <linearGradient id="linear-gradient-74" x1="-41.206" y1="975.396" x2="-42.149" y2="970.749" xlink:href="#linear-gradient-25"/>
    <linearGradient id="linear-gradient-75" x1="-0.552" y1="-3.273" x2="0.425" y2="-3.273" xlink:href="#linear-gradient-20"/>
    <linearGradient id="linear-gradient-76" x1="-0.591" y1="-5.153" x2="0.385" y2="-5.153" xlink:href="#linear-gradient-20"/>
    <linearGradient id="linear-gradient-77" x1="-14.977" y1="-86.03" x2="-13.977" y2="-86.03" xlink:href="#linear-gradient-20"/>
    <linearGradient id="linear-gradient-78" x1="-17.574" y1="-191.259" x2="-16.573" y2="-191.259" xlink:href="#linear-gradient-20"/>
    <linearGradient id="linear-gradient-79" x1="-2.748" y1="-76.966" x2="-1.743" y2="-76.966" xlink:href="#linear-gradient-20"/>
    <linearGradient id="linear-gradient-80" x1="3.872" y1="12.926" x2="4.984" y2="12.926" xlink:href="#linear-gradient-20"/>
    <linearGradient id="linear-gradient-81" x1="0" y1="0.5" x2="1" y2="0.5" xlink:href="#linear-gradient-20"/>
    <linearGradient id="linear-gradient-82" x1="0" y1="0.5" x2="1" y2="0.5" xlink:href="#linear-gradient-20"/>
    <linearGradient id="linear-gradient-83" x1="0" y1="0.5" x2="1" y2="0.5" xlink:href="#linear-gradient-20"/>
    <linearGradient id="linear-gradient-84" x1="5.758" y1="16.835" x2="6.865" y2="16.835" xlink:href="#linear-gradient-20"/>
    <linearGradient id="linear-gradient-85" x1="10.209" y1="5.385" x2="11.418" y2="5.385" xlink:href="#linear-gradient-20"/>
    <linearGradient id="linear-gradient-86" x1="18.04" y1="26.666" x2="18.947" y2="26.666" xlink:href="#linear-gradient-20"/>
    <linearGradient id="linear-gradient-87" x1="92.969" y1="39.608" x2="93.579" y2="39.608" xlink:href="#linear-gradient-20"/>
    <linearGradient id="linear-gradient-88" x1="1507.115" y1="552.711" x2="1508.115" y2="552.711" xlink:href="#linear-gradient-20"/>
    <linearGradient id="linear-gradient-89" x1="410.424" y1="279.985" x2="410.549" y2="279.985" xlink:href="#linear-gradient-20"/>
    <linearGradient id="linear-gradient-90" x1="-141.599" y1="197.983" x2="-146.639" y2="194.589" xlink:href="#linear-gradient-8"/>
    <linearGradient id="linear-gradient-91" x1="-30.94" y1="41.412" x2="-32.193" y2="40.018" xlink:href="#linear-gradient-8"/>
    <linearGradient id="linear-gradient-92" x1="-47.075" y1="40.62" x2="-48.659" y2="39.984" xlink:href="#linear-gradient-8"/>
    <linearGradient id="linear-gradient-93" x1="-352.796" y1="228.153" x2="-347.32" y2="227.298" xlink:href="#linear-gradient-8"/>
    <linearGradient id="linear-gradient-94" x1="-0.15" y1="3.016" x2="0.907" y2="3.593" xlink:href="#linear-gradient"/>
    <linearGradient id="linear-gradient-95" x1="0.028" y1="5.011" x2="1.085" y2="5.588" xlink:href="#linear-gradient"/>
    <linearGradient id="linear-gradient-100" x1="0.636" y1="0.334" x2="3.191" y2="-1.285" gradientUnits="objectBoundingBox">
      <stop offset="0" stop-color="#ce1567"/>
      <stop offset="1" stop-color="#7a1dbc"/>
    </linearGradient>
  </defs>
  <g id="Grupo_164933" data-name="Grupo 164933" transform="translate(-810 -1242.186)">
    <g id="Grupo_160994" data-name="Grupo 160994" transform="translate(694.796 1134.258)">
      <g id="Grupo_160930" data-name="Grupo 160930" transform="translate(117.945 118.191)">
        <path id="Trazado_210761" data-name="Trazado 210761" d="M703.522,329.991l-12.994-15.435S632.2,260.874,630.079,200.348s-27.937-68.681-89.707-72.529c-52.223-3.253-112.594-12.411-161.088,21.9a117.178,117.178,0,0,1-72.03,21.764l-56.319-2.063a116.617,116.617,0,0,0-75.144,24.167c-32.373,24.719-67.219,70.239-52.934,147.714a250.881,250.881,0,0,1,4.213,40.344l.613,32.914c.538,28.905,22.241,52.256,49.334,52.894L599.729,477.4c43.456,1.022,85.218-17.584,115.047-51.234a48.86,48.86,0,0,0,12.035-33.29A100.7,100.7,0,0,0,703.522,329.991Z" transform="translate(-119.561 -124.241)" opacity="0.26" fill="url(#linear-gradient)"/>
        <path id="Trazado_210762" data-name="Trazado 210762" d="M697.109,337.231,684.89,323.041s-54.858-49.343-56.829-105-26.257-63.149-84.373-66.663c-49.134-2.971-105.931-11.369-151.571,20.2a112.119,112.119,0,0,1-67.778,20.044l-52.988-1.874A111.5,111.5,0,0,0,200.642,212c-30.468,22.744-63.683,64.626-50.272,135.868a225.215,225.215,0,0,1,3.538,37.107l.564,30.268c.5,26.582,21.316,48.039,46.806,48.615l397.913,8.978c40.885.923,80.287-16.206,108.366-47.163a44.412,44.412,0,0,0,11.388-30.62A91.247,91.247,0,0,0,697.109,337.231Z" transform="translate(-129.853 -133.093)" opacity="0.26" fill="url(#linear-gradient-2)"/>
      </g>
      <g id="Grupo_160931" data-name="Grupo 160931" transform="translate(228.607 168.224)" opacity="0.5">
        <path id="Trazado_210763" data-name="Trazado 210763" d="M429.163,213.73H300.438a4.981,4.981,0,0,1-4.981-4.981h0a4.981,4.981,0,0,1,4.981-4.981H429.163a4.981,4.981,0,0,1,4.981,4.981h0A4.981,4.981,0,0,1,429.163,213.73Z" transform="translate(-295.457 -203.768)" opacity="0.2" fill="url(#linear-gradient-3)"/>
        <path id="Trazado_210764" data-name="Trazado 210764" d="M453.747,244.743H325.022a4.981,4.981,0,0,1-4.981-4.981h0a4.981,4.981,0,0,1,4.981-4.981H453.747a4.981,4.981,0,0,1,4.981,4.981h0A4.981,4.981,0,0,1,453.747,244.743Z" transform="translate(-304.574 -215.27)" opacity="0.53" fill="url(#linear-gradient-3)"/>
        <path id="Trazado_210765" data-name="Trazado 210765" d="M417.142,306.77h-92.12a4.981,4.981,0,0,1-4.981-4.981h0a4.981,4.981,0,0,1,4.981-4.981h92.12a4.981,4.981,0,0,1,4.981,4.981h0A4.981,4.981,0,0,1,417.142,306.77Z" transform="translate(-304.574 -238.274)" opacity="0.53" fill="url(#linear-gradient-3)"/>
        <path id="Trazado_210766" data-name="Trazado 210766" d="M476.693,275.757H347.968a4.981,4.981,0,0,1-4.981-4.981h0a4.981,4.981,0,0,1,4.981-4.981H476.693a4.98,4.98,0,0,1,4.981,4.981h0A4.981,4.981,0,0,1,476.693,275.757Z" transform="translate(-313.084 -226.772)" opacity="0.2" fill="url(#linear-gradient-3)"/>
      </g>
      <g id="Grupo_160932" data-name="Grupo 160932" transform="translate(522.235 182.552)">
        <path id="Trazado_210767" data-name="Trazado 210767" d="M980.261,250.87l10.515.659a9.763,9.763,0,0,1,9.152,9.888l-3.671,249.6a10.244,10.244,0,0,1-10.462,10.091l-72.225-1.542Z" transform="translate(-818.324 -235.565)" fill="url(#linear-gradient-7)"/>
        <path id="Trazado_210768" data-name="Trazado 210768" d="M819.071,247.4l133.337-6.446a4.729,4.729,0,0,1,4.955,4.874l-8.226,257.2a9.886,9.886,0,0,1-10.279,9.563l-93.718-3.767Z" transform="translate(-783.278 -231.884)" fill="url(#linear-gradient-8)"/>
        <path id="Trazado_210769" data-name="Trazado 210769" d="M830.385,250.952l117.273-14.964a4.971,4.971,0,0,1,5.6,5.041l-5.7,259.416a6.871,6.871,0,0,1-6.669,6.718l-86.278,2.523Z" transform="translate(-787.474 -230.03)" fill="url(#linear-gradient-9)"/>
        <path id="Trazado_210770" data-name="Trazado 210770" d="M774.266,234.568l128.574-8a11.133,11.133,0,0,1,11.825,11.111V502.583a9.728,9.728,0,0,1-9.727,9.727H786.394a10.526,10.526,0,0,1-10.51-9.96L762.2,248.125A12.888,12.888,0,0,1,774.266,234.568Z" transform="translate(-762.178 -226.542)" fill="url(#linear-gradient-10)"/>
        <rect id="Rectángulo_47929" data-name="Rectángulo 47929" width="19.987" height="79.053" rx="9.993" transform="translate(142.493 25.297)" fill="url(#linear-gradient-11)"/>
      </g>
      <g id="Grupo_160936" data-name="Grupo 160936" transform="translate(115.204 215.453)">
        <g id="Grupo_160933" data-name="Grupo 160933" transform="translate(57.662 1.605)">
          <path id="Trazado_210771" data-name="Trazado 210771" d="M221.866,430.608a3.23,3.23,0,0,1-5.313-.726c-5.6-11.35-18.526-44.873-.307-84.585,15.385-33.534,20.541-53.179,22.264-62.26a2.025,2.025,0,0,1,3.815-.5C251.673,301.97,276.851,368.281,221.866,430.608Z" transform="translate(-206.858 -281.39)" fill="url(#linear-gradient-12)"/>
          <path id="Trazado_210772" data-name="Trazado 210772" d="M225.066,454.7a1.259,1.259,0,0,1-1.258-1.236c-.009-.561-.763-56.678,18.55-104.339a1.258,1.258,0,0,1,2.332.945c-19.123,47.191-18.375,102.794-18.366,103.349a1.258,1.258,0,0,1-1.236,1.28Z" transform="translate(-213.142 -306.218)" fill="#2a6fae"/>
        </g>
        <g id="Grupo_160934" data-name="Grupo 160934" transform="translate(10.607)">
          <path id="Trazado_210773" data-name="Trazado 210773" d="M135.262,279.56c-3.1,24.965-18.628,178.91,63.248,228.032a3.884,3.884,0,0,0,5.868-3.051c1.329-18.349,2.158-76.656-31.518-145.473-24.3-49.651-33.2-72.034-36.011-79.691A.822.822,0,0,0,135.262,279.56Z" transform="translate(-132.064 -278.838)" fill="url(#linear-gradient-13)"/>
          <path id="Trazado_210774" data-name="Trazado 210774" d="M211.6,537.214a1.258,1.258,0,0,1-1.107-.657c-21.805-40.088-36.694-83.995-45.345-113.769-9.22-31.733-14.081-56.747-13.574-58.363a1.258,1.258,0,0,1,2.443.576c0,4.115,17.631,94.874,58.687,170.353a1.259,1.259,0,0,1-1.1,1.86Zm-57.623-172.04v0Z" transform="translate(-139.288 -310.253)" fill="#24286c"/>
        </g>
        <g id="Grupo_160935" data-name="Grupo 160935" transform="translate(0 150.426)">
          <path id="Trazado_210775" data-name="Trazado 210775" d="M191.394,602.212c-16.585,1.8-64.963-.2-76.166-81.675a2.271,2.271,0,0,1,4.05-1.7c6.649,8.686,18.529,23.5,29.233,28.637,33.165,15.916,43.83,38.015,47.109,48.225A5,5,0,0,1,191.394,602.212Z" transform="translate(-115.204 -517.94)" fill="url(#linear-gradient-14)"/>
          <path id="Trazado_210776" data-name="Trazado 210776" d="M199.949,614.644a1.27,1.27,0,0,1-.449-.083c-45.288-17.3-65.8-56.651-66-57.047a1.258,1.258,0,0,1,2.242-1.144c.2.387,20.3,38.895,64.658,55.84a1.259,1.259,0,0,1-.449,2.434Z" transform="translate(-121.938 -531.938)" fill="#2a6fae"/>
        </g>
      </g>
      <g id="Grupo_160940" data-name="Grupo 160940" transform="translate(520.321 174.683)">
        <g id="Grupo_160937" data-name="Grupo 160937" transform="translate(0 1.605)">
          <path id="Trazado_210777" data-name="Trazado 210777" d="M793.522,365.8a3.23,3.23,0,0,0,5.313-.726c5.6-11.35,18.526-44.874.306-84.585-15.385-33.534-20.541-53.18-22.263-62.26a2.026,2.026,0,0,0-3.816-.5C763.715,237.165,738.537,303.477,793.522,365.8Z" transform="translate(-759.136 -216.586)" fill="url(#linear-gradient-15)"/>
          <path id="Trazado_210778" data-name="Trazado 210778" d="M807.073,389.893h-.023a1.259,1.259,0,0,1-1.236-1.28c.01-.556.752-56.174-18.364-103.349a1.258,1.258,0,1,1,2.332-.945C809.095,331.98,808.34,388.1,808.33,388.657A1.258,1.258,0,0,1,807.073,389.893Z" transform="translate(-769.602 -241.414)" fill="#2a6fae"/>
        </g>
        <g id="Grupo_160938" data-name="Grupo 160938" transform="translate(22.878)">
          <path id="Trazado_210779" data-name="Trazado 210779" d="M866.338,214.756c3.1,24.966,18.628,178.91-63.247,228.033a3.885,3.885,0,0,1-5.869-3.052c-1.329-18.349-2.158-76.656,31.518-145.472,24.3-49.651,33.2-72.034,36.011-79.691A.822.822,0,0,1,866.338,214.756Z" transform="translate(-795.964 -214.034)" fill="url(#linear-gradient-16)"/>
          <path id="Trazado_210780" data-name="Trazado 210780" d="M796.757,472.41a1.259,1.259,0,0,1-1.1-1.86c41.053-75.473,58.689-166.238,58.687-170.354a1.258,1.258,0,0,1,2.444-.576c.506,1.616-4.356,26.631-13.575,58.363-8.651,29.774-23.54,73.681-45.345,113.769A1.258,1.258,0,0,1,796.757,472.41Zm57.624-172.041v0Zm0,0v0Zm-.04-.208Z" transform="translate(-795.499 -245.449)" fill="#24286c"/>
        </g>
        <g id="Grupo_160939" data-name="Grupo 160939" transform="translate(26.397 150.426)">
          <path id="Trazado_210781" data-name="Trazado 210781" d="M805.564,537.408c16.585,1.8,64.963-.2,76.166-81.675a2.271,2.271,0,0,0-4.05-1.7c-6.649,8.686-18.528,23.5-29.233,28.637-33.165,15.916-43.83,38.015-47.109,48.225A5,5,0,0,0,805.564,537.408Z" transform="translate(-801.094 -453.135)" fill="url(#linear-gradient-17)"/>
          <path id="Trazado_210782" data-name="Trazado 210782" d="M804.562,549.84a1.258,1.258,0,0,1-.449-2.434c44.395-16.961,64.461-55.454,64.658-55.84a1.258,1.258,0,0,1,2.242,1.144c-.2.4-20.714,39.745-66,57.046A1.258,1.258,0,0,1,804.562,549.84Z" transform="translate(-801.913 -467.133)" fill="#2a6fae"/>
        </g>
      </g>
      <g id="Grupo_160941" data-name="Grupo 160941" transform="translate(143.549 167.047)">
        <path id="Trazado_210783" data-name="Trazado 210783" d="M568.994,333.748a3.263,3.263,0,0,1-3.187-3.2c-.326-17.923-5.917-106.92-84.293-125.517-87.257-20.705-127.188,68.03-127.188,68.03s-107.962-41.41-128.667,69.51c-67.694,16.246-85.282,104.653-41.253,147.851a37.846,37.846,0,0,0,26.173,10.831l423.942,3.819a27.911,27.911,0,0,0,27.01-19.962C674.777,440.413,692.134,336.632,568.994,333.748Z" transform="translate(-160.258 -201.898)" fill="url(#linear-gradient-3)"/>
        <path id="Trazado_210784" data-name="Trazado 210784" d="M566.609,341.911a3.263,3.263,0,0,1-3.185-3.195c-.347-17.191-5.883-99.714-79.7-117.012-82.507-19.335-120.265,63.53-120.265,63.53S261.373,246.563,241.8,350.145c-63.4,15.026-80.317,96.151-40.189,136.9a37.861,37.861,0,0,0,26.64,11.294l399.085,3.55a27.912,27.912,0,0,0,27.03-20.037C666.807,439.4,681.577,344.662,566.609,341.911Z" transform="translate(-167.562 -208.159)" fill="url(#linear-gradient-19)"/>
      </g>
      <g id="Grupo_160954" data-name="Grupo 160954" transform="translate(283.021 231.216)">
        <g id="Grupo_160945" data-name="Grupo 160945" transform="translate(54.77 22.423)">
          <g id="Grupo_160942" data-name="Grupo 160942" opacity="0.64">
            <path id="Trazado_210785" data-name="Trazado 210785" d="M474.874,509.526a.943.943,0,0,1-.9-.679q-.357-1.217-.679-2.451a.943.943,0,1,1,1.826-.476q.314,1.205.664,2.4a.945.945,0,0,1-.907,1.209Z" transform="translate(-470.584 -400.981)" fill="#fff"/>
            <path id="Trazado_210786" data-name="Trazado 210786" d="M471,437.907a.945.945,0,0,1-.931-.794c-.259-1.614-.473-3.259-.637-4.89a.943.943,0,0,1,1.877-.189c.16,1.594.371,3.2.624,4.78a.944.944,0,0,1-.933,1.093Zm-1.046-12.745a.944.944,0,0,1-.944-.94v-.442c0-1.486.04-3,.118-4.486a.933.933,0,0,1,.992-.893.944.944,0,0,1,.893.992c-.077,1.456-.116,2.933-.116,4.391v.43a.944.944,0,0,1-.939.948Zm.9-12.754a.944.944,0,0,1-.935-1.081c.24-1.623.53-3.255.862-4.854a.944.944,0,0,1,1.848.384c-.325,1.563-.609,3.159-.842,4.745A.945.945,0,0,1,470.854,412.408Zm2.83-12.466a.945.945,0,0,1-.9-1.223c.483-1.558,1.02-3.127,1.6-4.664a.943.943,0,1,1,1.767.663c-.564,1.5-1.088,3.036-1.561,4.559A.944.944,0,0,1,473.684,399.942Zm4.717-11.882a.943.943,0,0,1-.847-1.359c.72-1.472,1.5-2.942,2.3-4.367a.943.943,0,1,1,1.643.929c-.787,1.394-1.544,2.83-2.249,4.269A.943.943,0,0,1,478.4,388.059Zm6.5-11.02a.943.943,0,0,1-.773-1.484c.936-1.339,1.926-2.671,2.942-3.959a.944.944,0,0,1,1.482,1.169c-.995,1.26-1.962,2.562-2.877,3.871A.942.942,0,0,1,484.9,377.039Zm8.108-9.891a.944.944,0,0,1-.682-1.6c1.129-1.18,2.31-2.344,3.511-3.462a.944.944,0,1,1,1.285,1.382c-1.174,1.093-2.329,2.232-3.433,3.385A.941.941,0,0,1,493.006,367.148Zm9.52-8.538a.943.943,0,0,1-.575-1.692c1.3-1,2.645-1.969,3.995-2.886a.944.944,0,1,1,1.06,1.561c-1.32.9-2.634,1.845-3.906,2.821A.938.938,0,0,1,502.526,358.61Zm10.708-6.985a.944.944,0,0,1-.454-1.772c1.434-.786,2.91-1.539,4.387-2.24a.944.944,0,0,1,.808,1.706c-1.444.685-2.886,1.422-4.289,2.19A.933.933,0,0,1,513.234,351.625Zm78.421-.789a.944.944,0,0,1-.436-.107c-1.417-.74-2.876-1.448-4.337-2.1a.943.943,0,1,1,.773-1.721c1.494.671,2.987,1.4,4.437,2.152a.944.944,0,0,1-.437,1.78Zm-66.775-4.475a.944.944,0,0,1-.321-1.831c1.534-.556,3.107-1.073,4.674-1.539a.944.944,0,1,1,.537,1.809c-1.532.455-3.07.961-4.569,1.5A.945.945,0,0,1,524.879,346.361Zm55.016-.549a.958.958,0,0,1-.3-.05c-1.512-.512-3.064-.986-4.61-1.409a.944.944,0,1,1,.5-1.821c1.583.433,3.169.919,4.717,1.442a.944.944,0,0,1-.3,1.838Zm-42.7-2.859a.944.944,0,0,1-.179-1.87c1.607-.314,3.244-.583,4.864-.8a.944.944,0,1,1,.25,1.87c-1.583.213-3.183.476-4.754.782A.949.949,0,0,1,537.192,342.954Zm30.307-.291a.949.949,0,0,1-.162-.014c-1.575-.273-3.181-.5-4.772-.686a.943.943,0,1,1,.214-1.875c1.628.186,3.27.422,4.88.7a.944.944,0,0,1-.16,1.874Zm-17.609-1.179a.944.944,0,0,1-.035-1.887c1.629-.062,3.281-.078,4.932-.044a.944.944,0,0,1-.038,1.887c-1.612-.033-3.229-.018-4.821.043Z" transform="translate(-469.006 -339.535)" fill="#fff"/>
            <path id="Trazado_210787" data-name="Trazado 210787" d="M676.434,364.2a.942.942,0,0,1-.539-.169q-1.019-.71-2.062-1.388a.944.944,0,1,1,1.03-1.582q1.067.695,2.111,1.421a.944.944,0,0,1-.54,1.718Z" transform="translate(-544.811 -347.46)" fill="#fff"/>
          </g>
          <g id="Grupo_160943" data-name="Grupo 160943" transform="translate(32.647 66.618)" opacity="0.64">
            <path id="Trazado_210788" data-name="Trazado 210788" d="M732.339,449.784a.944.944,0,0,1-.929-.784q-.21-1.228-.457-2.444a.944.944,0,1,1,1.849-.377q.254,1.245.469,2.5a.944.944,0,0,1-.931,1.1Z" transform="translate(-598.794 -445.424)" fill="#fff"/>
            <path id="Trazado_210789" data-name="Trazado 210789" d="M577.844,553.468c-1.06,0-2.134-.02-3.195-.06a.944.944,0,1,1,.071-1.886c1.688.063,3.392.074,5.068.036a.944.944,0,1,1,.044,1.887Q578.841,553.468,577.844,553.468Zm10.267-.634a.943.943,0,0,1-.115-1.88c1.669-.208,3.353-.47,5.005-.78a.943.943,0,1,1,.347,1.855c-1.689.317-3.412.586-5.12.8A.934.934,0,0,1,588.112,552.833Zm-21.723-.147a.9.9,0,0,1-.129-.009c-1.709-.234-3.429-.523-5.114-.861a.944.944,0,1,1,.371-1.85c1.646.33,3.328.612,5,.841a.944.944,0,0,1-.126,1.879ZM601.27,550.1a.944.944,0,0,1-.266-1.849c1.612-.475,3.229-1.006,4.807-1.579a.943.943,0,1,1,.644,1.774c-1.614.586-3.268,1.13-4.917,1.616A.958.958,0,0,1,601.27,550.1Zm-48.012-.3a.946.946,0,0,1-.277-.042c-1.646-.505-3.3-1.069-4.906-1.675a.944.944,0,0,1,.664-1.767c1.573.593,3.188,1.143,4.8,1.637a.944.944,0,0,1-.277,1.846ZM613.8,545.27a.944.944,0,0,1-.41-1.794c1.514-.729,3.026-1.516,4.492-2.337a.944.944,0,0,1,.922,1.647c-1.5.84-3.046,1.644-4.594,2.39A.943.943,0,0,1,613.8,545.27Zm-73.035-.454a.945.945,0,0,1-.419-.1c-1.54-.764-3.078-1.589-4.569-2.449a.943.943,0,1,1,.942-1.634c1.458.84,2.961,1.646,4.466,2.393a.944.944,0,0,1-.42,1.79Zm84.631-6.335a.943.943,0,0,1-.542-1.717c1.378-.963,2.745-1.982,4.062-3.029a.944.944,0,0,1,1.175,1.478c-1.348,1.071-2.746,2.113-4.155,3.1A.939.939,0,0,1,625.4,538.482Zm10.361-8.561a.943.943,0,0,1-.657-1.621c1.207-1.171,2.393-2.4,3.526-3.641a.944.944,0,0,1,1.4,1.271c-1.159,1.273-2.373,2.526-3.607,3.724A.938.938,0,0,1,635.762,529.921Zm8.858-10.111a.944.944,0,0,1-.757-1.507c1-1.353,1.979-2.754,2.9-4.162a.944.944,0,1,1,1.582,1.03c-.939,1.441-1.935,2.873-2.963,4.257A.942.942,0,0,1,644.62,519.81Zm7.119-11.407a.944.944,0,0,1-.838-1.377c.773-1.5,1.509-3.036,2.187-4.578a.944.944,0,1,1,1.728.761c-.695,1.577-1.447,3.153-2.237,4.683A.945.945,0,0,1,651.739,508.4Zm5.178-12.412a.945.945,0,0,1-.9-1.236c.517-1.6.993-3.232,1.412-4.864a.944.944,0,1,1,1.828.47c-.43,1.67-.916,3.344-1.446,4.977A.944.944,0,0,1,656.917,495.991Zm3.1-13.078a.93.93,0,0,1-.143-.011.944.944,0,0,1-.79-1.075c.253-1.661.459-3.353.612-5.03a.944.944,0,0,1,1.88.171c-.157,1.715-.367,3.445-.627,5.144A.943.943,0,0,1,660.014,482.912Zm.965-13.407a.944.944,0,0,1-.944-.936c-.013-1.685-.079-3.39-.2-5.064a.943.943,0,1,1,1.882-.131c.12,1.713.187,3.456.2,5.181a.943.943,0,0,1-.936.951Z" transform="translate(-526.242 -451.755)" fill="#fff"/>
            <path id="Trazado_210790" data-name="Trazado 210790" d="M523.86,580.266a.939.939,0,0,1-.551-.178q-1.032-.744-2.042-1.517a.944.944,0,1,1,1.149-1.5q.986.755,2,1.482a.944.944,0,0,1-.552,1.71Z" transform="translate(-520.898 -494.176)" fill="#fff"/>
          </g>
          <g id="Grupo_160944" data-name="Grupo 160944" transform="translate(19.783 19.072)">
            <path id="Trazado_210791" data-name="Trazado 210791" d="M519.895,480.414a1,1,0,0,0,1.119.306l11.41-4.2a52.948,52.948,0,0,0,15.105,8.135l2.783,11.826a1,1,0,0,0,.871.765l14.507,1.47a1,1,0,0,0,1.007-.575l5.1-11.027a52.962,52.962,0,0,0,16.43-4.94l10.337,6.4a1,1,0,0,0,1.157-.076l11.3-9.219a1,1,0,0,0,.306-1.119l-4.2-11.409a52.95,52.95,0,0,0,8.135-15.105l11.826-2.783a1,1,0,0,0,.765-.871l1.47-14.507a1,1,0,0,0-.575-1.007l-11.027-5.1a52.945,52.945,0,0,0-4.94-16.43l6.4-10.337a1,1,0,0,0-.075-1.157l-9.219-11.3a1,1,0,0,0-1.119-.306l-11.409,4.2a52.949,52.949,0,0,0-15.105-8.135l-2.783-11.826a1,1,0,0,0-.871-.765l-14.508-1.47a1,1,0,0,0-1.007.575l-5.1,11.027a52.929,52.929,0,0,0-16.43,4.94L531.216,380a1,1,0,0,0-1.158.076l-11.3,9.219a1,1,0,0,0-.306,1.119l4.2,11.409a52.948,52.948,0,0,0-8.135,15.105l-11.826,2.783a1,1,0,0,0-.764.871l-1.47,14.507a1,1,0,0,0,.574,1.007l11.027,5.1a52.966,52.966,0,0,0,4.94,16.43l-6.4,10.336a1,1,0,0,0,.076,1.158Z" transform="translate(-500.452 -369.85)" fill="url(#linear-gradient-20)"/>
            <path id="Trazado_210792" data-name="Trazado 210792" d="M594.654,477.977a13.908,13.908,0,1,1,2.055-.151h0A14.073,14.073,0,0,1,594.654,477.977Zm.037-25.9a12.078,12.078,0,0,0-1.758.13,12,12,0,0,0,3.5,23.752h0a12,12,0,0,0-1.742-23.881Z" transform="translate(-530.246 -399.645)" fill="#fff"/>
            <path id="Trazado_210793" data-name="Trazado 210793" d="M581.957,486.762a36.279,36.279,0,0,1-3.668-.186h0A36.394,36.394,0,0,1,570.762,485a.944.944,0,0,1-.653-.9.9.9,0,0,1,.046-.292.945.945,0,0,1,1.188-.607,34.494,34.494,0,0,0,7.137,1.5h0a34.265,34.265,0,0,0,37.451-30.011c.024-.2.047-.4.067-.605a35.02,35.02,0,0,0,.178-3.519,34.243,34.243,0,0,0-68.312-3.382,34.545,34.545,0,0,0-.175,3.474,34.146,34.146,0,0,0,3.231,14.507.922.922,0,0,1,.09.4.943.943,0,0,1-1.8.4,36.132,36.132,0,1,1,68.851-15.4,36.851,36.851,0,0,1-.188,3.714A36.18,36.18,0,0,1,581.957,486.762Z" transform="translate(-517.27 -386.409)" fill="#fff"/>
          </g>
        </g>
        <g id="Grupo_160949" data-name="Grupo 160949" transform="translate(0 120.152)">
          <g id="Grupo_160946" data-name="Grupo 160946" opacity="0.64">
            <path id="Trazado_210794" data-name="Trazado 210794" d="M384.629,568.672a.63.63,0,0,1-.6-.452q-.225-.765-.418-1.544a.629.629,0,1,1,1.222-.3q.186.752.4,1.492a.629.629,0,0,1-.426.781A.62.62,0,0,1,384.629,568.672Z" transform="translate(-382.557 -521.214)" fill="#fff"/>
            <path id="Trazado_210795" data-name="Trazado 210795" d="M382.989,537.7a.629.629,0,0,1-.622-.533c-.163-1.058-.281-2.138-.35-3.208a.629.629,0,1,1,1.256-.081c.067,1.034.181,2.076.338,3.1a.631.631,0,0,1-.622.725Zm-.411-6.323h-.014a.629.629,0,0,1-.615-.643c.014-.572.04-1.147.081-1.723q.052-.752.134-1.5a.629.629,0,1,1,1.251.138c-.053.479-.1.961-.13,1.445q-.059.837-.077,1.665A.63.63,0,0,1,382.578,531.381Zm.693-6.3a.629.629,0,0,1-.618-.752c.21-1.052.469-2.106.769-3.132a.629.629,0,0,1,1.208.353c-.29.992-.54,2.009-.743,3.026A.629.629,0,0,1,383.271,525.083ZM385.052,519a.631.631,0,0,1-.586-.859c.39-1,.83-1.988,1.309-2.95a.629.629,0,0,1,1.127.561c-.462.929-.888,1.887-1.265,2.848A.63.63,0,0,1,385.052,519Zm2.825-5.673a.629.629,0,0,1-.535-.958c.561-.914,1.17-1.813,1.808-2.673a.629.629,0,1,1,1.01.75c-.616.83-1.2,1.7-1.745,2.581A.631.631,0,0,1,387.877,513.331Zm3.777-5.088a.629.629,0,0,1-.471-1.046c.713-.8,1.469-1.582,2.247-2.316a.629.629,0,1,1,.864.915c-.751.709-1.48,1.462-2.169,2.237A.629.629,0,0,1,391.655,508.243Zm4.607-4.351a.629.629,0,0,1-.391-1.123c.839-.664,1.719-1.3,2.614-1.889a.629.629,0,1,1,.692,1.051c-.865.57-1.715,1.184-2.526,1.826A.626.626,0,0,1,396.262,503.892Zm5.292-3.483a.629.629,0,0,1-.3-1.183c.944-.509,1.922-.981,2.9-1.4a.629.629,0,1,1,.5,1.156c-.949.408-1.892.864-2.8,1.356A.628.628,0,0,1,401.553,500.409Zm33.549-.328a.622.622,0,0,1-.286-.069c-.924-.473-1.877-.911-2.834-1.3a.629.629,0,1,1,.474-1.165c.991.4,1.977.855,2.933,1.346a.629.629,0,0,1-.288,1.188Zm-27.729-2.175a.629.629,0,0,1-.2-1.227c1.017-.335,2.062-.629,3.106-.872a.63.63,0,0,1,.286,1.226c-1.007.235-2.016.517-3,.841A.633.633,0,0,1,407.373,497.906Zm21.857-.21a.622.622,0,0,1-.184-.028c-.989-.3-2-.566-3.017-.78a.629.629,0,1,1,.26-1.231c1.05.222,2.1.494,3.125.808a.629.629,0,0,1-.185,1.231Zm-15.689-1.23a.629.629,0,0,1-.088-1.252c1.063-.15,2.143-.255,3.212-.311a.638.638,0,0,1,.661.6.629.629,0,0,1-.6.661c-1.031.054-2.074.155-3.1.3A.712.712,0,0,1,413.541,496.466Zm9.49-.085a.632.632,0,0,1-.077-.005c-.617-.076-1.248-.136-1.874-.179q-.619-.043-1.232-.065a.629.629,0,1,1,.043-1.257q.636.022,1.276.066c.649.045,1.3.108,1.94.186a.629.629,0,0,1-.075,1.254Z" transform="translate(-381.949 -494.875)" fill="#fff"/>
            <path id="Trazado_210796" data-name="Trazado 210796" d="M471.807,505.813a.628.628,0,0,1-.358-.112q-.634-.441-1.287-.854a.629.629,0,1,1,.672-1.064q.677.428,1.332.885a.629.629,0,0,1-.359,1.146Z" transform="translate(-414.556 -498.142)" fill="#fff"/>
          </g>
          <g id="Grupo_160947" data-name="Grupo 160947" transform="translate(14.14 28.848)" opacity="0.64">
            <path id="Trazado_210797" data-name="Trazado 210797" d="M496.353,543.534a.63.63,0,0,1-.621-.531q-.121-.766-.274-1.521a.629.629,0,0,1,1.234-.25q.158.781.283,1.574a.628.628,0,0,1-.523.72A.586.586,0,0,1,496.353,543.534Z" transform="translate(-438.181 -540.728)" fill="#fff"/>
            <path id="Trazado_210798" data-name="Trazado 210798" d="M429.335,587.987h-.145a.629.629,0,0,1,0-1.258h.142c.971,0,1.955-.041,2.924-.122a.629.629,0,1,1,.1,1.254C431.36,587.945,430.341,587.987,429.335,587.987Zm-3.259-.145-.057,0c-1.054-.094-2.114-.234-3.147-.417a.629.629,0,0,1,.218-1.239c1,.176,2.021.312,3.041.4a.629.629,0,0,1-.055,1.256Zm9.33-.371a.629.629,0,0,1-.106-1.249c1.005-.172,2.014-.391,3-.649a.629.629,0,0,1,.32,1.217c-1.017.267-2.061.493-3.1.672A.608.608,0,0,1,435.407,587.471Zm-15.471-.712a.632.632,0,0,1-.163-.022c-1.022-.273-2.04-.593-3.03-.953a.629.629,0,0,1,.43-1.183c.954.347,1.938.657,2.924.92a.629.629,0,0,1-.161,1.237Zm21.5-.87a.629.629,0,0,1-.212-1.222c.958-.344,1.913-.733,2.837-1.158a.629.629,0,0,1,.526,1.144c-.958.44-1.947.843-2.938,1.2A.629.629,0,0,1,441.434,585.889Zm-27.362-1.26a.636.636,0,0,1-.265-.058c-.956-.445-1.9-.937-2.818-1.464a.629.629,0,0,1,.628-1.091c.883.509,1.8.985,2.721,1.414a.629.629,0,0,1-.266,1.2Zm33.026-1.344a.629.629,0,0,1-.311-1.176c.884-.5,1.758-1.051,2.6-1.629a.629.629,0,1,1,.714,1.036c-.868.6-1.772,1.166-2.688,1.687A.626.626,0,0,1,447.1,583.285Zm5.133-3.538a.629.629,0,0,1-.4-1.115c.787-.649,1.553-1.339,2.279-2.051a.629.629,0,1,1,.881.9c-.751.737-1.545,1.451-2.359,2.123A.626.626,0,0,1,452.232,579.747Zm4.45-4.367a.629.629,0,0,1-.477-1.039c.664-.773,1.3-1.585,1.894-2.411a.629.629,0,1,1,1.022.734c-.615.856-1.275,1.7-1.962,2.5A.625.625,0,0,1,456.682,575.38Zm3.635-5.065a.622.622,0,0,1-.32-.088.629.629,0,0,1-.22-.862c.522-.879,1.009-1.788,1.45-2.7a.629.629,0,1,1,1.133.546c-.456.947-.961,1.888-1.5,2.8A.629.629,0,0,1,460.317,570.315Zm2.706-5.618a.617.617,0,0,1-.223-.042.629.629,0,0,1-.366-.811c.36-.949.682-1.928.959-2.911a.629.629,0,0,1,1.212.341c-.287,1.018-.622,2.033-.993,3.015A.63.63,0,0,1,463.023,564.7Zm1.69-6a.586.586,0,0,1-.118-.011.628.628,0,0,1-.5-.735c.189-1,.338-2.018.442-3.034a.629.629,0,1,1,1.252.128c-.108,1.051-.262,2.107-.457,3.14A.63.63,0,0,1,464.713,558.7Zm.634-6.2h-.009a.629.629,0,0,1-.62-.638q0-.3.005-.6c0-.822-.028-1.653-.085-2.467a.629.629,0,0,1,1.256-.086c.058.844.087,1.7.087,2.554q0,.309-.005.618A.629.629,0,0,1,465.347,552.495Z" transform="translate(-406.742 -543.468)" fill="#fff"/>
            <path id="Trazado_210799" data-name="Trazado 210799" d="M406.321,599.883a.627.627,0,0,1-.36-.114q-.656-.459-1.29-.945a.629.629,0,0,1,.766-1q.612.469,1.246.913a.629.629,0,0,1-.361,1.144Z" transform="translate(-404.424 -561.855)" fill="#fff"/>
          </g>
          <g id="Grupo_160948" data-name="Grupo 160948" transform="translate(8.785 8.463)">
            <path id="Trazado_210800" data-name="Trazado 210800" d="M404.339,556.241a.432.432,0,0,0,.484.133l4.944-1.818a22.96,22.96,0,0,0,6.546,3.525l1.206,5.125a.433.433,0,0,0,.378.332l6.287.637a.432.432,0,0,0,.436-.248l2.21-4.779A22.946,22.946,0,0,0,433.95,557l4.479,2.773a.433.433,0,0,0,.5-.033l4.9-3.995a.434.434,0,0,0,.133-.485l-1.818-4.944a22.947,22.947,0,0,0,3.525-6.546l5.125-1.206a.433.433,0,0,0,.332-.378l.637-6.287a.432.432,0,0,0-.249-.437l-4.779-2.209a22.937,22.937,0,0,0-2.141-7.12l2.773-4.479a.434.434,0,0,0-.033-.5l-4-4.9a.432.432,0,0,0-.484-.133l-4.944,1.818a22.944,22.944,0,0,0-6.546-3.525l-1.206-5.125a.432.432,0,0,0-.377-.332l-6.287-.637a.432.432,0,0,0-.437.249l-2.21,4.779a22.953,22.953,0,0,0-7.12,2.141l-4.479-2.773a.432.432,0,0,0-.5.033l-4.9,3.995a.433.433,0,0,0-.132.485l1.818,4.944a22.943,22.943,0,0,0-3.525,6.546l-5.125,1.206a.432.432,0,0,0-.331.377l-.637,6.287a.434.434,0,0,0,.249.437l4.779,2.209a22.949,22.949,0,0,0,2.141,7.12l-2.773,4.479a.433.433,0,0,0,.032.5Z" transform="translate(-395.913 -508.327)" fill="url(#linear-gradient-21)"/>
            <path id="Trazado_210801" data-name="Trazado 210801" d="M436.606,555.275a6.248,6.248,0,1,1,.923-.068A6.264,6.264,0,0,1,436.606,555.275Zm.017-11.224a4.982,4.982,0,1,0,4.925,4.256A4.948,4.948,0,0,0,436.623,544.051Z" transform="translate(-408.695 -521.109)" fill="#fff" opacity="0.56"/>
            <path id="Trazado_210802" data-name="Trazado 210802" d="M431.105,559.082a16.045,16.045,0,0,1-4.776-.729l-.144-.046a.63.63,0,0,1-.435-.6.638.638,0,0,1,.031-.2.63.63,0,0,1,.792-.4,14.62,14.62,0,1,0,5.994-28.449,14.622,14.622,0,0,0-14.713,20.747.629.629,0,0,1-1.139.535,15.817,15.817,0,0,1-1.5-6.727,16.074,16.074,0,0,1,.081-1.611,15.877,15.877,0,0,1,31.674,1.586,16.062,16.062,0,0,1-.081,1.615A15.9,15.9,0,0,1,431.105,559.082Z" transform="translate(-403.072 -515.373)" fill="#fff" opacity="0.56"/>
          </g>
        </g>
        <g id="Grupo_160953" data-name="Grupo 160953" transform="translate(151.311)">
          <g id="Grupo_160950" data-name="Grupo 160950" opacity="0.64">
            <path id="Trazado_210803" data-name="Trazado 210803" d="M624.532,357.711a.629.629,0,0,1-.6-.452c-.153-.517-.289-1.041-.407-1.559a.629.629,0,0,1,1.227-.279c.112.492.242.991.387,1.483a.63.63,0,0,1-.426.781A.62.62,0,0,1,624.532,357.711Z" transform="translate(-622.845 -322.822)" fill="#fff"/>
            <path id="Trazado_210804" data-name="Trazado 210804" d="M623.219,334.068a.629.629,0,0,1-.625-.565,26.853,26.853,0,0,1-.138-2.72q0-.3.006-.592a.63.63,0,0,1,.629-.615h.014a.629.629,0,0,1,.615.643c0,.188-.006.376-.006.564a25.6,25.6,0,0,0,.132,2.593.629.629,0,0,1-.562.69A.558.558,0,0,1,623.219,334.068Zm.14-6.459a.628.628,0,0,1-.623-.719,27.081,27.081,0,0,1,.674-3.244.629.629,0,1,1,1.214.331,25.87,25.87,0,0,0-.642,3.093A.628.628,0,0,1,623.359,327.608Zm1.7-6.233a.63.63,0,0,1-.582-.869,26.7,26.7,0,0,1,1.451-2.981.629.629,0,1,1,1.095.619,25.623,25.623,0,0,0-1.382,2.842A.63.63,0,0,1,625.061,321.375Zm3.18-5.626a.628.628,0,0,1-.5-1,26.948,26.948,0,0,1,2.135-2.535.629.629,0,1,1,.91.868,25.766,25.766,0,0,0-2.035,2.417A.627.627,0,0,1,628.242,315.749Zm4.459-4.678a.629.629,0,0,1-.4-1.116,27.1,27.1,0,0,1,2.685-1.94.629.629,0,1,1,.673,1.063,25.972,25.972,0,0,0-2.561,1.85A.628.628,0,0,1,632.7,311.071Zm5.458-3.454a.629.629,0,0,1-.269-1.2,27,27,0,0,1,3.076-1.227.629.629,0,0,1,.393,1.2,25.566,25.566,0,0,0-2.932,1.168A.627.627,0,0,1,638.158,307.617Zm21.97-.2a.634.634,0,0,1-.257-.055,25.649,25.649,0,0,0-2.956-1.114.629.629,0,1,1,.369-1.2,26.914,26.914,0,0,1,3.1,1.169.629.629,0,0,1-.259,1.2ZM644.292,305.6a.629.629,0,0,1-.12-1.246,26.724,26.724,0,0,1,3.285-.434.629.629,0,1,1,.087,1.255,25.566,25.566,0,0,0-3.131.413A.616.616,0,0,1,644.292,305.6Zm9.662-.082a.59.59,0,0,1-.109-.01,25.976,25.976,0,0,0-2.719-.332c-.14-.01-.281-.018-.421-.026a.63.63,0,0,1-.6-.662.637.637,0,0,1,.662-.595c.147.008.294.016.44.027a27.1,27.1,0,0,1,2.851.349.629.629,0,0,1-.109,1.249Z" transform="translate(-622.456 -303.894)" fill="#fff"/>
            <path id="Trazado_210805" data-name="Trazado 210805" d="M687.878,312.035a.626.626,0,0,1-.359-.113c-.415-.289-.847-.571-1.285-.837a.63.63,0,0,1,.656-1.075c.459.281.912.576,1.348.879a.629.629,0,0,1-.361,1.146Z" transform="translate(-645.998 -306.129)" fill="#fff"/>
          </g>
          <g id="Grupo_160951" data-name="Grupo 160951" transform="translate(10.306 20.991)" opacity="0.64">
            <path id="Trazado_210806" data-name="Trazado 210806" d="M706.034,340.067a.63.63,0,0,1-.622-.541c-.072-.51-.16-1.019-.26-1.513a.629.629,0,0,1,1.234-.25c.105.518.2,1.052.272,1.587a.63.63,0,0,1-.535.711A.608.608,0,0,1,706.034,340.067Z" transform="translate(-663.427 -337.259)" fill="#fff"/>
            <path id="Trazado_210807" data-name="Trazado 210807" d="M658.188,372.813a.629.629,0,0,1-.008-1.258,25.619,25.619,0,0,0,3.1-.228.629.629,0,1,1,.168,1.247,27.091,27.091,0,0,1-3.25.24Zm-3.181-.148a.617.617,0,0,1-.067,0,27.1,27.1,0,0,1-3.215-.54.629.629,0,1,1,.282-1.226,25.939,25.939,0,0,0,3.066.516.629.629,0,0,1-.066,1.254Zm9.477-.7a.63.63,0,0,1-.16-1.238,25.665,25.665,0,0,0,2.953-.971.629.629,0,1,1,.464,1.17,26.808,26.808,0,0,1-3.1,1.019A.641.641,0,0,1,664.483,371.961Zm-15.671-.73a.626.626,0,0,1-.215-.038,26.924,26.924,0,0,1-2.991-1.3.629.629,0,1,1,.57-1.122,25.764,25.764,0,0,0,2.851,1.24.629.629,0,0,1-.215,1.221Zm21.576-1.619a.629.629,0,0,1-.3-1.181,25.829,25.829,0,0,0,2.631-1.652.629.629,0,1,1,.732,1.024,26.943,26.943,0,0,1-2.76,1.733A.63.63,0,0,1,670.388,369.613Zm5.169-3.7a.629.629,0,0,1-.425-1.093,25.779,25.779,0,0,0,2.162-2.234.629.629,0,0,1,.956.819,27.172,27.172,0,0,1-2.267,2.342A.629.629,0,0,1,675.557,365.917Zm4.136-4.827a.629.629,0,0,1-.523-.978,25.407,25.407,0,0,0,1.563-2.686.629.629,0,0,1,1.124.566,26.868,26.868,0,0,1-1.641,2.82A.629.629,0,0,1,679.693,361.09Zm2.856-5.68a.63.63,0,0,1-.592-.841,25.681,25.681,0,0,0,.866-2.984.629.629,0,0,1,1.227.277,27.022,27.022,0,0,1-.909,3.13A.63.63,0,0,1,682.549,355.41Zm1.4-6.2a.554.554,0,0,1-.065,0,.629.629,0,0,1-.562-.69q.042-.414.071-.832c.042-.595.063-1.2.063-1.8q0-.24-.005-.478a.629.629,0,0,1,.617-.641.636.636,0,0,1,.641.617c0,.167.005.333.005.5,0,.627-.023,1.26-.065,1.882q-.03.438-.075.873A.63.63,0,0,1,683.949,349.21Z" transform="translate(-641.22 -340.045)" fill="#fff"/>
            <path id="Trazado_210808" data-name="Trazado 210808" d="M640.742,380.933a.621.621,0,0,1-.351-.108c-.439-.3-.879-.612-1.306-.94a.629.629,0,0,1,.765-1c.408.313.827.615,1.245.9a.629.629,0,0,1-.353,1.151Z" transform="translate(-638.838 -352.649)" fill="#fff"/>
          </g>
          <g id="Grupo_160952" data-name="Grupo 160952" transform="translate(6.577 6.314)">
            <path id="Trazado_210809" data-name="Trazado 210809" d="M639.047,348.832a.316.316,0,0,0,.354.1L643,347.6a16.72,16.72,0,0,0,4.769,2.568l.878,3.733a.315.315,0,0,0,.275.242l4.579.464a.315.315,0,0,0,.318-.181l1.609-3.481a16.728,16.728,0,0,0,5.187-1.56l3.263,2.02a.315.315,0,0,0,.365-.024l3.567-2.91a.315.315,0,0,0,.1-.353l-1.324-3.6a16.725,16.725,0,0,0,2.568-4.768l3.733-.878a.316.316,0,0,0,.242-.276l.464-4.579a.314.314,0,0,0-.181-.318l-3.481-1.609a16.732,16.732,0,0,0-1.56-5.187l2.02-3.263a.316.316,0,0,0-.024-.366l-2.91-3.566a.316.316,0,0,0-.353-.1l-3.6,1.325a16.709,16.709,0,0,0-4.768-2.568l-.878-3.733a.316.316,0,0,0-.276-.242L653,313.931a.315.315,0,0,0-.318.181l-1.609,3.481a16.732,16.732,0,0,0-5.187,1.56l-3.263-2.02a.315.315,0,0,0-.365.024l-3.566,2.91a.317.317,0,0,0-.1.354l1.325,3.6a16.706,16.706,0,0,0-2.568,4.769l-3.733.878a.315.315,0,0,0-.242.275l-.464,4.579a.316.316,0,0,0,.181.318l3.482,1.609a16.711,16.711,0,0,0,1.559,5.187l-2.019,3.263a.315.315,0,0,0,.024.366Z" transform="translate(-632.91 -313.93)" fill="url(#linear-gradient-22)"/>
            <path id="Trazado_210810" data-name="Trazado 210810" d="M662.451,348.2a4.72,4.72,0,1,1,.7-.051h0A4.832,4.832,0,0,1,662.451,348.2Zm.606-.673h0Zm-.589-7.5a3.5,3.5,0,0,0-.511.037,3.452,3.452,0,1,0,.511-.037Z" transform="translate(-642.12 -323.14)" fill="#fff" opacity="0.56"/>
            <path id="Trazado_210811" data-name="Trazado 210811" d="M658.444,350.971a11.875,11.875,0,0,1-3.455-.515h0l-.111-.035-.07-.022a.629.629,0,0,1,.388-1.2,10.522,10.522,0,0,0,2.184.457h0l.109.011a10.48,10.48,0,0,0,11.336-9.071c0-.008,0-.016,0-.024q.019-.142.033-.283a10.478,10.478,0,1,0-19.914,3.39.629.629,0,0,1-1.139.535,11.7,11.7,0,0,1-1.108-4.973q0-.595.06-1.191a11.736,11.736,0,1,1,11.685,12.919Z" transform="translate(-638.023 -318.962)" fill="#fff" opacity="0.56"/>
          </g>
        </g>
      </g>
      <g id="Grupo_160964" data-name="Grupo 160964" transform="translate(184.147 227.145)">
        <g id="Grupo_160962" data-name="Grupo 160962" transform="translate(53.88)">
          <g id="Grupo_160960" data-name="Grupo 160960" transform="translate(0 18.603)">
            <g id="Grupo_160955" data-name="Grupo 160955" transform="translate(25.395 94.118)">
              <path id="Trazado_210812" data-name="Trazado 210812" d="M363.177,488.586c-2.182.189-5.97.5-8.956.627a8.622,8.622,0,0,1-3.423-.335c0,.067,0,.131.006.189a.617.617,0,0,0,.586.583,104.777,104.777,0,0,0,11.726.012.44.44,0,0,0,.359-.661A3.55,3.55,0,0,0,363.177,488.586Z" transform="translate(-350.797 -481.04)" fill="url(#linear-gradient-23)"/>
              <path id="Trazado_210813" data-name="Trazado 210813" d="M354.221,486.615c2.986-.131,6.773-.438,8.956-.627-2.145-2.632-8.956-4.406-8.956-4.406H352.3a8.064,8.064,0,0,0-1.5,4.7A8.622,8.622,0,0,0,354.221,486.615Z" transform="translate(-350.797 -478.442)" fill="url(#linear-gradient-24)"/>
              <path id="Trazado_210814" data-name="Trazado 210814" d="M352.667,476.591l.18,3.562a.814.814,0,0,0,.695.765,3.158,3.158,0,0,0,1.445-.12.963.963,0,0,0,.647-.74l.622-3.467Z" transform="translate(-351.49 -476.591)" fill="url(#linear-gradient-25)"/>
            </g>
            <g id="Grupo_160957" data-name="Grupo 160957" transform="translate(0 90.789)">
              <g id="Grupo_160956" data-name="Grupo 160956" transform="translate(0 3.305)">
                <path id="Trazado_210815" data-name="Trazado 210815" d="M312.021,488.862a1.728,1.728,0,0,1-1.554-1.149l0,.014a1.23,1.23,0,0,0,.829,1.4,5.42,5.42,0,0,0,2.3.359,2.282,2.282,0,0,0,1.721-.793l.006-.008A5.776,5.776,0,0,1,312.021,488.862Z" transform="translate(-310.431 -480.692)" fill="url(#linear-gradient-26)"/>
                <path id="Trazado_210816" data-name="Trazado 210816" d="M316.5,476.554h-1.586c-2.416-.049-3.933,5.047-4.43,7.021a1.727,1.727,0,0,0,1.554,1.149,5.776,5.776,0,0,0,3.292-.174,15.155,15.155,0,0,0,2.263-5.7A2,2,0,0,0,316.5,476.554Z" transform="translate(-310.452 -476.553)" fill="url(#linear-gradient-24)"/>
              </g>
              <path id="Trazado_210817" data-name="Trazado 210817" d="M317.317,471.3l-.881,3.5a.951.951,0,0,0,.495,1.078,3.378,3.378,0,0,0,1.824.442.8.8,0,0,0,.648-.53l1.293-3.686Z" transform="translate(-312.648 -471.3)" fill="url(#linear-gradient-28)"/>
            </g>
            <path id="Trazado_210818" data-name="Trazado 210818" d="M316.183,443.547c1.1.972,4.66,1.1,4.66,1.1,12.84-30.816,18.092-35.194,18.092-35.194-1.854,11.631-.3,37.382-.3,37.382a7.7,7.7,0,0,0,4.85,0,198.494,198.494,0,0,1,6.557-48.741c-8.678-.2-13.293-3.165-14.8-4.357C328.009,405.4,316.183,443.547,316.183,443.547Z" transform="translate(-312.564 -351.745)" fill="url(#linear-gradient-29)"/>
            <path id="Trazado_210819" data-name="Trazado 210819" d="M348.207,337.284c-1.643,8.193-1.054,22.857-.667,29.546.108,1.88-1.2,4.486-2.265,6.264a.557.557,0,0,0,.225.784,38.676,38.676,0,0,0,14.766,4.094.994.994,0,0,0,1-.743,194.161,194.161,0,0,1,11.18-31.654C365.814,334.983,348.207,337.284,348.207,337.284Z" transform="translate(-323.324 -330.73)" fill="url(#linear-gradient-30)"/>
            <path id="Trazado_210820" data-name="Trazado 210820" d="M353.5,414.561a.411.411,0,0,1-.351-.625,12.9,12.9,0,0,1,5.09-4.42.411.411,0,0,1,.358.74,12.293,12.293,0,0,0-4.746,4.107A.41.41,0,0,1,353.5,414.561Z" transform="translate(-326.251 -357.582)" fill="url(#linear-gradient-31)"/>
            <g id="Grupo_160958" data-name="Grupo 160958" transform="translate(14.369 6.554)">
              <path id="Trazado_210821" data-name="Trazado 210821" d="M333.606,374.448a28.184,28.184,0,0,0,5.2,12.4l1.185-.966a36.612,36.612,0,0,1-.591-11.853A14.18,14.18,0,0,0,333.606,374.448Z" transform="translate(-333.395 -350.934)" fill="url(#linear-gradient-32)"/>
              <path id="Trazado_210822" data-name="Trazado 210822" d="M345.619,347.519l-1.835-10.11s-12.258,9.37-10.3,23.514a14.181,14.181,0,0,1,5.8-.417C339.841,355.966,341.515,351.039,345.619,347.519Z" transform="translate(-333.27 -337.409)" fill="url(#linear-gradient-33)"/>
            </g>
            <g id="Grupo_160959" data-name="Grupo 160959" transform="translate(44.391 14.845)">
              <path id="Trazado_210823" data-name="Trazado 210823" d="M385.722,350.587l-4.732,10.19c.765,6.152,4.07,8.812,7.633,9.832a21.631,21.631,0,0,1,1.589-6.635C385.659,359.273,385.722,350.587,385.722,350.587Z" transform="translate(-380.99 -350.587)" fill="url(#linear-gradient-34)"/>
              <path id="Trazado_210824" data-name="Trazado 210824" d="M394.712,371.865a21.63,21.63,0,0,0-1.589,6.635c9.507,3.689,12.023-3.465,12.023-3.465l-1.757-.31A9.96,9.96,0,0,1,394.712,371.865Z" transform="translate(-385.49 -358.478)" fill="url(#linear-gradient-28)"/>
            </g>
            <path id="Trazado_210825" data-name="Trazado 210825" d="M376.328,329.256l-2.284,8.4a1.634,1.634,0,0,1-2.184,1.087,33.3,33.3,0,0,1-3.293-1.5,2.2,2.2,0,0,1-.776-3.163l4.749-7.081Z" transform="translate(-331.565 -326.991)" fill="url(#linear-gradient-36)"/>
          </g>
          <path id="Trazado_210826" data-name="Trazado 210826" d="M382.916,367.973l-58.532,21.3a4.482,4.482,0,0,0-2.547,6.067l.177.391a4.167,4.167,0,0,0,5.541,2.057L384.39,371.5Z" transform="translate(-314.512 -323.587)" fill="url(#linear-gradient-24)"/>
          <ellipse id="Elipse_6414" data-name="Elipse 6414" cx="28.894" cy="28.373" rx="28.894" ry="28.373" transform="translate(66.413 3.199)" opacity="0.5" fill="url(#linear-gradient-38)"/>
          <path id="Trazado_210827" data-name="Trazado 210827" d="M442.969,297.422c-17.757,0-32.151,14.135-32.151,31.572s14.395,31.571,32.151,31.571,32.151-14.135,32.151-31.571S460.726,297.422,442.969,297.422Zm0,58.5A26.938,26.938,0,1,1,470.4,328.994,27.184,27.184,0,0,1,442.969,355.927Z" transform="translate(-347.662 -297.422)" fill="url(#linear-gradient-24)"/>
          <path id="Trazado_210828" data-name="Trazado 210828" d="M414.4,334.1a.314.314,0,0,1-.311-.274c-.1-.749-.163-1.512-.2-2.272a.314.314,0,1,1,.628-.031c.036.744.1,1.492.2,2.223a.314.314,0,0,1-.272.352A.293.293,0,0,1,414.4,334.1Zm.222-8.828a.332.332,0,0,1-.056-.005.315.315,0,0,1-.255-.366,29.254,29.254,0,0,1,1.74-5.955h0a30.146,30.146,0,0,1,28.055-18.57,30.56,30.56,0,0,1,16.245,4.642.314.314,0,0,1-.334.533A29.936,29.936,0,0,0,444.108,301a29.519,29.519,0,0,0-27.474,18.181h0a28.541,28.541,0,0,0-1.7,5.828A.314.314,0,0,1,414.622,325.27Z" transform="translate(-348.8 -298.516)" fill="#fff"/>
          <g id="Grupo_160961" data-name="Grupo 160961" transform="translate(39.144 9.977)">
            <path id="Trazado_210829" data-name="Trazado 210829" d="M385.239,319.656c.021.144-1.905,9.582-1.905,9.582l-5.366-1.214.5-9.217S384.891,317.242,385.239,319.656Z" transform="translate(-374.623 -315.145)" fill="url(#linear-gradient-40)"/>
            <path id="Trazado_210830" data-name="Trazado 210830" d="M377.747,319l-.641,4.831a.675.675,0,0,0,0,.185c.054.379.336,1.668,1.638,1.3a6.118,6.118,0,0,1,3.012-.394.68.68,0,0,1,.468.787,29.45,29.45,0,0,1-1.235,4.4.679.679,0,0,1-.825.4,21.916,21.916,0,0,1-4.73-1.935.682.682,0,0,1-.332-.613c.052-1.219.194-4.927.074-5.967-.113-.975-1.31-1.56-1.83-1.769a.669.669,0,0,1-.372-.374,1.765,1.765,0,0,1,1.187-2.573.681.681,0,0,0,.432-.881,1.768,1.768,0,0,1,.992-2.444,2.494,2.494,0,0,1,2.976.717.681.681,0,0,0,.868.1.538.538,0,0,1,.613.021.671.671,0,0,0,.95-.288,2.032,2.032,0,0,1,2.362-1.176c2.4.411,2.677,3.076,2.043,4.637s-3.216.966-4.511.179c-.985-.6-2.262.029-2.818.364A.677.677,0,0,0,377.747,319Z" transform="translate(-372.699 -313.281)" fill="url(#linear-gradient-41)"/>
            <path id="Trazado_210831" data-name="Trazado 210831" d="M374.913,327.707s.988-2.768-.027-3.446-2.52-.326-2.189,1.679C373.11,328.435,374.913,327.707,374.913,327.707Z" transform="translate(-372.651 -317.236)" fill="url(#linear-gradient-42)"/>
          </g>
          <path id="Trazado_210832" data-name="Trazado 210832" d="M342.346,392.428l5.533-.451,2.4,2.209s-.567.784-2.339.333a25.435,25.435,0,0,0-4.2-.561s-2.447,1.1-2.476-.961Z" transform="translate(-321.864 -332.49)" fill="url(#linear-gradient-43)"/>
          <path id="Trazado_210833" data-name="Trazado 210833" d="M410.775,376.516c.478.374,2.118-.406,3.121-.946a1.155,1.155,0,0,0,.558-1.364c-.242-.761-.644-1.744-1.139-1.868C412.492,372.132,408.8,374.975,410.775,376.516Z" transform="translate(-347.433 -325.202)" fill="url(#linear-gradient-28)"/>
          <path id="Trazado_210834" data-name="Trazado 210834" d="M326.171,408.648a.325.325,0,0,1-.1-.017c-2.34-.809-2.883-2.2-2.928-3.225a3.579,3.579,0,0,1,2.333-3.451l7.027-2.741a.315.315,0,0,1,.229.586l-7.028,2.741a2.949,2.949,0,0,0-1.933,2.837c.052,1.207.895,2.1,2.5,2.657a.315.315,0,0,1-.1.612Z" transform="translate(-315.143 -335.166)" fill="#fff"/>
          <path id="Trazado_210835" data-name="Trazado 210835" d="M341.46,398.272a.315.315,0,0,1-.115-.608l.91-.355a.315.315,0,1,1,.228.586l-.91.355A.3.3,0,0,1,341.46,398.272Z" transform="translate(-321.822 -334.459)" fill="#fff"/>
        </g>
        <g id="Grupo_160963" data-name="Grupo 160963" transform="translate(0 121.5)">
          <path id="Trazado_210836" data-name="Trazado 210836" d="M378.889,616.652a1.028,1.028,0,0,1-1.028-1.028V492.747a1.028,1.028,0,1,1,2.056,0V615.624A1.028,1.028,0,0,1,378.889,616.652Z" transform="translate(-281.559 -490.98)" fill="url(#linear-gradient-45)"/>
          <path id="Trazado_210837" data-name="Trazado 210837" d="M334.608,616.652a1.028,1.028,0,0,1-1.028-1.028V492.747a1.028,1.028,0,1,1,2.056,0V615.624A1.028,1.028,0,0,1,334.608,616.652Z" transform="translate(-265.136 -490.98)" fill="url(#linear-gradient-46)"/>
          <path id="Trazado_210838" data-name="Trazado 210838" d="M225.817,617.431a1.029,1.029,0,0,1-.946-1.431l52.57-123.656a1.028,1.028,0,0,1,1.892.8L226.763,616.805A1.028,1.028,0,0,1,225.817,617.431Z" transform="translate(-224.789 -490.98)" fill="url(#linear-gradient-47)"/>
          <path id="Trazado_210839" data-name="Trazado 210839" d="M277.43,617.431a1.029,1.029,0,0,1-.946-1.431l52.569-123.656a1.028,1.028,0,0,1,1.892.8l-52.57,123.656A1.028,1.028,0,0,1,277.43,617.431Z" transform="translate(-243.931 -490.98)" fill="url(#linear-gradient-47)"/>
          <path id="Trazado_210840" data-name="Trazado 210840" d="M352.791,493.443H304.636a1.449,1.449,0,0,1-1.449-1.449h0a1.449,1.449,0,0,1,1.449-1.449h48.155a1.449,1.449,0,0,1,1.449,1.449h0A1.449,1.449,0,0,1,352.791,493.443Z" transform="translate(-253.864 -490.545)" fill="url(#linear-gradient-49)"/>
          <path id="Trazado_210841" data-name="Trazado 210841" d="M329.167,523.829H296.6a1.028,1.028,0,1,1,0-2.056h32.568a1.028,1.028,0,0,1,0,2.056Z" transform="translate(-251.04 -502.126)" fill="url(#linear-gradient-50)"/>
          <rect id="Rectángulo_47930" data-name="Rectángulo 47930" width="32.568" height="2.056" transform="translate(35.567 43.033)" fill="url(#linear-gradient-47)"/>
          <rect id="Rectángulo_47931" data-name="Rectángulo 47931" width="32.568" height="2.056" transform="translate(25.892 66.42)" fill="url(#linear-gradient-47)"/>
          <path id="Trazado_210842" data-name="Trazado 210842" d="M281.781,635.347H249.213a1.028,1.028,0,0,1,0-2.056h32.568a1.028,1.028,0,1,1,0,2.056Z" transform="translate(-233.466 -543.485)" fill="url(#linear-gradient-50)"/>
          <path id="Trazado_210843" data-name="Trazado 210843" d="M266.191,672.521H233.623a1.028,1.028,0,0,1,0-2.056h32.568a1.028,1.028,0,0,1,0,2.056Z" transform="translate(-227.684 -557.272)" fill="url(#linear-gradient-49)"/>
        </g>
      </g>
      <g id="Grupo_160965" data-name="Grupo 160965" transform="translate(504.391 392.644)">
        <path id="Trazado_210844" data-name="Trazado 210844" d="M837.119,568.18H737.662a3.849,3.849,0,0,1-3.848-3.848h0a3.848,3.848,0,0,1,3.848-3.848h99.457a3.848,3.848,0,0,1,3.848,3.848h0A3.849,3.849,0,0,1,837.119,568.18Z" transform="translate(-733.814 -560.483)" fill="#fff" opacity="0.2"/>
        <path id="Trazado_210845" data-name="Trazado 210845" d="M856.114,592.141H756.657a3.849,3.849,0,0,1-3.848-3.849h0a3.849,3.849,0,0,1,3.848-3.848h99.457a3.849,3.849,0,0,1,3.848,3.848h0A3.849,3.849,0,0,1,856.114,592.141Z" transform="translate(-740.859 -569.369)" fill="#fff" opacity="0.53"/>
        <path id="Trazado_210846" data-name="Trazado 210846" d="M827.832,640.065H756.657a3.848,3.848,0,0,1-3.848-3.848h0a3.849,3.849,0,0,1,3.848-3.848h71.174a3.849,3.849,0,0,1,3.849,3.848h0A3.848,3.848,0,0,1,827.832,640.065Z" transform="translate(-740.859 -587.143)" fill="#fff" opacity="0.53"/>
        <path id="Trazado_210847" data-name="Trazado 210847" d="M873.842,616.1H774.386a3.848,3.848,0,0,1-3.849-3.848h0a3.849,3.849,0,0,1,3.849-3.848h99.456a3.848,3.848,0,0,1,3.848,3.848h0A3.848,3.848,0,0,1,873.842,616.1Z" transform="translate(-747.433 -578.256)" fill="#fff" opacity="0.2"/>
      </g>
      <g id="Grupo_160970" data-name="Grupo 160970" transform="translate(532.944 351.692)">
        <path id="Trazado_210848" data-name="Trazado 210848" d="M830.282,678.047s.423,2.4.631,4.771a1.635,1.635,0,0,1-1.564,1.772c-3.161.132-9.922.388-12.348.279a.532.532,0,0,1-.469-.729h0a1.191,1.191,0,0,1,.61-.642l11.168-5.133Z" transform="translate(-793.031 -563.132)" fill="url(#linear-gradient-55)"/>
        <path id="Trazado_210849" data-name="Trazado 210849" d="M836.82,675.547l-.34,2.868s-1.957.911-3.293-.115l.81-3.2Z" transform="translate(-799.222 -562.04)" fill="url(#linear-gradient-56)"/>
        <path id="Trazado_210850" data-name="Trazado 210850" d="M836.7,590.1c.147.749.789,37.375-3.126,53.789a.556.556,0,0,0,.327.647,9.675,9.675,0,0,0,3.188.648.96.96,0,0,0,.952-.688c1.119-3.808,6.481-22.888,7.181-41.115.782-20.367,0-.693,0-.693l-.458-12.59Z" transform="translate(-799.36 -530.515)" fill="url(#linear-gradient-57)"/>
        <path id="Trazado_210851" data-name="Trazado 210851" d="M856.189,680.035a17.251,17.251,0,0,1,1.327,4.427,1,1,0,0,1-.878,1.195c-1.044.1-2.651.235-3.937.226a1,1,0,0,1-.985-1.11,8.393,8.393,0,0,1,1.959-4.6Z" transform="translate(-806.091 -563.869)" fill="url(#linear-gradient-58)"/>
        <path id="Trazado_210852" data-name="Trazado 210852" d="M857.923,674.073l-.8,4.337a2.807,2.807,0,0,1-2.342.161l.38-4.667Z" transform="translate(-807.232 -561.595)" fill="url(#linear-gradient-59)"/>
        <path id="Trazado_210853" data-name="Trazado 210853" d="M853.86,590.694c3.2,19.324-.695,47.762-2.009,53.328a.867.867,0,0,1-.7.659,5.83,5.83,0,0,1-2.5-.1.8.8,0,0,1-.572-.733c-.176-4.5.141-32.125-2.842-43.042a2.476,2.476,0,0,0-.957-1.368l-5.791-4.117-.444-6.654Z" transform="translate(-801.021 -529.984)" fill="url(#linear-gradient-60)"/>
        <g id="Grupo_160966" data-name="Grupo 160966" transform="translate(4.091 9.233)">
          <path id="Trazado_210854" data-name="Trazado 210854" d="M822.589,532.763a90.209,90.209,0,0,1,20.184,2.52c2.86,16.69.5,35.94.5,35.94-7.429,1.948-15.809-1.191-15.809-1.191-1.235-6.976-7-26.609-7-26.609a31.62,31.62,0,0,1-11.731-3.723,20.579,20.579,0,0,0,4.067-8.506A32.2,32.2,0,0,0,822.589,532.763Z" transform="translate(-794.245 -517.902)" fill="url(#linear-gradient-61)"/>
          <path id="Trazado_210855" data-name="Trazado 210855" d="M785.7,510.793a1.835,1.835,0,0,1,2.135-.6c1.412,5.965,8.817,10.8,16.423,13.165a20.579,20.579,0,0,1-4.067,8.506C787.57,524.766,785.7,510.793,785.7,510.793Z" transform="translate(-785.702 -510.066)" fill="url(#linear-gradient-62)"/>
        </g>
        <g id="Grupo_160967" data-name="Grupo 160967">
          <path id="Trazado_210856" data-name="Trazado 210856" d="M783.519,505.64c-.1.313,1.044.791,1.716-.491.023-.615.4-3.248.03-3.748a49.039,49.039,0,0,0-5.748-6.01.9.9,0,0,0-.113,1.254l1.84,1.916a8.923,8.923,0,0,0-1.074,2.123,2.575,2.575,0,0,0,.257,1.9c.323.582.763,1.338,1.18,1.93A2.547,2.547,0,0,0,783.519,505.64Z" transform="translate(-779.199 -495.39)" fill="url(#linear-gradient-63)"/>
          <path id="Trazado_210857" data-name="Trazado 210857" d="M783.509,502.406l1.676,1.421.527,1.415-1.495,1.658a19.277,19.277,0,0,0-.876-3.416C782.968,502.877,783.161,502.583,783.509,502.406Z" transform="translate(-780.66 -497.992)" fill="url(#linear-gradient-64)"/>
        </g>
        <path id="Trazado_210858" data-name="Trazado 210858" d="M856.987,546.985l3.68-9.292s8.963,6.09,10.437,13.811a21.2,21.2,0,0,0-7.792,2.088C862.65,549.947,856.987,546.985,856.987,546.985Z" transform="translate(-808.048 -511.079)" fill="url(#linear-gradient-65)"/>
        <path id="Trazado_210859" data-name="Trazado 210859" d="M843.752,563.869s10.063,5.687,13.458.831a3.817,3.817,0,0,0,.7-2.966,21.2,21.2,0,0,1,7.792-2.088,10.655,10.655,0,0,1-1.159,7.305c-5.948,10.88-22.123-.6-22.123-.6Z" transform="translate(-802.646 -519.221)" fill="url(#linear-gradient-66)"/>
        <g id="Grupo_160968" data-name="Grupo 160968" transform="translate(17.175 29.207)">
          <path id="Trazado_210860" data-name="Trazado 210860" d="M831.639,565.549l-5.492-19.18a.559.559,0,0,0-.473-.4c-1-.116-3.879-.442-7.207-.724a81.785,81.785,0,0,0-11.45-.381.562.562,0,0,0-.459.808c1.582,3.2,8.092,16.225,11.352,20.491a.564.564,0,0,0,.453.222l12.742-.118A.562.562,0,0,0,831.639,565.549Z" transform="translate(-806.499 -542.913)" fill="url(#linear-gradient-67)"/>
          <path id="Trazado_210861" data-name="Trazado 210861" d="M822.071,542.482l-3.982-.664a.286.286,0,0,0-.318.371l.394,1.195a.287.287,0,0,0,.234.194l3.831.511a.286.286,0,0,0,.316-.348L822.3,542.7A.286.286,0,0,0,822.071,542.482Z" transform="translate(-810.674 -541.815)" fill="url(#linear-gradient-68)"/>
          <path id="Trazado_210862" data-name="Trazado 210862" d="M823.958,546.556l-.328-1.709a.394.394,0,0,0-.348-.318l-8.043-.817a.4.4,0,0,0-.424.486l.511,2.129a.4.4,0,0,0,.364.3l7.859.4A.4.4,0,0,0,823.958,546.556Z" transform="translate(-809.579 -542.518)" fill="url(#linear-gradient-69)"/>
          <path id="Trazado_210863" data-name="Trazado 210863" d="M840.348,566.575s.766-3.146.457-4.262-.907-2.551-2.9-2.232a29.161,29.161,0,0,0-4.344,1.159,1.141,1.141,0,0,0,1.634.985l-.939.727s.134,1.164,1.414.542l-.874.964a1.019,1.019,0,0,0,1.491.343C837.228,564.186,837.679,566.954,840.348,566.575Z" transform="translate(-816.536 -548.572)" fill="url(#linear-gradient-70)"/>
        </g>
        <path id="Trazado_210864" data-name="Trazado 210864" d="M842.541,521.3l3.054,8.83a.319.319,0,0,1-.145.383,7.178,7.178,0,0,1-7.445-.5,1.5,1.5,0,0,1-.69-1.07l-.989-7.642Z" transform="translate(-800.386 -505.001)" fill="url(#linear-gradient-71)"/>
        <g id="Grupo_160969" data-name="Grupo 160969" transform="translate(32.551 3.539)">
          <path id="Trazado_210865" data-name="Trazado 210865" d="M833.9,508.308s-3.353,6.311-2.923,8.861,4.585,2.367,8.213.3l2.535-6.815Z" transform="translate(-830.939 -503.72)" fill="url(#linear-gradient-72)"/>
          <path id="Trazado_210866" data-name="Trazado 210866" d="M839.763,511.413a.26.26,0,0,1-.113-.381,6.783,6.783,0,0,0,.932-1.98s.6-.386-1.534-.9-5.324-1.3-5.993-3.124c-.653-1.773,1.063-6.233,3.8-2.679a.26.26,0,0,0,.412,0,2.683,2.683,0,0,1,3.266-1.061,2.46,2.46,0,0,1,1.685,2.377.258.258,0,0,0,.306.265,3,3,0,0,1,3.5,1.633c.715,1.572.25,2.461-.173,2.9a.26.26,0,0,0,.111.431,1.56,1.56,0,0,1,1.1,1.78c-.091,1.65-1.935,1.5-2.461,1.429a.258.258,0,0,0-.231.082c-.45.5-2.479,2.614-4.674,2.869a.262.262,0,0,1-.276-.347l.951-2.762a.262.262,0,0,0-.142-.324Z" transform="translate(-831.672 -501.015)" fill="url(#linear-gradient-73)"/>
          <path id="Trazado_210867" data-name="Trazado 210867" d="M842.756,517.688s2.387-1.638,2.562-.259-2.15,2-3.3,1.483Z" transform="translate(-835.047 -506.898)" fill="url(#linear-gradient-74)"/>
        </g>
      </g>
      <g id="Grupo_160973" data-name="Grupo 160973" transform="translate(399.412 108.588)">
        <g id="Grupo_160971" data-name="Grupo 160971" transform="translate(6.539 7.986)">
          <path id="Trazado_210868" data-name="Trazado 210868" d="M588.971,155.641a1.04,1.04,0,0,1-.793-.321.694.694,0,0,1-.159-.605l.169-.768a.973.973,0,0,1,.909-.709l2.276-.187.371-5.855c-4.108.118-7.786.213-10.2.274a3.164,3.164,0,0,1-3.221-3.068l-.977-19.189a2.349,2.349,0,0,1,2.167-2.547c6.433-.473,24.542-.854,32.028-1a2.524,2.524,0,0,1,2.516,2.009h0c1.033,4.965,1.372,15.772,1.47,20.188a2.455,2.455,0,0,1-2.3,2.509c-2.338.154-6.2.322-11.8.514l1.158,5.229,1.758-.15a.968.968,0,0,1,1.04.579l.43,1.234a.694.694,0,0,1-.081.63,1.062,1.062,0,0,1-.837.417l-15.862.808Zm3.109-9.084a.315.315,0,0,1,.314.335l-.411,6.471a.315.315,0,0,1-.288.294l-2.546.209a.373.373,0,0,0-.345.211l-.169.768a.069.069,0,0,0,.019.065.446.446,0,0,0,.357.1l15.862-.808a.459.459,0,0,0,.347-.141.07.07,0,0,0,.009-.072l-.43-1.235a.377.377,0,0,0-.393-.158l-2.031.174a.3.3,0,0,1-.334-.245l-1.3-5.868a.314.314,0,0,1,.3-.382c5.8-.2,9.772-.371,12.155-.527a1.826,1.826,0,0,0,1.709-1.867c-.1-4.4-.434-15.159-1.456-20.074h0a1.9,1.9,0,0,0-1.889-1.507c-7.482.142-25.577.523-32,.995a1.731,1.731,0,0,0-1.585,1.887l.977,19.188a2.519,2.519,0,0,0,2.578,2.471c2.479-.062,6.293-.16,10.54-.284Z" transform="translate(-577.344 -121.671)" fill="url(#linear-gradient-75)"/>
          <path id="Trazado_210869" data-name="Trazado 210869" d="M581.914,145.7a2.013,2.013,0,0,1-2-1.9l-.929-18.231h0a1.618,1.618,0,0,1,1.572-1.7l31.667-.842a1.529,1.529,0,0,1,1.556,1.444l.858,18.071a1.956,1.956,0,0,1-1.885,2.049L581.985,145.7Zm-2.3-20.164.929,18.23a1.385,1.385,0,0,0,1.422,1.3l30.766-1.107a1.33,1.33,0,0,0,1.28-1.391l-.858-18.071a.887.887,0,0,0-.91-.845l-31.667.842a.989.989,0,0,0-.961,1.038Z" transform="translate(-577.951 -122.175)" fill="url(#linear-gradient-76)"/>
          <path id="Trazado_210870" data-name="Trazado 210870" d="M606.536,160.2a.754.754,0,1,1,.038,0Zm0-.851h-.006a.111.111,0,0,0-.105.116.112.112,0,0,0,.036.077.084.084,0,0,0,.079.028.11.11,0,0,0,.077-.036.113.113,0,0,0,.028-.079h0a.109.109,0,0,0-.109-.1Z" transform="translate(-587.896 -135.413)" fill="url(#linear-gradient-77)"/>
          <path id="Trazado_210871" data-name="Trazado 210871" d="M609.665,172.925a.315.315,0,0,1-.019-.628l.655-.038a.314.314,0,1,1,.037.628l-.655.038Z" transform="translate(-589.214 -140.432)" fill="url(#linear-gradient-78)"/>
          <path id="Trazado_210872" data-name="Trazado 210872" d="M596.01,174.066a.3.3,0,0,1-.074-.009.315.315,0,0,1-.231-.38l.077-.317a.876.876,0,0,1,.859-.54l6.947-.408a.314.314,0,1,1,.037.628l-6.948.408a.522.522,0,0,0-.3.094l-.063.284A.315.315,0,0,1,596.01,174.066Z" transform="translate(-584.15 -140.489)" fill="url(#linear-gradient-79)"/>
        </g>
        <g id="Grupo_160972" data-name="Grupo 160972">
          <path id="Trazado_210873" data-name="Trazado 210873" d="M583.8,158.39c-2.393,0-4.566-.074-6.384-.225-4.221-.352-6.483-1.072-6.913-2.2-1.478-3.872-6.307-39.651-1.421-45a.316.316,0,0,1,.206-.1c4.567-.377,44.7-3.6,47.55-.66,1.566,1.621,2.084,12.118,2.047,21.4-.038,9.118-.63,19.874-1.846,21.942-1.191,2.028-11.514,3.366-15.9,3.847A165.606,165.606,0,0,1,583.8,158.39Zm-14.333-46.909c-4.257,5.132-.2,39.477,1.623,44.258.15.393,1.073,1.356,6.379,1.8,12.68,1.056,37.485-1.683,39.029-4.311.975-1.66,1.714-10.754,1.759-21.626.046-11.331-.706-19.755-1.87-20.96C614.4,108.581,587.289,110.012,569.471,111.481Z" transform="translate(-566.951 -108.976)" fill="url(#linear-gradient-80)"/>
        </g>
      </g>
      <g id="Grupo_160978" data-name="Grupo 160978" transform="translate(309.913 131.917)">
        <g id="Grupo_160977" data-name="Grupo 160977" transform="translate(0 0)">
          <g id="Grupo_160974" data-name="Grupo 160974" transform="translate(12.812 6.585)">
            <path id="Trazado_210874" data-name="Trazado 210874" d="M447.867,194.625a1.788,1.788,0,0,1-1.779-1.653c-.536-7.29-.924-27.833-1.031-33.955a2.194,2.194,0,0,1,1.968-2.233c5.379-.578,16.311-.043,20.761.214a2.333,2.333,0,0,1,2.182,2.036h0c1.012,7.961,1.468,25.061,1.619,32.043a2.8,2.8,0,0,1-2.557,2.838c-6.169.52-16.843.671-21.146.711Zm5.771-37.471c-2.494,0-4.813.069-6.545.255a1.568,1.568,0,0,0-1.407,1.6c.106,6.118.494,26.646,1.029,33.92a1.157,1.157,0,0,0,1.151,1.07h.008c4.3-.04,14.956-.191,21.1-.708a2.165,2.165,0,0,0,1.98-2.2c-.15-6.973-.605-24.046-1.614-31.977h0a1.7,1.7,0,0,0-1.593-1.487C464.757,157.453,458.821,157.154,453.638,157.154Zm-.17,32.4c-1.857,0-3.473-.02-4.589-.038a1.988,1.988,0,0,1-1.958-1.845c-.457-5.927-.484-22.07-.482-26.876a1.933,1.933,0,0,1,1.755-1.929c4.437-.429,14.286-.031,18.313.16a2.176,2.176,0,0,1,2.066,2c.449,5.925.31,21.255.257,25.813A2.212,2.212,0,0,1,466.895,189,127.658,127.658,0,0,1,453.469,189.55Zm.4-30.251c-2.186,0-4.185.052-5.612.189a1.307,1.307,0,0,0-1.186,1.3c0,4.8.025,20.924.48,26.828a1.362,1.362,0,0,0,1.341,1.263,163.826,163.826,0,0,0,17.928-.5,1.581,1.581,0,0,0,1.383-1.547h0c.053-4.551.192-19.859-.255-25.758a1.546,1.546,0,0,0-1.467-1.423C463.767,159.522,458.412,159.3,453.867,159.3Z" transform="translate(-445.057 -156.525)" fill="url(#linear-gradient-81)"/>
            <path id="Trazado_210875" data-name="Trazado 210875" d="M464.185,213.157a1.886,1.886,0,1,1,1.887-1.965h0a1.889,1.889,0,0,1-1.8,1.964Zm0-3.143h-.054a1.257,1.257,0,0,0-.8,2.181,1.278,1.278,0,0,0,.9.33,1.259,1.259,0,0,0,1.2-1.309h0A1.259,1.259,0,0,0,464.188,210.014Z" transform="translate(-451.453 -176.129)" fill="url(#linear-gradient-82)"/>
            <path id="Trazado_210876" data-name="Trazado 210876" d="M464.671,158.873h-.01c-1.141-.018-3.695-.045-4.6-.054a.66.66,0,0,1-.652-.632h0a.657.657,0,0,1,.606-.686,43.681,43.681,0,0,1,4.681.015.662.662,0,0,1,.61.506.679.679,0,0,1-.118.6A.657.657,0,0,1,464.671,158.873Zm-2.853-.8c-.617,0-1.235.015-1.755.056l-.026.032a.03.03,0,0,0,.03.029c.907.009,3.462.036,4.6.054l.021-.077C464.217,158.13,463.019,158.073,461.818,158.073Z" transform="translate(-450.379 -156.865)" fill="url(#linear-gradient-83)"/>
          </g>
          <g id="Grupo_160976" data-name="Grupo 160976">
            <g id="Grupo_160975" data-name="Grupo 160975">
              <path id="Trazado_210877" data-name="Trazado 210877" d="M451.817,195.1a128.253,128.253,0,0,1-19.121-1.236c-4.179-.7-6.374-1.6-6.712-2.761-1.156-3.981-3.038-40.034,2.271-44.962l.09-.084h.123c4.587-.011,44.849.069,47.445,3.237,1.428,1.744,1.085,12.247.287,21.5-.785,9.084-2.256,19.755-3.637,21.717-1.354,1.925-11.75,2.412-16.157,2.533C454.887,195.082,453.35,195.1,451.817,195.1ZM428.6,146.688c-4.665,4.763-3.435,39.326-2.007,44.242.118.4.958,1.441,6.211,2.316,12.552,2.093,37.5,1.393,39.249-1.1,1.108-1.575,2.59-10.578,3.524-21.409.974-11.29.915-19.747-.147-21.043C473.608,147.477,446.481,146.683,428.6,146.688Z" transform="translate(-424.692 -146.058)" fill="url(#linear-gradient-84)"/>
            </g>
          </g>
        </g>
        <path id="Trazado_210878" data-name="Trazado 210878" d="M450.7,177.582a.315.315,0,0,1-.315-.3l-.41-10.286a.314.314,0,0,1,.3-.327.319.319,0,0,1,.327.3l.41,10.286a.315.315,0,0,1-.3.327Z" transform="translate(-434.068 -153.701)" fill="url(#linear-gradient-85)"/>
      </g>
      <g id="Grupo_160983" data-name="Grupo 160983" transform="translate(477.476 107.928)">
        <g id="Grupo_160980" data-name="Grupo 160980">
          <g id="Grupo_160979" data-name="Grupo 160979">
            <path id="Trazado_210879" data-name="Trazado 210879" d="M730.705,169.811c-3.131,0-11.045-3.723-14.582-5.468A139.722,139.722,0,0,1,695.7,152.236c-3.368-2.565-4.887-4.388-4.643-5.572.834-4.06,16-36.824,22.994-38.7l.119-.032.109.058c4.054,2.137,39.631,20.994,40.448,25.007.449,2.209-4.757,11.338-9.779,19.144-4.933,7.668-11.216,16.418-13.352,17.509A2,2,0,0,1,730.705,169.811ZM714.1,108.6c-6.35,2.035-21.395,33.177-22.425,38.19-.086.413.174,1.721,4.408,4.945,10.123,7.709,32.515,18.738,35.228,17.35,1.714-.875,7.228-8.146,13.11-17.289,6.131-9.53,10.025-17.037,9.691-18.679C753.541,130.31,729.915,116.942,714.1,108.6Z" transform="translate(-691.034 -107.928)" fill="url(#linear-gradient-86)"/>
          </g>
        </g>
        <g id="Grupo_160982" data-name="Grupo 160982" transform="translate(9.599 13.488)">
          <g id="Grupo_160981" data-name="Grupo 160981">
            <path id="Trazado_210880" data-name="Trazado 210880" d="M738.5,167.592a2.369,2.369,0,0,1-.841-.154h0c-7.7-2.908-23.4-10.71-29.8-13.928a2.857,2.857,0,0,1-1.339-3.668c2.5-5.842,7.485-15.578,9.514-19.492a1.825,1.825,0,0,1,2.35-.829c6.844,3.009,25.647,12.531,31.247,15.378a2.242,2.242,0,0,1,1.073,2.846c-2.062,5.15-7.8,14.793-10.167,18.7A2.388,2.388,0,0,1,738.5,167.592Zm-.619-.742a1.757,1.757,0,0,0,2.121-.732c2.362-3.894,8.077-13.5,10.121-18.607a1.617,1.617,0,0,0-.774-2.052c-5.6-2.845-24.386-12.361-31.216-15.363a1.193,1.193,0,0,0-1.538.542c-2.026,3.909-7.008,13.628-9.495,19.45a2.226,2.226,0,0,0,1.042,2.859c6.387,3.214,22.069,11,29.737,13.9Zm-.466-1.451a2.33,2.33,0,0,1-.941-.2c-5.689-2.512-19.863-10.186-24.071-12.478h0a2.273,2.273,0,0,1-1.091-2.76c1.841-4.907,6.167-12.9,7.942-16.113a2.02,2.02,0,0,1,2.614-.824c5.722,2.52,20.707,10.438,25.163,12.8a1.984,1.984,0,0,1,.958,2.486c-1.675,4.122-6.644,12.6-8.7,16.047A2.163,2.163,0,0,1,737.412,165.4ZM712.7,152.168c4.2,2.289,18.357,9.953,24.024,12.455a1.588,1.588,0,0,0,2.018-.584c2.052-3.439,7-11.88,8.66-15.962a1.357,1.357,0,0,0-.67-1.694c-4.452-2.364-19.42-10.274-25.121-12.785a1.4,1.4,0,0,0-1.811.552c-1.768,3.2-6.076,11.162-7.9,16.031a1.643,1.643,0,0,0,.8,1.986Z" transform="translate(-706.291 -129.366)" fill="url(#linear-gradient-87)"/>
            <path id="Trazado_210881" data-name="Trazado 210881" d="M717.236,146.845a1.371,1.371,0,0,1-.591-.134h0a1.379,1.379,0,1,1,.591.134Zm-.32-.7a.748.748,0,1,0-.352-1,.747.747,0,0,0,.352,1Z" transform="translate(-709.841 -134.828)" fill="url(#linear-gradient-88)"/>
          </g>
          <path id="Trazado_210882" data-name="Trazado 210882" d="M758.879,154.506a.311.311,0,0,1-.136-.031l-9.513-4.569a.315.315,0,0,1,.273-.567l9.513,4.57a.314.314,0,0,1-.137.6Z" transform="translate(-722.149 -136.762)" fill="url(#linear-gradient-89)"/>
        </g>
      </g>
      <g id="Grupo_160986" data-name="Grupo 160986" transform="translate(558.553 122.601)">
        <g id="Grupo_160984" data-name="Grupo 160984">
          <path id="Trazado_210883" data-name="Trazado 210883" d="M853.257,184.726l-6.778,6.2-1.282-7.254Z" transform="translate(-829.285 -150.691)" fill="url(#linear-gradient-90)"/>
          <path id="Trazado_210884" data-name="Trazado 210884" d="M819.9,131.251l.678,32.981a2.324,2.324,0,0,0,2.459,2.272l33.088-1.928a.931.931,0,0,0,.554-1.635Z" transform="translate(-819.905 -131.251)" fill="url(#linear-gradient-91)"/>
          <path id="Trazado_210885" data-name="Trazado 210885" d="M843.874,165.285l-23.969-34.033,18.63,34.361-1.806,1.8Z" transform="translate(-819.905 -131.251)" fill="url(#linear-gradient-92)"/>
          <path id="Trazado_210886" data-name="Trazado 210886" d="M844.484,186.038l1.731,5.7,1.436-5.87Z" transform="translate(-829.021 -151.507)" fill="url(#linear-gradient-93)"/>
        </g>
        <g id="Grupo_160985" data-name="Grupo 160985" transform="translate(20.506 44.166)">
          <path id="Trazado_210887" data-name="Trazado 210887" d="M853.319,201.717a1.615,1.615,0,0,1,.365.439c.151.286.246.717.448,1.1a12.461,12.461,0,0,1,.653,1.459l0,.009c.118.243.172.469-.086.607a.443.443,0,0,1-.626-.218s-.348-.729-.733-1.44c-.094-.179-.169-.366-.257-.534s-.13-.273-.186-.393a2.084,2.084,0,0,0-.133-.281c-.045-.076-.068-.12-.068-.12l-.113-.191a.424.424,0,0,1,.119-.631.415.415,0,0,1,.61.193Z" transform="translate(-852.499 -201.453)" fill="#ce41a4"/>
          <path id="Trazado_210888" data-name="Trazado 210888" d="M858.584,210.649l1.736,2.711a.5.5,0,0,1-.185.686.518.518,0,0,1-.71-.133l-1.74-2.708a.5.5,0,0,1,.185-.689.521.521,0,0,1,.713.133Z" transform="translate(-854.397 -204.783)" fill="#ce41a4"/>
          <path id="Trazado_210889" data-name="Trazado 210889" d="M864,219.489l2.076,2.43a.406.406,0,0,1-.07.625.491.491,0,0,1-.688-.111l-1.952-2.573c-.164-.213-.213-.4.021-.571s.385.094.613.2Z" transform="translate(-856.479 -208.048)" fill="#ce41a4"/>
          <path id="Trazado_210890" data-name="Trazado 210890" d="M870.2,227.819l2.391,2.118c.18.2.249.374.033.558a.469.469,0,0,1-.67-.084l-2.174-2.405c-.181-.2-.337-.262-.119-.448s.317.261.538.261Z" transform="translate(-858.824 -211.118)" fill="#ce41a4"/>
          <path id="Trazado_210891" data-name="Trazado 210891" d="M878.5,233l2.13,2.625c.2.175.047.718-.151.919s-.594.341-.793.165l-2.481-2.087c-.2-.176.088-.927.285-1.129A2.263,2.263,0,0,1,878.5,233Z" transform="translate(-861.637 -213.153)" fill="#ce41a4"/>
          <path id="Trazado_210892" data-name="Trazado 210892" d="M885.623,241.768l2.734,1.575c.218.15.276.3.1.522a.507.507,0,0,1-.7.048l-2.688-1.9c-.219-.151-.3-.179-.124-.4s.468-.479.669.15Z" transform="translate(-864.501 -216.258)" fill="#ce41a4"/>
          <path id="Trazado_210893" data-name="Trazado 210893" d="M895.1,246l2.656,1.728c.236.121.17.516.028.749a.649.649,0,0,1-.755.257l-2.977-1.48c-.237-.121-.048-.612.095-.846s.081-.407.953-.407Z" transform="translate(-867.867 -217.974)" fill="#ce41a4"/>
          <path id="Trazado_210894" data-name="Trazado 210894" d="M903.889,251l3.164,1.132a.453.453,0,0,1,.266.613.529.529,0,0,1-.647.289l-3.148-1.1a.468.468,0,0,1-.275-.624.659.659,0,0,1,.638-.306Z" transform="translate(-871.307 -219.829)" fill="#ce41a4"/>
          <path id="Trazado_210895" data-name="Trazado 210895" d="M913.776,254.583l3.273.954a.436.436,0,0,1,.316.569.5.5,0,0,1-.617.3l-3.193-.99a.442.442,0,0,1-.35-.556c.1-.247.49-.437.57-.274Z" transform="translate(-875.004 -221.134)" fill="#ce41a4"/>
          <path id="Trazado_210896" data-name="Trazado 210896" d="M923.9,258l3.369.637c.256.062.449.235.367.483a.472.472,0,0,1-.586.3l-3.257-.811c-.257-.062-.494-.167-.413-.416s.327-.193.519-.193Z" transform="translate(-878.782 -222.421)" fill="#ce41a4"/>
          <path id="Trazado_210897" data-name="Trazado 210897" d="M934.66,259.554l3.326.562a.456.456,0,0,1,.357.559.538.538,0,0,1-.581.405l-3.361-.475a.483.483,0,0,1-.346-.593c.055-.252.374-.563.6-.459Z" transform="translate(-882.741 -222.993)" fill="#ce41a4"/>
          <path id="Trazado_210898" data-name="Trazado 210898" d="M945.221,260.946s.869,0,1.726,0c.836-.043,1.678-.09,1.678-.09l.038,0a.435.435,0,0,1,.476.429.5.5,0,0,1-.481.479l-1.762.091-1.713-.009a.438.438,0,0,1-.461-.451.527.527,0,0,1,.5-.449Z" transform="translate(-886.701 -223.483)" fill="#ce41a4"/>
          <path id="Trazado_210899" data-name="Trazado 210899" d="M955.827,258.986a1.67,1.67,0,0,0,.578-.069c.154-.048.374-.055.547-.126s.386-.118.578-.19c.376-.174.773-.32,1.036-.483s.457-.245.457-.245l.039-.018a.47.47,0,0,1,.64.155.459.459,0,0,1-.2.62l-.5.279c-.294.179-.715.352-1.129.543l-.634.238c-.205.082-.383.129-.54.178l-.52.159a.568.568,0,0,1-.638-.379c-.066-.238.285-.447.285-.66Z" transform="translate(-890.712 -222.347)" fill="#ce41a4"/>
          <path id="Trazado_210900" data-name="Trazado 210900" d="M964.98,252.6a2.884,2.884,0,0,1,.26-.467,3.694,3.694,0,0,0,.247-.457c.044-.08.081-.168.126-.252.016-.028.057-.12.05-.1l.056-.148c.036-.1.083-.2.109-.286s.04-.161.06-.238a4.647,4.647,0,0,0,.079-.459c.02-.279.026-.466.026-.466V249.7a.5.5,0,0,1,.484-.462.427.427,0,0,1,.456.429s-.005.221-.03.556a5.489,5.489,0,0,1-.1.582l-.093.343c-.035.109-.076.2-.115.3l-.059.146c-.055.116-.062.118-.095.182l-.159.29a4.658,4.658,0,0,1-.293.489l-.3.443a.467.467,0,0,1-.618.189c-.218-.124-.1-.409-.1-.591Z" transform="translate(-894.202 -219.176)" fill="#ce41a4"/>
          <path id="Trazado_210901" data-name="Trazado 210901" d="M964.259,243.388a11.648,11.648,0,0,0-.627-1.481c-.435-.634-.812-1.3-.812-1.3l0-.053a.421.421,0,0,1,.18-.589c.218-.143.354-.426.668.137l0,0s.459.656.933,1.351c.372.713.735,1.407.735,1.407.113.215-.1.533-.338.654s-.638.093-.744-.125Z" transform="translate(-893.391 -215.664)" fill="#ce41a4"/>
          <path id="Trazado_210902" data-name="Trazado 210902" d="M957.822,235.812a.624.624,0,0,1-.54-.063c-.126-.079-.333-.092-.49-.165s-.352-.117-.518-.206a4.978,4.978,0,0,0-.534-.185,1.836,1.836,0,0,0-.472-.13c-.276-.06-.464-.092-.464-.092l-.085-.014a.408.408,0,0,1-.315-.522.494.494,0,0,1,.566-.333l.572.12a2.509,2.509,0,0,1,.558.171,5.823,5.823,0,0,1,.609.252l.578.313a4.65,4.65,0,0,1,.45.292l.421.29c.2.138.357.185.2.387s-.323-.016-.534-.113Z" transform="translate(-890.286 -213.558)" fill="#ce41a4"/>
          <path id="Trazado_210903" data-name="Trazado 210903" d="M948.837,236.173a1.739,1.739,0,0,0-.686.214c-.069.045-.259.052-.337.1a2.81,2.81,0,0,0-.259.15c-.134.119-.306.235-.45.362-.135.15-.284.294-.41.435a4.77,4.77,0,0,0-.384.367,1.771,1.771,0,0,1-.358.373l-.028.034a.432.432,0,0,1-.585.169.388.388,0,0,1-.075-.584s.146-.172.343-.445a4.257,4.257,0,0,1,.366-.45c.143-.159.3-.327.452-.5.174-.162.362-.319.533-.467a3.018,3.018,0,0,1,.469-.348l.454-.3a.819.819,0,0,1,.868.184,1.237,1.237,0,0,1,.087.7Z" transform="translate(-886.867 -213.981)" fill="#ce41a4"/>
          <path id="Trazado_210904" data-name="Trazado 210904" d="M943.041,244.13a15.028,15.028,0,0,1-.424,1.668c-.2.783-.341,1.606-.341,1.606l.016.051a.48.48,0,0,1-.535.362.4.4,0,0,1-.33-.5s.21-.825.416-1.654c.259-.793.521-1.585.521-1.585.076-.233.236-.456.477-.4s.2.225.2.446Z" transform="translate(-885.475 -217.112)" fill="#ce41a4"/>
          <path id="Trazado_210905" data-name="Trazado 210905" d="M941.963,253.887a13.183,13.183,0,0,0-.265,1.867c.013.8-.071,1.71-.071,1.71l-.049.081a.521.521,0,0,1-.467.491.411.411,0,0,1-.47-.379s-.02-.825-.035-1.658c.034-.817.065-1.631.065-1.631a.951.951,0,0,1,.663-.671c.25-.006.446.191.627.191Z" transform="translate(-885.176 -220.828)" fill="#ce41a4"/>
          <path id="Trazado_210906" data-name="Trazado 210906" d="M942.1,263.82l.578,3.464a.637.637,0,0,1-.376.659c-.242.056-.483-.012-.526-.24l-.615-3.139c-.045-.229.145-.73.389-.787s.885-.586.549.043Z" transform="translate(-885.378 -224.47)" fill="#ce41a4"/>
          <path id="Trazado_210907" data-name="Trazado 210907" d="M944.332,274.82l1.046,2.993a.412.412,0,0,1-.286.518.428.428,0,0,1-.555-.254l-1.046-3.053a.389.389,0,0,1,.284-.5c.234-.085.357.293.555.293Z" transform="translate(-886.237 -228.55)" fill="#ce41a4"/>
          <path id="Trazado_210908" data-name="Trazado 210908" d="M947.893,284.233l.2.462.451,1,.665,1.465a.431.431,0,0,1-.235.56.426.426,0,0,1-.574-.188l-.667-1.463-.458-1.015-.2-.461a.434.434,0,0,1,.245-.559.427.427,0,0,1,.573.2Z" transform="translate(-887.562 -232.065)" fill="#ce41a4"/>
          <path id="Trazado_210909" data-name="Trazado 210909" d="M952.208,293.471l1.488,2.853a.443.443,0,0,1-.783.406l-1.492-2.851a.445.445,0,0,1,.787-.408Z" transform="translate(-889.17 -235.501)" fill="#ce41a4"/>
          <path id="Trazado_210910" data-name="Trazado 210910" d="M957.072,302.444l1.668,2.752a.414.414,0,0,1-.167.567.428.428,0,0,1-.586-.123l-1.672-2.751a.416.416,0,0,1,.167-.569.43.43,0,0,1,.589.123Z" transform="translate(-890.981 -238.837)" fill="#ce41a4"/>
          <path id="Trazado_210911" data-name="Trazado 210911" d="M962.521,311.078l1.869,2.626a.406.406,0,0,1-.125.569.429.429,0,0,1-.59-.084l-1.872-2.624a.408.408,0,0,1,.125-.571.431.431,0,0,1,.593.084Z" transform="translate(-893.011 -242.048)" fill="#ce41a4"/>
          <path id="Trazado_210912" data-name="Trazado 210912" d="M968.712,319.218l2.048,2.486a.412.412,0,0,1-.1.578.443.443,0,0,1-.6-.033l-2.1-2.46a.43.43,0,0,1,.116-.59c.186-.147.541-.173.635.019Z" transform="translate(-895.292 -245.078)" fill="#ce41a4"/>
          <path id="Trazado_210913" data-name="Trazado 210913" d="M975.32,327.078l2.072,2.478a.394.394,0,0,1-.081.563.426.426,0,0,1-.586-.042l-2.076-2.476a.4.4,0,0,1,.081-.566.429.429,0,0,1,.589.042Z" transform="translate(-897.769 -247.992)" fill="#ce41a4"/>
          <path id="Trazado_210914" data-name="Trazado 210914" d="M981.839,335.033l1.965,2.559a.392.392,0,0,1-.1.556.42.42,0,0,1-.578-.063l-1.968-2.556a.394.394,0,0,1,.1-.558.422.422,0,0,1,.581.063Z" transform="translate(-900.186 -250.938)" fill="#ce41a4"/>
          <path id="Trazado_210915" data-name="Trazado 210915" d="M988.01,343.244l1.85,2.639a.39.39,0,0,1-.125.547.412.412,0,0,1-.567-.084l-1.854-2.636a.393.393,0,0,1,.125-.55.416.416,0,0,1,.571.084Z" transform="translate(-902.474 -253.979)" fill="#ce41a4"/>
          <path id="Trazado_210916" data-name="Trazado 210916" d="M993.81,351.709l1.729,2.717a.39.39,0,0,1-.147.537.4.4,0,0,1-.556-.106l-1.731-2.715a.392.392,0,0,1,.147-.54.407.407,0,0,1,.559.106Z" transform="translate(-904.624 -257.114)" fill="#ce41a4"/>
          <path id="Trazado_210917" data-name="Trazado 210917" d="M999.215,360.422l1.6,2.793a.39.39,0,0,1-.169.527.4.4,0,0,1-.543-.128l-1.6-2.791a.391.391,0,0,1,.169-.53.4.4,0,0,1,.547.128Z" transform="translate(-906.629 -260.341)" fill="#ce41a4"/>
          <path id="Trazado_210918" data-name="Trazado 210918" d="M1004.2,369.375l1.46,2.866a.406.406,0,0,1-.722.366l-1.464-2.864a.408.408,0,0,1,.725-.368Z" transform="translate(-908.477 -263.657)" fill="#ce41a4"/>
          <path id="Trazado_210919" data-name="Trazado 210919" d="M1008.741,378.561l1.314,2.937a.388.388,0,0,1-.213.5.383.383,0,0,1-.516-.172l-1.319-2.935a.391.391,0,0,1,.215-.506.385.385,0,0,1,.518.172Z" transform="translate(-910.161 -267.059)" fill="#ce41a4"/>
          <path id="Trazado_210920" data-name="Trazado 210920" d="M1012.81,387.967l1.16,3a.388.388,0,0,1-.235.489.376.376,0,0,1-.5-.194l-1.165-3a.39.39,0,0,1,.237-.492.378.378,0,0,1,.5.2Z" transform="translate(-911.671 -270.541)" fill="#ce41a4"/>
          <path id="Trazado_210921" data-name="Trazado 210921" d="M1016.383,397.579l1,3.063a.389.389,0,0,1-.258.474.369.369,0,0,1-.483-.216l-1-3.061a.389.389,0,0,1,.259-.477.371.371,0,0,1,.485.216Z" transform="translate(-912.996 -274.101)" fill="#ce41a4"/>
          <path id="Trazado_210922" data-name="Trazado 210922" d="M1019.434,407.38l.828,3.121a.387.387,0,0,1-.279.458.362.362,0,0,1-.464-.238l-.833-3.119a.39.39,0,0,1,.281-.461.364.364,0,0,1,.466.238Z" transform="translate(-914.129 -277.73)" fill="#ce41a4"/>
          <path id="Trazado_210923" data-name="Trazado 210923" d="M1021.937,417.36l.649,3.169a.386.386,0,0,1-.3.439.354.354,0,0,1-.444-.259l-.653-3.168a.389.389,0,0,1,.3-.442.356.356,0,0,1,.446.26Z" transform="translate(-915.058 -281.425)" fill="#ce41a4"/>
          <path id="Trazado_210924" data-name="Trazado 210924" d="M1023.86,427.487l.46,3.208a.387.387,0,0,1-.321.42.348.348,0,0,1-.422-.28l-.464-3.207a.388.388,0,0,1,.323-.423.349.349,0,0,1,.424.281Z" transform="translate(-915.773 -285.175)" fill="#ce41a4"/>
          <path id="Trazado_210925" data-name="Trazado 210925" d="M1025.171,437.733s.068.81.137,1.619c.035.4.07.817.087,1.12s.033.508.033.508a.386.386,0,0,1-.347.395.34.34,0,0,1-.393-.306l-.035-.507c-.018-.306-.052-.7-.087-1.108-.069-.81-.139-1.619-.139-1.619a.388.388,0,0,1,.342-.4.343.343,0,0,1,.4.3Z" transform="translate(-916.262 -288.969)" fill="#ce41a4"/>
          <path id="Trazado_210926" data-name="Trazado 210926" d="M1025.821,448.078l.04,3.261a.384.384,0,0,1-.362.374.334.334,0,0,1-.371-.322l-.045-3.261a.388.388,0,0,1,.364-.378.337.337,0,0,1,.374.324Z" transform="translate(-916.505 -292.798)" fill="#ce41a4"/>
          <path id="Trazado_210927" data-name="Trazado 210927" d="M1025.667,458.481l-.188,3.27a.384.384,0,0,1-.383.349.327.327,0,0,1-.342-.343l.184-3.27a.385.385,0,0,1,.384-.35.329.329,0,0,1,.345.344Z" transform="translate(-916.383 -296.649)" fill="#ce41a4"/>
          <path id="Trazado_210928" data-name="Trazado 210928" d="M1024.733,468.9l-.435,3.263a.382.382,0,0,1-.4.32.322.322,0,0,1-.311-.363l.43-3.264a.385.385,0,0,1,.4-.321.324.324,0,0,1,.313.365Z" transform="translate(-915.949 -300.506)" fill="#ce41a4"/>
          <path id="Trazado_210929" data-name="Trazado 210929" d="M1022.992,479.289l-.7,3.238a.38.38,0,0,1-.42.287.316.316,0,0,1-.276-.382l.693-3.238a.381.381,0,0,1,.422-.289.317.317,0,0,1,.277.384Z" transform="translate(-915.211 -304.35)" fill="#ce41a4"/>
          <path id="Trazado_210930" data-name="Trazado 210930" d="M1020.395,489.578l-.973,3.188a.378.378,0,0,1-.436.252.311.311,0,0,1-.237-.4l.969-3.189a.38.38,0,0,1,.439-.253.313.313,0,0,1,.238.4Z" transform="translate(-914.151 -308.157)" fill="#ce41a4"/>
          <path id="Trazado_210931" data-name="Trazado 210931" d="M1016.895,499.688l-1.265,3.11a.373.373,0,0,1-.45.212.307.307,0,0,1-.2-.416l1.261-3.112a.376.376,0,0,1,.453-.213.31.31,0,0,1,.2.418Z" transform="translate(-912.751 -311.898)" fill="#ce41a4"/>
          <path id="Trazado_210932" data-name="Trazado 210932" d="M1012.615,509.524,1011.329,512a.367.367,0,0,1-.461.171.305.305,0,0,1-.151-.43l1.282-2.48a.37.37,0,0,1,.464-.172.307.307,0,0,1,.152.432Z" transform="translate(-911.164 -315.537)" fill="#ce41a4"/>
        </g>
      </g>
      <g id="Grupo_160987" data-name="Grupo 160987" transform="translate(298.17 395.176)">
        <path id="Trazado_210933" data-name="Trazado 210933" d="M415.7,653.905h-9.047a.629.629,0,0,1-.629-.629V626.211a.629.629,0,0,1,.629-.629H415.7a.629.629,0,0,1,.629.629v27.065A.629.629,0,0,1,415.7,653.905Zm-8.418-1.258h7.789V626.84h-7.789Z" transform="translate(-406.027 -587.158)" fill="#fff"/>
        <path id="Trazado_210934" data-name="Trazado 210934" d="M442.09,643.523H429.726a.629.629,0,0,1-.629-.629V598.215a.629.629,0,0,1,.629-.629H442.09a.629.629,0,0,1,.629.629v44.678A.629.629,0,0,1,442.09,643.523Zm-11.735-1.258h11.106v-43.42H430.355Z" transform="translate(-414.583 -576.775)" fill="#fff"/>
        <path id="Trazado_210935" data-name="Trazado 210935" d="M476.307,637.95H459.142a.629.629,0,0,1-.629-.629V583.19a.629.629,0,0,1,.629-.629h17.165a.629.629,0,0,1,.629.629v54.131A.629.629,0,0,1,476.307,637.95Zm-16.535-1.258h15.906V583.819H459.771Z" transform="translate(-425.492 -571.203)" fill="#fff"/>
        <path id="Trazado_210936" data-name="Trazado 210936" d="M523.693,631.255H503.139a.629.629,0,0,1-.629-.629V565.136a.629.629,0,0,1,.629-.629h20.554a.629.629,0,0,1,.629.629v65.489A.629.629,0,0,1,523.693,631.255ZM503.768,630h19.3V565.765h-19.3Z" transform="translate(-441.81 -564.507)" fill="#fff"/>
      </g>
      <g id="Grupo_160988" data-name="Grupo 160988" transform="translate(179.339 164.528)">
        <path id="Trazado_210937" data-name="Trazado 210937" d="M234.113,220.461c-1.368-11.691,11.94-28.184,36.013-13.613.662-5.534,30.863-22.755,44.851,13.473,2.392-8.786,24.313-4.381,28.256,10.471,8.239-3.666,28.057,14.739,1.83,17.916-33.493,4.058-110.23,2.883-123.99-17.215S234.113,220.461,234.113,220.461Z" transform="translate(-217.145 -197.893)" opacity="0.4" fill="url(#linear-gradient-94)"/>
        <path id="Trazado_210938" data-name="Trazado 210938" d="M803.155,217.211c-.756-6.462,6.6-15.577,19.905-7.524.366-3.059,17.058-12.578,24.789,7.446,1.322-4.856,13.438-2.422,15.618,5.787,4.554-2.026,15.507,8.147,1.012,9.9-18.512,2.243-60.925,1.594-68.53-9.515S803.155,217.211,803.155,217.211Z" transform="translate(-431 -200.431)" opacity="0.4" fill="url(#linear-gradient-95)"/>
      </g>
      <g id="Grupo_160990" data-name="Grupo 160990" transform="translate(229.474 155.814)">
        <g id="Grupo_160989" data-name="Grupo 160989" transform="translate(0)">
          <path id="Trazado_210939" data-name="Trazado 210939" d="M312.97,241.072c-1.537,0-2.495-.282-2.9-.85-2.405-3.375-16.084-36.787-12.7-43.19a.315.315,0,0,1,.174-.15c4.325-1.515,42.361-14.739,45.853-12.607,1.924,1.175,5.067,11.2,7.367,20.2,2.259,8.833,4.392,19.392,3.737,21.7-.643,2.264-10.3,6.157-14.415,7.725a139.69,139.69,0,0,1-22.767,6.718A26.548,26.548,0,0,1,312.97,241.072Zm-15.1-43.639c-2.829,6.038,9.74,38.256,12.711,42.424.245.343,1.379,1.044,6.629.135,12.538-2.169,35.852-11.063,36.684-14,.526-1.852-1.048-10.84-3.741-21.372-2.808-10.978-5.655-18.941-7.086-19.814C340.623,183.317,314.749,191.526,297.873,197.433Z" transform="translate(-296.835 -184.042)" fill="url(#linear-gradient-81)"/>
        </g>
        <path id="Trazado_210940" data-name="Trazado 210940" d="M321.525,235.532a1.841,1.841,0,0,1-.941-.168C318.7,234.1,312.3,219.748,313,213.081c.18-1.726.83-2.825,1.93-3.268l1.214-.491c3.872-1.569,11.08-4.49,17.341-6.568a7.347,7.347,0,0,0,.217-1.883c.068-1.407.131-2.211.628-2.366,7.412-2.31,8.853-1.772,9.28-1.046,1.181,2.012,11.641,26.305,9.634,28.383C351.527,227.617,327.008,235.531,321.525,235.532Zm-6.36-25.136c-.867.349-1.385,1.275-1.539,2.75-.693,6.627,5.792,20.677,7.309,21.7.685.459,5.905-.468,16.026-3.577,7.973-2.449,15.075-5.078,15.831-5.861.164-.169.753-1.607-3.691-13.354-2.555-6.753-5.324-13.064-6.035-14.274-.2-.339-1.429-.89-8.549,1.329a8.354,8.354,0,0,0-.186,1.8c-.07,1.451-.135,2.279-.648,2.449-6.241,2.072-13.436,4.988-17.3,6.554Z" transform="translate(-302.811 -188.786)" fill="url(#linear-gradient-81)"/>
        <path id="Trazado_210941" data-name="Trazado 210941" d="M318.9,223.7a.314.314,0,0,1-.3-.224c-.1-.32-.073-.8.587-1.288a5.581,5.581,0,0,1,1.595-.727.314.314,0,1,1,.182.6,4.778,4.778,0,0,0-1.4.632c-.292.214-.413.415-.357.6a.314.314,0,0,1-.21.392A.306.306,0,0,1,318.9,223.7Z" transform="translate(-304.893 -197.915)" fill="url(#linear-gradient-82)"/>
        <path id="Trazado_210942" data-name="Trazado 210942" d="M328.478,217.392a.315.315,0,0,1-.136-.6,48.3,48.3,0,0,1,10.426-3.563.318.318,0,0,1,.362.258.315.315,0,0,1-.258.362,47.622,47.622,0,0,0-10.257,3.509A.312.312,0,0,1,328.478,217.392Z" transform="translate(-308.454 -194.866)" fill="url(#linear-gradient-81)"/>
      </g>
      <g id="Grupo_160993" data-name="Grupo 160993" transform="translate(504.468 241.585)">
        <g id="Grupo_160991" data-name="Grupo 160991">
          <path id="Trazado_210943" data-name="Trazado 210943" d="M802.631,333.159a2.393,2.393,0,0,0-1.852-.637c-7.273.654-18.7-6.811-29.711-11.923a2.4,2.4,0,0,0-2.444.254c-9.863,7.372-26.212,8.9-31.887,9.21a2.394,2.394,0,0,0-2.248,2.145c-5.161,49.85,27.3,67.913,34.027,71.1a2.4,2.4,0,0,0,2.293-.133c33.55-20.9,32.115-48.074,32.579-68.212A2.4,2.4,0,0,0,802.631,333.159Z" transform="translate(-733.936 -320.375)" fill="url(#linear-gradient-100)"/>
          <path id="Trazado_210944" data-name="Trazado 210944" d="M771.01,403.832a.63.63,0,0,1-.352-.108,83.249,83.249,0,0,1-17.5-17.231c-7.568-10.057-15.777-26.2-11.9-46a.636.636,0,0,1,.663-.507,58.184,58.184,0,0,0,12.434-.752c6.138-1.047,14.439-3.627,19.13-9.974a.631.631,0,0,1,.488-.255.623.623,0,0,1,.5.225c.084.1,8.481,10.055,15.1,12.439a22.779,22.779,0,0,0,11.455,1.35.629.629,0,0,1,.764.6c.009.379.55,38.2-30.422,60.1A.629.629,0,0,1,771.01,403.832Zm-28.621-62.556c-3.53,19.082,4.42,34.675,11.753,44.43a83.181,83.181,0,0,0,16.866,16.726c27.728-19.879,29.436-52.77,29.527-58.056a25.032,25.032,0,0,1-11.385-1.52c-6.054-2.179-13.175-9.982-15.133-12.223-3.986,4.958-10.7,8.357-19.479,9.85A59.894,59.894,0,0,1,742.389,341.275Z" transform="translate(-736.283 -323.577)" fill="#fff"/>
        </g>
        <g id="Grupo_160992" data-name="Grupo 160992" transform="translate(20.2 18.952)">
          <path id="Trazado_210945" data-name="Trazado 210945" d="M790.813,397.657H770.2a2.84,2.84,0,0,1-3.046-2.639h0l-1.1-19.572a2.777,2.777,0,0,1,.8-2.111,3.087,3.087,0,0,1,2.165-.99l21.813-.712a3.274,3.274,0,0,1,2.337.857,3.171,3.171,0,0,1,1.161,2.192v20.405C794.327,396.773,792.559,397.657,790.813,397.657Zm-22.408-2.71A1.614,1.614,0,0,0,770.2,396.4h20.617c.873,0,2.256-.357,2.256-1.313V374.68a2.112,2.112,0,0,0-.778-1.288,2.083,2.083,0,0,0-1.421-.5l-21.813.712a1.819,1.819,0,0,0-1.277.582,1.523,1.523,0,0,0-.475,1.19Z" transform="translate(-766.044 -358.336)" fill="#fff"/>
          <path id="Trazado_210946" data-name="Trazado 210946" d="M774.437,365.679a.629.629,0,0,1-.622-.539c-.7-4.765-.028-8.518,1.995-11.156a8.923,8.923,0,0,1,5.593-3.4c5.738-.67,10.065,2.722,11.29,8.851a.618.618,0,0,1,.011.076l.376,4.9a.629.629,0,0,1-.579.676.636.636,0,0,1-.675-.579l-.373-4.863c-1.112-5.485-4.815-8.4-9.9-7.811a7.8,7.8,0,0,0-4.757,2.937c-1.8,2.357-2.379,5.784-1.733,10.188a.629.629,0,0,1-.531.714A.649.649,0,0,1,774.437,365.679Z" transform="translate(-768.827 -350.5)" fill="#fff"/>
          <path id="Trazado_210947" data-name="Trazado 210947" d="M780.191,368.546a.628.628,0,0,1-.621-.534c-.033-.21-.761-5.175,1.632-7.962a5.389,5.389,0,0,1,4.3-1.819,5.309,5.309,0,0,1,4.33,1.838c2.211,2.688,1.331,7.319,1.293,7.514a.629.629,0,0,1-1.235-.242c.008-.042.8-4.249-1.032-6.475a4.063,4.063,0,0,0-3.356-1.377,4.135,4.135,0,0,0-3.343,1.378c-2.017,2.346-1.353,6.909-1.346,6.955a.63.63,0,0,1-.527.717A.615.615,0,0,1,780.191,368.546Z" transform="translate(-771.012 -353.367)" fill="#fff"/>
          <path id="Trazado_210948" data-name="Trazado 210948" d="M785.785,396.545H785.6a2.124,2.124,0,0,1-2.037-2.285v-8a4.013,4.013,0,0,1-2.444-3.444c0-2.209,2.152-4.006,4.8-4.006s4.793,1.8,4.793,4.006a3.713,3.713,0,0,1-2.743,3.632v7.813A2.236,2.236,0,0,1,785.785,396.545Zm-1.531-11.35a.629.629,0,0,1,.564.622v8.443c0,.494.244,1.027.779,1.027h.188a.979.979,0,0,0,.92-1.027v-8.283a.629.629,0,0,1,.474-.61,2.577,2.577,0,0,0,2.269-2.553c0-1.515-1.585-2.747-3.534-2.747s-3.54,1.232-3.54,2.747A2.828,2.828,0,0,0,784.254,385.195Z" transform="translate(-771.634 -360.999)" fill="#fff"/>
        </g>
      </g>
    </g>
  </g>
</svg>
