<svg xmlns="http://www.w3.org/2000/svg" xmlns:xlink="http://www.w3.org/1999/xlink" width="315.046" height="313.739" viewBox="0 0 315.046 313.739">
  <defs>
    <linearGradient id="linear-gradient" x1="1.051" y1="0.838" x2="-0.723" y2="-0.247" gradientUnits="objectBoundingBox">
      <stop offset="0" stop-color="#ff9085"/>
      <stop offset="1" stop-color="#fb6fbb"/>
    </linearGradient>
    <linearGradient id="linear-gradient-2" x1="0.585" y1="-0.016" x2="0.297" y2="1.725" xlink:href="#linear-gradient"/>
    <linearGradient id="linear-gradient-3" x1="-0.156" y1="-2.95" x2="0.803" y2="1.957" gradientUnits="objectBoundingBox">
      <stop offset="0" stop-color="#ffc444"/>
      <stop offset="0.996" stop-color="#f36f56"/>
    </linearGradient>
    <linearGradient id="linear-gradient-4" x1="0.191" y1="-1.063" x2="1.197" y2="4.368" xlink:href="#linear-gradient-3"/>
    <linearGradient id="linear-gradient-5" x1="0.304" y1="-0.525" x2="1.248" y2="4.878" xlink:href="#linear-gradient-3"/>
    <linearGradient id="linear-gradient-6" x1="-0.239" y1="-2.128" x2="1.167" y2="2.877" xlink:href="#linear-gradient-3"/>
    <linearGradient id="linear-gradient-7" x1="-0.434" y1="-2.808" x2="1.03" y2="2.188" xlink:href="#linear-gradient-3"/>
    <linearGradient id="linear-gradient-8" x1="-0.277" y1="-3.449" x2="0.707" y2="1.437" xlink:href="#linear-gradient-3"/>
    <linearGradient id="linear-gradient-9" x1="-0.111" y1="-1.879" x2="1.195" y2="3.382" xlink:href="#linear-gradient-3"/>
    <linearGradient id="linear-gradient-10" x1="-0.26" y1="-5.205" x2="0.666" y2="1.693" xlink:href="#linear-gradient-3"/>
    <linearGradient id="linear-gradient-11" x1="-0.34" y1="-5.415" x2="0.581" y2="1.403" xlink:href="#linear-gradient-3"/>
    <linearGradient id="linear-gradient-12" x1="0.402" y1="-0.604" x2="1.388" y2="6.946" xlink:href="#linear-gradient-3"/>
    <linearGradient id="linear-gradient-13" x1="0.069" y1="-1.18" x2="1.322" y2="4.091" xlink:href="#linear-gradient-3"/>
    <linearGradient id="linear-gradient-14" x1="0.298" y1="-0.829" x2="1.367" y2="6.515" xlink:href="#linear-gradient-3"/>
    <linearGradient id="linear-gradient-15" x1="0.586" y1="-0.02" x2="0.297" y2="1.731" xlink:href="#linear-gradient-3"/>
    <linearGradient id="linear-gradient-16" y1="0.5" x2="1" y2="0.5" gradientUnits="objectBoundingBox">
      <stop offset="0" stop-color="#311944"/>
      <stop offset="1" stop-color="#a03976"/>
    </linearGradient>
    <linearGradient id="linear-gradient-17" x1="0" y1="0.5" x2="1" y2="0.5" xlink:href="#linear-gradient"/>
    <linearGradient id="linear-gradient-18" y1="0.5" x2="1" y2="0.5" gradientUnits="objectBoundingBox">
      <stop offset="0" stop-color="#444b8c"/>
      <stop offset="0.996" stop-color="#26264f"/>
    </linearGradient>
    <linearGradient id="linear-gradient-20" x1="1.087" y1="-0.027" x2="0.798" y2="0.192" xlink:href="#linear-gradient"/>
    <linearGradient id="linear-gradient-21" x1="0.272" y1="0.696" x2="-0.227" y2="1.347" xlink:href="#linear-gradient"/>
    <linearGradient id="linear-gradient-22" x1="0.73" y1="0.758" x2="-0.115" y2="-0.571" xlink:href="#linear-gradient"/>
    <linearGradient id="linear-gradient-23" y1="0.5" x2="1" y2="0.5" gradientUnits="objectBoundingBox">
      <stop offset="0" stop-color="#311944"/>
      <stop offset="1" stop-color="#893976"/>
    </linearGradient>
    <linearGradient id="linear-gradient-24" x1="1.069" y1="-0.986" x2="0.322" y2="0.94" gradientUnits="objectBoundingBox">
      <stop offset="0.004" stop-color="#e38ddd"/>
      <stop offset="1" stop-color="#9571f6"/>
    </linearGradient>
    <linearGradient id="linear-gradient-26" x1="0.908" y1="-0.734" x2="0.034" y2="2.341" xlink:href="#linear-gradient-24"/>
    <linearGradient id="linear-gradient-27" x1="-2.944" y1="-0.378" x2="-1.627" y2="2.004" xlink:href="#linear-gradient-3"/>
    <linearGradient id="linear-gradient-28" x1="-1.336" y1="1.155" x2="9.374" y2="-2.542" xlink:href="#linear-gradient-3"/>
    <linearGradient id="linear-gradient-29" x1="-14.315" y1="4.307" x2="-13.263" y2="5.756" xlink:href="#linear-gradient-18"/>
    <linearGradient id="linear-gradient-30" x1="-40.685" y1="3.547" x2="-40.685" y2="2.195" xlink:href="#linear-gradient-3"/>
    <linearGradient id="linear-gradient-31" x1="-18.632" y1="4.854" x2="-17.3" y2="6.642" xlink:href="#linear-gradient-18"/>
    <linearGradient id="linear-gradient-32" x1="-7.829" y1="-0.515" x2="-6.735" y2="0.793" xlink:href="#linear-gradient-18"/>
    <linearGradient id="linear-gradient-33" x1="-41.051" y1="1.222" x2="-41.051" y2="-0.193" xlink:href="#linear-gradient-3"/>
    <linearGradient id="linear-gradient-34" x1="0.623" y1="1.071" x2="0.389" y2="0.243" xlink:href="#linear-gradient-24"/>
    <linearGradient id="linear-gradient-35" x1="-0.885" y1="0.911" x2="8.851" y2="-1.979" xlink:href="#linear-gradient-3"/>
    <linearGradient id="linear-gradient-36" x1="-10.225" y1="-1.298" x2="-8.864" y2="0.479" xlink:href="#linear-gradient-18"/>
    <linearGradient id="linear-gradient-37" x1="-16.356" y1="0.884" x2="-15.839" y2="-0.213" xlink:href="#linear-gradient-3"/>
    <linearGradient id="linear-gradient-38" x1="0.49" y1="0.185" x2="0.583" y2="2.5" gradientUnits="objectBoundingBox">
      <stop offset="0" stop-color="#ab316d"/>
      <stop offset="1" stop-color="#792d3d"/>
    </linearGradient>
    <linearGradient id="linear-gradient-39" x1="-24.053" y1="-2.784" x2="-8.05" y2="10.461" xlink:href="#linear-gradient-3"/>
    <linearGradient id="linear-gradient-40" x1="0.405" y1="-1.346" x2="0.689" y2="4.864" xlink:href="#linear-gradient-38"/>
    <linearGradient id="linear-gradient-41" x1="-0.283" y1="0.99" x2="8.555" y2="-3.392" xlink:href="#linear-gradient-3"/>
  </defs>
  <g id="Cyber_security_software" data-name="Cyber security software" transform="translate(-449.167 -455)">
    <path id="Trazado_217583" data-name="Trazado 217583" d="M524.9,473.857c-10.581,15.147,1.826,39.7-13.875,51.1-15.283,11.089-34.058-7.087-48.462,2.458C441.2,541.573,445.1,606.368,476.34,646.626c9.395,12.107,17.245,16.818,20.721,30.51,7.465,29.4-18.772,46.891-13.779,61.433,11.242,32.742,184.139,60.217,253.512-38.184,32.4-45.957,37.248-112.32,8.3-162.723C692.784,446.585,548.644,439.869,524.9,473.857Z" fill="#f4f7fa"/>
    <g id="Grupo_162746" data-name="Grupo 162746" transform="translate(451.377 458.907)">
      <path id="Trazado_217584" data-name="Trazado 217584" d="M627.118,1626.54l-5.057-.042a39.324,39.324,0,0,0-1.786-6.654l4.387-2.484a2.483,2.483,0,0,0,.916-3.406l-4.325-7.533a2.532,2.532,0,0,0-3.427-.96l-4.444,2.5a40.574,40.574,0,0,0-4.876-4.9l2.578-4.411a2.525,2.525,0,0,0-.922-3.44l-7.546-4.452a2.513,2.513,0,0,0-3.454.865l-2.595,4.424a40.324,40.324,0,0,0-6.694-1.861V1589a2.583,2.583,0,0,0-2.542-2.562l-8.8-.148a2.49,2.49,0,0,0-2.554,2.484v5.2a39.919,39.919,0,0,0-6.753,1.667l-2.628-4.533a2.613,2.613,0,0,0-3.508-.983l-7.7,4.259a2.494,2.494,0,0,0-.944,3.453l2.638,4.534a39.749,39.749,0,0,0-4.995,4.835l-4.57-2.652a2.594,2.594,0,0,0-3.536.886L539.5,1613a2.536,2.536,0,0,0,.95,3.488l4.538,2.618a38.912,38.912,0,0,0-1.845,6.731l-5.241-.044a2.548,2.548,0,0,0-2.6,2.527v8.8a2.591,2.591,0,0,0,2.6,2.563l5.2.028a39.305,39.305,0,0,0,1.819,6.795l-4.47,2.517a2.514,2.514,0,0,0-.95,3.475l4.477,7.621a2.616,2.616,0,0,0,3.536.934l4.436-2.512a40.554,40.554,0,0,0,5.039,4.98l-2.549,4.346a2.515,2.515,0,0,0,.944,3.466l7.7,4.366a2.591,2.591,0,0,0,3.508-.934l2.517-4.306a40.328,40.328,0,0,0,6.865,1.8v4.971a2.532,2.532,0,0,0,2.554,2.519l8.8-.026a2.54,2.54,0,0,0,2.542-2.527v-4.956a39.94,39.94,0,0,0,6.8-1.806l2.485,4.271a2.534,2.534,0,0,0,3.454.913l7.546-4.348a2.5,2.5,0,0,0,.922-3.427l-2.491-4.3a39.72,39.72,0,0,0,4.92-4.911l4.314,2.489a2.51,2.51,0,0,0,3.427-.913l4.325-7.473a2.5,2.5,0,0,0-.916-3.418l-4.321-2.507a38.9,38.9,0,0,0,1.76-6.667l5.017.027a2.482,2.482,0,0,0,2.5-2.484v-8.627A2.524,2.524,0,0,0,627.118,1626.54Zm-44.184-18.855a25.826,25.826,0,0,1,25.593,25.654,25.4,25.4,0,0,1-25.593,25.3,25.815,25.815,0,0,1-25.874-25.656A25.39,25.39,0,0,1,582.934,1607.685Z" transform="translate(-527.865 -1463.438)" fill="url(#linear-gradient)"/>
      <g id="Grupo_162745" data-name="Grupo 162745" transform="translate(41.438 0)">
        <path id="Trazado_217585" data-name="Trazado 217585" d="M1184.614,766.969l-4.577-.125a34.452,34.452,0,0,0-1.617-5.9l3.972-2.111a2.131,2.131,0,0,0,.829-2.985l-3.915-6.723a2.36,2.36,0,0,0-3.1-.914l-4.03,2.121a37.488,37.488,0,0,0-4.427-4.424l2.341-3.843a2.226,2.226,0,0,0-.837-3.055l-6.858-4.09a2.3,2.3,0,0,0-3.143.692l-2.363,3.857a38.323,38.323,0,0,0-6.1-1.785V733.1a2.389,2.389,0,0,0-2.32-2.322l-8.041-.322a2.183,2.183,0,0,0-2.337,2.146v4.607a37.027,37.027,0,0,0-6.185,1.338l-2.41-4.076a2.479,2.479,0,0,0-3.218-.947l-7.073,3.619a2.146,2.146,0,0,0-.868,3.048l2.426,4.082a34.867,34.867,0,0,0-4.594,4.2l-4.208-2.448a2.412,2.412,0,0,0-3.259.717l-4.13,6.639a2.242,2.242,0,0,0,.876,3.122l4.185,2.414a33.154,33.154,0,0,0-1.7,5.954l-4.836-.132a2.262,2.262,0,0,0-2.4,2.2v7.838a2.4,2.4,0,0,0,2.4,2.325l4.8.11a34.443,34.443,0,0,0,1.677,6.074l-4.123,2.17a2.174,2.174,0,0,0-.876,3.078l4.13,6.847a2.483,2.483,0,0,0,3.259.881l4.085-2.171a37.573,37.573,0,0,0,4.635,4.5l-2.344,3.826a2.214,2.214,0,0,0,.868,3.092l7.073,3.976a2.4,2.4,0,0,0,3.218-.785l2.308-3.788a38.327,38.327,0,0,0,6.287,1.683V811a2.319,2.319,0,0,0,2.337,2.264l8.041.083a2.247,2.247,0,0,0,2.32-2.205v-4.385a36.917,36.917,0,0,0,6.2-1.509l2.263,3.808a2.363,2.363,0,0,0,3.143.85l6.858-3.744a2.159,2.159,0,0,0,.837-3.013l-2.262-3.827a34.762,34.762,0,0,0,4.466-4.267l3.912,2.256a2.288,2.288,0,0,0,3.1-.757l3.915-6.525a2.2,2.2,0,0,0-.829-3.026l-3.912-2.276a33.157,33.157,0,0,0,1.594-5.851l4.54.1a2.17,2.17,0,0,0,2.26-2.148v-7.6A2.306,2.306,0,0,0,1184.614,766.969Zm-40.167-17.47c12.925.43,23.315,10.793,23.315,23.15s-10.39,22.2-23.315,21.976c-13.046-.223-23.712-10.593-23.712-23.16S1131.4,749.065,1144.447,749.5Z" transform="translate(-1071.335 -703.498)" fill="url(#linear-gradient-2)"/>
        <g id="Grupo_162744" data-name="Grupo 162744">
          <path id="Trazado_217586" data-name="Trazado 217586" d="M911.823,489.964c-39.91-1.984-73.112,27.778-73.112,66.528s33.2,70.185,73.112,70.213c38.8.027,69.471-29.8,69.471-66.62S950.623,491.892,911.823,489.964Zm0,120.392c-30.263-.2-55.283-24.115-55.283-53.415s25.019-51.955,55.283-50.628c29.621,1.3,53.175,25.179,53.175,53.361S941.444,610.55,911.823,610.355Z" transform="translate(-838.711 -489.87)" fill="#fff" opacity="0.74"/>
          <g id="Grupo_162743" data-name="Grupo 162743" transform="translate(0 0.003)">
            <path id="Trazado_217587" data-name="Trazado 217587" d="M936.8,1315.263l-15.357,8.113a72.743,72.743,0,0,0,24.793,25.217l8.749-14.3A55.237,55.237,0,0,1,936.8,1315.263Z" transform="translate(-912.171 -1222.781)" fill="url(#linear-gradient-3)"/>
            <path id="Trazado_217588" data-name="Trazado 217588" d="M1746.644,615.716l14.273-7.522a73.075,73.075,0,0,0-22.952-21.922l-8.34,13.651A55.66,55.66,0,0,1,1746.644,615.716Z" transform="translate(-1629.798 -575.473)" fill="url(#linear-gradient-4)"/>
            <path id="Trazado_217589" data-name="Trazado 217589" d="M966.435,586.384a51.873,51.873,0,0,1,17.913-14.836l-8.722-14.718a68.159,68.159,0,0,0-24.565,20.62Z" transform="translate(-938.472 -549.33)" fill="url(#linear-gradient-5)"/>
            <path id="Trazado_217590" data-name="Trazado 217590" d="M856.541,1070c0-.627.027-1.247.05-1.868l-17.852-.462q-.026.937-.027,1.88a67.011,67.011,0,0,0,7.7,31.142l15.423-8.128A50.914,50.914,0,0,1,856.541,1070Z" transform="translate(-838.711 -1002.927)" fill="url(#linear-gradient-6)"/>
            <path id="Trazado_217591" data-name="Trazado 217591" d="M1926.8,1098.593a49.26,49.26,0,0,1-4.918,21.531l14.222,8.265a64.742,64.742,0,0,0,6.992-29.385q0-.9-.025-1.787l-16.318-.422C1926.774,1097.392,1926.8,1097.99,1926.8,1098.593Z" transform="translate(-1800.512 -1028.791)" opacity="0.25" fill="url(#linear-gradient-7)"/>
            <path id="Trazado_217592" data-name="Trazado 217592" d="M1773.077,1329.14a51.147,51.147,0,0,1-17.2,18.053l8.33,14.075a67.3,67.3,0,0,0,23.062-23.9Z" transform="translate(-1653.109 -1235.103)" opacity="0.25" fill="url(#linear-gradient-8)"/>
            <path id="Trazado_217593" data-name="Trazado 217593" d="M1896.912,812.839a51.435,51.435,0,0,1,7.476,22.1l16.359.441a67.489,67.489,0,0,0-9.621-30.055Z" transform="translate(-1778.341 -769.985)" fill="url(#linear-gradient-9)"/>
            <path id="Trazado_217594" data-name="Trazado 217594" d="M1202.574,1507.294a56.735,56.735,0,0,1-25.882-7.245l-8.721,14.276a74.618,74.618,0,0,0,34.6,9.348Z" transform="translate(-1131.078 -1386.861)" opacity="0.25" fill="url(#linear-gradient-10)"/>
            <path id="Trazado_217595" data-name="Trazado 217595" d="M1530.963,1504.462a54.508,54.508,0,0,1-25.352,6.772v16.359a71.683,71.683,0,0,0,33.688-9.064Z" transform="translate(-1430.885 -1390.78)" opacity="0.25" fill="url(#linear-gradient-11)"/>
            <path id="Trazado_217596" data-name="Trazado 217596" d="M1204.952,510.751a55,55,0,0,1,22.722-4.449V489.923a72.345,72.345,0,0,0-31.436,6.1Z" transform="translate(-1156.177 -489.893)" fill="url(#linear-gradient-12)"/>
            <path id="Trazado_217597" data-name="Trazado 217597" d="M858.352,795.4a49.151,49.151,0,0,1,8.033-22.424l-15.349-8.9a64.61,64.61,0,0,0-10.577,30.841Z" transform="translate(-840.263 -733.356)" fill="url(#linear-gradient-13)"/>
            <path id="Trazado_217598" data-name="Trazado 217598" d="M1505.611,507.956a56.782,56.782,0,0,1,22.306,6.33l8.366-13.676a74.672,74.672,0,0,0-30.672-9.013Z" transform="translate(-1430.885 -491.406)" fill="url(#linear-gradient-14)"/>
          </g>
        </g>
      </g>
      <path id="Trazado_217599" data-name="Trazado 217599" d="M509.224,1203.614l-2.232.018a16.056,16.056,0,0,0-.788-2.82l1.936-1.09a1.048,1.048,0,0,0,.4-1.457l-1.909-3.174a1.127,1.127,0,0,0-1.512-.382l-1.96,1.1a17.107,17.107,0,0,0-2.149-2.049l1.136-1.9a1.042,1.042,0,0,0-.406-1.456l-3.324-1.833a1.141,1.141,0,0,0-1.521.4l-1.142,1.9a17.992,17.992,0,0,0-2.945-.738v-2.2a1.092,1.092,0,0,0-1.118-1.068l-3.867.008a1.1,1.1,0,0,0-1.122,1.075v2.207a18.267,18.267,0,0,0-2.964.761l-1.153-1.9a1.154,1.154,0,0,0-1.538-.389l-3.374,1.868a1.051,1.051,0,0,0-.413,1.472l1.156,1.9a17.612,17.612,0,0,0-2.188,2.089l-2-1.09a1.168,1.168,0,0,0-1.547.4l-1.958,3.237a1.046,1.046,0,0,0,.415,1.471l1.985,1.076a16.3,16.3,0,0,0-.807,2.866l-2.292.019a1.12,1.12,0,0,0-1.136,1.089v3.729a1.1,1.1,0,0,0,1.136,1.068l2.274-.023a16.059,16.059,0,0,0,.8,2.868l-1.956,1.1a1.058,1.058,0,0,0-.415,1.479l1.958,3.2a1.156,1.156,0,0,0,1.547.374l1.942-1.094a17.131,17.131,0,0,0,2.207,2.08l-1.117,1.859a1.039,1.039,0,0,0,.413,1.464l3.374,1.806a1.167,1.167,0,0,0,1.538-.418l1.1-1.843a18.011,18.011,0,0,0,3.013.721v2.111a1.077,1.077,0,0,0,1.122,1.054l3.867-.063a1.117,1.117,0,0,0,1.118-1.089V1223.3a18.238,18.238,0,0,0,2.993-.809l1.094,1.8a1.129,1.129,0,0,0,1.521.367l3.324-1.9a1.054,1.054,0,0,0,.406-1.464l-1.1-1.812a17.608,17.608,0,0,0,2.169-2.121l1.9,1.031a1.14,1.14,0,0,0,1.512-.41l1.909-3.209a1.036,1.036,0,0,0-.4-1.449l-1.907-1.038a16.274,16.274,0,0,0,.777-2.85l2.215-.023a1.1,1.1,0,0,0,1.1-1.075v-3.674A1.074,1.074,0,0,0,509.224,1203.614Zm-19.462-7.692a10.949,10.949,0,0,1,11.261,10.718,11.2,11.2,0,0,1-11.261,10.927,10.95,10.95,0,0,1-11.353-10.717A11.2,11.2,0,0,1,489.762,1195.922Z" transform="translate(-468.889 -1108.764)" fill="url(#linear-gradient-15)"/>
    </g>
    <g id="Grupo_162750" data-name="Grupo 162750" transform="translate(640.194 477.962)">
      <g id="Grupo_162749" data-name="Grupo 162749" transform="translate(0)" style="isolation: isolate">
        <g id="Grupo_162747" data-name="Grupo 162747" transform="translate(0 4.26)">
          <path id="Trazado_217600" data-name="Trazado 217600" d="M2215.181,697.971c12.3.645,22.707,11.659,23.235,24.6a23.948,23.948,0,0,1-.119,3.609,16.688,16.688,0,0,1,6.995-1.107c10.154.532,18.737,9.618,19.173,20.3.414,10.151-6.676,18.082-16.1,18.389-.495.013-.994.012-1.5-.015l-84.156-4.7a11.8,11.8,0,0,1-8.694-10.885c-.239-5.868,4.093-10.392,9.678-10.1a10.14,10.14,0,0,1,3.4.782,26.435,26.435,0,0,1-.863-5.685c-.546-13.376,9.321-23.682,22.04-23.015a23.137,23.137,0,0,1,6.836,1.429A19.887,19.887,0,0,1,2215.181,697.971Z" transform="translate(-2154.01 -697.942)" fill="url(#linear-gradient-16)"/>
        </g>
        <g id="Grupo_162748" data-name="Grupo 162748" transform="translate(5.613)">
          <path id="Trazado_217601" data-name="Trazado 217601" d="M2265.274,659.955c12.3.645,22.707,11.659,23.235,24.6a23.915,23.915,0,0,1-.119,3.609,16.693,16.693,0,0,1,6.995-1.107c10.154.532,18.738,9.618,19.173,20.3.414,10.151-6.676,18.082-16.1,18.389-.495.013-.995.012-1.5-.015l-84.156-4.7a11.8,11.8,0,0,1-8.694-10.885c-.24-5.868,4.093-10.392,9.678-10.1a10.135,10.135,0,0,1,3.4.782,26.451,26.451,0,0,1-.862-5.685c-.546-13.376,9.321-23.682,22.04-23.015a23.141,23.141,0,0,1,6.836,1.429A19.887,19.887,0,0,1,2265.274,659.955Z" transform="translate(-2204.103 -659.926)" fill="url(#linear-gradient-17)"/>
        </g>
      </g>
    </g>
    <g id="Grupo_162752" data-name="Grupo 162752" transform="translate(678.176 540.861)">
      <g id="Grupo_162751" data-name="Grupo 162751" transform="translate(0 0)">
        <path id="Trazado_217602" data-name="Trazado 217602" d="M2495.231,1232.793a2.247,2.247,0,0,1-2.247-2.247v-7.022a2.247,2.247,0,0,1,4.494,0v7.022A2.247,2.247,0,0,1,2495.231,1232.793Z" transform="translate(-2492.984 -1221.277)" fill="#413974"/>
        <path id="Trazado_217603" data-name="Trazado 217603" d="M2495.231,1395.579a2.247,2.247,0,0,1-2.247-2.247v-10.8a2.247,2.247,0,0,1,4.494,0v10.8A2.247,2.247,0,0,1,2495.231,1395.579Z" transform="translate(-2492.984 -1362.473)" fill="#413974"/>
        <path id="Trazado_217604" data-name="Trazado 217604" d="M2495.231,1584.491a2.247,2.247,0,0,1-2.247-2.247v-7.022a2.247,2.247,0,1,1,4.494,0v7.022A2.247,2.247,0,0,1,2495.231,1584.491Z" transform="translate(-2492.984 -1533.566)" fill="#413974"/>
      </g>
    </g>
    <g id="Grupo_162754" data-name="Grupo 162754" transform="translate(551.592 568.025)">
      <g id="Grupo_162753" data-name="Grupo 162753" transform="translate(0 0)">
        <path id="Trazado_217605" data-name="Trazado 217605" d="M1365.513,1475.223a2.247,2.247,0,0,1-2.247-2.247v-7.022a2.247,2.247,0,0,1,4.494,0v7.022A2.247,2.247,0,0,1,1365.513,1475.223Z" transform="translate(-1363.266 -1463.706)" fill="#413974"/>
        <path id="Trazado_217606" data-name="Trazado 217606" d="M1365.513,1638.008a2.247,2.247,0,0,1-2.247-2.247v-10.8a2.247,2.247,0,1,1,4.494,0v10.8A2.247,2.247,0,0,1,1365.513,1638.008Z" transform="translate(-1363.266 -1604.902)" fill="#413974"/>
        <path id="Trazado_217607" data-name="Trazado 217607" d="M1365.513,1826.92a2.247,2.247,0,0,1-2.247-2.247v-7.022a2.247,2.247,0,0,1,4.494,0v7.022A2.247,2.247,0,0,1,1365.513,1826.92Z" transform="translate(-1363.266 -1775.996)" fill="#413974"/>
      </g>
    </g>
    <g id="Grupo_162756" data-name="Grupo 162756" transform="translate(616.855 531.209)">
      <g id="Grupo_162755" data-name="Grupo 162755" transform="translate(0 0)">
        <path id="Trazado_217608" data-name="Trazado 217608" d="M1947.965,1146.65a2.247,2.247,0,0,1-2.247-2.247v-7.022a2.247,2.247,0,0,1,4.494,0v7.022A2.247,2.247,0,0,1,1947.965,1146.65Z" transform="translate(-1945.718 -1135.133)" fill="#413974"/>
        <path id="Trazado_217609" data-name="Trazado 217609" d="M1947.965,1309.436a2.247,2.247,0,0,1-2.247-2.247v-10.8a2.247,2.247,0,0,1,4.494,0v10.8A2.247,2.247,0,0,1,1947.965,1309.436Z" transform="translate(-1945.718 -1276.329)" fill="#413974"/>
        <path id="Trazado_217610" data-name="Trazado 217610" d="M1947.965,1498.348a2.247,2.247,0,0,1-2.247-2.247v-7.022a2.247,2.247,0,0,1,4.494,0v7.022A2.247,2.247,0,0,1,1947.965,1498.348Z" transform="translate(-1945.718 -1447.423)" fill="#413974"/>
      </g>
    </g>
    <g id="Grupo_162758" data-name="Grupo 162758" transform="translate(504.468 607.911)">
      <g id="Grupo_162757" data-name="Grupo 162757" transform="translate(0)">
        <path id="Trazado_217611" data-name="Trazado 217611" d="M944.95,1831.187a2.247,2.247,0,0,1-2.247-2.247v-7.022a2.247,2.247,0,0,1,4.494,0v7.022A2.247,2.247,0,0,1,944.95,1831.187Z" transform="translate(-942.703 -1819.67)" fill="#413974"/>
        <path id="Trazado_217612" data-name="Trazado 217612" d="M944.95,1993.972a2.247,2.247,0,0,1-2.247-2.247v-10.8a2.247,2.247,0,1,1,4.494,0v10.8A2.247,2.247,0,0,1,944.95,1993.972Z" transform="translate(-942.703 -1960.866)" fill="#413974"/>
        <path id="Trazado_217613" data-name="Trazado 217613" d="M944.95,2182.884a2.247,2.247,0,0,1-2.247-2.247v-7.022a2.247,2.247,0,0,1,4.494,0v7.022A2.247,2.247,0,0,1,944.95,2182.884Z" transform="translate(-942.703 -2131.96)" fill="#413974"/>
      </g>
    </g>
    <g id="Grupo_162762" data-name="Grupo 162762" transform="translate(483.511 638.873)">
      <path id="Trazado_217614" data-name="Trazado 217614" d="M965.052,2943.73l-192.233-1.639v4.848a2.58,2.58,0,0,0,1.974,2.634l54.358,9.547a7.635,7.635,0,0,0,1.95.09l131.862-10.885a2.462,2.462,0,0,0,2.089-2.572Z" transform="translate(-770.898 -2847.286)" fill="#26264f"/>
      <g id="Grupo_162759" data-name="Grupo 162759" transform="translate(0 0)">
        <path id="Trazado_217615" data-name="Trazado 217615" d="M880.067,2184.666l-120.485,8.87a3.652,3.652,0,0,1-3.909-3.767v-89.721a3.986,3.986,0,0,1,3.909-4.055H880.067a3.46,3.46,0,0,1,3.212,3.666v81.106A3.783,3.783,0,0,1,880.067,2184.666Z" transform="translate(-755.673 -2095.992)" fill="#26264f"/>
        <path id="Trazado_217616" data-name="Trazado 217616" d="M897.212,2184.666l-120.484,8.87a3.652,3.652,0,0,1-3.909-3.767v-89.721a3.986,3.986,0,0,1,3.909-4.055H897.212a3.46,3.46,0,0,1,3.212,3.666v81.106A3.783,3.783,0,0,1,897.212,2184.666Z" transform="translate(-770.898 -2095.992)" fill="url(#linear-gradient-18)"/>
        <path id="Trazado_217617" data-name="Trazado 217617" d="M934.992,2220.229l-112.219,7.7a2.994,2.994,0,0,1-3.18-3.092v-78.551a3.266,3.266,0,0,1,3.18-3.324l112.219-.484a2.835,2.835,0,0,1,2.65,3v71.546A3.1,3.1,0,0,1,934.992,2220.229Z" transform="translate(-812.431 -2137.273)" fill="#fff"/>
        <path id="Trazado_217618" data-name="Trazado 217618" d="M1361.33,2105.939a1.392,1.392,0,1,1-1.386-1.509A1.457,1.457,0,0,1,1361.33,2105.939Z" transform="translate(-1291.002 -2103.485)" fill="#fff"/>
      </g>
      <path id="Trazado_217619" data-name="Trazado 217619" d="M902.015,2882.777l-129.2,9.336,56.332,9.894a7.635,7.635,0,0,0,1.95.09l133.951-11.058-60.982-8.2A10.01,10.01,0,0,0,902.015,2882.777Z" transform="translate(-770.898 -2794.595)" fill="url(#linear-gradient-18)"/>
      <path id="Trazado_217620" data-name="Trazado 217620" d="M941.062,2904.508l107.559-7.888,33.289,4.439-106.633,8.432Z" transform="translate(-920.29 -2806.91)" fill="#26264f"/>
      <g id="Grupo_162761" data-name="Grupo 162761" transform="translate(7.361 5.491)">
        <path id="Trazado_217621" data-name="Trazado 217621" d="M869.625,2226.926l-45.779,3.08a2.326,2.326,0,0,1-2.482-2.321v-80.177a2.326,2.326,0,0,1,2.317-2.326l45.945-.186Z" transform="translate(-821.364 -2144.997)" fill="#d8dee8"/>
        <path id="Trazado_217622" data-name="Trazado 217622" d="M1397.46,2448.785l-48.234,1.695V2445.6l48.234-1.512Z" transform="translate(-1290.08 -2410.577)" fill="#d8dee8"/>
        <path id="Trazado_217623" data-name="Trazado 217623" d="M1397.46,2517.412l-48.234,1.995v-4.877l48.234-1.812Z" transform="translate(-1290.08 -2471.515)" fill="#d8dee8"/>
        <path id="Trazado_217624" data-name="Trazado 217624" d="M990.453,2465.517l-27.7.944v-3.645l27.7-.868Z" transform="translate(-946.914 -2426.434)" fill="#fff"/>
        <path id="Trazado_217625" data-name="Trazado 217625" d="M990.453,2517.7l-27.7,1.069v-3.645l27.7-.992Z" transform="translate(-946.914 -2472.769)" fill="#fff"/>
        <path id="Trazado_217626" data-name="Trazado 217626" d="M990.453,2569.881l-27.7,1.193v-3.645l27.7-1.117Z" transform="translate(-946.914 -2519.103)" fill="#fff"/>
        <path id="Trazado_217627" data-name="Trazado 217627" d="M990.453,2622.063l-27.7,1.318v-3.645l27.7-1.242Z" transform="translate(-946.914 -2565.438)" fill="#fff"/>
        <path id="Trazado_217628" data-name="Trazado 217628" d="M1370.541,2596.66l-21.314,1.014V2592.8l21.314-.933Z" transform="translate(-1290.08 -2541.793)" fill="#d8dee8"/>
        <g id="Grupo_162760" data-name="Grupo 162760" transform="translate(77.029 8.901)">
          <path id="Trazado_217629" data-name="Trazado 217629" d="M1508.817,2291.775v7.326a3.787,3.787,0,0,0,3.973,3.731l5.434-.142a3.978,3.978,0,0,0,3.915-3.9v-7.249Zm5,7.574,1.01-3.06a1.321,1.321,0,0,1-.726-1.175,1.418,1.418,0,0,1,1.408-1.388,1.351,1.351,0,0,1,1.4,1.332,1.386,1.386,0,0,1-.723,1.2l1.006,3.01Z" transform="translate(-1508.817 -2284.025)" fill="#d8dee8"/>
          <path id="Trazado_217630" data-name="Trazado 217630" d="M1524.656,2231.32a1.009,1.009,0,0,1-1.044-1,3.914,3.914,0,0,0-4.037-3.854,4.068,4.068,0,0,0-4.063,3.983,1.062,1.062,0,0,1-1.059,1.038,1.022,1.022,0,0,1-1.061-1,6.18,6.18,0,0,1,6.184-6.051,5.947,5.947,0,0,1,6.124,5.855A1.049,1.049,0,0,1,1524.656,2231.32Z" transform="translate(-1512.879 -2224.435)" fill="#d8dee8"/>
        </g>
      </g>
      <path id="Trazado_217631" data-name="Trazado 217631" d="M776.728,2193.536l119.875-8.825.61-.045a3.232,3.232,0,0,0,2.122-1.074c-8.626-.472-13.984-3.533-17.44-6.7-6.941-6.352-5.737-12.617-13.222-16.793-9.336-5.209-16.676,1.392-23.761-5.121-4.3-3.949-2.186-6.893-7.471-12.794-5.853-6.535-9.664-4.338-15.547-10.22-7.438-7.437-3.718-13.223-10.125-18.563-7.773-6.478-16.155-.482-23.554-6.695-3.191-2.679-4.942-6.575-5.857-10.718h-5.629a3.986,3.986,0,0,0-3.909,4.055v89.721A3.652,3.652,0,0,0,776.728,2193.536Z" transform="translate(-770.898 -2095.992)" fill="#fff" opacity="0.48" style="mix-blend-mode: soft-light;isolation: isolate"/>
    </g>
    <g id="Grupo_162764" data-name="Grupo 162764" transform="translate(563.607 567.975)">
      <path id="Trazado_217632" data-name="Trazado 217632" d="M1538.465,1630.8a17.509,17.509,0,0,1-9.529-2.464,184.233,184.233,0,0,1-33.11-25.094c-14.671-14.3-23.1-28.839-24.944-43.115l-.029-.224-.358-60.913c0-12.038,7.852-21.81,22.594-28.231,12.18-5.305,28.323-7.934,45.377-7.44,16.856.488,32.453,3.966,44,9.761,13.723,6.889,20.923,16.57,20.923,28.047l-.326,58.2-.026.214c-1.685,13.67-9.441,27.8-23.148,42.089a191.148,191.148,0,0,1-31.952,26.17A18.135,18.135,0,0,1,1538.465,1630.8Z" transform="translate(-1470.495 -1463.262)" fill="url(#linear-gradient-20)"/>
      <path id="Trazado_217633" data-name="Trazado 217633" d="M1575.435,1630.8a17.1,17.1,0,0,1-9.4-2.464,182.022,182.022,0,0,1-32.673-25.094c-14.477-14.3-22.795-28.839-24.615-43.115l-.029-.224-.353-60.913c0-12.038,7.748-21.81,22.3-28.231,12.019-5.305,27.948-7.934,44.777-7.44,16.633.488,32.024,3.966,43.415,9.761,13.542,6.889,20.647,16.57,20.647,28.047l-.322,58.2-.026.214c-1.663,13.67-9.316,27.8-22.843,42.089a189.138,189.138,0,0,1-31.53,26.17A17.731,17.731,0,0,1,1575.435,1630.8Z" transform="translate(-1504.12 -1463.262)" fill="url(#linear-gradient-21)"/>
      <path id="Trazado_217634" data-name="Trazado 217634" d="M1544.256,1528.686l.355,60.605c3.99,30.922,40.33,55.958,56.158,65.47a13.974,13.974,0,0,0,14.833-.4c15.5-10.2,49.847-35.87,53.518-65.6l.326-58.042C1669.446,1487.656,1544.256,1483.72,1544.256,1528.686Z" transform="translate(-1535.991 -1492.912)" fill="url(#linear-gradient-22)"/>
      <path id="Trazado_217635" data-name="Trazado 217635" d="M1703.3,1735.094a2.165,2.165,0,0,1-1.173-.31,172.032,172.032,0,0,1-30.14-23.008c-11.871-11.661-18.718-23-20.288-33.646l-.348-59.6c.015-5.719,4.541-10.613,13.415-14.529,9.906-4.372,23.974-6.666,38.534-6.32,14.414.342,28.072,3.244,37.534,7.939,8.369,4.153,12.6,9.049,12.614,14.57l-.324,57.538c-1.465,10.3-7.891,21.412-19.174,33.089-10.608,10.979-23,19.682-29.478,23.915A2.242,2.242,0,0,1,1703.3,1735.094Z" transform="translate(-1631.086 -1582.587)" fill="url(#linear-gradient-23)"/>
      <path id="Trazado_217636" data-name="Trazado 217636" d="M1721.553,1760.837a167.162,167.162,0,0,1-28.5-21.929c-11.156-10.979-17.612-21.515-19.13-31.264l-.345-59.255c.01-4.089,3.769-7.84,11.142-11.1,9.384-4.155,22.829-6.345,36.828-6.031,13.865.311,26.933,3.05,35.913,7.493,6.978,3.452,10.508,7.218,10.517,11.206l-.324,57.326c-1.424,9.458-7.513,19.8-18.162,30.8A173.58,173.58,0,0,1,1721.553,1760.837Z" transform="translate(-1650.827 -1612.404)" fill="#f4f7fa"/>
      <g id="Grupo_162763" data-name="Grupo 162763" transform="translate(43.774 43.078)">
        <path id="Trazado_217637" data-name="Trazado 217637" d="M1911.666,2095.582l-44.318.394a6.106,6.106,0,0,0-6.183,5.93v28.4a5.723,5.723,0,0,0,6.16,5.586l44.162-1.808a5.947,5.947,0,0,0,5.7-5.81l.14-27.126A5.555,5.555,0,0,0,1911.666,2095.582Z" transform="translate(-1861.165 -2067.809)" fill="url(#linear-gradient-24)"/>
        <path id="Trazado_217638" data-name="Trazado 217638" d="M2077.37,2197.955a5.487,5.487,0,0,0-5.969-5.407,5.861,5.861,0,0,0-5.487,5.354,5.338,5.338,0,0,0,2.858,5.044,1.979,1.979,0,0,1,.993,2.112l-1.281,7.173a1.442,1.442,0,0,0,1.515,1.683l3.242-.114a1.56,1.56,0,0,0,1.512-1.78l-1.239-7.1a2.115,2.115,0,0,1,1.058-2.152A5.666,5.666,0,0,0,2077.37,2197.955Z" transform="translate(-2042.964 -2153.899)" fill="url(#linear-gradient-23)"/>
        <path id="Trazado_217639" data-name="Trazado 217639" d="M1944.961,1872.674a2.364,2.364,0,0,1-2.4-2.362l.027-6.185a11.493,11.493,0,0,0-11.51-11.386l-14.466-.144a11.758,11.758,0,0,0-12.077,11.509l-.006,6.381a2.539,2.539,0,0,1-2.579,2.47,2.508,2.508,0,0,1-2.587-2.446l0-6.407c0-9.16,7.8-16.515,17.256-16.383l14.472.2a16.355,16.355,0,0,1,16.311,16.209l-.03,6.161A2.418,2.418,0,0,1,1944.961,1872.674Z" transform="translate(-1895.083 -1847.718)" fill="url(#linear-gradient-26)"/>
      </g>
    </g>
    <g id="Grupo_162767" data-name="Grupo 162767" transform="translate(647.422 564.046)">
      <g id="Grupo_162766" data-name="Grupo 162766" transform="translate(0 0)">
        <path id="Trazado_217640" data-name="Trazado 217640" d="M2232.378,1840.633l-3.475-3.791a12.874,12.874,0,0,0-3.09-2.664c-2.8-1.715-6.643-2.555-7.219-1.577-.654,1.11,3,4.4,4.245,5.486l5.155,3.744Z" transform="translate(-2218.516 -1786.918)" fill="url(#linear-gradient-27)"/>
        <path id="Trazado_217641" data-name="Trazado 217641" d="M2788.244,1677.6c.944.357,15.336,6.08,18.295,21.1.239,1.214,2.551,14.12-6.2,23.237-9.814,10.224-28.712,9.97-36.214,1.423a15.322,15.322,0,0,1-3.189-6.058h0l1.976-5.251c2.412-2.911,5.7-3.6,7.449-4.033,4.323-1.065,7.587.86,10.063-1.225,1.37-1.153,1.642-2.814,1.885-4.3.828-5.051-2.023-8.16-2.23-11.275-.155-2.329-.97-7.431,2.069-10.758A9.817,9.817,0,0,1,2788.244,1677.6Z" transform="translate(-2700.157 -1649.65)" fill="url(#linear-gradient-28)"/>
        <path id="Trazado_217642" data-name="Trazado 217642" d="M3054.665,3162.59c.168-.925,3.154-1.762,4.633-.523.734.615,1.24,1.862.815,2.425-.155.205.479.565-.128.572C3057.973,3165.087,3054.5,3163.509,3054.665,3162.59Z" transform="translate(-2960.97 -2967.233)" fill="url(#linear-gradient-29)"/>
        <path id="Trazado_217643" data-name="Trazado 217643" d="M3071.914,3114.429l3.071-.434c-1.423-1.713-1.159-7.169-1.159-7.169l-3.266.729s.372,1.5,1.005,3.707A14.486,14.486,0,0,1,3071.914,3114.429Z" transform="translate(-2975.088 -2918.735)" fill="url(#linear-gradient-30)"/>
        <path id="Trazado_217644" data-name="Trazado 217644" d="M3079.8,3168s3.7-.852,4.1-.118.71,2.7-1.636,2.634S3079.588,3168.626,3079.8,3168Z" transform="translate(-2983.243 -2972.688)" fill="url(#linear-gradient-31)"/>
        <path id="Trazado_217645" data-name="Trazado 217645" d="M2678.454,3196.206c.3-.892,3.37-1.3,4.661.13.641.712.967,2.017.468,2.515-.182.181.395.626-.207.549C2681.38,3199.141,2678.16,3197.092,2678.454,3196.206Z" transform="translate(-2626.902 -2997.381)" fill="url(#linear-gradient-32)"/>
        <path id="Trazado_217646" data-name="Trazado 217646" d="M2702.841,3151.971h3.1c-1.169-1.9-.145-7.261-.145-7.261l-3.336.265s.159,1.535.477,3.811A14.493,14.493,0,0,1,2702.841,3151.971Z" transform="translate(-2648.236 -2952.374)" fill="url(#linear-gradient-33)"/>
        <path id="Trazado_217647" data-name="Trazado 217647" d="M2587.912,2142.682a143.529,143.529,0,0,0-4.81,22.012c-3.768,27.407,4.24,28.281,2.745,58.652-.477,9.694,8.4,32.049,9.181,32.542a9.656,9.656,0,0,0,1.228.048,12.239,12.239,0,0,0,3.126-.521c1.406-.242,6.475-13.973,5.3-22.136-.832-5.778-.59-11.979-.108-24.381.078-2.01,5.219-39.1,5.219-39.1h0c1.564,13.727,3.363,25.391,4.922,34.435,5.01,29.054,21.3,46.639,22.148,46.922a3.446,3.446,0,0,0,2.946-.2,2.036,2.036,0,0,0,.746-.84c.436-.341-.129-29.007-5.1-50.581-7.211-31.314-4.071-38.641-6.356-52.627C2627.125,2134.807,2587.912,2142.682,2587.912,2142.682Z" transform="translate(-2541.346 -2060.387)" fill="url(#linear-gradient-34)"/>
        <path id="Trazado_217648" data-name="Trazado 217648" d="M2636.438,1652.96c-4.788-.141-15.792-1.831-21.854,3.623-.105.095,1.136.758.525,1.475a39.664,39.664,0,0,0-4.28,6.141,41.266,41.266,0,0,0-3.6,8.9,76.438,76.438,0,0,0-2.84,15.522c-1.108,14.572-.009,21.294.988,25.866a50.432,50.432,0,0,0,28.774,4.225,44.915,44.915,0,0,0,14.345-4.725c-3.448-10.442-.743-16.029.533-21.179,1.82-7.344,1.85-6.788,3.348-12.622,2.473-9.625,2.878-19.461,1.179-21.474C2648.98,1653.282,2640.725,1653.086,2636.438,1652.96Z" transform="translate(-2560.744 -1627.458)" fill="url(#linear-gradient-35)"/>
        <path id="Trazado_217649" data-name="Trazado 217649" d="M2702.933,3205.291s3.781-.326,4.074.456.326,2.77-1.988,2.379S2702.639,3205.877,2702.933,3205.291Z" transform="translate(-2648.544 -3006.107)" fill="url(#linear-gradient-36)"/>
        <g id="Grupo_162765" data-name="Grupo 162765" transform="translate(59.263)">
          <path id="Trazado_217650" data-name="Trazado 217650" d="M2750.374,1518.21a8.324,8.324,0,0,1-.673-5.991c.624-2.591.856-2.984,1.337-3.533l.68-.719s.042-.031.087-.062a9.739,9.739,0,0,1,2.62-.873c1.218-.061,3.7,4.306,5.115,11.035q.173.36.342.728c.7,1.527,1.308,3.028,1.826,4.492,8.229.7,9.372,1.661,9.408,2.219.077,1.174-4.612,2.53-8.138,3.046-7.691,1.126-15.6-.9-15.56-2.336.016-.624,1.544-1.438,8.064-2.292l-.458-3.237C2754.494,1520.57,2751.466,1520.057,2750.374,1518.21Z" transform="translate(-2747.417 -1498.197)" fill="url(#linear-gradient-37)"/>
          <path id="Trazado_217651" data-name="Trazado 217651" d="M2757.935,1436.711c.555,2.054,2.109,3.991,2.7,4.213a3.544,3.544,0,0,1,.962.615,1.082,1.082,0,0,1,.182.212c.8,1.176-.858,3.249-.306,3.723.4.344,1.651-.592,1.914-.273.248.3-.727,1.319-.439,1.681.217.273.858-.2,1.435.153.288.176.272.381.7,1.038a6.753,6.753,0,0,0,.764.977c1.032,1.018,3.162.922,3.421.336.072-.163-.051-.252-.061-.733a3.734,3.734,0,0,1,.153-1.008,9.689,9.689,0,0,1,1.924-2.565,6.892,6.892,0,0,0,1.77-3.572c.018-.153.024-.267.028-.349a7.909,7.909,0,0,0-1.553-5.059c-1.753-1.989-4.037-.214-6.75-1.924-3.13-1.973-2.637-5.942-4.062-5.986C2759.143,1428.141,2756.909,1432.913,2757.935,1436.711Z" transform="translate(-2756.525 -1428.19)" fill="url(#linear-gradient-38)"/>
          <path id="Trazado_217652" data-name="Trazado 217652" d="M2794.443,1572.837c.32-.827,1.378-.412,1.622.482a1.69,1.69,0,0,1-1.265,2.1C2793.911,1575.471,2794.014,1573.949,2794.443,1572.837Z" transform="translate(-2788.889 -1556.233)" fill="url(#linear-gradient-39)"/>
        </g>
        <path id="Trazado_217653" data-name="Trazado 217653" d="M2985.939,1932.668a.112.112,0,0,1-.111-.1,29.131,29.131,0,0,1,1.428-12.154c.229-.8.445-1.56.633-2.318,1.034-4.174,1.487-5.785,1.966-7.491.312-1.108.633-2.253,1.132-4.167a.112.112,0,1,1,.216.056c-.5,1.916-.822,3.062-1.133,4.171-.479,1.7-.932,3.314-1.965,7.484-.189.762-.405,1.521-.635,2.326a28.954,28.954,0,0,0-1.421,12.068.111.111,0,0,1-.1.123Z" transform="translate(-2899.708 -1852.777)" fill="#9b305e"/>
        <path id="Trazado_217654" data-name="Trazado 217654" d="M2765.36,1562.028l-.763,1.832s-.764,2.2-1.772,1.375c-.823-.674-.974-.614-1-.569-.005.009,0,.019-.006.019s-.022-.439-.03-.825a7.079,7.079,0,0,0-.428,2.413,3.931,3.931,0,0,0,.794,2.932,3.018,3.018,0,0,0,2.077.886,7.975,7.975,0,0,0,2.2-.824,10.624,10.624,0,0,1-2.5-1.252c-.332-.913.831-1.765,1.283-3.94A7.977,7.977,0,0,0,2765.36,1562.028Z" transform="translate(-2700.533 -1547.031)" fill="url(#linear-gradient-40)"/>
        <path id="Trazado_217655" data-name="Trazado 217655" d="M2300.164,1705.958a9.591,9.591,0,0,0-3.141,3.907,29.024,29.024,0,0,0,10.136,12.624c9.8,6.7,24.165,6.929,34.171-.716,11.955-9.134,13.953-26.649,8.931-34.149-.578-.863-2.479-3.7-5.429-4.028-1.863-.206-4.4.563-8.406,5.254-8.349,9.775-5.4,15.879-10.332,18.739C2318.7,1711.877,2307.706,1700.68,2300.164,1705.958Z" transform="translate(-2288.226 -1654.952)" fill="url(#linear-gradient-41)"/>
        <path id="Trazado_217656" data-name="Trazado 217656" d="M2624.535,1923.336a.112.112,0,0,1-.024-.221c.117-.025,11.716-2.7,16.939-17.107a.112.112,0,1,1,.21.076,28.53,28.53,0,0,1-10.542,14.134,20.84,20.84,0,0,1-6.559,3.116Z" transform="translate(-2578.942 -1852.403)" fill="#9b305e"/>
      </g>
    </g>
    <path id="Trazado_217657" data-name="Trazado 217657" d="M2593.124,869.985l-1.694.014a12.169,12.169,0,0,0-.6-2.139l1.469-.827a.8.8,0,0,0,.307-1.105l-1.448-2.408a.855.855,0,0,0-1.147-.29l-1.487.834a12.992,12.992,0,0,0-1.631-1.554l.862-1.439a.791.791,0,0,0-.308-1.1l-2.522-1.391a.866.866,0,0,0-1.154.3l-.866,1.443a13.659,13.659,0,0,0-2.234-.56v-1.671a.829.829,0,0,0-.848-.81l-2.934.006a.835.835,0,0,0-.851.816v1.674a13.832,13.832,0,0,0-2.249.578l-.875-1.444a.876.876,0,0,0-1.167-.3l-2.56,1.417a.8.8,0,0,0-.313,1.117l.877,1.444a13.38,13.38,0,0,0-1.66,1.585l-1.518-.827a.886.886,0,0,0-1.174.305l-1.486,2.456a.794.794,0,0,0,.315,1.116l1.506.816a12.371,12.371,0,0,0-.612,2.175l-1.739.014a.85.85,0,0,0-.862.826v2.829a.831.831,0,0,0,.862.81l1.725-.018a12.183,12.183,0,0,0,.6,2.176l-1.483.832a.8.8,0,0,0-.315,1.122l1.486,2.428a.877.877,0,0,0,1.174.284l1.473-.83a13.009,13.009,0,0,0,1.675,1.578l-.847,1.41a.788.788,0,0,0,.313,1.111l2.56,1.37a.885.885,0,0,0,1.167-.317l.838-1.4a13.66,13.66,0,0,0,2.286.547v1.6a.817.817,0,0,0,.851.8l2.934-.048a.847.847,0,0,0,.848-.826v-1.6a13.851,13.851,0,0,0,2.271-.614l.83,1.366a.856.856,0,0,0,1.154.279l2.522-1.438a.8.8,0,0,0,.308-1.11l-.833-1.375a13.346,13.346,0,0,0,1.645-1.609l1.443.782a.864.864,0,0,0,1.147-.311l1.448-2.435a.786.786,0,0,0-.307-1.1l-1.447-.788a12.369,12.369,0,0,0,.589-2.162l1.68-.017a.833.833,0,0,0,.837-.816v-2.787A.814.814,0,0,0,2593.124,869.985Zm-14.765-5.835a8.307,8.307,0,0,1,8.544,8.131,8.5,8.5,0,0,1-8.544,8.29,8.307,8.307,0,0,1-8.613-8.13A8.5,8.5,0,0,1,2578.358,864.15Z" transform="translate(-1876.555 -357.201)" fill="#fff"/>
  </g>
</svg>
