<svg xmlns="http://www.w3.org/2000/svg" width="384.451" height="267.521" viewBox="0 0 384.451 267.521">
  <g id="Grupo_162575" data-name="Grupo 162575" transform="translate(-129.5 -164.423)">
    <path id="Trazado_216673" data-name="Trazado 216673" d="M501.307,429.871v0l-.089.206c-.211.492-.429.992-.652,1.493l-341.1-.135s-.332-.482-.926-1.407l-.1-.161c-1.524-2.383-4.59-7.4-8.18-14.471a.032.032,0,0,0,0-.008c-9.525-18.773-22.724-52.017-20.5-88.914a126.889,126.889,0,0,1,5.994-31.876C146.4,261.983,178.185,240,206.822,239.553c11.084-.173,21.7,2.885,30.429,9.8a16.48,16.48,0,0,0,5.761,2.817,27.808,27.808,0,0,0,6.36.982c18.6.853,48.846-12.8,66.787-47.162a74.925,74.925,0,0,1,40.961-36.411c.783-.288,1.572-.567,2.364-.83a82.5,82.5,0,0,1,11.746-2.979q1.08-.19,2.167-.354c17.739-2.683,36.737.092,54.163,7.76q3.443,1.514,6.8,3.285c32.793,17.3,58.306,52.639,56.063,101.976q-.133,2.926-.4,5.919-.5,5.7-1.5,11.633-.593,3.5-1.364,7.072C473.639,365.611,527.672,368.434,501.307,429.871Z" transform="translate(0 0)" fill="#dceaff" opacity="0.5"/>
    <g id="Grupo_162505" data-name="Grupo 162505" transform="translate(153.121 258.124)">
      <path id="Trazado_216674" data-name="Trazado 216674" d="M1291.26,888.047v0l-345.958.037,2.983-103.393V756.6h12.94v-21.94h25.814v18.623h7.883V718.841h1.714v-2.408h.307v2.408h6.227v-2.408h.309v2.408h8.814v-2.408h.309v2.408h5.548v-2.408h.306v2.408h2.279v32.15h8.714v-5.2l10.276.046v-8.427h2.066v-1.666h.275v1.666H1050v0h1.587v-1.67h.273v1.67h1.914v16.755h12.232v6.167h6.8v-3.581h6.308V742.539h3.146v-6.632h.475v6.632h7.538V730.108h.74v12.431H1096v-.173H1096v-1.578H1096v-1.493H1096V736.81H1096v-1.586H1096v-2.485H1096v-1.586H1096v-2.485H1096v-1.714H1096v-2.483H1096v-2.183H1096v-2.483H1096v-1.647h1.485V716.3h.238v1.858h11.008V716.3h.236v1.858h2.01v13l1.413.008v-.008h-.011v-2.485h.011v-1.714h-.011v-2.483h.011v-1.709h-.011v-2.485h.011v-.008h13.349v.008h2.295l.358.2v16.572h2.456v-2.389h28.176v18.623h8.6V718.841h1.87v-2.408h.338v2.408h6.794v-2.408h.337v2.408h9.622v-2.408h.336v2.408h6.056v-2.408h.334v2.408h2.489v32.15h9.509v-5.2l11.214.046v-8.425h2.258v-1.668h.3v1.668h8.658v0h1.733v-1.67h.3v1.67h2.089V754.17h13.351v6.165h7.424v-3.581h6.884V742.537h3.432v-6.63h.519v6.63h8.228V730.108h.807v12.429h4.045a114.846,114.846,0,0,1-1.96,11.633q-.773,3.5-1.778,7.072C1255.208,823.786,1325.614,826.61,1291.26,888.047Z" transform="translate(-945.302 -716.3)" fill="#dfebfa"/>
    </g>
    <path id="Trazado_216675" data-name="Trazado 216675" d="M2425.8,219.294V472.7h-8.858V216.009Q2421.43,217.522,2425.8,219.294Z" transform="translate(-1990.039 -42.827)" fill="#afcdfb"/>
    <path id="Trazado_216676" data-name="Trazado 216676" d="M277.408,619.544V797.4H167.335l-.134-.161a167.013,167.013,0,0,1-10.659-14.471s0,0,0-.008c-12.411-18.773-29.61-52.017-26.716-88.914a101.1,101.1,0,0,1,7.81-31.876c13.883-32.617,55.3-54.605,92.619-55.047,14.308.157,27.946,3.246,39.271,9.8A26.67,26.67,0,0,0,277.408,619.544Z" transform="translate(0 -367.37)" fill="#cee1fd"/>
    <g id="Grupo_162506" data-name="Grupo 162506" transform="translate(352.681 165.421)">
      <path id="Trazado_216677" data-name="Trazado 216677" d="M1987.47,170.3v31.207c0,2.433-.594,4.418-1.318,4.418h-.188c-.724,0-1.316-1.985-1.316-4.418V170.652Q1986.054,170.462,1987.47,170.3Z" transform="translate(-1966.701 -170.299)" fill="#9fc1f4"/>
      <path id="Trazado_216678" data-name="Trazado 216678" d="M1897.57,335.9c-10.285,0-18.622,8.816-18.622,19.691h37.245C1916.193,344.719,1907.855,335.9,1897.57,335.9Z" transform="translate(-1878.948 -307.786)" fill="#ff9843"/>
      <path id="Trazado_216679" data-name="Trazado 216679" d="M1930.041,336.446a7.661,7.661,0,0,0-1.636-.178c-6.7,0-12.133,8.788-12.133,19.629h3.271C1919.543,345.954,1924.113,337.738,1930.041,336.446Z" transform="translate(-1909.935 -308.089)" fill="#ffc48a"/>
    </g>
    <g id="Grupo_162513" data-name="Grupo 162513" transform="translate(406.661 360.556)">
      <g id="Grupo_162508" data-name="Grupo 162508" transform="translate(37.868 28.282)">
        <path id="Trazado_216680" data-name="Trazado 216680" d="M2699.731,1498.156s-4.955-5.781-.305-9.454c0,0,3.4-2.056,6.167-1.889,0,0-3.925,6.581-2.655,7.236s3.844-7.649,3.844-7.649,7.73-.75,10.216.446c0,0-6.608,5.408-5.216,5.729s8.529-4.986,8.529-4.986,7.194,1.224,6.811,5.613-2.863,5.744-3.952,5.627-7.463-2.55-7.6-1.657,3.7,3.81,6.384,3.947c0,0-5.072,5.594-8.443,3.979s-3.659-4.173-5.76-5.133-3.9-.957-3.028.021,4.671,1.93,5.872,4.056,2.28,3.559-1.208,3.034-9.157-3.077-9.406-6Z" transform="translate(-2691.355 -1486.167)" fill="#77a4e5"/>
        <g id="Grupo_162507" data-name="Grupo 162507" transform="translate(0 7.119)">
          <path id="Trazado_216681" data-name="Trazado 216681" d="M2713.55,1528.133s-19.541-.753-23.856,4.835a14.138,14.138,0,0,1-3.891,5.461l-.458,1.248s3.386-3.57,4.6-3.786C2689.943,1535.891,2688.048,1528.967,2713.55,1528.133Z" transform="translate(-2681.317 -1528.099)" fill="#77a4e5"/>
          <path id="Trazado_216682" data-name="Trazado 216682" d="M2666.108,1586.536a12.27,12.27,0,0,0-4.486,8.644l.761.068s1.34-5.731,3.761-7.971S2666.108,1586.536,2666.108,1586.536Z" transform="translate(-2661.622 -1576.206)" fill="#77a4e5"/>
        </g>
      </g>
      <g id="Grupo_162510" data-name="Grupo 162510" transform="translate(0 12.584)">
        <path id="Trazado_216683" data-name="Trazado 216683" d="M2467.508,1414.127s7.884-4.415,4.2-10.406c0,0-2.944-3.679-6.1-4.625,0,0,1.682,8.935,0,9.145s-1.156-10.091-1.156-10.091-8.3-3.995-11.562-3.679c0,0,5.15,8.724,3.469,8.514s-7.463-9.04-7.463-9.04-8.514-1.577-9.881,3.469.841,7.568,2.1,7.883,9.355.21,9.145,1.261-5.676,2.733-8.725,1.787c0,0,3.364,8.3,7.778,7.884s5.781-3.153,8.514-3.364,4.73.526,3.364,1.261-5.991.241-8.2,2.118-3.994,3.033.105,3.874,11.457.315,12.929-2.838Z" transform="translate(-2438.591 -1393.712)" fill="#77a4e5"/>
        <g id="Grupo_162509" data-name="Grupo 162509" transform="translate(4.32 5.279)">
          <path id="Trazado_216684" data-name="Trazado 216684" d="M2464.037,1424.8s22.073,7.147,24.6,15.136a16.769,16.769,0,0,0,2.1,7.673v1.577s-2.312-5.361-3.574-6.1C2487.162,1443.093,2492.1,1436.155,2464.037,1424.8Z" transform="translate(-2464.037 -1424.803)" fill="#77a4e5"/>
          <path id="Trazado_216685" data-name="Trazado 216685" d="M2616.128,1554.348a14.558,14.558,0,0,1,1.463,11.462l-.875-.235s.85-6.931-.931-10.417S2616.128,1554.348,2616.128,1554.348Z" transform="translate(-2589.429 -1531.538)" fill="#77a4e5"/>
        </g>
      </g>
      <g id="Grupo_162512" data-name="Grupo 162512" transform="translate(34.627)">
        <path id="Trazado_216686" data-name="Trazado 216686" d="M2649.367,1346.505s-10.393-5.82-5.542-13.717c0,0,3.879-4.85,8.036-6.1,0,0-2.217,11.778,0,12.055s1.524-13.3,1.524-13.3,10.946-5.266,15.241-4.85c0,0-6.789,11.5-4.572,11.224s9.838-11.916,9.838-11.916,11.223-2.078,13.024,4.573-1.108,9.976-2.771,10.392-12.332.277-12.054,1.663,7.482,3.6,11.5,2.355c0,0-4.435,10.946-10.254,10.392s-7.621-4.157-11.223-4.434-6.235.693-4.434,1.663,7.9.318,10.807,2.792,5.265,4-.138,5.106-15.1.416-17.043-3.741Z" transform="translate(-2642.535 -1319.594)" fill="#9fc1f4"/>
        <g id="Grupo_162511" data-name="Grupo 162511" transform="translate(1.343 6.958)">
          <path id="Trazado_216687" data-name="Trazado 216687" d="M2701.645,1360.576s-29.1,9.422-32.423,19.953a22.1,22.1,0,0,1-2.771,10.115v2.078s3.048-7.066,4.711-8.036C2671.162,1384.685,2664.65,1375.541,2701.645,1360.576Z" transform="translate(-2663.734 -1360.576)" fill="#9fc1f4"/>
          <path id="Trazado_216688" data-name="Trazado 216688" d="M2653.164,1531.34a19.191,19.191,0,0,0-1.929,15.109l1.155-.31s-1.121-9.136,1.227-13.731S2653.164,1531.34,2653.164,1531.34Z" transform="translate(-2650.447 -1501.273)" fill="#9fc1f4"/>
        </g>
      </g>
      <path id="Trazado_216689" data-name="Trazado 216689" d="M2581.174,1633.059a20.356,20.356,0,0,0,20.356-20.356h-40.713A20.356,20.356,0,0,0,2581.174,1633.059Z" transform="translate(-2540.065 -1562.937)" fill="#9fc1f4"/>
      <path id="Trazado_216690" data-name="Trazado 216690" d="M2598.315,1632.9a20.37,20.37,0,0,1-22.884-20.2h5.057A20.359,20.359,0,0,0,2598.315,1632.9Z" transform="translate(-2552.197 -1562.936)" fill="#afcdfb"/>
      <rect id="Rectángulo_48329" data-name="Rectángulo 48329" width="41.845" height="0.624" transform="translate(20.083 49.766)" fill="#9fc1f4"/>
    </g>
    <g id="Grupo_162538" data-name="Grupo 162538" transform="translate(302.996 302.303)">
      <g id="Grupo_162514" data-name="Grupo 162514" transform="translate(75.596 41.084)">
        <path id="Trazado_216691" data-name="Trazado 216691" d="M2024.753,1304.765l-20-83.022,1.4-3.268,19.816,86.281a.353.353,0,0,1-.344.432h-.331A.551.551,0,0,1,2024.753,1304.765Z" transform="translate(-2004.75 -1218.475)" fill="#77a4e5"/>
      </g>
      <g id="Grupo_162537" data-name="Grupo 162537" transform="translate(0 0)">
        <g id="Grupo_162515" data-name="Grupo 162515" transform="translate(4.658 91.313)">
          <path id="Trazado_216692" data-name="Trazado 216692" d="M1587.615,1550.794h0a.665.665,0,0,1-.657-.774l5.891-35.71h2.525l-7.026,35.881A.747.747,0,0,1,1587.615,1550.794Z" transform="translate(-1586.948 -1514.31)" fill="#77a4e5"/>
        </g>
        <g id="Grupo_162516" data-name="Grupo 162516" transform="translate(61.174 91.313)">
          <path id="Trazado_216693" data-name="Trazado 216693" d="M1920.476,1550.794h0a.666.666,0,0,1-.657-.774l5.891-35.71h2.525l-7.026,35.881A.747.747,0,0,1,1920.476,1550.794Z" transform="translate(-1919.81 -1514.31)" fill="#77a4e5"/>
        </g>
        <path id="Trazado_216694" data-name="Trazado 216694" d="M1660.4,1067.887h-70.36l14.577-91.388h70.361Z" transform="translate(-1584.854 -976.498)" fill="#f5fbff"/>
        <rect id="Rectángulo_48330" data-name="Rectángulo 48330" width="80.808" height="2.688" transform="translate(0 90.691)" fill="#77a4e5"/>
        <g id="Grupo_162517" data-name="Grupo 162517" transform="translate(21.256 5.493)">
          <path id="Trazado_216695" data-name="Trazado 216695" d="M1711.072,1022.482a14.725,14.725,0,0,1-.315,2.127c-1.466,6.531-7.282,11.535-13.854,11.547-7.271.012-12.715-6.089-12.16-13.629s6.9-13.661,14.171-13.674a12.21,12.21,0,0,1,4.293.757,11.771,11.771,0,0,1,4.822,3.342,12.267,12.267,0,0,1,1.318,1.838,12.128,12.128,0,0,1,.611,1.181,12.958,12.958,0,0,1,1.035,3.654,13.884,13.884,0,0,1,.116,2Q1711.1,1022.047,1711.072,1022.482Z" transform="translate(-1684.704 -1008.853)" fill="#bdd1f9"/>
          <path id="Trazado_216696" data-name="Trazado 216696" d="M1774.524,1023.56l-12.05,6.534s4.972-8.756,7.012-12.1a11.873,11.873,0,0,1,3.108,2.546,12.279,12.279,0,0,1,1.318,1.838A12.063,12.063,0,0,1,1774.524,1023.56Z" transform="translate(-1749.27 -1016.443)" fill="#fff"/>
          <path id="Trazado_216697" data-name="Trazado 216697" d="M1787,1016.183l-11.007,5.969s4.542-8,6.406-11.051a10.837,10.837,0,0,1,2.839,2.326,11.16,11.16,0,0,1,1.2,1.679A11.022,11.022,0,0,1,1787,1016.183Z" transform="translate(-1760.492 -1010.718)" fill="#f99746"/>
        </g>
        <g id="Grupo_162523" data-name="Grupo 162523" transform="translate(12.028 51.023)">
          <g id="Grupo_162518" data-name="Grupo 162518">
            <path id="Trazado_216698" data-name="Trazado 216698" d="M1688.266,1310.428l-57.912,0,5.863-33.414,57.913,0Zm-57.445-.341,57.1,0,5.745-32.741-57.1,0Z" transform="translate(-1630.354 -1277.01)" fill="#bdd1f9"/>
          </g>
          <g id="Grupo_162520" data-name="Grupo 162520" transform="translate(3.097 18.495)">
            <path id="Trazado_216699" data-name="Trazado 216699" d="M1699.958,1403.505l-51.362,0s9.111-4.886,11.61-4.63,6.091,2.234,8.4,2.311,4.811-6.858,7.382-6.531,3.539,6.461,4.87,5.862a13.471,13.471,0,0,1,7.631,0c2.3.859,5.657-2.73,7.682-2.618S1699.958,1403.505,1699.958,1403.505Z" transform="translate(-1648.596 -1393.163)" fill="#f99746"/>
            <g id="Grupo_162519" data-name="Grupo 162519" transform="translate(2.345)">
              <path id="Trazado_216700" data-name="Trazado 216700" d="M1673.368,1386.46h-9.81l.091-.52h9.81Z" transform="translate(-1663.363 -1385.94)" fill="#f99746"/>
              <path id="Trazado_216701" data-name="Trazado 216701" d="M1672.219,1393.005h-9.81l.091-.52h9.81Z" transform="translate(-1662.409 -1391.373)" fill="#f99746"/>
            </g>
          </g>
          <g id="Grupo_162522" data-name="Grupo 162522" transform="translate(6.036 2.701)">
            <path id="Trazado_216702" data-name="Trazado 216702" d="M1665.905,1304.852l51.362,0s-7.4-4.887-9.985-4.631-6.875,2.233-9.212,2.31-2.4-6.858-5.09-6.532-5.806,6.46-6.927,5.861-5.027-.859-7.631,0-4.7-2.73-6.763-2.618S1665.905,1304.852,1665.905,1304.852Z" transform="translate(-1665.905 -1295.469)" fill="#bdd1f9"/>
            <g id="Grupo_162521" data-name="Grupo 162521" transform="translate(2.178)">
              <path id="Trazado_216703" data-name="Trazado 216703" d="M1689.69,1293.437h-9.81l.091-.52h9.81Z" transform="translate(-1679.685 -1292.916)" fill="#bdd1f9"/>
              <path id="Trazado_216704" data-name="Trazado 216704" d="M1688.541,1299.982h-9.81l.091-.52h9.81Z" transform="translate(-1678.732 -1298.35)" fill="#bdd1f9"/>
            </g>
          </g>
        </g>
        <g id="Grupo_162524" data-name="Grupo 162524" transform="translate(19.141 35.806)">
          <path id="Trazado_216705" data-name="Trazado 216705" d="M1674.5,1197.944h-2.252l1.957-10.556h2.253Z" transform="translate(-1672.249 -1187.388)" fill="#bdd1f9"/>
          <path id="Trazado_216706" data-name="Trazado 216706" d="M1692.576,1209.577h-2.252l1.516-8.177h2.252Z" transform="translate(-1687.255 -1199.02)" fill="#bdd1f9"/>
          <path id="Trazado_216707" data-name="Trazado 216707" d="M1710.651,1207.863H1708.4l1.581-8.528h2.252Z" transform="translate(-1702.261 -1197.306)" fill="#bdd1f9"/>
          <path id="Trazado_216708" data-name="Trazado 216708" d="M1728.725,1217.843h-2.253l1.2-6.487h2.253Z" transform="translate(-1717.266 -1207.287)" fill="#bdd1f9"/>
          <path id="Trazado_216709" data-name="Trazado 216709" d="M1746.8,1215.534h-2.253l1.29-6.959h2.253Z" transform="translate(-1732.271 -1204.978)" fill="#bdd1f9"/>
          <path id="Trazado_216710" data-name="Trazado 216710" d="M1764.875,1223.173h-2.252l1-5.4h2.253Z" transform="translate(-1747.278 -1212.617)" fill="#bdd1f9"/>
        </g>
        <g id="Grupo_162525" data-name="Grupo 162525" transform="translate(49.277 35.806)">
          <path id="Trazado_216711" data-name="Trazado 216711" d="M1851.994,1197.944h-2.253l1.957-10.556h2.253Z" transform="translate(-1849.741 -1187.388)" fill="#f99746"/>
          <path id="Trazado_216712" data-name="Trazado 216712" d="M1870.068,1209.577h-2.253l1.516-8.177h2.253Z" transform="translate(-1864.747 -1199.02)" fill="#f99746"/>
          <path id="Trazado_216713" data-name="Trazado 216713" d="M1888.143,1207.863h-2.252l1.581-8.528h2.253Z" transform="translate(-1879.753 -1197.306)" fill="#f99746"/>
          <path id="Trazado_216714" data-name="Trazado 216714" d="M1906.217,1217.843h-2.253l1.2-6.487h2.252Z" transform="translate(-1894.758 -1207.287)" fill="#f99746"/>
          <path id="Trazado_216715" data-name="Trazado 216715" d="M1924.292,1215.534h-2.253l1.291-6.959h2.253Z" transform="translate(-1909.764 -1204.978)" fill="#f99746"/>
          <path id="Trazado_216716" data-name="Trazado 216716" d="M1942.367,1223.173h-2.252l1-5.4h2.252Z" transform="translate(-1924.77 -1212.617)" fill="#f99746"/>
        </g>
        <g id="Grupo_162534" data-name="Grupo 162534" transform="translate(52.679 8.554)">
          <g id="Grupo_162526" data-name="Grupo 162526" transform="translate(2.364 2.344)">
            <path id="Trazado_216717" data-name="Trazado 216717" d="M1891.033,1041.69H1883.7l.188-1h7.334Z" transform="translate(-1883.699 -1040.686)" fill="#bdd1f9"/>
            <path id="Trazado_216718" data-name="Trazado 216718" d="M1940.282,1041.69h-8.1l.188-1h8.1Z" transform="translate(-1923.952 -1040.686)" fill="#bdd1f9"/>
            <path id="Trazado_216719" data-name="Trazado 216719" d="M1988.625,1041.69h-5.162l.188-1h5.162Z" transform="translate(-1966.524 -1040.686)" fill="#bdd1f9"/>
            <path id="Trazado_216720" data-name="Trazado 216720" d="M2022.774,1041.69h-3.984l.189-1h3.984Z" transform="translate(-1995.853 -1040.686)" fill="#bdd1f9"/>
          </g>
          <g id="Grupo_162527" data-name="Grupo 162527" transform="translate(1.559 6.63)">
            <path id="Trazado_216721" data-name="Trazado 216721" d="M1886.292,1066.934h-7.333l.188-1h7.334Z" transform="translate(-1878.959 -1065.93)" fill="#bdd1f9"/>
            <path id="Trazado_216722" data-name="Trazado 216722" d="M1935.542,1066.934h-8.1l.188-1h8.1Z" transform="translate(-1919.212 -1065.93)" fill="#bdd1f9"/>
            <path id="Trazado_216723" data-name="Trazado 216723" d="M1983.885,1066.934h-5.162l.189-1h5.162Z" transform="translate(-1961.784 -1065.93)" fill="#bdd1f9"/>
            <path id="Trazado_216724" data-name="Trazado 216724" d="M2018.034,1066.934h-3.984l.188-1h3.984Z" transform="translate(-1991.113 -1065.93)" fill="#bdd1f9"/>
          </g>
          <g id="Grupo_162528" data-name="Grupo 162528" transform="translate(2.804)">
            <path id="Trazado_216725" data-name="Trazado 216725" d="M1897.543,1027.884h-11.251l.189-1h11.251Z" transform="translate(-1886.292 -1026.88)" fill="#bdd1f9"/>
            <path id="Trazado_216726" data-name="Trazado 216726" d="M1965.355,1027.884h-6.485l.189-1h6.485Z" transform="translate(-1946.547 -1026.88)" fill="#bdd1f9"/>
            <path id="Trazado_216727" data-name="Trazado 216727" d="M2009.658,1027.884h-7.2l.188-1h7.2Z" transform="translate(-1982.733 -1026.88)" fill="#bdd1f9"/>
          </g>
          <g id="Grupo_162529" data-name="Grupo 162529" transform="translate(1.949 4.557)">
            <path id="Trazado_216728" data-name="Trazado 216728" d="M1892.5,1054.726h-11.251l.188-1h11.251Z" transform="translate(-1881.252 -1053.722)" fill="#bdd1f9"/>
            <path id="Trazado_216729" data-name="Trazado 216729" d="M1960.315,1054.726h-6.485l.189-1h6.485Z" transform="translate(-1941.507 -1053.722)" fill="#bdd1f9"/>
            <path id="Trazado_216730" data-name="Trazado 216730" d="M2004.618,1054.726h-7.2l.188-1h7.2Z" transform="translate(-1977.693 -1053.722)" fill="#bdd1f9"/>
          </g>
          <g id="Grupo_162530" data-name="Grupo 162530" transform="translate(0.755 10.916)">
            <path id="Trazado_216731" data-name="Trazado 216731" d="M1881.552,1092.178h-7.333l.189-1h7.333Z" transform="translate(-1874.219 -1091.174)" fill="#bdd1f9"/>
            <path id="Trazado_216732" data-name="Trazado 216732" d="M1930.8,1092.178h-8.1l.188-1h8.1Z" transform="translate(-1914.471 -1091.174)" fill="#bdd1f9"/>
            <path id="Trazado_216733" data-name="Trazado 216733" d="M1979.144,1092.178h-5.162l.188-1h5.162Z" transform="translate(-1957.043 -1091.174)" fill="#bdd1f9"/>
            <path id="Trazado_216734" data-name="Trazado 216734" d="M2013.293,1092.178h-3.983l.188-1h3.983Z" transform="translate(-1986.373 -1091.174)" fill="#bdd1f9"/>
          </g>
          <g id="Grupo_162531" data-name="Grupo 162531" transform="translate(1.144 8.844)">
            <path id="Trazado_216735" data-name="Trazado 216735" d="M1887.762,1079.971h-11.251l.189-1h11.251Z" transform="translate(-1876.511 -1078.967)" fill="#bdd1f9"/>
            <path id="Trazado_216736" data-name="Trazado 216736" d="M1955.575,1079.971h-6.486l.189-1h6.486Z" transform="translate(-1936.766 -1078.967)" fill="#bdd1f9"/>
            <path id="Trazado_216737" data-name="Trazado 216737" d="M1999.877,1079.971h-7.2l.188-1h7.2Z" transform="translate(-1972.952 -1078.967)" fill="#bdd1f9"/>
          </g>
          <g id="Grupo_162532" data-name="Grupo 162532" transform="translate(0 14.935)">
            <path id="Trazado_216738" data-name="Trazado 216738" d="M1877.108,1115.845h-7.333l.188-1h7.334Z" transform="translate(-1869.774 -1114.841)" fill="#bdd1f9"/>
            <path id="Trazado_216739" data-name="Trazado 216739" d="M1926.357,1115.845h-8.1l.188-1h8.1Z" transform="translate(-1910.028 -1114.841)" fill="#bdd1f9"/>
            <path id="Trazado_216740" data-name="Trazado 216740" d="M1974.7,1115.845h-5.162l.189-1h5.162Z" transform="translate(-1952.599 -1114.841)" fill="#bdd1f9"/>
            <path id="Trazado_216741" data-name="Trazado 216741" d="M2008.849,1115.845h-3.984l.189-1h3.984Z" transform="translate(-1981.929 -1114.841)" fill="#bdd1f9"/>
          </g>
          <g id="Grupo_162533" data-name="Grupo 162533" transform="translate(0.389 12.862)">
            <path id="Trazado_216742" data-name="Trazado 216742" d="M1883.318,1103.637h-11.251l.189-1h11.251Z" transform="translate(-1872.067 -1102.633)" fill="#bdd1f9"/>
            <path id="Trazado_216743" data-name="Trazado 216743" d="M1951.13,1103.637h-6.485l.188-1h6.486Z" transform="translate(-1932.322 -1102.633)" fill="#bdd1f9"/>
            <path id="Trazado_216744" data-name="Trazado 216744" d="M1995.433,1103.637h-7.2l.189-1h7.2Z" transform="translate(-1968.507 -1102.633)" fill="#bdd1f9"/>
          </g>
        </g>
        <g id="Grupo_162535" data-name="Grupo 162535" transform="translate(39.34 35.737)">
          <path id="Trazado_216745" data-name="Trazado 216745" d="M1797.123,1194.23h-3.589l.092-.492h3.59Z" transform="translate(-1793.14 -1192.591)" fill="#bdd1f9"/>
          <path id="Trazado_216746" data-name="Trazado 216746" d="M1821.229,1194.23h-3.963l.092-.492h3.963Z" transform="translate(-1812.842 -1192.591)" fill="#bdd1f9"/>
          <path id="Trazado_216747" data-name="Trazado 216747" d="M1794.8,1206.587h-3.59l.092-.492h3.59Z" transform="translate(-1791.214 -1202.849)" fill="#bdd1f9"/>
          <path id="Trazado_216748" data-name="Trazado 216748" d="M1818.909,1206.587h-3.963l.092-.492H1819Z" transform="translate(-1810.916 -1202.849)" fill="#bdd1f9"/>
          <path id="Trazado_216749" data-name="Trazado 216749" d="M1800.31,1187.473H1794.8l.092-.492h5.507Z" transform="translate(-1794.193 -1186.981)" fill="#bdd1f9"/>
          <path id="Trazado_216750" data-name="Trazado 216750" d="M1833.5,1187.473h-3.174l.092-.492h3.175Z" transform="translate(-1823.686 -1186.981)" fill="#bdd1f9"/>
          <path id="Trazado_216751" data-name="Trazado 216751" d="M1797.843,1200.612h-5.507l.092-.492h5.507Z" transform="translate(-1792.145 -1197.89)" fill="#bdd1f9"/>
          <path id="Trazado_216752" data-name="Trazado 216752" d="M1831.035,1200.612h-3.175l.092-.492h3.174Z" transform="translate(-1821.638 -1197.89)" fill="#bdd1f9"/>
        </g>
        <g id="Grupo_162536" data-name="Grupo 162536" transform="translate(68.093 35.737)">
          <path id="Trazado_216753" data-name="Trazado 216753" d="M1966.471,1194.23h-3.589l.092-.492h3.589Z" transform="translate(-1962.488 -1192.591)" fill="#bdd1f9"/>
          <path id="Trazado_216754" data-name="Trazado 216754" d="M1990.578,1194.23h-3.964l.092-.492h3.963Z" transform="translate(-1982.191 -1192.591)" fill="#bdd1f9"/>
          <path id="Trazado_216755" data-name="Trazado 216755" d="M1964.152,1206.587h-3.589l.092-.492h3.589Z" transform="translate(-1960.562 -1202.849)" fill="#bdd1f9"/>
          <path id="Trazado_216756" data-name="Trazado 216756" d="M1988.257,1206.587h-3.964l.092-.492h3.964Z" transform="translate(-1980.265 -1202.849)" fill="#bdd1f9"/>
          <path id="Trazado_216757" data-name="Trazado 216757" d="M1969.658,1187.473h-5.507l.092-.492h5.507Z" transform="translate(-1963.542 -1186.981)" fill="#bdd1f9"/>
          <path id="Trazado_216758" data-name="Trazado 216758" d="M2002.85,1187.473h-3.174l.092-.492h3.174Z" transform="translate(-1993.035 -1186.981)" fill="#bdd1f9"/>
          <path id="Trazado_216759" data-name="Trazado 216759" d="M1967.19,1200.612h-5.507l.092-.492h5.507Z" transform="translate(-1961.493 -1197.89)" fill="#bdd1f9"/>
          <path id="Trazado_216760" data-name="Trazado 216760" d="M2000.383,1200.612h-3.175l.092-.492h3.175Z" transform="translate(-1990.987 -1197.89)" fill="#bdd1f9"/>
        </g>
      </g>
    </g>
    <g id="Grupo_162542" data-name="Grupo 162542" transform="translate(362.713 275.982)">
      <g id="Grupo_162539" data-name="Grupo 162539" transform="translate(0 140.933)">
        <path id="Trazado_216761" data-name="Trazado 216761" d="M2015.6,1663.363c-.126,1.718-2.55,1.736-5.3,1.417s-2.019.377-5.87.43-5.178-1.219-5.365-1.769c-.166-.488,1.689-.9,3.673-1.382.25-.06.5-.123.75-.186,2.237-.569,3.719-2.243,5.633-3.705,1.813-1.385,4.151-6.4,4.151-6.4l5.261-.237s-2.215,4.493-3.048,6.43a6.352,6.352,0,0,0-.068,3.614A6.722,6.722,0,0,1,2015.6,1663.363Z" transform="translate(-1999.051 -1651.533)" fill="#ffb27d"/>
        <path id="Trazado_216762" data-name="Trazado 216762" d="M2010.3,1713.892c-2.751-.319-2.019.377-5.87.43s-5.178-1.219-5.365-1.77c-.166-.488,1.689-.9,3.673-1.382l.024.036a10.79,10.79,0,0,0,5.651,1.012c2.585-.259,5.222-1.338,7-1.531a6.72,6.72,0,0,1,.183,1.787C2015.47,1714.193,2013.046,1714.211,2010.3,1713.892Z" transform="translate(-1999.051 -1700.644)" fill="#233862"/>
      </g>
      <g id="Grupo_162540" data-name="Grupo 162540" transform="translate(36.332 137.77)">
        <path id="Trazado_216763" data-name="Trazado 216763" d="M2229.58,1648.256c-.125,1.718-2.548,1.739-5.3,1.422s-2.019.379-5.87.437-5.179-1.214-5.366-1.764c-.167-.488,1.688-.9,3.671-1.386.25-.06.5-.124.75-.187,2.237-.571,3.716-2.247,5.628-3.711,1.812-1.387,0-9.6,0-9.6l5.786-.563s-.278,6.913-.273,10.056a17.683,17.683,0,0,0,.786,3.507A6.751,6.751,0,0,1,2229.58,1648.256Z" transform="translate(-2213.035 -1632.907)" fill="#ffb27d"/>
        <path id="Trazado_216764" data-name="Trazado 216764" d="M2224.281,1716c-2.75-.316-2.019.379-5.87.437s-5.179-1.214-5.366-1.764c-.167-.488,1.688-.9,3.671-1.386l.023.036a10.793,10.793,0,0,0,5.652,1.006c2.584-.262,5.221-1.344,7-1.538a6.749,6.749,0,0,1,.184,1.786C2229.456,1716.292,2227.032,1716.312,2224.281,1716Z" transform="translate(-2213.035 -1699.224)" fill="#233862"/>
      </g>
      <path id="Trazado_216765" data-name="Trazado 216765" d="M2209.4,832.7c-1-4.1.448-6,1.75-7.021a6.208,6.208,0,0,1,2.044-3,7.382,7.382,0,0,1,3.993-.764,1.87,1.87,0,0,0-.842-.4,6.191,6.191,0,0,1,2.209.576c9.507-3.663,11,10.335,10.8,13.588s-.172,7.082,4.775,9.645c9.438,4.889-3.137,23.314-3.137,23.314.24-2.628-11.887-16.5-18.213-20.651-1.54-2.267-2.087-6.273-2.129-6.588a17.315,17.315,0,0,0,1.295,5.96C2209.061,844.7,2208.634,838.324,2209.4,832.7Z" transform="translate(-2173.406 -821.477)" fill="#a9453d"/>
      <path id="Trazado_216766" data-name="Trazado 216766" d="M2233.146,932.981c-.031.014,3.055,1.617,5.376.982,2.184-.6,3.61-3.427,3.58-3.433-.925-.184-1.191-1.454-1.172-6.915l-.418.082-7.03,1.392s.16,2.212.165,4.3C2233.653,931.134,2233.547,932.794,2233.146,932.981Z" transform="translate(-2193.399 -906.272)" fill="#ffb27d"/>
      <path id="Trazado_216767" data-name="Trazado 216767" d="M2235.135,925.491s.16,2.212.165,4.3c3.934-.111,6.013-3.7,6.865-5.688Z" transform="translate(-2195.051 -906.675)" fill="#ed975d"/>
      <path id="Trazado_216768" data-name="Trazado 216768" d="M2066.279,1286.149a1.725,1.725,0,0,0,1.563,2.247l2.746.128,2.906.089a2.335,2.335,0,0,0,1.881-.859,81.7,81.7,0,0,0,13.789-26.107c.122-.386.25-.778.386-1.173,2.86-8.339,8.789-18.807,11.913-28.281.5-1.509.944-2.93,1.344-4.274.128-.431.254-.854.372-1.27a100.5,100.5,0,0,0,3.584-18.866l-22.561.181A496.956,496.956,0,0,1,2066.279,1286.149Z" transform="translate(-2054.796 -1142.194)" fill="#2a4e96"/>
      <path id="Trazado_216769" data-name="Trazado 216769" d="M2174.858,989.524c.057,10.736-1.575,15.342-1.575,15.342a30.318,30.318,0,0,0,21.141,1.3c.135-.043,8.214-2.33,8.214-2.33-.192-.435-1.788-7.618-1.976-8.016-2.424-5.205-3.084-7.391-3.372-8.991a34.073,34.073,0,0,1-.28-8.995,72.2,72.2,0,0,1,2.784-14.125,73.331,73.331,0,0,1-9.314-3.183,7.274,7.274,0,0,1-5.025,1.864c-2.287-.05-3.028-1.03-2.909-2.1-2.437,1.356-4.382,2.637-4.382,2.637-2.071,3.6-6.272,7.092-6.577,12.611C2171.514,976.891,2174.856,989.224,2174.858,989.524Z" transform="translate(-2142.293 -936.718)" fill="#fff"/>
      <path id="Trazado_216770" data-name="Trazado 216770" d="M2288.553,1048.31c.987,1.4,2.877,9.88,7.581,10.946-2.424-6.047-4.264-8.7-4.552-10.557a45.858,45.858,0,0,1-.279-10.448c-1.574-2.76-2.75-4.653-2.75-4.653-.124-.446-2.5-7.8-3.264-1.227S2287.451,1046.749,2288.553,1048.31Z" transform="translate(-2236.586 -994.307)" fill="#5f9aa8"/>
      <path id="Trazado_216771" data-name="Trazado 216771" d="M2212.24,867.129s9.307.154,9.313-5.644,1.212-9.682-4.73-10.025-7.1,1.868-7.572,3.8S2209.82,866.94,2212.24,867.129Z" transform="translate(-2173.47 -846.34)" fill="#ffb27d"/>
      <path id="Trazado_216772" data-name="Trazado 216772" d="M2229.426,845.036s2.549,6.8,6.459,7.807,5.607-.042,5.607-.042a11.075,11.075,0,0,1-3.622-6.542S2231.348,841.8,2229.426,845.036Z" transform="translate(-2190.311 -840.058)" fill="#a9453d"/>
      <path id="Trazado_216773" data-name="Trazado 216773" d="M2210.1,848.627a8.217,8.217,0,0,0-2.367,2.995c-.464,1.476-.673,4.515-1.558,4.412,0,0-1.92-4.623.238-7.238C2208.7,846.023,2210.1,848.627,2210.1,848.627Z" transform="translate(-2170.357 -843.096)" fill="#a9453d"/>
      <path id="Trazado_216774" data-name="Trazado 216774" d="M2119.653,1176.382l-4.4,13.4,2.507,1.005,7.268-11.84Z" transform="translate(-2095.527 -1116.124)" fill="#ffb27d"/>
      <path id="Trazado_216775" data-name="Trazado 216775" d="M2147.656,971.168s-5.183,2.057-6.683,5.263-3.771,24.716-4.676,26.925-1.585,3.958-1.585,3.958,2.613,2.2,5.241,2.364S2147.656,971.168,2147.656,971.168Z" transform="translate(-2111.679 -945.752)" fill="#f99746"/>
      <path id="Trazado_216776" data-name="Trazado 216776" d="M2167.218,960.286s-5.385,13.3-5.543,15.994-.633,44.024-.633,44.024.317,1.9-3.326,1.108-4.592-1.583-4.592-1.583,3.483-25.5,2.533-34.364,7.284-23.332,7.284-23.332Z" transform="translate(-2126.964 -936.718)" fill="#f99746"/>
      <path id="Trazado_216777" data-name="Trazado 216777" d="M2092.063,1368.443l3.155.1a1.823,1.823,0,0,0,1.463-.661,81.423,81.423,0,0,0,13.958-26.313q.183-.58.386-1.173c2.86-8.339,8.789-18.807,11.914-28.282.5-1.509.944-2.929,1.344-4.274.128-.431.253-.854.372-1.27l-3.323-2.521s-9.975,16.153-13.063,31.353C2105.587,1348.6,2094.844,1364.493,2092.063,1368.443Z" transform="translate(-2076.271 -1222.113)" fill="#1e3d70"/>
      <path id="Trazado_216778" data-name="Trazado 216778" d="M2251.569,1315.855c-.054,6.993.278,22.58,1.129,30.2a1.377,1.377,0,0,0,1.369,1.224h2.354c.992,0,1.735-.007,2.228-.014a.906.906,0,0,0,.874-.731c2.341-11.913,4.017-21.809,5.243-30.361,1.026-7.158,1.938-13.294,2.64-18.577.706-5.316,1.2-9.767,1.373-13.529.026-.592.047-1.168.058-1.728s.014-1.109.01-1.639l-19.494-1.9C2249.6,1291.751,2251.6,1311.558,2251.569,1315.855Z" transform="translate(-2206.854 -1201.152)" fill="#2a4e96"/>
      <path id="Trazado_216779" data-name="Trazado 216779" d="M2290.986,1373.032c.891,0,1.581-.005,2.07-.012a1.1,1.1,0,0,0,1.062-.887c2.325-11.844,3.991-21.693,5.212-30.207,1.026-7.158,1.938-13.294,2.64-18.577.707-5.316,1.2-9.767,1.373-13.529l-7.153,4.208s4.565,1.61,2.823,13.8S2293.411,1371.306,2290.986,1373.032Z" transform="translate(-2241.42 -1226.906)" fill="#1e3d70"/>
      <path id="Trazado_216780" data-name="Trazado 216780" d="M2252.991,1020.837s1.373,4.961,6.124,4.328,11.506-3.484,11.506-3.484-2.03-6.415-4.554-14.843c-3.056-10.2-6.839-23.356-8.622-31.653a51.317,51.317,0,0,1-.969-5.656l-3.942-7.647s-5.876,13.19-6.193,16.515S2252.991,1020.837,2252.991,1020.837Z" transform="translate(-2204.346 -938.043)" fill="#f99746"/>
      <path id="Trazado_216781" data-name="Trazado 216781" d="M2223.716,977.9l-5.2-16.02a80.265,80.265,0,0,1,9.868,3.617s2.061,2.657,3.337,8.788c0,0,1.347,14.72-1.661,20.1,0,0-9.5,1.9-24.7-3.325v-3.484s16.627.871,20.032,1.267Z" transform="translate(-2170.326 -938.043)" fill="#ffb27d"/>
      <path id="Trazado_216782" data-name="Trazado 216782" d="M2286.784,1050.416c.212,5.385,1.479,15.836,12.774,21.431.03.014.06.03.09.043-3.056-10.2-6.84-23.356-8.623-31.653C2288.952,1043.338,2286.668,1047.452,2286.784,1050.416Z" transform="translate(-2237.928 -1003.094)" fill="#ed7d2b"/>
      <path id="Trazado_216783" data-name="Trazado 216783" d="M2280.141,961.882s9.643.679,11.966,5.853,3.061,22.381.105,27.449c0,0-4.07,1.159-11.268-.187l-.266-.051s-2.3-5.622-.238-6.73c0,0,6.07.317,5.437-1.689S2280.141,961.882,2280.141,961.882Z" transform="translate(-2231.952 -938.043)" fill="#f99746"/>
      <g id="Grupo_162541" data-name="Grupo 162541" transform="translate(22.866 46.769)">
        <path id="Trazado_216784" data-name="Trazado 216784" d="M2140.469,1101.857l.284.913,15.823-4.922a.609.609,0,0,0,.107-.56.448.448,0,0,0-.391-.353Z" transform="translate(-2139.324 -1096.935)" fill="#a9453d"/>
        <path id="Trazado_216785" data-name="Trazado 216785" d="M2133.729,1126.789l1.144-.863.284.913Z" transform="translate(-2133.729 -1121.004)" fill="#a9453d"/>
      </g>
      <path id="Trazado_216786" data-name="Trazado 216786" d="M2095.483,1253.157s-4.014,2.218-4.542,3.908-.165,5.229.472,5.176,1.588-3.8,2.116-4.067,1.268-1.056,1.268-.475-.528,1.637-.264,1.8,1.109-1.478,1.69-1.8.825-2.929,1.39-3.63S2095.483,1253.157,2095.483,1253.157Z" transform="translate(-2075.128 -1179.864)" fill="#ffb27d"/>
      <path id="Trazado_216787" data-name="Trazado 216787" d="M2160.93,1103.927s-3.59-2.211-5.1-1.871-5.344,3.12-3.5,3.722,3.341-.029,4.051.408,1.234,1.236,4.542,1.226S2160.93,1103.927,2160.93,1103.927Z" transform="translate(-2125.903 -1054.388)" fill="#ffb27d"/>
    </g>
    <g id="Grupo_162552" data-name="Grupo 162552" transform="translate(240.319 309.898)">
      <g id="Grupo_162546" data-name="Grupo 162546" transform="translate(6.71 39.264)" opacity="0.6">
        <g id="Grupo_162543" data-name="Grupo 162543" transform="translate(17.338 39.122)">
          <path id="Trazado_216788" data-name="Trazado 216788" d="M1178.078,1524.714h-.059a.622.622,0,0,1-.622-.636l.943-40.851,2.776-.324-2.368,41.178A.671.671,0,0,1,1178.078,1524.714Z" transform="translate(-1177.397 -1482.903)" fill="#77a4e5"/>
        </g>
        <g id="Grupo_162544" data-name="Grupo 162544" transform="translate(1.159 39.122)">
          <path id="Trazado_216789" data-name="Trazado 216789" d="M1082.789,1524.714h-.059a.621.621,0,0,1-.621-.636l.942-40.851,2.776-.324-2.367,41.178A.672.672,0,0,1,1082.789,1524.714Z" transform="translate(-1082.108 -1482.903)" fill="#77a4e5"/>
        </g>
        <g id="Grupo_162545" data-name="Grupo 162545" transform="translate(43.446 39.122)">
          <path id="Trazado_216790" data-name="Trazado 216790" d="M1334.207,1524.714h.059a.621.621,0,0,0,.622-.636l-.943-40.851-2.776-.324,2.368,41.178A.672.672,0,0,0,1334.207,1524.714Z" transform="translate(-1331.169 -1482.903)" fill="#77a4e5"/>
        </g>
        <path id="Trazado_216791" data-name="Trazado 216791" d="M1075.283,1289.4V1261.4a8.919,8.919,0,0,1,8.919-8.919h20.168a8.919,8.919,0,0,1,8.919,8.919v29.063Z" transform="translate(-1075.283 -1252.486)" fill="#77a4e5"/>
        <path id="Rectángulo_48331" data-name="Rectángulo 48331" d="M0,0H41.619a0,0,0,0,1,0,0V4.419a0,0,0,0,1,0,0H4.419A4.419,4.419,0,0,1,0,0V0A0,0,0,0,1,0,0Z" transform="translate(0 36.912)" fill="#77a4e5"/>
        <path id="Rectángulo_48332" data-name="Rectángulo 48332" d="M2.21,0h29a2.21,2.21,0,0,1,2.21,2.21v0a2.21,2.21,0,0,1-2.21,2.21h-29A2.21,2.21,0,0,1,0,2.21v0A2.21,2.21,0,0,1,2.21,0Z" transform="translate(14.845 36.912)" fill="#77a4e5"/>
      </g>
      <g id="Grupo_162551" data-name="Grupo 162551" transform="translate(0 0)">
        <path id="Trazado_216792" data-name="Trazado 216792" d="M1459.888,1585.185c.281,1.407,2.287,1.172,4.528.625s1.708.1,4.9-.249,4.155-1.542,4.252-2.016c.087-.421-1.489-.569-3.179-.764-.213-.024-.426-.05-.64-.076-1.908-.24-3.306-1.471-5.039-2.482-1.642-.958-4.092-4.861-4.092-4.861l-4.374.347s2.3,3.486,3.183,5a5.286,5.286,0,0,1,.429,2.98A5.609,5.609,0,0,0,1459.888,1585.185Z" transform="translate(-1384.85 -1481.277)" fill="#ffb27d"/>
        <path id="Trazado_216793" data-name="Trazado 216793" d="M1481.914,1622.089c2.241-.547,1.708.1,4.9-.25s4.155-1.542,4.252-2.016c.087-.421-1.489-.569-3.179-.764l-.016.032a8.993,8.993,0,0,1-4.567,1.42c-2.163.052-4.455-.568-5.949-.543a5.606,5.606,0,0,0,.034,1.5C1477.668,1622.871,1479.673,1622.636,1481.914,1622.089Z" transform="translate(-1402.349 -1517.556)" fill="#233862"/>
        <path id="Trazado_216794" data-name="Trazado 216794" d="M1255.114,1626.266c-.869,1.142.634,2.491,2.526,3.809s1.052,1.349,3.427,3.507,3.905,2.1,4.325,1.855c.373-.213-.558-1.493-1.53-2.889-.123-.175-.244-.353-.366-.53-1.083-1.589-1.084-3.452-1.472-5.421-.368-1.865,2.678-8.719,2.678-8.719l-4.893-.616a54.729,54.729,0,0,1-1.188,5.807c-.323.981-1.682,1.628-2.408,2.181A5.614,5.614,0,0,0,1255.114,1626.266Z" transform="translate(-1217.662 -1516.065)" fill="#ffb27d"/>
        <path id="Trazado_216795" data-name="Trazado 216795" d="M1257.641,1669.139c1.893,1.318,1.052,1.349,3.427,3.507s3.905,2.1,4.325,1.855c.373-.213-.558-1.493-1.53-2.889l-.035.01a8.989,8.989,0,0,1-4.086-2.486c-1.471-1.588-2.522-3.716-3.529-4.821a5.606,5.606,0,0,0-1.1,1.015C1254.245,1666.472,1255.748,1667.82,1257.641,1669.139Z" transform="translate(-1217.662 -1555.128)" fill="#233862"/>
        <path id="Trazado_216796" data-name="Trazado 216796" d="M1293.845,1426.453l-4.469,12.024-5.834,15.7a9.455,9.455,0,0,1-3.1-.283,13.448,13.448,0,0,1-3-1.459s1.62-16.858,4.642-26.534a17.231,17.231,0,0,1,2.6-5.624C1289.373,1414.741,1293.845,1426.453,1293.845,1426.453Z" transform="translate(-1236.412 -1351.291)" fill="#163560"/>
        <path id="Trazado_216797" data-name="Trazado 216797" d="M1135.931,1339.708c-2.927-.944-11.749-.381-20.136,1.261l-1.284-2.247-18.117-1.415s-5.978,13.257-2.705,21.7a3.064,3.064,0,0,0,3.066,2.064h.265s10.783-.006,14.284-.006c9.01,0,19.067-6.193,20.368-6.453,2.129-.426,2.981,3.833,5.111,8.305s20.018,19.806,20.018,19.806a15.747,15.747,0,0,0,3.885-.4,3.826,3.826,0,0,0,1.668-1.053S1142.533,1341.838,1135.931,1339.708Z" transform="translate(-1083.041 -1283.642)" fill="#2a4e96"/>
        <path id="Trazado_216798" data-name="Trazado 216798" d="M1073.758,1021.476c-2.55-.607-6.012.106-6.587.173-6.88.8-8.418,11.49-7.906,14.479.943,5.509-1.7,7.061-4.86,11.467-6.331,8.835-1.958,16.11,3.2,17.912,3.092,1.081,7.305-1.864,7.305-1.864.078.029,10.939-10.341,16.312-15.377C1090.248,1044.543,1080.256,1023.023,1073.758,1021.476Z" transform="translate(-1048.633 -1021.232)" fill="#233862"/>
        <path id="Trazado_216799" data-name="Trazado 216799" d="M1145.712,1130.416c.032.011-2.8,1.862-5.11,1.472-2.172-.364-4.47-3.2-4.441-3.208.877-.268,1.654-1.293,1.105-6.578l.413.039,6.941.666s.06,2.158.257,4.176C1145.042,1128.677,1145.305,1130.274,1145.712,1130.416Z" transform="translate(-1119.114 -1104.976)" fill="#ffb27d"/>
        <path id="Trazado_216800" data-name="Trazado 216800" d="M1152.045,1123s.06,2.157.257,4.176c-3.819.274-6.181-3-7.2-4.842Z" transform="translate(-1126.54 -1105.167)" fill="#ed975d"/>
        <path id="Trazado_216801" data-name="Trazado 216801" d="M1144.787,1063.653s-9,1.051-9.565-4.561-2.112-9.257,3.607-10.165,7.055,1.12,7.7,2.947S1147.113,1063.235,1144.787,1063.653Z" transform="translate(-1117.818 -1044.039)" fill="#ffb27d"/>
        <path id="Trazado_216802" data-name="Trazado 216802" d="M1132.7,1044.881s-4.344,6.219-8.033,7.572-5.433.5-5.433.5a15.266,15.266,0,0,0,2.34-5.757,2.748,2.748,0,0,1,1.795-2.13C1126.017,1044.145,1131.117,1042.731,1132.7,1044.881Z" transform="translate(-1105.064 -1039.928)" fill="#233862"/>
        <path id="Trazado_216803" data-name="Trazado 216803" d="M1177.4,1045.209a14.145,14.145,0,0,1,3.25,2.512,10.867,10.867,0,0,1,1.713,5.525s1.463-6.384-.88-8.707C1179,1042.076,1177.4,1045.209,1177.4,1045.209Z" transform="translate(-1153.353 -1039.798)" fill="#233862"/>
        <path id="Trazado_216804" data-name="Trazado 216804" d="M1115.368,1173.65c-.271,18.172-.075,14.374-2.062,16.1a7.634,7.634,0,0,1-3.6.78c-5.572.37-15.367-.548-15.74-1.578-1.285-3.563-.378-4.67-1.45-10.125-.112-.58-.25-1.208-.413-1.892-.894-3.746-1.764-5.021,1.408-11.04,2.876-5.452,5.983-9.808,6.251-9.648,7.589,4.5,8.083.649,8.083.649S1115.5,1164.786,1115.368,1173.65Z" transform="translate(-1081.853 -1133.318)" fill="#fff"/>
        <path id="Trazado_216805" data-name="Trazado 216805" d="M1288.384,1473.244l-5.967,16.354a10.08,10.08,0,0,1-3.7.471,4.64,4.64,0,0,1-2.463-1.1s1.823-18.626,4.845-28.3Z" transform="translate(-1235.419 -1386.057)" fill="#2a4e96"/>
        <path id="Trazado_216806" data-name="Trazado 216806" d="M1188.872,1160.08s7.809,1.324,8.726,4.686,7.623,21.889,7.623,21.889-5.279,1.951-7.113.118-6.381-17.014-6.381-17.014Z" transform="translate(-1162.876 -1136.505)" fill="#fff"/>
        <path id="Trazado_216807" data-name="Trazado 216807" d="M1115.772,1271.864c-5.572.37-15.367-.548-15.74-1.578-1.285-3.563-.378-4.67-1.45-10.125l2.614-5.951s-.37,6.81,2.115,9.026,10.176,4.279,11.383,6.131A6.776,6.776,0,0,1,1115.772,1271.864Z" transform="translate(-1087.917 -1214.654)" fill="#dfebfd"/>
        <g id="Grupo_162547" data-name="Grupo 162547" transform="translate(20.527 51.613)">
          <path id="Trazado_216808" data-name="Trazado 216808" d="M1202.5,1335.344a12.4,12.4,0,0,0,2.132,1.547,1.312,1.312,0,0,0,.741.008l-1.21-1.417Z" transform="translate(-1194.715 -1333.625)" fill="#ffb27d"/>
          <path id="Trazado_216809" data-name="Trazado 216809" d="M1198.624,1325.41l4.2,1.084a.7.7,0,0,1-.584.373,9.3,9.3,0,0,1-1.752-.12Z" transform="translate(-1191.5 -1325.378)" fill="#ffb27d"/>
          <path id="Trazado_216810" data-name="Trazado 216810" d="M1156.664,1327.569s6-2.669,7.124-2.316a15.061,15.061,0,0,1,4.467,2.525c.453.644-2.365-.08-3.245-.135a7.585,7.585,0,0,0-2.55,1.124,9.045,9.045,0,0,1-4.684,1.446Z" transform="translate(-1156.664 -1325.221)" fill="#ffb27d"/>
        </g>
        <path id="Trazado_216811" data-name="Trazado 216811" d="M1053.676,1156.266s-8.487,1.593-10.059,3.945c-3.43,5.132-10.732,26.4-6.643,29.248,4.605,3.211,20.959.84,20.959.84s.544-2.544-.213-3.774-13.062-3.218-13.63-3.786,5.611-8.78,4.953-10.352C1046.935,1167.352,1053.676,1156.266,1053.676,1156.266Z" transform="translate(-1035.764 -1133.339)" fill="#fff"/>
        <g id="Grupo_162548" data-name="Grupo 162548" transform="translate(50.706 53.055)">
          <path id="Trazado_216812" data-name="Trazado 216812" d="M1335.163,1333.711s5.939,1.6,6.549,2.526a14.1,14.1,0,0,1,1.756,4.475c-.051.736-1.672-1.455-2.28-2.015a7.1,7.1,0,0,0-2.518-.69,7.5,7.5,0,0,1-3.278-1.5,1.8,1.8,0,0,0-.983-.219Z" transform="translate(-1334.409 -1333.711)" fill="#ffb27d"/>
          <path id="Trazado_216813" data-name="Trazado 216813" d="M1374.368,1358.1a11.618,11.618,0,0,0,.636,2.384,1.233,1.233,0,0,0,.534.444l-.042-1.745Z" transform="translate(-1367.583 -1353.96)" fill="#ffb27d"/>
          <path id="Trazado_216814" data-name="Trazado 216814" d="M1377.423,1348.588l2.415,3.272a.651.651,0,0,1-.645-.074,8.711,8.711,0,0,1-1.2-1.123Z" transform="translate(-1370.12 -1346.062)" fill="#ffb27d"/>
          <path id="Trazado_216815" data-name="Trazado 216815" d="M1340.2,1350.2a3.742,3.742,0,0,0,1.65,1.816c1.1.479,1.906,1.2,2.083.94s-.832-1.621-.832-1.621Z" transform="translate(-1339.213 -1347.401)" fill="#ffb27d"/>
        </g>
        <path id="Trazado_216816" data-name="Trazado 216816" d="M1248.8,1290.8l12.49,7.9a10.332,10.332,0,0,1-1.75,1.916c-2.313.848-12.715.036-16.277-5.313Z" transform="translate(-1208.034 -1245.029)" fill="#fff"/>
        <g id="Grupo_162550" data-name="Grupo 162550" transform="translate(23.045 53.762)">
          <path id="Trazado_216817" data-name="Trazado 216817" d="M1245.238,1338.86c.737,0,8.068-.508,8.068-.508a3.469,3.469,0,0,0,.241,1.995l-7.144,1.367-1.469-.431Z" transform="translate(-1232.465 -1338.271)" fill="#f9ddbf"/>
          <g id="Grupo_162549" data-name="Grupo 162549">
            <path id="Trazado_216818" data-name="Trazado 216818" d="M1172.036,1342.523l12.228-1.178s-.43,2.262,1.166,2.853l-13.481.986S1170.863,1343.654,1172.036,1342.523Z" transform="translate(-1171.491 -1340.756)" fill="#f99746"/>
            <path id="Trazado_216819" data-name="Trazado 216819" d="M1253.71,1338.119l-8.264.636s.062-.285.216-.289,8.209-.589,8.209-.589l-.028.226Z" transform="translate(-1232.89 -1337.877)" fill="#f99746"/>
            <path id="Trazado_216820" data-name="Trazado 216820" d="M1250.916,1350.466l7.277-1.383-.066-.188-7.757,1.485Z" transform="translate(-1236.978 -1347.024)" fill="#f99746"/>
          </g>
        </g>
      </g>
    </g>
    <g id="Grupo_162561" data-name="Grupo 162561" transform="translate(192.394 302.1)">
      <g id="Grupo_162556" data-name="Grupo 162556" transform="translate(0 37.561)">
        <g id="Grupo_162553" data-name="Grupo 162553" transform="translate(19.247 43.683)">
          <path id="Trazado_216821" data-name="Trazado 216821" d="M751.074,1500.5h-.066a.692.692,0,0,1-.69-.71l1.046-45.615,3.082-.362-2.628,45.979A.747.747,0,0,1,751.074,1500.5Z" transform="translate(-750.318 -1453.81)" fill="#77a4e5"/>
        </g>
        <g id="Grupo_162554" data-name="Grupo 162554" transform="translate(1.286 43.683)">
          <path id="Trazado_216822" data-name="Trazado 216822" d="M645.293,1500.5h-.066a.692.692,0,0,1-.69-.71l1.046-45.615,3.082-.362-2.628,45.979A.747.747,0,0,1,645.293,1500.5Z" transform="translate(-644.537 -1453.81)" fill="#77a4e5"/>
        </g>
        <g id="Grupo_162555" data-name="Grupo 162555" transform="translate(48.229 43.683)">
          <path id="Trazado_216823" data-name="Trazado 216823" d="M924.393,1500.5h.066a.692.692,0,0,0,.69-.71l-1.046-45.615-3.082-.362,2.628,45.979A.748.748,0,0,0,924.393,1500.5Z" transform="translate(-921.02 -1453.81)" fill="#77a4e5"/>
        </g>
        <path id="Trazado_216824" data-name="Trazado 216824" d="M636.961,1237.743v-31.257a9.93,9.93,0,0,1,9.9-9.958h22.389a9.93,9.93,0,0,1,9.9,9.958v32.452Z" transform="translate(-636.961 -1196.527)" fill="#77a4e5"/>
        <path id="Rectángulo_48333" data-name="Rectángulo 48333" d="M0,0H46.2a0,0,0,0,1,0,0V4.935a0,0,0,0,1,0,0H4.935A4.935,4.935,0,0,1,0,0V0A0,0,0,0,1,0,0Z" transform="translate(0 41.216)" fill="#77a4e5"/>
        <rect id="Rectángulo_48334" data-name="Rectángulo 48334" width="37.101" height="4.935" rx="2.467" transform="translate(16.479 41.216)" fill="#77a4e5"/>
      </g>
      <g id="Grupo_162560" data-name="Grupo 162560" transform="translate(9.792 0)">
        <path id="Trazado_216825" data-name="Trazado 216825" d="M824.713,1128.53s-1.874,1.594-2.281,5.729c-.309,3.139,1.869,27.51,3.507,29.447,4.61,5.45,10.389,3.147,12.653,3.974l2.135-1.918s-7.508-5.541-8.079-7.349C830.449,1151.453,831.812,1131.159,824.713,1128.53Z" transform="translate(-800.709 -1102.514)" fill="#f9ddbf"/>
        <path id="Trazado_216826" data-name="Trazado 216826" d="M744.949,983.969s.127-4.47-5.768-5.346-7.524.5-8.526,2-2.882,7.642-2.694,10.085,6.912,5.464,6.8,6.889S744.949,983.969,744.949,983.969Z" transform="translate(-722.292 -977.831)" fill="#163560"/>
        <path id="Trazado_216827" data-name="Trazado 216827" d="M986.954,1653.416c-.191,1.51,1.869,1.955,4.265,2.165s1.653.684,4.922,1.411,4.62-.14,4.874-.584c.226-.394-1.281-1.078-2.886-1.847-.2-.1-.4-.195-.606-.294-1.806-.888-2.776-2.6-4.151-4.206-1.3-1.52-2.422-6.277-2.422-6.277l-4.437-1.136s1.1,4.284,1.476,6.109a5.694,5.694,0,0,1-.57,3.143A6.037,6.037,0,0,0,986.954,1653.416Z" transform="translate(-936.956 -1529.342)" fill="#ffb27d"/>
        <path id="Trazado_216828" data-name="Trazado 216828" d="M993.316,1700.822c2.4.21,1.653.684,4.922,1.411s4.62-.14,4.874-.584c.226-.394-1.281-1.078-2.886-1.847l-.026.028a9.22,9.22,0,0,1-4.986-.123c-2.155-.682-4.213-2.083-5.7-2.565a6.04,6.04,0,0,0-.466,1.516C988.859,1700.167,990.919,1700.612,993.316,1700.822Z" transform="translate(-939.053 -1574.582)" fill="#233862"/>
        <path id="Trazado_216829" data-name="Trazado 216829" d="M761.682,1322.945s29.659,3.077,34.548,7.617,4.018,46.838,4.018,46.838c-.761.79-1.323.771-2.525.677a16.808,16.808,0,0,1-3.507-1.083s-6.352-20.77-6.431-25.579-1.084-12.97-3.1-13.451-26.028,2.211-28.661-5.373a16.349,16.349,0,0,1,1.739-13.824Z" transform="translate(-744.899 -1260.452)" fill="#ed7d2b"/>
        <path id="Trazado_216830" data-name="Trazado 216830" d="M706.3,1169.606a13.5,13.5,0,0,0,7.407,2.315c6.87.25,15.444-.569,17.131-2.163a2.9,2.9,0,0,0,.712-1.958c.186-2.637-1.073-6.974-1.919-10.563-.549-2.332-.923-4.347-.616-5.377.932-3.134,3.828-9.522,4.078-11.621s-2.255-13.346-5.718-14.739-16.832,0-16.832,0c-5.222,1.06-5.442,12.195-3.708,21.672.045.245.09.487.137.727C708.856,1157.522,702.734,1167.214,706.3,1169.606Z" transform="translate(-703.376 -1099.483)" fill="#f9ddbf"/>
        <g id="Grupo_162557" data-name="Grupo 162557" transform="translate(8.911 5.263)">
          <path id="Trazado_216831" data-name="Trazado 216831" d="M768.744,1094.125c-.094.61-1.766,1.6-5.339.659-3.424-.9-3.835-2.018-3.834-2.754,0-.872,1.488-2.046,1.469-7.409l.411.081,6.9,1.367s-.157,2.172-.162,4.219C768.187,1092.007,768.9,1093.109,768.744,1094.125Z" transform="translate(-757.456 -1071.324)" fill="#ffb27d"/>
          <path id="Trazado_216832" data-name="Trazado 216832" d="M777.544,1086.465s-.157,2.172-.162,4.219c-3.863-.109-5.9-3.633-6.741-5.586Z" transform="translate(-766.647 -1071.719)" fill="#ed975d"/>
          <path id="Trazado_216833" data-name="Trazado 216833" d="M773.674,1029.153s-9.139.151-9.146-5.542-1.19-9.508,4.645-9.845,6.971,1.835,7.436,3.734S776.051,1028.967,773.674,1029.153Z" transform="translate(-761.487 -1012.469)" fill="#ffb27d"/>
          <path id="Trazado_216834" data-name="Trazado 216834" d="M758.966,1007.457s-2.5,6.679-6.343,7.667-5.506-.041-5.506-.041a10.874,10.874,0,0,0,3.557-6.425S757.078,1004.279,758.966,1007.457Z" transform="translate(-747.117 -1006.3)" fill="#163560"/>
          <path id="Trazado_216835" data-name="Trazado 216835" d="M813.251,1010.984a8.071,8.071,0,0,1,2.324,2.941c.456,1.45.661,4.434,1.531,4.333,0,0,1.885-4.54-.234-7.108C814.626,1008.426,813.251,1010.984,813.251,1010.984Z" transform="translate(-802.022 -1009.284)" fill="#163560"/>
        </g>
        <path id="Trazado_216836" data-name="Trazado 216836" d="M857.916,1644.377c-.022,1.523,2.074,1.727,4.478,1.659s1.719.489,5.047.835,4.574-.672,4.777-1.142c.181-.417-1.393-.923-3.073-1.5-.211-.072-.423-.147-.635-.222-1.893-.675-3.047-2.264-4.592-3.7-1.464-1.361,1.767-7.943,1.767-7.943l-4.235-2.1s-.8,4.7-1.837,8.81c-.267,1.062-1.138,2.812-1.4,3.741A6.049,6.049,0,0,0,857.916,1644.377Z" transform="translate(-830.193 -1519.062)" fill="#ffb27d"/>
        <path id="Trazado_216837" data-name="Trazado 216837" d="M707.252,1252.865c1.28.857,3.386,3.309,7.225,3.446,6.337-1.441,13.551-3.12,17.843-4.121.186-2.637-1.073-6.974-1.919-10.563-5,1.528-12.452-3.678-14.955-5.735-2.631-2.161-2.548-9.362-2.548-9.362l-5.294,5.033c.045.244.09.487.137.727C709.621,1241.913,703.681,1250.473,707.252,1252.865Z" transform="translate(-704.141 -1183.874)" fill="#f2ccaa"/>
        <path id="Trazado_216838" data-name="Trazado 216838" d="M862.395,1707.411c2.4-.068,1.719.489,5.047.835s4.574-.672,4.777-1.142c.181-.417-1.393-.923-3.073-1.5l-.023.03a9.226,9.226,0,0,1-4.967.452c-2.217-.428-4.417-1.584-5.945-1.892a6.051,6.051,0,0,0-.294,1.56C857.894,1707.274,859.99,1707.479,862.395,1707.411Z" transform="translate(-830.193 -1580.436)" fill="#233862"/>
        <path id="Trazado_216839" data-name="Trazado 216839" d="M710.551,1344.949c7.53-.214,30.021,1.581,34.341,4.838,5.318,4.01-9.875,47.371-9.875,47.371a19.617,19.617,0,0,1-2.323.108,7.445,7.445,0,0,1-3.4-1.008s.059-25.522,1.834-30.4c1.64-4.511,2.645-6.106.59-6.376s-27.7,3-29.843-4.74a19.179,19.179,0,0,1,.8-11.646S703.6,1345.146,710.551,1344.949Z" transform="translate(-700.168 -1280.646)" fill="#f99746"/>
        <path id="Trazado_216840" data-name="Trazado 216840" d="M701.807,1128.449s-5.231.444-5.638,4.579c-.309,3.139-2.584,25.406-.946,27.343,4.61,5.45,19.984,6.6,22.248,7.432l.623-2.577s-16.412-8.269-16.162-10.148S706.823,1127.705,701.807,1128.449Z" transform="translate(-694.635 -1102.433)" fill="#f9ddbf"/>
        <path id="Trazado_216841" data-name="Trazado 216841" d="M727.726,978.341s.375-2.385-2.932-3-3.369,6.41-3.724,8.1.529,2.708,1.79,2.811S727.726,978.341,727.726,978.341Z" transform="translate(-716.516 -975.303)" fill="#163560"/>
        <g id="Grupo_162558" data-name="Grupo 162558" transform="translate(22.239 60.781)">
          <path id="Trazado_216842" data-name="Trazado 216842" d="M827.017,1339.278s4.674-1.323,5.787-1.013,4.928,2.835,4.392,3.521-3.9-.411-5.443-.2-2.742.971-3.856.806a12.9,12.9,0,0,1-2.278-.6Z" transform="translate(-825.62 -1337.38)" fill="#ffb27d"/>
          <path id="Trazado_216843" data-name="Trazado 216843" d="M833.848,1335.184a17.5,17.5,0,0,0,2.937-1.844.182.182,0,0,1,.284.033c.174.275.338.806-.465,1.333A4.314,4.314,0,0,1,833.848,1335.184Z" transform="translate(-832.451 -1333.287)" fill="#ffb27d"/>
        </g>
        <g id="Grupo_162559" data-name="Grupo 162559" transform="translate(37.883 63.248)">
          <path id="Trazado_216844" data-name="Trazado 216844" d="M919.89,1347.815s4.85.266,5.8.919,3.741,4.281,3.011,4.755-3.552-1.653-5.083-1.958-2.909.028-3.908-.489a12.931,12.931,0,0,1-1.959-1.309Z" transform="translate(-917.755 -1347.815)" fill="#ffb27d"/>
        </g>
      </g>
    </g>
    <g id="Grupo_162567" data-name="Grupo 162567" transform="translate(145.743 294.112)">
      <g id="Grupo_162562" data-name="Grupo 162562" transform="translate(16.924)">
        <path id="Trazado_216845" data-name="Trazado 216845" d="M634.457,1681.78H614.722c-.949-1.158-.6-5.432-.456-6.828.03-.281.05-.445.05-.445s6.739-5.391,7.665-1.263c.028.129.062.256.1.381,1.166,3.861,6.4,5.615,9.418,6.1A3.422,3.422,0,0,1,634.457,1681.78Z" transform="translate(-564.974 -1545.464)" fill="#1b3051"/>
        <path id="Trazado_216846" data-name="Trazado 216846" d="M356.291,1353.435c.713,0,33.806,6.213,39.279,12.989,2.734,3.385,3.141,42.478,3.141,42.478s-3.383,4.195-10.69,1.759c0,0-5.357-26.747-4.961-34.859.109-2.243-22.611-.325-26.769-1.4s-14.319-10.122-12.08-14.529S356.291,1353.435,356.291,1353.435Z" transform="translate(-340.659 -1281.246)" fill="#233862"/>
        <path id="Trazado_216847" data-name="Trazado 216847" d="M553.692,1342.619a12.2,12.2,0,0,0,4.29,2.344,19.457,19.457,0,0,1,3.152.958c1.965.9,5.693,4.928,5.346,5.329-1.111,1.283-5.588-2.059-6.445-1.823s1.4,2.178.508,2.706c-.469.276-1.351-1.4-2.177-1.639-1.117-.32-1.859-2.007-2.193-2.122a26.666,26.666,0,0,1-3.371-2.663Z" transform="translate(-514.098 -1272.266)" fill="#ffb27d"/>
        <path id="Trazado_216848" data-name="Trazado 216848" d="M685.828,1681.78H666.093c-.949-1.158-.6-5.432-.456-6.828.03-.281.05-.445.05-.445s6.739-5.391,7.665-1.263c.028.129.062.256.1.381,1.166,3.861,6.4,5.615,9.418,6.1A3.421,3.421,0,0,1,685.828,1681.78Z" transform="translate(-607.623 -1545.464)" fill="#1e3c68"/>
        <path id="Trazado_216849" data-name="Trazado 216849" d="M413.728,1353.435c.712,0,33.805,6.213,39.279,12.989,2.734,3.385,3.141,42.478,3.141,42.478s-3.383,4.195-10.69,1.759c0,0-5.357-26.747-4.962-34.859.109-2.243-22.611-.325-26.769-1.4s-14.319-10.122-12.08-14.529S413.728,1353.435,413.728,1353.435Z" transform="translate(-388.343 -1281.246)" fill="#2b478b"/>
        <path id="Trazado_216850" data-name="Trazado 216850" d="M408.652,1030.03a32.12,32.12,0,0,1-7.034-1.531c-2.7-.875-4.87-2.154-3.47-4.619,1.291-2.272,3.38-7.346,3.239-11.55l5.018,4.044,3.409,2.747a40.882,40.882,0,0,1-.386,4.457q-.1.776-.242,1.673a1.216,1.216,0,0,0,.56,1.221l.077.048A1.9,1.9,0,0,1,408.652,1030.03Z" transform="translate(-385.338 -998.056)" fill="#ffb27d"/>
        <path id="Trazado_216851" data-name="Trazado 216851" d="M439.637,1038.064a8.292,8.292,0,0,1-.125,2.759,14.254,14.254,0,0,1-5.88-2.92c1.547-.425,2.11-2.1,3.262-1.94Z" transform="translate(-415.161 -1017.668)" fill="#ed975d"/>
        <path id="Trazado_216852" data-name="Trazado 216852" d="M417.186,956.743s-11.689,1.942-12.787-5.356-3.345-11.963,4.072-13.511,9.289,1.018,10.248,3.365S420.2,956.05,417.186,956.743Z" transform="translate(-389.9 -935.852)" fill="#ffb27d"/>
        <path id="Trazado_216853" data-name="Trazado 216853" d="M407.775,930.419c.5,1.757-.841,3.9-3.1,4.6-3.347,1.046-2.608,5.152-4.114,5.1s-2.114-2.36-3.459-.519c-1.148,1.57.955,3.432.811,4.293-.248,1.479-2.564,4.5-4.651,4.352s-5.992-10.07-5.211-13.139,3.905-6.3,6.862-6.751,7.063.83,8.012.83S407.5,929.469,407.775,930.419Z" transform="translate(-377.237 -928.26)" fill="#2b478b"/>
        <path id="Trazado_216854" data-name="Trazado 216854" d="M358.282,1114.661c-.2,1.685-.55,2.83-1.107,3.2-1.743,1.167-4.054,2.618-6.632,4.055-9.144,5.1-21.662,10.02-24.208,1.4-2.991-10.121-1.026-29.125,1.907-40.929,1.688-6.8,6.359-13.935,9.516-13.928,5.38.009,13.114,1.43,16.237,9.133,1.209,2.984,2.986,13.325,3.892,22.8A78.435,78.435,0,0,1,358.282,1114.661Z" transform="translate(-324.844 -1044.66)" fill="#fff"/>
        <path id="Trazado_216855" data-name="Trazado 216855" d="M397.71,1055.428l1.218-2.744s10.8,1.1,12.633,7.305C411.561,1059.989,403.212,1055.561,397.71,1055.428Z" transform="translate(-385.338 -1031.558)" fill="#dfebfd"/>
        <path id="Trazado_216856" data-name="Trazado 216856" d="M433.013,1260.861c-.2,1.685-.55,2.83-1.107,3.2-1.743,1.167-4.053,2.618-6.632,4.055-2.691-1.636-8.215-5.539-9.507-10.139-1.688-6.015-.5-13.416-.5-13.416Z" transform="translate(-399.575 -1190.86)" fill="#dfebfd"/>
        <path id="Trazado_216857" data-name="Trazado 216857" d="M410.614,1114.058s.937,25.851,2.407,30.962c2.507,8.716,25.369,11.819,25.369,11.819a4.681,4.681,0,0,0,.746-4.062s-13.668-10.773-14.068-12.824,2.978-15.95-.882-21S413.208,1109.516,410.614,1114.058Z" transform="translate(-396.051 -1080.933)" fill="#fff"/>
      </g>
      <g id="Grupo_162566" data-name="Grupo 162566" transform="translate(0 42.966)">
        <g id="Grupo_162563" data-name="Grupo 162563" transform="translate(1.71 50.99)">
          <path id="Trazado_216858" data-name="Trazado 216858" d="M236.353,1523.754h-.075a1.022,1.022,0,0,1-1.033-1.093l4.107-41.019,3.584.32-5.9,41.24A.667.667,0,0,1,236.353,1523.754Z" transform="translate(-235.24 -1481.64)" fill="#77a4e5"/>
        </g>
        <g id="Grupo_162564" data-name="Grupo 162564" transform="translate(22.851 50.99)">
          <path id="Trazado_216859" data-name="Trazado 216859" d="M360.866,1523.754h-.075a1.022,1.022,0,0,1-1.033-1.093l4.107-41.019,3.584.32-5.9,41.24A.667.667,0,0,1,360.866,1523.754Z" transform="translate(-359.753 -1481.64)" fill="#77a4e5"/>
        </g>
        <g id="Grupo_162565" data-name="Grupo 162565" transform="translate(57.07 50.99)">
          <path id="Trazado_216860" data-name="Trazado 216860" d="M567.876,1523.754h.075a1.022,1.022,0,0,0,1.033-1.093l-4.107-41.019-3.584.32,5.9,41.24A.667.667,0,0,0,567.876,1523.754Z" transform="translate(-561.293 -1481.64)" fill="#77a4e5"/>
        </g>
        <path id="Trazado_216861" data-name="Trazado 216861" d="M229.152,1226.5l-3.9-34.26c-.511-4.937,1.141-9.771,8.266-10.145l12.534-.764c7.429-.307,10.783,5.876,11.723,10.636l7.441,37.66Z" transform="translate(-225.168 -1181.319)" fill="#77a4e5"/>
        <path id="Rectángulo_48335" data-name="Rectángulo 48335" d="M3.283,0H56.41a3.283,3.283,0,0,1,3.283,3.283V6.566a0,0,0,0,1,0,0H3.283A3.283,3.283,0,0,1,0,3.283v0A3.283,3.283,0,0,1,3.283,0Z" transform="translate(63.74 51.59) rotate(180)" fill="#77a4e5"/>
        <path id="Rectángulo_48336" data-name="Rectángulo 48336" d="M3.283,0H32.719A3.283,3.283,0,0,1,36,3.283V6.566a0,0,0,0,1,0,0H3.283A3.283,3.283,0,0,1,0,3.283v0A3.283,3.283,0,0,1,3.283,0Z" transform="translate(40.049 51.59) rotate(180)" fill="#77a4e5"/>
      </g>
    </g>
    <path id="Rectángulo_48337" data-name="Rectángulo 48337" d="M1.017,0H380.672a1.017,1.017,0,0,1,1.017,1.017v0a1.017,1.017,0,0,1-1.017,1.017H1.017A1.017,1.017,0,0,1,0,1.017v0A1.017,1.017,0,0,1,1.017,0Z" transform="translate(132.261 429.91)" fill="#2e3552"/>
    <g id="Grupo_162574" data-name="Grupo 162574" transform="translate(195.928 256.388)">
      <rect id="Rectángulo_48338" data-name="Rectángulo 48338" width="22.472" height="21.801" rx="9.467" transform="translate(0 0)" fill="#77a4e5"/>
      <path id="Rectángulo_48339" data-name="Rectángulo 48339" d="M8.647,0h3.232a8.646,8.646,0,0,1,8.646,8.646v2.619a8.647,8.647,0,0,1-8.647,8.647H8.647A8.647,8.647,0,0,1,0,11.266V8.647A8.647,8.647,0,0,1,8.647,0Z" transform="translate(0.974 0.944)" fill="#dfebfd"/>
      <g id="Grupo_162570" data-name="Grupo 162570" transform="translate(2.653 2.469)">
        <g id="Grupo_162568" data-name="Grupo 162568" transform="translate(8.117)">
          <circle id="Elipse_6531" data-name="Elipse 6531" cx="0.466" cy="0.466" r="0.466" fill="#77a4e5"/>
          <path id="Trazado_216862" data-name="Trazado 216862" d="M730.2,726.059a.466.466,0,1,1,.181.633A.466.466,0,0,1,730.2,726.059Z" transform="translate(-726.44 -724.935)" fill="#77a4e5"/>
          <path id="Trazado_216863" data-name="Trazado 216863" d="M748.394,741.924a.465.465,0,1,1-.139.643A.465.465,0,0,1,748.394,741.924Z" transform="translate(-741.42 -738.244)" fill="#77a4e5"/>
          <path id="Trazado_216864" data-name="Trazado 216864" d="M756.548,765.594a.465.465,0,1,1-.466.465A.465.465,0,0,1,756.548,765.594Z" transform="translate(-747.98 -757.957)" fill="#77a4e5"/>
          <circle id="Elipse_6532" data-name="Elipse 6532" cx="0.466" cy="0.466" r="0.466" transform="translate(6.96 12.093)" fill="#77a4e5"/>
          <path id="Trazado_216865" data-name="Trazado 216865" d="M732.929,809.236a.466.466,0,1,1-.658,0A.466.466,0,0,1,732.929,809.236Z" transform="translate(-728.098 -794.076)" fill="#77a4e5"/>
          <circle id="Elipse_6533" data-name="Elipse 6533" cx="0.466" cy="0.466" r="0.466" transform="translate(0 16.205)" fill="#77a4e5"/>
        </g>
        <g id="Grupo_162569" data-name="Grupo 162569" transform="translate(0 0.884)">
          <path id="Trazado_216866" data-name="Trazado 216866" d="M687.368,726.059a.465.465,0,1,0-.181.633A.466.466,0,0,0,687.368,726.059Z" transform="translate(-682.09 -725.819)" fill="#77a4e5"/>
          <path id="Trazado_216867" data-name="Trazado 216867" d="M669.17,741.924a.466.466,0,1,0,.139.643A.465.465,0,0,0,669.17,741.924Z" transform="translate(-667.111 -739.128)" fill="#77a4e5"/>
          <path id="Trazado_216868" data-name="Trazado 216868" d="M661.016,765.594a.465.465,0,1,0,.466.465A.465.465,0,0,0,661.016,765.594Z" transform="translate(-660.551 -758.841)" fill="#77a4e5"/>
          <circle id="Elipse_6534" data-name="Elipse 6534" cx="0.466" cy="0.466" r="0.466" transform="translate(1.143 11.209)" fill="#77a4e5"/>
          <path id="Trazado_216869" data-name="Trazado 216869" d="M684.635,809.236a.466.466,0,1,0,.658,0A.466.466,0,0,0,684.635,809.236Z" transform="translate(-680.433 -794.96)" fill="#77a4e5"/>
        </g>
      </g>
      <g id="Grupo_162573" data-name="Grupo 162573" transform="translate(11.111 4.756)">
        <path id="Trazado_216870" data-name="Trazado 216870" d="M710.363,766.059a.466.466,0,1,1,.466.466A.466.466,0,0,1,710.363,766.059Z" transform="translate(-710.363 -760.244)" fill="#77a4e5"/>
        <g id="Grupo_162571" data-name="Grupo 162571" transform="translate(0.402)">
          <rect id="Rectángulo_48340" data-name="Rectángulo 48340" width="0.127" height="5.815" fill="#77a4e5"/>
        </g>
        <g id="Grupo_162572" data-name="Grupo 162572" transform="translate(0.289 3.237)">
          <rect id="Rectángulo_48341" data-name="Rectángulo 48341" width="3.919" height="0.381" transform="matrix(0.787, -0.617, 0.617, 0.787, 0, 2.42)" fill="#77a4e5"/>
        </g>
      </g>
    </g>
  </g>
</svg>
