<svg xmlns="http://www.w3.org/2000/svg" width="151" height="152" viewBox="0 0 151 152">
  <g id="Grupo_164894" data-name="Grupo 164894" transform="translate(-510.676 -15230)">
    <ellipse id="Elipse_5156" data-name="Elipse 5156" cx="75.5" cy="76" rx="75.5" ry="76" transform="translate(510.676 15230)" fill="#fff"/>
    <g id="Grupo_158448" data-name="Grupo 158448" transform="translate(963.718 15407.715)">
      <path id="Trazado_208365" data-name="Trazado 208365" d="M-299.4,174.049c-.636-2.213-2.407-3.391-5.074-3.391q-26.191,0-52.382,0c-.307,0-.615.011-.921.032a4.6,4.6,0,0,0-4.267,4c-.224,1.683.007,3.382-.116,5.065-.22,3.025.563,5.449,3.655,6.623h55.338c.03-.048.052-.131.091-.14a4.576,4.576,0,0,0,3.891-4.746c.056-2,.025-4,0-6A5.555,5.555,0,0,0-299.4,174.049Zm-2.931,7.17c-.014,1.459-.569,2.017-2.008,2.017q-26.326.006-52.653,0c-1.413,0-1.987-.587-2-2.035q-.023-2.674,0-5.349c.012-1.507.556-2.045,2.064-2.046q13.186-.005,26.372,0h25.912c1.9,0,2.315.422,2.317,2.341C-302.325,177.837-302.314,179.528-302.33,181.219Z" transform="translate(-47.355 -240.644)"/>
      <path id="Trazado_208366" data-name="Trazado 208366" d="M-330.988-114.924A10.986,10.986,0,0,0-343.01-125c-.768.088-1.529.243-2.373.38a19.909,19.909,0,0,0-.138-5.666A22.054,22.054,0,0,0-365.7-148.671a21.981,21.981,0,0,0-21.663,13.094c-.262.59-.415.682-1.011.356a13.49,13.49,0,0,0-19.175,7.231,18.273,18.273,0,0,0-.879,4.372,11.868,11.868,0,0,0-7.258-1.338,11.015,11.015,0,0,0-9.35,11.437,10.994,10.994,0,0,0,10.087,10.4c1.619.108,2.372-.319,2.45-1.391s-.631-1.639-2.2-1.776a7.848,7.848,0,0,1-6.949-6.373,7.918,7.918,0,0,1,4-8.307,7.8,7.8,0,0,1,9.32,1.381c.445.463.811,1,1.248,1.474a1.421,1.421,0,0,0,1.92.269,1.456,1.456,0,0,0,.695-1.742c-.054-.207-.128-.409-.2-.613a10.122,10.122,0,0,1,3.638-11.545,10.257,10.257,0,0,1,12.2-.011c2.083,1.6,3.072,1.108,3.838-1.194a18.839,18.839,0,0,1,20.646-12.393c10.709,1.692,18.008,12.219,15.413,22.618-.2.81-.3,1.606.461,2.186a1.811,1.811,0,0,0,2.222-.155,7.641,7.641,0,0,1,5.369-1.129,7.468,7.468,0,0,1,6.33,5.314,7.5,7.5,0,0,1-2.16,8.228,8.223,8.223,0,0,1-5.272,2.1,1.5,1.5,0,0,0-1.538,1.692c.077.894.764,1.424,1.826,1.41A11.017,11.017,0,0,0-330.988-114.924Z" transform="translate(0 0)"/>
      <path id="Trazado_208367" data-name="Trazado 208367" d="M-299.368,20.769c-.64-2.186-2.412-3.394-4.985-3.394q-26.27,0-52.54,0c-.246,0-.492,0-.737.015a4.58,4.58,0,0,0-4.375,4.1,56,56,0,0,0-.056,7.18,4.1,4.1,0,0,0,.165,1c.615,2.176,2.409,3.423,4.957,3.425q13.135.009,26.27,0,8.25,0,16.5,0c3.5,0,7.006.033,10.507-.031a4.489,4.489,0,0,0,4.428-4.119,60.841,60.841,0,0,0,.048-7.09A4.3,4.3,0,0,0-299.368,20.769Zm-2.927,7.076c-.009,1.59-.518,2.1-2.1,2.1q-13.14,0-26.28,0h-26c-1.812,0-2.283-.473-2.286-2.29,0-1.691-.01-3.382,0-5.072.011-1.5.576-2.066,2.057-2.066q26.28,0,52.56,0c1.491,0,2.034.55,2.045,2.071Q-302.278,25.217-302.3,27.845Z" transform="translate(-47.389 -125.146)"/>
      <path id="Trazado_208368" data-name="Trazado 208368" d="M-299.324,97.324c-.633-2.2-2.443-3.422-5.067-3.424q-13.09-.007-26.181,0h-8.481q-8.9,0-17.792,0c-3.119.006-5.1,1.83-5.21,4.855-.071,2.026-.028,4.057,0,6.085a5.415,5.415,0,0,0,.24,1.446c.662,2.231,2.437,3.38,5.185,3.381q26.042,0,52.085,0c.184,0,.369.006.553,0a4.741,4.741,0,0,0,4.885-4.9c.061-2,.025-4,0-5.993A5.546,5.546,0,0,0-299.324,97.324Zm-2.927,6.889c0,1.832-.467,2.3-2.286,2.3q-13.049,0-26.1,0h-25.821c-2.053,0-2.463-.417-2.464-2.5,0-1.629-.011-3.259,0-4.889.013-1.49.58-2.072,2.061-2.072q26.282-.008,52.564,0c1.483,0,2.027.573,2.038,2.087C-302.24,100.831-302.247,102.522-302.25,104.213Z" transform="translate(-47.431 -182.805)"/>
      <path id="Trazado_208369" data-name="Trazado 208369" d="M-204.156-53.787c-.541-.584-1.058-1.193-1.628-1.747a1.589,1.589,0,0,0-2.365-.147,1.581,1.581,0,0,0,.159,2.371q2.157,2.209,4.367,4.365a1.6,1.6,0,0,0,2.573-.021q2.173-2.128,4.3-4.3a1.623,1.623,0,0,0,.19-2.436c-.676-.664-1.589-.579-2.437.243-.553.536-1.093,1.086-1.762,1.752,0-2.5,0-4.773,0-7.046,0-1.075.036-2.153-.016-3.226a1.611,1.611,0,0,0-1.639-1.635,1.586,1.586,0,0,0-1.487,1.676c-.017.337-.005.676-.005,1.014v9Z" transform="translate(-163.078 -62.616)"/>
      <path id="Trazado_208370" data-name="Trazado 208370" d="M-301.052-58.484a1.613,1.613,0,0,0,2.434.17,1.589,1.589,0,0,0-.2-2.367q-2.128-2.173-4.3-4.3a1.623,1.623,0,0,0-2.64-.006q-2.171,2.13-4.3,4.3a1.61,1.61,0,0,0-.208,2.369,1.6,1.6,0,0,0,2.43-.154c.562-.544,1.088-1.124,1.806-1.872v1.163q0,4.24,0,8.481a7.2,7.2,0,0,0,.01.737,1.663,1.663,0,0,0,1.581,1.614,1.575,1.575,0,0,0,1.546-1.711c.018-3.318.006-6.636.006-9.954l.207-.163C-302.139-59.614-301.614-59.029-301.052-58.484Z" transform="translate(-86.16 -62.578)"/>
      <path id="Trazado_208371" data-name="Trazado 208371" d="M-305.84,196.212a5.279,5.279,0,0,0-.919-.035q-7.141,0-14.282,0h-13.453c-.522,0-1.046-.019-1.566.018a1.458,1.458,0,0,0-1.468,1.373,1.473,1.473,0,0,0,1.228,1.679,4.628,4.628,0,0,0,1.005.071q14.236.005,28.472,0a3.21,3.21,0,0,0,1.272-.141,1.465,1.465,0,0,0,.99-1.593A1.467,1.467,0,0,0-305.84,196.212Z" transform="translate(-65.93 -259.869)"/>
      <path id="Trazado_208372" data-name="Trazado 208372" d="M-152.662,190.227a3.018,3.018,0,0,0-3.017,3.048,3.085,3.085,0,0,0,3.059,3.037,3.088,3.088,0,0,0,3.024-3.074A3.041,3.041,0,0,0-152.662,190.227Z" transform="translate(-202.962 -255.39)"/>
      <path id="Trazado_208373" data-name="Trazado 208373" d="M-188.26,196.165q-1.933-.035-3.867,0a1.557,1.557,0,0,0-1.722,1.519,1.588,1.588,0,0,0,1.653,1.611c.643.036,1.289.007,1.933.006.675,0,1.352.027,2.026-.007a1.589,1.589,0,0,0,1.679-1.584A1.557,1.557,0,0,0-188.26,196.165Z" transform="translate(-174.2 -259.851)"/>
      <path id="Trazado_208374" data-name="Trazado 208374" d="M-306.935,42.993a2.721,2.721,0,0,0-.9-.12q-14.512-.009-29.025,0a3.265,3.265,0,0,0-.82.079,1.5,1.5,0,0,0-1.193,1.549,1.552,1.552,0,0,0,1.379,1.487,7.148,7.148,0,0,0,.92.025h14.19q7.141,0,14.282,0a4.89,4.89,0,0,0,.919-.033,1.463,1.463,0,0,0,1.294-1.351A1.44,1.44,0,0,0-306.935,42.993Z" transform="translate(-64.925 -144.357)"/>
      <path id="Trazado_208375" data-name="Trazado 208375" d="M-154.672,37.378a3.053,3.053,0,0,0-3.049,3.05,3.189,3.189,0,0,0,3.1,3.036,3.082,3.082,0,0,0,3.032-3.078A3.049,3.049,0,0,0-154.672,37.378Z" transform="translate(-201.424 -140.219)"/>
      <path id="Trazado_208376" data-name="Trazado 208376" d="M-192.142,42.842c-1.44-.057-2.887-.057-4.326.007a1.511,1.511,0,0,0-1.46,1.589,1.535,1.535,0,0,0,1.549,1.507c.673.036,1.35.007,2.026.007v0c.706,0,1.413.023,2.118-.006a1.545,1.545,0,0,0,1.592-1.46A1.521,1.521,0,0,0-192.142,42.842Z" transform="translate(-171.127 -144.305)"/>
      <path id="Trazado_208377" data-name="Trazado 208377" d="M-306.844,119.472q-7.05,0-14.1,0-7.1,0-14.191,0a6.4,6.4,0,0,0-1.1.078,1.406,1.406,0,0,0-1.272,1.541,1.414,1.414,0,0,0,1.346,1.482,6.732,6.732,0,0,0,.917.054q14.191,0,28.382,0c1.583,0,2.349-.513,2.354-1.568S-305.276,119.472-306.844,119.472Z" transform="translate(-65.959 -202.076)" fill="#010101"/>
      <path id="Trazado_208378" data-name="Trazado 208378" d="M-152.678,113.561a3.037,3.037,0,0,0-2.991,3.082,3.04,3.04,0,0,0,3.08,2.992,3.042,3.042,0,0,0,3-3.077A3.065,3.065,0,0,0-152.678,113.561Z" transform="translate(-202.97 -197.622)"/>
      <path id="Trazado_208379" data-name="Trazado 208379" d="M-187.884,119.44a23.958,23.958,0,0,0-4.59,0A1.437,1.437,0,0,0-193.829,121a1.416,1.416,0,0,0,1.373,1.459c.731.057,1.47.012,2.205.012v0c.766,0,1.537.054,2.3-.014a1.436,1.436,0,0,0,1.392-1.527A1.409,1.409,0,0,0-187.884,119.44Z" transform="translate(-174.213 -201.969)" fill="#010101"/>
    </g>
  </g>
</svg>
