<svg xmlns="http://www.w3.org/2000/svg" width="62.054" height="49.435" viewBox="0 0 62.054 49.435">
  <g id="Grupo_161493" data-name="Grupo 161493" transform="translate(510.341 -1023.313)" opacity="0.6">
    <path id="Trazado_213791" data-name="Trazado 213791" d="M-455.322,1038.358a2.314,2.314,0,0,1-1.725-2.285,14.44,14.44,0,0,0-10.5-12.213,14.556,14.556,0,0,0-15.373,4.994c-.144.181-.293.357-.43.523a10.185,10.185,0,0,0-10.042-.259,10.3,10.3,0,0,0-5.608,8.254c-.732.089-1.428.126-2.1.263A11.456,11.456,0,0,0-510.286,1050a11.461,11.461,0,0,0,11.427,10.318c1.847.009,3.694,0,5.541,0h.736c0,.526-.017.96,0,1.391a.827.827,0,0,0,.812.855,2.791,2.791,0,0,0,.78.011,1.578,1.578,0,0,1,2.092,1.356c.082.351.085.546-.174.783-.4.367-.781.757-1.153,1.154a.911.911,0,0,0,0,1.432q1.527,1.564,3.088,3.094a.9.9,0,0,0,1.385,0,2.39,2.39,0,0,0,.413-.416,1.553,1.553,0,0,1,2.468-.529c.017.012.051.005.061.019.121.172.329.339.343.521.045.606.008,1.218.026,1.828a.84.84,0,0,0,.89.917q2.281.025,4.563,0a.835.835,0,0,0,.877-.862c.02-.238.014-.479.014-.718,0-1.518,0-1.53,1.4-2.089a.769.769,0,0,1,.649.118c.432.361.8.795,1.213,1.184a.906.906,0,0,0,1.43.022q1.563-1.528,3.088-3.095a.922.922,0,0,0-.018-1.436,2.674,2.674,0,0,0-.416-.413,1.568,1.568,0,0,1-.526-2.434c.192-.3.322-.451.675-.435.542.025,1.087.019,1.629,0a.9.9,0,0,0,1-1.009c.012-.388,0-.776,0-1.251,2.027,0,3.959.008,5.89-.005a15.565,15.565,0,0,0,1.818-.106,11.41,11.41,0,0,0,9.863-9.772A11.285,11.285,0,0,0-455.322,1038.358Zm-12.5,22.394c-.54,0-1.072,0-1.6,0-.891.007-1.077.182-1.362,1a21.136,21.136,0,0,1-.907,2.155,1.048,1.048,0,0,0,.189,1.359c.437.417.869.838,1.283,1.236l-1.973,1.953c-.384-.4-.8-.829-1.222-1.265a1.053,1.053,0,0,0-1.357-.2,24.414,24.414,0,0,1-2.336.97,1.058,1.058,0,0,0-.815,1.1c0,.585,0,1.171,0,1.8h-2.7c0-.57-.013-1.128,0-1.686a1.136,1.136,0,0,0-.9-1.246,17.059,17.059,0,0,1-2.214-.923,1.089,1.089,0,0,0-1.458.234c-.379.417-.777.817-1.139,1.2l-2.025-2.088c.34-.279.794-.639,1.235-1.016a1.1,1.1,0,0,0,.226-1.515,14.925,14.925,0,0,1-.894-2.159,1.138,1.138,0,0,0-1.232-.919c-.558.014-1.117,0-1.705,0v-2.715c.619,0,1.2-.008,1.782,0a1.076,1.076,0,0,0,1.139-.856,21.428,21.428,0,0,1,.944-2.28,1.075,1.075,0,0,0-.223-1.409c-.428-.4-.846-.8-1.262-1.2l2.015-1.94c.362.378.78.812,1.2,1.249a1.053,1.053,0,0,0,1.357.2,24.858,24.858,0,0,1,2.335-.971,1.061,1.061,0,0,0,.818-1.1v-1.8h2.7c0,.568.014,1.126,0,1.683a1.13,1.13,0,0,0,.9,1.245,16.7,16.7,0,0,1,2.213.924,1.091,1.091,0,0,0,1.458-.236c.379-.416.776-.817,1.2-1.261l2.05,2.082c-.444.369-.915.745-1.369,1.14a1.053,1.053,0,0,0-.208,1.408,20.279,20.279,0,0,1,.944,2.28,1.09,1.09,0,0,0,1.145.853c.58,0,1.16,0,1.773,0Zm8.731-2.3c-2.252.115-4.514.019-6.873.019,0-.475.006-.885,0-1.294a.873.873,0,0,0-.927-.955c-.586-.024-1.173-.029-1.759-.008a.544.544,0,0,1-.609-.431c-.527-1.375-.54-1.37.509-2.421.154-.154.313-.3.459-.464a.892.892,0,0,0,.019-1.34q-1.566-1.616-3.18-3.186a.891.891,0,0,0-1.341.027c-.427.4-.812.852-1.26,1.228a.768.768,0,0,1-.653.106c-1.4-.562-1.392-.574-1.394-2.1,0-.239.006-.48-.014-.718a.833.833,0,0,0-.882-.856q-2.281-.023-4.562,0a.84.84,0,0,0-.886.92c-.018.587-.025,1.176,0,1.763.012.337-.152.445-.422.618a1.559,1.559,0,0,1-2.432-.507,2.694,2.694,0,0,0-.506-.507.876.876,0,0,0-1.289.013q-1.61,1.573-3.18,3.187a.883.883,0,0,0,.007,1.338c.385.413.782.818,1.2,1.2.258.238.253.434.173.784a1.582,1.582,0,0,1-2.1,1.345,2.772,2.772,0,0,0-.779.019.83.83,0,0,0-.808.861c-.019.432,0,.865,0,1.346-.231.017-.418.043-.6.043-1.89,0-3.78.012-5.67,0a9.618,9.618,0,0,1-9.591-9.2,9.639,9.639,0,0,1,8.492-9.977,10.619,10.619,0,0,1,1.432-.037c1.074.015,1.335-.224,1.37-1.326a8.176,8.176,0,0,1,1.036-3.734,8.509,8.509,0,0,1,12.091-3.08c1.056.674,1.3.626,2-.391a12.762,12.762,0,0,1,13.41-5.273,12.8,12.8,0,0,1,9.792,10.731,15.565,15.565,0,0,1,.12,1.888c.013,1.023.119,1.15,1.129,1.416a9.325,9.325,0,0,1,7.283,7.658A9.551,9.551,0,0,1-459.088,1058.453Z" transform="translate(0)" fill="#e2c140"/>
    <path id="Trazado_213792" data-name="Trazado 213792" d="M-360.571,1195.786a6.018,6.018,0,0,0-6.048,6.037,6.013,6.013,0,0,0,5.959,6.058,6.007,6.007,0,0,0,6.114-5.966A6.021,6.021,0,0,0-360.571,1195.786Zm.1,10.267a4.076,4.076,0,0,1-4.159-3.269h8.075A4.023,4.023,0,0,1-360.467,1206.053Zm-4.145-5.163a4.031,4.031,0,0,1,3.919-3.271,4.073,4.073,0,0,1,4.156,3.271Z" transform="translate(-118.692 -142.435)" fill="#e2c140"/>
  </g>
</svg>
