<svg xmlns="http://www.w3.org/2000/svg" width="151" height="152" viewBox="0 0 151 152">
  <g id="Grupo_164921" data-name="Grupo 164921" transform="translate(-510.676 -15746)">
    <ellipse id="Elipse_6397" data-name="Elipse 6397" cx="75.5" cy="76" rx="75.5" ry="76" transform="translate(510.676 15746)" fill="#fff"/>
    <g id="Grupo_158449" data-name="Grupo 158449" transform="translate(1006.603 15861.927)">
      <path id="Trazado_208396" data-name="Trazado 208396" d="M-373.572-51.94a9.72,9.72,0,0,0-2.821-6.606,11.869,11.869,0,0,0-6.7-3.951c-.622-.131-.907-.416-.852-1.062a8.176,8.176,0,0,0-.157-1.922c-1.541-10.077-7.114-16.868-16.648-20.426a19.518,19.518,0,0,0-5.566-1.02h-4.8c-.081.241-.294.164-.462.189a24.245,24.245,0,0,0-16.939,10.325c-.347.491-.616.491-1.094.279a18.244,18.244,0,0,0-10.349-1.477c-8.517,1.334-14.075,6.187-16.583,14.463a.894.894,0,0,1-.859.737,12.04,12.04,0,0,0-9.052,6.238,18.056,18.056,0,0,0-1.479,4.3v3.321c.137.045.157.157.185.281,1.423,6.371,6.036,10.078,12.548,10.083q6.318,0,12.636,0c2.068,0,2.027,0,2.086-2.026.023-.8-.168-1.024-1-1.015-4.7.046-9.408.071-14.111.006a8.909,8.909,0,0,1-8.566-5.6,8.965,8.965,0,0,1,1.869-9.9,8.923,8.923,0,0,1,7.252-2.737c.639.041.942-.077.985-.8a10.647,10.647,0,0,1,.421-2.07A16.7,16.7,0,0,1-428.889-72.37c1.077.631,1.071.6,1.7-.442,4.775-7.952,11.82-11.775,21.041-10.9A21.193,21.193,0,0,1-387.184-63.3c.027.648-.124.863-.786,1A12.166,12.166,0,0,0-397.8-51.615c-.145,1.238-.145,1.238,1.125,1.238a4.225,4.225,0,0,1,.736.006c.9.163,1.159-.2,1.244-1.1A9.1,9.1,0,0,1-384.259-59.4a9.168,9.168,0,0,1,7.551,10.824,9.157,9.157,0,0,1-9.116,7.359c-4.273.031-8.547.007-12.82.007-2.356,0-2.335,0-2.285,2.376.012.554.2.654.7.652,4.95-.018,9.9.03,14.849-.031a12.125,12.125,0,0,0,11.5-8.981,3.535,3.535,0,0,1,.408-1.362v-3.136A.363.363,0,0,1-373.572-51.94Z"/>
      <path id="Trazado_208397" data-name="Trazado 208397" d="M-309.263,143.208c-2.151-.013-4.3-.03-6.454.013-.668.014-.8-.207-.8-.831.029-3.565.017-7.131.011-10.7,0-.7.231-1.648-.127-2.035-.428-.463-1.392-.068-2.115-.159-.674-.085-.79.192-.786.813.029,4.026,0,8.053.029,12.079,0,.626-.133.843-.8.83-2.212-.042-4.426-.04-6.639-.009a4.518,4.518,0,0,0-4.75,4.568q-.054,6.132,0,12.264a4.5,4.5,0,0,0,4.52,4.509c.86.021,1.721,0,2.582.006.242,0,.506-.053.493.342a6.623,6.623,0,0,1-.134,2.529c-.235.474-1.3.1-1.984.158a1.846,1.846,0,0,1-.369,0c-.444-.051-.58.148-.584.582a13.134,13.134,0,0,1-.067,2.476h18.447a7.876,7.876,0,0,1-.059-2.2c.035-.69-.169-.9-.87-.879s-1.7.359-2.087-.151c-.358-.477-.076-1.416-.13-2.147-.04-.538.077-.781.686-.726.671.061,1.351.016,2.027.013a4.565,4.565,0,0,0,4.9-4.884q.019-5.763,0-11.526A4.582,4.582,0,0,0-309.263,143.208Zm-19.422,4.947c.006-1.313.546-1.87,1.83-1.871q8.849-.009,17.7,0c1.24,0,1.812.56,1.82,1.789.015,2.212-.019,4.425.019,6.636.011.6-.208.7-.742.7-3.318-.021-6.637-.011-9.955-.011-3.288,0-6.575-.016-9.862.014-.628.006-.839-.14-.826-.8C-328.659,152.457-328.693,150.306-328.684,148.155Zm11.43,19.435c-1.073,0-2.147-.015-3.219.007-.43.009-.639-.127-.585-.574a.572.572,0,0,0,0-.092c-.1-2.374-.1-2.374,2.247-2.374h.828c.8,0,1.6.022,2.391-.008.453-.017.629.08.647.595C-314.859,167.591-314.84,167.59-317.255,167.59Zm9.938-8.167c-.059,1.59-.5,2.077-2.116,2.078q-8.576.006-17.153,0c-1.726,0-2.494-1.022-2.109-2.724.114-.5.472-.3.723-.3,3.32-.015,6.64-.01,9.96-.01,3.259,0,6.517.032,9.775-.023C-307.419,158.428-307.29,158.7-307.316,159.423Z" transform="translate(-102.693 -163.12)"/>
      <path id="Trazado_208398" data-name="Trazado 208398" d="M-445.591,166.643c-2.09-.007-4.181-.038-6.269.018-.725.02-.876-.215-.837-.877.056-.95.014-1.9.014-2.858,0-2.491,0-2.474-2.468-2.387-.5.018-.611.182-.6.643.024,1.536-.025,3.074.025,4.61.021.661-.113.888-.835.87-2.181-.056-4.364-.022-6.546-.018a4.8,4.8,0,0,0-3.565,1.447,7.553,7.553,0,0,0-1.251,2.195v14.02a4.435,4.435,0,0,0,3.732,3.869,13.446,13.446,0,0,0,2.3.086c1.2.016,1.27.076,1.267,1.233,0,1.106-.065,1.167-1.219,1.186a6.48,6.48,0,0,0-1.011.05c-.329.058-.616.214-.64.564a4.832,4.832,0,0,0,.185,2.789h18.262c0-.768-.055-1.54,0-2.3.046-.627-.183-.763-.772-.766-2.424-.011-2.406-.03-2.328-2.423.016-.5.178-.626.641-.6.675.032,1.352.011,2.028.008a4.63,4.63,0,0,0,4.988-5.006q.014-5.625,0-11.249C-440.5,168.525-442.371,166.655-445.591,166.643Zm-7.938,24.384h-.735c-.8,0-1.593-.029-2.387.011-.491.024-.6-.148-.613-.619-.068-2.424-.083-2.424,2.37-2.424,1.072,0,2.143.013,3.214-.007.386-.007.585.1.521.511a.478.478,0,0,0,0,.092C-451.062,191.027-451.062,191.027-453.528,191.027Zm9.986-8.309c-.055,1.8-.428,2.22-2.233,2.22q-8.525,0-17.051,0c-1.7,0-2.5-1.106-2.053-2.76.131-.481.5-.264.746-.266,3.349-.016,6.7-.011,10.046-.011,3.226,0,6.452.019,9.677-.016C-443.751,181.878-443.521,182-443.543,182.718Zm-.927-3.872c-3.255-.031-6.511-.014-9.766-.014s-6.511-.026-9.766.019c-.752.01-.907-.227-.892-.925.045-2.088.009-4.177.019-6.265.007-1.445.5-1.941,1.932-1.942q8.753,0,17.506,0c1.363,0,1.869.518,1.872,1.9.006,2.119-.04,4.239.023,6.357C-443.519,178.752-443.8,178.853-444.47,178.846Z" transform="translate(0 -186.557)"/>
      <path id="Trazado_208399" data-name="Trazado 208399" d="M-174.053,166.687c-1.839.1-3.689-.021-5.531.039-.722.024-.874-.205-.835-.869.057-.98.015-1.966.015-2.95,0-2.349,0-2.329-2.348-2.3-.565.006-.741.161-.728.728.036,1.505-.021,3.013.028,4.518.021.66-.113.895-.838.877-2.212-.055-4.426-.052-6.638-.011a4.528,4.528,0,0,0-4.709,4.534q-.1,6.131,0,12.264a4.535,4.535,0,0,0,4.693,4.544c.8.012,1.6.016,2.4,0,.38-.01.516.094.547.508.185,2.51.2,2.509-2.234,2.53a2.256,2.256,0,0,1-.277,0c-.431-.05-.6.113-.583.568.029.828,0,1.659,0,2.489h18.263c.39-.482.256-1.057.261-1.6.013-1.711-.06-1.777-1.726-1.806-.153,0-.307-.008-.46-.009-.479,0-.748-.213-.751-.718,0-.307,0-.614,0-.921-.007-.55.283-.765.8-.767.553,0,1.105,0,1.658-.006a4.515,4.515,0,0,0,4.832-3.955v-14.02C-169.181,167.559-171.205,166.532-174.053,166.687Zm-4.992,24.249c-.4.492-1.43.1-2.182.153-.213.015-.428,0-.643,0-.827,0-1.655-.032-2.479.011-.545.029-.647-.187-.655-.685-.038-2.358-.053-2.358,2.26-2.358,1.041,0,2.082.024,3.122-.01.513-.017.8.046.734.673C-178.964,189.476-178.664,190.469-179.045,190.935Zm5.528-5.933q-8.433,0-16.867,0c-1.852,0-2.525-.845-2.212-2.693.1-.588.508-.332.772-.333,3.318-.018,6.636-.012,9.954-.012,3.288,0,6.575.017,9.862-.015.613-.006.757.172.75.763C-171.278,184.578-171.665,185-173.517,185Zm1.408-6.094c-3.317-.025-6.634-.012-9.95-.012-3.256,0-6.511-.013-9.766.012-.568,0-.791-.1-.778-.736.044-2.211.01-4.422.02-6.634.006-1.2.547-1.752,1.737-1.754q8.891-.011,17.782,0c1.243,0,1.776.533,1.787,1.808.018,2.181-.025,4.362.023,6.542C-171.239,178.837-171.517,178.913-172.109,178.908Z" transform="translate(-205.256 -186.621)"/>
      <path id="Trazado_208400" data-name="Trazado 208400" d="M-392.78,96.931c-.86-.017-1,.257-.97,1.022.061,1.38.062,2.766,0,4.146-.033.743.132.994.932.973,2.147-.058,2.181-.016,2.137-2.141-.015-.744.163-.978.947-.974,6.513.033,13.026.007,19.539.037.7,0,.852-.177.848-.858-.03-5.591-.017-11.183-.017-16.774,0-2.18,0-2.137-2.167-2.193-.784-.02-.866.274-.863.932.023,4.977-.006,9.954.032,14.931.006.784-.224.954-.971.944-3.256-.042-6.513-.018-9.769-.018C-386.329,96.956-389.556,96.994-392.78,96.931Z" transform="translate(-55.922 -125.979)"/>
      <path id="Trazado_208401" data-name="Trazado 208401" d="M-254.425,95.988c.038-4.547.026-9.094.012-13.641,0-.725.326-1.717-.141-2.1-.444-.368-1.4-.083-2.13-.151-.61-.057-.759.156-.753.754.031,3.041.015,6.083.015,9.125,0,3.011.024,6.022-.018,9.032-.01.715.169.906.9.9,6.513-.031,13.026-.01,19.538-.031.639,0,.912.086.9.83-.03,2.314.006,2.289,2.366,2.275.6,0,.706-.2.694-.739-.033-1.443-.056-2.89.006-4.331.034-.8-.139-1.07-1.018-1.064-6.482.044-12.964.013-19.446.039C-254.2,96.887-254.432,96.738-254.425,95.988Z" transform="translate(-158.696 -125.892)"/>
      <path id="Trazado_208402" data-name="Trazado 208402" d="M-354.761,57.43a2.488,2.488,0,0,1,1.267,2.75c-.032.4-.005.8-.005,1.2V62.3c0,2.333,0,2.3,2.346,2.3.65,0,.75-.236.739-.8-.031-1.6.014-3.2-.024-4.793a1.054,1.054,0,0,1,.663-1.124,4.478,4.478,0,0,0,2.291-4.9,4.587,4.587,0,0,0-3.96-3.585,4.569,4.569,0,0,0-4.775,2.855A4.224,4.224,0,0,0-354.761,57.43Zm2.767-5.028a1.577,1.577,0,0,1,1.558,1.5,1.587,1.587,0,0,1-1.5,1.56,1.583,1.583,0,0,1-1.558-1.5A1.579,1.579,0,0,1-351.994,52.4Z" transform="translate(-83.972 -102.774)"/>
      <path id="Trazado_208403" data-name="Trazado 208403" d="M-225.948,57.873a4.489,4.489,0,0,0,2.278-4.9,4.606,4.606,0,0,0-3.881-3.563,4.541,4.541,0,0,0-4.813,2.784A4.126,4.126,0,0,0-231,57.362c1.37.805,1.384,1.789,1.318,3.012-.018.337,0,.676,0,1.014v.83c0,2.465,0,2.45,2.467,2.371.481-.015.626-.14.617-.625-.029-1.628.008-3.257-.021-4.885A1.1,1.1,0,0,1-225.948,57.873Zm-2.221-2.416a1.585,1.585,0,0,1-1.506-1.554,1.575,1.575,0,0,1,1.551-1.508,1.581,1.581,0,0,1,1.508,1.552A1.587,1.587,0,0,1-228.169,55.456Z" transform="translate(-177.323 -102.766)"/>
      <path id="Trazado_208404" data-name="Trazado 208404" d="M-292.9,38.76a2.616,2.616,0,0,1,1.328,2.91c-.034.366-.005.737-.005,1.106V43.7c0,2.331,0,2.312,2.373,2.269.535-.01.663-.175.653-.68-.029-1.567.027-3.136-.028-4.7a1.321,1.321,0,0,1,.818-1.408,4.426,4.426,0,0,0,2.124-4.958,4.587,4.587,0,0,0-3.962-3.47,4.6,4.6,0,0,0-4.706,2.838A4.165,4.165,0,0,0-292.9,38.76Zm2.839-4.98a1.5,1.5,0,0,1,1.492,1.528,1.51,1.51,0,0,1-1.51,1.512,1.509,1.509,0,0,1-1.491-1.53A1.5,1.5,0,0,1-290.057,33.78Z" transform="translate(-130.638 -88.709)"/>
      <path id="Trazado_208405" data-name="Trazado 208405" d="M-217.056-48.7c.209.633.19,1.556.616,1.847.5.343,1.326-.2,2.023-.237.759-.042.869-.355.695-1.06A18.347,18.347,0,0,0-232.329-62.23c-.769.027-.97.284-.779.973a2.247,2.247,0,0,1,.05.365c.176,1.693.176,1.693,1.87,1.738A15.161,15.161,0,0,1-217.056-48.7Z" transform="translate(-176.99 -18.611)"/>
      <path id="Trazado_208406" data-name="Trazado 208406" d="M-181.2,123.583c-2.244.035-4.489.014-6.733.014h-5.626c-2.088,0-2.048,0-2.1,2.1-.021.8.255.941.985.933,3.474-.038,6.948,0,10.422-.032.647-.006.822.176.82.819-.009,2.327.015,2.3,2.362,2.29.6,0,.711-.191.7-.734-.034-1.537-.051-3.076.006-4.611C-180.345,123.675-180.6,123.574-181.2,123.583Z" transform="translate(-205.271 -158.713)"/>
      <path id="Trazado_208407" data-name="Trazado 208407" d="M-417.754,129.7c2.329.01,2.37.027,2.324-2.225-.016-.79.28-.885.95-.878,3.013.031,6.026.013,9.039.013,2.253,0,2.223,0,2.242-2.238.006-.68-.228-.8-.84-.792-2.275.033-4.55.013-6.825.013-2.306,0-4.612.021-6.917-.015-.58-.009-.719.156-.7.718.04,1.567.044,3.137,0,4.7C-418.505,129.6-418.3,129.7-417.754,129.7Z" transform="translate(-37.274 -158.712)"/>
      <path id="Trazado_208408" data-name="Trazado 208408" d="M-386.689-24.9A13.9,13.9,0,0,0-399.05-13.766c-.11.656-.015.97.736.936a5.563,5.563,0,0,1,1.458.181c.517.117.71.018.839-.562a10.546,10.546,0,0,1,9.151-8.576c1.294-.2,1.294-.2,1.294-1.562a2.539,2.539,0,0,1,0-.46C-385.391-24.749-385.753-24.958-386.689-24.9Z" transform="translate(-51.901 -46.761)"/>
      <path id="Trazado_208409" data-name="Trazado 208409" d="M-281.039-58.592c-.077-.349-.192-.5-.626-.361a18.236,18.236,0,0,0-10.591,8.716c-.076.136-.316.337-.077.471.8.449,1.617.855,2.41,1.268.358-.094.39-.409.521-.629a15.437,15.437,0,0,1,6.995-6.293c.653-.3,1.71-.28,1.886-.89.183-.63-.3-1.454-.5-2.193C-281.027-58.531-281.032-58.562-281.039-58.592Z" transform="translate(-132.31 -21.051)"/>
      <path id="Trazado_208410" data-name="Trazado 208410" d="M-218.827,126.528c1.424,0,1.424,0,1.424-1.435,0-1.583,0-1.583-1.548-1.583a2.131,2.131,0,0,1-.366,0c-.946-.169-1.342.2-1.164,1.161a1.006,1.006,0,0,1,0,.183C-220.479,126.528-220.479,126.528-218.827,126.528Z" transform="translate(-186.53 -158.627)" fill="#020202"/>
      <path id="Trazado_208411" data-name="Trazado 208411" d="M-342.505,123.639h-.183c-1.469,0-1.469,0-1.469,1.48,0,1.538,0,1.538,1.5,1.538,1.573,0,1.573,0,1.573-1.574C-341.08,123.639-341.08,123.639-342.505,123.639Z" transform="translate(-93.316 -158.756)" fill="#020202"/>
      <path id="Trazado_208412" data-name="Trazado 208412" d="M-280.562,105.007c-1.57,0-1.57,0-1.57,1.567,0,1.485,0,1.485,1.494,1.485,1.524,0,1.524,0,1.524-1.548C-279.114,105.007-279.114,105.007-280.562,105.007Z" transform="translate(-140.08 -144.708)" fill="#020202"/>
    </g>
  </g>
</svg>
