<svg xmlns="http://www.w3.org/2000/svg" width="112" height="112" viewBox="0 0 112 112">
  <g id="Grupo_164908" data-name="Grupo 164908" transform="translate(-1213 -8748.596)">
    <circle id="Elipse_6389" data-name="Elipse 6389" cx="56" cy="56" r="56" transform="translate(1213 8748.596)" fill="#12263f"/>
    <g id="Grupo_158384" data-name="Grupo 158384" transform="translate(572.313 8826.56)">
      <path id="Trazado_208083" data-name="Trazado 208083" d="M732.1-34.312c.007-2.523-1.284-4.4-3.032-6.034a8.855,8.855,0,0,0-4.326-2.191c-.48-.1-.7-.318-.66-.819a6.331,6.331,0,0,0-.121-1.485c-1.191-7.785-5.5-13.031-12.861-15.78a15.079,15.079,0,0,0-4.3-.788H703.1a29.815,29.815,0,0,0-3,.488,18.98,18.98,0,0,0-10.416,7.272c-.25.349-.472.531-.935.336a15.761,15.761,0,0,0-6.531-1.173,14.7,14.7,0,0,0-7.73,2.342,14.923,14.923,0,0,0-6.484,8.453,1.4,1.4,0,0,1-1.237,1.137,9.032,9.032,0,0,0-5.465,3.21,8.316,8.316,0,0,0-2.1,5.01v2.423c.155.593.1,1.221.312,1.807a9.539,9.539,0,0,0,7.956,6.488c.924.151.932.113.932,1.083q0,10.474,0,20.948c0,.922.087,1.043-1.027,1.165a3.778,3.778,0,0,0-3.661,4.1,8.324,8.324,0,0,0,2.793,5.893,7.185,7.185,0,0,0,4.665,1.984H720.2a14.652,14.652,0,0,0,2.013-.349,8.534,8.534,0,0,0,4.611-4.237,8.127,8.127,0,0,0,.831-3.15c.168-2.365-1.334-4.028-3.871-4.269-.525-.05-.825-.148-.824-.773q.022-10.793,0-21.587c0-.532.176-.732.726-.794a9.567,9.567,0,0,0,6.922-4.029,8.528,8.528,0,0,0,1.559-3.99v-2.565A.194.194,0,0,1,732.1-34.312ZM723.474,2.146c1.327,0,1.684.39,1.591,1.728a5.844,5.844,0,0,1-5.282,5.28c-.473.033-.949.031-1.424.031q-11.364,0-22.727,0-11.613,0-23.226,0A5.86,5.86,0,0,1,666.4,4.539a3.571,3.571,0,0,1-.067-.421c-.169-1.6.159-1.973,1.749-1.973,6.222,0,12.444.007,18.667-.013.554,0,.709.135.706.7-.014,2.636,1.4,4.018,4.049,4.019q4.275,0,8.55,0a3.545,3.545,0,0,0,3.864-3.842c-.013-.73.186-.883.893-.88C711.029,2.158,717.251,2.145,723.474,2.146Zm-33.666.266c.074-.4.337-.261.535-.262,1.781-.01,3.562-.006,5.342-.006,1.757,0,3.514.011,5.271-.008.424,0,.62.054.615.562-.014,1.479-.294,1.79-1.79,1.791q-4.131,0-8.263,0C690.084,4.487,689.547,3.814,689.808,2.412ZM729.6-31.463a7.123,7.123,0,0,1-6.373,5.351c-.4.025-.491-.1-.473-.459a6.3,6.3,0,0,0-.469-2.995,5.718,5.718,0,0,0-5.212-3.584c-1.872-.088-3.751-.013-5.627-.033-.385,0-.5.129-.477.494a6.571,6.571,0,0,1-.032.779c.093,1.114.093,1.114,1.235,1.114,1.543,0,3.087-.009,4.63,0a3.429,3.429,0,0,1,3.577,3.528c.023,8.833,0,17.666.026,26.5,0,.62-.33.541-.712.541q-14.71,0-29.42,0c-6.2,0-12.395-.007-18.592.012-.549,0-.711-.125-.71-.7.019-8.691.01-17.381.016-26.072a3.5,3.5,0,0,1,3.8-3.813c1.591,0,3.183-.038,4.772.017.686.024.971-.156.846-.852a.961.961,0,0,1,.034-.28c-.105-1.265-.105-1.265-1.435-1.265-1.52,0-3.04-.025-4.559.009a5.9,5.9,0,0,0-5.826,5.883,4,4,0,0,0,0,.641c.077.526-.189.562-.615.516a7.054,7.054,0,0,1-6.426-6.812,7.034,7.034,0,0,1,5.843-7.175,6.416,6.416,0,0,1,1.7-.076c.5.039.711-.056.815-.639,1.005-5.628,4.224-9.323,9.788-10.789a12.435,12.435,0,0,1,9.536,1.4c.929.523.926.513,1.453-.379a16.327,16.327,0,0,1,12.056-8.271A16.465,16.465,0,0,1,721.2-46.084a23.223,23.223,0,0,1,.381,3.034c.031.408-.075.552-.511.633a9.412,9.412,0,0,0-5.729,3.435c-.277.341-.271.522.116.748.489.286.928.844,1.422.886s.735-.7,1.131-1.052a7.1,7.1,0,0,1,8.331-.838A7.059,7.059,0,0,1,729.6-31.463Z" transform="translate(0 0)" fill="#fff"/>
      <path id="Trazado_208084" data-name="Trazado 208084" d="M902-24.878c.453.177,1.093-.151,1.656-.218.445-.053.519-.252.434-.665a14.213,14.213,0,0,0-14.923-10.968c-1.419.145-1.419.145-1.171,1.579.032.187.074.372.1.56.035.295.149.374.469.319.558-.1,1.131-.109,1.415-.133a11.859,11.859,0,0,1,11.51,8.074C901.658-25.827,901.57-25.047,902-24.878Z" transform="translate(-185.204 -19.937)" fill="#fff"/>
      <path id="Trazado_208085" data-name="Trazado 208085" d="M836.056.578a3.518,3.518,0,1,0,3.538,3.516A3.529,3.529,0,0,0,836.056.578Zm.024,4.69a1.176,1.176,0,1,1,1.135-1.2A1.167,1.167,0,0,1,836.081,5.268Z" transform="translate(-140.371 -50.205)" fill="#fff"/>
      <path id="Trazado_208086" data-name="Trazado 208086" d="M898.082,37.629a3.535,3.535,0,1,0,3.484,3.562A3.524,3.524,0,0,0,898.082,37.629Zm-.035,4.7a1.183,1.183,0,0,1-1.172-1.17,1.179,1.179,0,1,1,1.172,1.17Z" transform="translate(-190.599 -80.212)" fill="#fff"/>
      <path id="Trazado_208087" data-name="Trazado 208087" d="M774.234,37.628a3.535,3.535,0,1,0,3.528,3.521A3.52,3.52,0,0,0,774.234,37.628Zm.007,4.7a1.16,1.16,0,1,1,1.183-1.158A1.177,1.177,0,0,1,774.241,42.324Z" transform="translate(-90.328 -80.212)" fill="#fff"/>
      <path id="Trazado_208088" data-name="Trazado 208088" d="M847.277,53.571V51.794c0-1.774,0-1.758-1.746-1.761-.449,0-.606.1-.6.578.032,1.562.012,3.126.012,4.689,0,1.847,0,1.83,1.852,1.8.439-.008.492-.173.484-.541C847.263,55.56,847.277,54.565,847.277,53.571Z" transform="translate(-150.425 -90.259)" fill="#fff"/>
      <path id="Trazado_208089" data-name="Trazado 208089" d="M907.538,90.018a4.245,4.245,0,0,1,.495.006c.549.062.925-.085.947-.718a.277.277,0,0,1,.116-.2.705.705,0,0,1-.122-.216c-.108-.273.049-.695-.307-.813a3.061,3.061,0,0,0-1.473-.024c-.228.038-.255.251-.287.44a1.084,1.084,0,0,1-.19.609.643.643,0,0,1,.175.412C906.943,89.905,907.192,90.02,907.538,90.018Z" transform="translate(-200.463 -120.993)" fill="#fff"/>
      <path id="Trazado_208090" data-name="Trazado 208090" d="M906.8,87.683c.033-.189.059-.4.287-.44a3.061,3.061,0,0,1,1.473.024c.356.118.2.54.307.813a.705.705,0,0,0,.122.217c.013-.011.025-.021.038-.031a2.809,2.809,0,0,1-.022-.561c.094-.6-.166-.806-.736-.707a1.677,1.677,0,0,1-.282,0c-1.305,0-1.305,0-1.4,1.267.01.008.016.018.025.026A1.083,1.083,0,0,0,906.8,87.683Z" transform="translate(-200.357 -120.178)" fill="#fff"/>
      <path id="Trazado_208091" data-name="Trazado 208091" d="M909.005,93.917a.277.277,0,0,0-.116.2c-.021.633-.4.78-.947.718a4.246,4.246,0,0,0-.495-.006c-.347,0-.595-.113-.648-.5a.644.644,0,0,0-.175-.412c-.007.007-.013.015-.021.022C906.687,95,906.7,95,907.83,95s1.145,0,1.21-1.054A.435.435,0,0,1,909.005,93.917Z" transform="translate(-200.373 -125.798)" fill="#fff"/>
      <path id="Trazado_208092" data-name="Trazado 208092" d="M906.61,93.8c-.009-.008-.015-.018-.025-.026,0,.017,0,.032,0,.048C906.6,93.818,906.6,93.81,906.61,93.8Z" transform="translate(-200.357 -125.688)" fill="#fff"/>
      <path id="Trazado_208093" data-name="Trazado 208093" d="M919.271,93.832c0-.021,0-.041,0-.063-.013.01-.026.02-.038.031A.432.432,0,0,0,919.271,93.832Z" transform="translate(-210.604 -125.682)" fill="#fff"/>
      <path id="Trazado_208094" data-name="Trazado 208094" d="M794.839,93.254a.452.452,0,0,1,.133-.219.5.5,0,0,1-.131-.214c0,.119,0,.248,0,.4C794.838,93.232,794.839,93.242,794.839,93.254Z" transform="translate(-109.851 -124.914)" fill="#fff"/>
      <path id="Trazado_208095" data-name="Trazado 208095" d="M783.113,93.378c0-.09,0-.186,0-.3,0-.01,0-.017,0-.026a.545.545,0,0,1-.115.174.457.457,0,0,1,.058.05A.345.345,0,0,1,783.113,93.378Z" transform="translate(-100.262 -125.104)" fill="#fff"/>
      <path id="Trazado_208096" data-name="Trazado 208096" d="M782.913,88.161c.019-1.184-.153-1,1.308-1,.9,0,.845-.118.831.958a.5.5,0,0,0,.131.214.434.434,0,0,1,.04-.035c-.009-.093-.024-.186-.026-.279-.021-1-.021-1-1.005-1h-.07c-1.306,0-1.306,0-1.37,1.282a.431.431,0,0,1,.047.04A.545.545,0,0,0,782.913,88.161Z" transform="translate(-100.062 -120.21)" fill="#fff"/>
      <path id="Trazado_208097" data-name="Trazado 208097" d="M785.065,94.166c.008.883.129.733-1.333.743-.726.005-.8,0-.8-.808a.347.347,0,0,0-.057-.1.456.456,0,0,0-.058-.05c-.013.014-.028.027-.043.04.049,1.058.077,1.061,1.19,1.061h.071c1.118,0,1.141,0,1.2-1.074a.442.442,0,0,1-.037-.032A.451.451,0,0,0,785.065,94.166Z" transform="translate(-100.078 -125.826)" fill="#fff"/>
      <path id="Trazado_208098" data-name="Trazado 208098" d="M782.8,93.8a.431.431,0,0,0-.047-.04c0,.029,0,.053,0,.081C782.77,93.826,782.784,93.812,782.8,93.8Z" transform="translate(-100.062 -125.673)" fill="#fff"/>
      <path id="Trazado_208099" data-name="Trazado 208099" d="M795.576,93.831c0-.023,0-.043,0-.067a.435.435,0,0,0-.04.035A.464.464,0,0,0,795.576,93.831Z" transform="translate(-110.419 -125.678)" fill="#fff"/>
      <path id="Trazado_208100" data-name="Trazado 208100" d="M772.718,114.021c.708-.051,1.424-.018,2.136-.008.984.013,1.121.142,1.128,1.107.011,1.4,0,2.8,0,4.2q0,7.442,0,14.884c0,1.21-.1,1.308-1.286,1.312-.973,0-1.947.02-2.92-.008-.723-.021-.873-.18-.908-.89-.021-.427,0-.854-.007-1.282-.006-1-.007-1-.906-1.357-.2-.079-.4-.149-.6-.235-.7-.309-.861-.7-.572-1.425a8.552,8.552,0,0,1,.4-.834.886.886,0,0,0-.194-1.155q-2.516-2.52-5.035-5.036a.781.781,0,0,0-1.028-.144,7.548,7.548,0,0,1-1.028.49.887.887,0,0,1-1.232-.506,9.972,9.972,0,0,1-.439-1.128.794.794,0,0,0-.848-.6q-3.561.011-7.122,0a.8.8,0,0,0-.847.6,10.049,10.049,0,0,1-.44,1.127.887.887,0,0,1-1.234.5,7.608,7.608,0,0,1-1.027-.491.78.78,0,0,0-1.027.147q-2.518,2.518-5.035,5.036a.876.876,0,0,0-.19,1.155c.035.062.062.128.093.192.739,1.555.667,1.763-.995,2.352a.981.981,0,0,0-.78,1.092c.028.52.008,1.044,0,1.566s-.229.807-.766.816q-1.78.031-3.56,0a.709.709,0,0,1-.78-.8c0-.19-.009-.38-.009-.57q0-9.365,0-18.73c0-.19.008-.38.007-.57,0-.566.289-.813.84-.819.807-.009,1.617-.044,2.42.006s1.459-.023,1.64-.967a2.593,2.593,0,0,1-.028-.565c.1-.6-.192-.7-.719-.685-1.257.034-2.516,0-3.774.013a2.386,2.386,0,0,0-2.589,2.564q-.007,10.4,0,20.8a2.364,2.364,0,0,0,2.528,2.548q19.833.009,39.667,0a2.366,2.366,0,0,0,2.53-2.546q.009-10.4,0-20.8a2.388,2.388,0,0,0-2.589-2.565c-1.044-.009-2.089,0-3.133,0-1.294,0-1.294,0-1.387,1.24C771.262,114,771.922,114.078,772.718,114.021Zm-10.506,21.347c-2.135-.024-4.27-.011-6.405-.011-2.112,0-4.223-.014-6.334.01-.494.006-.6-.125-.485-.6a7.063,7.063,0,0,1,13.682.035C762.766,135.243,762.683,135.374,762.212,135.368Zm6.561-.207c-.083.219-.247.188-.4.19-.475.006-.95,0-1.425,0v-.021a4.088,4.088,0,0,1-1.615-.045c-.48-.229-.347-.958-.5-1.46a9.4,9.4,0,0,0-18.222.911c-.1.535-.294.646-.776.625-.806-.035-1.615-.023-2.422,0-.37.009-.519-.067-.56-.5-.071-.756.135-1.223.929-1.338a1.073,1.073,0,0,0,.983-.951,1.813,1.813,0,0,1,.262-.657,1.718,1.718,0,0,0-.031-2.152.532.532,0,0,1,.1-.8q1.612-1.561,3.173-3.174c.24-.246.45-.318.727-.115a2.121,2.121,0,0,0,2.288.079c.909-.369,1.564-.79,1.721-1.8.044-.28.236-.359.517-.357,1.544.012,3.087.018,4.631,0,.391-.005.491.213.549.507a2.054,2.054,0,0,0,1.494,1.567c.913.367,1.7.636,2.547-.032.224-.176.412-.091.608.109,1.065,1.084,2.134,2.165,3.225,3.223a.534.534,0,0,1,.085.8,1.716,1.716,0,0,0-.023,2.151,1.368,1.368,0,0,1,.2.53c.108.685.576.954,1.179,1.136A1.17,1.17,0,0,1,768.773,135.162Z" transform="translate(-60.139 -140.288)" fill="#fff"/>
      <path id="Trazado_208101" data-name="Trazado 208101" d="M780.509,118.743c-.125.689.2.826.826.8,1.114-.046,2.232,0,3.348-.019.365-.006.549.047.548.489q-.02,10.082,0,20.163c0,.4-.109.536-.518.525-1-.026-1.995-.008-2.992-.008-1.206,0-1.2,0-1.208-1.186a4.434,4.434,0,0,0-.088-1.889c-.276-.518-1.12-.5-1.7-.739-.022-.009-.042-.023-.064-.031a.607.607,0,0,1-.382-.9,7.843,7.843,0,0,1,.553-1.152.779.779,0,0,0-.172-1.149c-1.486-1.435-2.929-2.914-4.392-4.374-.42-.419-.79-1.038-1.292-1.18s-1.047.435-1.6.64c-.044.017-.083.047-.125.067a.658.658,0,0,1-1.035-.453c-.124-.383-.3-.751-.4-1.14a.749.749,0,0,0-.883-.655c-2.018.038-4.037.011-6.056.018-.662,0-1.456-.181-1.945.119-.413.253-.474,1.083-.69,1.657-.008.022-.009.047-.018.069a.653.653,0,0,1-1.013.389c-.405-.2-.827-.364-1.212-.594a.626.626,0,0,0-.9.153c-1.495,1.528-3.016,3.03-4.527,4.542-1.233,1.234-1.233,1.234-.5,2.786.03.064.054.132.085.2.247.493.077.815-.414,1a10.207,10.207,0,0,1-1.274.444c-.448.1-.547.342-.529.758.03.688-.019,1.378.017,2.065.024.456-.151.562-.575.553q-1.816-.036-3.633,0c-.409.008-.518-.126-.517-.526q.016-10.082,0-20.163c0-.442.184-.5.549-.489.973.018,1.947.006,2.921.006,1.2,0,1.2,0,1.281-1.139-.182.945-.844,1.017-1.64.967s-1.613-.015-2.42-.006c-.55.006-.842.253-.84.819,0,.19-.007.38-.007.57q0,9.365,0,18.73c0,.19.007.38.009.57a.709.709,0,0,0,.78.8q1.78.029,3.56,0c.537-.009.758-.3.766-.816s.028-1.046,0-1.566a.981.981,0,0,1,.78-1.092c1.662-.59,1.734-.8.995-2.352-.031-.064-.058-.13-.093-.192a.876.876,0,0,1,.19-1.155q2.516-2.52,5.035-5.036a.78.78,0,0,1,1.027-.147,7.6,7.6,0,0,0,1.027.491.887.887,0,0,0,1.234-.5,10.05,10.05,0,0,0,.44-1.127.8.8,0,0,1,.847-.6q3.561.01,7.121,0a.794.794,0,0,1,.848.6,9.972,9.972,0,0,0,.439,1.128.887.887,0,0,0,1.232.506,7.552,7.552,0,0,0,1.028-.49.781.781,0,0,1,1.028.144q2.519,2.517,5.035,5.036a.886.886,0,0,1,.194,1.155,8.583,8.583,0,0,0-.4.834c-.289.725-.131,1.116.572,1.425.2.086.4.156.6.235.9.357.9.359.906,1.357,0,.427-.013.855.007,1.282.035.711.185.87.908.89.973.028,1.947.011,2.92.008,1.187,0,1.285-.1,1.286-1.312q0-7.442,0-14.884c0-1.4.008-2.8,0-4.2-.008-.965-.144-1.094-1.128-1.107-.712-.01-1.427-.043-2.136.008-.8.057-1.456-.026-1.64-.966h0A1.37,1.37,0,0,1,780.509,118.743Z" transform="translate(-69.541 -145.623)" fill="#fff"/>
      <path id="Trazado_208102" data-name="Trazado 208102" d="M783.043,113.908c.01,1.515.017,3.03,0,4.545a1.736,1.736,0,0,0,.579,1.385c.519.484,1.01,1,1.511,1.5a.535.535,0,0,0,.853.011c1.054-.917,1.1-.993.06-1.937a2.73,2.73,0,0,1-.982-2.372c.07-1.061.01-2.129.019-3.194,0-.3-.057-.623.191-.873a1.715,1.715,0,0,1-.027-.42c.125-.7-.173-.944-.842-.823a1.206,1.206,0,0,1-.211,0c-1.282,0-1.282,0-1.353,1.239C783.119,113.237,783.041,113.587,783.043,113.908Z" transform="translate(-100.133 -140.206)" fill="#fff"/>
      <path id="Trazado_208103" data-name="Trazado 208103" d="M782.865,124.151a.938.938,0,0,0,.226.783c.754.722,1.487,1.468,2.219,2.213.178.181.286.219.515.028,1.55-1.3,1.556-1.289.17-2.677-.167-.168-.327-.345-.5-.5a.682.682,0,0,1-.253-.554c.017-1.684.025-3.369.035-5.054-.247.251-.188.573-.191.873-.009,1.065.05,2.134-.019,3.194a2.73,2.73,0,0,0,.982,2.372c1.038.944.994,1.019-.06,1.937a.535.535,0,0,1-.853-.011c-.5-.5-.991-1.018-1.511-1.5a1.736,1.736,0,0,1-.579-1.385c.02-1.515.012-3.03,0-4.545,0-.321.076-.671-.2-.937h0Q782.852,121.267,782.865,124.151Z" transform="translate(-100.133 -145.617)" fill="#fff"/>
      <path id="Trazado_208104" data-name="Trazado 208104" d="M900.736,113.843c.009,1.183-.024,2.368.014,3.55a2.013,2.013,0,0,1-.735,1.754,4.249,4.249,0,0,0-.3.3c-.867.868-.787,1.4.286,2.035a.467.467,0,0,0,.633-.1c.627-.611,1.255-1.221,1.852-1.863a1.446,1.446,0,0,0,.287-1.068c0-1.515-.006-3.03,0-4.545,0-.321-.076-.671.2-.937a1.826,1.826,0,0,1-.021-.421c.126-.7-.169-.943-.838-.82a1.19,1.19,0,0,1-.212,0c-1.273,0-1.273,0-1.363,1.241C900.792,113.221,900.733,113.543,900.736,113.843Z" transform="translate(-194.312 -140.202)" fill="#fff"/>
      <path id="Trazado_208105" data-name="Trazado 208105" d="M898.925,122.727a1.908,1.908,0,0,1-.708,1.732c-.455.372-1.145.835-1.155,1.272-.012.508.779.866,1.167,1.338.275.335.457.259.721-.019q.954-1.008,1.964-1.964a1.156,1.156,0,0,0,.38-.936c-.009-1.922.009-3.845.018-5.767-.28.265-.2.615-.2.937-.01,1.515,0,3.03,0,4.545a1.447,1.447,0,0,1-.287,1.068c-.6.642-1.225,1.252-1.852,1.863a.467.467,0,0,1-.633.1c-1.073-.632-1.154-1.167-.286-2.035a4.248,4.248,0,0,1,.3-.3,2.013,2.013,0,0,0,.735-1.754c-.038-1.182-.005-2.367-.014-3.55,0-.3.057-.623-.191-.873h0C898.888,119.833,898.863,121.282,898.925,122.727Z" transform="translate(-192.645 -145.617)" fill="#fff"/>
      <path id="Trazado_208106" data-name="Trazado 208106" d="M846.133,101.956c1.2,0,1.2,0,1.2-1.168s0-1.161-1.133-1.161c-1.2,0-1.2,0-1.2,1.17S845,101.956,846.133,101.956Z" transform="translate(-150.478 -130.425)" fill="#fff"/>
      <path id="Trazado_208107" data-name="Trazado 208107" d="M783.6,89.291c.1.259-.035.65.342.723a5.091,5.091,0,0,0,1.467.009c.182-.018.262-.173.282-.353a1.993,1.993,0,0,1,.045-.313c0-.012,0-.022,0-.035,0-.15,0-.279,0-.4a.694.694,0,0,1-.027-.234c.028-.607-.319-.716-.818-.671a3.482,3.482,0,0,1-.568,0c-.433-.032-.683.118-.67.594a.861.861,0,0,1-.055.355c0,.009,0,.017,0,.026C783.6,89.105,783.6,89.2,783.6,89.291Z" transform="translate(-100.748 -121.017)" fill="#fff"/>
      <path id="Trazado_208108" data-name="Trazado 208108" d="M784.326,87.8a3.484,3.484,0,0,0,.569,0c.5-.045.846.065.818.671a.694.694,0,0,0,.027.234c.015-1.075.069-.959-.83-.958-1.461,0-1.289-.182-1.308,1a.86.86,0,0,0,.056-.355C783.643,87.913,783.893,87.763,784.326,87.8Z" transform="translate(-100.75 -120.793)" fill="#fff"/>
      <path id="Trazado_208109" data-name="Trazado 208109" d="M785.41,95.486a5.091,5.091,0,0,1-1.467-.009c-.378-.073-.242-.464-.342-.723.005.806.078.814.8.808,1.462-.01,1.341.14,1.333-.743a1.993,1.993,0,0,0-.045.313C785.672,95.314,785.592,95.468,785.41,95.486Z" transform="translate(-100.75 -126.48)" fill="#fff"/>
      <path id="Trazado_208110" data-name="Trazado 208110" d="M847.291,126.065c0-1.861,0-1.849-1.854-1.794-.364.011-.5.1-.483.477.029.613.008,1.229.008,1.844v.638c0,1.874,0,1.864,1.89,1.766.338-.017.453-.112.445-.449C847.278,127.721,847.291,126.893,847.291,126.065Z" transform="translate(-150.44 -150.374)" fill="#fff"/>
    </g>
  </g>
</svg>
