<svg xmlns="http://www.w3.org/2000/svg" width="112" height="112" viewBox="0 0 112 112">
  <g id="Grupo_164906" data-name="Grupo 164906" transform="translate(-581.676 -8748.596)">
    <circle id="Elipse_6387" data-name="Elipse 6387" cx="56" cy="56" r="56" transform="translate(581.676 8748.596)" fill="#12263f"/>
    <g id="Grupo_158386" data-name="Grupo 158386" transform="translate(-87.811 8789.076)">
      <path id="Trazado_208068" data-name="Trazado 208068" d="M837.448,239.887a3.52,3.52,0,0,0-3.755-3.725q-9.172-.005-18.344,0a3.52,3.52,0,0,0-3.754,3.726q-.012,5.663,0,11.327a3.556,3.556,0,0,0,3.73,3.766c1.351.009,2.7,0,4.053.006.185,0,.459-.109.45.26a5.027,5.027,0,0,1-.1,1.954c-.182.367-1,.075-1.529.123a1.4,1.4,0,0,1-.284,0c-.342-.04-.447.114-.451.449a10.171,10.171,0,0,1-.052,1.913h14.223a6.1,6.1,0,0,1-.045-1.7c.027-.534-.13-.718-.671-.674s-1.273.2-1.58-.073c-.365-.327-.059-1.077-.126-1.637-.057-.481.078-.652.6-.635,1.3.042,2.607.021,3.91.012a3.554,3.554,0,0,0,3.73-3.767Q837.46,245.551,837.448,239.887Zm-23.482.053c0-1.019.405-1.448,1.41-1.449q9.137-.012,18.274,0c1.015,0,1.424.423,1.427,1.434.007,2.47-.011,4.94.014,7.409.005.489-.165.581-.607.578-3.342-.016-6.684-.009-10.026-.009-3.271,0-6.542-.015-9.813.014-.571.005-.7-.162-.7-.71C813.98,244.786,813.959,242.363,813.966,239.941Zm12.9,16.952c.073.346-.144.441-.464.433-.639-.016-1.28,0-1.92,0a13.345,13.345,0,0,0-1.563.012c-.665.079-.782-.2-.769-.8.034-1.549.008-1.549,1.552-1.549h2.489c.142,0,.34-.059.418.012C827.211,255.546,826.735,256.262,826.869,256.892Zm6.53-4.272q-8.879,0-17.757,0c-1.408,0-1.981-.73-1.682-2.095.094-.431.41-.24.619-.24,3.338-.013,6.677-.009,10.015-.009,3.291,0,6.582.011,9.873-.012.492,0,.636.116.627.621C835.068,252.3,834.782,252.62,833.4,252.62Z" transform="translate(-100.039 -210.649)" fill="#fff"/>
      <path id="Trazado_208069" data-name="Trazado 208069" d="M698.613,133.464a3.459,3.459,0,0,0,3.543-3.561q.022-7.014,0-14.028a3.442,3.442,0,0,0-3.474-3.554c-2.392-.033-4.785-.009-7.178,0a3.392,3.392,0,0,0-2.26.89,4.49,4.49,0,0,0-1.171,1.99v15.39c.907,2.294,1.785,2.885,4.286,2.886C694.443,133.471,696.528,133.491,698.613,133.464Zm-6.425-18.822c2.038,0,4.077,0,6.115,0a1.536,1.536,0,0,1,1.521,2.142c-.112.339-.374.232-.587.233-1.351.009-2.7,0-4.053,0-1.4,0-2.8-.015-4.2.009-.437.007-.561-.136-.568-.568C690.4,115,690.732,114.643,692.188,114.643Zm-1.191,4.7c1.4.021,2.792.008,4.189.008,1.373,0,2.745.013,4.118-.008.4-.006.536.107.532.517q-.025,3.023,0,6.047c0,.377-.077.546-.505.543q-4.189-.026-8.378,0c-.394,0-.536-.1-.533-.516.018-2.015.021-4.031,0-6.047C690.411,119.422,690.584,119.331,691,119.338Zm-.564,9.692c.091-.356.342-.268.557-.269,1.4-.007,2.8,0,4.2,0,1.351,0,2.7.019,4.052-.01.47-.01.6.14.606.6,0,1.391-.361,1.786-1.753,1.787q-3.022,0-6.043,0A1.513,1.513,0,0,1,690.433,129.03Z" transform="translate(0 -110.335)" fill="#fff"/>
      <path id="Trazado_208070" data-name="Trazado 208070" d="M830.783-2.719q8.777-.027,17.554,0c.5,0,.627-.129.626-.626q-.027-10.29-.016-20.579H830.173q0,10.29-.016,20.579C830.156-2.848,830.286-2.718,830.783-2.719Zm1.724-10.589c0-2.541.011-5.082-.01-7.623,0-.484.115-.65.627-.648q6.435.03,12.87,0c.508,0,.63.158.629.645q-.024,7.623,0,15.247c0,.463-.118.6-.591.594q-6.471-.029-12.941,0c-.469,0-.6-.124-.594-.592C832.518-8.226,832.507-10.767,832.507-13.308Z" transform="translate(-115.077)" fill="#fff"/>
      <path id="Trazado_208071" data-name="Trazado 208071" d="M787.535,109.3a7.051,7.051,0,0,0,.555,14.091c3.838.02,7.676,0,11.514,0q5.65,0,11.3,0a9.393,9.393,0,0,0,1.629-.093,7.052,7.052,0,0,0-.772-14c-.494-.03-.661-.168-.782-.647a11.728,11.728,0,0,0-22.715.022C788.153,109.123,788.007,109.275,787.535,109.3Zm7.257,5.748a6.829,6.829,0,0,0-3.8-5.017c-.443-.224-.568-.417-.441-.9a9.393,9.393,0,0,1,18.328.991,13.449,13.449,0,0,1,.149,1.342c.017.447.18.578.617.454a5.461,5.461,0,0,1,2.736-.167,4.709,4.709,0,0,1-1.046,9.3c-3.91.027-7.82.007-11.73.008-3.839,0-7.678.009-11.517,0a4.713,4.713,0,0,1-.826-9.379,4.652,4.652,0,0,1,5.239,3.987c.062.6.26.792.818.7a2.106,2.106,0,0,1,.355,0C795.021,116.362,795.043,116.357,794.792,115.051Z" transform="translate(-75.142 -100.261)" fill="#fff"/>
      <path id="Trazado_208072" data-name="Trazado 208072" d="M1011.134,128.157a3.506,3.506,0,0,0-3.519-3.6q-3.515-.05-7.032,0a3.5,3.5,0,0,0-3.53,3.587c-.013,1.542,0,3.084,0,4.626q0,2.242,0,4.483c0,.048,0,.1,0,.142a3.524,3.524,0,0,0,3.622,3.644c2.3.019,4.593.024,6.89,0a3.521,3.521,0,0,0,3.573-3.626Q1011.152,132.783,1011.134,128.157Zm-4.09,10.514c-.992-.051-1.989-.009-2.984-.01-1.113,0-2.226.01-3.339,0a1.547,1.547,0,0,1-1.328-2.156c.1-.205.267-.162.423-.162,2.842,0,5.684,0,8.526-.008.335,0,.441.1.451.44C1008.827,137.966,1008.691,138.757,1007.044,138.671Zm0-4.712h-2.979c-1.371,0-2.743-.014-4.114.008-.412.007-.573-.078-.58-.54-.025-1.8-.044-1.8,1.727-1.8,2.365,0,4.729.01,7.094-.009.44,0,.606.089.608.576C1008.8,133.959,1008.823,133.959,1007.043,133.959Zm1.725-4.861c-.117.239-.327.144-.5.145-1.4.009-2.795,0-4.192,0-1.374,0-2.748-.012-4.121.008-.4.006-.587-.049-.59-.528-.008-1.444.318-1.8,1.778-1.8,2.108,0,4.216-.008,6.324,0A1.531,1.531,0,0,1,1008.768,129.1Z" transform="translate(-250.244 -120.238)" fill="#fff"/>
      <path id="Trazado_208073" data-name="Trazado 208073" d="M707.992,5.948a1.035,1.035,0,0,0,.852.858,1.131,1.131,0,0,0,1.2-.415,5.119,5.119,0,0,0,.382-.6A34.264,34.264,0,0,1,725.8-7.883c.521-.239,1.358-.258,1.479-.779.111-.481-.376-1.082-.537-1.649-.127-.445-.333-.377-.659-.244A36.649,36.649,0,0,0,714.839-3.37a38.54,38.54,0,0,0-5,5.73c-.173-1.237-.32-2.317-.478-3.4-.079-.539,0-1.262-.316-1.562-.366-.349-1.053.049-1.6.093-.094.008-.189.024-.283.024-.276,0-.375.124-.334.4C707.214.6,707.586,3.275,707.992,5.948Z" transform="translate(-15.181 -10.747)" fill="#fff"/>
      <path id="Trazado_208074" data-name="Trazado 208074" d="M964.02,255.632a1.122,1.122,0,0,0-.944-1.022,1.1,1.1,0,0,0-1.218.525c-.131.2-.252.4-.376.6a34.241,34.241,0,0,1-15.351,13.595c-.5.23-1.309.254-1.434.739-.116.451.357,1.037.508,1.58.13.468.326.478.737.311a36.409,36.409,0,0,0,8.92-5.2,37.273,37.273,0,0,0,7.267-7.688c.172,1.181.341,2.206.468,3.237.245,1.981.234,1.972,2.21,1.611.322-.059.38-.183.338-.47C964.768,260.844,964.4,258.237,964.02,255.632Z" transform="translate(-207.832 -225.569)" fill="#fff"/>
      <path id="Trazado_208075" data-name="Trazado 208075" d="M966.627-1.758c.138.091.284.17.426.256a34.286,34.286,0,0,1,13.729,15.512c.222.492.274,1.286.691,1.4.446.125,1.04-.324,1.581-.48.465-.135.535-.308.34-.786A36.724,36.724,0,0,0,975.2,1.875a39.625,39.625,0,0,0-4.669-3.928C971.8-2.23,972.9-2.39,974-2.537c1.625-.215,1.625-.211,1.392-1.859a1.061,1.061,0,0,1-.021-.212c.029-.428-.165-.5-.563-.442-2.552.381-5.108.738-7.662,1.1a1.138,1.138,0,0,0-1.053.907A1.125,1.125,0,0,0,966.627-1.758Z" transform="translate(-225.144 -15.273)" fill="#fff"/>
      <path id="Trazado_208076" data-name="Trazado 208076" d="M718.255,250.4c-.159-.1-.322-.2-.484-.3a34.288,34.288,0,0,1-13.637-15.41c-.232-.509-.273-1.337-.726-1.45-.473-.118-1.078.363-1.642.526-.448.129-.427.323-.275.7a36.675,36.675,0,0,0,8.941,13.023,43.963,43.963,0,0,0,3.916,3.213c-1.4.208-2.682.393-3.959.586-1.136.171-1.136.175-.971,1.294.172,1.162.172,1.163,1.322,1.021.353-.044.7-.1,1.056-.146,1.992-.285,3.984-.567,5.975-.858a1.185,1.185,0,0,0,.484-2.2Z" transform="translate(-10.788 -208.268)" fill="#fff"/>
      <path id="Trazado_208077" data-name="Trazado 208077" d="M940.047,16.372A29.337,29.337,0,0,1,955.1,31.462c.238.526.256,1.364.765,1.5.472.125,1.086-.348,1.653-.5.434-.117.4-.315.264-.656a31.743,31.743,0,0,0-16.829-17.621c-.129-.059-.26-.113-.381-.166-.255-.048-.26.156-.319.3-.176.413-.319.844-.531,1.238C939.478,15.994,939.6,16.168,940.047,16.372Z" transform="translate(-203.715 -30.724)" fill="#fff"/>
      <path id="Trazado_208078" data-name="Trazado 208078" d="M734.381,21.56a30.75,30.75,0,0,0-5.555,8.021c-.074.155-.377.371-.1.526.594.335,1.229.6,1.825.882.181,0,.2-.014.411-.444a29.284,29.284,0,0,1,13.5-13.5c.5-.248,1.3-.3,1.417-.779.111-.45-.356-1.031-.53-1.568-.143-.44-.322-.492-.757-.3A31.623,31.623,0,0,0,734.381,21.56Z" transform="translate(-32.833 -30.953)" fill="#fff"/>
      <path id="Trazado_208079" data-name="Trazado 208079" d="M957.314,237.278c-.2.193.011.346.1.5.306.54.625,1.073.939,1.609.224-.132.367-.214.508-.3a31.753,31.753,0,0,0,12.7-14.541c.736-1.668.732-1.644-.948-2.287-.477-.182-.639-.079-.816.367a29.19,29.19,0,0,1-12.069,14.389A2.349,2.349,0,0,0,957.314,237.278Z" transform="translate(-217.997 -199.316)" fill="#fff"/>
      <path id="Trazado_208080" data-name="Trazado 208080" d="M742.406,246.426a25.286,25.286,0,0,1-4.278-3.153,29.215,29.215,0,0,1-6.788-8.937c-.092-.187-.1-.48-.412-.5-.5.237-.98.5-1.486.692-.434.164-.46.342-.26.75a31.626,31.626,0,0,0,11.494,12.862c1.127.724,1.126.725,1.814-.459a1.711,1.711,0,0,1,.146-.243C743.006,247,742.926,246.724,742.406,246.426Z" transform="translate(-33.197 -208.768)" fill="#fff"/>
      <path id="Trazado_208081" data-name="Trazado 208081" d="M864.275,26.044c0-.4-.106-.516-.51-.514q-4.193.026-8.387,0c-.406,0-.512.117-.509.515.019,2.018.026,4.036,0,6.053-.007.485.19.53.585.525,1.374-.019,2.748-.007,4.122-.007s2.749-.012,4.123.008c.4.006.59-.044.583-.527C864.249,30.08,864.255,28.062,864.275,26.044Zm-4.046,4.2h-1.279c-1.933,0-1.926,0-1.741-1.927.029-.3.127-.413.428-.41q1.918.015,3.837,0c.332,0,.491.108.456.449a1.108,1.108,0,0,0,0,.142C861.972,30.245,861.972,30.245,860.228,30.245Z" transform="translate(-135.089 -40.055)" fill="#fff"/>
      <path id="Trazado_208082" data-name="Trazado 208082" d="M854.646,2.341c-.055.488.1.652.612.638,1.349-.037,2.7-.012,4.048-.012h2.983c1.765,0,1.745,0,1.764-1.755.005-.5-.118-.629-.62-.622C861.091.618,858.746.6,856.4.6c-.562,0-1.3-.176-1.638.109C854.407,1.015,854.708,1.782,854.646,2.341Z" transform="translate(-134.863 -19.824)" fill="#fff"/>
    </g>
  </g>
</svg>
