<svg xmlns="http://www.w3.org/2000/svg" width="49.088" height="49.435" viewBox="0 0 49.088 49.435">
  <g id="Grupo_161494" data-name="Grupo 161494" transform="translate(-1079.038 -731.29)" opacity="0.6">
    <path id="Trazado_213793" data-name="Trazado 213793" d="M1382.024,1025.94s0,.005,0,.008a.017.017,0,0,1-.005-.005Z" transform="translate(-263.96 -256.704)" fill="#e2c140"/>
    <path id="Trazado_213794" data-name="Trazado 213794" d="M1269.641,1029.874l-.025,0h.019Z" transform="translate(-166.035 -260.128)" fill="#e2c140"/>
    <path id="Trazado_213795" data-name="Trazado 213795" d="M1121.94,770.87c-1.172-1.217-2.344-2.433-3.6-3.566,0-.162-.223-.2-.223-.39a.251.251,0,0,1,0-.03,7.2,7.2,0,0,0,1.321-.336,10.942,10.942,0,0,0,5.321-3.182c.276-.305.573-.594.824-.918a11.708,11.708,0,0,0,2.4-9.189,10.767,10.767,0,0,0-2.314-5.356,2.253,2.253,0,0,0-.147-.241,11.3,11.3,0,0,0-4.071-3.244,5.953,5.953,0,0,0-1.867-.744c-.46-.109-.585-.344-.662-.769a12.7,12.7,0,0,0-2.6-5.916,9.02,9.02,0,0,0-1.909-2.143,10.979,10.979,0,0,0-3.2-2.094,11.706,11.706,0,0,0-4.635-1.354c-.124-.052-.277,0-.385-.108h-2.318c-.609.187-1.267.122-1.865.367a13.4,13.4,0,0,0-8.887,6.288c-.394.671-.749,1.091-1.558.791a.128.128,0,0,0-.048.006,7.129,7.129,0,0,0-5.313,1.718,7.22,7.22,0,0,0-2.564,7.1.492.492,0,0,1-.247.581,6.035,6.035,0,0,0-1.27,1.1,2.145,2.145,0,0,0-.182.156,10.082,10.082,0,0,0-2.707,9.1,10.5,10.5,0,0,0,10.931,8.513c.71,0,1.421.024,2.13.024.332,0,.665,0,1-.017a2.234,2.234,0,0,1,2.2.766,8.915,8.915,0,0,0,1.866,1.5,9.719,9.719,0,0,0,2.656,1.3,10.518,10.518,0,0,0,4.054.782,11.991,11.991,0,0,0,5.5-1,8.093,8.093,0,0,0,.994-.474c.307-.2.487-.128.726.115,1.318,1.332,2.653,2.645,3.982,3.965a8.515,8.515,0,0,0,1,1.026q2.243,2.241,4.5,4.469c.338.464.842.774,1.157,1.261h.1c.062-.072.118-.149.185-.216q2.2-2.2,4.4-4.4c.151-.151.366-.261.094-.529C1125.1,774.02,1123.524,772.443,1121.94,770.87Zm-29.323-5.63c-1.014,0-2.026-.006-3.038.005-.2,0-.437-.071-.573.151l0,0c-.164-.2-.411-.175-.622-.2a8.63,8.63,0,0,1-4.112-1.668.747.747,0,0,0-.382-.2,1.679,1.679,0,0,0-.4-.514,11.911,11.911,0,0,1-.89-.949,8.69,8.69,0,0,1-.432-9.951,1.954,1.954,0,0,0,.276-.536c.147-.033.219-.176.316-.281a10.239,10.239,0,0,1,2.349-1.986c.684-.391.692-.446.448-1.191a5.427,5.427,0,0,1,.632-4.845,2.025,2.025,0,0,0,.355-.693c.221.035.33-.155.456-.279a5.653,5.653,0,0,1,2.932-1.539c.213-.042.456-.022.616-.219h0c.072.167.245.142.376.135a5.683,5.683,0,0,1,2.027.362.53.53,0,0,0,.756-.341,12.972,12.972,0,0,1,3.168-4.312,1.437,1.437,0,0,0,.393-.457c.135.044.22-.08.312-.149a12.628,12.628,0,0,1,4.3-2.1c.135-.036.324-.027.353-.229l.01.013a.51.51,0,0,0,.372.054,20.023,20.023,0,0,1,3.712-.259c.1.116.276.091.417.112a12.763,12.763,0,0,1,3.759,1.138c.151.072.3.18.484.085.023.173.176.255.313.335a12.792,12.792,0,0,1,4.4,4.37c.069.111.108.269.259.3a1.06,1.06,0,0,0,.162.55,12.057,12.057,0,0,1,1.225,4.437.681.681,0,0,0,.634.706,11.312,11.312,0,0,1,2.787.919c.149.071.308.173.473.075v.014c.009.2.173.255.305.339a10.577,10.577,0,0,1,3.535,3.67c.061.1.1.245.218.291a1.484,1.484,0,0,0,.156.5,10.115,10.115,0,0,1-.774,9.791,1.319,1.319,0,0,0-.247.514c-.148.032-.222.173-.318.281-.259.286-.483.607-.764.868a10.707,10.707,0,0,1-3.56,2.263c-.167.061-.368.089-.457.28-.178-.122-.36-.006-.533.035a8.483,8.483,0,0,1-1.948.3c-.582,0-.837-.4-.6-.873a13.09,13.09,0,0,0,1.091-9.18,12.117,12.117,0,0,0-2.382-4.9c-.122-.151-.216-.377-.45-.377a11.07,11.07,0,0,0-2.686-2.447,9.381,9.381,0,0,0-2.832-1.4,10.624,10.624,0,0,0-3.628-.822,10.121,10.121,0,0,0-3.216.218l-.126.03a12.193,12.193,0,0,0-6.111,2.956l-.005,0c-.242-.018-.38.153-.527.3a13.133,13.133,0,0,0-4,11.341,12.909,12.909,0,0,0,1.557,4.685C1093.2,765.232,1093.188,765.238,1092.618,765.24Zm16.854,3.419-.1.041a13.356,13.356,0,0,1-3.39.97,20.144,20.144,0,0,1-2.381.072l.005,0-.025,0a10.708,10.708,0,0,1-1.742-.294c-.57-.139-1.136-.31-1.7-.483l-.034-.01a13.523,13.523,0,0,1-4.272-3.1c-.024-.028-.05-.055-.076-.085a13.391,13.391,0,0,1-1.6-2.482,10.605,10.605,0,0,1-.925-2.8,11.317,11.317,0,0,1,2.133-9.14,4.279,4.279,0,0,1,.77-.971c.021-.028.044-.055.064-.082a8.094,8.094,0,0,1,2.264-1.9,11.606,11.606,0,0,1,3.762-1.48l.061-.014.015,0a11.454,11.454,0,0,1,6.4.581l.088.04.062.028a11.962,11.962,0,0,1,4.144,2.893,6.27,6.27,0,0,1,1.211,1.629c.03.068.055.138.079.21a13.408,13.408,0,0,1,1.361,3.373,11.414,11.414,0,0,1-1.042,8.035c-.072.139-.137.283-.2.426a.01.01,0,0,0,0,.005,12.458,12.458,0,0,1-4.925,4.538Zm14.825,7.458c-.714.672-1.4,1.375-2.08,2.079-.171.175-.281.193-.452,0-.214-.237-.46-.444-.692-.664l-.052-.053q-2.67-2.759-5.428-5.428l-.023-.023c-.98-.992-1.952-1.991-2.945-2.968-.233-.229-.219-.337.032-.533a10.916,10.916,0,0,0,2-2,1,1,0,0,1,.063-.086c.179-.22.344-.191.587.061.9.927,1.83,1.825,2.748,2.734l.008,0s0,.005,0,.008c1.129,1.176,2.278,2.331,3.459,3.454l.116.111c.878.891,1.748,1.791,2.641,2.668C1124.522,775.716,1124.575,775.854,1124.3,776.117Z" transform="translate(0)" fill="#e2c140"/>
    <path id="Trazado_213796" data-name="Trazado 213796" d="M1257.612,841.209l-.126.03A.284.284,0,0,1,1257.612,841.209Z" transform="translate(-155.467 -95.763)" fill="#e2c140"/>
    <path id="Trazado_213797" data-name="Trazado 213797" d="M1218.362,852.65v.106a12.867,12.867,0,0,0-4.091,1.718,20.731,20.731,0,0,0-1.934,1.583v-.027a8.094,8.094,0,0,1,2.264-1.9A11.6,11.6,0,0,1,1218.362,852.65Z" transform="translate(-116.132 -105.731)" fill="#e2c140"/>
    <path id="Trazado_213798" data-name="Trazado 213798" d="M1211.9,878.89v.027l-.064.055C1211.857,878.944,1211.88,878.917,1211.9,878.89Z" transform="translate(-115.696 -128.592)" fill="#e2c140"/>
    <path id="Trazado_213799" data-name="Trazado 213799" d="M1315.3,862.072c0,.028-.006.055-.011.082a12.73,12.73,0,0,0-2.975-3.142,11.32,11.32,0,0,0-1.2-.746c-.412-.225-.833-.433-1.257-.639a.508.508,0,0,0,.088-.077,11.962,11.962,0,0,1,4.144,2.892A6.264,6.264,0,0,1,1315.3,862.072Z" transform="translate(-201.093 -110)" fill="#e2c140"/>
    <path id="Trazado_213800" data-name="Trazado 213800" d="M1352.116,892.87c-.03-.042-.059-.085-.09-.127.005-.027.008-.054.011-.082C1352.067,892.728,1352.093,892.8,1352.116,892.87Z" transform="translate(-237.832 -140.588)" fill="#e2c140"/>
    <path id="Trazado_213801" data-name="Trazado 213801" d="M1265.685,851.673c-.008.036-.015.071-.026.106a12.045,12.045,0,0,0-4.668-.787c-.623.035-1.243.121-1.865.184a1.291,1.291,0,0,0,.061-.12l.016,0a11.453,11.453,0,0,1,6.4.581Z" transform="translate(-156.896 -104.151)" fill="#e2c140"/>
    <path id="Trazado_213802" data-name="Trazado 213802" d="M1259.187,852.54a1.285,1.285,0,0,1-.061.12v-.106Z" transform="translate(-156.896 -105.635)" fill="#e2c140"/>
    <path id="Trazado_213803" data-name="Trazado 213803" d="M1309.943,857.358a.505.505,0,0,1-.088.077c.01-.035.018-.07.026-.106Z" transform="translate(-201.093 -109.808)" fill="#e2c140"/>
    <path id="Trazado_213804" data-name="Trazado 213804" d="M1259.872,864.459c-.042.01-.084.018-.126.03A.28.28,0,0,1,1259.872,864.459Z" transform="translate(-157.436 -116.019)" fill="#e2c140"/>
    <path id="Trazado_213805" data-name="Trazado 213805" d="M1218.049,872.637c-.366-.028-.8.1-1.086-.057-.3-.167-.116-.645-.163-.984a10.679,10.679,0,0,0-1.037-3.18,9.077,9.077,0,0,0-4.046-3.6,9.24,9.24,0,0,0-5.31-.466,10.577,10.577,0,0,0-3.007,1.429,12.2,12.2,0,0,0-1.727,1.645,8.858,8.858,0,0,0-1.66,4,8.379,8.379,0,0,0,2.349,7.15c.1.1.193.214.29.319a8.957,8.957,0,0,0,3.925,1.995c.359.072.723.12,1.084.178a8.295,8.295,0,0,0,7.493-3.359c.094-.129.186-.167.316-.058a.47.47,0,0,0,.078.054c1.182.75,1.2.762.237,1.793a9.129,9.129,0,0,1-3.489,2.412,9.229,9.229,0,0,1-4.731.764,9.355,9.355,0,0,1-5.128-1.91,9.6,9.6,0,0,1-3.968-6.265,9.878,9.878,0,0,1,2.574-8.814,4.267,4.267,0,0,1,.319-.289,9.156,9.156,0,0,1,4.834-2.6c.042-.012.084-.019.126-.03a10.024,10.024,0,0,1,9.549,3.114,9.661,9.661,0,0,1,2.5,5.248c.057.362.057.734.106,1.1S1218.375,872.663,1218.049,872.637Z" transform="translate(-103.887 -114.318)" fill="#e2c140"/>
    <path id="Trazado_213806" data-name="Trazado 213806" d="M1338.9,958.831c-.383-.112-.769-.212-1.153-.32-.178-.051-.213.074-.265.195-.494,1.133-.495,1.133.61,1.652.087.041.174.081.26.124.1.051.192.036.236-.073.178-.444.35-.89.525-1.335C1339.126,958.9,1339,958.862,1338.9,958.831Z" transform="translate(-224.88 -197.949)" fill="#e2c140"/>
  </g>
</svg>
