<svg xmlns="http://www.w3.org/2000/svg" width="49.195" height="49.435" viewBox="0 0 49.195 49.435">
  <g id="Grupo_162577" data-name="Grupo 162577" transform="translate(-1339.125 -888.248)" opacity="0.6">
    <path id="Trazado_216886" data-name="Trazado 216886" d="M1344.959,908.978c1.668.026,3.337.005,5.059.005a10.333,10.333,0,0,0-.89,7.108,10.158,10.158,0,0,0,3.9,5.961,10.3,10.3,0,0,0,12.156.17,10.141,10.141,0,0,0,3.836-5.119,10.3,10.3,0,0,0-.6-8.119c1.595,0,3.137,0,4.679,0a9.916,9.916,0,0,0,1.154-.065,5.562,5.562,0,0,0,1.437-10.665c-.424-.174-1.042-.159-1.266-.459-.247-.331-.12-.927-.2-1.4a7.991,7.991,0,0,0-9.123-6.444,8.2,8.2,0,0,0-4.448,2.336c-.081-.1-.156-.181-.224-.269a9.553,9.553,0,0,0-5.474-3.531,4.533,4.533,0,0,1-1.1-.235h-2.124a.52.52,0,0,1-.154.086,9.539,9.539,0,0,0-8.3,9.345c-.009.334-.15.417-.413.517a5.547,5.547,0,0,0-2.745,8.105A5.47,5.47,0,0,0,1344.959,908.978Zm14.206,13.541a8.768,8.768,0,1,1,8.811-8.758A8.755,8.755,0,0,1,1359.166,922.519Zm-15.055-23.04a3.985,3.985,0,0,1,4.718,3.546c.028.329.129.415.421.377a2.241,2.241,0,0,1,.289,0c1.017,0,1.017,0,.821-1.018a5.581,5.581,0,0,0-5.116-4.546c-.341-.026-.371-.145-.365-.428a7.975,7.975,0,0,1,6.453-7.414,7.838,7.838,0,0,1,8,3.21.653.653,0,0,1,.063.851,7.706,7.706,0,0,0-.969,3.395c-.018.259.022.385.32.365.384-.026.834.113,1.141-.045.344-.177.154-.688.221-1.046A6.38,6.38,0,0,1,1372.769,898a5.574,5.574,0,0,1-.549,2.375c-.155.312-.1.465.219.559a.807.807,0,0,1,.129.065c.984.507.984.507,1.34-.534.042-.121.08-.244.116-.367.2-.674.2-.674.842-.454a3.968,3.968,0,0,1-1.152,7.722c-.981.023-1.962,0-2.943,0v.005c-1.013,0-2.027-.006-3.04,0a.662.662,0,0,1-.577-.249,10.289,10.289,0,0,0-15.867-.007.62.62,0,0,1-.524.257c-1.978-.01-3.957.01-5.935-.012a3.981,3.981,0,0,1-.717-7.888Z" transform="translate(-0.149 0)" fill="#e2c140"/>
    <path id="Trazado_216887" data-name="Trazado 216887" d="M1388.214,897.066c-.412-.473-.8-.962-1.206-1.444l-3.226-3.865c-1.291,1.549-2.558,3.066-3.82,4.589-.252.3-.735.613-.677.923s.551.536.853.8a.318.318,0,0,1,.038.03c.171.207.291.141.441-.045.494-.614,1-1.214,1.51-1.819l.852-1.019v.557q0,6.66.005,13.32a1.646,1.646,0,0,1-.233.861,61.6,61.6,0,0,1-18.759,20.222c-4.751,3.267-9.866,5.246-15.706,5.072-1.173-.035-1.158,0-1.174,1.163,0,.362.09.45.453.454a29.167,29.167,0,0,0,7.514-.764c0,.937-.022,1.805.01,2.672.014.386-.106.468-.475.467q-7.215-.019-14.43-.008c-1.043,0-1.014,0-1.056,1.044-.019.471.11.567.571.566q22.152-.021,44.3,0c.48,0,.6-.1.6-.594q-.023-22.2-.009-44.4c0-.174-.06-.366.07-.548.587.705,1.148,1.389,1.722,2.062.258.3.472.838.793.839s.624-.449.936-.7a.812.812,0,0,1,.075-.061C1388.369,897.326,1388.349,897.222,1388.214,897.066Zm-29.477,42.172c-.577-.023-1.156-.019-1.733,0-.256.008-.325-.076-.321-.326.013-.979.01-1.959,0-2.938,0-.216.041-.338.278-.413.609-.193,1.212-.412,1.805-.65.251-.1.308-.046.3.2-.008.642,0,1.284,0,1.926,0,.61-.009,1.22,0,1.83C1359.079,939.12,1359.035,939.25,1358.737,939.238Zm4.049,0c-.626-.008-1.253-.009-1.879,0-.191,0-.245-.062-.245-.248.006-1.574,0-3.149,0-4.723a.294.294,0,0,1,.158-.311c.728-.4,1.445-.816,2.242-1.269,0,2.138,0,4.207,0,6.275C1363.068,939.173,1362.988,939.237,1362.786,939.234Zm3.821.007c-.544-.037-1.092-.019-1.638-.005-.248.006-.333-.07-.332-.327.009-2.345.005-4.691,0-7.036a.345.345,0,0,1,.135-.335c.735-.5,1.466-1.014,2.262-1.568v.434c0,2.8-.007,5.59.008,8.386C1367.049,939.14,1366.981,939.266,1366.607,939.241Zm3.916,0a14.149,14.149,0,0,0-1.542,0c-.283.012-.346-.092-.345-.358q.012-4.917,0-9.833a.554.554,0,0,1,.215-.495c.7-.559,1.387-1.139,2.166-1.783v.51c0,3.824-.007,7.648.011,11.472C1371.033,939.166,1370.914,939.266,1370.523,939.24Zm3.944,0a9.835,9.835,0,0,0-1.4,0c-.354.024-.455-.068-.453-.44.019-2.524.01-5.048.01-7.572,0-1.833.006-3.665-.006-5.5a.9.9,0,0,1,.288-.714c.673-.662,1.316-1.355,1.971-2.035l.141.1v5.587c0,3.344-.01,6.688.012,10.031C1375.036,939.162,1374.891,939.271,1374.468,939.239Zm3.99,0a10.646,10.646,0,0,0-1.447,0c-.353.023-.417-.111-.416-.435q.016-6.2.007-12.4c0-1.576.01-3.153-.008-4.73a1.12,1.12,0,0,1,.312-.814c.689-.783,1.354-1.587,2.1-2.464v.574q0,9.87.012,19.739C1379.015,939.166,1378.877,939.269,1378.458,939.239Zm3.982,0c-.511-.039-1.028-.017-1.542-.006-.224.005-.335-.064-.309-.3a2.231,2.231,0,0,0,0-.241q0-11-.006-21.99a1.384,1.384,0,0,1,.265-.842c.7-1.007,1.38-2.028,2.129-3.133v.557q0,12.707.011,25.414C1382.989,939.143,1382.875,939.274,1382.44,939.241Z" transform="translate(0 -3.159)" fill="#e2c140"/>
    <path id="Trazado_216888" data-name="Trazado 216888" d="M1340.027,1233.015c.839,0,.839,0,.839-.825,0-.783,0-.783-.775-.783-.828,0-.828,0-.828.816C1339.263,1233.015,1339.263,1233.015,1340.027,1233.015Z" transform="translate(-0.125 -308.887)" fill="#e2c140"/>
    <path id="Trazado_216889" data-name="Trazado 216889" d="M1371.96,1231.407c-.776,0-.776,0-.776.774,0,.834,0,.834.82.834.786,0,.786,0,.786-.782C1372.79,1231.407,1372.79,1231.407,1371.96,1231.407Z" transform="translate(-28.858 -308.887)" fill="#e2c140"/>
    <path id="Trazado_216890" data-name="Trazado 216890" d="M1404.707,1232.158c0-.752,0-.752-.759-.752-.849,0-.849,0-.849.848,0,.76,0,.76.751.76C1404.707,1233.014,1404.707,1233.014,1404.707,1232.158Z" transform="translate(-57.585 -308.886)" fill="#e2c140"/>
    <path id="Trazado_216891" data-name="Trazado 216891" d="M1371.185,1264.138c0,.793,0,.793.765.793.841,0,.841,0,.841-.823,0-.786,0-.786-.775-.786C1371.185,1263.321,1371.185,1263.321,1371.185,1264.138Z" transform="translate(-28.859 -337.614)" fill="#e2c140"/>
    <path id="Trazado_216892" data-name="Trazado 216892" d="M1403.9,1264.931c.8,0,.8,0,.8-.813,0-.8,0-.8-.813-.8-.795,0-.795,0-.795.807S1403.1,1264.931,1403.9,1264.931Z" transform="translate(-57.585 -337.614)" fill="#e2c140"/>
    <path id="Trazado_216893" data-name="Trazado 216893" d="M1403.865,1296.847c.842,0,.842,0,.842-.822v-.048c0-.741,0-.741-.726-.741-.883,0-.883,0-.883.866C1403.1,1296.847,1403.1,1296.847,1403.865,1296.847Z" transform="translate(-57.585 -366.341)" fill="#e2c140"/>
    <path id="Trazado_216894" data-name="Trazado 216894" d="M1500.9,1071.806a7.477,7.477,0,0,0-3.942.971c-.848.5-.846.5-.237,1.285a1.539,1.539,0,0,1,.146.191c.16.292.314.283.593.095a5.573,5.573,0,0,1,8.02,7.23c-.151.288-.53.568-.438.837s.511.411.745.649c.34.346.525.216.741-.135a6.943,6.943,0,0,0,.3-7.359A6.859,6.859,0,0,0,1500.9,1071.806Z" transform="translate(-141.467 -165.226)" fill="#e2c140"/>
    <path id="Trazado_216895" data-name="Trazado 216895" d="M1477.977,1110.106a2.09,2.09,0,0,1-.384-.493c-.176-.3-.325-.308-.624-.106a5.515,5.515,0,0,1-6.771-.476,5.592,5.592,0,0,1-1.257-6.727c.155-.3.576-.573.442-.891-.12-.285-.535-.437-.791-.678s-.407-.23-.609.086a6.932,6.932,0,0,0-.449,7.31,6.854,6.854,0,0,0,5.927,3.908,7.651,7.651,0,0,0,4.377-1.169C1478.2,1110.639,1478.357,1110.452,1477.977,1110.106Z" transform="translate(-114.833 -191.113)" fill="#e2c140"/>
    <path id="Trazado_216896" data-name="Trazado 216896" d="M1516.138,1096.78a2.35,2.35,0,0,0-1.221,2.554,2.4,2.4,0,0,0,2.06,1.89,4.713,4.713,0,0,1,.478.065.733.733,0,0,1,.6.72.752.752,0,0,1-.57.8.65.65,0,0,1-.862-.336c-.155-.484-.474-.422-.819-.415a3.642,3.642,0,0,1-.578,0c-.343-.048-.375.125-.321.392a2.414,2.414,0,0,0,1.275,1.718c.144.078.281.112.288.326.008.246-.137.583.089.718.192.114.5.033.758.037a3.123,3.123,0,0,1,.386,0c.3.042.42-.078.37-.375a.7.7,0,0,1,.445-.823,2.31,2.31,0,0,0,1.086-2.525,2.424,2.424,0,0,0-2.144-1.862,1.855,1.855,0,0,1-.383-.033.768.768,0,0,1-.6-.778.731.731,0,0,1,.572-.745.683.683,0,0,1,.893.37c.136.384.359.416.681.394a4.157,4.157,0,0,1,.723,0c.288.03.327-.108.29-.34a2.264,2.264,0,0,0-1.182-1.722c-.3-.163-.431-.335-.379-.657.061-.369-.07-.541-.461-.474a2.046,2.046,0,0,1-.337,0,1.416,1.416,0,0,1-.241,0c-.448-.078-.665.071-.573.555C1516.511,1096.5,1516.4,1096.647,1516.138,1096.78Z" transform="translate(-158.195 -186.698)" fill="#e2c140"/>
  </g>
</svg>
