<svg xmlns="http://www.w3.org/2000/svg" width="112" height="112" viewBox="0 0 112 112">
  <g id="Grupo_164905" data-name="Grupo 164905" transform="translate(-269.676 -8748.596)">
    <circle id="Elipse_6386" data-name="Elipse 6386" cx="56" cy="56" r="56" transform="translate(269.676 8748.596)" fill="#12263f"/>
    <g id="Grupo_158385" data-name="Grupo 158385" transform="translate(682.194 8833.074)">
      <path id="Trazado_208057" data-name="Trazado 208057" d="M-331.389-8.876c-.375.025-.371-.139-.369-.437q.025-4.6.014-9.207a.959.959,0,0,0-.9-1.079,1,1,0,0,0-.981,1.019c-.015.167,0,.336,0,.5q0,4.1,0,8.2c0,.915-.077.995-.956.995q-12.93,0-25.861,0c-.8,0-.942-.144-.942-.961q0-8.2,0-16.4c0-.865.122-.988.98-.989q3.721,0,7.443,0,9.177,0,18.355,0c.892,0,.98.089.982.973,0,.988-.011,1.976.005,2.964.012.731.394,1.165.969,1.154.55-.01.909-.433.916-1.127.011-1.114,0-2.228,0-3.342a2.471,2.471,0,0,0-.607-1.676,2.753,2.753,0,0,0-2.275-.843q-9.461.013-18.922.01a3.716,3.716,0,0,1-1.354-.223c-2.124-.811-1.658-.153-1.746-2.448a1.233,1.233,0,0,1,.646-1.2,12.085,12.085,0,0,0,5.3-8.355c.061-.376.115-.6.629-.618a3.572,3.572,0,0,0,3.358-4.457,4.9,4.9,0,0,1-.207-1.413c-.055-2.877.177-5.762-.131-8.631a8.164,8.164,0,0,0-2.715-5.445,14.691,14.691,0,0,1-1.36-1.009,15.2,15.2,0,0,0-8.926-4.776,3.053,3.053,0,0,1-1.25-.229h-.126a5.221,5.221,0,0,1-2.523,0h-.5c-.059.161-.2.112-.319.125a16.075,16.075,0,0,0-9.123,4.152.961.961,0,0,0-.338,1.122.924.924,0,0,0,1.55.3,18.788,18.788,0,0,1,2.649-1.918,14.268,14.268,0,0,1,9.235-1.728,13.07,13.07,0,0,1,8.365,4.327,2.366,2.366,0,0,0,.666.567,5.211,5.211,0,0,1,2.577,3.487c.76,2.876.207,5.813.424,8.766a6.491,6.491,0,0,0-1.3-.264c-.352.022-.468-.111-.457-.468.025-.819.022-1.64,0-2.459a1.508,1.508,0,0,0-1.409-1.706,4.006,4.006,0,0,1-2.86-1.948,1.9,1.9,0,0,0-3.1-.48,15.069,15.069,0,0,1-11.992,3.2,4.742,4.742,0,0,0-5.431,3.481c-.058.263-.175.4-.467.377a2.737,2.737,0,0,0-1.106.211c-.195.07-.311.047-.309-.209a28.583,28.583,0,0,1,.333-5.84,16.213,16.213,0,0,1,1.539-4.038.935.935,0,0,0-.384-1.344.937.937,0,0,0-1.277.465,16.218,16.218,0,0,0-1.985,6.181c-.215,2.034-.065,4.075-.117,6.112a1.631,1.631,0,0,1-.072.681,3.551,3.551,0,0,0,3.3,4.817c.453.025.5.221.554.556a11.635,11.635,0,0,0,5.023,8.177,2.532,2.532,0,0,1,1.3,2.69.775.775,0,0,1-.559.786c-3.168,1.095-6.331,2.2-9.5,3.307a5.921,5.921,0,0,0-4.093,4.328c-.513,2.1-.9,4.225-1.319,6.344-.547,2.757-1.127,5.51-1.59,8.281a3.339,3.339,0,0,0,2.717,4.029.834.834,0,0,1,.2.119h23.719c.405-.32.787-.659.566-1.251-.215-.575-.7-.652-1.238-.644-.882.013-1.765.015-2.647,0a1.388,1.388,0,0,1-1.417-1.025c-.112-.423-.006-.71.491-.727.126,0,.252,0,.378,0q15.758,0,31.515.006c.311,0,.728-.163.883.266a1.037,1.037,0,0,1-.4,1.117,1.712,1.712,0,0,1-1.293.371q-10.967-.006-21.934,0c-.147,0-.294.005-.441,0-.535-.023-1.023.058-1.239.638s.156.932.557,1.255h24.1a3.756,3.756,0,0,0,2.289-1.9C-328.267-7.454-329.769-8.982-331.389-8.876Zm-18.748-38.239a1.819,1.819,0,0,1,1.689,1.648,1.821,1.821,0,0,1-1.7,1.637c-.249.013-.392-.029-.378-.33.021-.438.006-.879.005-1.318,0-.419.016-.838-.006-1.255C-350.542-47.034-350.444-47.135-350.137-47.114Zm-25.335,1.646c0,.419-.023.839.007,1.256.026.374-.157.412-.453.377a1.811,1.811,0,0,1-1.632-1.64,1.807,1.807,0,0,1,1.638-1.632c.3-.032.473.016.447.383C-375.5-46.308-375.472-45.887-375.472-45.469ZM-372.72-39a9.972,9.972,0,0,1-.84-3.911c-.014-1.681-.025-3.362-.016-5.043.011-2.165,1.362-3.277,3.522-3.013a16.83,16.83,0,0,0,13.129-3.459c.366-.294.493-.209.727.147a5.264,5.264,0,0,0,3.345,2.382c.362.079.456.243.451.6-.021,1.513-.009,3.026-.009,4.846a30.442,30.442,0,0,1-.224,5.286,10.6,10.6,0,0,1-9.019,8.363A10.755,10.755,0,0,1-372.72-39Zm-5.186,33.771c-1.449-.017-2.9.006-4.346-.012-1.523-.019-2.115-.684-1.894-2.183.162-1.1.426-2.178.61-3.273.051-.306.179-.362.449-.358.882.013,1.764,0,2.646,0,.861,0,1.722.015,2.582-.008.332-.009.421.092.417.42-.016,1.658-.02,3.317,0,4.975C-377.434-5.279-377.572-5.222-377.906-5.226ZM-364.122-8.8A2.184,2.184,0,0,0-366-6.009c.053.244.11.487.175.776h-3.043c-2.059,0-4.118-.012-6.177.01-.409,0-.519-.1-.516-.514.02-2.647.01-5.294.01-7.941a4.579,4.579,0,0,0-.008-.5.933.933,0,0,0-.953-.9.943.943,0,0,0-.928.927c-.043.39.179.955-.1,1.13-.319.2-.847.08-1.284.081-1.385.005-2.771,0-4.247,0,.2-1.032.388-2.027.588-3.019q.545-2.712,1.1-5.423a4.167,4.167,0,0,1,2.795-3.225c3.127-1.139,6.284-2.195,9.43-3.283a.474.474,0,0,1,.12-.011c.419,3.03,2.283,3.662,4.565,3.983,1.183.166,1.191.106,1.191,1.27,0,4.264-.023,8.529.022,12.793C-363.256-9.146-363.288-8.869-364.122-8.8Zm.848-17.515c0,.509-.063.7-.643.586-.555-.1-1.115-.194-1.659-.342A1.958,1.958,0,0,1-367.1-28c-.026-1.133-.006-2.267-.006-3.494a12.659,12.659,0,0,0,8.579-.127c0,.76-.013,1.464.006,2.168.008.313-.154.332-.39.328-.525-.009-1.051-.006-1.576,0A2.5,2.5,0,0,0-363.274-26.318Z" transform="translate(0)" fill="#fff"/>
      <path id="Trazado_208058" data-name="Trazado 208058" d="M-243.107-67.923h-2.523A10.141,10.141,0,0,0-243.107-67.923Z" transform="translate(-118.319)" fill="#fff"/>
      <path id="Trazado_208059" data-name="Trazado 208059" d="M-243.107-67.923a10.141,10.141,0,0,1-2.523,0A5.221,5.221,0,0,0-243.107-67.923Z" transform="translate(-118.319)" fill="#fff"/>
      <path id="Trazado_208060" data-name="Trazado 208060" d="M-161.133,231.572a3.113,3.113,0,0,0,3.129,3.11,3.114,3.114,0,0,0,3.108-3.13,3.115,3.115,0,0,0-3.128-3.111A3.114,3.114,0,0,0-161.133,231.572Zm4.343.01A1.238,1.238,0,0,1-158,232.788a1.224,1.224,0,0,1-1.227-1.247,1.216,1.216,0,0,1,1.2-1.2A1.23,1.23,0,0,1-156.791,231.582Z" transform="translate(-189.488 -249.617)" fill="#fff"/>
    </g>
  </g>
</svg>
