<svg xmlns="http://www.w3.org/2000/svg" width="152" height="151" viewBox="0 0 152 151">
  <g id="Grupo_158454" data-name="Grupo 158454" transform="translate(-930.676 -15746)">
    <ellipse id="Elipse_6396" data-name="Elipse 6396" cx="76" cy="75.5" rx="76" ry="75.5" transform="translate(930.676 15746)" fill="#fff"/>
    <g id="Grupo_158447" data-name="Grupo 158447" transform="translate(931.228 16195.143)">
      <path id="Trazado_208380" data-name="Trazado 208380" d="M122.871-379.93a7.526,7.526,0,0,0-6.692-7.627,41.492,41.492,0,0,0-4.8-.03,13.627,13.627,0,0,0,2.08-10.376,13.628,13.628,0,0,0-15.431-10.821,1.024,1.024,0,0,1-1.315-.743,18.335,18.335,0,0,0-3.876-5.7,19.792,19.792,0,0,0-30.882,3.377c-.327.519-.571.647-1.186.438A10.63,10.63,0,0,0,46.925-403.5c-.1.495-.207.735-.772.85a10.644,10.644,0,0,0-8.591,10.227,10.628,10.628,0,0,0,8.371,10.6c.619.142.787.335.783.963-.032,4.379-.017,8.759-.017,13.138,0,1.423,0,1.423-1.449,1.651a19.8,19.8,0,0,0-16.672,21.96,19.84,19.84,0,0,0,18.768,17.405,19.749,19.749,0,0,0,20.5-17.58c.072-.593.289-.713.834-.7,1.554.035,3.11.04,4.664,0,.6-.016.8.123.791.766-.037,3.141-.019,6.283-.016,9.425,0,4.881,3.221,8.1,8.1,8.105q16.28,0,32.559,0c4.871,0,8.093-3.23,8.094-8.112q0-12.757,0-25.514C122.877-366.855,122.891-373.393,122.871-379.93ZM46.34-362.275c1.276-1.324,2.483-1.324,3.76,0a12.756,12.756,0,0,1,2.68,5.087H43.662A12.758,12.758,0,0,1,46.34-362.275Zm-2.75,8.141q4.655.061,9.311,0c.6-.007.75.23.831.733.252,1.564.39,3.139.542,4.714.055.571-.136.684-.659.676-1.8-.027-3.61-.01-5.416-.01-1.774,0-3.548-.021-5.32.012-.566.011-.774-.1-.709-.725.161-1.542.293-3.086.533-4.619C42.79-353.9,42.956-354.142,43.59-354.134Zm10.353-8.006a15.2,15.2,0,0,1,7.1,4.977c-1.615,0-3.145-.009-4.674.006-.395,0-.449-.249-.534-.53A21.142,21.142,0,0,0,53.943-362.14Zm-11.416-.078a21.837,21.837,0,0,0-1.929,4.592c-.088.312-.224.475-.585.471-1.5-.017-3.006-.007-4.7-.007A16.873,16.873,0,0,1,42.528-362.218Zm-9.483,8.653c.126-.277.215-.565.65-.56,1.991.023,3.982.01,6.027.01a51.166,51.166,0,0,0-.6,5.65c-.015.3-.082.452-.427.45-2.371-.011-4.743-.006-7.131-.006A15.85,15.85,0,0,1,33.044-353.565Zm.817,14.694a.732.732,0,0,1-.795-.489,17.706,17.706,0,0,1-1.453-4.987c-.063-.5.028-.656.549-.638,1.076.038,2.155.011,3.232.011,1.046,0,2.092.023,3.137-.01.451-.014.583.114.608.573a35.615,35.615,0,0,0,.509,4.909c.1.493-.039.645-.559.636C37.347-338.9,35.6-338.892,33.861-338.871Zm1.442,3.038c1.7,0,3.2.01,4.7-.007a.528.528,0,0,1,.594.46,21.91,21.91,0,0,0,1.928,4.6A17.049,17.049,0,0,1,35.3-335.833Zm14.689,5.218a2.215,2.215,0,0,1-3.556-.014,12.68,12.68,0,0,1-2.781-5.188h9.127A12.4,12.4,0,0,1,49.992-330.615Zm2.907-8.248c-3.1-.038-6.207-.032-9.311,0-.543,0-.786-.123-.873-.685-.246-1.6-.4-3.2-.548-4.809-.05-.535.147-.629.619-.623,1.8.021,3.61.009,5.415.008s3.611.018,5.415-.011c.527-.008.711.111.657.678-.152,1.575-.291,3.15-.543,4.714C53.65-339.09,53.493-338.855,52.9-338.862Zm1.037,8.089a23.772,23.772,0,0,0,1.946-4.719c.084-.312.305-.345.582-.344,1.481.008,2.963,0,4.66,0A17.009,17.009,0,0,1,53.936-330.774Zm10.9-13.683a16.939,16.939,0,0,1-1.506,5.165.611.611,0,0,1-.644.417c-1.806-.011-3.612-.026-5.418.007-.539.01-.547-.231-.474-.622a35.518,35.518,0,0,0,.5-4.909c.024-.553.263-.59.694-.582,1.045.02,2.091.006,3.136.007,1.077,0,2.155.015,3.232-.008C64.773-344.991,64.894-344.9,64.84-344.456Zm-7.094-3.559c-.344,0-.411-.145-.427-.448a51.929,51.929,0,0,0-.6-5.652c2.044,0,4.035.013,6.026-.01.436-.005.524.282.651.559a16.012,16.012,0,0,1,1.481,5.545C62.488-348.022,60.117-348.027,57.746-348.015Zm16.377-31.427q0,15.224.018,30.448c0,.754-.118,1.04-.952,1-1.518-.08-3.044-.044-4.566-.011-.517.011-.7-.139-.766-.666a19.7,19.7,0,0,0-16.489-17.363c-1.622-.3-1.622-.3-1.622-1.981,0-4.25,0-8.5-.007-12.75,0-.489-.013-.79.668-.787,7.834.029,15.668.019,23.5.021a3.079,3.079,0,0,1,.369.055A8.243,8.243,0,0,0,74.123-379.443Zm1.895-5.518a1.053,1.053,0,0,1-.9.38c-9.044-.009-18.088.029-27.132-.027a7.565,7.565,0,0,1-7.38-7.66,7.642,7.642,0,0,1,7.41-7.55c1.694-.046,1.694-.046,1.734-1.7a7.623,7.623,0,0,1,11.423-6.415c.542.306,1.131,1.019,1.6.822.444-.186.608-1.043.893-1.605A16.857,16.857,0,0,1,79.9-418.072,16.713,16.713,0,0,1,94.71-406.261c.455,1.386.455,1.386,1.865.928A10.652,10.652,0,0,1,110.662-394.7a10.455,10.455,0,0,1-2.718,6.538,1.458,1.458,0,0,1-1.226.534c-4.22-.02-8.441-.011-12.661-.011-3.966,0-7.933.019-11.9-.007A7.644,7.644,0,0,0,76.018-384.961Zm43.811,50.175c0,3.171-1.858,5.046-5,5.047q-16.33,0-32.66,0c-3.108,0-5-1.871-5-4.955q0-22.471,0-44.943a4.576,4.576,0,0,1,4.9-4.948q16.425,0,32.85,0a4.58,4.58,0,0,1,4.9,4.952q0,11.283,0,22.566Q119.83-345.926,119.829-334.786Z" transform="translate(0)"/>
      <path id="Trazado_208381" data-name="Trazado 208381" d="M100.886-319.306c-2.661.063-5.323.021-7.985.024a1.5,1.5,0,0,1-1.646-1.266,1.332,1.332,0,0,1,.954-1.645c.619-.179.54-.561.535-.991a11.728,11.728,0,0,1,.01-1.52c.078-.659-.208-.728-.755-.629a4.638,4.638,0,0,0-3.815,4.926,4.6,4.6,0,0,0,4.523,4.165c1.394.024,2.789,0,4.183,0h2.947c2.047,0,2,0,2.068-2.044C101.932-319.108,101.729-319.327,100.886-319.306Z" transform="translate(-44.519 -71.398)"/>
      <path id="Trazado_208382" data-name="Trazado 208382" d="M180.9-391.988c-1.144,1.48-1.144,1.48.491,2.423a2.8,2.8,0,0,1,.411.235c.5.415.759.283,1.144-.249a10.318,10.318,0,0,1,10.461-4.51c.841.121,1.177-.049,1.283-.884a15.11,15.11,0,0,1,.46-1.846,2.37,2.37,0,0,0-.275-.115A13.741,13.741,0,0,0,180.9-391.988Z" transform="translate(-113.053 -17.748)"/>
      <path id="Trazado_208383" data-name="Trazado 208383" d="M309.578-346.87c-.028.441.1.555.556.624a4.176,4.176,0,0,1,3.8,3.338c.23,1.122.7,1.35,1.657,1.189a.563.563,0,0,1,.095,0,5.2,5.2,0,0,1,.854.008c.685.116.692-.265.64-.767a7.73,7.73,0,0,0-6.833-6.836c-.5-.051-.854-.051-.775.64A10.167,10.167,0,0,1,309.578-346.87Z" transform="translate(-209.564 -53.533)"/>
      <path id="Trazado_208384" data-name="Trazado 208384" d="M248.662-386.418c.594.409.969,1.42,1.719,1.211.658-.184,1.141-.958,1.734-1.429.341-.272.3-.443.022-.727a14.577,14.577,0,0,0-2.636-2.158c-.106-.067-.216-.129-.315-.188-.2.018-.264.158-.342.3-.185.331-.377.657-.567.985C247.579-387.223,247.551-387.182,248.662-386.418Z" transform="translate(-163.51 -23.433)" fill="#010101"/>
      <path id="Trazado_208385" data-name="Trazado 208385" d="M155.6-301.459c-1.569,0-1.569,0-1.569,1.573,0,1.474,0,1.474,1.478,1.474,1.569,0,1.569,0,1.569-1.573C157.074-301.459,157.074-301.459,155.6-301.459Z" transform="translate(-93.616 -89.222)"/>
      <path id="Trazado_208386" data-name="Trazado 208386" d="M264.917-265.544q-14.752,0-29.5,0c-2.4,0-3.568,1.164-3.569,3.541q0,20.843,0,41.686c0,2.34,1.173,3.526,3.491,3.526q14.752,0,29.5,0c2.4,0,3.57-1.158,3.57-3.543q0-10.422,0-20.843t0-20.843C268.408-264.362,267.238-265.544,264.917-265.544Zm-30.041,3.809c-.005-.622.158-.781.778-.778,4.824.027,9.648.015,14.472.015,4.792,0,9.585.017,14.377-.018.71-.005.887.162.878.876-.042,3.522-.035,7.045,0,10.568.006.622-.159.778-.779.777q-14.472-.031-28.944,0c-.619,0-.784-.154-.779-.777Q234.923-256.4,234.876-261.735Zm0,15.235c-.006-.624.161-.778.78-.776q14.472.031,28.944,0c.621,0,.783.157.778.778q-.046,5.332,0,10.663c.006.624-.161.78-.78.776-4.856-.026-9.712-.015-14.567-.015-4.761,0-9.521-.017-14.282.019-.712.005-.885-.165-.877-.877C234.914-239.455,234.907-242.978,234.876-246.5Zm30.5,25.9c.006.623-.159.778-.779.777q-14.472-.031-28.944,0c-.62,0-.784-.154-.779-.777q.047-5.331,0-10.663c-.006-.622.159-.781.779-.777,4.824.027,9.648.015,14.472.015,4.792,0,9.585.017,14.377-.019.711-.005.886.163.878.876C265.34-227.646,265.346-224.123,265.378-220.6Z" transform="translate(-151.627 -115.995)"/>
      <path id="Trazado_208387" data-name="Trazado 208387" d="M294.09-175.677c.545-.006.685-.16.673-.689-.034-1.554-.045-3.11,0-4.662.02-.634-.173-.777-.784-.773-2.279.013-2.279-.01-2.279,2.307v1.523C291.7-175.63,291.7-175.649,294.09-175.677Z" transform="translate(-196.251 -178.423)"/>
      <path id="Trazado_208388" data-name="Trazado 208388" d="M315.622-178.046c0,2.411,0,2.411,2.436,2.325a.5.5,0,0,1,.1,0c.429.07.538-.129.525-.534-.028-.824-.008-1.649-.008-2.474v-.761c0-2.411,0-2.411-2.436-2.325a.493.493,0,0,1-.095,0c-.429-.07-.534.129-.525.534C315.638-180.2,315.622-179.124,315.622-178.046Z" transform="translate(-214.075 -178.395)"/>
      <path id="Trazado_208389" data-name="Trazado 208389" d="M342.075-175.678c.465-.019.58-.15.573-.595-.025-1.586-.043-3.173.007-4.758.02-.638-.18-.774-.787-.771-2.276.013-2.277-.01-2.277,2.309v1.427C339.591-175.564,339.59-175.579,342.075-175.678Z" transform="translate(-231.95 -178.424)"/>
      <path id="Trazado_208390" data-name="Trazado 208390" d="M255.753-237.74c0,2.177,0,2.152,2.216,2.18.635.008.913-.1.847-.807-.068-.723-.015-1.458-.015-2.187v-.761c0-2.427,0-2.4-2.407-2.372-.579.008-.666.211-.651.712C255.777-239.9,255.753-238.819,255.753-237.74Z" transform="translate(-169.442 -133.775)"/>
      <path id="Trazado_208391" data-name="Trazado 208391" d="M282.314-235.926c.378-.033.474-.143.471-.5-.015-1.713-.01-3.426,0-5.139,0-.286-.037-.43-.393-.48-2.443-.343-2.657-.176-2.657,2.214v1.618C279.732-235.689,279.731-235.7,282.314-235.926Z" transform="translate(-187.326 -133.412)"/>
      <path id="Trazado_208392" data-name="Trazado 208392" d="M303.647-238.777v.762c0,2.493,0,2.48,2.525,2.344.416-.022.541-.125.531-.54-.027-1.078-.009-2.157-.009-3.236,0-2.494,0-2.481-2.526-2.344-.415.022-.545.125-.53.54C303.668-240.427,303.647-239.6,303.647-238.777Z" transform="translate(-205.147 -133.667)"/>
      <path id="Trazado_208393" data-name="Trazado 208393" d="M306.678-118.972q0-.333,0-.666c0-2.352,0-2.335-2.37-2.31-.521.005-.715.115-.691.671.046,1.045.013,2.093.013,3.14,0,2.409,0,2.4,2.465,2.308.439-.016.614-.1.593-.574C306.651-117.258,306.678-118.116,306.678-118.972Z" transform="translate(-205.131 -223.039)"/>
      <path id="Trazado_208394" data-name="Trazado 208394" d="M258.8-119.7c0-2.409,0-2.4-2.465-2.309-.439.016-.614.1-.593.575.038.855.011,1.712.011,2.569v.666c0,2.352,0,2.334,2.37,2.31.521-.006.715-.115.691-.671C258.767-117.6,258.8-118.651,258.8-119.7Z" transform="translate(-169.44 -222.98)"/>
      <path id="Trazado_208395" data-name="Trazado 208395" d="M282.786-121.693c0-.367-.111-.461-.479-.492-2.576-.216-2.575-.226-2.575,2.294v1.428c0,2.5,0,2.5,2.472,2.384a.517.517,0,0,1,.1,0c.368.051.491-.1.487-.475Q282.761-119.123,282.786-121.693Z" transform="translate(-187.326 -222.801)"/>
    </g>
  </g>
</svg>
