<svg xmlns="http://www.w3.org/2000/svg" width="367.75" height="403.591" viewBox="0 0 367.75 403.591">
  <g id="Grupo_154871" data-name="Grupo 154871" transform="translate(-222.768 -31.441)">
    <path id="Trazado_201126" data-name="Trazado 201126" d="M295.667,304.539,263.854,323.2c-8.066-2.474-18.342-1.709-25.124,2.269-8.251,4.841-8.2,12.6.122,17.321a25.287,25.287,0,0,0,6.258,2.454,33.523,33.523,0,0,0,4.973.859c6.617.643,13.679-.537,18.769-3.523,6.166-3.618,7.69-8.861,4.6-13.253l4.392-2.576-.124-2.787,4.619-.033-.116-2.609,4.619-.033-.116-2.61,4.619-.032-.116-2.61,4.62-.033-.117-2.61,4.933-.034,1.5-.883,1.661-6.852ZM250.9,340.254a8.631,8.631,0,0,1-7.81.055c-2.165-1.23-2.179-3.249-.03-4.509a8.629,8.629,0,0,1,7.809-.055C253.033,336.975,253.047,338.994,250.9,340.254Z" transform="translate(1.682 46.839)" fill="#c4d9e8" opacity="0.5"/>
    <g id="Grupo_154870" data-name="Grupo 154870" transform="translate(222.768 31.441)">
      <g id="Grupo_154827" data-name="Grupo 154827" transform="translate(264.416 72.947)">
        <g id="Grupo_154811" data-name="Grupo 154811" transform="translate(0 6.059)">
          <path id="Trazado_201127" data-name="Trazado 201127" d="M475.573,156.8a1.2,1.2,0,0,1-.264-.029,1.172,1.172,0,0,1-.879-1.4l11.426-49.605a1.172,1.172,0,0,1,2.283.526l-11.426,49.605A1.172,1.172,0,0,1,475.573,156.8Z" transform="translate(-444.027 -97.856)" fill="#5793ce"/>
          <path id="Trazado_201128" data-name="Trazado 201128" d="M462.611,153.813a1.2,1.2,0,0,1-.265-.029,1.171,1.171,0,0,1-.879-1.4l11.426-49.605a1.172,1.172,0,1,1,2.283.526l-11.426,49.605A1.17,1.17,0,0,1,462.611,153.813Z" transform="translate(-446.25 -98.368)" fill="#5793ce"/>
          <path id="Trazado_201129" data-name="Trazado 201129" d="M449.647,150.827a1.206,1.206,0,0,1-.265-.029,1.172,1.172,0,0,1-.879-1.4l11.426-49.605a1.172,1.172,0,1,1,2.283.526l-11.426,49.605A1.171,1.171,0,0,1,449.647,150.827Z" transform="translate(-448.473 -98.88)" fill="#5793ce"/>
        </g>
        <g id="Grupo_154816" data-name="Grupo 154816" transform="translate(3.712)">
          <g id="Grupo_154815" data-name="Grupo 154815">
            <g id="Grupo_154814" data-name="Grupo 154814">
              <g id="Grupo_154812" data-name="Grupo 154812" transform="translate(0 18.837)">
                <rect id="Rectángulo_45520" data-name="Rectángulo 45520" width="6.281" height="13.554" transform="translate(3.121 0) rotate(13.191)" fill="#5793ce"/>
                <path id="Trazado_201130" data-name="Trazado 201130" d="M456.6,123.7a4.911,4.911,0,0,1-4.325-1.015,1.354,1.354,0,0,1,.586-2.5,4.911,4.911,0,0,1,4.324,1.013A1.354,1.354,0,0,1,456.6,123.7Z" transform="translate(-451.642 -108.029)" fill="#5793ce"/>
              </g>
              <g id="Grupo_154813" data-name="Grupo 154813" transform="translate(0.638)">
                <rect id="Rectángulo_45521" data-name="Rectángulo 45521" width="10.178" height="21.258" transform="translate(4.897 0) rotate(13.192)" fill="#5793ce"/>
                <path id="Trazado_201131" data-name="Trazado 201131" d="M454.025,111.658l-1.047,4.466a8.123,8.123,0,0,0,6.115,1.434l1.047-4.466A8.129,8.129,0,0,0,454.025,111.658Z" transform="translate(-452.051 -90.651)" fill="#396caa"/>
                <path id="Trazado_201132" data-name="Trazado 201132" d="M460.217,115.664a7.958,7.958,0,0,1-7.007-1.642c-1.674-1.571-1.249-3.382.948-4.046a7.958,7.958,0,0,1,7.007,1.642C462.837,113.188,462.413,115,460.217,115.664Z" transform="translate(-452.187 -90.96)" fill="#5793ce"/>
              </g>
            </g>
          </g>
          <path id="Trazado_201133" data-name="Trazado 201133" d="M454.038,120.814a.635.635,0,0,1-1.152.348,2.3,2.3,0,0,1-.6-2,.635.635,0,0,1,1.152-.348A2.3,2.3,0,0,1,454.038,120.814Z" transform="translate(-451.539 -89.446)" fill="#d4ecff"/>
        </g>
        <g id="Grupo_154821" data-name="Grupo 154821" transform="translate(17.794 8.385)">
          <g id="Grupo_154820" data-name="Grupo 154820">
            <g id="Grupo_154819" data-name="Grupo 154819">
              <g id="Grupo_154817" data-name="Grupo 154817" transform="translate(0 18.837)">
                <rect id="Rectángulo_45522" data-name="Rectángulo 45522" width="6.281" height="13.554" transform="translate(3.121 0) rotate(13.191)" fill="#5793ce"/>
                <path id="Trazado_201134" data-name="Trazado 201134" d="M468.617,130.855a4.907,4.907,0,0,1-4.324-1.013,1.353,1.353,0,0,1,.585-2.5,4.9,4.9,0,0,1,4.324,1.013A1.353,1.353,0,0,1,468.617,130.855Z" transform="translate(-463.662 -115.187)" fill="#5793ce"/>
              </g>
              <g id="Grupo_154818" data-name="Grupo 154818" transform="translate(0.638)">
                <rect id="Rectángulo_45523" data-name="Rectángulo 45523" width="10.178" height="21.258" transform="matrix(0.974, 0.228, -0.228, 0.974, 4.897, 0)" fill="#5793ce"/>
                <path id="Trazado_201135" data-name="Trazado 201135" d="M466.045,118.816,465,123.282a8.122,8.122,0,0,0,6.115,1.433l1.047-4.466A8.128,8.128,0,0,0,466.045,118.816Z" transform="translate(-464.071 -97.808)" fill="#396caa"/>
                <path id="Trazado_201136" data-name="Trazado 201136" d="M472.237,122.82a7.95,7.95,0,0,1-7.007-1.642c-1.674-1.571-1.249-3.382.948-4.045a7.95,7.95,0,0,1,7.007,1.642C474.857,120.346,474.433,122.157,472.237,122.82Z" transform="translate(-464.207 -98.118)" fill="#5793ce"/>
              </g>
            </g>
          </g>
          <path id="Trazado_201137" data-name="Trazado 201137" d="M466.058,127.971a.635.635,0,0,1-1.152.348,2.3,2.3,0,0,1-.6-2,.635.635,0,0,1,1.152-.347A2.3,2.3,0,0,1,466.058,127.971Z" transform="translate(-463.559 -96.604)" fill="#d4ecff"/>
        </g>
        <g id="Grupo_154826" data-name="Grupo 154826" transform="translate(32.033 16.706)">
          <g id="Grupo_154825" data-name="Grupo 154825">
            <g id="Grupo_154824" data-name="Grupo 154824">
              <g id="Grupo_154822" data-name="Grupo 154822" transform="translate(0 18.837)">
                <rect id="Rectángulo_45524" data-name="Rectángulo 45524" width="6.281" height="13.554" transform="translate(3.121) rotate(13.191)" fill="#5793ce"/>
                <path id="Trazado_201138" data-name="Trazado 201138" d="M480.771,137.958a4.908,4.908,0,0,1-4.324-1.015,1.353,1.353,0,0,1,.585-2.5,4.911,4.911,0,0,1,4.324,1.013A1.354,1.354,0,0,1,480.771,137.958Z" transform="translate(-475.816 -122.289)" fill="#5793ce"/>
              </g>
              <g id="Grupo_154823" data-name="Grupo 154823" transform="translate(0.638)">
                <rect id="Rectángulo_45525" data-name="Rectángulo 45525" width="10.178" height="21.258" transform="matrix(0.974, 0.228, -0.228, 0.974, 4.896, 0)" fill="#5793ce"/>
                <path id="Trazado_201139" data-name="Trazado 201139" d="M478.2,125.918l-1.046,4.466a8.122,8.122,0,0,0,6.115,1.434l1.046-4.466A8.128,8.128,0,0,0,478.2,125.918Z" transform="translate(-476.225 -104.911)" fill="#396caa"/>
                <path id="Trazado_201140" data-name="Trazado 201140" d="M484.391,129.924a7.957,7.957,0,0,1-7.007-1.642c-1.673-1.571-1.249-3.382.948-4.046a7.958,7.958,0,0,1,7.007,1.642C487.012,127.448,486.587,129.259,484.391,129.924Z" transform="translate(-476.361 -105.22)" fill="#5793ce"/>
              </g>
            </g>
          </g>
          <path id="Trazado_201141" data-name="Trazado 201141" d="M478.213,135.074a.635.635,0,0,1-1.152.348,2.3,2.3,0,0,1-.6-2,.635.635,0,0,1,1.152-.348A2.3,2.3,0,0,1,478.213,135.074Z" transform="translate(-475.714 -103.706)" fill="#d4ecff"/>
        </g>
      </g>
      <path id="Trazado_201142" data-name="Trazado 201142" d="M306.2,382.972l-40.974-23.559c-2.758-1.592-2.412-4.374.773-6.214l39.767-22.959c3.185-1.839,8-2.038,10.763-.446L357.5,353.352c2.759,1.592,2.413,4.374-.772,6.214L316.96,382.525C313.774,384.365,308.956,384.564,306.2,382.972Z" transform="translate(-215.805 19.545)" fill="#c4d9e8" opacity="0.5"/>
      <g id="Grupo_154833" data-name="Grupo 154833" transform="translate(68.512 78.951)">
        <g id="Grupo_154829" data-name="Grupo 154829">
          <path id="Trazado_201143" data-name="Trazado 201143" d="M419.91,359.877,283.847,281.322c-3.848-2.222-3.366-6.1,1.079-8.67l92.648-53.472c4.445-2.566,11.168-2.844,15.016-.622l136.061,78.554c3.85,2.222,3.367,6.1-1.078,8.67l-92.648,53.472C430.482,361.82,423.758,362.1,419.91,359.877Z" transform="translate(-281.249 -78.557)" fill="#c4d9e8" opacity="0.5"/>
          <path id="Trazado_201144" data-name="Trazado 201144" d="M543.641,178.23,407.58,99.675a5.49,5.49,0,0,0-4.61-.566l.008-.014-.247.094-.06.022-4.918,1.881,4.413,2.161c-.019.081-.044.157-.063.24L379.942,204.375c-1.109,5.048,1.112,10.943,4.96,13.165l132.789,76.665-.473,5.628,5.374-2.083a7.557,7.557,0,0,0,3.85-5.474L548.6,191.395C549.712,186.347,547.491,180.452,543.641,178.23Z" transform="translate(-264.372 -98.834)" fill="#173d7a"/>
          <path id="Trazado_201145" data-name="Trazado 201145" d="M542.493,178.23,406.432,99.675a5.49,5.49,0,0,0-4.61-.566l.008-.014-.247.094-.06.022-4.918,1.881,4.413,2.161c-.019.081-.044.157-.063.24l-14.606,66.487,66.573,51.866,93.869-38.195A10.557,10.557,0,0,0,542.493,178.23Z" transform="translate(-263.224 -98.834)" fill="#396caa"/>
          <path id="Trazado_201146" data-name="Trazado 201146" d="M516.753,182.007l10.357-4.41c.19-4.011-1.47-8.155-4.2-10.371l-16.394,6.9Z" transform="translate(-242.614 -87.104)" fill="#274f89"/>
          <path id="Trazado_201147" data-name="Trazado 201147" d="M513.731,299.02,377.67,220.466c-3.848-2.222-6.07-8.117-4.961-13.165L394.871,106.42c1.109-5.049,5.129-7.34,8.977-5.118L539.91,179.857c3.85,2.222,6.071,8.116,4.961,13.165L522.709,293.9C521.6,298.951,517.581,301.243,513.731,299.02Z" transform="translate(-265.612 -98.556)" fill="#d4ecff"/>
          <path id="Trazado_201148" data-name="Trazado 201148" d="M509.964,290.433,382,216.59c-3.522-2.034-5.554-7.427-4.54-12.047l20.28-92.315c1.015-4.619,4.693-6.716,8.216-4.683l127.963,73.844c3.523,2.033,5.554,7.426,4.54,12.047l-20.28,92.315C517.164,290.37,513.485,292.467,509.964,290.433Z" transform="translate(-264.793 -97.473)" fill="#fff"/>
          <path id="Trazado_201149" data-name="Trazado 201149" d="M509.964,290.433,382,216.59c-3.522-2.034-5.554-7.427-4.54-12.047l20.28-92.315c1.015-4.619,4.693-6.716,8.216-4.683l127.963,73.844c3.523,2.033,5.554,7.426,4.54,12.047l-20.28,92.315C517.164,290.37,513.485,292.467,509.964,290.433Z" transform="translate(-264.793 -97.473)" fill="#fff"/>
          <path id="Trazado_201150" data-name="Trazado 201150" d="M531.247,283.6l-18.6-2.457L392.589,211.826c-3.848-2.221-10.572-1.944-15.016.623l-85.073,49.1-11.246-1.485v6.381h.011c-.073,1.475.766,2.894,2.582,3.942l136.062,78.554c3.848,2.222,10.572,1.944,15.016-.622l92.648-53.472c2.5-1.443,3.747-3.3,3.674-5.05h0Z" transform="translate(-281.249 -79.712)" fill="#173d7a"/>
          <path id="Trazado_201151" data-name="Trazado 201151" d="M441.038,236.205l-8.53-4.925H338.732L292.5,257.954l-11.246-1.485v6.381h.011c-.073,1.475.766,2.894,2.582,3.942l136.062,78.554a14.07,14.07,0,0,0,7.75,1.453Z" transform="translate(-281.249 -76.118)" fill="#396caa"/>
          <path id="Trazado_201152" data-name="Trazado 201152" d="M286.245,253.439l-4.991-.658v6.381h.011c-.073,1.475.766,2.894,2.582,3.942l2.4,1.384Z" transform="translate(-281.249 -72.43)" fill="#5793ce"/>
          <path id="Trazado_201153" data-name="Trazado 201153" d="M400.779,331.392a17.422,17.422,0,0,0,12.759-.793V316.366H400.779Z" transform="translate(-260.749 -61.525)" fill="#274f89"/>
          <path id="Trazado_201154" data-name="Trazado 201154" d="M419.91,344.117,283.847,265.561c-3.848-2.222-3.366-6.1,1.079-8.669l92.648-53.472c4.445-2.567,11.168-2.846,15.016-.623l136.061,78.555c3.85,2.222,3.367,6.1-1.078,8.669l-92.648,53.472C430.482,346.06,423.758,346.339,419.91,344.117Z" transform="translate(-281.249 -81.26)" fill="#d4ecff"/>
          <path id="Trazado_201155" data-name="Trazado 201155" d="M527.573,279.007l-92.648,53.472c-4.445,2.566-11.168,2.844-15.016.623L283.846,254.547a5.063,5.063,0,0,1-2.392-2.617c-.6,1.821.165,3.661,2.392,4.947l136.063,78.555c3.848,2.222,10.572,1.944,15.016-.622l92.648-53.472c2.987-1.726,4.175-4.043,3.471-6.053A7.238,7.238,0,0,1,527.573,279.007Z" transform="translate(-281.248 -72.576)" fill="#fff"/>
          <g id="Grupo_154828" data-name="Grupo 154828" transform="translate(53.977 124.874)">
            <path id="Trazado_201156" data-name="Trazado 201156" d="M333.814,235.291l-6.156-3.554c-.494-.285-.432-.784.139-1.113l7.266-4.2a2.143,2.143,0,0,1,1.928-.081l6.156,3.554c.494.286.432.784-.138,1.114l-7.267,4.2A2.143,2.143,0,0,1,333.814,235.291Z" transform="translate(-327.324 -201.871)" fill="#173d7a"/>
            <path id="Trazado_201157" data-name="Trazado 201157" d="M341.93,239.976l-6.156-3.554c-.494-.285-.432-.784.138-1.113l7.266-4.2a2.145,2.145,0,0,1,1.929-.08l6.156,3.554c.493.285.432.784-.139,1.113l-7.266,4.2A2.139,2.139,0,0,1,341.93,239.976Z" transform="translate(-325.932 -201.067)" fill="#173d7a"/>
            <path id="Trazado_201158" data-name="Trazado 201158" d="M350.045,244.662l-6.156-3.554c-.494-.286-.432-.784.138-1.113l7.267-4.2a2.146,2.146,0,0,1,1.928-.08l6.156,3.554c.494.286.432.784-.138,1.113l-7.267,4.2A2.146,2.146,0,0,1,350.045,244.662Z" transform="translate(-324.54 -200.264)" fill="#173d7a"/>
            <path id="Trazado_201159" data-name="Trazado 201159" d="M361.269,240.695l-6.156-3.554c-.494-.286-.432-.785.138-1.114l6.1-3.522a2.143,2.143,0,0,1,1.928-.08l6.156,3.554c.494.285.432.784-.138,1.113l-6.1,3.522A2.146,2.146,0,0,1,361.269,240.695Z" transform="translate(-322.615 -200.829)" fill="#173d7a"/>
            <path id="Trazado_201160" data-name="Trazado 201160" d="M369.384,245.38l-6.156-3.554c-.494-.286-.432-.784.138-1.113l6.1-3.523a2.143,2.143,0,0,1,1.928-.08l6.156,3.554c.494.286.432.784-.138,1.113l-6.1,3.523A2.146,2.146,0,0,1,369.384,245.38Z" transform="translate(-321.224 -200.025)" fill="#173d7a"/>
            <path id="Trazado_201161" data-name="Trazado 201161" d="M377.5,250.065l-6.156-3.554c-.494-.285-.432-.784.138-1.113l6.1-3.522a2.143,2.143,0,0,1,1.928-.081l6.156,3.554c.494.286.432.784-.138,1.114l-6.1,3.522A2.143,2.143,0,0,1,377.5,250.065Z" transform="translate(-319.832 -199.222)" fill="#173d7a"/>
            <path id="Trazado_201162" data-name="Trazado 201162" d="M385.614,254.751l-6.156-3.554c-.494-.286-.432-.785.139-1.114l6.1-3.522a2.143,2.143,0,0,1,1.928-.08l6.156,3.554c.494.285.432.784-.138,1.113l-6.1,3.522A2.143,2.143,0,0,1,385.614,254.751Z" transform="translate(-318.44 -198.418)" fill="#173d7a"/>
            <path id="Trazado_201163" data-name="Trazado 201163" d="M393.73,259.436l-6.156-3.554c-.494-.286-.432-.784.138-1.114l6.1-3.522a2.146,2.146,0,0,1,1.928-.08l6.156,3.554c.494.286.432.784-.138,1.113l-6.1,3.523A2.146,2.146,0,0,1,393.73,259.436Z" transform="translate(-317.048 -197.615)" fill="#173d7a"/>
            <path id="Trazado_201164" data-name="Trazado 201164" d="M401.845,264.121l-6.156-3.554c-.494-.285-.432-.784.138-1.113l6.1-3.522a2.139,2.139,0,0,1,1.928-.08l6.156,3.553c.494.286.432.784-.138,1.114l-6.1,3.522A2.143,2.143,0,0,1,401.845,264.121Z" transform="translate(-315.656 -196.811)" fill="#173d7a"/>
            <path id="Trazado_201165" data-name="Trazado 201165" d="M409.96,268.807l-6.156-3.554c-.494-.286-.432-.785.138-1.114l6.1-3.522a2.142,2.142,0,0,1,1.928-.08l6.156,3.554c.494.285.432.784-.138,1.113l-6.1,3.522A2.143,2.143,0,0,1,409.96,268.807Z" transform="translate(-314.265 -196.007)" fill="#173d7a"/>
            <path id="Trazado_201166" data-name="Trazado 201166" d="M418.075,273.492l-6.156-3.554c-.494-.286-.432-.784.139-1.113l6.1-3.523a2.143,2.143,0,0,1,1.928-.08l6.156,3.554c.494.286.432.784-.138,1.114l-6.1,3.522A2.146,2.146,0,0,1,418.075,273.492Z" transform="translate(-312.873 -195.204)" fill="#173d7a"/>
            <path id="Trazado_201167" data-name="Trazado 201167" d="M426.191,278.177l-6.156-3.554c-.494-.285-.432-.784.138-1.113l6.1-3.522a2.143,2.143,0,0,1,1.928-.081l6.156,3.554c.494.286.432.785-.139,1.114l-6.1,3.522A2.143,2.143,0,0,1,426.191,278.177Z" transform="translate(-311.481 -194.4)" fill="#173d7a"/>
            <path id="Trazado_201168" data-name="Trazado 201168" d="M434.306,282.862l-6.156-3.553c-.494-.286-.432-.784.138-1.114l6.1-3.522a2.143,2.143,0,0,1,1.928-.08l6.156,3.554c.494.285.432.784-.138,1.113l-6.1,3.522A2.139,2.139,0,0,1,434.306,282.862Z" transform="translate(-310.089 -193.597)" fill="#173d7a"/>
            <path id="Trazado_201169" data-name="Trazado 201169" d="M373.226,238.476l-6.156-3.554c-.494-.285-.432-.784.138-1.113l6.1-3.522a2.143,2.143,0,0,1,1.928-.08l6.156,3.553c.494.286.432.785-.138,1.114l-6.1,3.522A2.143,2.143,0,0,1,373.226,238.476Z" transform="translate(-320.565 -201.209)" fill="#396caa"/>
            <path id="Trazado_201170" data-name="Trazado 201170" d="M364.99,233.721l-6.156-3.554c-.494-.286-.432-.784.138-1.113l6.1-3.522a2.143,2.143,0,0,1,1.928-.081l6.156,3.554c.494.286.432.784-.139,1.114l-6.1,3.522A2.143,2.143,0,0,1,364.99,233.721Z" transform="translate(-321.977 -202.025)" fill="#396caa"/>
            <path id="Trazado_201171" data-name="Trazado 201171" d="M357.78,229.558,344.521,221.9c-.494-.286-.432-.785.138-1.114l6.1-3.522a2.143,2.143,0,0,1,1.928-.08l13.259,7.655c.494.286.432.784-.138,1.114l-6.1,3.522A2.143,2.143,0,0,1,357.78,229.558Z" transform="translate(-324.432 -203.442)" fill="#173d7a"/>
            <path id="Trazado_201172" data-name="Trazado 201172" d="M363.18,223.554l-10.759-6.211c-.494-.286-.432-.784.138-1.114l6.1-3.522a2.143,2.143,0,0,1,1.928-.08l10.759,6.212c.494.285.432.784-.138,1.113l-6.1,3.522A2.139,2.139,0,0,1,363.18,223.554Z" transform="translate(-323.077 -204.224)" fill="#173d7a"/>
            <path id="Trazado_201173" data-name="Trazado 201173" d="M381.341,243.162l-6.156-3.554c-.494-.286-.432-.784.138-1.114l6.1-3.522a2.143,2.143,0,0,1,1.928-.08l6.156,3.554c.494.285.432.784-.138,1.113l-6.1,3.522A2.143,2.143,0,0,1,381.341,243.162Z" transform="translate(-319.173 -200.406)" fill="#396caa"/>
            <path id="Trazado_201174" data-name="Trazado 201174" d="M389.456,247.847l-6.156-3.554c-.493-.286-.432-.784.139-1.113l6.1-3.522a2.145,2.145,0,0,1,1.929-.081l6.156,3.554c.493.286.432.784-.139,1.114l-6.1,3.522A2.145,2.145,0,0,1,389.456,247.847Z" transform="translate(-317.781 -199.602)" fill="#173d7a"/>
            <path id="Trazado_201175" data-name="Trazado 201175" d="M397.572,252.532l-6.156-3.554c-.494-.285-.432-.784.138-1.113l6.1-3.522a2.139,2.139,0,0,1,1.928-.08l6.156,3.554c.494.285.432.784-.138,1.113l-6.1,3.522A2.143,2.143,0,0,1,397.572,252.532Z" transform="translate(-316.389 -198.799)" fill="#173d7a"/>
            <path id="Trazado_201176" data-name="Trazado 201176" d="M405.687,257.218l-6.156-3.554c-.494-.286-.432-.784.138-1.114l6.1-3.522a2.142,2.142,0,0,1,1.928-.08l6.156,3.554c.494.286.432.784-.138,1.113l-6.1,3.522A2.143,2.143,0,0,1,405.687,257.218Z" transform="translate(-314.997 -197.995)" fill="#173d7a"/>
            <path id="Trazado_201177" data-name="Trazado 201177" d="M413.8,261.9l-6.156-3.554c-.494-.286-.432-.784.138-1.113l6.1-3.522a2.143,2.143,0,0,1,1.928-.081l6.156,3.554c.494.286.432.784-.138,1.114l-6.1,3.522A2.143,2.143,0,0,1,413.8,261.9Z" transform="translate(-313.606 -197.191)" fill="#173d7a"/>
            <path id="Trazado_201178" data-name="Trazado 201178" d="M421.917,266.588l-6.156-3.554c-.494-.285-.432-.784.139-1.113L422,258.4a2.142,2.142,0,0,1,1.93-.08l6.155,3.554c.494.285.432.784-.138,1.113l-6.1,3.522A2.143,2.143,0,0,1,421.917,266.588Z" transform="translate(-312.214 -196.388)" fill="#173d7a"/>
            <path id="Trazado_201179" data-name="Trazado 201179" d="M430.033,271.274l-6.156-3.554c-.494-.286-.432-.784.138-1.114l6.1-3.522a2.143,2.143,0,0,1,1.928-.08l6.156,3.554c.494.285.432.784-.138,1.113l-6.1,3.522A2.143,2.143,0,0,1,430.033,271.274Z" transform="translate(-310.822 -195.584)" fill="#173d7a"/>
            <path id="Trazado_201180" data-name="Trazado 201180" d="M438.148,275.959l-6.156-3.554c-.494-.286-.432-.784.138-1.113l6.1-3.523a2.146,2.146,0,0,1,1.928-.08l6.156,3.554c.494.286.432.784-.138,1.114l-6.1,3.522A2.143,2.143,0,0,1,438.148,275.959Z" transform="translate(-309.43 -194.781)" fill="#173d7a"/>
            <path id="Trazado_201181" data-name="Trazado 201181" d="M446.263,280.644l-6.156-3.554c-.494-.285-.432-.784.138-1.113l6.1-3.522a2.139,2.139,0,0,1,1.928-.08l6.156,3.553c.494.286.432.785-.138,1.114l-6.1,3.522A2.143,2.143,0,0,1,446.263,280.644Z" transform="translate(-308.038 -193.977)" fill="#173d7a"/>
            <path id="Trazado_201182" data-name="Trazado 201182" d="M461.755,289.589l-13.433-7.755c-.494-.286-.432-.784.139-1.113l6.1-3.523a2.146,2.146,0,0,1,1.928-.08l13.432,7.755c.494.286.432.784-.138,1.113l-6.1,3.523A2.146,2.146,0,0,1,461.755,289.589Z" transform="translate(-306.629 -193.164)" fill="#173d7a"/>
            <path id="Trazado_201183" data-name="Trazado 201183" d="M477.249,280.29l-11.338-6.545c-.494-.286-.432-.785.138-1.114l6.1-3.522a2.142,2.142,0,0,1,1.928-.08l11.338,6.545c.494.286.432.784-.139,1.114l-6.1,3.522A2.143,2.143,0,0,1,477.249,280.29Z" transform="translate(-303.613 -194.551)" fill="#173d7a"/>
            <path id="Trazado_201184" data-name="Trazado 201184" d="M395.553,242.245,389.4,238.69c-.494-.286-.432-.784.138-1.114l6.1-3.522a2.146,2.146,0,0,1,1.928-.08l6.156,3.554c.494.286.432.784-.138,1.114l-6.1,3.522A2.146,2.146,0,0,1,395.553,242.245Z" transform="translate(-316.735 -200.563)" fill="#173d7a"/>
            <path id="Trazado_201185" data-name="Trazado 201185" d="M387.236,237.443l-6.156-3.554c-.494-.286-.432-.784.138-1.113l6.1-3.523a2.146,2.146,0,0,1,1.928-.08l6.156,3.554c.494.286.432.784-.138,1.114l-6.1,3.522A2.143,2.143,0,0,1,387.236,237.443Z" transform="translate(-318.162 -201.387)" fill="#173d7a"/>
            <path id="Trazado_201186" data-name="Trazado 201186" d="M378.918,232.641l-6.155-3.554c-.494-.286-.433-.784.138-1.113l6.1-3.522a2.145,2.145,0,0,1,1.929-.081l6.156,3.554c.493.286.432.784-.139,1.114l-6.1,3.522A2.145,2.145,0,0,1,378.918,232.641Z" transform="translate(-319.588 -202.21)" fill="#396caa"/>
            <path id="Trazado_201187" data-name="Trazado 201187" d="M370.6,227.839l-6.156-3.554c-.494-.285-.432-.784.139-1.113l6.1-3.522a2.143,2.143,0,0,1,1.928-.081l6.156,3.554c.494.286.432.785-.138,1.114l-6.1,3.522A2.143,2.143,0,0,1,370.6,227.839Z" transform="translate(-321.015 -203.034)" fill="#173d7a"/>
            <path id="Trazado_201188" data-name="Trazado 201188" d="M403.668,246.93l-6.156-3.554c-.494-.285-.432-.784.138-1.113l6.1-3.522a2.143,2.143,0,0,1,1.928-.081l6.156,3.554c.494.286.432.785-.138,1.114l-6.1,3.522A2.143,2.143,0,0,1,403.668,246.93Z" transform="translate(-315.344 -199.759)" fill="#173d7a"/>
            <path id="Trazado_201189" data-name="Trazado 201189" d="M411.783,251.616l-6.156-3.554c-.494-.286-.432-.784.138-1.114l6.1-3.522a2.143,2.143,0,0,1,1.928-.08l6.156,3.554c.494.285.432.784-.138,1.113l-6.1,3.522A2.143,2.143,0,0,1,411.783,251.616Z" transform="translate(-313.952 -198.956)" fill="#173d7a"/>
            <path id="Trazado_201190" data-name="Trazado 201190" d="M419.9,256.3l-6.156-3.554c-.493-.286-.432-.784.139-1.114l6.1-3.522a2.149,2.149,0,0,1,1.929-.08l6.156,3.554c.493.286.432.784-.139,1.113l-6.1,3.523A2.145,2.145,0,0,1,419.9,256.3Z" transform="translate(-312.56 -198.152)" fill="#173d7a"/>
            <path id="Trazado_201191" data-name="Trazado 201191" d="M428.014,260.986l-6.156-3.554c-.494-.285-.432-.784.138-1.113l6.1-3.522a2.143,2.143,0,0,1,1.928-.08l6.156,3.553c.494.286.432.785-.138,1.114l-6.1,3.522A2.143,2.143,0,0,1,428.014,260.986Z" transform="translate(-311.168 -197.349)" fill="#173d7a"/>
            <path id="Trazado_201192" data-name="Trazado 201192" d="M436.129,265.672l-6.156-3.554c-.494-.286-.432-.785.138-1.114l6.1-3.522a2.143,2.143,0,0,1,1.928-.08l6.156,3.554c.494.285.432.784-.138,1.113l-6.1,3.522A2.143,2.143,0,0,1,436.129,265.672Z" transform="translate(-309.776 -196.545)" fill="#173d7a"/>
            <path id="Trazado_201193" data-name="Trazado 201193" d="M444.244,270.357l-6.156-3.554c-.494-.286-.432-.784.138-1.113l6.1-3.523a2.146,2.146,0,0,1,1.928-.08l6.156,3.554c.494.286.432.784-.138,1.113l-6.1,3.523A2.146,2.146,0,0,1,444.244,270.357Z" transform="translate(-308.385 -195.742)" fill="#173d7a"/>
            <path id="Trazado_201194" data-name="Trazado 201194" d="M452.359,275.042l-6.156-3.554c-.493-.285-.432-.784.139-1.113l6.1-3.522a2.145,2.145,0,0,1,1.93-.08l6.156,3.554c.493.285.432.784-.139,1.113l-6.1,3.522A2.145,2.145,0,0,1,452.359,275.042Z" transform="translate(-306.993 -194.938)" fill="#173d7a"/>
            <path id="Trazado_201195" data-name="Trazado 201195" d="M460.475,279.728l-6.156-3.554c-.494-.286-.432-.785.138-1.114l6.1-3.522a2.143,2.143,0,0,1,1.928-.08l6.156,3.554c.494.285.432.784-.138,1.113l-6.1,3.522A2.143,2.143,0,0,1,460.475,279.728Z" transform="translate(-305.601 -194.134)" fill="#173d7a"/>
            <path id="Trazado_201196" data-name="Trazado 201196" d="M468.59,284.413l-6.156-3.554c-.494-.286-.432-.784.138-1.113l6.1-3.523a2.146,2.146,0,0,1,1.928-.08l6.156,3.554c.494.286.432.784-.138,1.114l-6.1,3.522A2.146,2.146,0,0,1,468.59,284.413Z" transform="translate(-304.209 -193.331)" fill="#173d7a"/>
            <path id="Trazado_201197" data-name="Trazado 201197" d="M391.28,230.656l-6.156-3.554c-.494-.286-.432-.784.138-1.113l6.1-3.523a2.146,2.146,0,0,1,1.928-.08l6.156,3.554c.494.286.432.784-.139,1.114l-6.1,3.522A2.143,2.143,0,0,1,391.28,230.656Z" transform="translate(-317.468 -202.551)" fill="#173d7a"/>
            <path id="Trazado_201198" data-name="Trazado 201198" d="M383.205,225.994l-6.156-3.554c-.494-.286-.432-.784.138-1.113l6.1-3.523a2.146,2.146,0,0,1,1.928-.08l6.156,3.554c.494.286.432.784-.138,1.114l-6.1,3.522A2.143,2.143,0,0,1,383.205,225.994Z" transform="translate(-318.853 -203.35)" fill="#173d7a"/>
            <path id="Trazado_201199" data-name="Trazado 201199" d="M375.13,221.332l-6.156-3.554c-.494-.286-.432-.784.138-1.113l6.1-3.523a2.146,2.146,0,0,1,1.928-.08l6.156,3.554c.494.286.432.784-.138,1.114l-6.1,3.522A2.146,2.146,0,0,1,375.13,221.332Z" transform="translate(-320.238 -204.15)" fill="#173d7a"/>
            <path id="Trazado_201200" data-name="Trazado 201200" d="M367.055,216.67l-6.156-3.554c-.494-.286-.432-.784.138-1.113l6.1-3.523a2.146,2.146,0,0,1,1.928-.08l6.156,3.554c.494.286.432.784-.138,1.113l-6.1,3.523A2.143,2.143,0,0,1,367.055,216.67Z" transform="translate(-321.623 -204.949)" fill="#173d7a"/>
            <path id="Trazado_201201" data-name="Trazado 201201" d="M375.358,211.531l-6.156-3.554c-.494-.286-.432-.784.139-1.113l2.016-1.164a2.143,2.143,0,0,1,1.928-.08l6.156,3.553c.494.286.432.785-.138,1.114l-2.017,1.164A2.146,2.146,0,0,1,375.358,211.531Z" transform="translate(-320.199 -205.426)" fill="#173d7a"/>
            <path id="Trazado_201202" data-name="Trazado 201202" d="M385.9,217.615l-6.156-3.554c-.494-.286-.432-.784.138-1.114l2.017-1.163a2.139,2.139,0,0,1,1.928-.08l6.156,3.554c.494.285.432.784-.139,1.113l-2.016,1.164A2.143,2.143,0,0,1,385.9,217.615Z" transform="translate(-318.392 -204.383)" fill="#173d7a"/>
            <path id="Trazado_201203" data-name="Trazado 201203" d="M393.937,222.257l-6.156-3.554c-.494-.285-.432-.784.138-1.113l2.017-1.164a2.146,2.146,0,0,1,1.928-.08l6.156,3.554c.494.286.432.784-.138,1.113l-2.017,1.164A2.143,2.143,0,0,1,393.937,222.257Z" transform="translate(-317.013 -203.587)" fill="#173d7a"/>
            <path id="Trazado_201204" data-name="Trazado 201204" d="M401.978,226.9l-6.155-3.554c-.494-.285-.432-.784.138-1.113l2.016-1.164a2.143,2.143,0,0,1,1.928-.08l6.156,3.554c.494.285.432.784-.138,1.113l-2.016,1.164A2.145,2.145,0,0,1,401.978,226.9Z" transform="translate(-315.633 -202.79)" fill="#173d7a"/>
            <path id="Trazado_201205" data-name="Trazado 201205" d="M410.02,231.543l-6.156-3.554c-.494-.286-.432-.784.138-1.114l2.016-1.163a2.143,2.143,0,0,1,1.928-.081l6.156,3.554c.494.286.432.784-.138,1.114l-2.016,1.163A2.143,2.143,0,0,1,410.02,231.543Z" transform="translate(-314.254 -201.994)" fill="#173d7a"/>
            <path id="Trazado_201206" data-name="Trazado 201206" d="M454.913,257.462l-6.156-3.554c-.494-.286-.432-.784.138-1.114l2.016-1.163a2.143,2.143,0,0,1,1.928-.081L459,255.1c.494.286.432.784-.138,1.114l-2.016,1.163A2.143,2.143,0,0,1,454.913,257.462Z" transform="translate(-306.555 -197.549)" fill="#173d7a"/>
            <path id="Trazado_201207" data-name="Trazado 201207" d="M462.954,262.1l-6.156-3.554c-.494-.285-.432-.784.138-1.113l2.016-1.164a2.143,2.143,0,0,1,1.928-.08l6.156,3.554c.494.285.432.784-.138,1.113l-2.016,1.164A2.143,2.143,0,0,1,462.954,262.1Z" transform="translate(-305.176 -196.753)" fill="#173d7a"/>
            <path id="Trazado_201208" data-name="Trazado 201208" d="M471,266.747l-6.156-3.554c-.494-.286-.432-.784.138-1.113l2.017-1.164a2.139,2.139,0,0,1,1.928-.08l6.156,3.553c.494.286.432.785-.139,1.114l-2.016,1.165A2.146,2.146,0,0,1,471,266.747Z" transform="translate(-303.797 -195.956)" fill="#173d7a"/>
            <path id="Trazado_201209" data-name="Trazado 201209" d="M479.036,271.389l-6.156-3.554c-.494-.285-.432-.784.139-1.113l2.016-1.164a2.146,2.146,0,0,1,1.928-.08l6.156,3.554c.494.286.432.784-.138,1.113l-2.017,1.164A2.139,2.139,0,0,1,479.036,271.389Z" transform="translate(-302.417 -195.16)" fill="#173d7a"/>
            <path id="Trazado_201210" data-name="Trazado 201210" d="M399.4,235.341l-6.156-3.554c-.494-.285-.432-.784.138-1.113l6.1-3.522a2.143,2.143,0,0,1,1.928-.08l6.156,3.554c.494.285.432.784-.138,1.113l-6.1,3.522A2.143,2.143,0,0,1,399.4,235.341Z" transform="translate(-316.077 -201.747)" fill="#173d7a"/>
            <path id="Trazado_201211" data-name="Trazado 201211" d="M407.51,240.027l-6.156-3.554c-.494-.286-.432-.784.138-1.114l6.1-3.522a2.143,2.143,0,0,1,1.928-.08l6.156,3.554c.494.285.432.784-.138,1.113l-6.1,3.522A2.143,2.143,0,0,1,407.51,240.027Z" transform="translate(-314.685 -200.943)" fill="#173d7a"/>
            <path id="Trazado_201212" data-name="Trazado 201212" d="M415.625,244.712l-6.156-3.554c-.494-.286-.432-.784.138-1.113l6.1-3.522a2.143,2.143,0,0,1,1.928-.081L423.792,240c.494.286.432.784-.138,1.114l-6.1,3.522A2.143,2.143,0,0,1,415.625,244.712Z" transform="translate(-313.293 -200.14)" fill="#173d7a"/>
            <path id="Trazado_201213" data-name="Trazado 201213" d="M423.74,249.4l-6.155-3.554c-.494-.285-.432-.784.138-1.113l6.1-3.522a2.143,2.143,0,0,1,1.928-.08l6.156,3.554c.494.285.432.784-.139,1.113l-6.1,3.522A2.145,2.145,0,0,1,423.74,249.4Z" transform="translate(-311.901 -199.336)" fill="#173d7a"/>
            <path id="Trazado_201214" data-name="Trazado 201214" d="M431.856,254.083l-6.156-3.554c-.494-.286-.432-.784.138-1.114l6.1-3.522a2.143,2.143,0,0,1,1.928-.08l6.156,3.554c.494.286.432.784-.138,1.113l-6.1,3.522A2.143,2.143,0,0,1,431.856,254.083Z" transform="translate(-310.509 -198.533)" fill="#173d7a"/>
            <path id="Trazado_201215" data-name="Trazado 201215" d="M439.971,258.768l-6.156-3.554c-.494-.285-.432-.784.138-1.113l6.1-3.522a2.143,2.143,0,0,1,1.928-.081l6.156,3.554c.494.286.432.784-.138,1.114l-6.1,3.522A2.143,2.143,0,0,1,439.971,258.768Z" transform="translate(-309.117 -197.729)" fill="#173d7a"/>
            <path id="Trazado_201216" data-name="Trazado 201216" d="M448.086,263.453,441.93,259.9c-.494-.285-.432-.784.138-1.113l6.1-3.522a2.143,2.143,0,0,1,1.928-.08l6.156,3.554c.494.285.432.784-.138,1.113l-6.1,3.522A2.142,2.142,0,0,1,448.086,263.453Z" transform="translate(-307.726 -196.926)" fill="#173d7a"/>
            <path id="Trazado_201217" data-name="Trazado 201217" d="M456.2,268.139l-6.155-3.554c-.494-.286-.433-.784.138-1.114l6.1-3.522a2.145,2.145,0,0,1,1.929-.08l6.156,3.554c.493.286.432.784-.139,1.113l-6.1,3.523A2.149,2.149,0,0,1,456.2,268.139Z" transform="translate(-306.334 -196.122)" fill="#173d7a"/>
            <path id="Trazado_201218" data-name="Trazado 201218" d="M464.317,272.824l-6.156-3.554c-.494-.286-.432-.784.138-1.113l6.1-3.523a2.146,2.146,0,0,1,1.928-.08l6.156,3.554c.494.286.432.784-.138,1.114l-6.1,3.522A2.142,2.142,0,0,1,464.317,272.824Z" transform="translate(-304.942 -195.318)" fill="#173d7a"/>
            <path id="Trazado_201219" data-name="Trazado 201219" d="M354.752,236.932l-18.131-10.467c-.494-.286-.432-.785.138-1.114l6.1-3.522a2.143,2.143,0,0,1,1.928-.08l18.131,10.467c.494.286.432.784-.138,1.113l-6.1,3.523A2.146,2.146,0,0,1,354.752,236.932Z" transform="translate(-325.787 -202.66)" fill="#173d7a"/>
            <path id="Trazado_201220" data-name="Trazado 201220" d="M454.449,294.492l-18.13-10.467c-.494-.286-.432-.784.138-1.113l6.1-3.522a2.143,2.143,0,0,1,1.928-.081l18.13,10.469c.494.285.432.784-.138,1.113l-6.1,3.522A2.143,2.143,0,0,1,454.449,294.492Z" transform="translate(-308.688 -192.788)" fill="#173d7a"/>
            <path id="Trazado_201221" data-name="Trazado 201221" d="M420.242,285.19l-6.156-3.554c-.494-.285-.432-.784.139-1.113l7.266-4.2a2.143,2.143,0,0,1,1.928-.08l6.156,3.554c.494.285.432.784-.138,1.113l-7.267,4.2A2.143,2.143,0,0,1,420.242,285.19Z" transform="translate(-312.501 -193.313)" fill="#173d7a"/>
            <path id="Trazado_201222" data-name="Trazado 201222" d="M361.849,251.477,352,245.793c-.494-.285-.432-.784.138-1.113l7.267-4.2a2.139,2.139,0,0,1,1.928-.08l9.845,5.684c.494.285.432.784-.138,1.113l-7.267,4.2A2.143,2.143,0,0,1,361.849,251.477Z" transform="translate(-323.149 -199.46)" fill="#173d7a"/>
            <path id="Trazado_201223" data-name="Trazado 201223" d="M412.963,280.988l-9.845-5.684c-.494-.286-.432-.784.138-1.114l7.267-4.2a2.146,2.146,0,0,1,1.928-.08L422.3,275.6c.494.286.432.784-.138,1.114l-7.267,4.2A2.143,2.143,0,0,1,412.963,280.988Z" transform="translate(-314.382 -194.399)" fill="#173d7a"/>
            <path id="Trazado_201224" data-name="Trazado 201224" d="M373.558,258.237l-9.845-5.684c-.494-.285-.432-.784.138-1.113l7.267-4.2a2.143,2.143,0,0,1,1.928-.081l9.845,5.684c.494.286.432.785-.138,1.114l-7.267,4.2A2.143,2.143,0,0,1,373.558,258.237Z" transform="translate(-321.141 -198.301)" fill="#173d7a"/>
            <path id="Trazado_201225" data-name="Trazado 201225" d="M373.054,247.169l42.8,24.714a.586.586,0,0,1,0,1.111l-7.41,4.278a2.124,2.124,0,0,1-1.924,0l-42.8-24.714Z" transform="translate(-321.082 -198.267)" fill="#173d7a"/>
            <path id="Trazado_201226" data-name="Trazado 201226" d="M442.7,292.371l6.858,3.96c.4.234.354.642-.114.913l-2.973,1.716a1.757,1.757,0,0,1-1.58.066l-6.857-3.96c-.405-.233-.355-.642.114-.913l2.972-1.716A1.761,1.761,0,0,1,442.7,292.371Z" transform="translate(-308.384 -190.542)" fill="#173d7a"/>
            <path id="Trazado_201227" data-name="Trazado 201227" d="M434.514,287.647l6.857,3.96c.405.233.355.642-.114.913l-2.972,1.716a1.761,1.761,0,0,1-1.58.066l-6.858-3.96c-.405-.234-.354-.642.114-.913l2.972-1.716A1.763,1.763,0,0,1,434.514,287.647Z" transform="translate(-309.788 -191.352)" fill="#173d7a"/>
            <path id="Trazado_201228" data-name="Trazado 201228" d="M426.4,282.962l6.858,3.959c.405.234.354.643-.114.913l-2.972,1.716a1.756,1.756,0,0,1-1.582.066l-6.857-3.959c-.405-.234-.355-.643.114-.913l2.972-1.716A1.753,1.753,0,0,1,426.4,282.962Z" transform="translate(-311.179 -192.155)" fill="#173d7a"/>
            <path id="Trazado_201229" data-name="Trazado 201229" d="M439,285.06l6.858,3.958c.4.234.354.643-.114.913l-2.973,1.716a1.754,1.754,0,0,1-1.58.066l-6.857-3.959c-.405-.234-.355-.643.112-.913l2.973-1.716A1.753,1.753,0,0,1,439,285.06Z" transform="translate(-309.019 -191.796)" fill="#173d7a"/>
          </g>
        </g>
        <g id="Grupo_154832" data-name="Grupo 154832" transform="translate(121.898 28.295)">
          <g id="Grupo_154830" data-name="Grupo 154830">
            <path id="Trazado_201230" data-name="Trazado 201230" d="M429.023,142.746l-9.1-5.252a2.6,2.6,0,0,1-1.109-2.694h0a1.265,1.265,0,0,1,1.946-.929l9.1,5.252a2.6,2.6,0,0,1,1.109,2.694h0A1.265,1.265,0,0,1,429.023,142.746Z" transform="translate(-379.564 -121.154)" fill="#d4ecff"/>
            <path id="Trazado_201231" data-name="Trazado 201231" d="M448.153,153.791l-13.415-7.745a2.6,2.6,0,0,1-1.109-2.694h0a1.265,1.265,0,0,1,1.946-.929l13.415,7.745a2.6,2.6,0,0,1,1.111,2.694h0A1.266,1.266,0,0,1,448.153,153.791Z" transform="translate(-377.023 -119.688)" fill="#d4ecff"/>
            <path id="Trazado_201232" data-name="Trazado 201232" d="M415.486,179l-9.1-5.253a2.6,2.6,0,0,1-1.109-2.693h0a1.265,1.265,0,0,1,1.946-.929l9.1,5.252a2.6,2.6,0,0,1,1.111,2.694h0A1.266,1.266,0,0,1,415.486,179Z" transform="translate(-381.885 -114.937)" fill="#d4ecff"/>
            <path id="Trazado_201233" data-name="Trazado 201233" d="M432.608,188.88l-13.415-7.745a2.6,2.6,0,0,1-1.111-2.693h0a1.267,1.267,0,0,1,1.947-.93l13.415,7.745a2.6,2.6,0,0,1,1.109,2.694h0A1.265,1.265,0,0,1,432.608,188.88Z" transform="translate(-379.689 -113.669)" fill="#d4ecff"/>
            <path id="Trazado_201234" data-name="Trazado 201234" d="M405.614,136.576l-5.683-3.281a2.6,2.6,0,0,1-1.109-2.694h0a1.265,1.265,0,0,1,1.946-.929l5.683,3.281a2.6,2.6,0,0,1,1.111,2.693h0A1.267,1.267,0,0,1,405.614,136.576Z" transform="translate(-382.993 -121.875)" fill="#d4ecff"/>
            <path id="Trazado_201235" data-name="Trazado 201235" d="M422.276,153.539l-17.364-10.026a2.6,2.6,0,0,1-1.111-2.693h0a1.267,1.267,0,0,1,1.947-.93l17.364,10.026a2.6,2.6,0,0,1,1.109,2.694h0A1.265,1.265,0,0,1,422.276,153.539Z" transform="translate(-382.139 -120.122)" fill="#d4ecff"/>
            <path id="Trazado_201236" data-name="Trazado 201236" d="M407.6,159.756l-5.683-3.281a2.6,2.6,0,0,1-1.111-2.693h0a1.267,1.267,0,0,1,1.947-.93l5.683,3.281a2.6,2.6,0,0,1,1.111,2.694h0A1.266,1.266,0,0,1,407.6,159.756Z" transform="translate(-382.652 -117.899)" fill="#d4ecff"/>
            <path id="Trazado_201237" data-name="Trazado 201237" d="M435.362,205.159l-15.18-8.764a2.6,2.6,0,0,1-1.109-2.694h0a1.265,1.265,0,0,1,1.946-.929l15.18,8.764a2.6,2.6,0,0,1,1.109,2.693h0A1.265,1.265,0,0,1,435.362,205.159Z" transform="translate(-379.52 -111.052)" fill="#d4ecff"/>
            <path id="Trazado_201238" data-name="Trazado 201238" d="M402.576,171.542l-3.648-2.106a2.6,2.6,0,0,1-1.111-2.694h0a1.266,1.266,0,0,1,1.947-.929l3.648,2.106a2.6,2.6,0,0,1,1.109,2.694h0A1.265,1.265,0,0,1,402.576,171.542Z" transform="translate(-383.165 -115.676)" fill="#d4ecff"/>
            <path id="Trazado_201239" data-name="Trazado 201239" d="M400.466,185.012l-4.53-2.616a2.6,2.6,0,0,1-1.109-2.694h0a1.265,1.265,0,0,1,1.946-.929l4.53,2.616a2.6,2.6,0,0,1,1.111,2.693h0A1.266,1.266,0,0,1,400.466,185.012Z" transform="translate(-383.678 -113.453)" fill="#d4ecff"/>
            <path id="Trazado_201240" data-name="Trazado 201240" d="M416.6,194.325l-11.944-6.9a2.6,2.6,0,0,1-1.111-2.694h0a1.266,1.266,0,0,1,1.947-.929l11.944,6.9a2.6,2.6,0,0,1,1.111,2.693h0A1.267,1.267,0,0,1,416.6,194.325Z" transform="translate(-382.183 -112.59)" fill="#d4ecff"/>
            <path id="Trazado_201241" data-name="Trazado 201241" d="M403.028,193.835l-8.588-4.959a2.6,2.6,0,0,1-1.109-2.693h0a1.265,1.265,0,0,1,1.946-.929l8.588,4.958a2.6,2.6,0,0,1,1.109,2.693h0A1.265,1.265,0,0,1,403.028,193.835Z" transform="translate(-383.935 -112.342)" fill="#d4ecff"/>
            <path id="Trazado_201242" data-name="Trazado 201242" d="M445.064,210.792l-5.514-3.184a2.6,2.6,0,0,1-1.111-2.694h0a1.266,1.266,0,0,1,1.947-.929l5.514,3.184a2.6,2.6,0,0,1,1.111,2.694h0A1.266,1.266,0,0,1,445.064,210.792Z" transform="translate(-376.198 -109.129)" fill="#d4ecff"/>
            <path id="Trazado_201243" data-name="Trazado 201243" d="M427.039,170.977l-15.18-8.764a2.6,2.6,0,0,1-1.109-2.694h0a1.265,1.265,0,0,1,1.946-.929l15.18,8.764a2.6,2.6,0,0,1,1.109,2.694h0A1.265,1.265,0,0,1,427.039,170.977Z" transform="translate(-380.947 -116.915)" fill="#d4ecff"/>
            <path id="Trazado_201244" data-name="Trazado 201244" d="M429.872,165.268l-26.456-15.274a2.6,2.6,0,0,1-1.111-2.694h0a1.266,1.266,0,0,1,1.947-.929l26.455,15.274a2.6,2.6,0,0,1,1.111,2.694h0A1.265,1.265,0,0,1,429.872,165.268Z" transform="translate(-382.395 -119.01)" fill="#d4ecff"/>
            <path id="Trazado_201245" data-name="Trazado 201245" d="M415.6,171.719l-15.179-8.764a2.6,2.6,0,0,1-1.111-2.694h0a1.266,1.266,0,0,1,1.947-.929L416.44,168.1a2.6,2.6,0,0,1,1.111,2.693h0A1.267,1.267,0,0,1,415.6,171.719Z" transform="translate(-382.908 -116.787)" fill="#d4ecff"/>
            <path id="Trazado_201246" data-name="Trazado 201246" d="M435.451,175.834l-5.515-3.184a2.6,2.6,0,0,1-1.109-2.694h0a1.265,1.265,0,0,1,1.946-.929l5.515,3.184a2.6,2.6,0,0,1,1.111,2.694h0A1.266,1.266,0,0,1,435.451,175.834Z" transform="translate(-377.847 -115.125)" fill="#d4ecff"/>
            <path id="Trazado_201247" data-name="Trazado 201247" d="M485.9,175.583l-32.66-18.857a2.6,2.6,0,0,1-1.109-2.694h0a1.265,1.265,0,0,1,1.946-.929l32.661,18.857a2.6,2.6,0,0,1,1.109,2.694h0A1.265,1.265,0,0,1,485.9,175.583Z" transform="translate(-373.85 -117.856)" fill="#d4ecff"/>
            <path id="Trazado_201248" data-name="Trazado 201248" d="M415.679,186.451l-18.247-10.535a2.6,2.6,0,0,1-1.109-2.693h0a1.265,1.265,0,0,1,1.946-.929l18.247,10.534a2.6,2.6,0,0,1,1.109,2.694h0A1.265,1.265,0,0,1,415.679,186.451Z" transform="translate(-383.421 -114.565)" fill="#d4ecff"/>
            <path id="Trazado_201249" data-name="Trazado 201249" d="M414.842,134.559l-13.415-7.746a2.6,2.6,0,0,1-1.109-2.693h0a1.266,1.266,0,0,1,1.946-.93l13.415,7.746a2.6,2.6,0,0,1,1.109,2.693h0A1.266,1.266,0,0,1,414.842,134.559Z" transform="translate(-382.736 -122.986)" fill="#d4ecff"/>
            <path id="Trazado_201250" data-name="Trazado 201250" d="M402,200.589l-15.537-8.97a2.6,2.6,0,0,1-1.109-2.694h0a1.265,1.265,0,0,1,1.946-.929l15.537,8.97a2.6,2.6,0,0,1,1.111,2.693h0A1.267,1.267,0,0,1,402,200.589Z" transform="translate(-385.302 -111.872)" fill="#d4ecff"/>
          </g>
          <g id="Grupo_154831" data-name="Grupo 154831" transform="translate(101.091 76.969)">
            <path id="Trazado_201251" data-name="Trazado 201251" d="M490.814,228l-9.1-5.253a2.6,2.6,0,0,1-1.111-2.693h0a1.267,1.267,0,0,1,1.947-.93l9.1,5.253a2.6,2.6,0,0,1,1.109,2.694h0A1.265,1.265,0,0,1,490.814,228Z" transform="translate(-470.057 -183.502)" fill="#d4ecff"/>
            <path id="Trazado_201252" data-name="Trazado 201252" d="M497.6,202.54l-17.364-10.026a2.6,2.6,0,0,1-1.111-2.693h0a1.266,1.266,0,0,1,1.947-.93l17.364,10.026a2.6,2.6,0,0,1,1.111,2.694h0A1.266,1.266,0,0,1,497.6,202.54Z" transform="translate(-470.31 -188.687)" fill="#d4ecff"/>
            <path id="Trazado_201253" data-name="Trazado 201253" d="M482.93,208.757l-5.683-3.281a2.6,2.6,0,0,1-1.109-2.694h0a1.265,1.265,0,0,1,1.946-.929l5.683,3.281a2.6,2.6,0,0,1,1.111,2.694h0A1.266,1.266,0,0,1,482.93,208.757Z" transform="translate(-470.823 -186.464)" fill="#d4ecff"/>
            <path id="Trazado_201254" data-name="Trazado 201254" d="M477.9,220.543l-3.648-2.106a2.6,2.6,0,0,1-1.109-2.694h0a1.265,1.265,0,0,1,1.946-.929l3.648,2.106a2.6,2.6,0,0,1,1.111,2.693h0A1.266,1.266,0,0,1,477.9,220.543Z" transform="translate(-471.336 -184.241)" fill="#d4ecff"/>
            <path id="Trazado_201255" data-name="Trazado 201255" d="M502.366,219.978l-15.179-8.764a2.6,2.6,0,0,1-1.111-2.694h0a1.266,1.266,0,0,1,1.947-.929l15.179,8.764a2.6,2.6,0,0,1,1.111,2.694h0A1.266,1.266,0,0,1,502.366,219.978Z" transform="translate(-469.118 -185.48)" fill="#d4ecff"/>
            <path id="Trazado_201256" data-name="Trazado 201256" d="M505.2,214.269,478.743,199a2.6,2.6,0,0,1-1.109-2.694h0a1.265,1.265,0,0,1,1.946-.929l26.456,15.274a2.6,2.6,0,0,1,1.111,2.694h0A1.267,1.267,0,0,1,505.2,214.269Z" transform="translate(-470.566 -187.575)" fill="#d4ecff"/>
            <path id="Trazado_201257" data-name="Trazado 201257" d="M490.931,220.72l-15.18-8.764a2.6,2.6,0,0,1-1.109-2.694h0a1.266,1.266,0,0,1,1.946-.93l15.179,8.764a2.6,2.6,0,0,1,1.111,2.694h0A1.266,1.266,0,0,1,490.931,220.72Z" transform="translate(-471.08 -185.353)" fill="#d4ecff"/>
            <path id="Trazado_201258" data-name="Trazado 201258" d="M491.006,235.452,472.76,224.916a2.6,2.6,0,0,1-1.111-2.693h0a1.267,1.267,0,0,1,1.947-.93l18.246,10.535a2.6,2.6,0,0,1,1.111,2.694h0A1.266,1.266,0,0,1,491.006,235.452Z" transform="translate(-471.593 -183.13)" fill="#d4ecff"/>
          </g>
        </g>
      </g>
      <g id="Grupo_154836" data-name="Grupo 154836" transform="translate(44.998 321.911)">
        <g id="Grupo_154834" data-name="Grupo 154834" transform="translate(50.559 0)">
          <path id="Trazado_201259" data-name="Trazado 201259" d="M344.587,344.832,338.3,341.2l23.195-13.392a1.211,1.211,0,0,0,0-2.294L337.8,311.833a4.4,4.4,0,0,0-3.974,0l-23.2,13.392-6.291-3.632L327.53,308.2c4.564-2.635,11.992-2.635,16.556,0l23.7,13.681c4.565,2.635,4.565,6.922,0,9.558Z" transform="translate(-304.335 -306.224)" fill="#396caa"/>
        </g>
        <g id="Grupo_154835" data-name="Grupo 154835" transform="translate(0 6.671)">
          <path id="Trazado_201260" data-name="Trazado 201260" d="M361.96,345.455c0-3.363-2.044-7.27-4.567-8.727l-42.027-24.263a2.927,2.927,0,0,0-2.958-.253l0,0-50.178,29.159,48.524,36.565,49.434-28.693a2.3,2.3,0,0,0,.437-.254h0A4.3,4.3,0,0,0,361.96,345.455Z" transform="translate(-260.998 -311.919)" fill="#d4ecff"/>
          <path id="Trazado_201261" data-name="Trazado 201261" d="M304.581,373.736l49.434-28.693a2.3,2.3,0,0,0,.437-.254h0a4.3,4.3,0,0,0,1.336-3.532,11.2,11.2,0,0,0-1.231-4.861l-56.352,32.535Z" transform="translate(-254.827 -307.721)" fill="#173d7a"/>
          <path id="Trazado_201262" data-name="Trazado 201262" d="M307.771,373.573l-42.026-24.264c-2.522-1.456-4.568-5.363-4.568-8.727h0c0-3.362,2.045-4.909,4.568-3.452l42.026,24.264c2.522,1.456,4.568,5.363,4.568,8.727h0C312.339,373.484,310.293,375.03,307.771,373.573Z" transform="translate(-261.178 -307.689)" fill="#5793ce"/>
        </g>
        <path id="Trazado_201263" data-name="Trazado 201263" d="M297.3,362.834l-6.468-3.731a2.792,2.792,0,0,1-1.166-2.227h0c0-.858.522-1.252,1.166-.881l6.468,3.731a2.792,2.792,0,0,1,1.166,2.227h0C298.464,362.81,297.942,363.205,297.3,362.834Z" transform="translate(-256.292 -297.712)" fill="#173d7a"/>
      </g>
      <g id="Grupo_154843" data-name="Grupo 154843" transform="translate(234.745)">
        <g id="Grupo_154839" data-name="Grupo 154839">
          <path id="Trazado_201264" data-name="Trazado 201264" d="M517.393,139.765l14.337-5.7-3.225-21.093-6.96,6.166Z" transform="translate(-406.982 -17.458)" fill="#5793ce"/>
          <path id="Trazado_201265" data-name="Trazado 201265" d="M435.488,53.925l34.636-13.841s-6.38,13.813-6.392,13.841-18.495,4.281-18.495,4.281Z" transform="translate(-421.029 -29.958)" fill="#5793ce"/>
          <path id="Trazado_201266" data-name="Trazado 201266" d="M541.162,112.8a15.257,15.257,0,0,0-5.613-1.929c1.912-12.747-3.6-26.2-14.165-32.309a23.049,23.049,0,0,0-9.9-3.113c4.142-15.451-2.255-33.012-15.293-40.544a24.013,24.013,0,0,0-20.662-1.992l.006-.012-.319.128c-.168.064-.333.131-.5.2L463.862,37.5l4.328,3.724c-5.869,1.849-10.944,6.594-13.625,13.609-4.941,12.937.128,28.668,11.324,35.137l66.555,56.1c8.407,4.857,13.511,2.829,17.222-6.885S549.57,117.657,541.162,112.8Z" transform="translate(-418.082 -31.441)" fill="#5793ce"/>
          <path id="Trazado_201267" data-name="Trazado 201267" d="M456.875,49.135l37.334-14.914a23.854,23.854,0,0,0-19.4-1.307l.006-.012-.319.128c-.168.064-.333.131-.5.2L463.141,37.5l4.328,3.724A20.706,20.706,0,0,0,456.875,49.135Z" transform="translate(-417.361 -31.441)" fill="#5793ce"/>
          <path id="Trazado_201268" data-name="Trazado 201268" d="M504.865,98.4l24.653-9.832A29.7,29.7,0,0,0,516.54,71.775a24.257,24.257,0,0,0-2.489-1.252l-33.96,13.563Z" transform="translate(-413.38 -24.738)" fill="#5793ce"/>
          <path id="Trazado_201269" data-name="Trazado 201269" d="M468.686,38.964l10.581,6.113,18.36-7.311a29.06,29.06,0,0,0-4.186-2.951,25.924,25.924,0,0,0-7.178-2.847Z" transform="translate(-415.336 -31.35)" fill="#d4ecff"/>
          <path id="Trazado_201270" data-name="Trazado 201270" d="M523.489,82.423l-17.745,7.064,5.236,7.356,15.226-6.054A34.184,34.184,0,0,0,523.489,82.423Z" transform="translate(-408.98 -22.697)" fill="#d4ecff"/>
          <path id="Trazado_201271" data-name="Trazado 201271" d="M534.36,116.782a15.242,15.242,0,0,0-5.613-1.928c1.912-12.748-3.737-26.286-14.306-32.393a22.331,22.331,0,0,0-9.762-3.028c4.141-15.452-2.255-33.012-15.293-40.545-14.021-8.1-30.4-1.535-36.593,14.666-.211.551-.4,1.1-.585,1.661-10.7-4.759-22.526.6-27.168,12.757-4.943,12.937.128,28.668,11.324,35.137l84.557,48.853c8.408,4.857,18.232.92,21.942-8.795S542.767,121.64,534.36,116.782Z" transform="translate(-423.146 -30.759)" fill="#d4ecff"/>
          <g id="Grupo_154837" data-name="Grupo 154837" transform="translate(12.782 3.684)">
            <path id="Trazado_201272" data-name="Trazado 201272" d="M529.809,115.949a15.264,15.264,0,0,0-5.613-1.929c1.911-12.747-3.738-26.286-14.308-32.392a22.328,22.328,0,0,0-9.761-3.03c4.141-15.451-2.256-33.012-15.294-40.544a23.87,23.87,0,0,0-24.975.114,23.9,23.9,0,0,1,23.231.862c13.038,7.532,19.434,25.093,15.293,40.545a22.316,22.316,0,0,1,9.762,3.028C518.713,88.71,524.362,102.248,522.45,115a15.242,15.242,0,0,1,5.613,1.928c8.408,4.858,12.214,16.671,8.5,26.385a17.421,17.421,0,0,1-6.609,8.485,16.925,16.925,0,0,0,8.354-9.461C542.023,132.619,538.216,120.806,529.809,115.949Z" transform="translate(-429.632 -34.585)" fill="#fff"/>
            <path id="Trazado_201273" data-name="Trazado 201273" d="M450.336,52.708c.158-.486.33-.969.51-1.45a18.824,18.824,0,0,0-16.789,1.712A18.883,18.883,0,0,1,450.336,52.708Z" transform="translate(-434.057 -31.936)" fill="#fff"/>
          </g>
          <g id="Grupo_154838" data-name="Grupo 154838" transform="translate(5.449 8.901)">
            <path id="Trazado_201274" data-name="Trazado 201274" d="M441.853,57.125a11.1,11.1,0,0,0-4.459.9c-3.358,1.464-6.261,4.863-7.965,9.323-4.342,11.367.3,25.771,10.137,31.454l84.558,48.854c2.657,1.535,5.408,1.922,7.543,1.067s4.037-3.11,5.21-6.18c3.134-8.2-.217-18.6-7.316-22.7a10.983,10.983,0,0,0-4.021-1.41l-3.433-.464.44-2.943c1.763-11.756-3.666-24.165-12.908-29.5a17.8,17.8,0,0,0-7.778-2.472l-4.256-.275.957-3.57c3.8-14.169-2.342-30.534-13.977-37.256-5.41-3.126-11.111-3.757-16.046-1.781s-8.971,6.512-11.359,12.764c-.186.485-.355.974-.515,1.466l-2.281,7-6.632-2.949A14.557,14.557,0,0,0,441.853,57.125Z" transform="translate(-427.797 -39.039)" fill="#396caa"/>
          </g>
        </g>
        <g id="Grupo_154842" data-name="Grupo 154842" transform="translate(43.695 48.534)">
          <path id="Trazado_201275" data-name="Trazado 201275" d="M475.165,101.289l2.913-1.173-2.266-1.743Z" transform="translate(-457.919 -68.495)" fill="#5793ce"/>
          <path id="Trazado_201276" data-name="Trazado 201276" d="M473.922,74.088l2.83-1.147-.2,1.187Z" transform="translate(-458.133 -72.857)" fill="#5793ce"/>
          <path id="Trazado_201277" data-name="Trazado 201277" d="M483.173,95.373l2.952-1.19-4.3-4.333Z" transform="translate(-456.778 -69.957)" fill="#5793ce"/>
          <g id="Grupo_154840" data-name="Grupo 154840" transform="translate(2.959)">
            <path id="Trazado_201278" data-name="Trazado 201278" d="M478.768,102.9l-11.284-6.516a1.829,1.829,0,0,1-.771-1.859l2.7-12.807,13.359,7.712-2.7,12.807A.851.851,0,0,1,478.768,102.9Z" transform="translate(-462.334 -71.352)" fill="#5793ce"/>
            <path id="Trazado_201279" data-name="Trazado 201279" d="M478.6,72.967l-15.248,7.689c-.647.326-.431,1.542.354,2l12.447,7.186L488.6,97.024c.786.453,1.412-.276,1.029-1.2l-9.042-21.713C480.195,73.177,479.259,72.636,478.6,72.967Z" transform="translate(-462.97 -72.869)" fill="#5793ce"/>
          </g>
          <g id="Grupo_154841" data-name="Grupo 154841" transform="translate(0 1.195)">
            <path id="Trazado_201280" data-name="Trazado 201280" d="M476.243,103.917,464.959,97.4a1.827,1.827,0,0,1-.771-1.86l2.7-12.807,13.358,7.713-2.7,12.807A.851.851,0,0,1,476.243,103.917Z" transform="translate(-459.808 -72.372)" fill="#d4ecff"/>
            <path id="Trazado_201281" data-name="Trazado 201281" d="M476.074,73.987l-15.248,7.687c-.648.327-.432,1.543.354,2l12.447,7.186,12.447,7.187c.785.453,1.412-.276,1.027-1.2L478.06,75.134C477.67,74.2,476.733,73.656,476.074,73.987Z" transform="translate(-460.444 -73.889)" fill="#d4ecff"/>
          </g>
        </g>
      </g>
      <g id="Grupo_154869" data-name="Grupo 154869" transform="translate(0 302.895)">
        <g id="Grupo_154868" data-name="Grupo 154868" transform="translate(0 0)">
          <path id="Trazado_201282" data-name="Trazado 201282" d="M253.68,315.011l10.181,5.783,10.388-6.1-.028-2.651-.088.052-.008-.187,4.62-.032-.027-2.611,4.531-.032-.027-2.611,4.531-.032-.027-2.611,4.531-.032-.027-2.611,4.843-.034,1.5-.883,1.661-6.853-.028-2.651-.8,2.541-7.332-.979Z" transform="translate(-217.466 -289.832)" fill="#396caa"/>
          <g id="Grupo_154867" data-name="Grupo 154867">
            <g id="Grupo_154866" data-name="Grupo 154866">
              <g id="Grupo_154859" data-name="Grupo 154859" transform="translate(11.492)">
                <g id="Grupo_154845" data-name="Grupo 154845" transform="translate(24.694)">
                  <g id="Grupo_154844" data-name="Grupo 154844">
                    <path id="Trazado_201283" data-name="Trazado 201283" d="M263.837,318.3l10.388-6.1-.125-2.787,4.62-.032-.117-2.61,4.62-.032-.117-2.61,4.62-.032-.117-2.61,4.62-.032-.117-2.61,4.933-.035,1.5-.883,1.661-6.853-8.161-1.09-38.4,22.528Z" transform="translate(-253.656 -289.992)" fill="#d4ecff"/>
                  </g>
                </g>
                <g id="Grupo_154847" data-name="Grupo 154847" transform="translate(24.694 18.126)">
                  <g id="Grupo_154846" data-name="Grupo 154846">
                    <path id="Trazado_201284" data-name="Trazado 201284" d="M270.754,311.59a14.294,14.294,0,0,0-4.718-4.067,24.346,24.346,0,0,0-4.877-2.058l-7.5,4.4,10.182,5.784Z" transform="translate(-253.656 -305.464)" fill="#396caa"/>
                  </g>
                </g>
                <g id="Grupo_154849" data-name="Grupo 154849" transform="translate(37.44 0.907)">
                  <g id="Grupo_154848" data-name="Grupo 154848">
                    <path id="Trazado_201285" data-name="Trazado 201285" d="M298.068,292.1l.279-1.15-1.369-.183L264.536,309.8l1.708.97Z" transform="translate(-264.536 -290.766)" fill="#5793ce"/>
                  </g>
                </g>
                <g id="Grupo_154851" data-name="Grupo 154851" transform="translate(0.002 29.774)">
                  <g id="Grupo_154850" data-name="Grupo 154850">
                    <path id="Trazado_201286" data-name="Trazado 201286" d="M232.691,319.176l-.112-3.769,1.207,2.545Z" transform="translate(-232.579 -315.407)" fill="#d3d0cf"/>
                  </g>
                </g>
                <path id="Trazado_201287" data-name="Trazado 201287" d="M238.948,328.938c8.318,4.725,21.749,4.631,30-.21,4.137-2.427,6.186-5.587,6.152-8.73v0l-.116-3.992-.678.754a12.98,12.98,0,0,0-5.48-5.355c-8.318-4.725-21.749-4.631-30,.21S230.63,324.214,238.948,328.938Zm12.015-7.05c2.166,1.23,2.18,3.25.032,4.509a8.631,8.631,0,0,1-7.81.055c-2.165-1.23-2.179-3.249-.032-4.509A8.632,8.632,0,0,1,250.963,321.888Z" transform="translate(-232.561 -286.916)" fill="#396caa"/>
                <g id="Grupo_154853" data-name="Grupo 154853" transform="translate(0 17.241)">
                  <g id="Grupo_154852" data-name="Grupo 154852">
                    <path id="Trazado_201288" data-name="Trazado 201288" d="M238.852,325.722c8.318,4.726,21.749,4.632,30-.21s8.2-12.595-.122-17.321-21.749-4.631-30,.21S230.534,321,238.852,325.722Zm12.015-7.049c2.166,1.23,2.18,3.249.032,4.509a8.628,8.628,0,0,1-7.81.054c-2.165-1.229-2.179-3.249-.032-4.509A8.635,8.635,0,0,1,250.867,318.673Z" transform="translate(-232.577 -304.709)" fill="#f2f2f2"/>
                  </g>
                </g>
                <g id="Grupo_154855" data-name="Grupo 154855" transform="translate(0 17.241)">
                  <g id="Grupo_154854" data-name="Grupo 154854">
                    <path id="Trazado_201289" data-name="Trazado 201289" d="M238.852,325.722a25.336,25.336,0,0,0,6.258,2.456,33.368,33.368,0,0,0,4.973.858c6.617.644,13.679-.535,18.769-3.523,8.251-4.841,8.2-12.595-.122-17.321s-21.749-4.631-30,.21S230.534,321,238.852,325.722Zm12.015-7.049c2.166,1.23,2.18,3.249.032,4.509a8.628,8.628,0,0,1-7.81.054c-2.165-1.229-2.179-3.249-.032-4.509A8.635,8.635,0,0,1,250.867,318.673Z" transform="translate(-232.577 -304.709)" fill="#d4ecff"/>
                  </g>
                </g>
                <g id="Grupo_154858" data-name="Grupo 154858" transform="translate(2.343 18.592)">
                  <g id="Grupo_154857" data-name="Grupo 154857">
                    <g id="Grupo_154856" data-name="Grupo 154856">
                      <path id="Trazado_201290" data-name="Trazado 201290" d="M234.578,316.943c.405-2.414,2.194-4.774,5.382-6.642,7.341-4.308,19.291-4.391,26.692-.187,3.677,2.089,5.535,4.844,5.578,7.616.527-3.147-1.3-6.389-5.49-8.768-7.4-4.2-19.351-4.121-26.692.186C236.355,311.314,234.536,314.138,234.578,316.943Z" transform="translate(-234.577 -305.862)" fill="#396caa"/>
                    </g>
                  </g>
                </g>
              </g>
              <g id="Grupo_154863" data-name="Grupo 154863" transform="translate(0 29.019)">
                <g id="Grupo_154862" data-name="Grupo 154862">
                  <g id="Grupo_154861" data-name="Grupo 154861">
                    <g id="Grupo_154860" data-name="Grupo 154860">
                      <path id="Trazado_201291" data-name="Trazado 201291" d="M231.6,349.7a8.326,8.326,0,0,1-4.164-1.075c-2.979-1.689-4.638-5.089-4.668-9.571-.059-8.172,5.63-18.188,12.682-22.325,3.864-2.268,7.632-2.584,10.612-.889a8.319,8.319,0,0,1,3.086,3.085h0a12.848,12.848,0,0,1,1.584,6.485c.057,8.174-5.633,18.19-12.683,22.325A12.891,12.891,0,0,1,231.6,349.7Zm10.292-31.933a9.942,9.942,0,0,0-4.925,1.546c-6.228,3.655-11.252,12.5-11.2,19.719.023,3.366,1.142,5.846,3.151,6.985s4.714.835,7.615-.867c6.227-3.653,11.251-12.5,11.2-19.72a10.088,10.088,0,0,0-1.172-4.989,5.214,5.214,0,0,0-4.67-2.673Z" transform="translate(-222.768 -314.763)" fill="#396caa"/>
                    </g>
                  </g>
                </g>
              </g>
              <g id="Grupo_154865" data-name="Grupo 154865" transform="translate(18.387 38.938)">
                <g id="Grupo_154864" data-name="Grupo 154864">
                  <path id="Trazado_201292" data-name="Trazado 201292" d="M240.559,327.573a31.272,31.272,0,0,0,6.339,1.754c2.8.346.063-3.676.063-3.676a32.053,32.053,0,0,1-7.257-2.163C236.478,321.978,240.559,327.573,240.559,327.573Z" transform="translate(-238.463 -323.229)" fill="#396caa"/>
                </g>
              </g>
            </g>
          </g>
        </g>
        <path id="Trazado_201293" data-name="Trazado 201293" d="M242.588,323.421l5.921,1.452.851-4.394a8.628,8.628,0,0,1-7.81.054Z" transform="translate(-219.546 -284.763)" fill="#d4ecff"/>
        <path id="Trazado_201294" data-name="Trazado 201294" d="M237.933,322.756a25.336,25.336,0,0,0,6.258,2.455,33.368,33.368,0,0,0,4.973.858c6.617.644,13.679-.535,18.769-3.523L243.816,322Z" transform="translate(-220.167 -284.501)" fill="#d4ecff"/>
      </g>
    </g>
  </g>
</svg>
