<svg xmlns="http://www.w3.org/2000/svg" xmlns:xlink="http://www.w3.org/1999/xlink" width="398.072" height="398.801" viewBox="0 0 398.072 398.801">
  <defs>
    <linearGradient id="linear-gradient" x1="-3.621" y1="-0.088" x2="-4.922" y2="-0.088" gradientUnits="objectBoundingBox">
      <stop offset="0" stop-color="#ffc444"/>
      <stop offset="0.996" stop-color="#f36f56"/>
    </linearGradient>
    <clipPath id="clip-path">
      <path id="Trazado_223413" data-name="Trazado 223413" d="M936.134,1089.155l-32.679,12.68s-12.656-14.376-9.239-29.314c6.973-30.478-20.207-34.458-31.342-37.828-16.792-5.083-29.374-16.885-12.884-30.546s-13.932-35.628-42.234-39.928c-27.7-4.207-36.2-55.868,24.582-52.265,36.3,2.151,44.15,36.7,52.264,53.209s34.068,8.061,33.47,32.3c-.511,20.707-9.579,39.18,5.946,47.255S945.989,1066.1,936.134,1089.155Z" transform="translate(-786.591 -911.774)" fill="url(#linear-gradient)"/>
    </clipPath>
    <linearGradient id="linear-gradient-3" x1="-7.314" y1="-3.584" x2="-6.862" y2="-2.54" gradientUnits="objectBoundingBox">
      <stop offset="0" stop-color="#aa80f9"/>
      <stop offset="0.996" stop-color="#6165d7"/>
    </linearGradient>
    <linearGradient id="linear-gradient-4" x1="14.302" y1="0.173" x2="13.24" y2="1.27" gradientUnits="objectBoundingBox">
      <stop offset="0.004" stop-color="#e38ddd"/>
      <stop offset="1" stop-color="#9571f6"/>
    </linearGradient>
    <clipPath id="clip-path-2">
      <path id="Trazado_223423" data-name="Trazado 223423" d="M721.229,631.039,751.5,639.39s17.557-14.485,10.581-24.756,7.071-25.729,13.5-34.835c17.452-24.707-14.52-39.176,5.123-72.735,5.224-8.926,18.445-24.16,14.4-35.78-4.6-13.239-16.088-9.053-18.129-19.13-3.191-15.749-16.215-27.933-31.693-22.045-15.276,5.811-16.925,33.2.089,65.3,9.5,24.208,7.256,28.659-.293,38.347-5.288,6.786-24.119,21.682-17.734,35.278s9.849,26.4.81,32.375C714.411,610.5,721.229,631.039,721.229,631.039Z" transform="translate(-719.539 -428.6)" fill="none"/>
    </clipPath>
    <linearGradient id="linear-gradient-5" x1="3.837" y1="-0.366" x2="2.962" y2="0.423" gradientUnits="objectBoundingBox">
      <stop offset="0" stop-color="#ff9085"/>
      <stop offset="1" stop-color="#fb6fbb"/>
    </linearGradient>
    <clipPath id="clip-path-3">
      <path id="Trazado_223430" data-name="Trazado 223430" d="M875.924,709.214l47,16.586c5.041-5.292,12.786-15.6,4-21.918-12.216-8.781-4.015-31.5,2.75-38.145,8.373-8.221,27.445-27.755,8.777-41.607-15.541-11.531-27.971-16.017-21.2-37.654s-.537-39.3-21.455-45.429c-22.013-6.444-29.489-39.742-50.513-37.1-36.633,4.6-26.443,61.357,5.8,88.379s6.039,31.937-1.516,48.918c-10.314,23.183,25.641,30.421,31.122,42.973C884.99,694.054,879.883,703.644,875.924,709.214Z" transform="translate(-822.018 -503.796)" fill="none"/>
    </clipPath>
    <linearGradient id="linear-gradient-6" x1="0.5" y1="0.245" x2="0.5" y2="0.788" gradientUnits="objectBoundingBox">
      <stop offset="0" stop-color="#444b8c"/>
      <stop offset="0.996" stop-color="#26264f"/>
    </linearGradient>
    <linearGradient id="linear-gradient-7" x1="0.446" y1="0.542" x2="0.764" y2="0.516" gradientUnits="objectBoundingBox">
      <stop offset="0" stop-color="#444b8c"/>
      <stop offset="0.395" stop-color="#383c74"/>
      <stop offset="0.996" stop-color="#26264f"/>
    </linearGradient>
    <linearGradient id="linear-gradient-8" x1="1" y1="0.5" x2="0" y2="0.5" xlink:href="#linear-gradient-6"/>
    <linearGradient id="linear-gradient-9" x1="0.204" y1="-0.092" x2="0.893" y2="1.197" xlink:href="#linear-gradient"/>
    <linearGradient id="linear-gradient-10" x1="0.338" y1="0.134" x2="1.075" y2="1.791" gradientUnits="objectBoundingBox">
      <stop offset="0" stop-color="#ab316d"/>
      <stop offset="1" stop-color="#792d3d"/>
    </linearGradient>
    <linearGradient id="linear-gradient-11" x1="0.141" y1="0.171" x2="1.369" y2="1.965" xlink:href="#linear-gradient-10"/>
    <linearGradient id="linear-gradient-12" x1="0.106" y1="0.977" x2="1.544" y2="-0.765" xlink:href="#linear-gradient-4"/>
    <linearGradient id="linear-gradient-13" x1="0.478" y1="0.328" x2="0.63" y2="1.498" gradientUnits="objectBoundingBox">
      <stop offset="0" stop-color="#ab316d"/>
      <stop offset="0.782" stop-color="#842e47"/>
      <stop offset="1" stop-color="#792d3d"/>
    </linearGradient>
    <linearGradient id="linear-gradient-14" x1="0.427" y1="0.296" x2="0.681" y2="1.564" xlink:href="#linear-gradient-10"/>
    <linearGradient id="linear-gradient-16" x1="-2.44" y1="-0.566" x2="-1.938" y2="-1.11" gradientUnits="objectBoundingBox">
      <stop offset="0.494" stop-color="#ebeff2"/>
      <stop offset="1" stop-color="#fff"/>
    </linearGradient>
  </defs>
  <g id="Grupo_164411" data-name="Grupo 164411" transform="translate(0)">
    <path id="Trazado_223403" data-name="Trazado 223403" d="M586.554,373.067c101.9-3.095,190.176,72.945,203.512,172.72,14.581,109.089-65.672,207.244-164.42,222.965-122.826,19.554-241.961-93.569-231.264-216.29C402.441,460,482.966,376.213,586.554,373.067Z" transform="translate(-393.712 -372.976)" fill="#f4f7fa"/>
    <g id="Grupo_164402" data-name="Grupo 164402" transform="translate(188.897 7.779)">
      <g id="Grupo_164393" data-name="Grupo 164393" transform="translate(0 67.568)">
        <path id="Trazado_223404" data-name="Trazado 223404" d="M936.134,1089.155l-32.679,12.68s-12.656-14.376-9.239-29.314c6.973-30.478-20.207-34.458-31.342-37.828-16.792-5.083-29.374-16.885-12.884-30.546s-13.932-35.628-42.234-39.928c-27.7-4.207-36.2-55.868,24.582-52.265,36.3,2.151,44.15,36.7,52.264,53.209s34.068,8.061,33.47,32.3c-.511,20.707-9.579,39.18,5.946,47.255S945.989,1066.1,936.134,1089.155Z" transform="translate(-786.591 -911.774)" fill="url(#linear-gradient)"/>
        <g id="Grupo_164392" data-name="Grupo 164392" clip-path="url(#clip-path)">
          <path id="Trazado_223405" data-name="Trazado 223405" d="M936.134,1089.155l-32.679,12.68s-12.656-14.376-9.239-29.314c6.973-30.478-20.207-34.458-31.342-37.828-16.792-5.083-27.522-15.9-15.311-30.364,13.816-16.36-11.5-35.811-39.807-40.11-27.7-4.207-36.2-55.868,24.582-52.265,36.3,2.151,44.15,36.7,52.264,53.209s34.068,8.061,33.47,32.3c-.511,20.707-9.579,39.18,5.946,47.255S945.989,1066.1,936.134,1089.155Z" transform="translate(-786.591 -911.774)" fill="url(#linear-gradient-3)"/>
          <g id="Grupo_164391" data-name="Grupo 164391" transform="translate(-8.95 -4.488)" opacity="0.5" style="mix-blend-mode: soft-light;isolation: isolate">
            <path id="Trazado_223406" data-name="Trazado 223406" d="M1058.389,1243.828l-.727.139c-.086-.45-8.863-45.491-31.028-87.518-20.419-38.718-56.71-82.727-113.641-72.508l-.131-.728c25.343-4.549,48.772,1.083,69.637,16.74,16.668,12.507,31.739,31.4,44.8,56.165C1049.508,1198.241,1058.3,1243.377,1058.389,1243.828Z" transform="translate(-912.862 -1053.438)" fill="#beb8f2"/>
            <path id="Trazado_223407" data-name="Trazado 223407" d="M1423.386,933.115l-.718.18c-6-23.886-27.245-52.885-27.458-53.175l.6-.439C1396.02,879.973,1417.346,909.089,1423.386,933.115Z" transform="translate(-1345.312 -879.681)" fill="#beb8f2"/>
            <path id="Trazado_223408" data-name="Trazado 223408" d="M1544.187,1178.149c-28.838-5.458-47.842,9.9-48.03,10.06l-.471-.57c.191-.158,19.448-15.742,48.639-10.217Z" transform="translate(-1480.301 -1134.766)" fill="#beb8f2"/>
            <path id="Trazado_223409" data-name="Trazado 223409" d="M1111.031,1680.888c-20.334-29.533-67.667-20.344-68.121-20.216l-.247-.7c.433-.168,48.463-9.3,68.978,20.494Z" transform="translate(-984.266 -1549.611)" fill="#beb8f2"/>
            <path id="Trazado_223410" data-name="Trazado 223410" d="M989.524,1437.325l-.73.122c-3.76-22.569,13.318-45.73,13.491-45.961l.593.443C1002.706,1392.158,985.816,1415.071,989.524,1437.325Z" transform="translate(-867.894 -1319.914)" fill="#beb8f2"/>
            <path id="Trazado_223411" data-name="Trazado 223411" d="M952.377,2092.968c-5.907-12.274-27.871-15.285-28.093-15.314l.1-.734c.919.12,22.582,3.09,28.663,15.727Z" transform="translate(-809.114 -1909.496)" fill="#beb8f2"/>
            <path id="Trazado_223412" data-name="Trazado 223412" d="M851.029,1903.865l-.725.148c-2.151-10.553,8.532-27.384,12.042-32.915.5-.782.924-1.456.977-1.592l.693.259a17.249,17.249,0,0,1-1.045,1.729C859.5,1876.964,848.938,1893.6,851.029,1903.865Z" transform="translate(-709.702 -1731.087)" fill="#beb8f2"/>
          </g>
        </g>
      </g>
      <g id="Grupo_164397" data-name="Grupo 164397" transform="translate(87.28 0)">
        <path id="Trazado_223414" data-name="Trazado 223414" d="M679.575,601.409c-7.907,5.228-8.669,14.389-8.182,21.1a9.611,9.611,0,0,1,1.841,1.525c6.327,5.626,10.224,6.678,17.336,11.239,1.531.982,6.9,2.5,9.133,2.975l4.178.825s16.588-14.171,9.612-24.443S720.565,588.9,727,579.8c3.95-5.592,3.965-9.414,5.086-11.7,11.872-24.216,22.862-27.163,21.885-37.409-1.078-11.311-14.781-10.957-16.6-23.2-2.059-13.824,14.031-23.557,9.16-36.2a17.756,17.756,0,0,0-3.912-6.6c-5.332-5.486-12.629-4.7-14.217-12.534C725.2,436.4,712.181,424.22,696.7,430.109c-15.276,5.811-16.925,33.2.089,65.3,9.5,24.208,7.256,28.659-.293,38.347-5.287,6.786-24.119,21.682-17.734,35.278S688.614,595.432,679.575,601.409Z" transform="translate(-670.949 -428.6)" fill="url(#linear-gradient-4)"/>
        <g id="Grupo_164396" data-name="Grupo 164396" transform="translate(0)">
          <g id="Grupo_164395" data-name="Grupo 164395" clip-path="url(#clip-path-2)">
            <g id="Grupo_164394" data-name="Grupo 164394" transform="translate(4.435 -12.714)" opacity="0.5" style="mix-blend-mode: soft-light;isolation: isolate">
              <path id="Trazado_223415" data-name="Trazado 223415" d="M962.083,555.226l.576.235c1.329-3.17,2.627-6.384,3.858-9.553A334.924,334.924,0,0,0,985.572,476a273.522,273.522,0,0,0,2.895-57.273,235.388,235.388,0,0,0-6.494-43.326,194.941,194.941,0,0,0-8.967-27.433c-.614-1.481-1.329-2.966-2.02-4.4-.921-1.914-1.873-3.894-2.6-5.877l-.584.165c.732,2.01,1.69,4,2.618,5.931.688,1.43,1.4,2.908,2.007,4.374a194.362,194.362,0,0,1,8.94,27.352,234.831,234.831,0,0,1,6.478,43.223,272.965,272.965,0,0,1-2.889,57.159,334.355,334.355,0,0,1-19.025,69.8C964.706,548.851,963.41,552.061,962.083,555.226Z" transform="translate(-950.909 -337.682)" fill="#fcfdfe"/>
              <path id="Trazado_223416" data-name="Trazado 223416" d="M737.824,731.291l.617.059c1.446-24.841,31.169-55.857,31.469-56.167l-.466-.4C769.143,675.093,739.282,706.251,737.824,731.291Z" transform="translate(-700.571 -627.64)" fill="#fcfdfe"/>
              <path id="Trazado_223417" data-name="Trazado 223417" d="M1055.278,1305.878l.609.126c3.089-16.68-19.008-43.022-19.232-43.286l-.476.349C1036.4,1263.329,1058.319,1289.459,1055.278,1305.878Z" transform="translate(-1028.566 -1133.359)" fill="#fcfdfe"/>
              <path id="Trazado_223418" data-name="Trazado 223418" d="M819.982,1429.908l.581.224c4.05-10.289,15.521-22.021,32.3-33.035.844-.554.844-.554.885-.655l-.578-.231.289.116-.226-.206c-.051.043-.37.252-.739.495C835.619,1407.691,824.072,1419.514,819.982,1429.908Z" transform="translate(-795.9 -1248.105)" fill="#fcfdfe"/>
              <path id="Trazado_223419" data-name="Trazado 223419" d="M1145.947,1696.977l.617.062c.764-12.216-13.569-25.087-13.714-25.215l-.413.414C1132.58,1672.364,1146.693,1685.041,1145.947,1696.977Z" transform="translate(-1132.437 -1485.254)" fill="#fcfdfe"/>
              <path id="Trazado_223420" data-name="Trazado 223420" d="M942.679,1791.506c6.911-7.154,16.326-12.575,28.784-16.572l-.224-.552c-12.554,4.028-22.048,9.5-29.026,16.722Z" transform="translate(-930.706 -1573.47)" fill="#fcfdfe"/>
              <path id="Trazado_223421" data-name="Trazado 223421" d="M963.008,452.387l.618.027c-.017-13.89,3.39-28.334,4.509-33.08.271-1.149.365-1.554.371-1.7l-.617-.051c-.006.113-.161.769-.358,1.6C966.409,423.943,962.991,438.433,963.008,452.387Z" transform="translate(-930.657 -406.408)" fill="#fcfdfe"/>
              <path id="Trazado_223422" data-name="Trazado 223422" d="M1001.885,666.1l.59-.146c-4.094-12.626-28.641-25.8-29.684-26.35l-.284.5C972.76,640.246,997.867,653.714,1001.885,666.1Z" transform="translate(-965.954 -597.386)" fill="#fcfdfe"/>
            </g>
          </g>
        </g>
      </g>
      <g id="Grupo_164401" data-name="Grupo 164401" transform="translate(24.92 10.515)">
        <path id="Trazado_223424" data-name="Trazado 223424" d="M879.776,717.01c2.1.471,3.714,21.412,14.354,10.255,2.658-2.787,8.466-13.654,23.537-8.8l8.777,2.825c4.831-5.59,8.349-11.754.483-17.409-12.216-8.781-4.015-31.5,2.75-38.145,8.373-8.221,27.445-27.755,8.777-41.607-15.541-11.531-27.972-16.017-21.2-37.654s-.536-39.3-21.454-45.429c-22.013-6.444-29.489-39.742-50.513-37.1-36.633,4.6-26.443,61.357,5.8,88.379s6.039,31.938-1.516,48.918a32.116,32.116,0,0,0-1.837,7.366c-2.468,19.686,15.4,29.69,23.6,49.5C882.516,725.133,876.237,716.216,879.776,717.01Z" transform="translate(-822.018 -503.794)" fill="url(#linear-gradient-5)"/>
        <g id="Grupo_164400" data-name="Grupo 164400" transform="translate(0 0)">
          <g id="Grupo_164399" data-name="Grupo 164399" clip-path="url(#clip-path-3)">
            <g id="Grupo_164398" data-name="Grupo 164398" transform="translate(-9.008 -0.712)" opacity="0.5" style="mix-blend-mode: soft-light;isolation: isolate">
              <path id="Trazado_223425" data-name="Trazado 223425" d="M1194.81,705.688l1.067.168c10.906-73.792-16.117-153.169-70.524-207.155l-.77.7C1178.762,553.157,1205.671,632.2,1194.81,705.688Z" transform="translate(-1107.205 -498.701)" fill="#fcfdfe"/>
              <path id="Trazado_223426" data-name="Trazado 223426" d="M813.748,1436.923l1.017.364c10.258-27.478,43.269-39.953,43.6-40.076l-.413-.955C857.617,1396.381,824.168,1409.012,813.748,1436.923Z" transform="translate(-723.842 -1270.741)" fill="#fcfdfe"/>
              <path id="Trazado_223427" data-name="Trazado 223427" d="M1187.436,1557.665l1.065-.134c-4.913-29.547-57.443-52.261-57.974-52.487l-.42.931C1130.631,1506.2,1182.617,1528.68,1187.436,1557.665Z" transform="translate(-1098.216 -1364.315)" fill="#fcfdfe"/>
              <path id="Trazado_223428" data-name="Trazado 223428" d="M1051.581,856.581l1.075-.047c-1.783-23.618,23.935-49.784,24.195-50.046l-.792-.713C1075.8,806.041,1049.764,832.526,1051.581,856.581Z" transform="translate(-975.573 -762.834)" fill="#fcfdfe"/>
              <path id="Trazado_223429" data-name="Trazado 223429" d="M1427.656,687.063l.837-.624c-17.891-21.342-55.944-26.691-56.327-26.743l-.125,1.013C1372.419,660.759,1410.044,666.053,1427.656,687.063Z" transform="translate(-1372.041 -637.182)" fill="#fcfdfe"/>
            </g>
          </g>
        </g>
      </g>
    </g>
    <g id="Grupo_164407" data-name="Grupo 164407" transform="translate(10.73 95.865)">
      <g id="Grupo_164403" data-name="Grupo 164403" transform="translate(108.146 227.89)">
        <path id="Trazado_223431" data-name="Trazado 223431" d="M1543.331,2753.922a16.593,16.593,0,0,0,11-12.492l8.177-40.473,69.952,2.484,8.609,42.163c1.206,5.905-3.621,11.829-9.179,14l-29.266,11.451a38.047,38.047,0,0,1-17.11,2.48l-61.85-5.291a3.837,3.837,0,0,1-3.469-3.4c-.21-1.823-1.477-3.871.247-4.443Z" transform="translate(-1519.501 -2699.161)" fill="#97a6b7"/>
        <path id="Trazado_223432" data-name="Trazado 223432" d="M1559.553,2740.416a16.448,16.448,0,0,0,10.991-12.336l8.169-39.964,68.247,2.456,8.6,41.633a12.181,12.181,0,0,1-7.535,13.825l-29.237,11.307a38.415,38.415,0,0,1-17.093,2.449l-61.788-5.225a3.812,3.812,0,0,1-.866-7.421Z" transform="translate(-1536.416 -2688.117)" fill="url(#linear-gradient-6)"/>
      </g>
      <g id="Grupo_164406" data-name="Grupo 164406">
        <g id="Grupo_164404" data-name="Grupo 164404">
          <path id="Trazado_223433" data-name="Trazado 223433" d="M822.586,1315.084c7.586.452,13.792-4.469,13.792-10.972v-234.4c0-6.5-6.206-11.526-13.792-11.2l-352.334,24.392c-5.569.241-8.558-4.255-8.558,1.276v199.356a10.819,10.819,0,0,0,10.079,10.632Z" transform="translate(-458.542 -1058.499)" fill="url(#linear-gradient-7)"/>
          <path id="Trazado_223434" data-name="Trazado 223434" d="M845.131,1315.084c7.586.452,13.792-4.469,13.792-10.972v-234.4c0-6.5-6.206-11.526-13.792-11.2l-350.812,15.2a10.6,10.6,0,0,0-10.079,10.468v199.356a10.818,10.818,0,0,0,10.079,10.632Z" transform="translate(-484.24 -1058.499)" fill="url(#linear-gradient-8)"/>
          <path id="Trazado_223435" data-name="Trazado 223435" d="M535.685,1112.039,886.5,1097.607c4.055-.167,7.353,2.513,7.353,5.986v233.8c0,3.473-3.3,6.1-7.353,5.866l-350.812-20.145a5.775,5.775,0,0,1-5.4-5.683V1117.635A5.661,5.661,0,0,1,535.685,1112.039Z" transform="translate(-525.606 -1092.132)" fill="#d8dee8" opacity="0.3" style="mix-blend-mode: multiply;isolation: isolate"/>
        </g>
        <g id="Grupo_164405" data-name="Grupo 164405" transform="translate(7.796 9.108)">
          <path id="Trazado_223436" data-name="Trazado 223436" d="M568.083,1328.634l344.4,17c3.615.178,6.553-2.211,6.553-5.338V1129.054c0-3.127-2.938-5.552-6.553-5.418l-344.4,12.784a5.108,5.108,0,0,0-4.889,5.06v182.034A5.185,5.185,0,0,0,568.083,1328.634Z" transform="translate(-563.194 -1123.631)" fill="url(#linear-gradient-9)"/>
          <path id="Trazado_223437" data-name="Trazado 223437" d="M661.986,1222.842l78.654-2.313v-7.5l-78.654,2.544Z" transform="translate(-398.61 -1200.528)" fill="#fff" opacity="0.6" style="mix-blend-mode: soft-light;isolation: isolate"/>
          <path id="Trazado_223438" data-name="Trazado 223438" d="M1359.376,1241.258l18.17-.55v-5.124l-18.17.588Z" transform="translate(-1133.041 -1219.929)" fill="#fff" opacity="0.36" style="mix-blend-mode: soft-light;isolation: isolate"/>
          <path id="Trazado_223439" data-name="Trazado 223439" d="M1359.376,1292.109l18.17-.5v-5.123l-18.17.535Z" transform="translate(-1133.041 -1263.714)" fill="#fff" opacity="0.36" style="mix-blend-mode: soft-light;isolation: isolate"/>
          <path id="Trazado_223440" data-name="Trazado 223440" d="M1632.731,1301.513l70.491-1.929v-5.044l-70.491,2.076Z" transform="translate(-1496.943 -1270.639)" fill="#fff" style="mix-blend-mode: soft-light;isolation: isolate"/>
          <path id="Trazado_223441" data-name="Trazado 223441" d="M1720.4,1353.708l69.79-1.708v-5.018l-69.79,1.854Z" transform="translate(-1596.172 -1315.748)" fill="#fff" style="mix-blend-mode: soft-light;isolation: isolate"/>
          <path id="Trazado_223442" data-name="Trazado 223442" d="M1720.4,1403.366l69.79-1.507v-5.018l-69.79,1.652Z" transform="translate(-1596.172 -1358.635)" fill="#fff" style="mix-blend-mode: soft-light;isolation: isolate"/>
          <path id="Trazado_223443" data-name="Trazado 223443" d="M1720.4,1453.025l69.79-1.3V1446.7l-69.79,1.45Z" transform="translate(-1596.172 -1401.523)" fill="#fff" style="mix-blend-mode: soft-light;isolation: isolate"/>
          <path id="Trazado_223444" data-name="Trazado 223444" d="M1359.376,1342.961l18.17-.445v-5.123l-18.17.483Z" transform="translate(-1133.041 -1307.5)" fill="#fff" opacity="0.36" style="mix-blend-mode: soft-light;isolation: isolate"/>
          <path id="Trazado_223445" data-name="Trazado 223445" d="M1359.376,1393.812l18.17-.392V1388.3l-18.17.43Z" transform="translate(-1133.041 -1351.285)" fill="#fff" opacity="0.36" style="mix-blend-mode: soft-light;isolation: isolate"/>
          <path id="Trazado_223446" data-name="Trazado 223446" d="M1359.376,1444.663l18.17-.34V1439.2l-18.17.378Z" transform="translate(-1133.041 -1395.07)" fill="#fff" opacity="0.36" style="mix-blend-mode: soft-light;isolation: isolate"/>
          <path id="Trazado_223447" data-name="Trazado 223447" d="M1359.376,1495.514l18.17-.287V1490.1l-18.17.325Z" transform="translate(-1133.041 -1438.855)" fill="#fff" opacity="0.36" style="mix-blend-mode: soft-light;isolation: isolate"/>
          <path id="Trazado_223448" data-name="Trazado 223448" d="M1517.659,1498.719l44.724-.707v-5.077l-44.724.8Z" transform="translate(-1340.013 -1441.291)" fill="#fff" style="mix-blend-mode: soft-light;isolation: isolate"/>
          <path id="Trazado_223449" data-name="Trazado 223449" d="M1359.376,1546.366l18.17-.235v-5.123l-18.17.272Z" transform="translate(-1133.041 -1482.641)" fill="#fff" opacity="0.36" style="mix-blend-mode: soft-light;isolation: isolate"/>
          <path id="Trazado_223450" data-name="Trazado 223450" d="M1359.376,1597.217l18.17-.182v-5.123l-18.17.22Z" transform="translate(-1133.041 -1526.426)" fill="#fff" opacity="0.36" style="mix-blend-mode: soft-light;isolation: isolate"/>
          <path id="Trazado_223451" data-name="Trazado 223451" d="M1359.376,1648.068l18.17-.13v-5.123l-18.17.167Z" transform="translate(-1133.041 -1570.211)" fill="#fff" opacity="0.36" style="mix-blend-mode: soft-light;isolation: isolate"/>
          <path id="Trazado_223452" data-name="Trazado 223452" d="M1632.731,1550.791l49.586-.641v-5.044l-49.586.744Z" transform="translate(-1476.038 -1486.166)" fill="#fff" style="mix-blend-mode: soft-light;isolation: isolate"/>
          <path id="Trazado_223453" data-name="Trazado 223453" d="M1720.4,1601.932l63.087-.632v-5.018l-63.087.764Z" transform="translate(-1589.469 -1530.185)" fill="#fff" style="mix-blend-mode: soft-light;isolation: isolate"/>
          <path id="Trazado_223454" data-name="Trazado 223454" d="M1720.4,1651.61l63.087-.45v-5.018l-63.087.581Z" transform="translate(-1589.469 -1573.072)" fill="#fff" style="mix-blend-mode: soft-light;isolation: isolate"/>
          <path id="Trazado_223455" data-name="Trazado 223455" d="M1359.376,1698.919l18.17-.077v-5.124l-18.17.115Z" transform="translate(-1133.041 -1613.996)" fill="#fff" opacity="0.36" style="mix-blend-mode: soft-light;isolation: isolate"/>
          <path id="Trazado_223456" data-name="Trazado 223456" d="M1359.376,1749.771l18.17-.025v-5.123l-18.17.062Z" transform="translate(-1133.041 -1657.782)" fill="#fff" opacity="0.36" style="mix-blend-mode: soft-light;isolation: isolate"/>
          <path id="Trazado_223457" data-name="Trazado 223457" d="M1359.376,1800.622l18.17.028v-5.123l-18.17.01Z" transform="translate(-1133.041 -1701.567)" fill="#fff" opacity="0.36" style="mix-blend-mode: soft-light;isolation: isolate"/>
          <path id="Trazado_223458" data-name="Trazado 223458" d="M1359.376,1851.21l18.17.081v-5.123l-18.17-.043Z" transform="translate(-1133.041 -1745.09)" fill="#fff" opacity="0.36" style="mix-blend-mode: soft-light;isolation: isolate"/>
          <path id="Trazado_223459" data-name="Trazado 223459" d="M1359.376,1901.738l18.17.133v-5.123l-18.17-.1Z" transform="translate(-1133.041 -1788.552)" fill="#fff" opacity="0.36" style="mix-blend-mode: soft-light;isolation: isolate"/>
          <path id="Trazado_223460" data-name="Trazado 223460" d="M1359.376,1952.266l18.17.186v-5.124l-18.17-.148Z" transform="translate(-1133.041 -1832.014)" fill="#fff" opacity="0.36" style="mix-blend-mode: soft-light;isolation: isolate"/>
          <path id="Trazado_223461" data-name="Trazado 223461" d="M1359.376,2002.795l18.17.238v-5.123l-18.17-.2Z" transform="translate(-1133.041 -1875.476)" fill="#fff" opacity="0.36" style="mix-blend-mode: soft-light;isolation: isolate"/>
          <path id="Trazado_223462" data-name="Trazado 223462" d="M1359.376,2053.323l18.17.291v-5.124l-18.17-.253Z" transform="translate(-1133.041 -1918.938)" fill="#fff" opacity="0.36" style="mix-blend-mode: soft-light;isolation: isolate"/>
          <path id="Trazado_223463" data-name="Trazado 223463" d="M1359.376,2103.851l18.17.343v-5.124l-18.17-.305Z" transform="translate(-1133.041 -1962.4)" fill="#fff" opacity="0.36" style="mix-blend-mode: soft-light;isolation: isolate"/>
          <path id="Trazado_223464" data-name="Trazado 223464" d="M1359.376,2154.379l18.17.4v-5.123l-18.17-.358Z" transform="translate(-1133.041 -2005.862)" fill="#fff" opacity="0.36" style="mix-blend-mode: soft-light;isolation: isolate"/>
          <path id="Trazado_223465" data-name="Trazado 223465" d="M1359.376,2204.907l18.17.448v-5.124l-18.17-.41Z" transform="translate(-1133.041 -2049.324)" fill="#fff" opacity="0.36" style="mix-blend-mode: soft-light;isolation: isolate"/>
          <path id="Trazado_223466" data-name="Trazado 223466" d="M1359.376,2255.435l18.17.5v-5.124l-18.17-.463Z" transform="translate(-1133.041 -2092.787)" fill="#fff" opacity="0.36" style="mix-blend-mode: soft-light;isolation: isolate"/>
          <path id="Trazado_223467" data-name="Trazado 223467" d="M1359.376,2305.963l18.17.553v-5.124l-18.17-.515Z" transform="translate(-1133.041 -2136.249)" fill="#fff" opacity="0.36" style="mix-blend-mode: soft-light;isolation: isolate"/>
          <path id="Trazado_223468" data-name="Trazado 223468" d="M1359.376,2356.491l18.17.606v-5.123l-18.17-.568Z" transform="translate(-1133.041 -2179.711)" fill="#fff" opacity="0.36" style="mix-blend-mode: soft-light;isolation: isolate"/>
          <path id="Trazado_223469" data-name="Trazado 223469" d="M1359.376,2407.02l18.17.658v-5.124l-18.17-.621Z" transform="translate(-1133.041 -2223.173)" fill="#fff" opacity="0.36" style="mix-blend-mode: soft-light;isolation: isolate"/>
          <path id="Trazado_223470" data-name="Trazado 223470" d="M1359.376,2457.547l18.17.711v-5.123l-18.17-.673Z" transform="translate(-1133.041 -2266.635)" fill="#fff" opacity="0.36" style="mix-blend-mode: soft-light;isolation: isolate"/>
          <path id="Trazado_223471" data-name="Trazado 223471" d="M1359.376,2508.076l18.17.763v-5.124l-18.17-.726Z" transform="translate(-1133.041 -2310.097)" fill="#fff" opacity="0.36" style="mix-blend-mode: soft-light;isolation: isolate"/>
          <path id="Trazado_223472" data-name="Trazado 223472" d="M1359.376,2558.6l18.17.816V2554.3l-18.17-.778Z" transform="translate(-1133.041 -2353.559)" fill="#fff" opacity="0.36" style="mix-blend-mode: soft-light;isolation: isolate"/>
          <path id="Trazado_223473" data-name="Trazado 223473" d="M1516.776,1247.253l49.554-1.5v-5.078l-49.554,1.6Z" transform="translate(-1343.836 -1224.308)" fill="#fff" style="mix-blend-mode: soft-light;isolation: isolate"/>
          <path id="Trazado_223474" data-name="Trazado 223474" d="M1632.731,2287.405l70.491,2.146v-5.044l-70.491-2Z" transform="translate(-1496.943 -2120.448)" fill="#fff" style="mix-blend-mode: soft-light;isolation: isolate"/>
          <path id="Trazado_223475" data-name="Trazado 223475" d="M1720.4,2333.453l69.79,2.327v-5.018l-69.79-2.182Z" transform="translate(-1596.172 -2160.077)" fill="#fff" style="mix-blend-mode: soft-light;isolation: isolate"/>
          <path id="Trazado_223476" data-name="Trazado 223476" d="M1720.4,2381.87l69.79,2.529v-5.018L1720.4,2377Z" transform="translate(-1596.172 -2201.723)" fill="#fff" style="mix-blend-mode: soft-light;isolation: isolate"/>
          <path id="Trazado_223477" data-name="Trazado 223477" d="M1948.38,2422.258l67.983,2.66v-4.952l-67.983-2.518Z" transform="translate(-1854.225 -2236.517)" fill="#fff" style="mix-blend-mode: soft-light;isolation: isolate"/>
          <path id="Trazado_223478" data-name="Trazado 223478" d="M1948.38,2470.054l67.983,2.856v-4.952l-67.983-2.715Z" transform="translate(-1854.225 -2277.629)" fill="#fff" style="mix-blend-mode: soft-light;isolation: isolate"/>
          <path id="Trazado_223479" data-name="Trazado 223479" d="M1948.38,2517.849l67.983,3.053v-4.952l-67.983-2.912Z" transform="translate(-1854.225 -2318.74)" fill="#fff" style="mix-blend-mode: soft-light;isolation: isolate"/>
          <path id="Trazado_223480" data-name="Trazado 223480" d="M1516.776,2245.6l49.554,1.366v-5.078l-49.554-1.263Z" transform="translate(-1343.836 -2084.418)" fill="#fff" style="mix-blend-mode: soft-light;isolation: isolate"/>
          <path id="Trazado_223481" data-name="Trazado 223481" d="M1632.731,1750.7l70.491-.1v-5.044l-70.491.242Z" transform="translate(-1496.943 -1658.588)" fill="#fff" style="mix-blend-mode: soft-light;isolation: isolate"/>
          <path id="Trazado_223482" data-name="Trazado 223482" d="M1720.4,1800.632l69.79.108v-5.018l-69.79.038Z" transform="translate(-1596.172 -1701.735)" fill="#fff" style="mix-blend-mode: soft-light;isolation: isolate"/>
          <path id="Trazado_223483" data-name="Trazado 223483" d="M1720.4,1849.281l69.79.309v-5.018l-69.79-.164Z" transform="translate(-1596.172 -1743.613)" fill="#fff" style="mix-blend-mode: soft-light;isolation: isolate"/>
          <path id="Trazado_223484" data-name="Trazado 223484" d="M1720.4,1897.7l69.79.511v-5.018l-69.79-.366Z" transform="translate(-1596.172 -1785.259)" fill="#fff" style="mix-blend-mode: soft-light;isolation: isolate"/>
          <path id="Trazado_223485" data-name="Trazado 223485" d="M1517.659,1949.333l44.724.457v-5.077l-44.724-.364Z" transform="translate(-1340.013 -1829.578)" fill="#fff" style="mix-blend-mode: soft-light;isolation: isolate"/>
          <path id="Trazado_223486" data-name="Trazado 223486" d="M1632.731,1997.16l49.586.65v-5.044l-49.586-.547Z" transform="translate(-1476.038 -1870.754)" fill="#fff" style="mix-blend-mode: soft-light;isolation: isolate"/>
          <path id="Trazado_223487" data-name="Trazado 223487" d="M1720.4,2043.631l63.087,1.009v-5.018l-63.087-.878Z" transform="translate(-1589.469 -1910.772)" fill="#fff" style="mix-blend-mode: soft-light;isolation: isolate"/>
          <path id="Trazado_223488" data-name="Trazado 223488" d="M1720.4,2092.187l63.087,1.191v-5.018l-63.087-1.06Z" transform="translate(-1589.469 -1952.538)" fill="#fff" style="mix-blend-mode: soft-light;isolation: isolate"/>
          <path id="Trazado_223489" data-name="Trazado 223489" d="M1825.839,2138.744l62.328,1.357v-4.988l-62.328-1.228Z" transform="translate(-1708.893 -1992.609)" fill="#fff" style="mix-blend-mode: soft-light;isolation: isolate"/>
          <path id="Trazado_223490" data-name="Trazado 223490" d="M1825.839,2187.01l62.328,1.538v-4.988l-62.328-1.408Z" transform="translate(-1708.893 -2034.126)" fill="#fff" style="mix-blend-mode: soft-light;isolation: isolate"/>
          <path id="Trazado_223491" data-name="Trazado 223491" d="M1516.776,1700l49.554-.21v-5.078l-49.554.313Z" transform="translate(-1343.836 -1614.853)" fill="#fff" style="mix-blend-mode: soft-light;isolation: isolate"/>
          <path id="Trazado_223492" data-name="Trazado 223492" d="M902.5,1312.016l45.02-1.118v-7.4l-45.02,1.25Z" transform="translate(-639.123 -1278.345)" fill="#fff" style="mix-blend-mode: soft-light;isolation: isolate"/>
          <path id="Trazado_223493" data-name="Trazado 223493" d="M827.712,1308.62l-8.479.211v-7.41l8.479-.235Z" transform="translate(-507.671 -1276.356)" fill="#fff" opacity="0.6" style="mix-blend-mode: soft-light;isolation: isolate"/>
          <path id="Trazado_223494" data-name="Trazado 223494" d="M902.5,1387.9l45.02-.929v-7.4l-45.02,1.06Z" transform="translate(-639.123 -1343.78)" fill="#fff" opacity="0.6" style="mix-blend-mode: soft-light;isolation: isolate"/>
          <path id="Trazado_223495" data-name="Trazado 223495" d="M827.712,1385.045l-8.479.175v-7.41l8.479-.2Z" transform="translate(-507.671 -1342.093)" fill="#fff" opacity="0.6" style="mix-blend-mode: soft-light;isolation: isolate"/>
          <path id="Trazado_223496" data-name="Trazado 223496" d="M902.5,1463.785l45.02-.739v-7.4l-45.02.871Z" transform="translate(-639.123 -1409.216)" fill="#fff" opacity="0.6" style="mix-blend-mode: soft-light;isolation: isolate"/>
          <path id="Trazado_223497" data-name="Trazado 223497" d="M827.712,1461.469l-8.479.139v-7.41l8.479-.164Z" transform="translate(-507.671 -1407.83)" fill="#fff" opacity="0.6" style="mix-blend-mode: soft-light;isolation: isolate"/>
          <path id="Trazado_223498" data-name="Trazado 223498" d="M661.986,1999.509l78.654,1.06v-7.5l-78.654-.83Z" transform="translate(-398.61 -1870.772)" fill="#fff" style="mix-blend-mode: soft-light;isolation: isolate"/>
          <path id="Trazado_223499" data-name="Trazado 223499" d="M902.5,2080.724l45.02.813v-7.4l-45.02-.681Z" transform="translate(-639.123 -1940.63)" fill="#fff" opacity="0.6" style="mix-blend-mode: soft-light;isolation: isolate"/>
          <path id="Trazado_223500" data-name="Trazado 223500" d="M827.712,2086.231l-8.479-.153v-7.41l8.479.128Z" transform="translate(-507.671 -1945.114)" fill="#fff" opacity="0.6" style="mix-blend-mode: soft-light;isolation: isolate"/>
          <path id="Trazado_223501" data-name="Trazado 223501" d="M902.5,2155.442l45.02,1v-7.4l-45.02-.871Z" transform="translate(-639.123 -2004.899)" fill="#fff" opacity="0.6" style="mix-blend-mode: soft-light;isolation: isolate"/>
          <path id="Trazado_223502" data-name="Trazado 223502" d="M827.712,2162.436l-8.479-.189v-7.41l8.479.164Z" transform="translate(-507.671 -2010.631)" fill="#fff" opacity="0.6" style="mix-blend-mode: soft-light;isolation: isolate"/>
          <path id="Trazado_223503" data-name="Trazado 223503" d="M902.5,2230.16l45.02,1.192v-7.4l-45.02-1.06Z" transform="translate(-639.123 -2069.168)" fill="#fff" opacity="0.6" style="mix-blend-mode: soft-light;isolation: isolate"/>
          <path id="Trazado_223504" data-name="Trazado 223504" d="M827.712,2238.641l-8.479-.225v-7.41l8.479.2Z" transform="translate(-507.671 -2076.148)" fill="#fff" opacity="0.6" style="mix-blend-mode: soft-light;isolation: isolate"/>
          <path id="Trazado_223505" data-name="Trazado 223505" d="M661.986,1537.059l78.654-.957v-7.5l-78.654,1.188Z" transform="translate(-398.61 -1471.97)" fill="#fff" style="mix-blend-mode: soft-light;isolation: isolate"/>
          <path id="Trazado_223506" data-name="Trazado 223506" d="M902.5,1622.666l45.02-.342v-7.4l-45.02.474Z" transform="translate(-639.123 -1546.22)" fill="#fff" opacity="0.6" style="mix-blend-mode: soft-light;isolation: isolate"/>
          <path id="Trazado_223507" data-name="Trazado 223507" d="M827.712,1621.482l-8.479.064v-7.41l8.479-.089Z" transform="translate(-507.671 -1545.466)" fill="#fff" opacity="0.6" style="mix-blend-mode: soft-light;isolation: isolate"/>
          <path id="Trazado_223508" data-name="Trazado 223508" d="M902.5,1698.55l45.02-.152V1691l-45.02.284Z" transform="translate(-639.123 -1611.656)" fill="#fff" opacity="0.6" style="mix-blend-mode: soft-light;isolation: isolate"/>
          <path id="Trazado_223509" data-name="Trazado 223509" d="M827.712,1697.907l-8.479.029v-7.41l8.479-.053Z" transform="translate(-507.671 -1611.203)" fill="#fff" opacity="0.6" style="mix-blend-mode: soft-light;isolation: isolate"/>
          <path id="Trazado_223510" data-name="Trazado 223510" d="M902.5,1850.705l45.02.229v-7.4l-45.02-.1Z" transform="translate(-639.123 -1742.777)" fill="#fff" opacity="0.6" style="mix-blend-mode: soft-light;isolation: isolate"/>
          <path id="Trazado_223511" data-name="Trazado 223511" d="M827.712,1851.635l-8.479-.043v-7.41l8.479.018Z" transform="translate(-507.671 -1743.419)" fill="#fff" opacity="0.6" style="mix-blend-mode: soft-light;isolation: isolate"/>
          <path id="Trazado_223512" data-name="Trazado 223512" d="M902.5,1925.423l45.02.419v-7.4l-45.02-.287Z" transform="translate(-639.123 -1807.047)" fill="#fff" opacity="0.6" style="mix-blend-mode: soft-light;isolation: isolate"/>
          <path id="Trazado_223513" data-name="Trazado 223513" d="M827.712,1927.84l-8.479-.079v-7.41l8.479.054Z" transform="translate(-507.671 -1808.936)" fill="#fff" opacity="0.6" style="mix-blend-mode: soft-light;isolation: isolate"/>
          <path id="Trazado_223514" data-name="Trazado 223514" d="M902.5,1774.435l45.02.037v-7.4l-45.02.095Z" transform="translate(-639.123 -1677.091)" fill="#fff" opacity="0.6" style="mix-blend-mode: soft-light;isolation: isolate"/>
          <path id="Trazado_223515" data-name="Trazado 223515" d="M827.712,1774.331l-8.479-.007v-7.41l8.479-.018Z" transform="translate(-507.671 -1676.941)" fill="#fff" opacity="0.6" style="mix-blend-mode: soft-light;isolation: isolate"/>
          <path id="Trazado_223516" data-name="Trazado 223516" d="M661.986,2304.853l78.654,2.414v-7.5l-78.654-2.184Z" transform="translate(-398.61 -2133.416)" fill="#fff" style="mix-blend-mode: soft-light;isolation: isolate"/>
          <path id="Trazado_223517" data-name="Trazado 223517" d="M902.5,2386.068l45.02,1.588v-7.4L902.5,2378.8Z" transform="translate(-639.123 -2203.274)" fill="#fff" opacity="0.6" style="mix-blend-mode: soft-light;isolation: isolate"/>
          <path id="Trazado_223518" data-name="Trazado 223518" d="M827.712,2397.651l-8.479-.3v-7.41l8.479.274Z" transform="translate(-507.671 -2212.859)" fill="#fff" opacity="0.6" style="mix-blend-mode: soft-light;isolation: isolate"/>
          <path id="Trazado_223519" data-name="Trazado 223519" d="M902.5,2460.787l45.02,1.777v-7.4l-45.02-1.646Z" transform="translate(-639.123 -2267.543)" fill="#fff" opacity="0.6" style="mix-blend-mode: soft-light;isolation: isolate"/>
          <path id="Trazado_223520" data-name="Trazado 223520" d="M827.712,2473.856l-8.479-.335v-7.41l8.479.31Z" transform="translate(-507.671 -2278.376)" fill="#fff" opacity="0.6" style="mix-blend-mode: soft-light;isolation: isolate"/>
          <path id="Trazado_223521" data-name="Trazado 223521" d="M902.5,2535.5l45.02,1.967v-7.4l-45.02-1.835Z" transform="translate(-639.123 -2331.813)" fill="#fff" opacity="0.6" style="mix-blend-mode: soft-light;isolation: isolate"/>
          <path id="Trazado_223522" data-name="Trazado 223522" d="M827.712,2550.062l-8.479-.371v-7.41l8.479.346Z" transform="translate(-507.671 -2343.894)" fill="#fff" opacity="0.6" style="mix-blend-mode: soft-light;isolation: isolate"/>
          <path id="Trazado_223523" data-name="Trazado 223523" d="M1280.393,1421.042l1.732.076V1233.031l-1.732.056Z" transform="translate(-1026.574 -1217.732)" fill="#fff" opacity="0.6" style="mix-blend-mode: soft-light;isolation: isolate"/>
        </g>
        <path id="Trazado_223524" data-name="Trazado 223524" d="M530.942,1279.662c76.367,1.6,93.54,12.5,115.24-.565,29.818-17.953,16.238-49.888,45.29-66.64,36.523-21.06,78.633,17.51,97.7-1.294,18.983-18.727-16.877-62.8,3.882-111.93,8.331-19.716,22.516-32.521,32.315-39.863l19.767-.856c7.586-.329,13.792,4.694,13.792,11.2v234.4c0,6.5-6.206,11.425-13.792,10.972l-350.812-20.914a10.818,10.818,0,0,1-10.079-10.632v-3.544C494.754,1279.621,511.04,1279.246,530.942,1279.662Z" transform="translate(-484.24 -1058.499)" fill="#fff" opacity="0.6" style="mix-blend-mode: soft-light;isolation: isolate"/>
      </g>
    </g>
    <g id="Grupo_164408" data-name="Grupo 164408" transform="translate(102.642 53.073)">
      <path id="Trazado_223525" data-name="Trazado 223525" d="M1783.912,829.93c-3.734,1.9-8.425.155-10.478-3.888s-.69-8.857,3.044-10.753c.194-.1.391-.181.589-.26a47.378,47.378,0,0,1-1.568-6.747c-.214,0-.429,0-.647-.024a8.59,8.59,0,0,1-7.552-8.743,7.275,7.275,0,0,1,7.875-7.369c.223.02.441.055.659.094a43.426,43.426,0,0,1,1.824-6.443c-.2-.115-.391-.233-.582-.367a8.591,8.591,0,0,1-2.6-11.256,7.275,7.275,0,0,1,10.6-2.01c.187.131.362.272.536.416a38.49,38.49,0,0,1,4.727-4.412c-.12-.2-.238-.4-.344-.606-2.053-4.043-4.735-8.46-.972-10.3,8.705-4.25,12.441-.612,14.494,3.431.106.209.2.422.286.635a38.5,38.5,0,0,1,6.351-1.212c-.013-.225-.024-.45-.019-.678.089-4.449-1.231-6.857,3.045-6.94,9.325-.181,12.471,3.866,12.382,8.315,0,.233-.024.46-.047.686a43.4,43.4,0,0,1,6.278,2.33c.1-.2.2-.4.313-.587a7.275,7.275,0,0,1,10.6-2.01,8.591,8.591,0,0,1,2.6,11.256c-.113.188-.237.363-.363.537a47.339,47.339,0,0,1,4.522,5.247c.18-.113.364-.224.557-.322,3.734-1.9,8.425-.155,10.478,3.888s.69,8.857-3.044,10.753c-.193.1-.391.181-.589.26a47.34,47.34,0,0,1,1.567,6.747c.214,0,.429,0,.647.023a8.591,8.591,0,0,1,7.552,8.744,7.275,7.275,0,0,1-7.875,7.368c-.222-.02-.441-.055-.659-.094a43.409,43.409,0,0,1-1.824,6.443c.2.115.391.233.581.367a8.59,8.59,0,0,1,2.6,11.256c-2.207,3.663-9.515,5.365-13.159,2.812-.187-.131,2.2-1.075,2.028-1.218a38.485,38.485,0,0,1-4.727,4.412c.12.2.238.4.344.606,2.053,4.043.69,8.857-3.044,10.753s-8.425.155-10.478-3.888c-.106-.209-.2-.422-.286-.635a38.5,38.5,0,0,1-6.351,1.212c.013.225.023.45.019.678a7.275,7.275,0,0,1-7.875,7.368,8.591,8.591,0,0,1-7.552-8.744c0-.233.024-.46.047-.686a43.409,43.409,0,0,1-6.278-2.33c-.1.2-.2.4-.313.587a7.275,7.275,0,0,1-10.6,2.01,8.591,8.591,0,0,1-2.6-11.256c.113-.187.237-.363.363-.536a47.343,47.343,0,0,1-4.522-5.247C1784.289,829.721,1784.106,829.831,1783.912,829.93Zm46.546.591c13.557-6.883,18.505-24.363,11.052-39.042s-24.485-21-38.042-14.116-18.505,24.363-11.052,39.042S1816.9,837.4,1830.459,830.52Z" transform="translate(-1763.284 -752.495)" fill="url(#linear-gradient-10)"/>
      <path id="Trazado_223526" data-name="Trazado 223526" d="M2059.054,859.788a8.591,8.591,0,0,1-7.552-8.744,7.275,7.275,0,0,1,7.875-7.369c.223.02.441.055.659.094a43.424,43.424,0,0,1,1.824-6.443c-.2-.115-.391-.233-.582-.367-3.645-2.553-8.154-8.723-5.582-12.14,4.88-6.486,9.931-3.679,13.575-1.125.187.131.362.272.536.416a38.487,38.487,0,0,1,4.727-4.412c-.12-.2-.238-.4-.344-.606a8.482,8.482,0,0,1-.478-6.689q5.281,9.294,10.4,18.673c-10.815,7.925-14.259,23.543-7.5,36.858,5.729,11.283,17.116,17.619,28.235,16.825.5,1.286.983,2.58,1.514,3.854,1.441,3.457,3.079,6.843,4.718,10.224q-1.547.292-3.105.456c.013.225.024.45.019.678-.089,4.449-2.791,8.229-10.511,7.82-4.271-.227-5-4.746-4.916-9.2,0-.232.024-.46.047-.686a43.424,43.424,0,0,1-6.278-2.33c-.1.2-.2.4-.313.587-2.207,3.663-9.864,5.22-13.509,2.666s-1.9-8.25.31-11.913c.113-.188.237-.363.363-.536a47.317,47.317,0,0,1-4.522-5.247c-.18.113-.364.224-.557.322-3.734,1.9-8.425.155-10.478-3.888s-.69-8.857,3.044-10.753c.193-.1.391-.181.589-.26a47.382,47.382,0,0,1-1.568-6.747C2059.487,859.811,2059.272,859.808,2059.054,859.788Z" transform="translate(-2047.484 -804.025)" fill="url(#linear-gradient-11)"/>
      <path id="Trazado_223527" data-name="Trazado 223527" d="M1812.63,830.413c-3.734,1.9-8.425.155-10.478-3.888s-.69-8.857,3.044-10.753c.193-.1.391-.181.589-.26a47.3,47.3,0,0,1-1.568-6.747c-.214,0-.429,0-.647-.024a8.591,8.591,0,0,1-7.552-8.743,7.275,7.275,0,0,1,7.875-7.369c.223.02.441.055.659.094a43.441,43.441,0,0,1,1.824-6.443c-.2-.115-.391-.233-.582-.367a8.591,8.591,0,0,1-2.6-11.256,7.275,7.275,0,0,1,10.6-2.01c.187.131.363.272.536.416a38.477,38.477,0,0,1,4.726-4.412c-.12-.2-.238-.4-.344-.606-2.053-4.043-.69-8.857,3.044-10.753s8.425-.155,10.478,3.888c.106.209.2.422.286.635a38.483,38.483,0,0,1,6.351-1.212c-.013-.225-.024-.45-.019-.678a7.275,7.275,0,0,1,7.875-7.369,8.59,8.59,0,0,1,7.552,8.743c0,.233-.024.46-.047.686a43.462,43.462,0,0,1,6.278,2.33c.1-.2.2-.4.313-.587a7.275,7.275,0,0,1,10.6-2.009,8.59,8.59,0,0,1,2.6,11.256c-.113.188-.237.363-.363.536a47.379,47.379,0,0,1,4.522,5.247c.181-.113.364-.224.557-.322,3.734-1.9,8.425-.155,10.478,3.888s.69,8.857-3.044,10.753c-.193.1-.391.181-.589.26a47.293,47.293,0,0,1,1.568,6.747c.214,0,.429,0,.647.023a8.591,8.591,0,0,1,7.552,8.744,7.275,7.275,0,0,1-7.875,7.368c-.223-.02-.442-.055-.659-.093a43.409,43.409,0,0,1-1.824,6.443c.2.115.391.233.581.367a8.59,8.59,0,0,1,2.6,11.256,7.275,7.275,0,0,1-10.6,2.01c-.187-.131-.363-.272-.536-.416a38.507,38.507,0,0,1-4.727,4.412c.12.2.238.4.344.606,2.053,4.043.69,8.857-3.044,10.753s-8.425.155-10.478-3.888c-.106-.209-.2-.422-.286-.635a38.5,38.5,0,0,1-6.351,1.212c.013.225.024.45.019.678a7.275,7.275,0,0,1-7.875,7.368,8.59,8.59,0,0,1-7.552-8.744c0-.232.024-.46.047-.686a43.4,43.4,0,0,1-6.278-2.33c-.1.2-.2.4-.313.587a7.275,7.275,0,0,1-10.6,2.01,8.591,8.591,0,0,1-2.6-11.257c.113-.187.237-.363.363-.536a47.331,47.331,0,0,1-4.522-5.247C1813.006,830.2,1812.823,830.315,1812.63,830.413Zm46.546.59c13.557-6.883,18.5-24.362,11.052-39.042s-24.485-21-38.042-14.116-18.505,24.363-11.052,39.042S1845.619,837.887,1859.176,831Z" transform="translate(-1796.017 -752.522)" fill="url(#linear-gradient-12)"/>
    </g>
    <g id="Grupo_164409" data-name="Grupo 164409" transform="translate(13.406 139.99)">
      <path id="Trazado_223528" data-name="Trazado 223528" d="M2200.55,1475.205c-4.879,2.477-11.008.2-13.69-5.08s-.9-11.573,3.978-14.05c.253-.128.51-.236.769-.339a61.849,61.849,0,0,1-2.048-8.816c-.28,0-.56-.005-.845-.031a11.225,11.225,0,0,1-9.867-11.424,9.506,9.506,0,0,1,10.289-9.628c.291.026.577.072.861.123a56.749,56.749,0,0,1,2.383-8.419c-.256-.15-.511-.3-.76-.479a11.225,11.225,0,0,1-3.4-14.708,9.506,9.506,0,0,1,13.844-2.626c.244.171.474.356.7.543a50.318,50.318,0,0,1,6.176-5.765c-.157-.257-.311-.518-.449-.792-2.682-5.283-6.187-11.053-1.27-13.453,11.374-5.553,16.255-.8,18.937,4.483.139.274.259.552.374.83a50.275,50.275,0,0,1,8.3-1.584c-.018-.294-.031-.588-.025-.886.117-5.813-1.609-8.959,3.979-9.068,12.184-.237,16.294,5.051,16.178,10.864-.006.3-.032.6-.062.9a56.725,56.725,0,0,1,8.2,3.044c.127-.259.259-.517.409-.767a9.505,9.505,0,0,1,13.844-2.625,11.225,11.225,0,0,1,3.4,14.707c-.148.245-.31.475-.474.7a61.848,61.848,0,0,1,5.909,6.856c.236-.148.476-.293.728-.421,4.879-2.477,11.008-.2,13.69,5.08s.9,11.573-3.977,14.05c-.253.128-.511.236-.77.339a61.882,61.882,0,0,1,2.048,8.816c.28,0,.56.005.845.031a11.225,11.225,0,0,1,9.867,11.425,9.506,9.506,0,0,1-10.29,9.628c-.291-.026-.577-.072-.861-.122a56.744,56.744,0,0,1-2.383,8.419c.256.15.511.3.76.479a11.224,11.224,0,0,1,3.4,14.707c-2.884,4.786-12.432,7.01-17.194,3.674-.244-.171,2.876-1.4,2.649-1.591a50.288,50.288,0,0,1-6.176,5.765c.157.257.311.518.449.792,2.682,5.283.9,11.573-3.977,14.05s-11.008.2-13.69-5.08c-.139-.274-.259-.551-.374-.83a50.281,50.281,0,0,1-8.3,1.584c.018.294.031.588.025.886a9.505,9.505,0,0,1-10.289,9.627,11.225,11.225,0,0,1-9.867-11.424c.006-.3.031-.6.062-.9a56.7,56.7,0,0,1-8.2-3.044c-.127.259-.259.517-.409.767a9.505,9.505,0,0,1-13.844,2.626,11.225,11.225,0,0,1-3.4-14.708c.148-.245.31-.474.474-.7a61.865,61.865,0,0,1-5.909-6.856C2201.042,1474.932,2200.8,1475.077,2200.55,1475.205Zm60.817.772c17.713-8.993,24.178-31.832,14.44-51.012s-31.992-27.437-49.705-18.444-24.178,31.832-14.44,51.012S2243.654,1484.97,2261.367,1475.977Z" transform="translate(-2173.597 -1374.03)" fill="url(#linear-gradient-13)"/>
      <path id="Trazado_223529" data-name="Trazado 223529" d="M2560.047,1514.216a11.225,11.225,0,0,1-9.867-11.424,9.505,9.505,0,0,1,10.289-9.628c.291.026.577.072.861.122a56.718,56.718,0,0,1,2.383-8.419c-.256-.15-.511-.3-.76-.479-4.762-3.336-10.653-11.4-7.294-15.863,6.376-8.475,12.976-4.807,17.738-1.47.244.171.474.356.7.543a50.327,50.327,0,0,1,6.176-5.765c-.157-.257-.311-.518-.45-.791a11.084,11.084,0,0,1-.624-8.74q6.9,12.143,13.594,24.4c-14.131,10.355-18.63,30.761-9.8,48.158,7.485,14.742,22.364,23.021,36.892,21.983.648,1.681,1.284,3.371,1.979,5.035,1.883,4.517,4.022,8.941,6.165,13.359q-2.021.381-4.057.6c.017.294.031.588.025.886-.116,5.813-3.646,10.753-13.734,10.217-5.58-.3-6.539-6.2-6.423-12.014.006-.3.031-.6.062-.9a56.721,56.721,0,0,1-8.2-3.044c-.127.259-.259.517-.409.767-2.884,4.787-12.889,6.82-17.651,3.484s-2.478-10.779.406-15.566c.148-.245.31-.474.474-.7a61.859,61.859,0,0,1-5.909-6.856c-.236.148-.475.293-.728.421-4.879,2.477-11.008.2-13.69-5.08s-.9-11.573,3.977-14.05c.253-.128.511-.236.77-.339a61.858,61.858,0,0,1-2.048-8.816C2560.612,1514.246,2560.332,1514.242,2560.047,1514.216Z" transform="translate(-2544.93 -1441.357)" fill="url(#linear-gradient-14)"/>
      <path id="Trazado_223530" data-name="Trazado 223530" d="M2238.073,1475.837c-4.879,2.477-11.008.2-13.69-5.08s-.9-11.573,3.977-14.05c.253-.128.511-.236.769-.339a61.878,61.878,0,0,1-2.048-8.816c-.28,0-.56-.005-.845-.031a11.224,11.224,0,0,1-9.867-11.424,9.505,9.505,0,0,1,10.289-9.628c.291.026.577.072.861.122a56.707,56.707,0,0,1,2.383-8.419c-.256-.15-.511-.3-.76-.479a11.225,11.225,0,0,1-3.4-14.707,9.506,9.506,0,0,1,13.844-2.626c.244.171.474.356.7.543a50.318,50.318,0,0,1,6.176-5.765c-.157-.257-.31-.518-.449-.792-2.682-5.282-.9-11.573,3.977-14.05s11.008-.2,13.69,5.08c.139.274.259.552.374.83a50.287,50.287,0,0,1,8.3-1.584c-.017-.294-.031-.588-.025-.886a9.506,9.506,0,0,1,10.29-9.628,11.224,11.224,0,0,1,9.867,11.424c-.006.3-.031.6-.062.9a56.747,56.747,0,0,1,8.2,3.044c.127-.259.259-.517.409-.767a9.506,9.506,0,0,1,13.845-2.625,11.225,11.225,0,0,1,3.4,14.708c-.148.245-.31.475-.474.7a61.876,61.876,0,0,1,5.909,6.856c.236-.148.475-.293.728-.421,4.879-2.477,11.008-.2,13.69,5.08s.9,11.573-3.977,14.05c-.253.128-.511.236-.77.339a61.846,61.846,0,0,1,2.048,8.816c.28,0,.56.005.845.031a11.225,11.225,0,0,1,9.867,11.425,9.506,9.506,0,0,1-10.29,9.627c-.291-.026-.576-.072-.861-.122a56.739,56.739,0,0,1-2.383,8.419c.256.15.51.3.759.479a11.224,11.224,0,0,1,3.4,14.708,9.505,9.505,0,0,1-13.844,2.626c-.244-.171-.474-.356-.7-.543a50.308,50.308,0,0,1-6.176,5.765c.157.257.311.518.449.792,2.682,5.282.9,11.573-3.977,14.05s-11.008.2-13.69-5.08c-.139-.274-.259-.552-.374-.83a50.261,50.261,0,0,1-8.3,1.584c.017.294.031.588.025.886a9.506,9.506,0,0,1-10.289,9.627,11.224,11.224,0,0,1-9.867-11.424c.006-.3.031-.6.062-.9a56.725,56.725,0,0,1-8.2-3.044c-.127.259-.259.517-.409.767a9.505,9.505,0,0,1-13.844,2.626,11.225,11.225,0,0,1-3.4-14.708c.148-.245.31-.474.474-.7a61.826,61.826,0,0,1-5.909-6.856C2238.565,1475.564,2238.326,1475.709,2238.073,1475.837Zm60.817.772c17.714-8.993,24.179-31.832,14.441-51.012s-31.992-27.437-49.705-18.444-24.178,31.832-14.44,51.012S2281.176,1485.6,2298.89,1476.609Z" transform="translate(-2216.367 -1374.065)" fill="url(#linear-gradient-12)"/>
    </g>
    <g id="Grupo_164410" data-name="Grupo 164410" transform="translate(154.369 168.668)">
      <path id="Trazado_223531" data-name="Trazado 223531" d="M540.318,2553.28l1.561-1.636a6.348,6.348,0,0,0-.445-9.164l-107.269-96.006-9.792,11.136,106.532,95.942A6.8,6.8,0,0,0,540.318,2553.28Z" transform="translate(-304.209 -2325.179)" fill="#bac0c6"/>
      <path id="Trazado_223532" data-name="Trazado 223532" d="M1042.692,1607.859c27.056-33.3,75.034-38.68,107.1-10.851,32.66,28.34,35.293,79.193,5.981,112.379-28.625,32.407-76.386,34.9-106.794,6.7C1019.1,1688.367,1016.251,1640.4,1042.692,1607.859Zm103.757,93.153c24.412-27.828,22.183-70.332-5.046-94.091-26.818-23.4-67.1-19.082-89.921,8.83-22.387,27.376-20.006,67.842,5.265,91.16C1082.392,1730.574,1122.518,1728.292,1146.449,1701.012Z" transform="translate(-1020.657 -1579.106)" fill="#bac0c6"/>
      <path id="Trazado_223533" data-name="Trazado 223533" d="M434.166,2446.474l13.677,12.241c-1.264,5.587-.489,9.483.827,12.248,4.952,10.4,19.069,8.112,30.429,22.885,5.7,7.413,3.113,9.248,8.893,15.256,9.555,9.934,17.8,6.138,26.2,15.043,8.5,9.008,5.35,18.491,11.417,20.913,2.6,1.036,6.708.706,13.58-4.589l2.243,2.008a6.348,6.348,0,0,1,.445,9.164l-1.561,1.636a6.8,6.8,0,0,1-9.413.272L424.374,2457.61Z" transform="translate(-304.209 -2325.179)" fill="#d8dee8" opacity="0.3" style="mix-blend-mode: multiply;isolation: isolate"/>
      <path id="Trazado_223534" data-name="Trazado 223534" d="M1148.491,1787.409c26.519,24.493,68.042,22.167,92.828-6.053,25.3-28.807,23-72.832-5.218-97.428-27.775-24.211-69.461-19.7-93.063,9.192C1119.9,1721.443,1122.372,1763.285,1148.491,1787.409Z" transform="translate(-1117.745 -1655.808)" fill="#fff" opacity="0.1"/>
      <path id="Trazado_223535" data-name="Trazado 223535" d="M1070.73,1622.973c27.056-33.3,75.034-38.68,107.1-10.851,32.66,28.34,35.293,79.193,5.981,112.379-28.624,32.407-76.386,34.9-106.794,6.7C1047.14,1703.481,1044.289,1655.518,1070.73,1622.973Zm103.757,93.153c24.412-27.829,22.183-70.332-5.046-94.091-26.818-23.4-67.1-19.082-89.921,8.83-22.387,27.376-20.005,67.842,5.265,91.16C1110.43,1745.688,1150.556,1743.406,1174.488,1716.126Z" transform="translate(-1052.616 -1592.107)" fill="url(#linear-gradient-16)"/>
      <path id="Trazado_223536" data-name="Trazado 223536" d="M1102.1,1653.346c25.564-31.394,70.818-36.388,101.026-10.124,30.73,26.718,33.221,74.609,5.651,105.9-26.96,30.6-72.021,33.021-100.749,6.426C1079.768,1729.384,1077.083,1684.065,1102.1,1653.346Zm100.654,90.367c24.412-27.829,22.183-70.332-5.046-94.091-26.818-23.4-67.1-19.082-89.921,8.83-22.387,27.376-20.005,67.842,5.265,91.16C1138.695,1773.275,1178.821,1770.993,1202.752,1743.712Z" transform="translate(-1080.88 -1619.693)" fill="#d6d9dd"/>
    </g>
  </g>
</svg>
