<svg xmlns="http://www.w3.org/2000/svg" width="465.666" height="312.311" viewBox="0 0 465.666 312.311">
  <g id="Grupo_164924" data-name="Grupo 164924" transform="translate(-880.081 -22201)">
    <g id="Grupo_160914" data-name="Grupo 160914" transform="translate(700.5 22163.398)">
      <g id="Grupo_160856" data-name="Grupo 160856" transform="translate(35.583)">
        <path id="Trazado_210404" data-name="Trazado 210404" d="M409.047,320.088,298.23,256.108c-3.135-1.81-2.742-4.971.878-7.061L374.566,205.5c3.62-2.09,9.1-2.317,12.23-.507l110.818,63.98c3.134,1.81,2.741,4.971-.879,7.061l-75.458,43.551C417.657,321.671,412.182,321.9,409.047,320.088Z" fill="#c4d9e8" opacity="0.5"/>
        <path id="Trazado_210405" data-name="Trazado 210405" d="M523.569,155.629,412.751,91.649a4.469,4.469,0,0,0-3.755-.46l.007-.012-.2.076-.049.019L404.748,92.8l3.594,1.76c-.016.066-.036.128-.051.2l-18.05,82.163c-.9,4.112.9,8.913,4.04,10.723l108.152,62.441-.386,4.583,4.377-1.7a6.151,6.151,0,0,0,3.135-4.458l18.05-82.164C528.512,162.24,526.7,157.439,523.569,155.629Z" fill="#173d7a"/>
        <path id="Trazado_210406" data-name="Trazado 210406" d="M523.569,155.629,412.751,91.649a4.469,4.469,0,0,0-3.755-.46l.007-.012-.2.076-.049.019L404.748,92.8l3.594,1.76c-.016.066-.036.128-.051.2l-11.9,54.15,54.221,42.244,76.453-31.109A8.607,8.607,0,0,0,523.569,155.629Z" fill="#396caa"/>
        <path id="Trazado_210407" data-name="Trazado 210407" d="M519.39,168.259l8.436-3.591a10.569,10.569,0,0,0-3.418-8.448l-13.353,5.618Z" fill="#274f89"/>
        <path id="Trazado_210408" data-name="Trazado 210408" d="M498.2,254.235,387.38,190.255c-3.134-1.81-4.944-6.611-4.04-10.723l18.05-82.164c.9-4.112,4.177-5.978,7.312-4.168l110.817,63.98c3.135,1.81,4.944,6.611,4.04,10.723l-18.05,82.164C504.606,254.179,501.332,256.045,498.2,254.235Z" fill="#d4ecff"/>
        <path id="Trazado_210409" data-name="Trazado 210409" d="M495.8,248.123,391.574,187.98c-2.869-1.656-4.524-6.049-3.7-9.811l16.518-75.187c.827-3.763,3.822-5.471,6.691-3.814L515.306,159.31c2.869,1.657,4.524,6.05,3.7,9.812l-16.518,75.187C501.66,248.072,498.664,249.779,495.8,248.123Z" fill="#fff"/>
        <path id="Trazado_210410" data-name="Trazado 210410" d="M495.8,248.123,391.574,187.98c-2.869-1.656-4.524-6.049-3.7-9.811l16.518-75.187c.827-3.763,3.822-5.471,6.691-3.814L515.306,159.31c2.869,1.657,4.524,6.05,3.7,9.812l-16.518,75.187C501.66,248.072,498.664,249.779,495.8,248.123Z" fill="#fff"/>
        <path id="Trazado_210411" data-name="Trazado 210411" d="M499.727,257.021l-15.147-2L386.8,198.566c-3.134-1.81-8.61-1.583-12.23.507l-69.289,39.989-9.159-1.209v5.2h.009a3.567,3.567,0,0,0,2.1,3.21l110.817,63.981c3.135,1.809,8.61,1.583,12.23-.507l75.458-43.552c2.037-1.175,3.052-2.69,2.992-4.113h0Z" fill="#173d7a"/>
        <path id="Trazado_210412" data-name="Trazado 210412" d="M426.257,221.348l-6.948-4.011H342.931l-37.654,21.725-9.159-1.209v5.2h.009a3.567,3.567,0,0,0,2.1,3.21l110.817,63.981a11.465,11.465,0,0,0,6.312,1.182Z" fill="#396caa"/>
        <path id="Trazado_210413" data-name="Trazado 210413" d="M300.183,238.389l-4.065-.536v5.2h.009a3.567,3.567,0,0,0,2.1,3.21l1.953,1.128Z" fill="#5793ce"/>
        <path id="Trazado_210414" data-name="Trazado 210414" d="M410.163,310.76a14.2,14.2,0,0,0,10.392-.645V298.523H410.163Z" fill="#274f89"/>
        <path id="Trazado_210415" data-name="Trazado 210415" d="M409.047,305.05,298.23,241.07c-3.135-1.81-2.742-4.971.878-7.061l75.458-43.551c3.62-2.09,9.1-2.317,12.23-.507l110.818,63.98c3.134,1.81,2.741,4.971-.879,7.061l-75.458,43.551C417.657,306.633,412.182,306.86,409.047,305.05Z" fill="#d4ecff"/>
        <path id="Trazado_210416" data-name="Trazado 210416" d="M496.735,259.094l-75.458,43.551c-3.62,2.09-9.1,2.317-12.23.508L298.23,239.172a4.123,4.123,0,0,1-1.949-2.132c-.49,1.483.135,2.983,1.949,4.03l110.817,63.98c3.135,1.811,8.61,1.583,12.23-.506l75.458-43.552c2.433-1.4,3.4-3.292,2.827-4.929A5.887,5.887,0,0,1,496.735,259.094Z" fill="#fff"/>
        <g id="Grupo_160855" data-name="Grupo 160855">
          <path id="Trazado_210417" data-name="Trazado 210417" d="M345.362,219.889l-5.014-2.9c-.4-.232-.352-.638.113-.907l5.918-3.416a1.744,1.744,0,0,1,1.57-.066l5.014,2.9c.4.233.353.639-.112.907l-5.919,3.417A1.747,1.747,0,0,1,345.362,219.889Z" fill="#173d7a"/>
          <path id="Trazado_210418" data-name="Trazado 210418" d="M353.105,224.36l-5.014-2.9c-.4-.233-.352-.639.113-.907l5.918-3.417a1.749,1.749,0,0,1,1.571-.065l5.014,2.895c.4.232.352.638-.113.907l-5.918,3.416A1.746,1.746,0,0,1,353.105,224.36Z" fill="#173d7a"/>
          <path id="Trazado_210419" data-name="Trazado 210419" d="M360.848,228.83l-5.014-2.9c-.4-.232-.352-.638.113-.907l5.918-3.416a1.746,1.746,0,0,1,1.571-.066l5.014,2.895c.4.233.352.639-.113.907l-5.918,3.417A1.746,1.746,0,0,1,360.848,228.83Z" fill="#173d7a"/>
          <path id="Trazado_210420" data-name="Trazado 210420" d="M371.557,225.138l-5.014-2.9c-.4-.232-.352-.638.113-.907l4.968-2.868a1.749,1.749,0,0,1,1.571-.065l5.014,2.9c.4.232.352.638-.113.907l-4.968,2.868A1.746,1.746,0,0,1,371.557,225.138Z" fill="#173d7a"/>
          <path id="Trazado_210421" data-name="Trazado 210421" d="M379.3,229.609l-5.014-2.895c-.4-.233-.352-.639.113-.907l4.968-2.868a1.743,1.743,0,0,1,1.571-.065l5.014,2.9c.4.232.352.638-.113.906l-4.968,2.869A1.749,1.749,0,0,1,379.3,229.609Z" fill="#173d7a"/>
          <path id="Trazado_210422" data-name="Trazado 210422" d="M387.044,234.079l-5.014-2.895c-.4-.232-.352-.638.112-.906l4.968-2.869a1.749,1.749,0,0,1,1.571-.065l5.014,2.9c.4.232.352.638-.113.907l-4.968,2.868A1.744,1.744,0,0,1,387.044,234.079Z" fill="#173d7a"/>
          <path id="Trazado_210423" data-name="Trazado 210423" d="M394.787,238.55l-5.014-2.9c-.4-.233-.352-.639.113-.907l4.968-2.868a1.741,1.741,0,0,1,1.57-.065l5.014,2.9c.4.232.352.638-.112.906l-4.969,2.869A1.747,1.747,0,0,1,394.787,238.55Z" fill="#173d7a"/>
          <path id="Trazado_210424" data-name="Trazado 210424" d="M402.53,243.02l-5.014-2.9c-.4-.232-.352-.638.113-.906l4.968-2.869a1.747,1.747,0,0,1,1.57-.065l5.014,2.895c.4.232.353.638-.112.907l-4.968,2.868A1.743,1.743,0,0,1,402.53,243.02Z" fill="#173d7a"/>
          <path id="Trazado_210425" data-name="Trazado 210425" d="M410.273,247.491l-5.014-2.9c-.4-.233-.352-.638.113-.907l4.968-2.868a1.743,1.743,0,0,1,1.571-.065l5.014,2.894c.4.233.352.639-.113.907l-4.968,2.869A1.749,1.749,0,0,1,410.273,247.491Z" fill="#173d7a"/>
          <path id="Trazado_210426" data-name="Trazado 210426" d="M418.016,251.961l-5.014-2.9c-.4-.232-.352-.638.113-.906l4.968-2.869a1.749,1.749,0,0,1,1.571-.065l5.014,2.9c.4.232.352.639-.113.907l-4.968,2.868A1.743,1.743,0,0,1,418.016,251.961Z" fill="#173d7a"/>
          <path id="Trazado_210427" data-name="Trazado 210427" d="M425.759,256.432l-5.014-2.9c-.4-.232-.352-.639.113-.907l4.968-2.868a1.743,1.743,0,0,1,1.571-.065l5.014,2.895c.4.232.352.638-.113.906l-4.968,2.869A1.749,1.749,0,0,1,425.759,256.432Z" fill="#173d7a"/>
          <path id="Trazado_210428" data-name="Trazado 210428" d="M433.5,260.9l-5.014-2.9c-.4-.232-.352-.638.112-.906l4.968-2.869a1.749,1.749,0,0,1,1.571-.065l5.014,2.9c.4.232.352.639-.113.907l-4.968,2.868A1.741,1.741,0,0,1,433.5,260.9Z" fill="#173d7a"/>
          <path id="Trazado_210429" data-name="Trazado 210429" d="M441.246,265.373l-5.014-2.895c-.4-.232-.352-.638.113-.907l4.968-2.868a1.741,1.741,0,0,1,1.57-.065l5.014,2.895c.4.232.352.638-.113.906l-4.968,2.869A1.747,1.747,0,0,1,441.246,265.373Z" fill="#173d7a"/>
          <path id="Trazado_210430" data-name="Trazado 210430" d="M382.966,223.022l-5.014-2.9c-.4-.233-.352-.639.113-.907l4.968-2.868a1.743,1.743,0,0,1,1.571-.065l5.014,2.894c.4.233.352.639-.113.907l-4.968,2.869A1.749,1.749,0,0,1,382.966,223.022Z" fill="#396caa"/>
          <path id="Trazado_210431" data-name="Trazado 210431" d="M375.108,218.484l-5.014-2.894c-.4-.233-.352-.639.112-.907l4.968-2.869a1.749,1.749,0,0,1,1.571-.065l5.014,2.9c.4.233.352.639-.113.907l-4.968,2.868A1.741,1.741,0,0,1,375.108,218.484Z" fill="#396caa"/>
          <path id="Trazado_210432" data-name="Trazado 210432" d="M367.236,213.94l-10.8-6.235c-.4-.232-.352-.638.113-.907l4.968-2.868a1.746,1.746,0,0,1,1.571-.065l10.8,6.235c.4.232.352.638-.113.906l-4.968,2.869A1.749,1.749,0,0,1,367.236,213.94Z" fill="#173d7a"/>
          <path id="Trazado_210433" data-name="Trazado 210433" d="M372.738,208.413l-8.763-5.06c-.4-.232-.352-.638.112-.907l4.968-2.868a1.749,1.749,0,0,1,1.571-.065l8.764,5.06c.4.232.352.638-.113.906l-4.968,2.869A1.749,1.749,0,0,1,372.738,208.413Z" fill="#173d7a"/>
          <path id="Trazado_210434" data-name="Trazado 210434" d="M390.71,227.492l-5.014-2.9c-.4-.232-.353-.638.112-.906l4.968-2.869a1.749,1.749,0,0,1,1.571-.065l5.014,2.895c.4.232.352.638-.113.907l-4.968,2.868A1.744,1.744,0,0,1,390.71,227.492Z" fill="#396caa"/>
          <path id="Trazado_210435" data-name="Trazado 210435" d="M398.453,231.963l-5.014-2.9c-.4-.233-.352-.639.112-.907l4.969-2.868a1.741,1.741,0,0,1,1.57-.065l5.014,2.894c.4.233.352.639-.113.907l-4.968,2.869A1.747,1.747,0,0,1,398.453,231.963Z" fill="#173d7a"/>
          <path id="Trazado_210436" data-name="Trazado 210436" d="M406.2,236.433l-5.014-2.9c-.4-.232-.352-.638.113-.906l4.968-2.869a1.747,1.747,0,0,1,1.57-.065l5.014,2.9c.4.232.352.638-.112.907l-4.968,2.868A1.743,1.743,0,0,1,406.2,236.433Z" fill="#173d7a"/>
          <path id="Trazado_210437" data-name="Trazado 210437" d="M413.939,240.9l-5.014-2.9c-.4-.233-.352-.638.113-.907l4.968-2.868a1.741,1.741,0,0,1,1.57-.065l5.015,2.895c.4.232.352.638-.113.906l-4.968,2.869A1.749,1.749,0,0,1,413.939,240.9Z" fill="#173d7a"/>
          <path id="Trazado_210438" data-name="Trazado 210438" d="M421.682,245.374l-5.014-2.895c-.4-.232-.352-.638.113-.906l4.968-2.869a1.749,1.749,0,0,1,1.571-.065l5.014,2.895c.4.232.352.638-.113.907l-4.968,2.868A1.746,1.746,0,0,1,421.682,245.374Z" fill="#173d7a"/>
          <path id="Trazado_210439" data-name="Trazado 210439" d="M429.425,249.845l-5.014-2.9c-.4-.232-.352-.639.113-.907l4.968-2.868a1.743,1.743,0,0,1,1.571-.065l5.014,2.9c.4.232.352.638-.113.906L431,249.78A1.749,1.749,0,0,1,429.425,249.845Z" fill="#173d7a"/>
          <path id="Trazado_210440" data-name="Trazado 210440" d="M437.169,254.315l-5.014-2.9c-.4-.232-.353-.638.112-.906l4.968-2.869a1.749,1.749,0,0,1,1.571-.065l5.014,2.9c.4.233.352.638-.113.907l-4.968,2.868A1.741,1.741,0,0,1,437.169,254.315Z" fill="#173d7a"/>
          <path id="Trazado_210441" data-name="Trazado 210441" d="M444.912,258.786l-5.014-2.9c-.4-.233-.352-.638.112-.907l4.969-2.868a1.741,1.741,0,0,1,1.57-.065l5.014,2.9c.4.232.352.638-.113.906l-4.968,2.869A1.747,1.747,0,0,1,444.912,258.786Z" fill="#173d7a"/>
          <path id="Trazado_210442" data-name="Trazado 210442" d="M452.655,263.256l-5.014-2.894c-.4-.233-.352-.639.113-.907l4.968-2.869a1.747,1.747,0,0,1,1.57-.065l5.014,2.895c.4.232.352.639-.112.907l-4.969,2.868A1.741,1.741,0,0,1,452.655,263.256Z" fill="#173d7a"/>
          <path id="Trazado_210443" data-name="Trazado 210443" d="M466.42,271.2l-10.94-6.316c-.4-.233-.352-.639.113-.907l4.968-2.869a1.749,1.749,0,0,1,1.571-.065l10.94,6.317c.4.232.352.638-.113.907l-4.968,2.868A1.749,1.749,0,0,1,466.42,271.2Z" fill="#173d7a"/>
          <path id="Trazado_210444" data-name="Trazado 210444" d="M481.495,262.5l-9.233-5.331c-.4-.232-.353-.638.112-.907l4.968-2.868a1.746,1.746,0,0,1,1.571-.065l9.234,5.331c.4.233.352.639-.113.907l-4.968,2.868A1.743,1.743,0,0,1,481.495,262.5Z" fill="#173d7a"/>
          <path id="Trazado_210445" data-name="Trazado 210445" d="M404.269,226.618l-5.014-2.895c-.4-.233-.352-.639.113-.907l4.968-2.868a1.746,1.746,0,0,1,1.571-.066l5.014,2.895c.4.233.352.639-.113.907l-4.968,2.868A1.746,1.746,0,0,1,404.269,226.618Z" fill="#173d7a"/>
          <path id="Trazado_210446" data-name="Trazado 210446" d="M396.334,222.036l-5.014-2.895c-.4-.233-.352-.638.112-.907l4.969-2.868a1.741,1.741,0,0,1,1.57-.065l5.014,2.894c.4.233.352.639-.113.907l-4.968,2.869A1.747,1.747,0,0,1,396.334,222.036Z" fill="#173d7a"/>
          <path id="Trazado_210447" data-name="Trazado 210447" d="M388.4,217.454l-5.014-2.895c-.4-.232-.352-.638.113-.907l4.968-2.868a1.747,1.747,0,0,1,1.57-.065l5.014,2.9c.4.232.352.638-.112.907l-4.968,2.868A1.749,1.749,0,0,1,388.4,217.454Z" fill="#396caa"/>
          <path id="Trazado_210448" data-name="Trazado 210448" d="M380.462,212.872l-5.014-2.894c-.4-.233-.352-.639.113-.907l4.968-2.869a1.749,1.749,0,0,1,1.571-.065l5.014,2.9c.4.232.352.639-.113.907l-4.968,2.868A1.743,1.743,0,0,1,380.462,212.872Z" fill="#173d7a"/>
          <path id="Trazado_210449" data-name="Trazado 210449" d="M412.013,231.088l-5.014-2.9c-.4-.232-.352-.638.112-.907l4.968-2.868a1.749,1.749,0,0,1,1.571-.065l5.014,2.9c.4.232.352.638-.113.907l-4.968,2.868A1.747,1.747,0,0,1,412.013,231.088Z" fill="#173d7a"/>
          <path id="Trazado_210450" data-name="Trazado 210450" d="M419.756,235.559l-5.014-2.9c-.4-.233-.352-.639.113-.907l4.968-2.868a1.744,1.744,0,0,1,1.57-.066l5.014,2.9c.4.233.352.639-.112.907l-4.969,2.868A1.744,1.744,0,0,1,419.756,235.559Z" fill="#173d7a"/>
          <path id="Trazado_210451" data-name="Trazado 210451" d="M427.5,240.029l-5.014-2.9c-.4-.232-.352-.638.113-.907l4.968-2.868a1.744,1.744,0,0,1,1.57-.065l5.014,2.895c.4.232.353.638-.112.907l-4.968,2.868A1.746,1.746,0,0,1,427.5,240.029Z" fill="#173d7a"/>
          <path id="Trazado_210452" data-name="Trazado 210452" d="M435.242,244.5l-5.014-2.894c-.4-.233-.352-.639.113-.907l4.968-2.868a1.746,1.746,0,0,1,1.571-.066l5.014,2.895c.4.233.352.639-.113.907l-4.968,2.868A1.743,1.743,0,0,1,435.242,244.5Z" fill="#173d7a"/>
          <path id="Trazado_210453" data-name="Trazado 210453" d="M442.985,248.97l-5.014-2.9c-.4-.232-.352-.638.113-.907l4.968-2.868a1.749,1.749,0,0,1,1.571-.065l5.014,2.9c.4.232.352.638-.113.907l-4.968,2.868A1.749,1.749,0,0,1,442.985,248.97Z" fill="#173d7a"/>
          <path id="Trazado_210454" data-name="Trazado 210454" d="M450.728,253.441l-5.014-2.895c-.4-.233-.352-.639.113-.907l4.968-2.868a1.743,1.743,0,0,1,1.571-.065l5.014,2.894c.4.233.352.639-.113.907l-4.968,2.869A1.749,1.749,0,0,1,450.728,253.441Z" fill="#173d7a"/>
          <path id="Trazado_210455" data-name="Trazado 210455" d="M458.472,257.911l-5.014-2.9c-.4-.232-.352-.638.112-.907l4.968-2.868a1.749,1.749,0,0,1,1.571-.065l5.014,2.9c.4.232.352.638-.113.907l-4.968,2.868A1.744,1.744,0,0,1,458.472,257.911Z" fill="#173d7a"/>
          <path id="Trazado_210456" data-name="Trazado 210456" d="M466.215,262.382l-5.014-2.895c-.4-.233-.352-.639.113-.907l4.968-2.868a1.741,1.741,0,0,1,1.57-.065l5.014,2.894c.4.233.352.639-.112.907l-4.969,2.869A1.747,1.747,0,0,1,466.215,262.382Z" fill="#173d7a"/>
          <path id="Trazado_210457" data-name="Trazado 210457" d="M473.958,266.852l-5.014-2.895c-.4-.232-.352-.638.113-.907l4.968-2.868a1.747,1.747,0,0,1,1.57-.065l5.014,2.895c.4.232.353.638-.112.907l-4.968,2.868A1.746,1.746,0,0,1,473.958,266.852Z" fill="#173d7a"/>
          <path id="Trazado_210458" data-name="Trazado 210458" d="M400.192,215.56l-5.014-2.9c-.4-.232-.352-.638.113-.907l4.968-2.868a1.746,1.746,0,0,1,1.571-.065l5.014,2.9c.4.232.352.638-.113.907l-4.968,2.868A1.749,1.749,0,0,1,400.192,215.56Z" fill="#173d7a"/>
          <path id="Trazado_210459" data-name="Trazado 210459" d="M392.488,211.112l-5.014-2.9c-.4-.233-.353-.639.112-.907l4.968-2.868a1.743,1.743,0,0,1,1.571-.065l5.014,2.894c.4.233.352.639-.113.907l-4.968,2.869A1.747,1.747,0,0,1,392.488,211.112Z" fill="#173d7a"/>
          <path id="Trazado_210460" data-name="Trazado 210460" d="M384.783,206.663l-5.014-2.894c-.4-.233-.352-.639.113-.907l4.968-2.869a1.747,1.747,0,0,1,1.57-.065l5.014,2.9c.4.233.353.639-.112.907l-4.968,2.868A1.743,1.743,0,0,1,384.783,206.663Z" fill="#173d7a"/>
          <path id="Trazado_210461" data-name="Trazado 210461" d="M377.078,202.215l-5.014-2.895c-.4-.232-.352-.638.113-.907l4.968-2.868a1.749,1.749,0,0,1,1.571-.065l5.014,2.9c.4.232.352.638-.113.907l-4.968,2.868A1.746,1.746,0,0,1,377.078,202.215Z" fill="#173d7a"/>
          <path id="Trazado_210462" data-name="Trazado 210462" d="M385,197.641l-5.014-2.9c-.4-.232-.352-.638.113-.907l1.642-.948a1.749,1.749,0,0,1,1.571-.065l5.014,2.895c.4.232.352.638-.113.907l-1.642.948A1.749,1.749,0,0,1,385,197.641Z" fill="#173d7a"/>
          <path id="Trazado_210463" data-name="Trazado 210463" d="M395.056,203.446l-5.014-2.9c-.4-.232-.353-.638.112-.907l1.643-.948a1.744,1.744,0,0,1,1.57-.065l5.014,2.9c.4.232.352.638-.112.907l-1.643.948A1.747,1.747,0,0,1,395.056,203.446Z" fill="#173d7a"/>
          <path id="Trazado_210464" data-name="Trazado 210464" d="M402.728,207.876l-5.014-2.9c-.4-.233-.352-.639.113-.907l1.642-.948a1.743,1.743,0,0,1,1.571-.065l5.014,2.895c.4.232.352.638-.113.906l-1.642.949A1.749,1.749,0,0,1,402.728,207.876Z" fill="#173d7a"/>
          <path id="Trazado_210465" data-name="Trazado 210465" d="M410.4,212.3l-5.014-2.894c-.4-.233-.352-.639.112-.907l1.643-.948a1.744,1.744,0,0,1,1.57-.066l5.014,2.895c.4.233.352.639-.112.907l-1.643.948A1.741,1.741,0,0,1,410.4,212.3Z" fill="#173d7a"/>
          <path id="Trazado_210466" data-name="Trazado 210466" d="M418.073,216.735l-5.014-2.9c-.4-.232-.352-.638.113-.906l1.642-.949a1.749,1.749,0,0,1,1.571-.065l5.014,2.9c.4.233.352.638-.113.907l-1.642.948A1.746,1.746,0,0,1,418.073,216.735Z" fill="#173d7a"/>
          <path id="Trazado_210467" data-name="Trazado 210467" d="M460.908,241.466l-5.014-2.9c-.4-.233-.352-.639.113-.907l1.642-.948a1.744,1.744,0,0,1,1.57-.065l5.015,2.9c.4.232.352.638-.113.906l-1.643.949A1.747,1.747,0,0,1,460.908,241.466Z" fill="#173d7a"/>
          <path id="Trazado_210468" data-name="Trazado 210468" d="M468.58,245.9,463.566,243c-.4-.233-.352-.639.113-.907l1.642-.948a1.743,1.743,0,0,1,1.571-.065l5.014,2.894c.4.233.352.639-.113.907l-1.642.948A1.746,1.746,0,0,1,468.58,245.9Z" fill="#173d7a"/>
          <path id="Trazado_210469" data-name="Trazado 210469" d="M476.253,250.325l-5.014-2.9c-.4-.232-.352-.638.113-.907l1.642-.948a1.749,1.749,0,0,1,1.571-.065l5.014,2.9c.4.233.352.638-.113.907l-1.643.948A1.741,1.741,0,0,1,476.253,250.325Z" fill="#173d7a"/>
          <path id="Trazado_210470" data-name="Trazado 210470" d="M483.925,254.755l-5.014-2.9c-.4-.232-.352-.638.113-.907l1.642-.948a1.749,1.749,0,0,1,1.571-.065l5.014,2.9c.4.232.352.638-.113.907l-1.642.948A1.749,1.749,0,0,1,483.925,254.755Z" fill="#173d7a"/>
          <path id="Trazado_210471" data-name="Trazado 210471" d="M407.935,220.03l-5.014-2.894c-.4-.233-.352-.639.113-.907L408,213.361a1.746,1.746,0,0,1,1.571-.066l5.014,2.9c.4.233.352.639-.113.907l-4.968,2.868A1.743,1.743,0,0,1,407.935,220.03Z" fill="#173d7a"/>
          <path id="Trazado_210472" data-name="Trazado 210472" d="M415.679,224.5l-5.014-2.9c-.4-.232-.353-.638.112-.907l4.968-2.868a1.746,1.746,0,0,1,1.571-.065l5.014,2.895c.4.232.352.638-.113.907l-4.968,2.868A1.747,1.747,0,0,1,415.679,224.5Z" fill="#173d7a"/>
          <path id="Trazado_210473" data-name="Trazado 210473" d="M423.422,228.971l-5.014-2.894c-.4-.233-.352-.639.112-.907l4.969-2.869a1.747,1.747,0,0,1,1.57-.065l5.014,2.9c.4.233.352.639-.113.907l-4.968,2.868A1.741,1.741,0,0,1,423.422,228.971Z" fill="#173d7a"/>
          <path id="Trazado_210474" data-name="Trazado 210474" d="M431.165,233.442l-5.014-2.9c-.4-.232-.352-.638.113-.907l4.968-2.868a1.747,1.747,0,0,1,1.57-.065l5.014,2.9c.4.232.352.638-.112.907l-4.968,2.868A1.749,1.749,0,0,1,431.165,233.442Z" fill="#173d7a"/>
          <path id="Trazado_210475" data-name="Trazado 210475" d="M438.908,237.913l-5.014-2.895c-.4-.233-.352-.639.113-.907l4.968-2.868a1.746,1.746,0,0,1,1.571-.066l5.014,2.9c.4.233.352.639-.113.907l-4.968,2.868A1.746,1.746,0,0,1,438.908,237.913Z" fill="#173d7a"/>
          <path id="Trazado_210476" data-name="Trazado 210476" d="M446.651,242.383l-5.014-2.895c-.4-.232-.352-.638.113-.907l4.968-2.868a1.749,1.749,0,0,1,1.571-.065l5.014,2.9c.4.232.352.638-.113.907l-4.968,2.868A1.749,1.749,0,0,1,446.651,242.383Z" fill="#173d7a"/>
          <path id="Trazado_210477" data-name="Trazado 210477" d="M454.394,246.854l-5.014-2.9c-.4-.233-.352-.639.113-.907l4.968-2.868a1.743,1.743,0,0,1,1.571-.065l5.014,2.894c.4.233.352.639-.113.907l-4.968,2.868A1.746,1.746,0,0,1,454.394,246.854Z" fill="#173d7a"/>
          <path id="Trazado_210478" data-name="Trazado 210478" d="M462.138,251.324l-5.014-2.9c-.4-.232-.353-.638.112-.907l4.968-2.868a1.749,1.749,0,0,1,1.571-.065l5.014,2.895c.4.232.352.638-.113.907l-4.968,2.868A1.744,1.744,0,0,1,462.138,251.324Z" fill="#173d7a"/>
          <path id="Trazado_210479" data-name="Trazado 210479" d="M469.881,255.795l-5.014-2.9c-.4-.233-.352-.639.112-.907l4.969-2.868a1.744,1.744,0,0,1,1.57-.066l5.014,2.895c.4.233.352.639-.113.907l-4.968,2.868A1.744,1.744,0,0,1,469.881,255.795Z" fill="#173d7a"/>
          <path id="Trazado_210480" data-name="Trazado 210480" d="M363.666,220.582,348.9,212.057c-.4-.233-.352-.639.112-.907l4.968-2.868a1.743,1.743,0,0,1,1.571-.065l14.767,8.525c.4.233.352.639-.113.907l-4.968,2.868A1.743,1.743,0,0,1,363.666,220.582Z" fill="#173d7a"/>
          <path id="Trazado_210481" data-name="Trazado 210481" d="M458.793,275.5l-14.767-8.526c-.4-.232-.352-.638.113-.907l4.968-2.868a1.749,1.749,0,0,1,1.571-.065l14.767,8.526c.4.232.352.638-.113.906l-4.968,2.869A1.749,1.749,0,0,1,458.793,275.5Z" fill="#173d7a"/>
          <path id="Trazado_210482" data-name="Trazado 210482" d="M427.827,267.5l-5.014-2.894c-.4-.233-.352-.639.113-.907l5.918-3.417a1.746,1.746,0,0,1,1.571-.065l5.014,2.895c.4.232.352.638-.113.906l-5.918,3.417A1.743,1.743,0,0,1,427.827,267.5Z" fill="#173d7a"/>
          <path id="Trazado_210483" data-name="Trazado 210483" d="M371.6,235.035l-8.019-4.629c-.4-.233-.352-.639.113-.907l5.918-3.417a1.746,1.746,0,0,1,1.571-.065l8.019,4.63c.4.232.352.638-.113.906l-5.918,3.417A1.743,1.743,0,0,1,371.6,235.035Z" fill="#173d7a"/>
          <path id="Trazado_210484" data-name="Trazado 210484" d="M420.366,263.193l-8.018-4.63c-.4-.232-.352-.638.112-.906l5.919-3.417a1.741,1.741,0,0,1,1.57-.065l8.019,4.629c.4.233.352.639-.113.907l-5.918,3.417A1.749,1.749,0,0,1,420.366,263.193Z" fill="#173d7a"/>
          <path id="Trazado_210485" data-name="Trazado 210485" d="M382.768,241.485l-8.019-4.629c-.4-.233-.352-.639.113-.907l5.918-3.417a1.749,1.749,0,0,1,1.571-.065l8.019,4.63c.4.232.352.638-.113.906l-5.919,3.417A1.741,1.741,0,0,1,382.768,241.485Z" fill="#173d7a"/>
          <path id="Trazado_210486" data-name="Trazado 210486" d="M382.4,232.5l34.864,20.129a.477.477,0,0,1,0,.9l-6.036,3.485a1.735,1.735,0,0,1-1.566,0L374.8,236.887Z" fill="#173d7a"/>
          <path id="Trazado_210487" data-name="Trazado 210487" d="M449.468,275.606l5.585,3.225c.33.19.289.523-.092.743l-2.421,1.4a1.43,1.43,0,0,1-1.288.053l-5.585-3.225c-.33-.19-.288-.523.093-.743l2.421-1.4A1.432,1.432,0,0,1,449.468,275.606Z" fill="#173d7a"/>
          <path id="Trazado_210488" data-name="Trazado 210488" d="M441.661,271.1l5.585,3.225c.33.191.288.523-.093.743l-2.421,1.4a1.428,1.428,0,0,1-1.287.053l-5.585-3.224c-.33-.191-.289-.523.092-.743l2.421-1.4A1.434,1.434,0,0,1,441.661,271.1Z" fill="#173d7a"/>
          <path id="Trazado_210489" data-name="Trazado 210489" d="M433.917,266.628l5.586,3.224c.33.191.288.524-.093.744l-2.421,1.4a1.435,1.435,0,0,1-1.287.053l-5.585-3.225c-.33-.19-.289-.523.092-.743l2.421-1.4A1.428,1.428,0,0,1,433.917,266.628Z" fill="#173d7a"/>
          <path id="Trazado_210490" data-name="Trazado 210490" d="M445.937,268.63l5.585,3.224c.33.191.288.524-.093.743l-2.421,1.4a1.432,1.432,0,0,1-1.287.054l-5.585-3.225c-.33-.19-.289-.523.092-.743l2.421-1.4A1.431,1.431,0,0,1,445.937,268.63Z" fill="#173d7a"/>
        </g>
      </g>
      <g id="Grupo_160859" data-name="Grupo 160859" transform="translate(35.583)">
        <g id="Grupo_160857" data-name="Grupo 160857">
          <path id="Trazado_210491" data-name="Trazado 210491" d="M435.678,131.6l-7.41-4.278a2.119,2.119,0,0,1-.9-2.195h0a1.031,1.031,0,0,1,1.585-.756l7.41,4.278a2.12,2.12,0,0,1,.9,2.194h0A1.031,1.031,0,0,1,435.678,131.6Z" fill="#d4ecff"/>
          <path id="Trazado_210492" data-name="Trazado 210492" d="M453.328,141.785,442.4,135.477a2.116,2.116,0,0,1-.9-2.194h0a1.031,1.031,0,0,1,1.585-.757l10.926,6.308a2.12,2.12,0,0,1,.9,2.194h0A1.031,1.031,0,0,1,453.328,141.785Z" fill="#d4ecff"/>
          <path id="Trazado_210493" data-name="Trazado 210493" d="M422.761,166.182l-7.409-4.278a2.118,2.118,0,0,1-.9-2.2h0a1.031,1.031,0,0,1,1.585-.757l7.41,4.279a2.12,2.12,0,0,1,.9,2.194h0A1.031,1.031,0,0,1,422.761,166.182Z" fill="#d4ecff"/>
          <path id="Trazado_210494" data-name="Trazado 210494" d="M438.495,175.266l-10.926-6.308a2.121,2.121,0,0,1-.9-2.195h0a1.031,1.031,0,0,1,1.585-.757l10.926,6.309a2.117,2.117,0,0,1,.9,2.194h0A1.031,1.031,0,0,1,438.495,175.266Z" fill="#d4ecff"/>
          <path id="Trazado_210495" data-name="Trazado 210495" d="M413.819,125.982l-4.628-2.672a2.12,2.12,0,0,1-.9-2.195h0a1.031,1.031,0,0,1,1.586-.756l4.629,2.672a2.12,2.12,0,0,1,.9,2.194h0A1.031,1.031,0,0,1,413.819,125.982Z" fill="#d4ecff"/>
          <path id="Trazado_210496" data-name="Trazado 210496" d="M428.085,141.226l-14.142-8.165a2.12,2.12,0,0,1-.9-2.2h0a1.031,1.031,0,0,1,1.586-.756l14.142,8.165a2.118,2.118,0,0,1,.9,2.194h0A1.032,1.032,0,0,1,428.085,141.226Z" fill="#d4ecff"/>
          <path id="Trazado_210497" data-name="Trazado 210497" d="M415.717,148.1l-4.629-2.673a2.118,2.118,0,0,1-.9-2.194h0a1.031,1.031,0,0,1,1.585-.757l4.629,2.673a2.12,2.12,0,0,1,.9,2.194h0A1.031,1.031,0,0,1,415.717,148.1Z" fill="#d4ecff"/>
          <path id="Trazado_210498" data-name="Trazado 210498" d="M440.876,190.655l-12.363-7.138a2.119,2.119,0,0,1-.9-2.194h0a1.031,1.031,0,0,1,1.585-.757l12.364,7.138a2.12,2.12,0,0,1,.9,2.194h0A1.031,1.031,0,0,1,440.876,190.655Z" fill="#d4ecff"/>
          <path id="Trazado_210499" data-name="Trazado 210499" d="M411.2,159.509l-2.971-1.715a2.12,2.12,0,0,1-.9-2.194h0a1.031,1.031,0,0,1,1.586-.757l2.971,1.715a2.12,2.12,0,0,1,.9,2.194h0A1.031,1.031,0,0,1,411.2,159.509Z" fill="#d4ecff"/>
          <path id="Trazado_210500" data-name="Trazado 210500" d="M409.069,172.291l-3.69-2.131a2.117,2.117,0,0,1-.9-2.194h0a1.031,1.031,0,0,1,1.585-.757l3.69,2.131a2.12,2.12,0,0,1,.9,2.194h0A1.031,1.031,0,0,1,409.069,172.291Z" fill="#d4ecff"/>
          <path id="Trazado_210501" data-name="Trazado 210501" d="M423.423,180.578l-9.728-5.616a2.118,2.118,0,0,1-.9-2.194h0a1.031,1.031,0,0,1,1.585-.757l9.728,5.616a2.121,2.121,0,0,1,.9,2.2h0A1.031,1.031,0,0,1,423.423,180.578Z" fill="#d4ecff"/>
          <path id="Trazado_210502" data-name="Trazado 210502" d="M410.946,180.382l-7-4.038a2.12,2.12,0,0,1-.9-2.195h0a1.031,1.031,0,0,1,1.586-.756l6.994,4.038a2.118,2.118,0,0,1,.9,2.194h0A1.031,1.031,0,0,1,410.946,180.382Z" fill="#d4ecff"/>
          <path id="Trazado_210503" data-name="Trazado 210503" d="M451.484,196.81l-4.492-2.593a2.12,2.12,0,0,1-.9-2.194h0a1.031,1.031,0,0,1,1.586-.757l4.492,2.593a2.12,2.12,0,0,1,.9,2.194h0A1.031,1.031,0,0,1,451.484,196.81Z" fill="#d4ecff"/>
          <path id="Trazado_210504" data-name="Trazado 210504" d="M432.935,158.041,420.572,150.9a2.118,2.118,0,0,1-.9-2.194h0a1.031,1.031,0,0,1,1.585-.757l12.363,7.138a2.118,2.118,0,0,1,.9,2.194h0A1.031,1.031,0,0,1,432.935,158.041Z" fill="#d4ecff"/>
          <path id="Trazado_210505" data-name="Trazado 210505" d="M434.063,151.685l-21.548-12.441a2.12,2.12,0,0,1-.9-2.194h0a1.031,1.031,0,0,1,1.585-.757l21.548,12.44a2.121,2.121,0,0,1,.9,2.195h0A1.031,1.031,0,0,1,434.063,151.685Z" fill="#d4ecff"/>
          <path id="Trazado_210506" data-name="Trazado 210506" d="M422.024,158.748l-12.363-7.137a2.118,2.118,0,0,1-.9-2.195h0a1.031,1.031,0,0,1,1.585-.757L422.7,155.8a2.121,2.121,0,0,1,.9,2.2h0A1.03,1.03,0,0,1,422.024,158.748Z" fill="#d4ecff"/>
          <path id="Trazado_210507" data-name="Trazado 210507" d="M442.312,163.455l-4.492-2.594a2.12,2.12,0,0,1-.9-2.194h0a1.031,1.031,0,0,1,1.585-.757l4.492,2.594a2.117,2.117,0,0,1,.9,2.194h0A1.031,1.031,0,0,1,442.312,163.455Z" fill="#d4ecff"/>
          <path id="Trazado_210508" data-name="Trazado 210508" d="M486.652,161.025l-26.6-15.358a2.116,2.116,0,0,1-.9-2.194h0a1.031,1.031,0,0,1,1.585-.757l26.6,15.358a2.119,2.119,0,0,1,.9,2.195h0A1.03,1.03,0,0,1,486.652,161.025Z" fill="#d4ecff"/>
          <path id="Trazado_210509" data-name="Trazado 210509" d="M421.667,172.558l-14.861-8.581a2.12,2.12,0,0,1-.9-2.194h0a1.031,1.031,0,0,1,1.585-.757l14.862,8.58a2.121,2.121,0,0,1,.9,2.195h0A1.032,1.032,0,0,1,421.667,172.558Z" fill="#d4ecff"/>
          <path id="Trazado_210510" data-name="Trazado 210510" d="M421.544,123.434l-10.926-6.308a2.118,2.118,0,0,1-.9-2.194h0a1.031,1.031,0,0,1,1.585-.757l10.926,6.308a2.12,2.12,0,0,1,.9,2.194h0A1.03,1.03,0,0,1,421.544,123.434Z" fill="#d4ecff"/>
          <path id="Trazado_210511" data-name="Trazado 210511" d="M409,186.265l-12.654-7.306a2.117,2.117,0,0,1-.9-2.194h0a1.031,1.031,0,0,1,1.585-.757l12.654,7.306a2.118,2.118,0,0,1,.9,2.194h0A1.031,1.031,0,0,1,409,186.265Z" fill="#d4ecff"/>
        </g>
        <g id="Grupo_160858" data-name="Grupo 160858">
          <path id="Trazado_210512" data-name="Trazado 210512" d="M494.635,212.936l-7.41-4.278a2.12,2.12,0,0,1-.9-2.194h0a1.031,1.031,0,0,1,1.586-.757l7.409,4.278a2.116,2.116,0,0,1,.9,2.194h0A1.031,1.031,0,0,1,494.635,212.936Z" fill="#d4ecff"/>
          <path id="Trazado_210513" data-name="Trazado 210513" d="M499.959,187.98l-14.143-8.165a2.12,2.12,0,0,1-.9-2.194h0a1.031,1.031,0,0,1,1.585-.757l14.143,8.165a2.118,2.118,0,0,1,.9,2.194h0A1.031,1.031,0,0,1,499.959,187.98Z" fill="#d4ecff"/>
          <path id="Trazado_210514" data-name="Trazado 210514" d="M487.59,194.854l-4.628-2.673a2.116,2.116,0,0,1-.9-2.194h0a1.031,1.031,0,0,1,1.585-.757l4.629,2.673a2.12,2.12,0,0,1,.9,2.194h0A1.031,1.031,0,0,1,487.59,194.854Z" fill="#d4ecff"/>
          <path id="Trazado_210515" data-name="Trazado 210515" d="M483.078,206.263l-2.971-1.715a2.12,2.12,0,0,1-.9-2.194h0a1.031,1.031,0,0,1,1.585-.757l2.971,1.715a2.119,2.119,0,0,1,.9,2.194h0A1.031,1.031,0,0,1,483.078,206.263Z" fill="#d4ecff"/>
          <path id="Trazado_210516" data-name="Trazado 210516" d="M504.809,204.795l-12.363-7.138a2.119,2.119,0,0,1-.905-2.194h0a1.032,1.032,0,0,1,1.586-.757l12.363,7.138a2.12,2.12,0,0,1,.9,2.194h0A1.031,1.031,0,0,1,504.809,204.795Z" fill="#d4ecff"/>
          <path id="Trazado_210517" data-name="Trazado 210517" d="M505.936,198.439,484.389,186a2.12,2.12,0,0,1-.9-2.194h0a1.031,1.031,0,0,1,1.585-.757l21.548,12.441a2.12,2.12,0,0,1,.9,2.194h0A1.031,1.031,0,0,1,505.936,198.439Z" fill="#d4ecff"/>
          <path id="Trazado_210518" data-name="Trazado 210518" d="M493.9,205.5l-12.363-7.138a2.12,2.12,0,0,1-.9-2.194h0a1.031,1.031,0,0,1,1.586-.757l12.363,7.138a2.12,2.12,0,0,1,.9,2.194h0A1.031,1.031,0,0,1,493.9,205.5Z" fill="#d4ecff"/>
          <path id="Trazado_210519" data-name="Trazado 210519" d="M493.541,219.312l-14.861-8.581a2.118,2.118,0,0,1-.9-2.194h0a1.031,1.031,0,0,1,1.585-.757l14.861,8.581a2.116,2.116,0,0,1,.9,2.194h0A1.031,1.031,0,0,1,493.541,219.312Z" fill="#d4ecff"/>
        </g>
      </g>
      <g id="Grupo_160862" data-name="Grupo 160862" transform="translate(105)">
        <path id="Trazado_210520" data-name="Trazado 210520" d="M521.844,137.216l11.677-4.645-2.626-17.179-5.668,5.022Z" fill="#983be9"/>
        <path id="Trazado_210521" data-name="Trazado 210521" d="M443.694,57.122,471.9,45.849s-5.2,11.25-5.206,11.273-15.063,3.487-15.063,3.487Z" fill="#b45ef4"/>
        <path id="Trazado_210522" data-name="Trazado 210522" d="M532.163,103.866a12.409,12.409,0,0,0-4.572-1.571c1.557-10.383-2.928-21.342-11.537-26.316a18.786,18.786,0,0,0-8.066-2.534c3.373-12.585-1.837-26.887-12.455-33.022A19.556,19.556,0,0,0,478.7,38.8l0-.009-.26.1c-.136.052-.271.106-.406.162L469.2,42.535l3.525,3.033c-4.78,1.506-8.913,5.371-11.1,11.085-4.025,10.536.1,23.349,9.222,28.617l54.206,45.693c6.848,3.956,11.005,2.3,14.027-5.608S539.01,107.822,532.163,103.866Z" fill="#983be9"/>
        <path id="Trazado_210523" data-name="Trazado 210523" d="M464.1,52.014l30.407-12.148A19.426,19.426,0,0,0,478.7,38.8l0-.009-.26.1c-.136.052-.271.106-.406.162L469.2,42.535l3.525,3.033A16.869,16.869,0,0,0,464.1,52.014Z" fill="#b45ef4"/>
        <path id="Trazado_210524" data-name="Trazado 210524" d="M506.43,97.6l20.079-8.008a24.2,24.2,0,0,0-10.57-13.676,19.527,19.527,0,0,0-2.028-1.02L486.253,85.939Z" fill="#b45ef4"/>
        <path id="Trazado_210525" data-name="Trazado 210525" d="M475.371,43.8l8.617,4.978,14.954-5.954a23.762,23.762,0,0,0-3.409-2.4,21.129,21.129,0,0,0-5.847-2.318Z" fill="#c285f9"/>
        <path id="Trazado_210526" data-name="Trazado 210526" d="M525.182,86.247,510.729,92l4.264,5.991,12.4-4.931A27.856,27.856,0,0,0,525.182,86.247Z" fill="#c285f9"/>
        <path id="Trazado_210527" data-name="Trazado 210527" d="M522.5,107.665a12.384,12.384,0,0,0-4.572-1.571c1.557-10.383-3.044-21.41-11.652-26.383a18.179,18.179,0,0,0-7.95-2.467c3.373-12.585-1.838-26.888-12.456-33.022-11.42-6.6-24.764-1.25-29.8,11.945-.171.448-.328.9-.476,1.353-8.713-3.876-18.346.491-22.128,10.39-4.025,10.536.1,23.349,9.223,28.617l68.869,39.79c6.848,3.956,14.849.749,17.871-7.163S529.345,111.621,522.5,107.665Z" fill="#8a2ae3"/>
        <g id="Grupo_160860" data-name="Grupo 160860">
          <path id="Trazado_210528" data-name="Trazado 210528" d="M447.8,59.581a9.055,9.055,0,0,0-3.632.735c-2.734,1.193-5.1,3.961-6.486,7.594-3.537,9.257.244,20.989,8.255,25.618l68.87,39.789a7.176,7.176,0,0,0,6.144.869c1.741-.7,3.288-2.532,4.243-5.032,2.553-6.682-.176-15.149-5.958-18.49a8.953,8.953,0,0,0-3.275-1.149l-2.8-.377.359-2.4c1.436-9.575-2.985-19.681-10.513-24.03A14.5,14.5,0,0,0,496.68,80.7l-3.466-.224.779-2.907c3.094-11.54-1.907-24.869-11.384-30.345-4.406-2.545-9.049-3.059-13.069-1.449s-7.306,5.3-9.251,10.4c-.151.4-.289.793-.42,1.193l-1.857,5.7-5.4-2.4A11.875,11.875,0,0,0,447.8,59.581Z" fill="#6614cf"/>
        </g>
        <g id="Grupo_160861" data-name="Grupo 160861">
          <path id="Trazado_210529" data-name="Trazado 210529" d="M482.765,96.029a2.5,2.5,0,0,0,.962,2.987,1.7,1.7,0,0,0,2.485-1,2.5,2.5,0,0,0-.963-2.987A1.7,1.7,0,0,0,482.765,96.029Z" fill="#ff2c9c"/>
          <path id="Trazado_210530" data-name="Trazado 210530" d="M477.219,92.825a2.5,2.5,0,0,0,.963,2.987,1.7,1.7,0,0,0,2.484-.995,2.5,2.5,0,0,0-.962-2.988A1.7,1.7,0,0,0,477.219,92.825Z" fill="#ff2c9c"/>
          <path id="Trazado_210531" data-name="Trazado 210531" d="M471.674,89.621a2.5,2.5,0,0,0,.963,2.987,1.7,1.7,0,0,0,2.484-1,2.5,2.5,0,0,0-.963-2.988A1.7,1.7,0,0,0,471.674,89.621Z" fill="#ff2c9c"/>
        </g>
      </g>
      <g id="Grupo_160870" data-name="Grupo 160870" transform="translate(-66)">
        <path id="Trazado_210532" data-name="Trazado 210532" d="M334.951,195.856,310.433,181.7c-1.505-.869-1.316-2.386.421-3.39l23.674-13.668a6.525,6.525,0,0,1,5.871-.243l24.518,14.155c1.5.869,1.316,2.387-.422,3.39l-23.674,13.668A6.523,6.523,0,0,1,334.951,195.856Z" fill="#c4d9e8" opacity="0.5"/>
        <g id="Grupo_160864" data-name="Grupo 160864">
          <path id="Trazado_210533" data-name="Trazado 210533" d="M373.05,167.774h0V157.18l-23.754-.013-8.21-4.74a8.17,8.17,0,0,0-7.351.3l-7.661,4.423-23.774-.013v10.894a2.131,2.131,0,0,0,1.262,1.97l30.7,17.726a8.172,8.172,0,0,0,7.352-.305L371.26,170.31C372.515,169.586,373.12,168.647,373.05,167.774Z" fill="#396caa"/>
          <path id="Trazado_210534" data-name="Trazado 210534" d="M337.675,151.7a8.477,8.477,0,0,0-3.94,1.033l-7.661,4.423-23.774-.013v10.894a2.131,2.131,0,0,0,1.262,1.97l30.7,17.726a6.675,6.675,0,0,0,3.412.729Z" fill="#396caa"/>
          <path id="Trazado_210535" data-name="Trazado 210535" d="M304.99,157.142H302.3v10.894a2.131,2.131,0,0,0,1.262,1.97l1.428.825Z" fill="#5793ce"/>
          <path id="Trazado_210536" data-name="Trazado 210536" d="M334.737,187.962a8.369,8.369,0,0,0,5.876-.067v-12.37h-5.876Z" fill="#5793ce"/>
          <path id="Trazado_210537" data-name="Trazado 210537" d="M334.263,176.875l-30.7-17.725c-1.884-1.088-1.648-2.988.528-4.244l29.645-17.116a8.17,8.17,0,0,1,7.351-.3l30.7,17.726c1.884,1.088,1.648,2.988-.528,4.244l-29.645,17.116A8.172,8.172,0,0,1,334.263,176.875Z" fill="#d4ecff"/>
          <path id="Trazado_210538" data-name="Trazado 210538" d="M334.816,173.685l-25.728-14.854c-1.579-.912-1.381-2.5.442-3.557l24.843-14.343a6.844,6.844,0,0,1,6.16-.255l25.729,14.854c1.579.912,1.381,2.5-.443,3.557L340.977,173.43A6.849,6.849,0,0,1,334.816,173.685Z" fill="#5793ce"/>
          <g id="Grupo_160863" data-name="Grupo 160863">
            <path id="Trazado_210539" data-name="Trazado 210539" d="M361.757,170.569a2.74,2.74,0,0,1-1.24,2.148c-.684.4-1.24.075-1.24-.716a2.744,2.744,0,0,1,1.24-2.148C361.2,169.458,361.757,169.778,361.757,170.569Z" fill="#d4ecff"/>
            <path id="Trazado_210540" data-name="Trazado 210540" d="M365.747,168.266a2.741,2.741,0,0,1-1.24,2.148c-.685.4-1.24.074-1.24-.716a2.74,2.74,0,0,1,1.24-2.148C365.192,167.154,365.747,167.475,365.747,168.266Z" fill="#d4ecff"/>
            <path id="Trazado_210541" data-name="Trazado 210541" d="M369.737,165.962a2.74,2.74,0,0,1-1.24,2.148c-.685.4-1.24.075-1.24-.716a2.741,2.741,0,0,1,1.24-2.148C369.182,164.851,369.737,165.171,369.737,165.962Z" fill="#d4ecff"/>
          </g>
        </g>
        <g id="Grupo_160866" data-name="Grupo 160866">
          <path id="Trazado_210542" data-name="Trazado 210542" d="M373.05,150.845h0V140.252l-23.754-.014-8.21-4.74a8.17,8.17,0,0,0-7.351.3l-7.661,4.422-23.774-.013v10.895a2.129,2.129,0,0,0,1.262,1.969l30.7,17.726a8.172,8.172,0,0,0,7.352-.305l29.645-17.115C372.515,152.657,373.12,151.719,373.05,150.845Z" fill="#396caa"/>
          <path id="Trazado_210543" data-name="Trazado 210543" d="M337.675,134.769a8.478,8.478,0,0,0-3.94,1.034l-7.661,4.422-23.774-.013v10.895a2.129,2.129,0,0,0,1.262,1.969l30.7,17.726a6.655,6.655,0,0,0,3.412.729Z" fill="#396caa"/>
          <path id="Trazado_210544" data-name="Trazado 210544" d="M304.99,140.214l-2.69,0v10.895a2.129,2.129,0,0,0,1.262,1.969l1.428.825Z" fill="#5793ce"/>
          <path id="Trazado_210545" data-name="Trazado 210545" d="M334.737,171.034a8.38,8.38,0,0,0,5.876-.067V158.6h-5.876Z" fill="#5793ce"/>
          <path id="Trazado_210546" data-name="Trazado 210546" d="M334.263,159.947l-30.7-17.726c-1.884-1.088-1.648-2.988.528-4.244l29.645-17.116a8.17,8.17,0,0,1,7.351-.3l30.7,17.725c1.884,1.088,1.648,2.988-.528,4.244l-29.645,17.116A8.176,8.176,0,0,1,334.263,159.947Z" fill="#d4ecff"/>
          <path id="Trazado_210547" data-name="Trazado 210547" d="M334.816,156.756,309.088,141.9c-1.579-.912-1.381-2.5.442-3.557L334.373,124a6.847,6.847,0,0,1,6.16-.255L366.262,138.6c1.579.912,1.381,2.5-.443,3.557L340.977,156.5A6.846,6.846,0,0,1,334.816,156.756Z" fill="#5793ce"/>
          <g id="Grupo_160865" data-name="Grupo 160865">
            <path id="Trazado_210548" data-name="Trazado 210548" d="M361.757,153.64a2.74,2.74,0,0,1-1.24,2.148c-.684.4-1.24.075-1.24-.716a2.742,2.742,0,0,1,1.24-2.147C361.2,152.529,361.757,152.85,361.757,153.64Z" fill="#d4ecff"/>
            <path id="Trazado_210549" data-name="Trazado 210549" d="M365.747,151.337a2.741,2.741,0,0,1-1.24,2.148c-.685.4-1.24.075-1.24-.716a2.74,2.74,0,0,1,1.24-2.148C365.192,150.226,365.747,150.546,365.747,151.337Z" fill="#d4ecff"/>
            <path id="Trazado_210550" data-name="Trazado 210550" d="M369.737,149.033a2.74,2.74,0,0,1-1.24,2.148c-.685.4-1.24.075-1.24-.716a2.74,2.74,0,0,1,1.24-2.147C369.182,147.922,369.737,148.243,369.737,149.033Z" fill="#d4ecff"/>
          </g>
        </g>
        <g id="Grupo_160869" data-name="Grupo 160869">
          <path id="Trazado_210551" data-name="Trazado 210551" d="M373.05,133.916h0V123.323L349.3,123.31l-8.21-4.741a8.17,8.17,0,0,0-7.351.305l-7.661,4.423-23.774-.014v10.895a2.132,2.132,0,0,0,1.262,1.97l30.7,17.725a8.169,8.169,0,0,0,7.352-.305l29.645-17.115C372.515,135.728,373.12,134.79,373.05,133.916Z" fill="#396caa"/>
          <path id="Trazado_210552" data-name="Trazado 210552" d="M337.675,117.841a8.465,8.465,0,0,0-3.94,1.033l-7.661,4.423-23.774-.014v10.895a2.132,2.132,0,0,0,1.262,1.97l30.7,17.725a6.655,6.655,0,0,0,3.412.729Z" fill="#396caa"/>
          <path id="Trazado_210553" data-name="Trazado 210553" d="M304.99,123.285l-2.69,0v10.895a2.132,2.132,0,0,0,1.262,1.97l1.428.824Z" fill="#5793ce"/>
          <path id="Trazado_210554" data-name="Trazado 210554" d="M334.737,154.1a8.38,8.38,0,0,0,5.876-.067v-12.37h-5.876Z" fill="#5793ce"/>
          <path id="Trazado_210555" data-name="Trazado 210555" d="M334.263,143.018l-30.7-17.726c-1.884-1.088-1.648-2.988.528-4.244l29.645-17.115a8.167,8.167,0,0,1,7.351-.305l30.7,17.725c1.884,1.088,1.648,2.989-.528,4.245l-29.645,17.115A8.172,8.172,0,0,1,334.263,143.018Z" fill="#d4ecff"/>
          <path id="Trazado_210556" data-name="Trazado 210556" d="M371.26,123.513l-29.645,17.116a8.172,8.172,0,0,1-7.352.3l-30.7-17.725a2.834,2.834,0,0,1-.94-.835c-.648,1.042-.354,2.172.94,2.919l30.7,17.726a8.172,8.172,0,0,0,7.352-.305L371.26,125.6c1.69-.976,2.2-2.34,1.468-3.41A4.118,4.118,0,0,1,371.26,123.513Z" fill="#fff"/>
          <g id="Grupo_160867" data-name="Grupo 160867">
            <path id="Trazado_210557" data-name="Trazado 210557" d="M361.757,136.712a2.741,2.741,0,0,1-1.24,2.148c-.684.4-1.24.074-1.24-.716a2.743,2.743,0,0,1,1.24-2.148C361.2,135.6,361.757,135.921,361.757,136.712Z" fill="#d4ecff"/>
            <path id="Trazado_210558" data-name="Trazado 210558" d="M365.747,134.408a2.74,2.74,0,0,1-1.24,2.148c-.685.4-1.24.075-1.24-.716a2.741,2.741,0,0,1,1.24-2.148C365.192,133.3,365.747,133.617,365.747,134.408Z" fill="#d4ecff"/>
            <path id="Trazado_210559" data-name="Trazado 210559" d="M369.737,132.1a2.741,2.741,0,0,1-1.24,2.148c-.685.395-1.24.074-1.24-.716a2.74,2.74,0,0,1,1.24-2.148C369.182,130.993,369.737,131.314,369.737,132.1Z" fill="#d4ecff"/>
          </g>
          <g id="Grupo_160868" data-name="Grupo 160868">
            <path id="Trazado_210560" data-name="Trazado 210560" d="M336.079,132.028l-14.367-8.294c-.882-.509-.771-1.4.247-1.987l13.872-8.009a3.823,3.823,0,0,1,3.44-.142l14.367,8.294c.882.509.771,1.4-.247,1.987l-13.872,8.009A3.823,3.823,0,0,1,336.079,132.028Z" fill="#5793ce"/>
            <path id="Trazado_210561" data-name="Trazado 210561" d="M337.454,125.083l-1.987-1.147c-.122-.071-.107-.194.034-.275l1.919-1.108a.528.528,0,0,1,.476-.02l1.988,1.148c.122.07.106.193-.034.274l-1.92,1.109A.528.528,0,0,1,337.454,125.083Z" fill="#d4ecff"/>
            <path id="Trazado_210562" data-name="Trazado 210562" d="M321.712,123.734l.041.023c.067-.048.129-.1.206-.142l13.872-8.009a3.823,3.823,0,0,1,3.44-.143l14.327,8.272c.812-.582.855-1.374.04-1.845L339.271,113.6a3.823,3.823,0,0,0-3.44.142l-13.872,8.009C320.941,122.335,320.83,123.225,321.712,123.734Z" fill="#396caa"/>
          </g>
        </g>
      </g>
      <g id="Grupo_160878" data-name="Grupo 160878" transform="translate(35.583)">
        <path id="Trazado_210563" data-name="Trazado 210563" d="M517.39,318.615,492.873,304.46c-1.5-.869-1.316-2.387.421-3.39L516.968,287.4a6.525,6.525,0,0,1,5.871-.243l24.517,14.155c1.505.869,1.316,2.386-.421,3.389l-23.674,13.668A6.522,6.522,0,0,1,517.39,318.615Z" fill="#c4d9e8" opacity="0.5"/>
        <g id="Grupo_160872" data-name="Grupo 160872">
          <path id="Trazado_210564" data-name="Trazado 210564" d="M555.49,290.532h0V279.939l-23.754-.013-8.21-4.741a8.176,8.176,0,0,0-7.352.3l-7.66,4.423-23.775-.013v10.894a2.132,2.132,0,0,0,1.263,1.97l30.7,17.725a8.172,8.172,0,0,0,7.352-.3L553.7,293.069C554.955,292.345,555.56,291.406,555.49,290.532Z" fill="#721bd5"/>
          <path id="Trazado_210565" data-name="Trazado 210565" d="M520.115,274.457a8.484,8.484,0,0,0-3.941,1.033l-7.66,4.423-23.775-.013v10.894a2.132,2.132,0,0,0,1.263,1.97l30.7,17.725a6.653,6.653,0,0,0,3.412.729Z" fill="#983be9"/>
          <path id="Trazado_210566" data-name="Trazado 210566" d="M487.43,279.9h-2.691v10.894a2.132,2.132,0,0,0,1.263,1.97l1.428.824Z" fill="#b45ef4"/>
          <path id="Trazado_210567" data-name="Trazado 210567" d="M517.176,310.721a8.377,8.377,0,0,0,5.877-.067v-12.37h-5.877Z" fill="#7e23dc"/>
          <path id="Trazado_210568" data-name="Trazado 210568" d="M516.7,299.634,486,281.908c-1.885-1.087-1.648-2.988.527-4.244l29.645-17.115a8.172,8.172,0,0,1,7.352-.305l30.7,17.726c1.885,1.088,1.648,2.988-.528,4.244l-29.644,17.115A8.169,8.169,0,0,1,516.7,299.634Z" fill="#8a2ae3"/>
          <path id="Trazado_210569" data-name="Trazado 210569" d="M517.256,296.444,491.528,281.59c-1.579-.912-1.381-2.505.442-3.557l24.843-14.343a6.847,6.847,0,0,1,6.16-.256L548.7,278.289c1.579.911,1.381,2.5-.442,3.556l-24.843,14.343A6.847,6.847,0,0,1,517.256,296.444Z" fill="#6614cf"/>
          <g id="Grupo_160871" data-name="Grupo 160871">
            <path id="Trazado_210570" data-name="Trazado 210570" d="M544.2,293.328a2.741,2.741,0,0,1-1.24,2.148c-.685.395-1.24.075-1.24-.716a2.74,2.74,0,0,1,1.24-2.148C543.642,292.217,544.2,292.537,544.2,293.328Z" fill="#ff2c9c"/>
            <path id="Trazado_210571" data-name="Trazado 210571" d="M548.187,291.024a2.74,2.74,0,0,1-1.24,2.148c-.685.4-1.24.075-1.24-.716a2.74,2.74,0,0,1,1.24-2.147C547.632,289.913,548.187,290.234,548.187,291.024Z" fill="#ff2c9c"/>
            <path id="Trazado_210572" data-name="Trazado 210572" d="M552.177,288.721a2.744,2.744,0,0,1-1.24,2.148c-.685.4-1.24.075-1.24-.716a2.74,2.74,0,0,1,1.24-2.148C551.621,287.61,552.177,287.93,552.177,288.721Z" fill="#ff2c9c"/>
          </g>
        </g>
        <g id="Grupo_160874" data-name="Grupo 160874">
          <path id="Trazado_210573" data-name="Trazado 210573" d="M555.49,273.352h0V262.759l-23.754-.013-8.21-4.741a8.175,8.175,0,0,0-7.352.3l-7.66,4.423-23.775-.013v10.894a2.132,2.132,0,0,0,1.263,1.97l30.7,17.725a8.172,8.172,0,0,0,7.352-.3L553.7,275.889C554.955,275.165,555.56,274.226,555.49,273.352Z" fill="#721bd5"/>
          <path id="Trazado_210574" data-name="Trazado 210574" d="M520.115,257.277a8.484,8.484,0,0,0-3.941,1.033l-7.66,4.423-23.775-.013v10.894a2.132,2.132,0,0,0,1.263,1.97l30.7,17.725a6.653,6.653,0,0,0,3.412.729Z" fill="#983be9"/>
          <path id="Trazado_210575" data-name="Trazado 210575" d="M487.43,262.721h-2.691v10.894a2.132,2.132,0,0,0,1.263,1.97l1.428.824Z" fill="#b45ef4"/>
          <path id="Trazado_210576" data-name="Trazado 210576" d="M517.176,293.541a8.377,8.377,0,0,0,5.877-.067V281.1h-5.877Z" fill="#7e23dc"/>
          <path id="Trazado_210577" data-name="Trazado 210577" d="M516.7,282.454,486,264.728c-1.885-1.087-1.648-2.988.527-4.244l29.645-17.115a8.172,8.172,0,0,1,7.352-.305l30.7,17.726c1.885,1.088,1.648,2.988-.528,4.244l-29.644,17.115A8.169,8.169,0,0,1,516.7,282.454Z" fill="#8a2ae3"/>
          <path id="Trazado_210578" data-name="Trazado 210578" d="M517.256,279.264l-25.728-14.855c-1.579-.911-1.381-2.5.442-3.556l24.843-14.343a6.847,6.847,0,0,1,6.16-.256L548.7,261.109c1.579.911,1.381,2.5-.442,3.556l-24.843,14.343A6.847,6.847,0,0,1,517.256,279.264Z" fill="#6614cf"/>
          <g id="Grupo_160873" data-name="Grupo 160873">
            <path id="Trazado_210579" data-name="Trazado 210579" d="M544.2,276.148a2.741,2.741,0,0,1-1.24,2.148c-.685.4-1.24.075-1.24-.716a2.74,2.74,0,0,1,1.24-2.148C543.642,275.037,544.2,275.357,544.2,276.148Z" fill="#ff2c9c"/>
            <path id="Trazado_210580" data-name="Trazado 210580" d="M548.187,273.844a2.74,2.74,0,0,1-1.24,2.148c-.685.4-1.24.075-1.24-.716a2.74,2.74,0,0,1,1.24-2.147C547.632,272.733,548.187,273.054,548.187,273.844Z" fill="#ff2c9c"/>
            <path id="Trazado_210581" data-name="Trazado 210581" d="M552.177,271.541a2.744,2.744,0,0,1-1.24,2.148c-.685.4-1.24.075-1.24-.716a2.74,2.74,0,0,1,1.24-2.148C551.621,270.43,552.177,270.75,552.177,271.541Z" fill="#ff2c9c"/>
          </g>
        </g>
        <g id="Grupo_160877" data-name="Grupo 160877">
          <path id="Trazado_210582" data-name="Trazado 210582" d="M555.49,256.172h0V245.579l-23.754-.013-8.21-4.74a8.172,8.172,0,0,0-7.352.3l-7.66,4.423-23.775-.013v10.894A2.132,2.132,0,0,0,486,258.4l30.7,17.725a8.172,8.172,0,0,0,7.352-.3L553.7,258.709C554.955,257.985,555.56,257.046,555.49,256.172Z" fill="#721bd5"/>
          <path id="Trazado_210583" data-name="Trazado 210583" d="M520.115,240.1a8.484,8.484,0,0,0-3.941,1.033l-7.66,4.423-23.775-.013v10.894A2.132,2.132,0,0,0,486,258.4l30.7,17.725a6.653,6.653,0,0,0,3.412.729Z" fill="#983be9"/>
          <path id="Trazado_210584" data-name="Trazado 210584" d="M487.43,245.541h-2.691v10.894A2.132,2.132,0,0,0,486,258.4l1.428.824Z" fill="#b45ef4"/>
          <path id="Trazado_210585" data-name="Trazado 210585" d="M517.176,276.361a8.377,8.377,0,0,0,5.877-.067v-12.37h-5.877Z" fill="#7e23dc"/>
          <path id="Trazado_210586" data-name="Trazado 210586" d="M516.7,265.274,486,247.549c-1.885-1.088-1.648-2.989.527-4.245l29.645-17.115a8.172,8.172,0,0,1,7.352-.3l30.7,17.726c1.885,1.088,1.648,2.988-.528,4.244l-29.644,17.115A8.169,8.169,0,0,1,516.7,265.274Z" fill="#8a2ae3"/>
          <path id="Trazado_210587" data-name="Trazado 210587" d="M553.7,245.769l-29.644,17.116a8.172,8.172,0,0,1-7.352.3L486,245.464a2.848,2.848,0,0,1-.941-.834c-.647,1.041-.353,2.171.941,2.919l30.7,17.725a8.169,8.169,0,0,0,7.352-.3L553.7,247.854c1.691-.976,2.205-2.34,1.468-3.41A4.1,4.1,0,0,1,553.7,245.769Z" fill="#b45ef4"/>
          <g id="Grupo_160875" data-name="Grupo 160875">
            <path id="Trazado_210588" data-name="Trazado 210588" d="M544.2,258.968a2.741,2.741,0,0,1-1.24,2.148c-.685.395-1.24.075-1.24-.716a2.74,2.74,0,0,1,1.24-2.148C543.642,257.857,544.2,258.177,544.2,258.968Z" fill="#ff2c9c"/>
            <path id="Trazado_210589" data-name="Trazado 210589" d="M548.187,256.664a2.74,2.74,0,0,1-1.24,2.148c-.685.4-1.24.075-1.24-.716a2.74,2.74,0,0,1,1.24-2.147C547.632,255.553,548.187,255.874,548.187,256.664Z" fill="#ff2c9c"/>
            <path id="Trazado_210590" data-name="Trazado 210590" d="M552.177,254.361a2.744,2.744,0,0,1-1.24,2.148c-.685.395-1.24.075-1.24-.716a2.74,2.74,0,0,1,1.24-2.148C551.621,253.25,552.177,253.57,552.177,254.361Z" fill="#ff2c9c"/>
          </g>
          <g id="Grupo_160876" data-name="Grupo 160876">
            <path id="Trazado_210591" data-name="Trazado 210591" d="M518.519,254.756l-14.367-8.295c-.882-.509-.771-1.4.247-1.986l13.872-8.009a3.823,3.823,0,0,1,3.44-.143l14.367,8.295c.882.509.771,1.4-.247,1.986l-13.872,8.009A3.823,3.823,0,0,1,518.519,254.756Z" fill="#6614cf"/>
            <path id="Trazado_210592" data-name="Trazado 210592" d="M519.894,247.811l-1.988-1.148c-.122-.07-.106-.193.034-.275l1.92-1.108a.528.528,0,0,1,.476-.019l1.987,1.147c.122.071.107.194-.034.275l-1.919,1.108A.532.532,0,0,1,519.894,247.811Z" fill="#ff2c9c"/>
            <path id="Trazado_210593" data-name="Trazado 210593" d="M504.152,246.461l.04.024a2.421,2.421,0,0,1,.207-.142l13.872-8.009a3.823,3.823,0,0,1,3.44-.143l14.326,8.271c.813-.582.856-1.374.041-1.844l-14.367-8.295a3.823,3.823,0,0,0-3.44.143L504.4,244.475C503.381,245.063,503.27,245.952,504.152,246.461Z" fill="#b45ef4"/>
          </g>
        </g>
        <path id="Trazado_210594" data-name="Trazado 210594" d="M507.528,284.693l-12.43-7.176a3.322,3.322,0,0,1-1.387-2.651h0c0-1.022.621-1.491,1.387-1.049l12.43,7.176a3.322,3.322,0,0,1,1.387,2.651h0C508.915,284.666,508.294,285.135,507.528,284.693Z" fill="#6614cf"/>
        <path id="Trazado_210595" data-name="Trazado 210595" d="M508.639,284.008l-12.429-7.176a3.322,3.322,0,0,1-1.387-2.651,1.96,1.96,0,0,1,.056-.461c-.661-.241-1.168.224-1.168,1.146a3.322,3.322,0,0,0,1.387,2.651l12.43,7.176a.827.827,0,0,0,1.331-.588A1.382,1.382,0,0,1,508.639,284.008Z" fill="#b45ef4"/>
      </g>
      <g id="Grupo_160886" data-name="Grupo 160886" transform="translate(35.583)">
        <path id="Trazado_210596" data-name="Trazado 210596" d="M462.992,349.326l-24.517-14.155c-1.505-.869-1.317-2.386.421-3.39l23.674-13.668a6.525,6.525,0,0,1,5.871-.243l24.517,14.155c1.505.869,1.316,2.387-.421,3.39l-23.674,13.668A6.525,6.525,0,0,1,462.992,349.326Z" fill="#c4d9e8" opacity="0.5"/>
        <g id="Grupo_160880" data-name="Grupo 160880">
          <path id="Trazado_210597" data-name="Trazado 210597" d="M501.092,321.244h0V310.65l-23.754-.013-8.21-4.74a8.169,8.169,0,0,0-7.352.3l-7.66,4.422-23.775-.013v10.9a2.131,2.131,0,0,0,1.263,1.969L462.3,341.2a8.172,8.172,0,0,0,7.352-.3L499.3,323.781C500.557,323.056,501.162,322.117,501.092,321.244Z" fill="#721bd5"/>
          <path id="Trazado_210598" data-name="Trazado 210598" d="M465.717,305.168a8.473,8.473,0,0,0-3.941,1.034l-7.66,4.422-23.775-.013v10.9a2.131,2.131,0,0,0,1.263,1.969L462.3,341.2a6.653,6.653,0,0,0,3.412.729Z" fill="#983be9"/>
          <path id="Trazado_210599" data-name="Trazado 210599" d="M433.032,310.612h-2.691v10.9a2.131,2.131,0,0,0,1.263,1.969l1.428.825Z" fill="#b45ef4"/>
          <path id="Trazado_210600" data-name="Trazado 210600" d="M462.778,341.432a8.371,8.371,0,0,0,5.877-.067v-12.37h-5.877Z" fill="#7e23dc"/>
          <path id="Trazado_210601" data-name="Trazado 210601" d="M462.3,330.345,431.6,312.62c-1.885-1.088-1.648-2.988.527-4.244l29.645-17.116a8.172,8.172,0,0,1,7.352-.305l30.7,17.726c1.884,1.088,1.648,2.988-.528,4.244l-29.644,17.116A8.172,8.172,0,0,1,462.3,330.345Z" fill="#8a2ae3"/>
          <path id="Trazado_210602" data-name="Trazado 210602" d="M462.858,327.155,437.129,312.3c-1.579-.912-1.381-2.5.443-3.557L462.414,294.4a6.846,6.846,0,0,1,6.161-.255L494.3,309c1.579.912,1.381,2.5-.442,3.557L469.018,326.9A6.847,6.847,0,0,1,462.858,327.155Z" fill="#6614cf"/>
          <g id="Grupo_160879" data-name="Grupo 160879">
            <path id="Trazado_210603" data-name="Trazado 210603" d="M489.8,324.039a2.74,2.74,0,0,1-1.24,2.148c-.685.395-1.24.075-1.24-.716a2.741,2.741,0,0,1,1.24-2.148C489.244,322.928,489.8,323.248,489.8,324.039Z" fill="#ff2c9c"/>
            <path id="Trazado_210604" data-name="Trazado 210604" d="M493.789,321.736a2.74,2.74,0,0,1-1.24,2.147c-.685.4-1.24.075-1.24-.715a2.74,2.74,0,0,1,1.24-2.148C493.234,320.624,493.789,320.945,493.789,321.736Z" fill="#ff2c9c"/>
            <path id="Trazado_210605" data-name="Trazado 210605" d="M497.779,319.432a2.743,2.743,0,0,1-1.24,2.148c-.685.4-1.241.075-1.241-.716a2.742,2.742,0,0,1,1.241-2.148C497.223,318.321,497.779,318.641,497.779,319.432Z" fill="#ff2c9c"/>
          </g>
        </g>
        <g id="Grupo_160882" data-name="Grupo 160882">
          <path id="Trazado_210606" data-name="Trazado 210606" d="M501.092,304.064h0V293.47l-23.754-.013-8.21-4.74a8.169,8.169,0,0,0-7.352.3l-7.66,4.422-23.775-.013v10.895A2.131,2.131,0,0,0,431.6,306.3l30.7,17.726a8.172,8.172,0,0,0,7.352-.3L499.3,306.6C500.557,305.876,501.162,304.937,501.092,304.064Z" fill="#721bd5"/>
          <path id="Trazado_210607" data-name="Trazado 210607" d="M465.717,287.988a8.473,8.473,0,0,0-3.941,1.034l-7.66,4.422-23.775-.013v10.895A2.131,2.131,0,0,0,431.6,306.3l30.7,17.726a6.653,6.653,0,0,0,3.412.728Z" fill="#983be9"/>
          <path id="Trazado_210608" data-name="Trazado 210608" d="M433.032,293.432h-2.691v10.895A2.131,2.131,0,0,0,431.6,306.3l1.428.825Z" fill="#b45ef4"/>
          <path id="Trazado_210609" data-name="Trazado 210609" d="M462.778,324.252a8.371,8.371,0,0,0,5.877-.067v-12.37h-5.877Z" fill="#7e23dc"/>
          <path id="Trazado_210610" data-name="Trazado 210610" d="M462.3,313.165,431.6,295.44c-1.885-1.088-1.648-2.988.527-4.245l29.645-17.115a8.172,8.172,0,0,1,7.352-.3l30.7,17.726c1.884,1.088,1.648,2.988-.528,4.244l-29.644,17.116A8.172,8.172,0,0,1,462.3,313.165Z" fill="#8a2ae3"/>
          <path id="Trazado_210611" data-name="Trazado 210611" d="M462.858,309.975l-25.729-14.854c-1.579-.912-1.381-2.5.443-3.557l24.842-14.343a6.846,6.846,0,0,1,6.161-.255L494.3,291.82c1.579.912,1.381,2.5-.442,3.557L469.018,309.72A6.847,6.847,0,0,1,462.858,309.975Z" fill="#6614cf"/>
          <g id="Grupo_160881" data-name="Grupo 160881">
            <path id="Trazado_210612" data-name="Trazado 210612" d="M489.8,306.859a2.74,2.74,0,0,1-1.24,2.148c-.685.4-1.24.075-1.24-.716a2.741,2.741,0,0,1,1.24-2.148C489.244,305.748,489.8,306.068,489.8,306.859Z" fill="#ff2c9c"/>
            <path id="Trazado_210613" data-name="Trazado 210613" d="M493.789,304.556a2.74,2.74,0,0,1-1.24,2.147c-.685.4-1.24.075-1.24-.715a2.74,2.74,0,0,1,1.24-2.148C493.234,303.444,493.789,303.765,493.789,304.556Z" fill="#ff2c9c"/>
            <path id="Trazado_210614" data-name="Trazado 210614" d="M497.779,302.252a2.743,2.743,0,0,1-1.24,2.148c-.685.4-1.241.075-1.241-.716a2.742,2.742,0,0,1,1.241-2.148C497.223,301.141,497.779,301.461,497.779,302.252Z" fill="#ff2c9c"/>
          </g>
        </g>
        <g id="Grupo_160885" data-name="Grupo 160885">
          <path id="Trazado_210615" data-name="Trazado 210615" d="M501.092,286.884h0V276.29l-23.754-.013-8.21-4.74a8.169,8.169,0,0,0-7.352.305l-7.66,4.422-23.775-.013v10.895a2.131,2.131,0,0,0,1.263,1.969l30.7,17.726a8.173,8.173,0,0,0,7.352-.3L499.3,289.421C500.557,288.7,501.162,287.757,501.092,286.884Z" fill="#721bd5"/>
          <path id="Trazado_210616" data-name="Trazado 210616" d="M465.717,270.808a8.473,8.473,0,0,0-3.941,1.034l-7.66,4.422-23.775-.013v10.895a2.131,2.131,0,0,0,1.263,1.969l30.7,17.726a6.653,6.653,0,0,0,3.412.728Z" fill="#983be9"/>
          <path id="Trazado_210617" data-name="Trazado 210617" d="M433.032,276.252h-2.691v10.895a2.131,2.131,0,0,0,1.263,1.969l1.428.825Z" fill="#b45ef4"/>
          <path id="Trazado_210618" data-name="Trazado 210618" d="M462.778,307.072a8.371,8.371,0,0,0,5.877-.067v-12.37h-5.877Z" fill="#7e23dc"/>
          <path id="Trazado_210619" data-name="Trazado 210619" d="M462.3,295.985,431.6,278.26c-1.885-1.088-1.648-2.988.527-4.245L461.776,256.9a8.172,8.172,0,0,1,7.352-.3l30.7,17.726c1.884,1.088,1.648,2.988-.528,4.244l-29.644,17.116A8.172,8.172,0,0,1,462.3,295.985Z" fill="#8a2ae3"/>
          <path id="Trazado_210620" data-name="Trazado 210620" d="M499.3,276.48,469.657,293.6a8.172,8.172,0,0,1-7.352.3l-30.7-17.726a2.837,2.837,0,0,1-.941-.834c-.647,1.042-.353,2.172.941,2.919l30.7,17.725a8.172,8.172,0,0,0,7.352-.3L499.3,278.565c1.691-.976,2.205-2.339,1.468-3.41A4.1,4.1,0,0,1,499.3,276.48Z" fill="#b45ef4"/>
          <g id="Grupo_160883" data-name="Grupo 160883">
            <path id="Trazado_210621" data-name="Trazado 210621" d="M489.8,289.679a2.74,2.74,0,0,1-1.24,2.148c-.685.395-1.24.075-1.24-.716a2.741,2.741,0,0,1,1.24-2.148C489.244,288.568,489.8,288.888,489.8,289.679Z" fill="#ff2c9c"/>
            <path id="Trazado_210622" data-name="Trazado 210622" d="M493.789,287.376a2.74,2.74,0,0,1-1.24,2.147c-.685.4-1.24.075-1.24-.715a2.74,2.74,0,0,1,1.24-2.148C493.234,286.264,493.789,286.585,493.789,287.376Z" fill="#ff2c9c"/>
            <path id="Trazado_210623" data-name="Trazado 210623" d="M497.779,285.072a2.743,2.743,0,0,1-1.24,2.148c-.685.395-1.241.075-1.241-.716a2.743,2.743,0,0,1,1.241-2.148C497.223,283.961,497.779,284.282,497.779,285.072Z" fill="#ff2c9c"/>
          </g>
          <g id="Grupo_160884" data-name="Grupo 160884">
            <path id="Trazado_210624" data-name="Trazado 210624" d="M465.5,278.522l-1.988-1.148c-.122-.07-.106-.193.034-.274l1.92-1.108a.525.525,0,0,1,.476-.02l1.987,1.148c.122.07.107.193-.034.274l-1.919,1.108A.525.525,0,0,1,465.5,278.522Z" fill="#ff2c9c"/>
          </g>
        </g>
        <path id="Trazado_210625" data-name="Trazado 210625" d="M453.13,315.4l-12.43-7.176a3.322,3.322,0,0,1-1.387-2.651h0c0-1.021.621-1.491,1.387-1.049l12.43,7.176a3.325,3.325,0,0,1,1.387,2.651h0C454.517,315.377,453.9,315.847,453.13,315.4Z" fill="#6614cf"/>
        <path id="Trazado_210626" data-name="Trazado 210626" d="M454.241,314.719l-12.429-7.176a3.322,3.322,0,0,1-1.387-2.651,1.96,1.96,0,0,1,.056-.461c-.661-.241-1.168.225-1.168,1.146a3.322,3.322,0,0,0,1.387,2.651l12.43,7.176a.827.827,0,0,0,1.331-.587A1.351,1.351,0,0,1,454.241,314.719Z" fill="#b45ef4"/>
      </g>
      <g id="Grupo_160892" data-name="Grupo 160892" transform="translate(35.583)">
        <g id="Grupo_160891" data-name="Grupo 160891">
          <g id="Grupo_160888" data-name="Grupo 160888">
            <path id="Trazado_210627" data-name="Trazado 210627" d="M451.932,322.488s-3.032-1.529-4.894.748-4.524,7.651-4.607,11.283,2.874,3.386,4.632,2.527,6.891-8.307,7.2-9.766a5.063,5.063,0,0,0-.861-3.818C452.911,323.076,451.932,322.488,451.932,322.488Z" fill="#173d7a"/>
            <path id="Trazado_210628" data-name="Trazado 210628" d="M452.593,321.757l.14,3.142a1.782,1.782,0,0,1-.887,1.634,3.5,3.5,0,0,1-2.339.363c-2.284-.367-2.488-1.019-2.651-4.16S452.593,321.757,452.593,321.757Z" fill="#e8a200"/>
            <g id="Grupo_160887" data-name="Grupo 160887">
              <path id="Trazado_210629" data-name="Trazado 210629" d="M440.833,316.448s-3.032-1.529-4.894.748-4.524,7.651-4.606,11.283,2.874,3.386,4.631,2.527,6.892-8.307,7.2-9.766a5.063,5.063,0,0,0-.86-3.818C441.812,317.036,440.833,316.448,440.833,316.448Z" fill="#173d7a"/>
              <path id="Trazado_210630" data-name="Trazado 210630" d="M441.495,315.717l.14,3.142a1.781,1.781,0,0,1-.888,1.634,3.5,3.5,0,0,1-2.339.363c-2.284-.367-2.487-1.019-2.651-4.16S441.495,315.717,441.495,315.717Z" fill="#e8a200"/>
              <path id="Trazado_210631" data-name="Trazado 210631" d="M468.549,258.047c-.9-14.6-15.813,2.148-15.813,2.148L442.528,270.2l-9.193,10.1a9.062,9.062,0,0,0-2.283,7.279l3.719,28.316a2.781,2.781,0,0,0,2.79,2.418,9.5,9.5,0,0,0,1.378-.12,3.459,3.459,0,0,0,3.072-3.671l-.68-26.483L460.637,276.4S469.446,272.648,468.549,258.047Z" fill="#fdd762"/>
            </g>
            <path id="Trazado_210632" data-name="Trazado 210632" d="M479.648,263.61c-.9-14.6-15.813,2.148-15.813,2.148l-10.209,10.006-9.192,10.1a9.059,9.059,0,0,0-2.283,7.279l3.718,28.316a2.784,2.784,0,0,0,2.791,2.419,9.636,9.636,0,0,0,1.377-.121,3.46,3.46,0,0,0,3.073-3.671l-.68-26.483,19.3-11.638S480.545,278.211,479.648,263.61Z" fill="#fdd762"/>
            <path id="Trazado_210633" data-name="Trazado 210633" d="M470.824,216.739c11.308,4.689,11.081,11.373,11.081,11.373s-2.215,24.506-1.459,40.872c.316,6.841-36.35,7.363-30.882-10.889,6.447-21.522,4.031-38.945,7.049-41.572S467.9,215.527,470.824,216.739Z" fill="#983be9"/>
            <path id="Trazado_210634" data-name="Trazado 210634" d="M474.462,222.666c-.592,2.3-3.6,3.506-6.719,2.7s-5.169-3.316-4.577-5.612,3.6-3.506,6.719-2.7S475.053,220.371,474.462,222.666Z" fill="#ffc2b0"/>
            <path id="Trazado_210635" data-name="Trazado 210635" d="M469.671,226.158a8.324,8.324,0,0,1-2.063-.265c-3.4-.877-5.63-3.69-4.966-6.271s3.975-3.969,7.377-3.091a7.526,7.526,0,0,1,3.965,2.428,4.088,4.088,0,0,1-1.733,6.722A6.909,6.909,0,0,1,469.671,226.158Zm-1.722-8.812c-2.1,0-3.856.976-4.26,2.546-.516,2,1.363,4.225,4.188,4.954a6.436,6.436,0,0,0,3.971-.168,3.275,3.275,0,0,0,2.09-2.147h0a3.272,3.272,0,0,0-.792-2.888,6.433,6.433,0,0,0-3.4-2.065A7.261,7.261,0,0,0,467.949,217.346Z" fill="#fff"/>
            <path id="Trazado_210636" data-name="Trazado 210636" d="M466.29,216.229a28.055,28.055,0,0,1-.1,4.037c-.062,1.127,3.883,2.179,4.9,1.159s.612-2.08.857-5.913S466.29,216.229,466.29,216.229Z" fill="#ffc2b0"/>
            <path id="Trazado_210637" data-name="Trazado 210637" d="M471.951,215.512s-.972,3.554-5.76,4.918l.073-3.231Z" fill="#ea9c92"/>
            <circle id="Elipse_6411" data-name="Elipse 6411" cx="8.704" cy="8.704" r="8.704" transform="translate(456.477 215.724) rotate(-80.029)" fill="#ffc2b0"/>
            <path id="Trazado_210638" data-name="Trazado 210638" d="M468.556,208.978s-4.792,2.053-8.111,2.077-2.587-2.756-2.587-2.756l9.851-1.423Z" fill="#ea9c92"/>
            <path id="Trazado_210639" data-name="Trazado 210639" d="M459.456,209.519s4.175-1.772,7.837-1.033a3.833,3.833,0,0,1,2.213,1.315,1.309,1.309,0,0,0,.67.485c.649.147,1.713-2.548,2.975-2.609s2.105.832,1.07,2.489-.686,3.512-.209,3.778,5.527-3.6,1.071-12.43-15.773-4.072-17.534-2.283c0,0-1.854,1.615-3.362.178C454.187,199.409,452.5,212.072,459.456,209.519Z" fill="#ff2c9c"/>
            <path id="Trazado_210640" data-name="Trazado 210640" d="M475.561,246.016v6.621a2.7,2.7,0,0,1-.88,1.994l-13.6,12.4,1.546,2.363,17.964-13.028a3.652,3.652,0,0,0,1.487-2.574l1.215-11.548Z" fill="#ffc2b0"/>
            <path id="Trazado_210641" data-name="Trazado 210641" d="M480.948,224.8s4.126,6.206,5.664,22.543c0,0-7.05,2.279-11.051.985S480.948,224.8,480.948,224.8Z" fill="#983be9"/>
            <path id="Trazado_210642" data-name="Trazado 210642" d="M474.808,232.648a114.95,114.95,0,0,0-1.707,12.71,2.591,2.591,0,0,0,1.707,2.505h0Z" fill="#6614cf"/>
          </g>
          <g id="Grupo_160889" data-name="Grupo 160889">
            <path id="Trazado_210643" data-name="Trazado 210643" d="M471.279,275.643l-3.007-.4-19.407-11.205a2.7,2.7,0,0,0-2.428.1l-13.752,7.936-1.818-.24v1.81h0a.709.709,0,0,0,.417.638l21.995,12.7a2.694,2.694,0,0,0,2.427-.1l14.977-8.644a.981.981,0,0,0,.594-.816h0Z" fill="#173d7a"/>
            <path id="Trazado_210644" data-name="Trazado 210644" d="M456.7,268.563l-1.379-.8h-15.16l-7.473,4.311-1.818-.24v1.81h0a.709.709,0,0,0,.417.638l21.995,12.7a2.273,2.273,0,0,0,1.253.235Z" fill="#396caa"/>
            <path id="Trazado_210645" data-name="Trazado 210645" d="M431.674,271.945l-.807-.107v1.81h0a.709.709,0,0,0,.417.638l.388.224Z" fill="#5793ce"/>
            <path id="Trazado_210646" data-name="Trazado 210646" d="M453.5,287.087a2.817,2.817,0,0,0,2.063-.128V283.88H453.5Z" fill="#274f89"/>
            <path id="Trazado_210647" data-name="Trazado 210647" d="M453.281,285.176l-21.995-12.7c-.622-.359-.544-.987.174-1.4l14.977-8.644a2.7,2.7,0,0,1,2.428-.1l21.994,12.7c.622.359.544.986-.174,1.4l-14.977,8.644A2.7,2.7,0,0,1,453.281,285.176Z" fill="#fff"/>
            <path id="Trazado_210648" data-name="Trazado 210648" d="M452.909,283.251,434.62,272.692c-.517-.3-.452-.82.145-1.165l8.026-4.513a2.241,2.241,0,0,1,2.018-.084L463.1,277.489c.517.3.452.82-.145,1.165l-8.026,4.513A2.241,2.241,0,0,1,452.909,283.251Z" fill="#d4ecff"/>
          </g>
          <path id="Trazado_210649" data-name="Trazado 210649" d="M447.288,262.015l-.228,1.517a11.234,11.234,0,0,0,.1,3.892l.271,1.337a1.88,1.88,0,0,0,1.507,1.477h0a1.036,1.036,0,0,0,1.216-.9l.363-3.244s.831,1.087,1.231,1.087-.448-3.249-1.355-5.087S447.288,262.015,447.288,262.015Z" fill="#ffc2b0"/>
          <path id="Trazado_210650" data-name="Trazado 210650" d="M454.743,237.9l-2.36,4.671a9.183,9.183,0,0,0-.966,3.546l-1.025,15.977-3.1-.074-1.41-17.942a6.586,6.586,0,0,1,.081-1.659l1.609-9.1Z" fill="#ffc2b0"/>
          <g id="Grupo_160890" data-name="Grupo 160890">
            <path id="Trazado_210651" data-name="Trazado 210651" d="M452.536,286.395l-1.844-2.407L431.3,272.759a2.7,2.7,0,0,1-1.124-2.154l.016-15.878-1.115-1.456,1.048-.606h0a.709.709,0,0,1,.761.044l21.979,12.725a2.7,2.7,0,0,1,1.124,2.154l-.019,17.292a.977.977,0,0,1-.411.922h0Z" fill="#173d7a"/>
            <path id="Trazado_210652" data-name="Trazado 210652" d="M439.124,277.291l-1.378-.8-7.564-13.138.008-8.628-1.115-1.456,1.048-.606h0a.709.709,0,0,1,.761.044l21.979,12.725a2.274,2.274,0,0,1,.828.969Z" fill="#396caa"/>
            <path id="Trazado_210653" data-name="Trazado 210653" d="M429.57,253.917l-.495-.646,1.048-.606h0a.709.709,0,0,1,.761.044l.387.224Z" fill="#5793ce"/>
            <path id="Trazado_210654" data-name="Trazado 210654" d="M453.063,265.576a2.814,2.814,0,0,1,.919,1.851l-2.148,1.24L450.8,266.88Z" fill="#274f89"/>
            <path id="Trazado_210655" data-name="Trazado 210655" d="M451.817,266.041l-21.979-12.725c-.622-.36-1.127.021-1.128.85l-.018,17.293a2.7,2.7,0,0,0,1.124,2.153L451.8,286.338c.622.36,1.126-.021,1.127-.851l.019-17.292A2.7,2.7,0,0,0,451.817,266.041Z" fill="#fff"/>
          </g>
          <path id="Trazado_210656" data-name="Trazado 210656" d="M462.624,269.4l-.352.73a4.889,4.889,0,0,1-1.837,2.036l-2.184,1.346a2.173,2.173,0,0,1-2.228.052l-.075-.045a1.314,1.314,0,0,1-.185-2.018l2.281-2.346s-1.282.982-1.641.587c-.263-.29,1.243-1.7,2.4-1.751a4.563,4.563,0,0,0,2.275-.954Z" fill="#ffc2b0"/>
          <path id="Trazado_210657" data-name="Trazado 210657" d="M456.839,216.489s-8.363,9.1-11.737,17.448a17.074,17.074,0,0,0,9.86,7.175C461.963,243.133,456.839,216.489,456.839,216.489Z" fill="#983be9"/>
          <path id="Trazado_210658" data-name="Trazado 210658" d="M453.388,240.572l1.355-13.1-3.194,12.268A18.3,18.3,0,0,0,453.388,240.572Z" fill="#6614cf"/>
          <path id="Trazado_210659" data-name="Trazado 210659" d="M463.1,214.652l-2.247-.617a5.428,5.428,0,0,0,2.639,2.118c1.567.43,1.81-.9,1.81-.9Z" fill="#fff"/>
        </g>
      </g>
      <g id="Grupo_160897" data-name="Grupo 160897" transform="translate(-66)">
        <path id="Trazado_210660" data-name="Trazado 210660" d="M284.877,289.187c-6.035,3.484-15.82,3.484-21.855,0s-6.036-9.134,0-12.618,15.821-3.484,21.856,0S290.913,285.7,284.877,289.187Z" fill="#c4d9e8" opacity="0.5"/>
        <path id="Trazado_210661" data-name="Trazado 210661" d="M376.09,341.02c-6.035,3.485-15.82,3.484-21.855,0s-6.036-9.134,0-12.619,15.821-3.484,21.856,0S382.126,337.536,376.09,341.02Z" fill="#c4d9e8" opacity="0.5"/>
        <g id="Grupo_160896" data-name="Grupo 160896">
          <path id="Trazado_210662" data-name="Trazado 210662" d="M264.185,162.044s.444,9.156,1.141,15.309,15.516-4.726,15.516-4.726v-7.006Z" fill="#6614cf"/>
          <g id="Grupo_160894" data-name="Grupo 160894">
            <path id="Trazado_210663" data-name="Trazado 210663" d="M272.078,275.959c.223.556,4.062,5.23,7.9,6.4a8.836,8.836,0,0,0,3.527.487,1.163,1.163,0,0,0,.945-1.549,14.583,14.583,0,0,0-7.366-8.12C270.575,269.949,272.078,275.959,272.078,275.959Z" fill="#173d7a"/>
            <path id="Trazado_210664" data-name="Trazado 210664" d="M270.8,277.754a31.776,31.776,0,0,1,1.892,6.233c.272,1.731-.678,3.98-1.461,5.47a1.6,1.6,0,0,1-2.49.431,9.236,9.236,0,0,1-3.116-5.957c-.445-4.785,0-5.62,0-5.62Z" fill="#173d7a"/>
            <path id="Trazado_210665" data-name="Trazado 210665" d="M261.549,219.913a90.991,90.991,0,0,0,0,12.714c.5,6.678,2.293,37.906,2.627,45.418,0,0-.167,2.275,4.236,1.774s4.049-3.026,4.049-3.026,6.183-.083,6.378-3.728,6.333-43.525,6.333-57.863Z" fill="#fdd762"/>
            <g id="Grupo_160893" data-name="Grupo 160893">
              <path id="Trazado_210666" data-name="Trazado 210666" d="M283.044,188.753l3.566,21.811,3.245-.057-.3-19.987Z" fill="#ffc2b0"/>
              <path id="Trazado_210667" data-name="Trazado 210667" d="M281.549,169.44s4.813-.125,6.488,6.83,2.986,15.664,1.529,16.388c-4.374,2.172-7.142-.37-7.142-.37Z" fill="#8a2ae3"/>
              <path id="Trazado_210668" data-name="Trazado 210668" d="M282.99,169.735a3.936,3.936,0,0,0-2.6-.143c-4.1,1.178-19.516,5.7-22.057,7.874-2.935,2.509,4.4,16.608,4.3,21.231s-.626,10.072-1.035,15.1-.961,7.781,3.149,9.917a16.163,16.163,0,0,0,16.382-1.767c5.253-4,4.3-6.742,4.082-9.648s-2.008-15.474-1.853-19.042a13.488,13.488,0,0,0,3.222-3.7c1.371-2.339-1.05-6.637-2.056-9.432s.567-5.99.256-8.27A2.587,2.587,0,0,0,282.99,169.735Z" fill="#983be9"/>
              <path id="Trazado_210669" data-name="Trazado 210669" d="M278.061,174.542c.326,2.539-2,4.93-5.2,5.339s-6.055-1.316-6.38-3.856,2-4.93,5.2-5.339S277.736,172,278.061,174.542Z" fill="#fff"/>
              <path id="Trazado_210670" data-name="Trazado 210670" d="M276.409,174.753c.233,1.815-1.432,3.524-3.719,3.817s-4.328-.941-4.56-2.756,1.432-3.524,3.719-3.817S276.177,172.938,276.409,174.753Z" fill="#ffc2b0"/>
              <path id="Trazado_210671" data-name="Trazado 210671" d="M274.137,168.794s-2.783-2.288-3.329-1.129-1,6.134-1,6.134l5.527,1.484-.839-5.04S275.6,169.3,274.137,168.794Z" fill="#ffc2b0"/>
              <circle id="Elipse_6412" data-name="Elipse 6412" cx="8.252" cy="8.252" r="8.252" transform="translate(262.938 164.138) rotate(-51.307)" fill="#ffc2b0"/>
              <path id="Trazado_210672" data-name="Trazado 210672" d="M270.422,169.107c-.049.259-.1.538-.141.823.556,2.87,4.852,4.127,4.852,4.127l-.635-3.814s.521-.442.373-.884C273.174,168.823,271.034,168.349,270.422,169.107Z" fill="#ea9c92"/>
              <circle id="Elipse_6413" data-name="Elipse 6413" cx="8.252" cy="8.252" r="8.252" transform="translate(262.938 164.138) rotate(-51.307)" fill="#ffc2b0"/>
              <path id="Trazado_210673" data-name="Trazado 210673" d="M254.206,197.785l.924,22.082,3.228.333,2.1-19.878Z" fill="#ffc2b0"/>
              <path id="Trazado_210674" data-name="Trazado 210674" d="M264.815,195.94c-1.069-4.715-3.179-15.133-3.179-15.133l-.9,10.361c1.041,3.073,1.935,5.894,1.9,7.529-.063,2.713-.269,5.712-.51,8.742v.01S265.883,200.655,264.815,195.94Z" fill="#8a2ae3"/>
              <path id="Trazado_210675" data-name="Trazado 210675" d="M258.952,177.013s-2.582.986-4.043,8.915-2.553,15.872.051,16.9,4.781,1.794,5.547-.327,1.24-12.34,1.336-16.015S262.079,177.739,258.952,177.013Z" fill="#b45ef4"/>
            </g>
            <path id="Trazado_210676" data-name="Trazado 210676" d="M272.461,276.793a12.639,12.639,0,0,0,1.766-.183h0l1.211-48.543Z" fill="#d8892b"/>
          </g>
          <g id="Grupo_160895" data-name="Grupo 160895">
            <path id="Trazado_210677" data-name="Trazado 210677" d="M267.788,250.572l-1.718-2.243-18.063-10.458a2.512,2.512,0,0,1-1.047-2.006l.016-14.789-1.039-1.356.976-.565h0a.66.66,0,0,1,.708.041l20.472,11.852a2.518,2.518,0,0,1,1.047,2.007l-.018,16.106a.909.909,0,0,1-.383.858h0Z" fill="#983be9"/>
            <path id="Trazado_210678" data-name="Trazado 210678" d="M255.3,242.092l-1.283-.744-7.045-12.236.008-8.036-1.039-1.356.976-.565h0a.66.66,0,0,1,.708.041l20.472,11.852a2.118,2.118,0,0,1,.771.9Z" fill="#d29fff"/>
            <path id="Trazado_210679" data-name="Trazado 210679" d="M246.4,220.322l-.461-.6.976-.565h0a.66.66,0,0,1,.708.041l.361.209Z" fill="#d29fff"/>
            <path id="Trazado_210680" data-name="Trazado 210680" d="M268.28,231.18a2.628,2.628,0,0,1,.855,1.725l-2,1.155-.958-1.665Z" fill="#983be9"/>
            <path id="Trazado_210681" data-name="Trazado 210681" d="M267.119,231.614l-20.472-11.852c-.579-.336-1.049.019-1.05.792l-.017,16.1a2.513,2.513,0,0,0,1.047,2.007L267.1,250.518c.579.335,1.049-.019,1.05-.792l.018-16.106A2.515,2.515,0,0,0,267.119,231.614Z" fill="#b45ef4"/>
          </g>
          <path id="Trazado_210682" data-name="Trazado 210682" d="M255.155,219.682a50.078,50.078,0,0,0-.725,6.8c.129,1.651,1.012,4.374,1.683,4.316s.022-6.638,1.2-5.983,1.3,1.78,1.835,1.383-.93-6.022-.54-8.461S255.155,219.682,255.155,219.682Z" fill="#ffc2b0"/>
          <path id="Trazado_210683" data-name="Trazado 210683" d="M289.855,210.507a50.074,50.074,0,0,1,.725,6.8c-.129,1.651-1.012,4.374-1.683,4.317s-.022-6.639-1.2-5.983-1.3,1.779-1.835,1.382.93-6.022.54-8.461S289.855,210.507,289.855,210.507Z" fill="#ffc2b0"/>
          <path id="Trazado_210684" data-name="Trazado 210684" d="M277.706,163.577c4.139,1.47,4.945.573,4.985.525.038-.25.068-.5.083-.759a8.234,8.234,0,0,0-.275-2.637l-10.739-1.449A11.7,11.7,0,0,0,277.706,163.577Z" fill="#ea9c92"/>
          <path id="Trazado_210685" data-name="Trazado 210685" d="M283.072,155.122c-.976-.836-4.5-4.971-10.8-3.995-3.941.61-7.263,3.3-8,9.432a14.1,14.1,0,0,0,3.814,11.212,3.363,3.363,0,0,0,.448-.227c1.58-1.039,1.75-1.611,1.75-1.616l.349-3.13a.874.874,0,0,0-.787-.867,1.58,1.58,0,0,1-1.156-.705,1.841,1.841,0,0,1,1.324-3.1,1.39,1.39,0,0,0,1.448-1.029.74.74,0,0,1,.966-.5c2.061.746,7.139,2.354,10.408,1.428C287.014,160.836,284.047,155.958,283.072,155.122Z" fill="#6614cf"/>
          <path id="Trazado_210686" data-name="Trazado 210686" d="M278.369,167.3l2.524-.693a6.1,6.1,0,0,1-2.964,2.379c-1.759.483-2.033-1.006-2.033-1.006Z" fill="#fff"/>
          <path id="Trazado_210687" data-name="Trazado 210687" d="M259.447,226.043l-2.151-1.231.808,1.319,1.087.4Z" fill="#d29fff"/>
        </g>
      </g>
      <g id="Grupo_160911" data-name="Grupo 160911" transform="translate(-66)">
        <path id="Trazado_210688" data-name="Trazado 210688" d="M317.261,326.067l-24.518-14.155c-1.5-.869-1.316-2.386.422-3.389l23.674-13.669a6.523,6.523,0,0,1,5.87-.243l24.518,14.155c1.505.869,1.316,2.387-.422,3.39l-23.673,13.668A6.525,6.525,0,0,1,317.261,326.067Z" fill="#c4d9e8" opacity="0.5"/>
        <g id="Grupo_160899" data-name="Grupo 160899">
          <path id="Trazado_210689" data-name="Trazado 210689" d="M355.36,297.985h0V287.391l-23.753-.013-8.211-4.74a8.167,8.167,0,0,0-7.351.3l-7.66,4.422-23.775-.013v10.9a2.129,2.129,0,0,0,1.262,1.969l30.7,17.726a8.17,8.17,0,0,0,7.351-.3l29.645-17.115C354.825,299.8,355.431,298.859,355.36,297.985Z" fill="#396caa"/>
          <path id="Trazado_210690" data-name="Trazado 210690" d="M319.985,281.909a8.478,8.478,0,0,0-3.94,1.034l-7.66,4.422-23.775-.013v10.9a2.129,2.129,0,0,0,1.262,1.969l30.7,17.726a6.649,6.649,0,0,0,3.411.729Z" fill="#396caa"/>
          <path id="Trazado_210691" data-name="Trazado 210691" d="M287.3,287.353H284.61v10.9a2.129,2.129,0,0,0,1.262,1.969l1.429.825Z" fill="#5793ce"/>
          <path id="Trazado_210692" data-name="Trazado 210692" d="M317.047,318.174a8.375,8.375,0,0,0,5.876-.068v-12.37h-5.876Z" fill="#5793ce"/>
          <path id="Trazado_210693" data-name="Trazado 210693" d="M316.574,307.086l-30.7-17.725c-1.884-1.088-1.648-2.988.528-4.244L316.045,268a8.173,8.173,0,0,1,7.351-.3l30.7,17.726c1.884,1.088,1.648,2.988-.528,4.244l-29.645,17.116A8.17,8.17,0,0,1,316.574,307.086Z" fill="#d4ecff"/>
          <path id="Trazado_210694" data-name="Trazado 210694" d="M317.126,303.9,291.4,289.042c-1.579-.912-1.381-2.5.443-3.557l24.842-14.343a6.849,6.849,0,0,1,6.161-.255l25.728,14.854c1.579.912,1.381,2.5-.442,3.557l-24.843,14.343A6.849,6.849,0,0,1,317.126,303.9Z" fill="#5793ce"/>
          <g id="Grupo_160898" data-name="Grupo 160898">
            <path id="Trazado_210695" data-name="Trazado 210695" d="M344.068,300.78a2.74,2.74,0,0,1-1.24,2.148c-.685.4-1.24.075-1.24-.716a2.741,2.741,0,0,1,1.24-2.148C343.513,299.669,344.068,299.989,344.068,300.78Z" fill="#d4ecff"/>
            <path id="Trazado_210696" data-name="Trazado 210696" d="M348.058,298.477a2.742,2.742,0,0,1-1.241,2.148c-.684.395-1.24.075-1.24-.716a2.743,2.743,0,0,1,1.24-2.148C347.5,297.365,348.058,297.686,348.058,298.477Z" fill="#d4ecff"/>
            <path id="Trazado_210697" data-name="Trazado 210697" d="M352.047,296.173a2.74,2.74,0,0,1-1.24,2.148c-.685.4-1.24.075-1.24-.716a2.74,2.74,0,0,1,1.24-2.147C351.492,295.062,352.047,295.383,352.047,296.173Z" fill="#d4ecff"/>
          </g>
        </g>
        <g id="Grupo_160901" data-name="Grupo 160901">
          <path id="Trazado_210698" data-name="Trazado 210698" d="M355.36,281.056h0V270.463l-23.753-.013-8.211-4.741a8.17,8.17,0,0,0-7.351.3l-7.66,4.423-23.775-.014v10.895a2.132,2.132,0,0,0,1.262,1.97l30.7,17.725a8.167,8.167,0,0,0,7.351-.3l29.645-17.115C354.825,282.868,355.431,281.93,355.36,281.056Z" fill="#396caa"/>
          <path id="Trazado_210699" data-name="Trazado 210699" d="M319.985,264.98a8.477,8.477,0,0,0-3.94,1.034l-7.66,4.423-23.775-.014v10.895a2.132,2.132,0,0,0,1.262,1.97l30.7,17.725a6.649,6.649,0,0,0,3.411.729Z" fill="#396caa"/>
          <path id="Trazado_210700" data-name="Trazado 210700" d="M287.3,270.425l-2.691,0v10.895a2.132,2.132,0,0,0,1.262,1.97l1.429.824Z" fill="#5793ce"/>
          <path id="Trazado_210701" data-name="Trazado 210701" d="M317.047,301.245a8.38,8.38,0,0,0,5.876-.067v-12.37h-5.876Z" fill="#5793ce"/>
          <path id="Trazado_210702" data-name="Trazado 210702" d="M316.574,290.158l-30.7-17.726c-1.884-1.088-1.648-2.988.528-4.244l29.645-17.116a8.17,8.17,0,0,1,7.351-.3l30.7,17.725c1.884,1.088,1.648,2.988-.528,4.245l-29.645,17.115A8.17,8.17,0,0,1,316.574,290.158Z" fill="#d4ecff"/>
          <path id="Trazado_210703" data-name="Trazado 210703" d="M317.126,286.967,291.4,272.113c-1.579-.911-1.381-2.5.443-3.557l24.842-14.343a6.852,6.852,0,0,1,6.161-.255l25.728,14.854c1.579.912,1.381,2.5-.442,3.557l-24.843,14.343A6.846,6.846,0,0,1,317.126,286.967Z" fill="#5793ce"/>
          <g id="Grupo_160900" data-name="Grupo 160900">
            <path id="Trazado_210704" data-name="Trazado 210704" d="M344.068,283.852a2.74,2.74,0,0,1-1.24,2.147c-.685.4-1.24.075-1.24-.716a2.74,2.74,0,0,1,1.24-2.147C343.513,282.74,344.068,283.061,344.068,283.852Z" fill="#d4ecff"/>
            <path id="Trazado_210705" data-name="Trazado 210705" d="M348.058,281.548a2.743,2.743,0,0,1-1.241,2.148c-.684.395-1.24.075-1.24-.716a2.744,2.744,0,0,1,1.24-2.148C347.5,280.437,348.058,280.757,348.058,281.548Z" fill="#d4ecff"/>
            <path id="Trazado_210706" data-name="Trazado 210706" d="M352.047,279.245a2.74,2.74,0,0,1-1.24,2.147c-.685.4-1.24.075-1.24-.716a2.74,2.74,0,0,1,1.24-2.147C351.492,278.133,352.047,278.454,352.047,279.245Z" fill="#d4ecff"/>
          </g>
        </g>
        <g id="Grupo_160903" data-name="Grupo 160903">
          <path id="Trazado_210707" data-name="Trazado 210707" d="M355.36,264.127h0V253.534l-23.753-.013-8.211-4.74a8.17,8.17,0,0,0-7.351.3l-7.66,4.423-23.775-.013v10.894a2.131,2.131,0,0,0,1.262,1.97l30.7,17.725a8.17,8.17,0,0,0,7.351-.3l29.645-17.116C354.825,265.94,355.431,265,355.36,264.127Z" fill="#396caa"/>
          <path id="Trazado_210708" data-name="Trazado 210708" d="M319.985,248.052a8.477,8.477,0,0,0-3.94,1.033l-7.66,4.423-23.775-.013v10.894a2.131,2.131,0,0,0,1.262,1.97l30.7,17.725a6.649,6.649,0,0,0,3.411.729Z" fill="#396caa"/>
          <path id="Trazado_210709" data-name="Trazado 210709" d="M287.3,253.5H284.61v10.894a2.131,2.131,0,0,0,1.262,1.97l1.429.824Z" fill="#5793ce"/>
          <path id="Trazado_210710" data-name="Trazado 210710" d="M317.047,284.316a8.374,8.374,0,0,0,5.876-.067v-12.37h-5.876Z" fill="#5793ce"/>
          <path id="Trazado_210711" data-name="Trazado 210711" d="M316.574,273.229l-30.7-17.725c-1.884-1.088-1.648-2.989.528-4.245l29.645-17.115a8.17,8.17,0,0,1,7.351-.3l30.7,17.726c1.884,1.087,1.648,2.988-.528,4.244l-29.645,17.115A8.167,8.167,0,0,1,316.574,273.229Z" fill="#d4ecff"/>
          <path id="Trazado_210712" data-name="Trazado 210712" d="M317.126,270.039,291.4,255.184c-1.579-.911-1.381-2.5.443-3.556l24.842-14.343a6.849,6.849,0,0,1,6.161-.256l25.728,14.855c1.579.911,1.381,2.5-.442,3.556l-24.843,14.343A6.849,6.849,0,0,1,317.126,270.039Z" fill="#5793ce"/>
          <g id="Grupo_160902" data-name="Grupo 160902">
            <path id="Trazado_210713" data-name="Trazado 210713" d="M344.068,266.923a2.742,2.742,0,0,1-1.24,2.148c-.685.395-1.24.075-1.24-.716a2.74,2.74,0,0,1,1.24-2.148C343.513,265.812,344.068,266.132,344.068,266.923Z" fill="#d4ecff"/>
            <path id="Trazado_210714" data-name="Trazado 210714" d="M348.058,264.619a2.741,2.741,0,0,1-1.241,2.148c-.684.4-1.24.075-1.24-.716a2.742,2.742,0,0,1,1.24-2.147C347.5,263.508,348.058,263.829,348.058,264.619Z" fill="#d4ecff"/>
            <path id="Trazado_210715" data-name="Trazado 210715" d="M352.047,262.316a2.741,2.741,0,0,1-1.24,2.148c-.685.4-1.24.075-1.24-.716a2.74,2.74,0,0,1,1.24-2.148C351.492,261.2,352.047,261.525,352.047,262.316Z" fill="#d4ecff"/>
          </g>
        </g>
        <g id="Grupo_160905" data-name="Grupo 160905">
          <path id="Trazado_210716" data-name="Trazado 210716" d="M355.36,247.2h0V236.6l-23.753-.013-8.211-4.74a8.167,8.167,0,0,0-7.351.3l-7.66,4.422-23.775-.013v10.9a2.13,2.13,0,0,0,1.262,1.969l30.7,17.726a8.17,8.17,0,0,0,7.351-.3l29.645-17.115C354.825,249.011,355.431,248.072,355.36,247.2Z" fill="#396caa"/>
          <path id="Trazado_210717" data-name="Trazado 210717" d="M319.985,231.123a8.466,8.466,0,0,0-3.94,1.034l-7.66,4.422-23.775-.013v10.9a2.13,2.13,0,0,0,1.262,1.969l30.7,17.726a6.659,6.659,0,0,0,3.411.729Z" fill="#396caa"/>
          <path id="Trazado_210718" data-name="Trazado 210718" d="M287.3,236.567H284.61v10.9a2.13,2.13,0,0,0,1.262,1.969l1.429.825Z" fill="#5793ce"/>
          <path id="Trazado_210719" data-name="Trazado 210719" d="M317.047,267.387a8.368,8.368,0,0,0,5.876-.067V254.95h-5.876Z" fill="#5793ce"/>
          <path id="Trazado_210720" data-name="Trazado 210720" d="M316.574,256.3l-30.7-17.725c-1.884-1.088-1.648-2.988.528-4.244l29.645-17.116a8.17,8.17,0,0,1,7.351-.3l30.7,17.726c1.884,1.088,1.648,2.988-.528,4.244L323.925,256A8.17,8.17,0,0,1,316.574,256.3Z" fill="#d4ecff"/>
          <path id="Trazado_210721" data-name="Trazado 210721" d="M317.126,253.11,291.4,238.256c-1.579-.912-1.381-2.5.443-3.557l24.842-14.343a6.846,6.846,0,0,1,6.161-.255l25.728,14.854c1.579.912,1.381,2.5-.442,3.557l-24.843,14.343A6.849,6.849,0,0,1,317.126,253.11Z" fill="#5793ce"/>
          <g id="Grupo_160904" data-name="Grupo 160904">
            <path id="Trazado_210722" data-name="Trazado 210722" d="M344.068,249.994a2.741,2.741,0,0,1-1.24,2.148c-.685.4-1.24.075-1.24-.716a2.741,2.741,0,0,1,1.24-2.148C343.513,248.883,344.068,249.2,344.068,249.994Z" fill="#d4ecff"/>
            <path id="Trazado_210723" data-name="Trazado 210723" d="M348.058,247.691a2.741,2.741,0,0,1-1.241,2.147c-.684.4-1.24.075-1.24-.715a2.743,2.743,0,0,1,1.24-2.148C347.5,246.579,348.058,246.9,348.058,247.691Z" fill="#d4ecff"/>
            <path id="Trazado_210724" data-name="Trazado 210724" d="M352.047,245.387a2.74,2.74,0,0,1-1.24,2.148c-.685.395-1.24.075-1.24-.716a2.741,2.741,0,0,1,1.24-2.148C351.492,244.276,352.047,244.6,352.047,245.387Z" fill="#d4ecff"/>
          </g>
        </g>
        <g id="Grupo_160907" data-name="Grupo 160907">
          <path id="Trazado_210725" data-name="Trazado 210725" d="M355.36,230.27h0V219.677l-23.753-.014-8.211-4.74a8.17,8.17,0,0,0-7.351.3l-7.66,4.422-23.775-.013v10.9a2.129,2.129,0,0,0,1.262,1.969l30.7,17.726a8.17,8.17,0,0,0,7.351-.305l29.645-17.115C354.825,232.082,355.431,231.144,355.36,230.27Z" fill="#396caa"/>
          <path id="Trazado_210726" data-name="Trazado 210726" d="M319.985,214.194a8.478,8.478,0,0,0-3.94,1.034l-7.66,4.422-23.775-.013v10.9a2.129,2.129,0,0,0,1.262,1.969l30.7,17.726a6.649,6.649,0,0,0,3.411.729Z" fill="#396caa"/>
          <path id="Trazado_210727" data-name="Trazado 210727" d="M287.3,219.639l-2.691,0v10.9a2.129,2.129,0,0,0,1.262,1.969l1.429.825Z" fill="#5793ce"/>
          <path id="Trazado_210728" data-name="Trazado 210728" d="M317.047,250.459a8.375,8.375,0,0,0,5.876-.068v-12.37h-5.876Z" fill="#5793ce"/>
          <path id="Trazado_210729" data-name="Trazado 210729" d="M316.574,239.372l-30.7-17.726c-1.884-1.088-1.648-2.988.528-4.244l29.645-17.116a8.173,8.173,0,0,1,7.351-.3l30.7,17.726c1.884,1.088,1.648,2.988-.528,4.244l-29.645,17.116A8.17,8.17,0,0,1,316.574,239.372Z" fill="#d4ecff"/>
          <path id="Trazado_210730" data-name="Trazado 210730" d="M317.126,236.181,291.4,221.327c-1.579-.912-1.381-2.5.443-3.557l24.842-14.343a6.849,6.849,0,0,1,6.161-.255l25.728,14.854c1.579.912,1.381,2.5-.442,3.557l-24.843,14.343A6.849,6.849,0,0,1,317.126,236.181Z" fill="#5793ce"/>
          <g id="Grupo_160906" data-name="Grupo 160906">
            <rect id="Rectngulo_47925" data-name="Rectngulo 47925" width="14.221" height="0.501" transform="matrix(0.866, -0.499, 0.499, 0.866, 330.484, 240.803)" fill="#fff"/>
            <path id="Trazado_210731" data-name="Trazado 210731" d="M344.068,233.065a2.74,2.74,0,0,1-1.24,2.148c-.685.4-1.24.075-1.24-.716a2.74,2.74,0,0,1,1.24-2.147C343.513,231.954,344.068,232.275,344.068,233.065Z" fill="#d4ecff"/>
            <path id="Trazado_210732" data-name="Trazado 210732" d="M348.058,230.762a2.742,2.742,0,0,1-1.241,2.148c-.684.395-1.24.075-1.24-.716a2.743,2.743,0,0,1,1.24-2.148C347.5,229.651,348.058,229.971,348.058,230.762Z" fill="#d4ecff"/>
            <path id="Trazado_210733" data-name="Trazado 210733" d="M352.047,228.459a2.74,2.74,0,0,1-1.24,2.147c-.685.4-1.24.075-1.24-.716a2.74,2.74,0,0,1,1.24-2.147C351.492,227.347,352.047,227.668,352.047,228.459Z" fill="#d4ecff"/>
          </g>
        </g>
        <g id="Grupo_160910" data-name="Grupo 160910">
          <path id="Trazado_210734" data-name="Trazado 210734" d="M355.36,213.225h0V202.632l-23.753-.013-8.211-4.741a8.173,8.173,0,0,0-7.351.3l-7.66,4.423-23.775-.013v10.894a2.132,2.132,0,0,0,1.262,1.97l30.7,17.725a8.17,8.17,0,0,0,7.351-.3l29.645-17.116C354.825,215.038,355.431,214.1,355.36,213.225Z" fill="#396caa"/>
          <path id="Trazado_210735" data-name="Trazado 210735" d="M319.985,197.15a8.477,8.477,0,0,0-3.94,1.033l-7.66,4.423-23.775-.013v10.894a2.132,2.132,0,0,0,1.262,1.97l30.7,17.725a6.649,6.649,0,0,0,3.411.729Z" fill="#396caa"/>
          <path id="Trazado_210736" data-name="Trazado 210736" d="M287.3,202.594H284.61v10.894a2.132,2.132,0,0,0,1.262,1.97l1.429.824Z" fill="#5793ce"/>
          <path id="Trazado_210737" data-name="Trazado 210737" d="M317.047,233.414a8.374,8.374,0,0,0,5.876-.067v-12.37h-5.876Z" fill="#5793ce"/>
          <path id="Trazado_210738" data-name="Trazado 210738" d="M316.574,222.327l-30.7-17.726c-1.884-1.087-1.648-2.988.528-4.244l29.645-17.115a8.17,8.17,0,0,1,7.351-.305l30.7,17.726c1.884,1.087,1.648,2.988-.528,4.244l-29.645,17.115A8.167,8.167,0,0,1,316.574,222.327Z" fill="#d4ecff"/>
          <path id="Trazado_210739" data-name="Trazado 210739" d="M353.57,202.822l-29.645,17.116a8.17,8.17,0,0,1-7.351.3l-30.7-17.725a2.843,2.843,0,0,1-.94-.834c-.647,1.041-.354,2.171.94,2.918l30.7,17.726a8.17,8.17,0,0,0,7.351-.3l29.645-17.115c1.691-.976,2.2-2.34,1.468-3.41A4.1,4.1,0,0,1,353.57,202.822Z" fill="#fff"/>
          <g id="Grupo_160908" data-name="Grupo 160908">
            <path id="Trazado_210740" data-name="Trazado 210740" d="M344.068,216.021a2.741,2.741,0,0,1-1.24,2.148c-.685.395-1.24.075-1.24-.716a2.74,2.74,0,0,1,1.24-2.148C343.513,214.909,344.068,215.23,344.068,216.021Z" fill="#d4ecff"/>
            <path id="Trazado_210741" data-name="Trazado 210741" d="M331.849,222.737a2.741,2.741,0,0,1-1.24,2.148c-.685.4-1.24.075-1.24-.716a2.742,2.742,0,0,1,1.24-2.148C331.294,221.626,331.849,221.946,331.849,222.737Z" fill="#d4ecff"/>
            <path id="Trazado_210742" data-name="Trazado 210742" d="M331.849,240.3a2.74,2.74,0,0,1-1.24,2.147c-.685.4-1.24.075-1.24-.715a2.74,2.74,0,0,1,1.24-2.148C331.294,239.192,331.849,239.513,331.849,240.3Z" fill="#fff"/>
            <path id="Trazado_210743" data-name="Trazado 210743" d="M348.058,213.717a2.741,2.741,0,0,1-1.241,2.148c-.684.4-1.24.075-1.24-.716a2.744,2.744,0,0,1,1.24-2.148C347.5,212.606,348.058,212.926,348.058,213.717Z" fill="#d4ecff"/>
            <path id="Trazado_210744" data-name="Trazado 210744" d="M352.047,211.414a2.741,2.741,0,0,1-1.24,2.148c-.685.4-1.24.075-1.24-.716a2.74,2.74,0,0,1,1.24-2.148C351.492,210.3,352.047,210.623,352.047,211.414Z" fill="#d4ecff"/>
          </g>
          <g id="Grupo_160909" data-name="Grupo 160909">
            <path id="Trazado_210745" data-name="Trazado 210745" d="M318.389,211.337l-14.367-8.294c-.881-.509-.771-1.4.247-1.986l13.873-8.01a3.826,3.826,0,0,1,3.44-.142l14.367,8.295c.881.509.771,1.4-.247,1.986L321.829,211.2A3.823,3.823,0,0,1,318.389,211.337Z" fill="#5793ce"/>
            <path id="Trazado_210746" data-name="Trazado 210746" d="M319.765,204.392l-1.988-1.147c-.122-.071-.107-.194.034-.275l1.919-1.108a.532.532,0,0,1,.476-.02l1.988,1.148c.122.07.107.193-.034.274l-1.919,1.109A.528.528,0,0,1,319.765,204.392Z" fill="#d4ecff"/>
            <path id="Trazado_210747" data-name="Trazado 210747" d="M304.022,203.043l.041.023c.067-.048.129-.1.206-.142l13.873-8.009a3.82,3.82,0,0,1,3.44-.142l14.326,8.271c.813-.582.855-1.374.041-1.844L321.582,192.9a3.826,3.826,0,0,0-3.44.142l-13.873,8.01C303.251,201.645,303.141,202.534,304.022,203.043Z" fill="#396caa"/>
          </g>
        </g>
      </g>
      <g id="Grupo_160913" data-name="Grupo 160913" transform="translate(-66)">
        <path id="Trazado_210748" data-name="Trazado 210748" d="M379.841,327.156a4.672,4.672,0,0,1,2.636,4.671,7.873,7.873,0,0,1-.384,2.283c-.543,1.139-2.321,2.7-5.158,1.58s-9.14-7.042-9.376-10.918C367.121,317.572,375.353,325.239,379.841,327.156Z" fill="#173d7a"/>
        <path id="Trazado_210749" data-name="Trazado 210749" d="M363.169,339.063s.681,4.151.35,4.912-2.305,2.385-5.223,2.033-11.311-3.245-13.181-8.777c-2.9-8.576,16.2.644,16.2.644Z" fill="#173d7a"/>
        <path id="Trazado_210750" data-name="Trazado 210750" d="M354.967,272.7l-.649,64.8A4.538,4.538,0,0,0,357.847,342c.246.041.508.075.789.1a4.035,4.035,0,0,0,3.85-1.593,4.753,4.753,0,0,0,.866-2.616l.828-27.662,4.129-24.733,5.714,43.774a3.782,3.782,0,0,0,1.57,2.882,4.38,4.38,0,0,0,2.605.707,4.793,4.793,0,0,0,3.464-1.706,3.474,3.474,0,0,0,.827-2.344l-2.265-26.338-.843-33.594Z" fill="#fdd762"/>
        <path id="Trazado_210751" data-name="Trazado 210751" d="M382.036,251.423a2.383,2.383,0,0,1-.357-.027l-10.351-1.6a2.328,2.328,0,0,1,.713-4.6l7.143,1.106-2.438-13.961a2.328,2.328,0,0,1,4.586-.8l3,17.159a2.325,2.325,0,0,1-2.292,2.729Z" fill="#ffc2b0"/>
        <path id="Trazado_210752" data-name="Trazado 210752" d="M372.584,218.31s3.459-.2,7.919,8.982-1.648,12.085-1.648,12.085Z" fill="#983be9"/>
        <path id="Trazado_210753" data-name="Trazado 210753" d="M363.091,220.715c.156-.064,9.544-6.108,13.014.218,5.658,10.314,5.325,43.516,3.538,47.816-1.653,3.981-5.782,6.915-8.675,8.568a17.332,17.332,0,0,1-8.421,2.4c-2.933.023-8.559-2.585-8.355-6.42.94-17.638-.62-32.506-2.06-46.933C352.132,226.36,353.932,224.423,363.091,220.715Z" fill="#983be9"/>
        <g id="Grupo_160912" data-name="Grupo 160912">
          <path id="Trazado_210754" data-name="Trazado 210754" d="M348.281,256.734a1.99,1.99,0,0,0,.782-.2,2.439,2.439,0,0,0,1.3-1.861l4.464-13.014c.2-1.344-2.147-6.586-3.344-6.808s-4.232,2.155-4.43,3.5l-1.1,11.628-9.325-3.034c-1.143-.6-2.089-1.827-2.765-.7a2.659,2.659,0,0,0,.6,3.423l12.506,6.646A2.023,2.023,0,0,0,348.281,256.734Z" fill="#ffc2b0"/>
        </g>
        <path id="Trazado_210755" data-name="Trazado 210755" d="M335.9,246.64l-.7-1.695a4.493,4.493,0,0,0-1.113-1.6l-2.9-2.679a.566.566,0,0,0-.836.077h0a.565.565,0,0,0,.037.72l1.213,1.32a.787.787,0,0,1,.162.8l-.463,1.3a1.306,1.306,0,0,0,.223,1.271l2.913,3.53Z" fill="#ffc2b0"/>
        <path id="Trazado_210756" data-name="Trazado 210756" d="M352.132,226.36s-6.267,4.83-7.229,19.534c0,0-.136,1.63,3.485,2.609a6.353,6.353,0,0,0,6.1-1.824A23.184,23.184,0,0,0,352.132,226.36Z" fill="#983be9"/>
        <path id="Trazado_210757" data-name="Trazado 210757" d="M363.951,215.031l1.025,5.9a2.705,2.705,0,0,1-2.211,2.572c-2.25.559-2.945-.894-2.945-.894l-1.018-6.649Z" fill="#ffc2b0"/>
        <path id="Trazado_210758" data-name="Trazado 210758" d="M351.8,215.258c2.433,4.714,7.8,6.768,11.991,4.588s5.614-7.768,3.182-12.482-7.8-6.768-11.991-4.588S349.365,210.544,351.8,215.258Z" fill="#ffc2b0"/>
        <path id="Trazado_210759" data-name="Trazado 210759" d="M357.859,214.373a1.1,1.1,0,0,1-.965-.306c-.439-.448-.62-2.824-1.768-3.024-1.8-.312-5.445,2.5-6.925-3.533-.769-3.133.629-4.242.323-5.979,0,0,.017.895,8.085-1.054s11.971,4.842,12.759,8.261.1,9.383-5.349,11.123c-.9.289-5.326-2.166-5.3-2.593s1.5-.656,1.083-1.812A1.557,1.557,0,0,0,357.859,214.373Z" fill="#173d7a"/>
        <path id="Trazado_210760" data-name="Trazado 210760" d="M368.309,285.493l5.714,43.774a3.782,3.782,0,0,0,1.57,2.882,4.2,4.2,0,0,0,.488.276c-1.186-.89-4.649-37.632-5.29-41.718S368.309,285.493,368.309,285.493Z" fill="#d8892b"/>
      </g>
    </g>
  </g>
</svg>
