<svg xmlns="http://www.w3.org/2000/svg" xmlns:xlink="http://www.w3.org/1999/xlink" width="328.514" height="315.418" viewBox="0 0 328.514 315.418">
  <defs>
    <clipPath id="clip-path">
      <path id="Trazado_225318" data-name="Trazado 225318" d="M347.014,295.343a38.571,38.571,0,1,1-38.571-38.571A38.569,38.569,0,0,1,347.014,295.343Z" fill="#282d3d"/>
    </clipPath>
    <clipPath id="clip-path-2">
      <path id="Trazado_225345" data-name="Trazado 225345" d="M259.537,295.343a38.57,38.57,0,1,1-38.571-38.571A38.57,38.57,0,0,1,259.537,295.343Z" fill="#570b1c"/>
    </clipPath>
    <clipPath id="clip-path-3">
      <path id="Trazado_225370" data-name="Trazado 225370" d="M175.709,295.343a38.57,38.57,0,1,1-38.571-38.571A38.57,38.57,0,0,1,175.709,295.343Z" fill="#95ad2e"/>
    </clipPath>
    <clipPath id="clip-path-4">
      <path id="Trazado_225405" data-name="Trazado 225405" d="M95.642,295.343a38.571,38.571,0,1,1-38.571-38.571A38.57,38.57,0,0,1,95.642,295.343Z" fill="#de2e34"/>
    </clipPath>
  </defs>
  <g id="Grupo_164977" data-name="Grupo 164977" transform="translate(-974.486 -2146.203)">
    <g id="Grupo_164976" data-name="Grupo 164976" transform="translate(1312.486 11479.203)">
      <path id="Trazado_225275" data-name="Trazado 225275" d="M246.377,83.962c-1.255,0-2.5.051-3.728.146a47.208,47.208,0,1,0-89.837-27.286,36.7,36.7,0,0,0-60.026,27.14h-.029a47.2,47.2,0,0,0,0,94.4h153.62a47.2,47.2,0,0,0,0-94.4Z" transform="translate(-356.5 -9351.495)" fill="#e2c140"/>
      <path id="Trazado_225276" data-name="Trazado 225276" d="M220.967,255.891l-5.6-9.083h11.2Z" transform="translate(-356.5 -9351.495)" fill="#2a81a5"/>
      <path id="Trazado_225277" data-name="Trazado 225277" d="M118.121,189.8l5.6,9.083h-11.2Z" transform="translate(-356.5 -9351.495)" fill="#2a81a5"/>
      <g id="Grupo_164903" data-name="Grupo 164903" transform="translate(-356.5 -9351.495)">
        <g id="Grupo_164902" data-name="Grupo 164902">
          <line id="Línea_2034" data-name="Línea 2034" y2="1" transform="translate(118.121 196.31)" fill="none" stroke="#4480a2" stroke-linecap="round" stroke-linejoin="round" stroke-width="1"/>
          <path id="Trazado_225278" data-name="Trazado 225278" d="M118.121,199.333V217.1a8.529,8.529,0,0,0,8.5,8.5h86.139a8.528,8.528,0,0,1,8.5,8.5v14.079" fill="none" stroke="#4480a2" stroke-linecap="round" stroke-linejoin="round" stroke-width="1" stroke-dasharray="2.023 2.023"/>
          <line id="Línea_2035" data-name="Línea 2035" y2="1" transform="translate(221.268 249.195)" fill="none" stroke="#4480a2" stroke-linecap="round" stroke-linejoin="round" stroke-width="1"/>
        </g>
      </g>
      <path id="Trazado_225279" data-name="Trazado 225279" d="M57.071,255.891l5.6-9.083H51.469Z" transform="translate(-356.5 -9351.495)" fill="#2a81a5"/>
      <path id="Trazado_225280" data-name="Trazado 225280" d="M92.069,189.8l-5.6,9.083h11.2Z" transform="translate(-356.5 -9351.495)" fill="#2a81a5"/>
      <g id="Grupo_164905" data-name="Grupo 164905" transform="translate(-356.5 -9351.495)">
        <g id="Grupo_164904" data-name="Grupo 164904">
          <line id="Línea_2036" data-name="Línea 2036" y2="1" transform="translate(92.243 199.061)" fill="none" stroke="#4480a2" stroke-linecap="round" stroke-linejoin="round" stroke-width="1"/>
          <path id="Trazado_225281" data-name="Trazado 225281" d="M92.243,202.021v16.05a8.529,8.529,0,0,1-8.5,8.5H65.575a8.529,8.529,0,0,0-8.5,8.5V247.7" fill="none" stroke="#4480a2" stroke-linecap="round" stroke-linejoin="round" stroke-width="1" stroke-dasharray="1.96 1.96"/>
          <line id="Línea_2037" data-name="Línea 2037" y2="1" transform="translate(57.071 248.678)" fill="none" stroke="#4480a2" stroke-linecap="round" stroke-linejoin="round" stroke-width="1"/>
        </g>
      </g>
      <path id="Trazado_225282" data-name="Trazado 225282" d="M302.842,255.891l-5.6-9.083h11.2Z" transform="translate(-358.5 -9351.495)" fill="#2a81a5"/>
      <path id="Trazado_225283" data-name="Trazado 225283" d="M241.77,185.262l5.6,9.083H236.167Z" transform="translate(-356.5 -9351.495)" fill="#2a81a5"/>
      <g id="Grupo_164907" data-name="Grupo 164907" transform="translate(-356.5 -9351.495)">
        <g id="Grupo_164906" data-name="Grupo 164906">
          <line id="Línea_2038" data-name="Línea 2038" y2="1" transform="translate(241.77 190.634)" fill="none" stroke="#4480a2" stroke-linecap="round" stroke-linejoin="round" stroke-width="1"/>
          <path id="Trazado_225284" data-name="Trazado 225284" d="M241.769,193.619v21.006a8.529,8.529,0,0,0,8.5,8.5h41.708a8.529,8.529,0,0,1,8.5,8.5v16.789" fill="none" stroke="#4480a2" stroke-linecap="round" stroke-linejoin="round" stroke-width="1" stroke-dasharray="1.985 1.985"/>
          <line id="Línea_2039" data-name="Línea 2039" y2="1" transform="translate(300.485 249.415)" fill="none" stroke="#4480a2" stroke-linecap="round" stroke-linejoin="round" stroke-width="1"/>
        </g>
      </g>
      <path id="Trazado_225285" data-name="Trazado 225285" d="M137.139,256.066l5.6-9.083h-11.2Z" transform="translate(-356.5 -9351.495)" fill="#2a81a5"/>
      <path id="Trazado_225286" data-name="Trazado 225286" d="M206.808,185.262l-5.6,9.083h11.2Z" transform="translate(-356.5 -9351.495)" fill="#2a81a5"/>
      <g id="Grupo_164909" data-name="Grupo 164909" transform="translate(-356.5 -9351.495)">
        <g id="Grupo_164908" data-name="Grupo 164908">
          <line id="Línea_2040" data-name="Línea 2040" y2="1" transform="translate(206.808 191.655)" fill="none" stroke="#4480a2" stroke-linecap="round" stroke-linejoin="round" stroke-width="1"/>
          <path id="Trazado_225287" data-name="Trazado 225287" d="M206.808,194.667v9.609a8.529,8.529,0,0,1-8.5,8.5H145.643a8.529,8.529,0,0,0-8.5,8.5V248.04" fill="none" stroke="#4480a2" stroke-linecap="round" stroke-linejoin="round" stroke-width="1" stroke-dasharray="2.012 2.012"/>
          <line id="Línea_2041" data-name="Línea 2041" y2="1" transform="translate(137.139 249.046)" fill="none" stroke="#4480a2" stroke-linecap="round" stroke-linejoin="round" stroke-width="1"/>
        </g>
      </g>
      <g id="Grupo_164926" data-name="Grupo 164926" transform="translate(-356.5 -9351.495)">
        <g id="Grupo_164925" data-name="Grupo 164925">
          <path id="Trazado_225288" data-name="Trazado 225288" d="M347.014,295.343a38.571,38.571,0,1,1-38.571-38.571A38.569,38.569,0,0,1,347.014,295.343Z" fill="#282d3d"/>
          <g id="Grupo_164924" data-name="Grupo 164924" clip-path="url(#clip-path)">
            <g id="Grupo_164923" data-name="Grupo 164923">
              <rect id="Rectángulo_49072" data-name="Rectángulo 49072" width="36.214" height="29.648" transform="translate(290.857 300.187)" fill="#0d0400"/>
              <rect id="Rectángulo_49073" data-name="Rectángulo 49073" width="8.31" height="7.032" transform="translate(304.289 313.936)" fill="#fabc99"/>
              <path id="Trazado_225289" data-name="Trazado 225289" d="M310.845,316.277a8.154,8.154,0,0,1,1.753.189v-2.53h-8.309v6.853A6.619,6.619,0,0,1,310.845,316.277Z" fill="#d2d1d1" style="mix-blend-mode: multiply;isolation: isolate"/>
              <path id="Trazado_225290" data-name="Trazado 225290" d="M312,319.9h-7.121s-14.24-.765-16.979,14.01h41.079C326.245,319.138,312,319.9,312,319.9Z" fill="#fabc99"/>
              <path id="Trazado_225291" data-name="Trazado 225291" d="M325.529,293.8c0,12.094-7.072,21.9-17.085,21.9s-17.086-9.8-17.086-21.9,7.074-21.894,17.086-21.894S325.529,281.706,325.529,293.8Z" fill="#fabc99"/>
              <g id="Grupo_164910" data-name="Grupo 164910">
                <path id="Trazado_225292" data-name="Trazado 225292" d="M323.36,299.011c-.36,1.9.322,3.633,1.52,3.858s2.46-1.135,2.819-3.041-.324-3.633-1.523-3.857S323.718,297.107,323.36,299.011Z" fill="#fabc99"/>
                <path id="Trazado_225293" data-name="Trazado 225293" d="M325.519,297.827s.079.038.22.088a.534.534,0,0,1,.229.113c.064.067.142.094.193.192a.672.672,0,0,1,.141.274c.054.087.035.234.071.345a3.176,3.176,0,0,1-.081.835,3.817,3.817,0,0,1-.257.825,2.291,2.291,0,0,1-.381.616,1.194,1.194,0,0,1-.218.159c-.074.013-.157.067-.22.044-.13-.018-.228-.025-.228-.025a1.5,1.5,0,0,0,.188.162c.064.062.17.057.294.089a.866.866,0,0,0,.409-.073,1.755,1.755,0,0,0,.718-.655,2.825,2.825,0,0,0,.412-.991,2.759,2.759,0,0,0,.058-.552,2.42,2.42,0,0,0-.059-.545,1.492,1.492,0,0,0-.224-.494c-.054-.072-.1-.143-.157-.2l-.2-.139a.8.8,0,0,0-.394-.127.6.6,0,0,0-.279.01A1.893,1.893,0,0,0,325.519,297.827Z" fill="#d2d1d1" style="mix-blend-mode: multiply;isolation: isolate"/>
              </g>
              <g id="Grupo_164911" data-name="Grupo 164911">
                <path id="Trazado_225294" data-name="Trazado 225294" d="M293.527,299.011c.359,1.9-.322,3.633-1.521,3.858s-2.46-1.135-2.817-3.041.322-3.633,1.521-3.857S293.169,297.107,293.527,299.011Z" fill="#fabc99"/>
                <path id="Trazado_225295" data-name="Trazado 225295" d="M291.368,297.827s-.079.038-.22.088a.528.528,0,0,0-.229.113c-.065.067-.142.094-.193.192a.685.685,0,0,0-.142.274c-.054.087-.035.234-.07.345a3.219,3.219,0,0,0,.081.835,3.82,3.82,0,0,0,.258.825,2.217,2.217,0,0,0,.38.616,1.166,1.166,0,0,0,.219.159c.072.013.156.067.217.044.131-.018.23-.025.23-.025a1.472,1.472,0,0,1-.189.162c-.063.062-.17.057-.293.089a.864.864,0,0,1-.409-.073,1.749,1.749,0,0,1-.718-.655,2.777,2.777,0,0,1-.47-1.543,2.365,2.365,0,0,1,.059-.545,1.494,1.494,0,0,1,.225-.494,2.449,2.449,0,0,1,.156-.2c.07-.047.137-.094.2-.139a.811.811,0,0,1,.395-.127.592.592,0,0,1,.278.01A1.948,1.948,0,0,1,291.368,297.827Z" fill="#d2d1d1" style="mix-blend-mode: multiply;isolation: isolate"/>
              </g>
              <path id="Trazado_225296" data-name="Trazado 225296" d="M295.726,290.093s2.268-4.154,6.553-1.118" fill="none" stroke="#341e13" stroke-linecap="round" stroke-miterlimit="10" stroke-width="0.851"/>
              <path id="Trazado_225297" data-name="Trazado 225297" d="M320.578,290.093s-2.268-4.154-6.553-1.118" fill="none" stroke="#341e13" stroke-linecap="round" stroke-miterlimit="10" stroke-width="0.851"/>
              <g id="Grupo_164912" data-name="Grupo 164912">
                <path id="Trazado_225298" data-name="Trazado 225298" d="M310.317,301.422a1.707,1.707,0,0,1,.233.234,2.322,2.322,0,0,1,.451.767,1.655,1.655,0,0,1,.118.636,1.456,1.456,0,0,1-.217.776,3.079,3.079,0,0,1-.286.34,3.8,3.8,0,0,1-.359.24,3.348,3.348,0,0,1-.764.255,5.864,5.864,0,0,1-.747.056c-.239,0-.473-.035-.7-.052a7.989,7.989,0,0,1-1.175-.288,6.973,6.973,0,0,1-1.073-.486,7.749,7.749,0,0,1,1.161-.057c.34-.009.731-.021,1.14-.012.2-.009.408-.035.617-.031a5.607,5.607,0,0,0,.6-.072,2.564,2.564,0,0,0,.527-.142,1.183,1.183,0,0,1,.211-.1l.156-.134a.971.971,0,0,0,.2-.364,1.729,1.729,0,0,0,.053-.457,4.173,4.173,0,0,0-.083-.787Z" fill="#ca9a7e"/>
              </g>
              <g id="Grupo_164914" data-name="Grupo 164914">
                <path id="Trazado_225299" data-name="Trazado 225299" d="M304.336,307.094a4.319,4.319,0,0,0,8.215,0Z" fill="#fff"/>
                <g id="Grupo_164913" data-name="Grupo 164913">
                  <path id="Trazado_225300" data-name="Trazado 225300" d="M304.336,307.094a9.01,9.01,0,0,0,.781,1.077c.139.167.31.309.462.463s.344.264.506.4a4.5,4.5,0,0,0,1.13.576c.2.061.409.091.61.139l.619.032.637-.076c.188-.063.376-.1.563-.172a4.835,4.835,0,0,0,1.063-.622c.152-.142.323-.261.461-.418s.286-.305.408-.476a7.377,7.377,0,0,0,.668-1.073l.307.487c-1.369-.007-2.738-.035-4.107-.1S305.7,307.216,304.336,307.094Zm0,0c1.369-.122,2.739-.2,4.108-.243,1.369-.063,2.738-.091,4.107-.1h.007a.336.336,0,0,1,.337.334.346.346,0,0,1-.036.154,7.476,7.476,0,0,1-.731,1.2c-.14.19-.314.355-.469.533a6.913,6.913,0,0,1-.536.473,4.676,4.676,0,0,1-1.258.688c-.233.078-.486.124-.726.183-.239.023-.422.031-.7.047-.238-.03-.478-.053-.713-.092-.228-.072-.46-.128-.679-.215a4.9,4.9,0,0,1-1.192-.733,5.288,5.288,0,0,1-.9-1.035c-.118-.2-.245-.386-.349-.584Z" fill="#d5877a"/>
                </g>
              </g>
              <g id="Grupo_164916" data-name="Grupo 164916">
                <path id="Trazado_225301" data-name="Trazado 225301" d="M301.271,294.21a1.778,1.778,0,1,1-1.758-2.039A1.914,1.914,0,0,1,301.271,294.21Z" fill="#341e13"/>
                <g id="Grupo_164915" data-name="Grupo 164915">
                  <path id="Trazado_225302" data-name="Trazado 225302" d="M298.978,293.391a.82.82,0,1,1-.819-.819A.819.819,0,0,1,298.978,293.391Z" fill="#fff"/>
                  <path id="Trazado_225303" data-name="Trazado 225303" d="M298.936,294.581a.389.389,0,1,1-.389-.388A.389.389,0,0,1,298.936,294.581Z" fill="#fff"/>
                </g>
              </g>
              <g id="Grupo_164918" data-name="Grupo 164918">
                <path id="Trazado_225304" data-name="Trazado 225304" d="M315.106,294.21a1.777,1.777,0,1,0,1.758-2.039A1.914,1.914,0,0,0,315.106,294.21Z" fill="#341e13"/>
                <g id="Grupo_164917" data-name="Grupo 164917">
                  <path id="Trazado_225305" data-name="Trazado 225305" d="M317.4,293.391a.819.819,0,1,0,.819-.819A.819.819,0,0,0,317.4,293.391Z" fill="#fff"/>
                  <path id="Trazado_225306" data-name="Trazado 225306" d="M317.441,294.581a.388.388,0,1,0,.388-.388A.388.388,0,0,0,317.441,294.581Z" fill="#fff"/>
                </g>
              </g>
              <path id="Trazado_225307" data-name="Trazado 225307" d="M322.672,333.913H295.348c4.777-3.691,1.279-12.178,1.279-12.178a17.681,17.681,0,0,1,2.885-1.1s8.932,10.94,17.788-.021a17.292,17.292,0,0,1,3.735,1.535S316.175,330.249,322.672,333.913Z" fill="#5d0730"/>
              <path id="Trazado_225308" data-name="Trazado 225308" d="M291.358,295.947" fill="#27150e"/>
              <path id="Trazado_225309" data-name="Trazado 225309" d="M300.881,272.3" fill="#27150e"/>
              <g id="Grupo_164920" data-name="Grupo 164920">
                <g id="Grupo_164919" data-name="Grupo 164919">
                  <path id="Trazado_225310" data-name="Trazado 225310" d="M292.716,302.495a1.16,1.16,0,1,1-1.159-1.16A1.16,1.16,0,0,1,292.716,302.495Z" fill="#dddddc"/>
                  <path id="Trazado_225311" data-name="Trazado 225311" d="M292.615,302.882a.914.914,0,0,1-1.3,0,.915.915,0,0,1-.269-.648v-.012a.918.918,0,0,1,.269-.648.905.905,0,0,1,.381-.229,1.1,1.1,0,0,0-.142-.01,1.161,1.161,0,1,0,1.111,1.489Z" fill="#e8e8e8" style="mix-blend-mode: multiply;isolation: isolate"/>
                </g>
                <path id="Trazado_225312" data-name="Trazado 225312" d="M292.407,302.158a.425.425,0,1,1-.425-.426A.424.424,0,0,1,292.407,302.158Z" fill="#fff"/>
              </g>
              <g id="Grupo_164922" data-name="Grupo 164922">
                <g id="Grupo_164921" data-name="Grupo 164921">
                  <path id="Trazado_225313" data-name="Trazado 225313" d="M326.148,302.495a1.159,1.159,0,1,1-1.16-1.16A1.162,1.162,0,0,1,326.148,302.495Z" fill="#dddddc"/>
                  <path id="Trazado_225314" data-name="Trazado 225314" d="M326.046,302.882a.918.918,0,0,1-1.566-.648v-.012a.919.919,0,0,1,.27-.648.9.9,0,0,1,.381-.229,1.118,1.118,0,0,0-.143-.01,1.161,1.161,0,1,0,1.112,1.489C326.084,302.843,326.065,302.863,326.046,302.882Z" fill="#e8e8e8" style="mix-blend-mode: multiply;isolation: isolate"/>
                </g>
                <path id="Trazado_225315" data-name="Trazado 225315" d="M325.839,302.158a.425.425,0,1,1-.425-.426A.425.425,0,0,1,325.839,302.158Z" fill="#fff"/>
              </g>
              <path id="Trazado_225316" data-name="Trazado 225316" d="M307,274.466s2.575,9.264,16.575,14.514c0,0,1.78,1.424,1.541,7.658,0,0,.758-1.481,2.053,0,0,0,2.745-14.357-2.184-22.172,0,0-5.974-8.324-16.024-7.05C308.964,267.416,305.666,269.161,307,274.466Z" fill="#0d0400"/>
              <path id="Trazado_225317" data-name="Trazado 225317" d="M310.024,274.466s-2.575,9.264-16.573,14.514c0,0-1.782,1.424-1.543,7.658,0,0-.757-1.481-2.053,0,0,0-2.744-14.357,2.184-22.172,0,0,5.975-8.324,16.024-7.05C308.063,267.416,311.362,269.161,310.024,274.466Z" fill="#0d0400"/>
            </g>
          </g>
        </g>
      </g>
      <g id="Grupo_164940" data-name="Grupo 164940" transform="translate(-356.5 -9351.495)">
        <g id="Grupo_164939" data-name="Grupo 164939">
          <path id="Trazado_225319" data-name="Trazado 225319" d="M259.537,295.343a38.57,38.57,0,1,1-38.571-38.571A38.57,38.57,0,0,1,259.537,295.343Z" fill="#570b1c"/>
          <g id="Grupo_164938" data-name="Grupo 164938" clip-path="url(#clip-path-2)">
            <g id="Grupo_164937" data-name="Grupo 164937">
              <rect id="Rectángulo_49074" data-name="Rectángulo 49074" width="33.389" height="25.973" transform="translate(203.663 299.65)" fill="#76350d"/>
              <rect id="Rectángulo_49075" data-name="Rectángulo 49075" width="8.311" height="7.033" transform="translate(216.681 313.935)" fill="#fabc99"/>
              <path id="Trazado_225320" data-name="Trazado 225320" d="M223.238,316.276a8.039,8.039,0,0,1,1.754.19v-2.531h-8.311v6.854A6.623,6.623,0,0,1,223.238,316.276Z" fill="#d2d1d1" style="mix-blend-mode: multiply;isolation: isolate"/>
              <path id="Trazado_225321" data-name="Trazado 225321" d="M224.4,319.9h-7.122s-14.239-.765-16.979,14.01h41.079C238.638,319.138,224.4,319.9,224.4,319.9Z" fill="#fabc99"/>
              <path id="Trazado_225322" data-name="Trazado 225322" d="M237.921,293.8c0,12.092-7.072,21.9-17.085,21.9s-17.085-9.8-17.085-21.9,7.073-21.9,17.085-21.9S237.921,281.706,237.921,293.8Z" fill="#fabc99"/>
              <g id="Grupo_164927" data-name="Grupo 164927">
                <path id="Trazado_225323" data-name="Trazado 225323" d="M235.753,299.011c-.359,1.906.322,3.633,1.521,3.858s2.459-1.135,2.818-3.041-.324-3.633-1.522-3.857S236.11,297.107,235.753,299.011Z" fill="#fabc99"/>
                <path id="Trazado_225324" data-name="Trazado 225324" d="M237.912,297.827s.079.038.22.088a.512.512,0,0,1,.229.113c.064.066.142.094.193.19a.7.7,0,0,1,.142.276c.053.087.035.232.07.344a3.179,3.179,0,0,1-.082.835,3.737,3.737,0,0,1-.257.826,2.28,2.28,0,0,1-.38.616,1.174,1.174,0,0,1-.218.158c-.074.012-.157.068-.22.045-.129-.018-.228-.026-.228-.026a1.435,1.435,0,0,0,.188.163c.064.061.171.058.294.089a.866.866,0,0,0,.409-.073,1.792,1.792,0,0,0,.719-.655,2.856,2.856,0,0,0,.412-.992,2.823,2.823,0,0,0,.057-.551,2.417,2.417,0,0,0-.059-.546,1.488,1.488,0,0,0-.224-.493c-.054-.072-.1-.143-.157-.2l-.2-.139a.816.816,0,0,0-.394-.129.633.633,0,0,0-.278.011A1.982,1.982,0,0,0,237.912,297.827Z" fill="#d2d1d1" style="mix-blend-mode: multiply;isolation: isolate"/>
              </g>
              <g id="Grupo_164928" data-name="Grupo 164928">
                <path id="Trazado_225325" data-name="Trazado 225325" d="M205.92,299.011c.359,1.906-.322,3.633-1.52,3.858s-2.46-1.135-2.819-3.041.323-3.633,1.522-3.857S205.563,297.107,205.92,299.011Z" fill="#fabc99"/>
                <path id="Trazado_225326" data-name="Trazado 225326" d="M203.762,297.827s-.08.038-.221.088a.507.507,0,0,0-.229.113c-.065.066-.142.094-.193.19a.7.7,0,0,0-.142.276c-.053.087-.035.232-.07.344a3.219,3.219,0,0,0,.081.835,3.9,3.9,0,0,0,.257.826,2.306,2.306,0,0,0,.381.616,1.142,1.142,0,0,0,.218.158c.073.012.156.068.219.045.13-.018.228-.026.228-.026a1.287,1.287,0,0,1-.187.163c-.065.061-.17.058-.294.089a.864.864,0,0,1-.409-.073,1.8,1.8,0,0,1-.719-.655,2.856,2.856,0,0,1-.412-.992,2.748,2.748,0,0,1-.057-.551,2.362,2.362,0,0,1,.059-.546,1.488,1.488,0,0,1,.224-.493c.054-.072.1-.143.156-.2l.2-.139a.815.815,0,0,1,.393-.129.637.637,0,0,1,.279.011A2.041,2.041,0,0,1,203.762,297.827Z" fill="#d2d1d1" style="mix-blend-mode: multiply;isolation: isolate"/>
              </g>
              <path id="Trazado_225327" data-name="Trazado 225327" d="M233.069,291.208s-.688-4.459-6.553-1.119" fill="none" stroke="#7c380e" stroke-linecap="round" stroke-miterlimit="10" stroke-width="0.851"/>
              <path id="Trazado_225328" data-name="Trazado 225328" d="M209.117,291.208s.687-4.459,6.553-1.119" fill="none" stroke="#7c380e" stroke-linecap="round" stroke-miterlimit="10" stroke-width="0.851"/>
              <g id="Grupo_164930" data-name="Grupo 164930">
                <g id="Grupo_164929" data-name="Grupo 164929">
                  <path id="Trazado_225329" data-name="Trazado 225329" d="M218.193,303.9a9.42,9.42,0,0,0,3.455-.27,1.7,1.7,0,0,0,1.055-.936,2.027,2.027,0,0,0,.123-.7,2.562,2.562,0,0,0-.027-.379,2.39,2.39,0,0,0-.076-.354l-.012-.038-.008-.056a8.411,8.411,0,0,1-.073-1.412,5.222,5.222,0,0,1,.238-1.444,5.221,5.221,0,0,1,.542,1.36,8.387,8.387,0,0,1,.232,1.393l-.021-.094a3.107,3.107,0,0,1,.1.526,3.44,3.44,0,0,1,.023.518,2.546,2.546,0,0,1-.248,1.041,2.276,2.276,0,0,1-.7.841,2.763,2.763,0,0,1-.945.418,4.939,4.939,0,0,1-1.9.047A8.827,8.827,0,0,1,218.193,303.9Z" fill="#ca9a7e"/>
                </g>
              </g>
              <g id="Grupo_164932" data-name="Grupo 164932">
                <path id="Trazado_225330" data-name="Trazado 225330" d="M216.729,307.093a4.319,4.319,0,0,0,8.215,0Z" fill="#fff"/>
                <g id="Grupo_164931" data-name="Grupo 164931">
                  <path id="Trazado_225331" data-name="Trazado 225331" d="M216.729,307.093a9.2,9.2,0,0,0,.78,1.077c.14.167.311.31.462.464s.345.264.507.4a4.453,4.453,0,0,0,1.13.577c.2.061.408.091.609.139l.619.032.637-.077c.189-.062.376-.1.564-.171a4.812,4.812,0,0,0,1.063-.622,6.093,6.093,0,0,0,.461-.419c.134-.161.286-.3.408-.476a7.377,7.377,0,0,0,.668-1.073l.307.487c-1.369-.007-2.739-.035-4.108-.1S218.1,307.215,216.729,307.093Zm0,0c1.369-.122,2.738-.195,4.107-.243s2.739-.091,4.108-.1h.007a.336.336,0,0,1,.337.334.342.342,0,0,1-.036.154,7.574,7.574,0,0,1-.731,1.205c-.14.189-.314.355-.47.533a6.918,6.918,0,0,1-.535.473,4.676,4.676,0,0,1-1.258.688c-.232.078-.486.124-.726.183-.239.023-.422.031-.7.047-.239-.03-.478-.053-.713-.092-.228-.072-.46-.128-.679-.215a4.928,4.928,0,0,1-1.193-.734,5.349,5.349,0,0,1-.905-1.034c-.117-.2-.244-.387-.348-.586Z" fill="#d5877a"/>
                </g>
              </g>
              <g id="Grupo_164934" data-name="Grupo 164934">
                <path id="Trazado_225332" data-name="Trazado 225332" d="M213.663,294.208a1.777,1.777,0,1,1-1.757-2.037A1.914,1.914,0,0,1,213.663,294.208Z" fill="#341e13"/>
                <g id="Grupo_164933" data-name="Grupo 164933">
                  <path id="Trazado_225333" data-name="Trazado 225333" d="M211.371,293.39a.82.82,0,1,1-.819-.819A.819.819,0,0,1,211.371,293.39Z" fill="#fff"/>
                  <path id="Trazado_225334" data-name="Trazado 225334" d="M211.329,294.581a.388.388,0,1,1-.389-.389A.389.389,0,0,1,211.329,294.581Z" fill="#fff"/>
                </g>
              </g>
              <g id="Grupo_164936" data-name="Grupo 164936">
                <path id="Trazado_225335" data-name="Trazado 225335" d="M227.5,294.208a1.778,1.778,0,1,0,1.759-2.037A1.915,1.915,0,0,0,227.5,294.208Z" fill="#341e13"/>
                <g id="Grupo_164935" data-name="Grupo 164935">
                  <path id="Trazado_225336" data-name="Trazado 225336" d="M229.792,293.39a.819.819,0,1,0,.819-.819A.819.819,0,0,0,229.792,293.39Z" fill="#fff"/>
                  <path id="Trazado_225337" data-name="Trazado 225337" d="M229.833,294.581a.389.389,0,1,0,.389-.389A.389.389,0,0,0,229.833,294.581Z" fill="#fff"/>
                </g>
              </g>
              <path id="Trazado_225338" data-name="Trazado 225338" d="M230.832,320.968a5.6,5.6,0,0,0-1.044-.334s1.144,10.3-8.7,10.606c-.08,0-.162,0-.242,0s-.161,0-.241,0c-9.844-.306-8.7-10.606-8.7-10.606a5.626,5.626,0,0,0-1.044.334s3.108,7.628-5.242,12.945h30.456C227.724,328.6,230.832,320.968,230.832,320.968Z" fill="#de2e34"/>
              <path id="Trazado_225339" data-name="Trazado 225339" d="M203.751,295.946" fill="#27150e"/>
              <path id="Trazado_225340" data-name="Trazado 225340" d="M213.274,272.3" fill="#27150e"/>
              <path id="Trazado_225341" data-name="Trazado 225341" d="M205.619,286.749s2.551-10.237,10.607-8.416c0,0-1.308-7.613-4.83-6.431,0,0-5.38.4-8.873,7.635-5.631,13.853-2.409,36.157-2.409,36.157s.708,9.235,1.927,12.907a14.807,14.807,0,0,1,5.67-6.158S203.25,303.156,205.619,286.749Z" fill="#d05718"/>
              <path id="Trazado_225342" data-name="Trazado 225342" d="M234.6,284.179l4.518-9.057c7.31,13.993,1.278,55.231,1.278,55.231s-1.1-4.4-6.571-7.991c0,0,3.707-16.47.775-38.183" fill="#d05718"/>
              <path id="Trazado_225343" data-name="Trazado 225343" d="M234.6,284.179s-2.855-9.381-7.775-8.234c0,0-.246-5.3,3.277-4.112a11.342,11.342,0,0,1,7.837,7.793Z" fill="#27150e"/>
              <path id="Trazado_225344" data-name="Trazado 225344" d="M239.119,275.122l-3.746,12.811s-23.124-7.6-23.468-16.159c0,0-.5-4.976,7.432-6.333C219.337,265.441,231.015,262.976,239.119,275.122Z" fill="#d05718"/>
            </g>
          </g>
        </g>
      </g>
      <g id="Grupo_164956" data-name="Grupo 164956" transform="translate(-356.5 -9351.495)">
        <g id="Grupo_164955" data-name="Grupo 164955">
          <path id="Trazado_225346" data-name="Trazado 225346" d="M175.709,295.343a38.57,38.57,0,1,1-38.571-38.571A38.57,38.57,0,0,1,175.709,295.343Z" fill="#95ad2e"/>
          <g id="Grupo_164954" data-name="Grupo 164954" clip-path="url(#clip-path-3)">
            <g id="Grupo_164953" data-name="Grupo 164953">
              <path id="Trazado_225347" data-name="Trazado 225347" d="M141.293,319.9h-8.31s-21.436,2.92-22.543,12.144v1.873h53.4V332.04C162.729,322.816,141.293,319.9,141.293,319.9Z" fill="#81552d"/>
              <g id="Grupo_164941" data-name="Grupo 164941">
                <path id="Trazado_225348" data-name="Trazado 225348" d="M152.886,297.9c-.359,1.9.323,3.632,1.521,3.857s2.46-1.135,2.818-3.041-.323-3.633-1.521-3.857S153.244,295.993,152.886,297.9Z" fill="#81552d"/>
                <path id="Trazado_225349" data-name="Trazado 225349" d="M155.045,296.711s.08.038.22.089a.513.513,0,0,1,.229.113c.065.067.143.1.193.191a.682.682,0,0,1,.142.273c.053.089.035.235.07.347a3.179,3.179,0,0,1-.081.835,3.781,3.781,0,0,1-.258.825,2.175,2.175,0,0,1-.38.615,1.2,1.2,0,0,1-.218.16c-.073.012-.157.068-.218.044-.131-.016-.229-.024-.229-.024a1.334,1.334,0,0,0,.188.16c.064.063.17.059.294.092a.909.909,0,0,0,.409-.074,1.785,1.785,0,0,0,.718-.656,2.821,2.821,0,0,0,.413-.993,2.784,2.784,0,0,0,.056-.548,2.39,2.39,0,0,0-.059-.548,1.486,1.486,0,0,0-.224-.493,2.514,2.514,0,0,0-.156-.2l-.2-.138a.8.8,0,0,0-.394-.129.622.622,0,0,0-.279.011C155.13,296.687,155.045,296.711,155.045,296.711Z" fill="#d2d1d1" style="mix-blend-mode: multiply;isolation: isolate"/>
              </g>
              <g id="Grupo_164942" data-name="Grupo 164942">
                <path id="Trazado_225350" data-name="Trazado 225350" d="M121.973,297.9c.359,1.9-.323,3.632-1.521,3.857s-2.459-1.135-2.818-3.041.323-3.633,1.522-3.857S121.614,295.993,121.973,297.9Z" fill="#81552d"/>
                <path id="Trazado_225351" data-name="Trazado 225351" d="M119.814,296.711s-.08.038-.22.089a.513.513,0,0,0-.229.113c-.065.067-.142.1-.194.191a.694.694,0,0,0-.141.273c-.053.089-.035.235-.07.347a3.1,3.1,0,0,0,.082.835,3.726,3.726,0,0,0,.256.825,2.221,2.221,0,0,0,.38.615,1.275,1.275,0,0,0,.218.16c.074.012.157.068.22.044.13-.016.229-.024.229-.024a1.4,1.4,0,0,1-.189.16c-.063.063-.17.059-.293.092a.9.9,0,0,1-.409-.074,1.781,1.781,0,0,1-.719-.656,2.838,2.838,0,0,1-.412-.993,2.642,2.642,0,0,1-.057-.548,2.39,2.39,0,0,1,.058-.548,1.509,1.509,0,0,1,.225-.493,2.129,2.129,0,0,1,.157-.2c.07-.048.136-.094.2-.138a.8.8,0,0,1,.394-.129.623.623,0,0,1,.279.011C119.729,296.687,119.814,296.711,119.814,296.711Z" fill="#d2d1d1" style="mix-blend-mode: multiply;isolation: isolate"/>
              </g>
              <rect id="Rectángulo_49076" data-name="Rectángulo 49076" width="8.311" height="7.031" transform="translate(132.983 314.415)" fill="#81552d"/>
              <path id="Trazado_225352" data-name="Trazado 225352" d="M141.293,315.142v-.727h-8.31v5.4C134.364,316.844,137.943,315.257,141.293,315.142Z" fill="#d2d1d1" style="mix-blend-mode: multiply;isolation: isolate"/>
              <path id="Trazado_225353" data-name="Trazado 225353" d="M154.989,292.571c0,12.44-7.544,22.526-17.844,22.526S119.5,304.644,119.5,292.2c-.187-16.526,7.346-22.159,17.646-22.159S155.9,275.109,154.989,292.571Z" fill="#81552d"/>
              <path id="Trazado_225354" data-name="Trazado 225354" d="M145.531,320.681a9.41,9.41,0,0,1-16.713-.016c-6.288,1.373-17.582,4.745-18.378,11.375v1.873h53.4V332.04C163.043,325.435,151.834,322.064,145.531,320.681Z" fill="#5eb2b2"/>
              <g id="Grupo_164943" data-name="Grupo 164943">
                <path id="Trazado_225355" data-name="Trazado 225355" d="M145.531,320.681a9.41,9.41,0,0,1-16.713-.016c-.931.206-1.974.454-3.075.748a12.539,12.539,0,0,0,22.693-.027C147.4,321.111,146.416,320.876,145.531,320.681Z" fill="#fff"/>
              </g>
              <path id="Trazado_225356" data-name="Trazado 225356" d="M124.711,288.979s2.269-4.155,6.553-1.118" fill="none" stroke="#341e13" stroke-linecap="round" stroke-miterlimit="10" stroke-width="0.851"/>
              <path id="Trazado_225357" data-name="Trazado 225357" d="M149.564,288.979s-2.269-4.155-6.553-1.118" fill="none" stroke="#341e13" stroke-linecap="round" stroke-miterlimit="10" stroke-width="0.851"/>
              <g id="Grupo_164944" data-name="Grupo 164944" style="mix-blend-mode: multiply;isolation: isolate">
                <path id="Trazado_225358" data-name="Trazado 225358" d="M139.3,300.308a1.735,1.735,0,0,1,.234.234,2.369,2.369,0,0,1,.45.766,1.668,1.668,0,0,1,.117.637,1.453,1.453,0,0,1-.218.776,3.626,3.626,0,0,1-.285.341,4,4,0,0,1-.359.239,3.513,3.513,0,0,1-.764.254,6.048,6.048,0,0,1-.747.056c-.239,0-.474-.035-.7-.051a8.227,8.227,0,0,1-1.175-.287,7.152,7.152,0,0,1-1.073-.487,7.57,7.57,0,0,1,1.161-.057c.341-.009.73-.023,1.139-.013.2-.01.409-.035.618-.031a5.6,5.6,0,0,0,.6-.072,2.642,2.642,0,0,0,.528-.142,1.2,1.2,0,0,1,.21-.1l.157-.133a.983.983,0,0,0,.195-.365,1.721,1.721,0,0,0,.054-.456,4.212,4.212,0,0,0-.083-.789Z" fill="#bababa"/>
              </g>
              <g id="Grupo_164947" data-name="Grupo 164947">
                <path id="Trazado_225359" data-name="Trazado 225359" d="M132.253,306.99a5.547,5.547,0,0,0,10.044,0Z" fill="#fff"/>
                <g id="Grupo_164946" data-name="Grupo 164946">
                  <g id="Grupo_164945" data-name="Grupo 164945">
                    <path id="Trazado_225360" data-name="Trazado 225360" d="M132.253,306.99l.468.628.517.569.578.5.628.422.667.344.7.242.727.134.733.024c.21-.029.505-.051.753-.076l.68-.174.671-.278.629-.365.578-.444L141.1,308l.456-.572.394-.623.343.579c-1.673-.009-3.348-.033-5.022-.108-.837-.037-1.674-.057-2.511-.108S133.09,307.07,132.253,306.99Zm0,0c.837-.08,1.674-.119,2.511-.176s1.674-.07,2.511-.108c1.674-.075,3.349-.1,5.022-.108h.018a.38.38,0,0,1,.382.378.373.373,0,0,1-.056.2l-.432.7c-.164.221-.34.435-.515.649-.191.2-.4.384-.6.578-.215.174-.443.332-.665.5-.239.142-.485.272-.729.4l-.784.289-.841.172-.805.041-.822-.092-.8-.213-.75-.325-.692-.425c-.211-.169-.418-.341-.615-.521-.179-.2-.363-.393-.534-.6l-.456-.652Z" fill="#624122"/>
                  </g>
                </g>
              </g>
              <g id="Grupo_164949" data-name="Grupo 164949">
                <path id="Trazado_225361" data-name="Trazado 225361" d="M130.256,293.1a1.777,1.777,0,1,1-1.757-2.038A1.913,1.913,0,0,1,130.256,293.1Z" fill="#341e13"/>
                <g id="Grupo_164948" data-name="Grupo 164948">
                  <path id="Trazado_225362" data-name="Trazado 225362" d="M127.963,292.276a.819.819,0,1,1-.818-.82A.819.819,0,0,1,127.963,292.276Z" fill="#fff"/>
                  <path id="Trazado_225363" data-name="Trazado 225363" d="M127.921,293.466a.388.388,0,1,1-.387-.39A.388.388,0,0,1,127.921,293.466Z" fill="#fff"/>
                </g>
              </g>
              <g id="Grupo_164951" data-name="Grupo 164951">
                <path id="Trazado_225364" data-name="Trazado 225364" d="M144.092,293.1a1.777,1.777,0,1,0,1.758-2.038A1.914,1.914,0,0,0,144.092,293.1Z" fill="#341e13"/>
                <g id="Grupo_164950" data-name="Grupo 164950">
                  <path id="Trazado_225365" data-name="Trazado 225365" d="M146.385,292.276a.819.819,0,1,0,.819-.82A.819.819,0,0,0,146.385,292.276Z" fill="#fff"/>
                  <path id="Trazado_225366" data-name="Trazado 225366" d="M146.427,293.466a.388.388,0,1,0,.388-.39A.388.388,0,0,0,146.427,293.466Z" fill="#fff"/>
                </g>
              </g>
              <g id="Grupo_164952" data-name="Grupo 164952">
                <path id="Trazado_225367" data-name="Trazado 225367" d="M137.1,274.644a.084.084,0,0,1-.02,0A.09.09,0,0,0,137.1,274.644Z" fill="#341e13"/>
                <path id="Trazado_225368" data-name="Trazado 225368" d="M137.084,274.649Z" fill="#341e13"/>
                <path id="Trazado_225369" data-name="Trazado 225369" d="M157.6,270.395a2.678,2.678,0,0,0-2.679-2.679,2.673,2.673,0,0,0-3.836-2.413,2.674,2.674,0,0,0-4.68-1.382,2.676,2.676,0,0,0-4.861-.011,2.673,2.673,0,0,0-4.592-.445,2.674,2.674,0,0,0-4.431.146,2.675,2.675,0,0,0-4.87.812,2.676,2.676,0,0,0-4.546,1.434,2.672,2.672,0,0,0-3.509,3.378,2.677,2.677,0,0,0-.569,5.231c-2.63,8.511.017,20.39.017,20.39l.824.277.445,3.172h.854s-1.671-10.44,1.585-13.5c0,0-.683-8.2,2.914-9.252,0,0,7.453-1.623,11.438-.908,3.657-.434,11.884.478,11.884.478,3.821.638,2.674,9.682,2.674,9.682,3.256,3.061,1.585,13.5,1.585,13.5h.855l.443-3.172.826-.277s3.055-13.175-.109-21.807A2.678,2.678,0,0,0,157.6,270.395Z" fill="#341e13"/>
              </g>
            </g>
          </g>
        </g>
      </g>
      <g id="Grupo_164975" data-name="Grupo 164975" transform="translate(-356.5 -9351.495)">
        <g id="Grupo_164974" data-name="Grupo 164974">
          <path id="Trazado_225371" data-name="Trazado 225371" d="M95.642,295.343a38.571,38.571,0,1,1-38.571-38.571A38.57,38.57,0,0,1,95.642,295.343Z" fill="#de2e34"/>
          <g id="Grupo_164973" data-name="Grupo 164973" clip-path="url(#clip-path-4)">
            <g id="Grupo_164972" data-name="Grupo 164972">
              <rect id="Rectángulo_49077" data-name="Rectángulo 49077" width="8.344" height="7.061" transform="translate(52.899 313.855)" fill="#fabc99"/>
              <path id="Trazado_225372" data-name="Trazado 225372" d="M59.482,316.206a7.972,7.972,0,0,1,1.761.192v-2.543H52.9v6.881A6.648,6.648,0,0,1,59.482,316.206Z" fill="#d2d1d1" style="mix-blend-mode: multiply;isolation: isolate"/>
              <path id="Trazado_225373" data-name="Trazado 225373" d="M60.647,319.847H53.5s-14.3-.767-17.047,14.066H77.694C74.944,319.08,60.647,319.847,60.647,319.847Z" fill="#fabc99"/>
              <path id="Trazado_225374" data-name="Trazado 225374" d="M74.225,293.636c0,12.141-7.1,21.985-17.153,21.985s-17.155-9.844-17.155-21.985,7.1-21.983,17.155-21.983S74.225,281.5,74.225,293.636Z" fill="#fabc99"/>
              <g id="Grupo_164957" data-name="Grupo 164957">
                <path id="Trazado_225375" data-name="Trazado 225375" d="M72.048,298.871c-.361,1.914.323,3.646,1.526,3.873s2.47-1.141,2.83-3.053-.325-3.648-1.529-3.873S72.407,296.958,72.048,298.871Z" fill="#fabc99"/>
                <path id="Trazado_225376" data-name="Trazado 225376" d="M74.215,297.681s.08.039.221.09a.522.522,0,0,1,.23.111c.065.069.143.1.194.194a.689.689,0,0,1,.142.273c.054.09.036.234.07.348a3.171,3.171,0,0,1-.081.839,3.811,3.811,0,0,1-.259.828,2.247,2.247,0,0,1-.381.619,1.161,1.161,0,0,1-.22.159c-.073.012-.156.068-.22.044-.13-.018-.228-.024-.228-.024a1.4,1.4,0,0,0,.188.162c.064.062.171.058.3.091a.9.9,0,0,0,.41-.076,1.775,1.775,0,0,0,.721-.657,2.853,2.853,0,0,0,.414-1,2.761,2.761,0,0,0,.058-.553,2.441,2.441,0,0,0-.06-.548,1.473,1.473,0,0,0-.225-.5c-.054-.072-.1-.142-.156-.2l-.205-.138a.8.8,0,0,0-.4-.128.621.621,0,0,0-.278.009A2.254,2.254,0,0,0,74.215,297.681Z" fill="#d2d1d1" style="mix-blend-mode: multiply;isolation: isolate"/>
              </g>
              <g id="Grupo_164958" data-name="Grupo 164958">
                <path id="Trazado_225377" data-name="Trazado 225377" d="M42.094,298.871c.361,1.914-.323,3.646-1.526,3.873s-2.47-1.141-2.83-3.053.325-3.648,1.528-3.873S41.736,296.958,42.094,298.871Z" fill="#fabc99"/>
                <path id="Trazado_225378" data-name="Trazado 225378" d="M39.927,297.681s-.08.039-.221.09a.508.508,0,0,0-.229.111c-.066.069-.143.1-.195.194a.676.676,0,0,0-.142.273c-.054.09-.036.234-.07.348a3.257,3.257,0,0,0,.081.839,3.865,3.865,0,0,0,.258.828,2.3,2.3,0,0,0,.382.619,1.223,1.223,0,0,0,.219.159c.074.012.157.068.22.044.13-.018.229-.024.229-.024a1.4,1.4,0,0,1-.188.162c-.064.062-.17.058-.295.091a.907.907,0,0,1-.411-.076,1.781,1.781,0,0,1-.721-.657,2.853,2.853,0,0,1-.414-1,2.689,2.689,0,0,1-.057-.553,2.384,2.384,0,0,1,.059-.548,1.534,1.534,0,0,1,.225-.5c.053-.072.1-.142.157-.2l.2-.138a.793.793,0,0,1,.4-.128.626.626,0,0,1,.279.009C39.84,297.655,39.927,297.681,39.927,297.681Z" fill="#d2d1d1" style="mix-blend-mode: multiply;isolation: isolate"/>
              </g>
              <path id="Trazado_225379" data-name="Trazado 225379" d="M44.3,289.916s2.278-4.172,6.58-1.122" fill="none" stroke="#341e13" stroke-linecap="round" stroke-miterlimit="10" stroke-width="0.855"/>
              <path id="Trazado_225380" data-name="Trazado 225380" d="M69.254,289.916s-2.277-4.172-6.579-1.122" fill="none" stroke="#341e13" stroke-linecap="round" stroke-miterlimit="10" stroke-width="0.855"/>
              <g id="Grupo_164959" data-name="Grupo 164959">
                <path id="Trazado_225381" data-name="Trazado 225381" d="M58.953,301.29a1.794,1.794,0,0,1,.234.235,2.38,2.38,0,0,1,.453.769,1.7,1.7,0,0,1,.117.64,1.455,1.455,0,0,1-.217.779,3.114,3.114,0,0,1-.288.343,4,4,0,0,1-.359.24,3.431,3.431,0,0,1-.768.256,5.91,5.91,0,0,1-.75.056c-.24,0-.475-.035-.7-.052a8.038,8.038,0,0,1-1.18-.288,7.2,7.2,0,0,1-1.077-.489,7.639,7.639,0,0,1,1.166-.057c.341-.009.733-.022,1.144-.012.2-.009.41-.035.62-.031a5.673,5.673,0,0,0,.6-.073,2.592,2.592,0,0,0,.53-.142,1.093,1.093,0,0,1,.211-.1l.157-.135a.975.975,0,0,0,.195-.365,1.754,1.754,0,0,0,.055-.459,4.371,4.371,0,0,0-.084-.791C58.975,301.406,58.953,301.29,58.953,301.29Z" fill="#ca9a7e"/>
              </g>
              <g id="Grupo_164961" data-name="Grupo 164961">
                <path id="Trazado_225382" data-name="Trazado 225382" d="M52.947,306.985a4.742,4.742,0,0,0,4.125,3,4.742,4.742,0,0,0,4.123-3Z" fill="#fff"/>
                <g id="Grupo_164960" data-name="Grupo 164960">
                  <path id="Trazado_225383" data-name="Trazado 225383" d="M52.947,306.985a9.183,9.183,0,0,0,.783,1.081c.14.169.312.311.464.467s.346.263.509.4a4.481,4.481,0,0,0,1.134.578c.2.062.411.092.612.141l.622.03.639-.075c.19-.063.378-.1.566-.174a4.727,4.727,0,0,0,1.068-.623c.153-.143.324-.262.463-.42s.287-.307.409-.479a7.254,7.254,0,0,0,.67-1.078l.309.491c-1.374-.008-2.749-.037-4.124-.1S54.322,307.107,52.947,306.985Zm0,0c1.375-.122,2.749-.2,4.124-.244,1.375-.063,2.75-.091,4.124-.1H61.2a.339.339,0,0,1,.339.336.35.35,0,0,1-.037.154,7.5,7.5,0,0,1-.733,1.209c-.141.192-.315.358-.472.536a6.741,6.741,0,0,1-.537.474,4.665,4.665,0,0,1-1.264.691c-.233.08-.487.125-.729.184-.239.023-.423.031-.7.047-.24-.029-.481-.053-.716-.092-.229-.072-.462-.129-.682-.217a4.845,4.845,0,0,1-1.2-.735,5.359,5.359,0,0,1-.909-1.038c-.118-.2-.246-.389-.35-.588Z" fill="#d5877a"/>
                </g>
              </g>
              <g id="Grupo_164963" data-name="Grupo 164963">
                <path id="Trazado_225384" data-name="Trazado 225384" d="M49.869,294.048A1.784,1.784,0,1,1,48.1,292,1.921,1.921,0,0,1,49.869,294.048Z" fill="#341e13"/>
                <g id="Grupo_164962" data-name="Grupo 164962">
                  <path id="Trazado_225385" data-name="Trazado 225385" d="M47.567,293.227a.823.823,0,1,1-.822-.823A.821.821,0,0,1,47.567,293.227Z" fill="#fff"/>
                  <path id="Trazado_225386" data-name="Trazado 225386" d="M47.526,294.421a.391.391,0,1,1-.391-.389A.392.392,0,0,1,47.526,294.421Z" fill="#fff"/>
                </g>
              </g>
              <g id="Grupo_164965" data-name="Grupo 164965">
                <path id="Trazado_225387" data-name="Trazado 225387" d="M63.76,294.048A1.785,1.785,0,1,0,65.525,292,1.922,1.922,0,0,0,63.76,294.048Z" fill="#341e13"/>
                <g id="Grupo_164964" data-name="Grupo 164964">
                  <path id="Trazado_225388" data-name="Trazado 225388" d="M66.062,293.227a.823.823,0,1,0,.823-.823A.822.822,0,0,0,66.062,293.227Z" fill="#fff"/>
                  <path id="Trazado_225389" data-name="Trazado 225389" d="M66.105,294.421a.39.39,0,1,0,.39-.389A.391.391,0,0,0,66.105,294.421Z" fill="#fff"/>
                </g>
              </g>
              <path id="Trazado_225390" data-name="Trazado 225390" d="M65.963,320.561a17.351,17.351,0,0,1,3.75,1.54s-4.879,8.133,1.644,11.812H43.922c4.8-3.707,1.286-12.228,1.286-12.228s4.407-2.04,7.691-1.846l4.018,4.442,4.278-4.442A15.919,15.919,0,0,1,65.963,320.561Z" fill="#77c7df"/>
              <path id="Trazado_225391" data-name="Trazado 225391" d="M39.917,295.793" fill="#27150e"/>
              <path id="Trazado_225392" data-name="Trazado 225392" d="M49.478,272.057" fill="#27150e"/>
              <g id="Grupo_164967" data-name="Grupo 164967">
                <g id="Grupo_164966" data-name="Grupo 164966">
                  <path id="Trazado_225393" data-name="Trazado 225393" d="M41.281,302.368a1.164,1.164,0,1,1-1.164-1.165A1.165,1.165,0,0,1,41.281,302.368Z" fill="#dddddc"/>
                  <path id="Trazado_225394" data-name="Trazado 225394" d="M41.179,302.757a.922.922,0,0,1-1.573-.651v-.013a.925.925,0,0,1,.653-.88,1.089,1.089,0,0,0-.142-.01,1.165,1.165,0,1,0,1.116,1.494A.767.767,0,0,1,41.179,302.757Z" fill="#e8e8e8" style="mix-blend-mode: multiply;isolation: isolate"/>
                </g>
                <path id="Trazado_225395" data-name="Trazado 225395" d="M40.971,302.029a.427.427,0,1,1-.428-.426A.428.428,0,0,1,40.971,302.029Z" fill="#fff"/>
              </g>
              <g id="Grupo_164969" data-name="Grupo 164969">
                <g id="Grupo_164968" data-name="Grupo 164968">
                  <path id="Trazado_225396" data-name="Trazado 225396" d="M74.847,302.368a1.164,1.164,0,1,1-1.164-1.165A1.165,1.165,0,0,1,74.847,302.368Z" fill="#dddddc"/>
                  <path id="Trazado_225397" data-name="Trazado 225397" d="M74.745,302.757a.922.922,0,0,1-1.573-.651v-.013a.921.921,0,0,1,.271-.649.9.9,0,0,1,.384-.231A1.165,1.165,0,1,0,74.8,302.7.755.755,0,0,1,74.745,302.757Z" fill="#e8e8e8" style="mix-blend-mode: multiply;isolation: isolate"/>
                </g>
                <path id="Trazado_225398" data-name="Trazado 225398" d="M74.537,302.029a.427.427,0,1,1-.428-.426A.428.428,0,0,1,74.537,302.029Z" fill="#fff"/>
              </g>
              <path id="Trazado_225399" data-name="Trazado 225399" d="M60.959,265.929a19.119,19.119,0,0,1,14.683,12.356c1.93,7.7-.866,18.535-.866,18.535l-.558,3.078h-.655c1.364-5.986-1.044-13.7-1.044-13.7-3.265-9.593-14.926-8.877-14.926-8.877-11.072.16-14.329,6.975-14.329,6.975-3.881,4.409-2.805,15.6-2.805,15.6h-.534l-.542-3.026A55.6,55.6,0,0,1,37.834,283.5c-.5-13.793,13.048-17.252,13.048-17.252S58.61,265.466,60.959,265.929Z" fill="#27150e"/>
              <path id="Trazado_225400" data-name="Trazado 225400" d="M67.356,267.306c0,3.452-4.406,6.249-9.84,6.249s-9.84-2.8-9.84-6.249,4.406-6.246,9.84-6.246S67.356,263.857,67.356,267.306Z" fill="#27150e"/>
              <g id="Grupo_164970" data-name="Grupo 164970">
                <path id="Trazado_225401" data-name="Trazado 225401" d="M50.644,326.933a8.41,8.41,0,0,1,6.279-2.6S52.115,322.046,50.644,326.933Z" fill="#d2d1d1" style="mix-blend-mode: multiply;isolation: isolate"/>
                <path id="Trazado_225402" data-name="Trazado 225402" d="M52.9,319.9l4.018,4.441s-4.552-1.045-6.279,2.6l.081-6.853A5.251,5.251,0,0,1,52.9,319.9Z" fill="#2a94b3"/>
              </g>
              <g id="Grupo_164971" data-name="Grupo 164971">
                <path id="Trazado_225403" data-name="Trazado 225403" d="M63.075,327.2a8.41,8.41,0,0,0-6.152-2.879S61.83,322.246,63.075,327.2Z" fill="#d2d1d1" style="mix-blend-mode: multiply;isolation: isolate"/>
                <path id="Trazado_225404" data-name="Trazado 225404" d="M61.2,319.9l-4.279,4.42s4.6-.836,6.152,2.879l.313-7.16A6.263,6.263,0,0,0,61.2,319.9Z" fill="#2a94b3"/>
              </g>
            </g>
          </g>
        </g>
      </g>
    </g>
  </g>
</svg>
