<svg xmlns="http://www.w3.org/2000/svg" xmlns:xlink="http://www.w3.org/1999/xlink" width="295" height="270.537" viewBox="0 0 295 270.537">
  <defs>
    <linearGradient id="linear-gradient" x1="0.5" x2="0.5" y2="1" gradientUnits="objectBoundingBox">
      <stop offset="0" stop-color="#039be5"/>
      <stop offset="1" stop-color="#027fbc"/>
    </linearGradient>
  </defs>
  <g id="Grupo_163448" data-name="Grupo 163448" transform="translate(-17.918 -1.678)">
    <g id="Grupo_163309" data-name="Grupo 163309" transform="translate(57.152 45.503)">
      <g id="Grupo_163286" data-name="Grupo 163286" transform="translate(49.57 94.625)">
        <g id="Grupo_163283" data-name="Grupo 163283" transform="translate(0 0)">
          <rect id="Rectángulo_48424" data-name="Rectángulo 48424" width="1.402" height="2.804" transform="translate(0 0.991) rotate(-45)" fill="#175ca0"/>
        </g>
        <g id="Grupo_163284" data-name="Grupo 163284" transform="translate(3.393 3.393)">
          <path id="Trazado_219875" data-name="Trazado 219875" d="M161.729,252.932h-1.4v-4.12h1.4Zm0-6.116h-1.4V242.7h1.4Zm0-6.114h-1.4v-4.12h1.4Zm0-6.115h-1.4v-4.12h1.4Zm0-6.115h-1.4v-4.12h1.4Zm0-6.115h-1.4v-4.12h1.4Zm-.743-5.807-2.913-2.913.991-.991,2.913,2.913Zm-4.324-4.324-2.913-2.912.991-.991,2.913,2.912Zm-4.324-4.324-2.914-2.913.991-.991,2.914,2.913Z" transform="translate(-149.425 -203.998)" fill="#175ca0"/>
        </g>
        <g id="Grupo_163285" data-name="Grupo 163285" transform="translate(14.295 54.322)">
          <rect id="Rectángulo_48425" data-name="Rectángulo 48425" width="1.402" height="2.804" fill="#175ca0"/>
        </g>
      </g>
      <g id="Grupo_163290" data-name="Grupo 163290" transform="translate(16.774 42.681)">
        <g id="Grupo_163287" data-name="Grupo 163287" transform="translate(0 0)">
          <rect id="Rectángulo_48426" data-name="Rectángulo 48426" width="1.402" height="2.804" transform="matrix(0.707, -0.707, 0.707, 0.707, 0, 0.991)" fill="#175ca0"/>
        </g>
        <g id="Grupo_163288" data-name="Grupo 163288" transform="translate(3.393 3.394)">
          <path id="Trazado_219876" data-name="Trazado 219876" d="M114.949,178.84h-1.4v-4.12h1.4Zm0-6.115h-1.4v-4.12h1.4Zm0-6.115h-1.4v-4.12h1.4Zm0-6.114h-1.4v-4.12h1.4Zm0-6.116h-1.4v-4.119h1.4Zm0-6.114h-1.4v-4.12h1.4Zm-.743-5.808-2.913-2.913.991-.991,2.913,2.913Zm-4.324-4.324-2.913-2.913.991-.991,2.913,2.913Zm-4.324-4.324-2.914-2.913.992-.991,2.913,2.913Z" transform="translate(-102.645 -129.907)" fill="#175ca0"/>
        </g>
        <g id="Grupo_163289" data-name="Grupo 163289" transform="translate(14.295 54.322)">
          <rect id="Rectángulo_48427" data-name="Rectángulo 48427" width="1.402" height="2.804" fill="#175ca0"/>
        </g>
      </g>
      <g id="Grupo_163294" data-name="Grupo 163294" transform="translate(47.908 22.501)">
        <g id="Grupo_163291" data-name="Grupo 163291" transform="translate(12.971 0)">
          <rect id="Rectángulo_48428" data-name="Rectángulo 48428" width="2.804" height="1.402" transform="matrix(0.707, -0.707, 0.707, 0.707, 0, 1.983)" fill="#175ca0"/>
        </g>
        <g id="Grupo_163292" data-name="Grupo 163292" transform="translate(0 3.393)">
          <path id="Trazado_219877" data-name="Trazado 219877" d="M143.864,150.056h-1.4v-4.12h1.4Zm0-6.114h-1.4v-4.12h1.4Zm0-6.115h-1.4v-4.12h1.4Zm0-6.115h-1.4v-4.12h1.4Zm0-6.115h-1.4v-4.12h1.4Zm0-6.115h-1.4v-4.12h1.4Zm-.659-5.807-.991-.991,2.913-2.913.991.991Zm4.324-4.324-.991-.991,2.913-2.912.991.991Zm4.324-4.324-.991-.991,2.914-2.913.991.991Z" transform="translate(-142.214 -101.123)" fill="#175ca0"/>
        </g>
        <g id="Grupo_163293" data-name="Grupo 163293" transform="translate(0.248 54.322)">
          <rect id="Rectángulo_48429" data-name="Rectángulo 48429" width="1.402" height="2.804" fill="#175ca0"/>
        </g>
      </g>
      <g id="Grupo_163295" data-name="Grupo 163295" transform="translate(31.109 70.374)">
        <path id="Trazado_219878" data-name="Trazado 219878" d="M156.649,243h-1.4V201.862l-36.995-36.294.982-1,37.415,36.706Z" transform="translate(-118.252 -164.567)" fill="#175ca0"/>
      </g>
      <g id="Grupo_163296" data-name="Grupo 163296" transform="translate(90.937 35.811)">
        <path id="Trazado_219879" data-name="Trazado 219879" d="M204.991,216.184h-1.4V129.477l14.21-14.21.991.991-13.8,13.8Z" transform="translate(-203.588 -115.267)" fill="#175ca0"/>
      </g>
      <g id="Grupo_163297" data-name="Grupo 163297" transform="translate(110.58 84.733)">
        <path id="Trazado_219880" data-name="Trazado 219880" d="M246.809,240.978h-1.4V199.839l-13.8-13.8.991-.991,14.211,14.21Z" transform="translate(-231.607 -185.048)" fill="#175ca0"/>
      </g>
      <g id="Grupo_163298" data-name="Grupo 163298" transform="translate(149.314 108.704)">
        <path id="Trazado_219881" data-name="Trazado 219881" d="M288.258,275.169h-1.4V233.45l14.21-14.21.991.991-13.8,13.8Z" transform="translate(-286.855 -219.24)" fill="#175ca0"/>
      </g>
      <g id="Grupo_163299" data-name="Grupo 163299" transform="translate(130.863 55.232)">
        <path id="Trazado_219882" data-name="Trazado 219882" d="M261.939,243.961h-1.4V241.38h1.4Zm0-4.684h-1.4V235.07h1.4Zm0-6.31h-1.4v-4.206h1.4Zm0-6.31h-1.4v-4.206h1.4Zm0-6.31h-1.4v-4.206h1.4Zm0-6.31h-1.4v-4.207h1.4Zm0-6.31h-1.4v-4.206h1.4Zm0-6.31h-1.4v-4.206h1.4Zm0-6.31h-1.4V190.9h1.4Zm0-6.31h-1.4v-4.206h1.4Zm0-6.31h-1.4v-4.206h1.4Zm0-6.31h-1.4v-4.207h1.4Zm0-6.31h-1.4v-4.206h1.4Zm1.549-5.087-.991-.992,2.974-2.974.991.991Zm4.462-4.462-.991-.991,2.974-2.975.991.991Zm4.462-4.462-.991-.991,2.975-2.975.991.991Zm4.462-4.462-.991-.991,2.974-2.975.991.991Zm4.462-4.462-.991-.991,2.974-2.975.991.991Z" transform="translate(-260.537 -142.969)" fill="#175ca0"/>
      </g>
      <g id="Grupo_163300" data-name="Grupo 163300" transform="translate(0 96.282)">
        <path id="Trazado_219883" data-name="Trazado 219883" d="M124.155,289.563,94.233,259.642V223.76L73.879,202.49l1.013-.969L95.636,223.2v35.865l29.511,29.511Z" transform="translate(-73.879 -201.521)" fill="#175ca0"/>
      </g>
      <g id="Grupo_163301" data-name="Grupo 163301" transform="translate(154.486 144.041)">
        <rect id="Rectángulo_48430" data-name="Rectángulo 48430" width="55.568" height="1.402" transform="translate(0 39.291) rotate(-44.998)" fill="#175ca0"/>
      </g>
      <g id="Grupo_163302" data-name="Grupo 163302" transform="translate(158.78 89.752)">
        <path id="Trazado_219884" data-name="Trazado 219884" d="M301.349,289.9l-.991-.991,2.975-2.974.991.991Zm4.462-4.462-.991-.991,2.974-2.975.991.991Zm4.461-4.462-.991-.991,2.975-2.975.991.991Zm4.462-4.462-.991-.991,2.974-2.974.991.991Zm4.462-4.462-.991-.991,2.975-2.975.991.992Zm4.462-4.462-.991-.991,2.975-2.975.991.991Zm4.462-4.462-.991-.991,2.974-2.974.991.991Zm4.462-4.462-.991-.991,2.974-2.974.991.991Zm4.462-4.462-.992-.991,2.975-2.975.991.992Zm4.461-4.462-.991-.991,2.975-2.975.991.991Zm4.462-4.462-.991-.991,2.974-2.974.991.991Zm4.462-4.462-.991-.991,2.974-2.974.992.991Zm4.462-4.461-.991-.991,2.975-2.975.991.992Zm4.462-4.462-.991-.991,2.974-2.974.991.991Zm4.462-4.462-.991-.991,1.382-1.382v-1.671h1.4v2.252Zm1.793-6.147h-1.4v-4.207h1.4Zm0-6.31h-1.4v-4.206h1.4Zm0-6.31h-1.4v-4.206h1.4Zm0-6.31h-1.4v-4.207h1.4Zm0-6.31h-1.4v-3.839h1.4Z" transform="translate(-300.358 -192.207)" fill="#175ca0"/>
      </g>
      <g id="Grupo_163303" data-name="Grupo 163303" transform="translate(17.387 7.699)">
        <path id="Trazado_219885" data-name="Trazado 219885" d="M167.839,196.338h-1.4V169.781L123.405,126.75V100.887L98.679,76.161l.991-.991,25.137,25.137v25.862L167.839,169.2Z" transform="translate(-98.679 -75.17)" fill="#175ca0"/>
      </g>
      <g id="Grupo_163304" data-name="Grupo 163304" transform="translate(35.614 103.281)">
        <path id="Trazado_219886" data-name="Trazado 219886" d="M142.079,282.143l-1.1-1.093.99-.993,1.1,1.093Zm-2.584-2.582-2.974-2.974.991-.991,2.975,2.974Zm-4.461-4.462-2.975-2.974.991-.991,2.975,2.974Zm-4.462-4.461-2.975-2.975.991-.991,2.975,2.975Zm-4.462-4.462-1.432-1.432v-2.762h1.4v2.181l1.021,1.021Zm-.03-6.3h-1.4v-4.207h1.4Zm0-6.31h-1.4v-4.207h1.4Zm0-6.31h-1.4v-4.206h1.4Zm0-6.31h-1.4v-4.206h1.4Zm0-6.31h-1.4v-4.206h1.4Zm0-6.31h-1.4v-4.207h1.4Zm0-6.309h-1.4v-4.207h1.4Zm0-6.31h-1.4V211.5h1.4Z" transform="translate(-124.678 -211.504)" fill="#175ca0"/>
      </g>
      <g id="Grupo_163305" data-name="Grupo 163305" transform="translate(112.162 0.063)">
        <rect id="Rectángulo_48431" data-name="Rectángulo 48431" width="1.402" height="29.546" fill="#175ca0"/>
      </g>
      <g id="Grupo_163306" data-name="Grupo 163306" transform="translate(184.218 11.676)">
        <rect id="Rectángulo_48432" data-name="Rectángulo 48432" width="1.402" height="27.716" fill="#175ca0"/>
      </g>
      <g id="Grupo_163307" data-name="Grupo 163307" transform="translate(137.449)">
        <path id="Trazado_219887" data-name="Trazado 219887" d="M280.4,102.5l-2.975-2.974.991-.991,2.975,2.974Zm-4.462-4.461-2.974-2.975.991-.991,2.974,2.975Zm-4.462-4.462-1.541-1.541V89.427h1.4v2.027l1.13,1.13Zm-.139-6.252h-1.4V83.117h1.4Zm0-6.31h-1.4V76.808h1.4Zm0-6.31h-1.4V70.5h1.4Zm0-6.31h-1.4V64.188h1.4Z" transform="translate(-269.931 -64.188)" fill="#175ca0"/>
      </g>
      <g id="Grupo_163308" data-name="Grupo 163308" transform="translate(196.745 0.824)">
        <path id="Trazado_219888" data-name="Trazado 219888" d="M364.974,103.674,362,100.7l.991-.991,2.975,2.974Zm-4.461-4.461-2.975-2.975.991-.991,2.975,2.974Zm-4.462-4.462L354.51,93.21V90.6h1.4v2.027l1.13,1.131Zm-.139-6.252h-1.4V84.292h1.4Zm0-6.31h-1.4V77.982h1.4Zm0-6.31h-1.4V71.673h1.4Zm0-6.31h-1.4V65.363h1.4Z" transform="translate(-354.51 -65.363)" fill="#175ca0"/>
      </g>
    </g>
    <g id="Grupo_163310" data-name="Grupo 163310" transform="translate(17.918 1.93)">
      <path id="Trazado_219889" data-name="Trazado 219889" d="M264.952,352.8a81.867,81.867,0,0,0-163.732,0Z" transform="translate(-42.819 -82.512)" fill="#fff"/>
      <circle id="Elipse_8760" data-name="Elipse 8760" cx="24.583" cy="24.583" r="24.583" transform="translate(0 110.896)" fill="#fff"/>
      <circle id="Elipse_8761" data-name="Elipse 8761" cx="24.583" cy="24.583" r="24.583" transform="translate(70.374 129.132) rotate(-76.637)" fill="#fff"/>
      <circle id="Elipse_8762" data-name="Elipse 8762" cx="24.583" cy="24.583" r="24.583" transform="translate(11.948 34.766) rotate(-45)" fill="#fff"/>
      <circle id="Elipse_8763" data-name="Elipse 8763" cx="24.583" cy="24.583" r="24.583" transform="translate(212.329 171.767) rotate(-45)" fill="#fff"/>
      <circle id="Elipse_8764" data-name="Elipse 8764" cx="24.583" cy="24.583" r="24.583" transform="translate(230.995 90.39) rotate(-22.001)" fill="#fff"/>
      <circle id="Elipse_8765" data-name="Elipse 8765" cx="4.353" cy="4.353" r="4.353" transform="translate(66.61 75.696)" fill="#fff"/>
      <circle id="Elipse_8766" data-name="Elipse 8766" cx="4.353" cy="4.353" r="4.353" transform="translate(270.405 140.737)" fill="#fff"/>
      <circle id="Elipse_8767" data-name="Elipse 8767" cx="4.353" cy="4.353" r="4.353" transform="translate(112.702 150.56)" fill="#fff"/>
      <circle id="Elipse_8768" data-name="Elipse 8768" cx="4.353" cy="4.353" r="4.353" transform="translate(12.636 169.501)" fill="#fff"/>
      <path id="Trazado_219890" data-name="Trazado 219890" d="M214.049,77.864a4.966,4.966,0,1,1-4.966-4.966A4.966,4.966,0,0,1,214.049,77.864Z" transform="translate(-73.576 -23.219)" fill="#fff"/>
    </g>
    <g id="Grupo_163311" data-name="Grupo 163311" transform="translate(23.279 1.677)">
      <circle id="Elipse_8769" data-name="Elipse 8769" cx="24.583" cy="24.583" r="24.583" transform="translate(167.503 95.034) rotate(-45)" fill="#c1aaf8"/>
      <circle id="Elipse_8770" data-name="Elipse 8770" cx="24.583" cy="24.583" r="24.583" transform="translate(194.487 34.766) rotate(-45)" fill="#c1aaf8"/>
      <circle id="Elipse_8771" data-name="Elipse 8771" cx="24.583" cy="24.583" r="24.583" transform="matrix(0.927, -0.375, 0.375, 0.927, 64.808, 31.29)" fill="#c1aaf8"/>
      <circle id="Elipse_8772" data-name="Elipse 8772" cx="4.353" cy="4.353" r="4.353" transform="translate(264.308 53.84)" fill="#c1aaf8"/>
      <circle id="Elipse_8773" data-name="Elipse 8773" cx="7.275" cy="7.275" r="7.275" transform="translate(0 45.597)" fill="#c1aaf8"/>
      <circle id="Elipse_8774" data-name="Elipse 8774" cx="6.954" cy="6.954" r="6.954" transform="translate(178.281 55.358)" fill="#c1aaf8"/>
      <circle id="Elipse_8775" data-name="Elipse 8775" cx="6.954" cy="6.954" r="6.954" transform="translate(78.587 162.451)" fill="#c1aaf8"/>
      <circle id="Elipse_8776" data-name="Elipse 8776" cx="6.954" cy="6.954" r="6.954" transform="translate(194.424 190.983) rotate(-45)" fill="#c1aaf8"/>
    </g>
    <g id="Grupo_163328" data-name="Grupo 163328" transform="translate(106.058 163.091)">
      <g id="Grupo_163324" data-name="Grupo 163324" transform="translate(0 22.747)">
        <g id="Grupo_163323" data-name="Grupo 163323">
          <g id="Grupo_163314" data-name="Grupo 163314">
            <g id="Grupo_163312" data-name="Grupo 163312">
              <path id="Trazado_219891" data-name="Trazado 219891" d="M245.4,267.733a3.46,3.46,0,0,0-3.539-3.376H147.178a3.461,3.461,0,0,0-3.54,3.376v58.98H245.4Z" transform="translate(-143.638 -264.357)" fill="#081019"/>
            </g>
            <g id="Grupo_163313" data-name="Grupo 163313" transform="translate(0 62.356)">
              <path id="Trazado_219892" data-name="Trazado 219892" d="M147.178,364.385h94.679a3.46,3.46,0,0,0,3.539-3.376V353.3H143.638v7.708A3.461,3.461,0,0,0,147.178,364.385Z" transform="translate(-143.638 -353.3)" fill="#3576c4"/>
            </g>
          </g>
          <g id="Grupo_163322" data-name="Grupo 163322" transform="translate(5.19)">
            <g id="Grupo_163315" data-name="Grupo 163315" transform="translate(35.158 72.065)">
              <rect id="Rectángulo_48433" data-name="Rectángulo 48433" width="25.374" height="12.092" fill="#175ca0"/>
            </g>
            <g id="Grupo_163316" data-name="Grupo 163316" transform="translate(38.192 72.065)">
              <rect id="Rectángulo_48434" data-name="Rectángulo 48434" width="25.374" height="12.092" fill="#3576c4"/>
            </g>
            <g id="Grupo_163317" data-name="Grupo 163317" transform="translate(28.008 82.978)">
              <rect id="Rectángulo_48435" data-name="Rectángulo 48435" width="31.442" height="3.399" fill="#3576c4"/>
            </g>
            <g id="Grupo_163318" data-name="Grupo 163318" transform="translate(38.192 82.978)">
              <rect id="Rectángulo_48436" data-name="Rectángulo 48436" width="31.442" height="3.399" fill="#6ea1e7"/>
            </g>
            <g id="Grupo_163321" data-name="Grupo 163321">
              <g id="Grupo_163319" data-name="Grupo 163319">
                <path id="Trazado_219893" data-name="Trazado 219893" d="M252.8,267.733a3.46,3.46,0,0,0-3.539-3.376H154.58a3.46,3.46,0,0,0-3.539,3.376v58.98H252.8Z" transform="translate(-151.041 -264.357)" fill="#142535"/>
              </g>
              <g id="Grupo_163320" data-name="Grupo 163320" transform="translate(0 62.356)">
                <path id="Trazado_219894" data-name="Trazado 219894" d="M154.58,364.385h94.679a3.46,3.46,0,0,0,3.539-3.376V353.3H151.041v7.708A3.46,3.46,0,0,0,154.58,364.385Z" transform="translate(-151.041 -353.3)" fill="url(#linear-gradient)"/>
              </g>
            </g>
          </g>
          <path id="Trazado_219895" data-name="Trazado 219895" d="M156.583,269.828V323.42H250.57V269.828Z" transform="translate(-147.507 -265.992)" fill="#fff"/>
          <path id="Trazado_219896" data-name="Trazado 219896" d="M228.329,361.164a1,1,0,0,1-1,1h-5.517a1,1,0,0,1-1-1h0a1,1,0,0,1,1-1h5.517a1,1,0,0,1,1,1Z" transform="translate(-166.705 -292.994)" fill="#fff"/>
        </g>
      </g>
      <g id="Grupo_163326" data-name="Grupo 163326" transform="translate(27.724)">
        <path id="Trazado_219897" data-name="Trazado 219897" d="M226.3,258.4v-5.045c0-9.645-12.8-21.44-12.8-21.44h-8.638a21.5,21.5,0,0,0-21.44,21.44V258.4Z" transform="translate(-183.254 -231.912)" fill="#081019"/>
        <path id="Trazado_219898" data-name="Trazado 219898" d="M183.422,263.277v2.738a21.44,21.44,0,0,0,42.88,0v-2.738Z" transform="translate(-183.254 -241.288)" fill="#081019"/>
        <g id="Grupo_163325" data-name="Grupo 163325" transform="translate(5.642)">
          <path id="Trazado_219899" data-name="Trazado 219899" d="M191.23,263.094V267.1a21.5,21.5,0,0,0,14.431,20.232h-.123V301.5h17.489V287.335h-3.349A21.5,21.5,0,0,0,234.11,267.1v-4.009Z" transform="translate(-191.23 -241.233)" fill="#ed8a40"/>
          <path id="Trazado_219900" data-name="Trazado 219900" d="M196.863,263.094V267.1a21.5,21.5,0,0,0,14.431,20.232h-.311V301.5h14.245V287.365A21.507,21.507,0,0,0,239.743,267.1v-4.009Z" transform="translate(-192.914 -241.233)" fill="#ffb680"/>
          <path id="Trazado_219901" data-name="Trazado 219901" d="M212.67,231.912a21.5,21.5,0,0,0-21.44,21.441v.421h42.88v-.421A21.5,21.5,0,0,0,212.67,231.912Z" transform="translate(-191.23 -231.912)" fill="#081019"/>
          <path id="Trazado_219902" data-name="Trazado 219902" d="M218.3,231.912a21.5,21.5,0,0,0-21.44,21.441v.421h42.88v-.421A21.5,21.5,0,0,0,218.3,231.912Z" transform="translate(-192.914 -231.912)" fill="#142535"/>
        </g>
        <path id="Trazado_219903" data-name="Trazado 219903" d="M221.172,309.71H198.035c-8.041,0-14.63,7.068-14.853,15.8v9.835h52.843v-9.835C235.8,316.778,229.214,309.71,221.172,309.71Z" transform="translate(-183.182 -255.167)" fill="#bf2276"/>
        <path id="Trazado_219904" data-name="Trazado 219904" d="M227.658,309.71H204.521c-8.041,0-14.63,7.068-14.853,15.8v9.835h52.843v-9.835C242.288,316.778,235.7,309.71,227.658,309.71Z" transform="translate(-185.121 -255.167)" fill="#ff2c9c"/>
      </g>
      <g id="Grupo_163327" data-name="Grupo 163327" transform="translate(87.779 10.057)">
        <path id="Trazado_219905" data-name="Trazado 219905" d="M272.864,246.257h-4.021l1.323,21.619h5.286l1.323-21.619Z" transform="translate(-268.843 -246.257)" fill="#27c45b"/>
        <path id="Trazado_219906" data-name="Trazado 219906" d="M276.5,246.257h-4.021l1.323,21.619h5.286l1.323-21.619Z" transform="translate(-269.929 -246.257)" fill="#5be88d"/>
        <path id="Trazado_219907" data-name="Trazado 219907" d="M276.576,286.42a3.6,3.6,0,0,0-1.07-2.566V282.8h-2.547a3.617,3.617,0,0,0,0,7.233h2.547v-1.052A3.6,3.6,0,0,0,276.576,286.42Z" transform="translate(-268.993 -257.182)" fill="#27c45b"/>
        <path id="Trazado_219908" data-name="Trazado 219908" d="M280.209,286.42a3.617,3.617,0,1,1-3.617-3.616A3.617,3.617,0,0,1,280.209,286.42Z" transform="translate(-270.079 -257.182)" fill="#5be88d"/>
      </g>
    </g>
    <g id="Grupo_163335" data-name="Grupo 163335" transform="translate(254.034 155.39)">
      <g id="Grupo_163333" data-name="Grupo 163333">
        <g id="Grupo_163330" data-name="Grupo 163330">
          <g id="Grupo_163329" data-name="Grupo 163329">
            <rect id="Rectángulo_48437" data-name="Rectángulo 48437" width="21.925" height="37.96" rx="4.668" fill="#081019"/>
            <rect id="Rectángulo_48438" data-name="Rectángulo 48438" width="21.925" height="37.96" rx="4.668" transform="translate(1.894)" fill="#142535"/>
            <path id="Trazado_219909" data-name="Trazado 219909" d="M375.277,270.3a.868.868,0,0,1-.867.868h-4.164a.868.868,0,0,1-.867-.868h0a.867.867,0,0,1,.867-.867h4.164a.867.867,0,0,1,.867.867Z" transform="translate(-359.092 -235.426)" fill="#7c7c7c"/>
            <path id="Trazado_219910" data-name="Trazado 219910" d="M374.294,223.8a.8.8,0,1,1-.8-.8A.8.8,0,0,1,374.294,223.8Z" transform="translate(-360.081 -221.548)" fill="#fff"/>
          </g>
          <path id="Trazado_219911" data-name="Trazado 219911" d="M359.976,227.362v27.873h18.389V227.362Z" transform="translate(-356.281 -222.851)" fill="#fff"/>
        </g>
        <rect id="Rectángulo_48439" data-name="Rectángulo 48439" width="15.806" height="16.544" transform="translate(5.132 9.112)" fill="#4cd7f8"/>
        <rect id="Rectángulo_48440" data-name="Rectángulo 48440" width="15.806" height="1.67" transform="translate(5.132 5.804)" fill="#5be88d"/>
        <path id="Trazado_219912" data-name="Trazado 219912" d="M374.341,263.193h-4.1a1.5,1.5,0,0,1-1.5-1.5h0a1.5,1.5,0,0,1,1.5-1.5h4.1a1.5,1.5,0,0,1,1.5,1.5h0A1.5,1.5,0,0,1,374.341,263.193Z" transform="translate(-358.901 -232.667)" fill="#5be88d"/>
        <g id="Grupo_163332" data-name="Grupo 163332" transform="translate(7.075 11.199)">
          <rect id="Rectángulo_48441" data-name="Rectángulo 48441" width="4.171" height="2.942" transform="translate(3.904 9.195)" fill="#fff"/>
          <g id="Grupo_163331" data-name="Grupo 163331" transform="translate(1.582)">
            <path id="Trazado_219913" data-name="Trazado 219913" d="M367.053,244.134a4.407,4.407,0,0,0,8.813,0v-.824h-8.813Z" transform="translate(-367.053 -238.817)" fill="#fff"/>
            <path id="Trazado_219914" data-name="Trazado 219914" d="M371.459,236.9a4.419,4.419,0,0,0-4.406,4.406v.086h8.813v-.086A4.42,4.42,0,0,0,371.459,236.9Z" transform="translate(-367.053 -236.902)" fill="#142535"/>
          </g>
          <path id="Trazado_219915" data-name="Trazado 219915" d="M376.661,256.138a3.348,3.348,0,0,0-3.335-3.247h-5.194a3.347,3.347,0,0,0-3.335,3.247Z" transform="translate(-364.797 -241.681)" fill="#142535"/>
        </g>
      </g>
      <g id="Grupo_163334" data-name="Grupo 163334" transform="translate(12.298 27.276)">
        <path id="Trazado_219916" data-name="Trazado 219916" d="M390.164,269.178h-8.625v-7.8a1.528,1.528,0,0,0-.306-.913h.069v-.636h-1.372v.006a1.549,1.549,0,0,0-1.488,1.542v14.81a17.979,17.979,0,0,0-2.925-2.867,4.848,4.848,0,0,0-.748-.442v-.329h-1.453v.007c-.876.048-1.342.625-.9,1.324.743,1.174,4.722,6.33,6.259,8.313.01,0,.018,0,.027.007a1.183,1.183,0,0,0,.925.454h10.537a1.191,1.191,0,0,0,1.187-1.187V270.365A1.191,1.191,0,0,0,390.164,269.178Z" transform="translate(-372.246 -259.833)" fill="#ed8a40"/>
        <path id="Trazado_219917" data-name="Trazado 219917" d="M392.033,269.178h-8.625v-7.8a1.554,1.554,0,0,0-1.549-1.549h0a1.553,1.553,0,0,0-1.549,1.549v14.81a17.978,17.978,0,0,0-2.925-2.867c-2.036-1.454-3.843-.613-3.1.561s4.722,6.33,6.259,8.313c.01,0,.018,0,.027.007a1.183,1.183,0,0,0,.925.454h10.536a1.191,1.191,0,0,0,1.187-1.187V270.365A1.191,1.191,0,0,0,392.033,269.178Z" transform="translate(-372.805 -259.833)" fill="#ffb680"/>
        <path id="Trazado_219918" data-name="Trazado 219918" d="M385.834,263.046v-1.181a.991.991,0,0,0-1.981,0v1.181Z" transform="translate(-375.716 -260.144)" fill="#fff"/>
      </g>
    </g>
    <g id="Grupo_163350" data-name="Grupo 163350" transform="translate(80.434 94.266)">
      <g id="Grupo_163336" data-name="Grupo 163336" transform="translate(16.517)">
        <path id="Trazado_219919" data-name="Trazado 219919" d="M169.267,146.673h-2.74A3.6,3.6,0,0,0,162.4,141.6a9.936,9.936,0,0,0-7.835-7.683l.832-.176h-2.752v0a9.911,9.911,0,0,0-8.966,5.937c-.114-.055-.233-.1-.351-.147l.6-.369H141.26v.008a5.187,5.187,0,0,0-4.469,7.53,6.771,6.771,0,0,0-6.143,6.72h0a6.771,6.771,0,0,0,6.751,6.751h31.868a6.771,6.771,0,0,0,6.751-6.751h0A6.771,6.771,0,0,0,169.267,146.673Z" transform="translate(-130.648 -133.742)" fill="#1ba0db"/>
        <path id="Trazado_219920" data-name="Trazado 219920" d="M172.937,146.673H170.2a3.6,3.6,0,0,0-4.131-5.072,9.919,9.919,0,0,0-9.67-7.859h0a9.912,9.912,0,0,0-9.051,5.94,5.191,5.191,0,0,0-6.885,7.023,6.771,6.771,0,0,0-6.143,6.72h0a6.771,6.771,0,0,0,6.751,6.751h31.868a6.771,6.771,0,0,0,6.751-6.751h0A6.771,6.771,0,0,0,172.937,146.673Z" transform="translate(-131.745 -133.742)" fill="#4cd7f8"/>
      </g>
      <g id="Grupo_163346" data-name="Grupo 163346" transform="translate(0 18.926)">
        <g id="Grupo_163341" data-name="Grupo 163341">
          <g id="Grupo_163337" data-name="Grupo 163337">
            <path id="Trazado_219921" data-name="Trazado 219921" d="M134.389,160.738H109.633a2.544,2.544,0,0,0-2.544,2.544V199.4a2.544,2.544,0,0,0,2.544,2.544h24.757a2.544,2.544,0,0,0,2.544-2.544V163.282A2.543,2.543,0,0,0,134.389,160.738Z" transform="translate(-107.089 -160.738)" fill="#081019"/>
          </g>
          <g id="Grupo_163338" data-name="Grupo 163338" transform="translate(2.211)">
            <path id="Trazado_219922" data-name="Trazado 219922" d="M137.543,160.738H112.787a2.543,2.543,0,0,0-2.544,2.544V199.4a2.544,2.544,0,0,0,2.544,2.544h24.757a2.544,2.544,0,0,0,2.544-2.544V163.282A2.543,2.543,0,0,0,137.543,160.738Z" transform="translate(-110.243 -160.738)" fill="#142535"/>
          </g>
          <g id="Grupo_163339" data-name="Grupo 163339" transform="translate(14.683 38.183)">
            <path id="Trazado_219923" data-name="Trazado 219923" d="M132.933,215.854a.653.653,0,0,1-.653.653h-3.594a.653.653,0,0,1-.653-.653h0a.654.654,0,0,1,.653-.653h3.594a.654.654,0,0,1,.653.653Z" transform="translate(-128.032 -215.201)" fill="#fff"/>
          </g>
          <g id="Grupo_163340" data-name="Grupo 163340" transform="translate(16.463 0.907)">
            <path id="Trazado_219924" data-name="Trazado 219924" d="M131.911,162.7a.67.67,0,1,1-.67-.67A.67.67,0,0,1,131.911,162.7Z" transform="translate(-130.571 -162.031)" fill="#fff"/>
          </g>
        </g>
        <g id="Grupo_163344" data-name="Grupo 163344" transform="translate(4.802 3.185)">
          <g id="Grupo_163342" data-name="Grupo 163342">
            <rect id="Rectángulo_48442" data-name="Rectángulo 48442" width="24.661" height="33.507" fill="#fff"/>
          </g>
          <g id="Grupo_163343" data-name="Grupo 163343" transform="translate(1.078 1.239)">
            <rect id="Rectángulo_48443" data-name="Rectángulo 48443" width="22.505" height="1.436" fill="#1ba0db"/>
          </g>
        </g>
        <g id="Grupo_163345" data-name="Grupo 163345" transform="translate(8.318 10.569)">
          <rect id="Rectángulo_48444" data-name="Rectángulo 48444" width="10.102" height="10.197" transform="translate(2.693)" fill="#957ddb"/>
          <rect id="Rectángulo_48445" data-name="Rectángulo 48445" width="10.666" height="10.197" transform="translate(4.333)" fill="#c1aaf8"/>
          <path id="Trazado_219925" data-name="Trazado 219925" d="M124.339,184.309h-4.367a1.022,1.022,0,0,0-1.019,1.019v10.438a1.023,1.023,0,0,0,1.019,1.02h4.367Z" transform="translate(-118.953 -178.352)" fill="#1ba0db"/>
          <path id="Trazado_219926" data-name="Trazado 219926" d="M136.037,186.462h-6.772v-1.134a1.022,1.022,0,0,0-1.019-1.019h-5.88a1.023,1.023,0,0,0-1.02,1.019v10.438a1.023,1.023,0,0,0,1.02,1.02h13.672a1.151,1.151,0,0,0,1.147-1.148v-8.029A1.15,1.15,0,0,0,136.037,186.462Z" transform="translate(-119.668 -178.352)" fill="#4cd7f8"/>
          <rect id="Rectángulo_48446" data-name="Rectángulo 48446" width="8.838" height="0.786" transform="translate(5.357 1.177)" fill="#081019"/>
        </g>
      </g>
      <g id="Grupo_163348" data-name="Grupo 163348" transform="translate(26.308 30.829)">
        <rect id="Rectángulo_48447" data-name="Rectángulo 48447" width="1.6" height="7.996" transform="translate(8.433)" fill="#ed8a40"/>
        <rect id="Rectángulo_48448" data-name="Rectángulo 48448" width="1.6" height="2.98" transform="translate(0 2.497)" fill="#ed8a40"/>
        <g id="Grupo_163347" data-name="Grupo 163347" transform="translate(1.6)">
          <path id="Trazado_219927" data-name="Trazado 219927" d="M165.553,181.713l-6.628,4v-8Z" transform="translate(-150.492 -177.715)" fill="#ffb680"/>
          <rect id="Rectángulo_48449" data-name="Rectángulo 48449" width="2.957" height="8.433" transform="translate(0 5.477) rotate(-90)" fill="#ffb680"/>
        </g>
      </g>
      <g id="Grupo_163349" data-name="Grupo 163349" transform="translate(39.655 16.019)">
        <path id="Trazado_219928" data-name="Trazado 219928" d="M170.15,160.525v-3.934h-2.373l-4.125,6.839h2.939v8.7h2.034v-8.7H171.9Z" transform="translate(-163.652 -156.592)" fill="#ed8a40"/>
        <path id="Trazado_219929" data-name="Trazado 219929" d="M171.162,156.592l-4.125,6.839h2.6v8.7h3.051v-8.7h2.6Z" transform="translate(-164.664 -156.592)" fill="#ffb680"/>
      </g>
    </g>
    <g id="Grupo_163360" data-name="Grupo 163360" transform="translate(252.692 83.663)">
      <g id="Grupo_163351" data-name="Grupo 163351" transform="translate(26.483 23.887)">
        <rect id="Rectángulo_48450" data-name="Rectángulo 48450" width="2.556" height="25.197" fill="#27c45b"/>
        <rect id="Rectángulo_48451" data-name="Rectángulo 48451" width="3.575" height="25.197" transform="translate(2.037)" fill="#5be88d"/>
      </g>
      <g id="Grupo_163352" data-name="Grupo 163352" transform="translate(19.14 28.411)">
        <rect id="Rectángulo_48452" data-name="Rectángulo 48452" width="2.556" height="20.672" fill="#1ba0db"/>
        <rect id="Rectángulo_48453" data-name="Rectángulo 48453" width="3.575" height="20.672" transform="translate(2.037)" fill="#4cd7f8"/>
      </g>
      <g id="Grupo_163353" data-name="Grupo 163353" transform="translate(11.641 41.683)">
        <rect id="Rectángulo_48454" data-name="Rectángulo 48454" width="2.556" height="7.4" fill="#27c45b"/>
        <rect id="Rectángulo_48455" data-name="Rectángulo 48455" width="3.575" height="7.4" transform="translate(2.037)" fill="#5be88d"/>
      </g>
      <g id="Grupo_163354" data-name="Grupo 163354" transform="translate(34.373 16.044)">
        <rect id="Rectángulo_48456" data-name="Rectángulo 48456" width="2.556" height="33.039" fill="#505acc"/>
        <rect id="Rectángulo_48457" data-name="Rectángulo 48457" width="3.574" height="33.039" transform="translate(2.037)" fill="#7378e0"/>
      </g>
      <g id="Grupo_163355" data-name="Grupo 163355" transform="translate(42.807 19.11)">
        <rect id="Rectángulo_48458" data-name="Rectángulo 48458" width="2.556" height="29.974" fill="#1ba0db"/>
        <rect id="Rectángulo_48459" data-name="Rectángulo 48459" width="3.574" height="29.974" transform="translate(2.037)" fill="#4cd7f8"/>
      </g>
      <g id="Grupo_163356" data-name="Grupo 163356" transform="translate(5.029 49.084)">
        <rect id="Rectángulo_48460" data-name="Rectángulo 48460" width="42.206" height="2.667" fill="#081019"/>
        <rect id="Rectángulo_48461" data-name="Rectángulo 48461" width="43.918" height="2.667" transform="translate(3.703)" fill="#142535"/>
      </g>
      <g id="Grupo_163357" data-name="Grupo 163357">
        <path id="Trazado_219930" data-name="Trazado 219930" d="M378.89,131.667A13.053,13.053,0,0,0,368.543,118.9v-.282h-2.7a13.048,13.048,0,0,0-6.009,24.631h12.01A13.041,13.041,0,0,0,378.89,131.667Z" transform="translate(-352.791 -118.618)" fill="#505acc"/>
        <path id="Trazado_219931" data-name="Trazado 219931" d="M368.842,155.218l.093,0h2.609v-.279a12.949,12.949,0,0,0,3.3-1.186h-12.01A12.988,12.988,0,0,0,368.842,155.218Z" transform="translate(-355.793 -129.12)" fill="#27c45b"/>
        <path id="Trazado_219932" data-name="Trazado 219932" d="M377.962,141.964a13.047,13.047,0,1,0-14.02,1.285l6.01-11.582Z" transform="translate(-354.02 -118.618)" fill="#7378e0"/>
        <path id="Trazado_219933" data-name="Trazado 219933" d="M380.963,147.528l-8.011-10.3-6.01,11.582a13.036,13.036,0,0,0,14.02-1.285Z" transform="translate(-357.021 -124.182)" fill="#5be88d"/>
      </g>
      <g id="Grupo_163358" data-name="Grupo 163358" transform="translate(15.372 5.032)">
        <path id="Trazado_219934" data-name="Trazado 219934" d="M400.576,126.665v-.87H388.794v0l-12.27,12.27h-.568a1.24,1.24,0,0,0,0,2.48h.712v-.227a1.223,1.223,0,0,0,.395-1.561l12.1-12.1Z" transform="translate(-374.717 -125.795)" fill="#081019"/>
        <path id="Trazado_219935" data-name="Trazado 219935" d="M403.977,126.665v-.87H389.589v.015l-.015-.015-12.336,12.336a1.21,1.21,0,0,0-.368-.062,1.252,1.252,0,1,0,1.058.6l12.007-12.006Z" transform="translate(-374.99 -125.795)" fill="#142535"/>
      </g>
      <g id="Grupo_163359" data-name="Grupo 163359" transform="translate(29.99 1.745)">
        <rect id="Rectángulo_48462" data-name="Rectángulo 48462" width="12.29" height="1.305" fill="#27c45b"/>
        <rect id="Rectángulo_48463" data-name="Rectángulo 48463" width="12.29" height="1.305" transform="translate(2.079)" fill="#5be88d"/>
      </g>
    </g>
    <g id="Grupo_163365" data-name="Grupo 163365" transform="translate(195.695 127.496)">
      <g id="Grupo_163361" data-name="Grupo 163361">
        <path id="Trazado_219936" data-name="Trazado 219936" d="M312,194.7h-2.873a3.773,3.773,0,0,0-4.333-5.321,10.421,10.421,0,0,0-8.218-8.059v-.184h-2.013v0a10.4,10.4,0,0,0-9.405,6.228c-.119-.057-.244-.1-.368-.154v-.388h-2.166v.008a5.44,5.44,0,0,0-4.687,7.9,7.1,7.1,0,0,0-6.444,7.049h0a7.1,7.1,0,0,0,7.081,7.082H312a7.1,7.1,0,0,0,7.082-7.082h0A7.1,7.1,0,0,0,312,194.7Z" transform="translate(-271.493 -181.14)" fill="#1ba0db"/>
        <path id="Trazado_219937" data-name="Trazado 219937" d="M315.344,194.7H312.47a3.773,3.773,0,0,0-4.333-5.321,10.4,10.4,0,0,0-10.143-8.243h0a10.4,10.4,0,0,0-9.493,6.231,5.444,5.444,0,0,0-7.221,7.366,7.1,7.1,0,0,0-6.444,7.049h0a7.1,7.1,0,0,0,7.082,7.082h33.427a7.1,7.1,0,0,0,7.081-7.082h0A7.1,7.1,0,0,0,315.344,194.7Z" transform="translate(-272.492 -181.14)" fill="#4cd7f8"/>
      </g>
      <g id="Grupo_163364" data-name="Grupo 163364" transform="translate(16.709 8.668)">
        <g id="Grupo_163362" data-name="Grupo 163362" transform="translate(1.971)">
          <path id="Trazado_219938" data-name="Trazado 219938" d="M300.132,205.715v-5.98a4.237,4.237,0,0,1,8.473,0v5.98H310.6v-5.98a6.231,6.231,0,1,0-12.461,0v5.98Z" transform="translate(-298.138 -193.504)" fill="#ccc"/>
        </g>
        <g id="Grupo_163363" data-name="Grupo 163363" transform="translate(3.051)">
          <path id="Trazado_219939" data-name="Trazado 219939" d="M301.672,205.715v-5.98a4.237,4.237,0,0,1,8.474,0v5.98h1.994v-5.98a6.231,6.231,0,0,0-12.462,0v5.98Z" transform="translate(-299.678 -193.504)" fill="#fff"/>
        </g>
        <rect id="Rectángulo_48464" data-name="Rectángulo 48464" width="15.238" height="15.555" rx="2.515" transform="translate(0 12.084)" fill="#27c45b"/>
        <rect id="Rectángulo_48465" data-name="Rectángulo 48465" width="15.238" height="15.555" rx="2.515" transform="translate(2.246 12.084)" fill="#5be88d"/>
        <path id="Trazado_219940" data-name="Trazado 219940" d="M310.182,221.54a1.368,1.368,0,1,0-2.2,1.078l-.312,2.853h2.288l-.312-2.853A1.362,1.362,0,0,0,310.182,221.54Z" transform="translate(-298.949 -201.475)" fill="#081019"/>
      </g>
    </g>
    <g id="Grupo_163367" data-name="Grupo 163367" transform="translate(27.829 116.346)">
      <path id="Trazado_219941" data-name="Trazado 219941" d="M66.279,178.314c.082,0,.163-.012.247-.012a4.672,4.672,0,1,1,0,9.3c-.083,0-.165-.008-.247-.011Z" transform="translate(-42.285 -169.142)" fill="#3576c4"/>
      <g id="Grupo_163366" data-name="Grupo 163366" transform="translate(1.479 1.167)">
        <path id="Trazado_219942" data-name="Trazado 219942" d="M48.441,166.9h-4.1a10.206,10.206,0,0,0-10.176,10.176v17.779H54.517V177.076C54.517,172.5,48.441,166.9,48.441,166.9Z" transform="translate(-34.165 -166.9)" fill="#081019"/>
        <rect id="Rectángulo_48466" data-name="Rectángulo 48466" width="20.352" height="17.579" transform="translate(2.598 10.376)" fill="#142535"/>
        <path id="Trazado_219943" data-name="Trazado 219943" d="M37.871,181.7v1.9a10.207,10.207,0,0,0,6.85,9.6h-.058v6.722h8.3v-6.722h-1.59a10.207,10.207,0,0,0,6.85-9.6v-1.9Z" transform="translate(-35.273 -171.324)" fill="#ed8a40"/>
        <path id="Trazado_219944" data-name="Trazado 219944" d="M40.545,181.7v1.9a10.207,10.207,0,0,0,6.85,9.6h-.147v6.722h6.761V193.22A10.209,10.209,0,0,0,60.9,183.6v-1.9Z" transform="translate(-36.072 -171.324)" fill="#ffb680"/>
        <path id="Trazado_219945" data-name="Trazado 219945" d="M48.047,166.9a10.206,10.206,0,0,0-10.176,10.176v.2H58.223v-.2A10.206,10.206,0,0,0,48.047,166.9Z" transform="translate(-35.273 -166.9)" fill="#081019"/>
        <path id="Trazado_219946" data-name="Trazado 219946" d="M50.721,166.9a10.206,10.206,0,0,0-10.176,10.176v.2H60.9v-.2A10.206,10.206,0,0,0,50.721,166.9Z" transform="translate(-36.072 -166.9)" fill="#142535"/>
      </g>
      <path id="Trazado_219947" data-name="Trazado 219947" d="M47.641,165.236h-.625a12.062,12.062,0,0,0-11.785,9.506,4.675,4.675,0,0,0-3.177,4.306,4.893,4.893,0,0,0,5.1,4.652c.083,0,.165-.008.247-.011v-9.28c-.082,0-.163-.012-.247-.012-.164,0-.325.009-.486.022a10.742,10.742,0,0,1,10.343-7.865h.625A10.744,10.744,0,0,1,58.386,177.3v2.626a1.317,1.317,0,0,0,1.317-1.317V177.3A12.062,12.062,0,0,0,47.641,165.236Z" transform="translate(-32.055 -165.236)" fill="#3576c4"/>
      <path id="Trazado_219948" data-name="Trazado 219948" d="M66.086,190.139v.256a11.778,11.778,0,0,1-.259,3.353c-.25.718-.726,1.011-1.643,1.011H62.569a2.042,2.042,0,0,0-2.056-1.3,1.681,1.681,0,1,0,0,3.257,2.041,2.041,0,0,0,2.056-1.3h1.615a2.1,2.1,0,0,0,2.264-1.453,11.989,11.989,0,0,0,.3-3.569v-.255Z" transform="translate(-39.934 -172.68)" fill="#3576c4"/>
      <path id="Trazado_219949" data-name="Trazado 219949" d="M52.083,203.826H41.1c-3.817,0-6.944,3.355-7.049,7.5v4.668H59.133v-4.668C59.027,207.181,55.9,203.826,52.083,203.826Z" transform="translate(-32.652 -176.771)" fill="#505acc"/>
      <path id="Trazado_219950" data-name="Trazado 219950" d="M55.162,203.826H44.179c-3.816,0-6.944,3.355-7.049,7.5v4.668H62.211v-4.668C62.105,207.181,58.979,203.826,55.162,203.826Z" transform="translate(-33.572 -176.771)" fill="#7378e0"/>
    </g>
    <g id="Grupo_163379" data-name="Grupo 163379" transform="translate(219.527 22.14)">
      <g id="Grupo_163371" data-name="Grupo 163371" transform="translate(17.877)">
        <g id="Grupo_163368" data-name="Grupo 163368">
          <path id="Trazado_219951" data-name="Trazado 219951" d="M366.683,57V32.6a1.744,1.744,0,0,0-1.739-1.739h-32.22a1.744,1.744,0,0,0-1.739,1.739V57Z" transform="translate(-330.985 -30.865)" fill="#081019"/>
          <path id="Trazado_219952" data-name="Trazado 219952" d="M369.948,57V32.6a1.744,1.744,0,0,0-1.739-1.739h-32.22A1.744,1.744,0,0,0,334.25,32.6V57Z" transform="translate(-331.961 -30.865)" fill="#142535"/>
          <rect id="Rectángulo_48467" data-name="Rectángulo 48467" width="33.926" height="2.688" transform="translate(0 26.13)" fill="#666"/>
          <rect id="Rectángulo_48468" data-name="Rectángulo 48468" width="33.926" height="2.688" transform="translate(11.728 26.13)" fill="#1f4660"/>
          <rect id="Rectángulo_48469" data-name="Rectángulo 48469" width="3.408" height="1.898" transform="translate(6.533 24.233)" fill="#777"/>
          <rect id="Rectángulo_48470" data-name="Rectángulo 48470" width="3.408" height="1.898" transform="translate(31.282 24.233)" fill="#1f4660"/>
        </g>
        <g id="Grupo_163369" data-name="Grupo 163369" transform="translate(4.667 2.558)">
          <rect id="Rectángulo_48471" data-name="Rectángulo 48471" width="31.031" height="19.536" fill="#fff"/>
        </g>
        <g id="Grupo_163370" data-name="Grupo 163370" transform="translate(12.664 7.357)">
          <path id="Trazado_219953" data-name="Trazado 219953" d="M353.977,41.359h-4a.935.935,0,0,0-.933.932v9.55a.936.936,0,0,0,.933.933h4Z" transform="translate(-349.048 -41.359)" fill="#27c45b"/>
          <path id="Trazado_219954" data-name="Trazado 219954" d="M364.68,43.328h-6.2V42.291a.935.935,0,0,0-.933-.932h-5.38a.935.935,0,0,0-.933.932v9.55a.936.936,0,0,0,.933.933H364.68a1.052,1.052,0,0,0,1.049-1.05V44.378A1.052,1.052,0,0,0,364.68,43.328Z" transform="translate(-349.702 -41.359)" fill="#5be88d"/>
        </g>
        <rect id="Rectángulo_48472" data-name="Rectángulo 48472" width="28.157" height="1.391" transform="translate(6.533 3.947)" fill="#5be88d"/>
      </g>
      <g id="Grupo_163375" data-name="Grupo 163375" transform="translate(5.377 15.5)">
        <g id="Grupo_163372" data-name="Grupo 163372">
          <path id="Trazado_219955" data-name="Trazado 219955" d="M348.853,79.1V54.713a1.744,1.744,0,0,0-1.739-1.739H314.894a1.744,1.744,0,0,0-1.739,1.739V79.1Z" transform="translate(-313.155 -52.974)" fill="#081019"/>
          <path id="Trazado_219956" data-name="Trazado 219956" d="M352.118,79.1V54.713a1.744,1.744,0,0,0-1.739-1.739H318.159a1.744,1.744,0,0,0-1.739,1.739V79.1Z" transform="translate(-314.131 -52.974)" fill="#142535"/>
          <rect id="Rectángulo_48473" data-name="Rectángulo 48473" width="33.926" height="2.688" transform="translate(0 26.13)" fill="#142535"/>
          <rect id="Rectángulo_48474" data-name="Rectángulo 48474" width="33.926" height="2.688" transform="translate(11.728 26.13)" fill="#1f4660"/>
          <rect id="Rectángulo_48475" data-name="Rectángulo 48475" width="3.408" height="1.898" transform="translate(6.533 24.233)" fill="#1f4660"/>
          <rect id="Rectángulo_48476" data-name="Rectángulo 48476" width="3.408" height="1.898" transform="translate(31.282 24.233)" fill="#1f4660"/>
        </g>
        <g id="Grupo_163373" data-name="Grupo 163373" transform="translate(4.667 2.558)">
          <rect id="Rectángulo_48477" data-name="Rectángulo 48477" width="31.031" height="19.536" fill="#fff"/>
        </g>
        <rect id="Rectángulo_48478" data-name="Rectángulo 48478" width="28.157" height="1.391" transform="translate(6.104 3.753)" fill="#4cd7f8"/>
        <g id="Grupo_163374" data-name="Grupo 163374" transform="translate(12.724 8.122)">
          <path id="Trazado_219957" data-name="Trazado 219957" d="M336.233,64.559h-4a.936.936,0,0,0-.933.933v9.55a.936.936,0,0,0,.933.933h4Z" transform="translate(-331.304 -64.559)" fill="#1ba0db"/>
          <path id="Trazado_219958" data-name="Trazado 219958" d="M346.936,66.529h-6.2V65.492a.936.936,0,0,0-.933-.933h-5.38a.936.936,0,0,0-.933.933v9.55a.936.936,0,0,0,.933.933h12.509a1.053,1.053,0,0,0,1.05-1.05V67.579A1.053,1.053,0,0,0,346.936,66.529Z" transform="translate(-331.958 -64.559)" fill="#4cd7f8"/>
        </g>
      </g>
      <g id="Grupo_163376" data-name="Grupo 163376" transform="translate(47.891 6.875)">
        <path id="Trazado_219959" data-name="Trazado 219959" d="M373.8,44.9l7.017,4.233V40.671Z" transform="translate(-373.796 -40.671)" fill="#27c45b"/>
        <rect id="Rectángulo_48479" data-name="Rectángulo 48479" width="2.017" height="8.466" transform="translate(7.017)" fill="#27c45b"/>
        <path id="Trazado_219960" data-name="Trazado 219960" d="M376.672,44.9l7.017,4.233V40.671Z" transform="translate(-374.655 -40.671)" fill="#5be88d"/>
        <rect id="Rectángulo_48480" data-name="Rectángulo 48480" width="8.928" height="3.131" transform="translate(9.034 2.668)" fill="#5be88d"/>
      </g>
      <g id="Grupo_163378" data-name="Grupo 163378" transform="translate(0 25.461)">
        <rect id="Rectángulo_48481" data-name="Rectángulo 48481" width="1.694" height="8.466" transform="translate(8.929)" fill="#1ba0db"/>
        <rect id="Rectángulo_48482" data-name="Rectángulo 48482" width="1.694" height="3.155" transform="translate(0 2.643)" fill="#1ba0db"/>
        <g id="Grupo_163377" data-name="Grupo 163377" transform="translate(1.694)">
          <path id="Trazado_219961" data-name="Trazado 219961" d="M327.654,71.414l-7.017,4.233V67.181Z" transform="translate(-311.708 -67.181)" fill="#4cd7f8"/>
          <rect id="Rectángulo_48483" data-name="Rectángulo 48483" width="8.929" height="3.131" transform="translate(0 2.668)" fill="#4cd7f8"/>
        </g>
      </g>
    </g>
    <g id="Grupo_163383" data-name="Grupo 163383" transform="translate(40.614 166.447)">
      <g id="Grupo_163380" data-name="Grupo 163380">
        <path id="Trazado_219962" data-name="Trazado 219962" d="M91.18,250.39h-2.9a3.81,3.81,0,0,0-4.374-5.37,10.521,10.521,0,0,0-8.3-8.135l.881-.186H73.577v0a10.494,10.494,0,0,0-9.493,6.286c-.121-.058-.247-.105-.372-.155l.63-.391H61.527v.008a5.491,5.491,0,0,0-4.732,7.973,7.17,7.17,0,0,0-6.5,7.115h0a7.169,7.169,0,0,0,7.148,7.148H91.18a7.169,7.169,0,0,0,7.148-7.148h0A7.169,7.169,0,0,0,91.18,250.39Z" transform="translate(-50.291 -236.699)" fill="#1ba0db"/>
        <path id="Trazado_219963" data-name="Trazado 219963" d="M95.065,250.39h-2.9a3.81,3.81,0,0,0-4.374-5.37A10.5,10.5,0,0,0,77.553,236.7h0a10.5,10.5,0,0,0-9.583,6.289,5.5,5.5,0,0,0-7.289,7.435,7.17,7.17,0,0,0-6.5,7.115h0a7.169,7.169,0,0,0,7.148,7.148h33.74a7.168,7.168,0,0,0,7.148-7.148h0A7.168,7.168,0,0,0,95.065,250.39Z" transform="translate(-51.452 -236.699)" fill="#4cd7f8"/>
      </g>
      <g id="Grupo_163381" data-name="Grupo 163381" transform="translate(13.61 17.987)">
        <path id="Trazado_219964" data-name="Trazado 219964" d="M76.584,266.52v-4.165H74.071L69.7,269.6h8.736Z" transform="translate(-69.703 -262.355)" fill="#ed8a40"/>
        <rect id="Rectángulo_48484" data-name="Rectángulo 48484" width="2.154" height="9.213" transform="translate(3.112 7.24)" fill="#ed8a40"/>
        <path id="Trazado_219965" data-name="Trazado 219965" d="M77.655,262.355l-4.368,7.24H76.04v9.213h3.23V269.6h2.753Z" transform="translate(-70.775 -262.355)" fill="#ffb680"/>
      </g>
      <g id="Grupo_163382" data-name="Grupo 163382" transform="translate(24.903 12.352)">
        <path id="Trazado_219966" data-name="Trazado 219966" d="M92.692,258.482v-4.165H90.18l-4.368,7.241h8.736Z" transform="translate(-85.812 -254.317)" fill="#ed8a40"/>
        <rect id="Rectángulo_48485" data-name="Rectángulo 48485" width="2.154" height="14.848" transform="translate(3.112 7.241)" fill="#ed8a40"/>
        <path id="Trazado_219967" data-name="Trazado 219967" d="M93.764,254.317,89.4,261.558h2.753v14.848h3.23V261.558h2.753Z" transform="translate(-86.883 -254.317)" fill="#ffb680"/>
      </g>
    </g>
    <g id="Grupo_163396" data-name="Grupo 163396" transform="translate(101.431 33.177)">
      <g id="Grupo_163392" data-name="Grupo 163392">
        <g id="Grupo_163388" data-name="Grupo 163388">
          <g id="Grupo_163384" data-name="Grupo 163384">
            <path id="Trazado_219968" data-name="Trazado 219968" d="M164.338,46.608H139.582a2.543,2.543,0,0,0-2.544,2.544V85.269a2.543,2.543,0,0,0,2.544,2.544h24.757a2.543,2.543,0,0,0,2.544-2.544V49.152A2.543,2.543,0,0,0,164.338,46.608Z" transform="translate(-137.038 -46.608)" fill="#081019"/>
          </g>
          <g id="Grupo_163385" data-name="Grupo 163385" transform="translate(2.211)">
            <path id="Trazado_219969" data-name="Trazado 219969" d="M167.491,46.608H142.735a2.544,2.544,0,0,0-2.544,2.544V85.269a2.544,2.544,0,0,0,2.544,2.544h24.757a2.543,2.543,0,0,0,2.544-2.544V49.152A2.543,2.543,0,0,0,167.491,46.608Z" transform="translate(-140.191 -46.608)" fill="#142535"/>
          </g>
          <g id="Grupo_163386" data-name="Grupo 163386" transform="translate(14.683 38.183)">
            <path id="Trazado_219970" data-name="Trazado 219970" d="M162.881,101.724a.653.653,0,0,1-.653.653h-3.593a.653.653,0,0,1-.653-.653h0a.654.654,0,0,1,.653-.653h3.593a.654.654,0,0,1,.653.653Z" transform="translate(-157.981 -101.071)" fill="#fff"/>
          </g>
          <g id="Grupo_163387" data-name="Grupo 163387" transform="translate(16.463 0.907)">
            <path id="Trazado_219971" data-name="Trazado 219971" d="M161.86,48.571a.67.67,0,1,1-.67-.67A.67.67,0,0,1,161.86,48.571Z" transform="translate(-160.52 -47.901)" fill="#fff"/>
          </g>
        </g>
        <g id="Grupo_163391" data-name="Grupo 163391" transform="translate(4.802 3.185)">
          <g id="Grupo_163389" data-name="Grupo 163389">
            <rect id="Rectángulo_48486" data-name="Rectángulo 48486" width="24.661" height="33.507" fill="#fff"/>
          </g>
          <g id="Grupo_163390" data-name="Grupo 163390" transform="translate(1.078 1.239)">
            <rect id="Rectángulo_48487" data-name="Rectángulo 48487" width="22.505" height="1.436" fill="#5be88d"/>
          </g>
          <rect id="Rectángulo_48488" data-name="Rectángulo 48488" width="2.122" height="7.658" transform="translate(2.307 23.403)" fill="#7378e0"/>
          <rect id="Rectángulo_48489" data-name="Rectángulo 48489" width="2.122" height="22.019" transform="translate(19.351 9.202)" fill="#7378e0"/>
          <rect id="Rectángulo_48490" data-name="Rectángulo 48490" width="2.122" height="24.033" transform="translate(10.6 7.028)" fill="#5be88d"/>
          <rect id="Rectángulo_48491" data-name="Rectángulo 48491" width="2.122" height="15.315" transform="translate(6.361 15.745)" fill="#4cd7f8"/>
          <rect id="Rectángulo_48492" data-name="Rectángulo 48492" width="2.122" height="12.299" transform="translate(14.749 18.761)" fill="#4cd7f8"/>
          <rect id="Rectángulo_48493" data-name="Rectángulo 48493" width="22.505" height="1.374" transform="translate(1.078 31.06)" fill="#081019"/>
        </g>
      </g>
      <g id="Grupo_163395" data-name="Grupo 163395" transform="translate(22.966 20.587)">
        <g id="Grupo_163393" data-name="Grupo 163393" transform="translate(1.971)">
          <path id="Trazado_219972" data-name="Trazado 219972" d="M174.6,88.184V82.2a4.237,4.237,0,0,1,8.473,0v5.98h1.994V82.2a6.231,6.231,0,0,0-12.461,0v5.98Z" transform="translate(-172.607 -75.973)" fill="#ccc"/>
        </g>
        <g id="Grupo_163394" data-name="Grupo 163394" transform="translate(3.051)">
          <path id="Trazado_219973" data-name="Trazado 219973" d="M176.141,88.184V82.2a4.237,4.237,0,0,1,8.474,0v5.98h1.994V82.2a6.231,6.231,0,0,0-12.462,0v5.98Z" transform="translate(-174.147 -75.973)" fill="#fff"/>
        </g>
        <rect id="Rectángulo_48494" data-name="Rectángulo 48494" width="15.238" height="15.555" rx="2.515" transform="translate(0 12.084)" fill="#27c45b"/>
        <rect id="Rectángulo_48495" data-name="Rectángulo 48495" width="15.238" height="15.555" rx="2.515" transform="translate(2.246 12.084)" fill="#5be88d"/>
        <path id="Trazado_219974" data-name="Trazado 219974" d="M184.651,104.009a1.368,1.368,0,1,0-2.2,1.078l-.312,2.853h2.288l-.312-2.853A1.362,1.362,0,0,0,184.651,104.009Z" transform="translate(-173.418 -83.945)" fill="#081019"/>
      </g>
    </g>
    <g id="Grupo_163400" data-name="Grupo 163400" transform="translate(21.419 70.3)">
      <g id="Grupo_163397" data-name="Grupo 163397">
        <rect id="Rectángulo_48496" data-name="Rectángulo 48496" width="14.198" height="14.333" transform="translate(3.786)" fill="#ccc"/>
        <rect id="Rectángulo_48497" data-name="Rectángulo 48497" width="14.992" height="14.333" transform="translate(6.091)" fill="#fff"/>
        <path id="Trazado_219975" data-name="Trazado 219975" d="M30.483,111.5H24.345a1.438,1.438,0,0,0-1.434,1.433V127.6a1.438,1.438,0,0,0,1.434,1.434h6.138Z" transform="translate(-22.911 -103.127)" fill="#27c45b"/>
        <path id="Trazado_219976" data-name="Trazado 219976" d="M46.924,114.525H37.405v-1.593a1.437,1.437,0,0,0-1.433-1.433H27.708a1.438,1.438,0,0,0-1.434,1.433V127.6a1.438,1.438,0,0,0,1.434,1.434H46.924a1.617,1.617,0,0,0,1.612-1.612V116.137A1.617,1.617,0,0,0,46.924,114.525Z" transform="translate(-23.916 -103.127)" fill="#5be88d"/>
        <rect id="Rectángulo_48498" data-name="Rectángulo 48498" width="12.421" height="1.105" transform="translate(7.53 1.654)" fill="#27c45b"/>
      </g>
      <g id="Grupo_163398" data-name="Grupo 163398" transform="translate(31.087)">
        <rect id="Rectángulo_48499" data-name="Rectángulo 48499" width="14.198" height="14.333" transform="translate(3.786)" fill="#ccc"/>
        <rect id="Rectángulo_48500" data-name="Rectángulo 48500" width="14.992" height="14.333" transform="translate(6.091)" fill="#fff"/>
        <path id="Trazado_219977" data-name="Trazado 219977" d="M74.824,111.5H68.686a1.438,1.438,0,0,0-1.434,1.433V127.6a1.438,1.438,0,0,0,1.434,1.434h6.138Z" transform="translate(-67.252 -103.127)" fill="#1ba0db"/>
        <path id="Trazado_219978" data-name="Trazado 219978" d="M91.265,114.525H81.746v-1.593a1.437,1.437,0,0,0-1.433-1.433H72.049a1.438,1.438,0,0,0-1.434,1.433V127.6a1.438,1.438,0,0,0,1.434,1.434H91.265a1.617,1.617,0,0,0,1.612-1.612V116.137A1.617,1.617,0,0,0,91.265,114.525Z" transform="translate(-68.257 -103.127)" fill="#4cd7f8"/>
        <rect id="Rectángulo_48501" data-name="Rectángulo 48501" width="12.421" height="1.105" transform="translate(7.53 1.654)" fill="#1ba0db"/>
      </g>
      <g id="Grupo_163399" data-name="Grupo 163399" transform="translate(13.652 27.831)">
        <rect id="Rectángulo_48502" data-name="Rectángulo 48502" width="1.637" height="4.848" transform="translate(14.705 6.361)" fill="#081019"/>
        <path id="Trazado_219979" data-name="Trazado 219979" d="M44.021,145.013v-5.758H42.383v6.964H71.406v-1.206Z" transform="translate(-42.383 -139.255)" fill="#081019"/>
        <rect id="Rectángulo_48503" data-name="Rectángulo 48503" width="1.637" height="5.758" transform="translate(28.468 0)" fill="#081019"/>
        <path id="Trazado_219980" data-name="Trazado 219980" d="M72.4,139.255v5.758H45.036v-5.758H43.929v6.964h14.44v4.246H59.66v-4.246H73.5v-6.964Z" transform="translate(-42.845 -139.255)" fill="#142535"/>
      </g>
    </g>
    <g id="Grupo_163407" data-name="Grupo 163407" transform="translate(157.104 68.375)">
      <g id="Grupo_163403" data-name="Grupo 163403">
        <g id="Grupo_163401" data-name="Grupo 163401">
          <path id="Trazado_219981" data-name="Trazado 219981" d="M221.863,96.812H218.54a2.1,2.1,0,0,0-2.093,2.093v2.042h5.416Z" transform="translate(-216.447 -96.812)" fill="#27c45b"/>
          <path id="Trazado_219982" data-name="Trazado 219982" d="M221.863,102.71h-5.416v19.431a2.1,2.1,0,0,0,2.093,2.093h3.322Z" transform="translate(-216.447 -98.575)" fill="#505acc"/>
        </g>
        <g id="Grupo_163402" data-name="Grupo 163402" transform="translate(2.466)">
          <path id="Trazado_219983" data-name="Trazado 219983" d="M251.287,98.905a2.1,2.1,0,0,0-2.093-2.093H222.058a2.1,2.1,0,0,0-2.093,2.093v2.042h31.322Z" transform="translate(-219.965 -96.812)" fill="#5be88d"/>
          <path id="Trazado_219984" data-name="Trazado 219984" d="M222.058,124.235h27.135a2.1,2.1,0,0,0,2.093-2.093V102.71H219.965v19.431A2.1,2.1,0,0,0,222.058,124.235Z" transform="translate(-219.965 -98.575)" fill="#7378e0"/>
        </g>
        <path id="Trazado_219985" data-name="Trazado 219985" d="M252.781,99.119a.785.785,0,1,1-.785-.785A.786.786,0,0,1,252.781,99.119Z" transform="translate(-226.839 -97.267)" fill="#fff"/>
        <circle id="Elipse_8777" data-name="Elipse 8777" cx="0.785" cy="0.785" r="0.785" transform="translate(27.455 1.067)" fill="#fff"/>
        <circle id="Elipse_8778" data-name="Elipse 8778" cx="0.785" cy="0.785" r="0.785" transform="translate(30.537 1.067)" fill="#fff"/>
      </g>
      <g id="Grupo_163405" data-name="Grupo 163405" transform="translate(8.309 5.721)">
        <path id="Trazado_219986" data-name="Trazado 219986" d="M239.268,107.047a.745.745,0,0,0-1.276,0l-7.867,13.031a.745.745,0,0,0,.638,1.13H246.5a.745.745,0,0,0,.638-1.13Z" transform="translate(-228.813 -105.485)" fill="#fff"/>
        <g id="Grupo_163404" data-name="Grupo 163404">
          <path id="Trazado_219987" data-name="Trazado 219987" d="M239.783,105.914a1.946,1.946,0,0,0-3.334,0l-7.867,13.031a1.948,1.948,0,0,0,1.667,2.954h15.733a1.948,1.948,0,0,0,1.667-2.954Zm6.849,14.4a.737.737,0,0,1-.649.379H230.25a.745.745,0,0,1-.638-1.13l7.867-13.031a.745.745,0,0,1,1.276,0l7.866,13.031A.737.737,0,0,1,246.632,120.317Z" transform="translate(-228.299 -104.972)" fill="#505acc"/>
        </g>
        <path id="Trazado_219988" data-name="Trazado 219988" d="M241.65,112.259h-1.2l.4,6.471h1.582l.4-6.471Z" transform="translate(-231.93 -107.15)" fill="#505acc"/>
        <path id="Trazado_219989" data-name="Trazado 219989" d="M242.761,124.279a1.082,1.082,0,1,1-1.082-1.082A1.083,1.083,0,0,1,242.761,124.279Z" transform="translate(-231.975 -110.42)" fill="#505acc"/>
      </g>
      <g id="Grupo_163406" data-name="Grupo 163406" transform="translate(18.58 14.704)">
        <path id="Trazado_219990" data-name="Trazado 219990" d="M260.866,127.13H252.24v-7.8a1.528,1.528,0,0,0-.306-.913H252v-.636h-1.372v.006a1.551,1.551,0,0,0-1.489,1.543v14.81a17.947,17.947,0,0,0-2.924-2.867,4.851,4.851,0,0,0-.748-.442V130.5h-1.453v.008c-.876.048-1.342.625-.9,1.324.743,1.174,4.722,6.33,6.259,8.313.01,0,.018,0,.027.006a1.181,1.181,0,0,0,.925.454h10.537a1.191,1.191,0,0,0,1.187-1.187V128.316A1.19,1.19,0,0,0,260.866,127.13Z" transform="translate(-242.948 -117.785)" fill="#ed8a40"/>
        <path id="Trazado_219991" data-name="Trazado 219991" d="M262.734,127.13h-8.625v-7.8a1.553,1.553,0,0,0-1.549-1.549h0a1.553,1.553,0,0,0-1.549,1.549v14.81a17.977,17.977,0,0,0-2.925-2.867c-2.036-1.454-3.843-.613-3.1.561s4.722,6.33,6.259,8.313c.01,0,.018,0,.027.006a1.181,1.181,0,0,0,.925.454h10.537a1.191,1.191,0,0,0,1.187-1.187V128.316A1.19,1.19,0,0,0,262.734,127.13Z" transform="translate(-243.507 -117.785)" fill="#ffb680"/>
        <path id="Trazado_219992" data-name="Trazado 219992" d="M256.536,121v-1.181a.991.991,0,0,0-1.981,0V121Z" transform="translate(-246.418 -118.096)" fill="#fff"/>
      </g>
    </g>
    <g id="Grupo_163410" data-name="Grupo 163410" transform="translate(211.412 79.63)">
      <g id="Grupo_163408" data-name="Grupo 163408">
        <rect id="Rectángulo_48504" data-name="Rectángulo 48504" width="16.334" height="16.488" transform="translate(4.355)" fill="#ccc"/>
        <rect id="Rectángulo_48505" data-name="Rectángulo 48505" width="17.246" height="16.488" transform="translate(7.007)" fill="#fff"/>
        <path id="Trazado_219993" data-name="Trazado 219993" d="M302.62,126.6h-7.061a1.654,1.654,0,0,0-1.649,1.648v16.876a1.654,1.654,0,0,0,1.649,1.648h7.061Z" transform="translate(-293.91 -116.973)" fill="#505acc"/>
        <path id="Trazado_219994" data-name="Trazado 219994" d="M321.534,130.084h-10.95v-1.832a1.653,1.653,0,0,0-1.648-1.648h-9.507a1.654,1.654,0,0,0-1.649,1.648v16.876a1.654,1.654,0,0,0,1.649,1.648h22.106a1.86,1.86,0,0,0,1.855-1.854V131.939A1.861,1.861,0,0,0,321.534,130.084Z" transform="translate(-295.066 -116.973)" fill="#7378e0"/>
        <rect id="Rectángulo_48506" data-name="Rectángulo 48506" width="14.289" height="1.271" transform="translate(8.663 1.903)" fill="#081019"/>
      </g>
      <g id="Grupo_163409" data-name="Grupo 163409" transform="translate(12.047 18.272)">
        <path id="Trazado_219995" data-name="Trazado 219995" d="M329.01,148.274h-8.625v-7.8a1.533,1.533,0,0,0-.306-.913h.069v-.636h-1.372v.006a1.55,1.55,0,0,0-1.489,1.542v14.81a18,18,0,0,0-2.924-2.867,4.82,4.82,0,0,0-.749-.442v-.329h-1.452v.007c-.876.048-1.342.625-.9,1.324.744,1.174,4.723,6.33,6.259,8.313.01,0,.018,0,.027.007a1.184,1.184,0,0,0,.925.454H329.01a1.191,1.191,0,0,0,1.187-1.187V149.461A1.191,1.191,0,0,0,329.01,148.274Z" transform="translate(-311.093 -138.929)" fill="#ed8a40"/>
        <path id="Trazado_219996" data-name="Trazado 219996" d="M330.879,148.274h-8.625v-7.8a1.553,1.553,0,0,0-1.549-1.549h0a1.554,1.554,0,0,0-1.549,1.549v14.81a18,18,0,0,0-2.924-2.867c-2.037-1.454-3.843-.613-3.1.561s4.722,6.33,6.259,8.313l.027.007a1.182,1.182,0,0,0,.925.454h10.536a1.19,1.19,0,0,0,1.187-1.187V149.461A1.19,1.19,0,0,0,330.879,148.274Z" transform="translate(-311.651 -138.929)" fill="#ffb680"/>
        <path id="Trazado_219997" data-name="Trazado 219997" d="M324.681,142.142v-1.181a.991.991,0,1,0-1.981,0v1.181Z" transform="translate(-314.563 -139.24)" fill="#fff"/>
      </g>
    </g>
    <g id="Grupo_163418" data-name="Grupo 163418" transform="translate(153.007 114.636)">
      <g id="Grupo_163415" data-name="Grupo 163415">
        <g id="Grupo_163412" data-name="Grupo 163412">
          <g id="Grupo_163411" data-name="Grupo 163411">
            <rect id="Rectángulo_48507" data-name="Rectángulo 48507" width="21.925" height="37.959" rx="4.668" fill="#081019"/>
            <path id="Rectángulo_48508" data-name="Rectángulo 48508" d="M4.668,0h12.59a4.668,4.668,0,0,1,4.668,4.668V33.292a4.668,4.668,0,0,1-4.668,4.668H4.667A4.667,4.667,0,0,1,0,33.292V4.668A4.668,4.668,0,0,1,4.668,0Z" transform="translate(1.895)" fill="#142535"/>
            <path id="Trazado_219998" data-name="Trazado 219998" d="M231.177,212.166a.868.868,0,0,1-.868.867h-4.164a.867.867,0,0,1-.867-.867h0a.868.868,0,0,1,.867-.868h4.164a.868.868,0,0,1,.868.868Z" transform="translate(-214.991 -177.295)" fill="#fff"/>
            <path id="Trazado_219999" data-name="Trazado 219999" d="M230.193,165.673a.8.8,0,1,1-.8-.8A.8.8,0,0,1,230.193,165.673Z" transform="translate(-215.98 -163.417)" fill="#fff"/>
          </g>
          <path id="Trazado_220000" data-name="Trazado 220000" d="M215.875,169.231V197.1h18.389V169.231Z" transform="translate(-212.18 -164.721)" fill="#fff"/>
        </g>
        <rect id="Rectángulo_48509" data-name="Rectángulo 48509" width="15.806" height="16.544" transform="translate(5.132 9.112)" fill="#c1aaf8"/>
        <rect id="Rectángulo_48510" data-name="Rectángulo 48510" width="15.806" height="1.67" transform="translate(5.132 5.804)" fill="#c1aaf8"/>
        <path id="Trazado_220001" data-name="Trazado 220001" d="M230.24,205.063h-4.1a1.5,1.5,0,0,1-1.5-1.5h0a1.5,1.5,0,0,1,1.5-1.5h4.1a1.5,1.5,0,0,1,1.5,1.5h0A1.5,1.5,0,0,1,230.24,205.063Z" transform="translate(-214.8 -174.537)" fill="#c1aaf8"/>
        <g id="Grupo_163414" data-name="Grupo 163414" transform="translate(7.075 11.199)">
          <rect id="Rectángulo_48511" data-name="Rectángulo 48511" width="8.813" height="5.743" transform="translate(1.582 4.493)" fill="#142535"/>
          <rect id="Rectángulo_48512" data-name="Rectángulo 48512" width="4.171" height="2.942" transform="translate(3.904 9.195)" fill="#fff"/>
          <g id="Grupo_163413" data-name="Grupo 163413" transform="translate(1.582)">
            <path id="Trazado_220002" data-name="Trazado 220002" d="M222.952,186a4.407,4.407,0,0,0,8.813,0v-.824h-8.813Z" transform="translate(-222.952 -180.687)" fill="#fff"/>
            <path id="Trazado_220003" data-name="Trazado 220003" d="M227.359,178.771a4.42,4.42,0,0,0-4.407,4.406v.087h8.813v-.087A4.42,4.42,0,0,0,227.359,178.771Z" transform="translate(-222.952 -178.771)" fill="#142535"/>
          </g>
          <path id="Trazado_220004" data-name="Trazado 220004" d="M232.56,198.008a3.347,3.347,0,0,0-3.335-3.247h-5.194a3.348,3.348,0,0,0-3.335,3.247Z" transform="translate(-220.696 -183.551)" fill="#142535"/>
        </g>
      </g>
      <g id="Grupo_163417" data-name="Grupo 163417" transform="translate(19.882 7.281)">
        <g id="Grupo_163416" data-name="Grupo 163416">
          <path id="Trazado_220005" data-name="Trazado 220005" d="M261.6,173.183h-18a1.675,1.675,0,0,0-1.67,1.67v4.385l-2.969,4.357H240.4l.825-1.05,2.378-1.1H261.6a1.675,1.675,0,0,0,1.67-1.67v-4.919A1.675,1.675,0,0,0,261.6,173.183Z" transform="translate(-238.964 -173.183)" fill="#27c45b"/>
          <path id="Trazado_220006" data-name="Trazado 220006" d="M263.652,173.183h-18a1.675,1.675,0,0,0-1.67,1.67v4.382l-2.971,4.36,4.641-2.152h18a1.675,1.675,0,0,0,1.67-1.67v-4.919A1.675,1.675,0,0,0,263.652,173.183Z" transform="translate(-239.577 -173.183)" fill="#5be88d"/>
        </g>
        <rect id="Rectángulo_48513" data-name="Rectángulo 48513" width="17.393" height="0.898" transform="translate(6.494 1.516)" fill="#fff"/>
        <rect id="Rectángulo_48514" data-name="Rectángulo 48514" width="17.393" height="0.898" transform="translate(6.494 3.595)" fill="#fff"/>
        <rect id="Rectángulo_48515" data-name="Rectángulo 48515" width="17.393" height="0.898" transform="translate(6.494 5.674)" fill="#fff"/>
      </g>
    </g>
    <g id="Grupo_163432" data-name="Grupo 163432" transform="translate(38.852 16.23)">
      <g id="Grupo_163428" data-name="Grupo 163428">
        <g id="Grupo_163421" data-name="Grupo 163421">
          <g id="Grupo_163419" data-name="Grupo 163419">
            <path id="Trazado_220007" data-name="Trazado 220007" d="M52.1,22.434h-2.65a1.675,1.675,0,0,0-1.67,1.669v1.629H52.1Z" transform="translate(-47.778 -22.434)" fill="#ed8a40"/>
            <path id="Trazado_220008" data-name="Trazado 220008" d="M52.1,27.138h-4.32v15.5a1.675,1.675,0,0,0,1.67,1.67H52.1Z" transform="translate(-47.778 -23.84)" fill="#505acc"/>
          </g>
          <g id="Grupo_163420" data-name="Grupo 163420" transform="translate(1.967)">
            <path id="Trazado_220009" data-name="Trazado 220009" d="M75.567,24.1a1.675,1.675,0,0,0-1.67-1.669H52.254a1.675,1.675,0,0,0-1.67,1.669v1.629H75.567Z" transform="translate(-50.584 -22.434)" fill="#ffb680"/>
            <path id="Trazado_220010" data-name="Trazado 220010" d="M52.254,44.307H73.9a1.675,1.675,0,0,0,1.67-1.67v-15.5H50.584v15.5A1.675,1.675,0,0,0,52.254,44.307Z" transform="translate(-50.584 -23.84)" fill="#7378e0"/>
          </g>
          <path id="Trazado_220011" data-name="Trazado 220011" d="M76.76,24.274a.626.626,0,1,1-.627-.626A.626.626,0,0,1,76.76,24.274Z" transform="translate(-56.067 -22.797)" fill="#fff"/>
          <path id="Trazado_220012" data-name="Trazado 220012" d="M80.266,24.274a.626.626,0,1,1-.626-.626A.626.626,0,0,1,80.266,24.274Z" transform="translate(-57.115 -22.797)" fill="#fff"/>
          <circle id="Elipse_8779" data-name="Elipse 8779" cx="0.626" cy="0.626" r="0.626" transform="translate(24.357 0.851)" fill="#fff"/>
        </g>
        <g id="Grupo_163424" data-name="Grupo 163424" transform="translate(9.918 5.387)">
          <g id="Grupo_163422" data-name="Grupo 163422">
            <path id="Trazado_220013" data-name="Trazado 220013" d="M66.245,30.118h-2.65a1.675,1.675,0,0,0-1.67,1.67v1.629h4.32Z" transform="translate(-61.925 -30.118)" fill="#ed8a40"/>
            <path id="Trazado_220014" data-name="Trazado 220014" d="M66.245,34.823h-4.32v15.5a1.675,1.675,0,0,0,1.67,1.67h2.65Z" transform="translate(-61.925 -31.524)" fill="#1ba0db"/>
          </g>
          <g id="Grupo_163423" data-name="Grupo 163423" transform="translate(1.967)">
            <path id="Trazado_220015" data-name="Trazado 220015" d="M89.714,31.788a1.675,1.675,0,0,0-1.67-1.67H66.4a1.675,1.675,0,0,0-1.67,1.67v1.629H89.714Z" transform="translate(-64.731 -30.118)" fill="#ffb680"/>
            <path id="Trazado_220016" data-name="Trazado 220016" d="M66.4,51.992H88.044a1.675,1.675,0,0,0,1.67-1.67v-15.5H64.731v15.5A1.675,1.675,0,0,0,66.4,51.992Z" transform="translate(-64.731 -31.524)" fill="#4cd7f8"/>
          </g>
          <path id="Trazado_220017" data-name="Trazado 220017" d="M90.907,31.959a.626.626,0,1,1-.627-.626A.626.626,0,0,1,90.907,31.959Z" transform="translate(-70.214 -30.481)" fill="#fff"/>
          <circle id="Elipse_8780" data-name="Elipse 8780" cx="0.626" cy="0.626" r="0.626" transform="translate(21.899 0.852)" fill="#fff"/>
          <path id="Trazado_220018" data-name="Trazado 220018" d="M97.919,31.959a.626.626,0,1,1-.626-.626A.626.626,0,0,1,97.919,31.959Z" transform="translate(-72.31 -30.481)" fill="#fff"/>
        </g>
        <g id="Grupo_163427" data-name="Grupo 163427" transform="translate(18.968 11.358)">
          <g id="Grupo_163425" data-name="Grupo 163425">
            <path id="Trazado_220019" data-name="Trazado 220019" d="M79.153,38.635H76.5a1.675,1.675,0,0,0-1.67,1.67v1.629h4.32Z" transform="translate(-74.833 -38.635)" fill="#ed8a40"/>
            <path id="Trazado_220020" data-name="Trazado 220020" d="M79.153,43.34h-4.32v15.5a1.675,1.675,0,0,0,1.67,1.67h2.65Z" transform="translate(-74.833 -40.041)" fill="#505acc"/>
          </g>
          <g id="Grupo_163426" data-name="Grupo 163426" transform="translate(1.967)">
            <path id="Trazado_220021" data-name="Trazado 220021" d="M102.622,40.3a1.674,1.674,0,0,0-1.669-1.67H79.309a1.675,1.675,0,0,0-1.67,1.67v1.629h24.983Z" transform="translate(-77.639 -38.635)" fill="#ffb680"/>
            <path id="Trazado_220022" data-name="Trazado 220022" d="M79.309,60.509h21.644a1.674,1.674,0,0,0,1.669-1.67V43.34H77.639v15.5A1.675,1.675,0,0,0,79.309,60.509Z" transform="translate(-77.639 -40.041)" fill="#7378e0"/>
          </g>
          <path id="Trazado_220023" data-name="Trazado 220023" d="M103.815,40.476a.626.626,0,1,1-.626-.626A.626.626,0,0,1,103.815,40.476Z" transform="translate(-83.122 -38.998)" fill="#fff"/>
          <path id="Trazado_220024" data-name="Trazado 220024" d="M107.321,40.476a.626.626,0,1,1-.626-.626A.626.626,0,0,1,107.321,40.476Z" transform="translate(-84.17 -38.998)" fill="#fff"/>
          <path id="Trazado_220025" data-name="Trazado 220025" d="M110.827,40.476a.626.626,0,1,1-.626-.626A.626.626,0,0,1,110.827,40.476Z" transform="translate(-85.218 -38.998)" fill="#fff"/>
        </g>
      </g>
      <g id="Grupo_163431" data-name="Grupo 163431" transform="translate(24.988 19.103)">
        <path id="Trazado_220026" data-name="Trazado 220026" d="M114.1,80.46a1.6,1.6,0,0,0-.362-1.691L105.068,70.1A6.1,6.1,0,0,1,102,71.551l9.479,9.479a1.6,1.6,0,0,0,1.126.466h1.6V80.46Z" transform="translate(-88.973 -55.785)" fill="#27c45b"/>
        <path id="Trazado_220027" data-name="Trazado 220027" d="M115.885,78.419l-9.493-9.493a6.534,6.534,0,0,1-2.595,1.929l9.825,9.825a1.6,1.6,0,1,0,2.262-2.262Z" transform="translate(-89.511 -55.434)" fill="#5be88d"/>
        <g id="Grupo_163430" data-name="Grupo 163430">
          <path id="Trazado_220028" data-name="Trazado 220028" d="M85.257,58.638A8.949,8.949,0,0,1,93.8,49.7v-.02H92.489v.006c-.038,0-.074-.006-.112-.006a8.957,8.957,0,1,0,0,17.913c.038,0,.074-.006.112-.006V67.6H93.8v-.021A8.949,8.949,0,0,1,85.257,58.638Z" transform="translate(-83.42 -49.682)" fill="#081019"/>
          <g id="Grupo_163429" data-name="Grupo 163429" transform="translate(1.837)">
            <path id="Trazado_220029" data-name="Trazado 220029" d="M95,49.682c-.138,0-.272.014-.409.02a8.945,8.945,0,0,0,0,17.872c.137.006.271.021.409.021a8.957,8.957,0,1,0,0-17.913Zm0,15.739c-.138,0-.273-.012-.409-.02a6.778,6.778,0,0,1-6.374-6.763v-.006a6.777,6.777,0,0,1,6.374-6.757c.136-.008.271-.02.409-.02a6.783,6.783,0,0,1,6.783,6.777v.006A6.783,6.783,0,0,1,95,65.421Z" transform="translate(-86.04 -49.682)" fill="#142535"/>
          </g>
        </g>
      </g>
    </g>
    <g id="Grupo_163447" data-name="Grupo 163447" transform="translate(157.197 12.847)">
      <g id="Grupo_163445" data-name="Grupo 163445" transform="translate(0 1.477)">
        <g id="Grupo_163444" data-name="Grupo 163444">
          <g id="Grupo_163435" data-name="Grupo 163435">
            <g id="Grupo_163433" data-name="Grupo 163433">
              <path id="Trazado_220030" data-name="Trazado 220030" d="M264.879,21.319a1.643,1.643,0,0,0-1.68-1.6H218.261a1.643,1.643,0,0,0-1.68,1.6V49.312h48.3Z" transform="translate(-216.581 -19.716)" fill="#081019"/>
            </g>
            <g id="Grupo_163434" data-name="Grupo 163434" transform="translate(0 29.596)">
              <path id="Trazado_220031" data-name="Trazado 220031" d="M218.261,67.193H263.2a1.642,1.642,0,0,0,1.68-1.6V61.931h-48.3V65.59A1.642,1.642,0,0,0,218.261,67.193Z" transform="translate(-216.581 -61.931)" fill="#175ca0"/>
            </g>
          </g>
          <g id="Grupo_163443" data-name="Grupo 163443" transform="translate(2.463)">
            <g id="Grupo_163436" data-name="Grupo 163436" transform="translate(16.687 34.205)">
              <rect id="Rectángulo_48516" data-name="Rectángulo 48516" width="12.043" height="5.739" fill="#0c5093"/>
            </g>
            <g id="Grupo_163437" data-name="Grupo 163437" transform="translate(18.127 34.205)">
              <rect id="Rectángulo_48517" data-name="Rectángulo 48517" width="12.043" height="5.739" fill="#175ca0"/>
            </g>
            <g id="Grupo_163438" data-name="Grupo 163438" transform="translate(13.294 39.384)">
              <rect id="Rectángulo_48518" data-name="Rectángulo 48518" width="14.924" height="1.613" fill="#175ca0"/>
            </g>
            <g id="Grupo_163439" data-name="Grupo 163439" transform="translate(18.127 39.384)">
              <rect id="Rectángulo_48519" data-name="Rectángulo 48519" width="14.924" height="1.613" fill="#6ea1e7"/>
            </g>
            <g id="Grupo_163442" data-name="Grupo 163442">
              <g id="Grupo_163440" data-name="Grupo 163440">
                <path id="Trazado_220032" data-name="Trazado 220032" d="M268.392,21.319a1.643,1.643,0,0,0-1.68-1.6H221.774a1.643,1.643,0,0,0-1.68,1.6V49.312h48.3Z" transform="translate(-220.094 -19.716)" fill="#142535"/>
              </g>
              <g id="Grupo_163441" data-name="Grupo 163441" transform="translate(0 29.596)">
                <path id="Trazado_220033" data-name="Trazado 220033" d="M221.774,67.193h44.938a1.642,1.642,0,0,0,1.68-1.6V61.931h-48.3V65.59A1.643,1.643,0,0,0,221.774,67.193Z" transform="translate(-220.094 -61.931)" fill="#6ea1e7"/>
              </g>
            </g>
          </g>
          <path id="Trazado_220034" data-name="Trazado 220034" d="M222.724,22.313V47.749h44.61V22.313Z" transform="translate(-218.417 -20.492)" fill="#fff"/>
          <path id="Trazado_220035" data-name="Trazado 220035" d="M256.778,65.664a.476.476,0,0,1-.476.476h-2.619a.476.476,0,0,1-.476-.476h0a.476.476,0,0,1,.476-.476H256.3a.476.476,0,0,1,.476.476Z" transform="translate(-227.529 -33.308)" fill="#fff"/>
        </g>
      </g>
      <g id="Grupo_163446" data-name="Grupo 163446" transform="translate(12.817)">
        <path id="Trazado_220036" data-name="Trazado 220036" d="M257.506,17.609H236.832a1.974,1.974,0,0,0-1.969,1.969v4.107h24.612V19.578A1.974,1.974,0,0,0,257.506,17.609Z" transform="translate(-234.863 -17.609)" fill="#27c45b"/>
        <rect id="Rectángulo_48520" data-name="Rectángulo 48520" width="24.612" height="25.437" transform="translate(0 3.298)" fill="#3576c4"/>
        <path id="Trazado_220037" data-name="Trazado 220037" d="M260.844,17.609H240.17a1.974,1.974,0,0,0-1.969,1.969v4.107h24.612V19.578A1.974,1.974,0,0,0,260.844,17.609Z" transform="translate(-235.861 -17.609)" fill="#5be88d"/>
        <rect id="Rectángulo_48521" data-name="Rectángulo 48521" width="24.612" height="25.437" transform="translate(2.34 3.298)" fill="#6ea1e7"/>
        <path id="Trazado_220038" data-name="Trazado 220038" d="M264.277,19.449a.626.626,0,1,1-.626-.626A.626.626,0,0,1,264.277,19.449Z" transform="translate(-243.281 -17.972)" fill="#fff"/>
        <circle id="Elipse_8781" data-name="Elipse 8781" cx="0.626" cy="0.626" r="0.626" transform="translate(22.202 0.851)" fill="#fff"/>
        <path id="Trazado_220039" data-name="Trazado 220039" d="M271.29,19.449a.626.626,0,1,1-.626-.626A.626.626,0,0,1,271.29,19.449Z" transform="translate(-245.377 -17.972)" fill="#fff"/>
        <rect id="Rectángulo_48522" data-name="Rectángulo 48522" width="20.338" height="10.545" transform="translate(4.477 5.471)" fill="#fff"/>
        <rect id="Rectángulo_48523" data-name="Rectángulo 48523" width="20.183" height="1.67" transform="translate(4.477 17.994)" fill="#fff"/>
        <rect id="Rectángulo_48524" data-name="Rectángulo 48524" width="20.183" height="1.67" transform="translate(4.477 21.612)" fill="#fff"/>
        <rect id="Rectángulo_48525" data-name="Rectángulo 48525" width="20.183" height="1.67" transform="translate(4.477 25.229)" fill="#fff"/>
      </g>
    </g>
  </g>
</svg>
